<?xml version="1.0" encoding="UTF-8" standalone="no"?>
<!DOCTYPE svg PUBLIC "-//W3C//DTD SVG 1.1//EN"
 "http://www.w3.org/Graphics/SVG/1.1/DTD/svg11.dtd">
<!-- Generated by graphviz version 2.43.0 (0)
 -->
<!-- Title: G Pages: 1 -->
<svg width="524pt" height="420pt"
 viewBox="0.00 0.00 523.75 420.27" xmlns="http://www.w3.org/2000/svg" xmlns:xlink="http://www.w3.org/1999/xlink">
<g id="graph0" class="graph" transform="scale(1 1) rotate(0) translate(4 416.27)">
<title>G</title>
<polygon fill="#3d3d3d" stroke="transparent" points="-4,4 -4,-416.27 519.75,-416.27 519.75,4 -4,4"/>
<!-- 16080239393517392754 -->
<g id="node1" class="node">
<title>16080239393517392754</title>
<path fill="lightgray" stroke="black" d="M175.74,-412.27C175.74,-412.27 91.74,-412.27 91.74,-412.27 85.74,-412.27 79.74,-406.27 79.74,-400.27 79.74,-400.27 79.74,-388.27 79.74,-388.27 79.74,-382.27 85.74,-376.27 91.74,-376.27 91.74,-376.27 175.74,-376.27 175.74,-376.27 181.74,-376.27 187.74,-382.27 187.74,-388.27 187.74,-388.27 187.74,-400.27 187.74,-400.27 187.74,-406.27 181.74,-412.27 175.74,-412.27"/>
<text text-anchor="middle" x="133.74" y="-390.57" font-family="Times,serif" font-size="14.00">Signals</text>
</g>
<!-- 13617421333920241101 -->
<g id="node8" class="node">
<title>13617421333920241101</title>
<ellipse fill="#3d3d3d" stroke="lightgray" cx="150.46" cy="-299.13" rx="1.8" ry="1.8"/>
</g>
<!-- 16080239393517392754&#45;&gt;13617421333920241101 -->
<g id="edge1" class="edge">
<title>16080239393517392754&#45;&gt;13617421333920241101</title>
<path fill="none" stroke="#1b9e77" d="M136.97,-375.93C141.22,-351.74 148.36,-311.08 150.08,-301.3"/>
</g>
<!-- 11110891922990083343 -->
<g id="node2" class="node">
<title>11110891922990083343</title>
<path fill="lightgray" stroke="black" d="M202.64,-215.94C202.64,-215.94 104.64,-215.94 104.64,-215.94 98.64,-215.94 92.64,-209.94 92.64,-203.94 92.64,-203.94 92.64,-189.94 92.64,-189.94 92.64,-183.94 98.64,-177.94 104.64,-177.94 104.64,-177.94 202.64,-177.94 202.64,-177.94 208.64,-177.94 214.64,-183.94 214.64,-189.94 214.64,-189.94 214.64,-203.94 214.64,-203.94 214.64,-209.94 208.64,-215.94 202.64,-215.94"/>
<text text-anchor="middle" x="153.64" y="-200.74" font-family="Times,serif" font-size="14.00">1:4</text>
<text text-anchor="middle" x="153.64" y="-185.74" font-family="Times,serif" font-size="14.00">Downsampling</text>
</g>
<!-- 14090999327100098430 -->
<g id="node9" class="node">
<title>14090999327100098430</title>
<ellipse fill="#3d3d3d" stroke="lightgray" cx="230.3" cy="-130.06" rx="1.8" ry="1.8"/>
</g>
<!-- 11110891922990083343&#45;&gt;14090999327100098430 -->
<g id="edge2" class="edge">
<title>11110891922990083343&#45;&gt;14090999327100098430</title>
<path fill="none" stroke="#d95f02" d="M175.81,-177.6C195.62,-160.31 222.48,-136.88 228.89,-131.29"/>
</g>
<!-- 15524628976928949123 -->
<g id="node3" class="node">
<title>15524628976928949123</title>
<path fill="lightgray" stroke="black" d="M396.89,-161.09C396.89,-161.09 272.89,-161.09 272.89,-161.09 266.89,-161.09 260.89,-155.09 260.89,-149.09 260.89,-149.09 260.89,-137.09 260.89,-137.09 260.89,-131.09 266.89,-125.09 272.89,-125.09 272.89,-125.09 396.89,-125.09 396.89,-125.09 402.89,-125.09 408.89,-131.09 408.89,-137.09 408.89,-137.09 408.89,-149.09 408.89,-149.09 408.89,-155.09 402.89,-161.09 396.89,-161.09"/>
<text text-anchor="middle" x="334.89" y="-139.39" font-family="Times,serif" font-size="14.00">&#45;(Y &#45; A)*sign(x[i&#45;1])</text>
</g>
<!-- 1312330470008679502 -->
<g id="node10" class="node">
<title>1312330470008679502</title>
<ellipse fill="#3d3d3d" stroke="lightgray" cx="407.17" cy="-87.46" rx="1.8" ry="1.8"/>
</g>
<!-- 15524628976928949123&#45;&gt;1312330470008679502 -->
<g id="edge3" class="edge">
<title>15524628976928949123&#45;&gt;1312330470008679502</title>
<path fill="none" stroke="#7570b3" d="M358.56,-124.87C376.67,-110.93 399.55,-93.32 405.63,-88.65"/>
</g>
<!-- 767290997661698770 -->
<g id="node4" class="node">
<title>767290997661698770</title>
<path fill="lightgray" stroke="black" d="M318.64,-210.8C318.64,-210.8 234.64,-210.8 234.64,-210.8 228.64,-210.8 222.64,-204.8 222.64,-198.8 222.64,-198.8 222.64,-184.8 222.64,-184.8 222.64,-178.8 228.64,-172.8 234.64,-172.8 234.64,-172.8 318.64,-172.8 318.64,-172.8 324.64,-172.8 330.64,-178.8 330.64,-184.8 330.64,-184.8 330.64,-198.8 330.64,-198.8 330.64,-204.8 324.64,-210.8 318.64,-210.8"/>
<text text-anchor="middle" x="276.64" y="-195.6" font-family="Times,serif" font-size="14.00">Down</text>
<text text-anchor="middle" x="276.64" y="-180.6" font-family="Times,serif" font-size="14.00">Logging</text>
</g>
<!-- 9811422752346158429 -->
<g id="node5" class="node">
<title>9811422752346158429</title>
<path fill="lightgray" stroke="black" d="M96,-319.14C96,-319.14 12,-319.14 12,-319.14 6,-319.14 0,-313.14 0,-307.14 0,-307.14 0,-295.14 0,-295.14 0,-289.14 6,-283.14 12,-283.14 12,-283.14 96,-283.14 96,-283.14 102,-283.14 108,-289.14 108,-295.14 108,-295.14 108,-307.14 108,-307.14 108,-313.14 102,-319.14 96,-319.14"/>
<text text-anchor="middle" x="54" y="-297.44" font-family="Times,serif" font-size="14.00">Logging</text>
</g>
<!-- 7866755711827121950 -->
<g id="node6" class="node">
<title>7866755711827121950</title>
<path fill="lightgray" stroke="black" d="M503.75,-38C503.75,-38 419.75,-38 419.75,-38 413.75,-38 407.75,-32 407.75,-26 407.75,-26 407.75,-12 407.75,-12 407.75,-6 413.75,0 419.75,0 419.75,0 503.75,0 503.75,0 509.75,0 515.75,-6 515.75,-12 515.75,-12 515.75,-26 515.75,-26 515.75,-32 509.75,-38 503.75,-38"/>
<text text-anchor="middle" x="461.75" y="-22.8" font-family="Times,serif" font-size="14.00">Up</text>
<text text-anchor="middle" x="461.75" y="-7.8" font-family="Times,serif" font-size="14.00">Logging</text>
</g>
<!-- 8888953599359679183 -->
<g id="node7" class="node">
<title>8888953599359679183</title>
<path fill="lightgray" stroke="black" d="M293.77,-331.68C293.77,-331.68 209.77,-331.68 209.77,-331.68 203.77,-331.68 197.77,-325.68 197.77,-319.68 197.77,-319.68 197.77,-305.68 197.77,-305.68 197.77,-299.68 203.77,-293.68 209.77,-293.68 209.77,-293.68 293.77,-293.68 293.77,-293.68 299.77,-293.68 305.77,-299.68 305.77,-305.68 305.77,-305.68 305.77,-319.68 305.77,-319.68 305.77,-325.68 299.77,-331.68 293.77,-331.68"/>
<text text-anchor="middle" x="251.77" y="-316.48" font-family="Times,serif" font-size="14.00">1/4</text>
<text text-anchor="middle" x="251.77" y="-301.48" font-family="Times,serif" font-size="14.00">Average</text>
</g>
<!-- 9724242860893494469 -->
<g id="node11" class="node">
<title>9724242860893494469</title>
<ellipse fill="#3d3d3d" stroke="lightgray" cx="330.04" cy="-248.1" rx="1.8" ry="1.8"/>
</g>
<!-- 8888953599359679183&#45;&gt;9724242860893494469 -->
<g id="edge4" class="edge">
<title>8888953599359679183&#45;&gt;9724242860893494469</title>
<path fill="none" stroke="#d95f02" d="M274.83,-293.65C295.04,-276.99 322.15,-254.61 328.62,-249.28"/>
</g>
<!-- 13617421333920241101&#45;&gt;11110891922990083343 -->
<g id="edge5" class="edge">
<title>13617421333920241101&#45;&gt;11110891922990083343</title>
<path fill="none" stroke="#1b9e77" d="M150.53,-297C150.81,-288.03 151.91,-252.65 152.72,-226.5"/>
<polygon fill="#1b9e77" stroke="#1b9e77" points="153.04,-216.31 157.22,-226.44 152.88,-221.3 152.73,-226.3 152.73,-226.3 152.73,-226.3 152.88,-221.3 148.23,-226.16 153.04,-216.31 153.04,-216.31"/>
<text text-anchor="middle" x="147.78" y="-259.42" font-family="Times,serif" font-size="9.00" fill="lightgray">U</text>
</g>
<!-- 13617421333920241101&#45;&gt;9811422752346158429 -->
<g id="edge10" class="edge">
<title>13617421333920241101&#45;&gt;9811422752346158429</title>
<path fill="none" stroke="#1b9e77" d="M148.45,-299.17C143.9,-299.27 132.15,-299.51 118.42,-299.8"/>
<polygon fill="#1b9e77" stroke="#1b9e77" points="108.14,-300.01 118.05,-295.31 113.14,-299.91 118.14,-299.8 118.14,-299.8 118.14,-299.8 113.14,-299.91 118.23,-304.3 108.14,-300.01 108.14,-300.01"/>
<text text-anchor="middle" x="124.55" y="-302.39" font-family="Times,serif" font-size="9.00" fill="lightgray">U</text>
</g>
<!-- 13617421333920241101&#45;&gt;8888953599359679183 -->
<g id="edge12" class="edge">
<title>13617421333920241101&#45;&gt;8888953599359679183</title>
<path fill="none" stroke="#1b9e77" d="M152.58,-299.41C157.73,-300.1 171.68,-301.97 187.55,-304.09"/>
<polygon fill="#1b9e77" stroke="#1b9e77" points="197.61,-305.44 187.1,-308.57 192.66,-304.77 187.7,-304.11 187.7,-304.11 187.7,-304.11 192.66,-304.77 188.3,-299.65 197.61,-305.44 197.61,-305.44"/>
<text text-anchor="middle" x="171.44" y="-305.27" font-family="Times,serif" font-size="9.00" fill="lightgray">U</text>
</g>
<!-- 14090999327100098430&#45;&gt;15524628976928949123 -->
<g id="edge6" class="edge">
<title>14090999327100098430&#45;&gt;15524628976928949123</title>
<path fill="none" stroke="#d95f02" d="M232.11,-130.28C235.2,-130.67 242,-131.51 250.7,-132.6"/>
<polygon fill="#d95f02" stroke="#d95f02" points="260.8,-133.86 250.32,-137.09 255.84,-133.24 250.88,-132.62 250.88,-132.62 250.88,-132.62 255.84,-133.24 251.43,-128.15 260.8,-133.86 260.8,-133.86"/>
<text text-anchor="middle" x="243.26" y="-134.91" font-family="Times,serif" font-size="9.00" fill="lightgray">Y</text>
</g>
<!-- 14090999327100098430&#45;&gt;767290997661698770 -->
<g id="edge8" class="edge">
<title>14090999327100098430&#45;&gt;767290997661698770</title>
<path fill="none" stroke="#d95f02" d="M231.44,-131.58C234.93,-136.23 245.79,-150.7 256,-164.3"/>
<polygon fill="#d95f02" stroke="#d95f02" points="262.19,-172.55 252.59,-167.25 259.19,-168.55 256.19,-164.55 256.19,-164.55 256.19,-164.55 259.19,-168.55 259.79,-161.85 262.19,-172.55 262.19,-172.55"/>
<text text-anchor="middle" x="243.44" y="-155.04" font-family="Times,serif" font-size="9.00" fill="lightgray">Y</text>
</g>
<!-- 1312330470008679502&#45;&gt;7866755711827121950 -->
<g id="edge11" class="edge">
<title>1312330470008679502&#45;&gt;7866755711827121950</title>
<path fill="none" stroke="#7570b3" d="M408.31,-86.03C412.43,-80.87 426.98,-62.61 439.86,-46.46"/>
<polygon fill="#7570b3" stroke="#7570b3" points="446.38,-38.28 443.66,-48.91 443.26,-42.19 440.15,-46.1 440.15,-46.1 440.15,-46.1 443.26,-42.19 436.63,-43.29 446.38,-38.28 446.38,-38.28"/>
<text text-anchor="middle" x="423.87" y="-64.93" font-family="Times,serif" font-size="9.00" fill="lightgray">Z</text>
</g>
<!-- 9724242860893494469&#45;&gt;15524628976928949123 -->
<g id="edge7" class="edge">
<title>9724242860893494469&#45;&gt;15524628976928949123</title>
<path fill="none" stroke="#d95f02" d="M330.31,-246.26C331.04,-241.15 333.06,-226.37 333.84,-214 334.72,-199.99 335.02,-184.38 335.09,-171.39"/>
<polygon fill="#d95f02" stroke="#d95f02" points="335.1,-161.18 339.59,-171.18 335.09,-166.18 335.09,-171.18 335.09,-171.18 335.09,-171.18 335.09,-166.18 330.59,-171.17 335.1,-161.18 335.1,-161.18"/>
<text text-anchor="middle" x="337.87" y="-206.74" font-family="Times,serif" font-size="9.00" fill="lightgray">A</text>
</g>
<!-- 9724242860893494469&#45;&gt;767290997661698770 -->
<g id="edge9" class="edge">
<title>9724242860893494469&#45;&gt;767290997661698770</title>
<path fill="none" stroke="#d95f02" d="M328.72,-246.71C324.87,-242.64 313.17,-230.31 301.83,-218.36"/>
<polygon fill="#d95f02" stroke="#d95f02" points="294.9,-211.05 305.04,-215.21 298.34,-214.68 301.78,-218.3 301.78,-218.3 301.78,-218.3 298.34,-214.68 298.51,-221.4 294.9,-211.05 294.9,-211.05"/>
<text text-anchor="middle" x="308.31" y="-231.68" font-family="Times,serif" font-size="9.00" fill="lightgray">A</text>
</g>
</g>
</svg>
