<?xml version="1.0" encoding="UTF-8" standalone="no"?>
<!DOCTYPE svg PUBLIC "-//W3C//DTD SVG 1.1//EN"
 "http://www.w3.org/Graphics/SVG/1.1/DTD/svg11.dtd">
<!-- Generated by graphviz version 2.43.0 (0)
 -->
<!-- Title: G Pages: 1 -->
<svg width="149pt" height="328pt"
 viewBox="0.00 0.00 148.86 327.59" xmlns="http://www.w3.org/2000/svg" xmlns:xlink="http://www.w3.org/1999/xlink">
<g id="graph0" class="graph" transform="scale(1 1) rotate(0) translate(4 323.59)">
<title>G</title>
<polygon fill="#3d3d3d" stroke="transparent" points="-4,4 -4,-323.59 144.86,-323.59 144.86,4 -4,4"/>
<!-- 709312810300218583 -->
<g id="node1" class="node">
<title>709312810300218583</title>
<path fill="lightgray" stroke="black" d="M113.1,-319.59C113.1,-319.59 29.1,-319.59 29.1,-319.59 23.1,-319.59 17.1,-313.59 17.1,-307.59 17.1,-307.59 17.1,-295.59 17.1,-295.59 17.1,-289.59 23.1,-283.59 29.1,-283.59 29.1,-283.59 113.1,-283.59 113.1,-283.59 119.1,-283.59 125.1,-289.59 125.1,-295.59 125.1,-295.59 125.1,-307.59 125.1,-307.59 125.1,-313.59 119.1,-319.59 113.1,-319.59"/>
<text text-anchor="middle" x="71.1" y="-297.89" font-family="Times,serif" font-size="14.00">RandGen</text>
</g>
<!-- 3455686617655837579 -->
<g id="node4" class="node">
<title>3455686617655837579</title>
<ellipse fill="#3d3d3d" stroke="lightgray" cx="85.19" cy="-230.69" rx="1.8" ry="1.8"/>
</g>
<!-- 709312810300218583&#45;&gt;3455686617655837579 -->
<g id="edge1" class="edge">
<title>709312810300218583&#45;&gt;3455686617655837579</title>
<path fill="none" stroke="#1b9e77" d="M74.73,-283.33C78.25,-265.61 83.27,-240.32 84.76,-232.84"/>
</g>
<!-- 10710189306465191904 -->
<g id="node2" class="node">
<title>10710189306465191904</title>
<path fill="lightgray" stroke="black" d="M128.86,-176.34C128.86,-176.34 44.86,-176.34 44.86,-176.34 38.86,-176.34 32.86,-170.34 32.86,-164.34 32.86,-164.34 32.86,-152.34 32.86,-152.34 32.86,-146.34 38.86,-140.34 44.86,-140.34 44.86,-140.34 128.86,-140.34 128.86,-140.34 134.86,-140.34 140.86,-146.34 140.86,-152.34 140.86,-152.34 140.86,-164.34 140.86,-164.34 140.86,-170.34 134.86,-176.34 128.86,-176.34"/>
<text text-anchor="middle" x="86.86" y="-154.64" font-family="Times,serif" font-size="14.00">Client</text>
</g>
<!-- 5300496221911170933 -->
<g id="node5" class="node">
<title>5300496221911170933</title>
<ellipse fill="#3d3d3d" stroke="lightgray" cx="76.17" cy="-86.79" rx="1.8" ry="1.8"/>
</g>
<!-- 10710189306465191904&#45;&gt;5300496221911170933 -->
<g id="edge2" class="edge">
<title>10710189306465191904&#45;&gt;5300496221911170933</title>
<path fill="none" stroke="#1b9e77" d="M84.16,-140.28C81.44,-122.07 77.5,-95.66 76.44,-88.59"/>
</g>
<!-- 8651497439710449477 -->
<g id="node3" class="node">
<title>8651497439710449477</title>
<path fill="lightgray" stroke="black" d="M96,-36C96,-36 12,-36 12,-36 6,-36 0,-30 0,-24 0,-24 0,-12 0,-12 0,-6 6,0 12,0 12,0 96,0 96,0 102,0 108,-6 108,-12 108,-12 108,-24 108,-24 108,-30 102,-36 96,-36"/>
<text text-anchor="middle" x="54" y="-14.3" font-family="Times,serif" font-size="14.00">DataLogger</text>
</g>
<!-- 3455686617655837579&#45;&gt;10710189306465191904 -->
<g id="edge3" class="edge">
<title>3455686617655837579&#45;&gt;10710189306465191904</title>
<path fill="none" stroke="#1b9e77" d="M85.23,-228.6C85.38,-222.4 85.81,-203.51 86.2,-186.88"/>
<polygon fill="#1b9e77" stroke="#1b9e77" points="86.44,-176.43 90.71,-186.53 86.32,-181.43 86.21,-186.42 86.21,-186.42 86.21,-186.42 86.32,-181.43 81.71,-186.32 86.44,-176.43 86.44,-176.43"/>
<text text-anchor="middle" x="80.84" y="-205.09" font-family="Times,serif" font-size="9.00" fill="lightgray">In</text>
</g>
<!-- 5300496221911170933&#45;&gt;8651497439710449477 -->
<g id="edge4" class="edge">
<title>5300496221911170933&#45;&gt;8651497439710449477</title>
<path fill="none" stroke="#1b9e77" stroke-dasharray="5,2" d="M75.53,-84.81C73.67,-79.03 68.06,-61.61 63.03,-46.01"/>
<polygon fill="#1b9e77" stroke="#1b9e77" points="59.86,-36.16 67.21,-44.3 61.39,-40.92 62.92,-45.68 62.92,-45.68 62.92,-45.68 61.39,-40.92 58.64,-47.06 59.86,-36.16 59.86,-36.16"/>
<text text-anchor="middle" x="58.67" y="-63.2" font-family="Times,serif" font-size="9.00" fill="lightgray">Out</text>
</g>
</g>
</svg>
