<?xml version="1.0" encoding="UTF-8" standalone="no"?>
<!DOCTYPE svg PUBLIC "-//W3C//DTD SVG 1.1//EN"
 "http://www.w3.org/Graphics/SVG/1.1/DTD/svg11.dtd">
<!-- Generated by graphviz version 2.43.0 (0)
 -->
<!-- Title: G Pages: 1 -->
<svg width="355pt" height="220pt"
 viewBox="0.00 0.00 355.44 220.03" xmlns="http://www.w3.org/2000/svg" xmlns:xlink="http://www.w3.org/1999/xlink">
<g id="graph0" class="graph" transform="scale(1 1) rotate(0) translate(4 216.03)">
<title>G</title>
<polygon fill="#3d3d3d" stroke="transparent" points="-4,4 -4,-216.03 351.44,-216.03 351.44,4 -4,4"/>
<!-- A -->
<g id="node1" class="node">
<title>A</title>
<path fill="lightgray" stroke="black" d="M96,-175.36C96,-175.36 12,-175.36 12,-175.36 6,-175.36 0,-169.36 0,-163.36 0,-163.36 0,-151.36 0,-151.36 0,-145.36 6,-139.36 12,-139.36 12,-139.36 96,-139.36 96,-139.36 102,-139.36 108,-145.36 108,-151.36 108,-151.36 108,-163.36 108,-163.36 108,-169.36 102,-175.36 96,-175.36"/>
<text text-anchor="middle" x="54" y="-153.66" font-family="Times,serif" font-size="14.00">A</text>
</g>
<!-- ab -->
<g id="node5" class="node">
<title>ab</title>
<ellipse fill="#3d3d3d" stroke="lightgray" cx="116.56" cy="-210.23" rx="1.8" ry="1.8"/>
</g>
<!-- A&#45;&gt;ab -->
<g id="edge8" class="edge">
<title>A&#45;&gt;ab</title>
<path fill="none" stroke="#1b9e77" d="M75.53,-175.55C90.8,-188.46 109.51,-204.27 114.98,-208.9"/>
<text text-anchor="middle" x="91.93" y="-198.13" font-family="Times,serif" font-size="9.00" fill="lightgray">AB</text>
</g>
<!-- ac -->
<g id="node6" class="node">
<title>ac</title>
<ellipse fill="#3d3d3d" stroke="lightgray" cx="107.64" cy="-97.64" rx="1.8" ry="1.8"/>
</g>
<!-- A&#45;&gt;ac -->
<g id="edge9" class="edge">
<title>A&#45;&gt;ac</title>
<path fill="none" stroke="#1b9e77" d="M70.39,-139.12C83.7,-124.3 101.07,-104.96 106.17,-99.28"/>
<text text-anchor="middle" x="80.86" y="-118.57" font-family="Times,serif" font-size="9.00" fill="lightgray">ABC</text>
</g>
<!-- B -->
<g id="node2" class="node">
<title>B</title>
<path fill="lightgray" stroke="black" d="M216.99,-172.53C216.99,-172.53 132.99,-172.53 132.99,-172.53 126.99,-172.53 120.99,-166.53 120.99,-160.53 120.99,-160.53 120.99,-148.53 120.99,-148.53 120.99,-142.53 126.99,-136.53 132.99,-136.53 132.99,-136.53 216.99,-136.53 216.99,-136.53 222.99,-136.53 228.99,-142.53 228.99,-148.53 228.99,-148.53 228.99,-160.53 228.99,-160.53 228.99,-166.53 222.99,-172.53 216.99,-172.53"/>
<text text-anchor="middle" x="174.99" y="-150.83" font-family="Times,serif" font-size="14.00">B</text>
</g>
<!-- bd1 -->
<g id="node9" class="node">
<title>bd1</title>
<ellipse fill="#3d3d3d" stroke="lightgray" cx="247.1" cy="-130.51" rx="1.8" ry="1.8"/>
</g>
<!-- B&#45;&gt;bd1 -->
<g id="edge12" class="edge">
<title>B&#45;&gt;bd1</title>
<path fill="none" stroke="#1b9e77" d="M229.28,-136.45C236.32,-134.1 242.1,-132.18 245.03,-131.2"/>
<text text-anchor="middle" x="228.2" y="-126.11" font-family="Times,serif" font-size="9.00" fill="lightgray">BD1</text>
</g>
<!-- bd2 -->
<g id="node10" class="node">
<title>bd2</title>
<ellipse fill="#3d3d3d" stroke="lightgray" cx="259.11" cy="-170.82" rx="1.8" ry="1.8"/>
</g>
<!-- B&#45;&gt;bd2 -->
<g id="edge13" class="edge">
<title>B&#45;&gt;bd2</title>
<path fill="none" stroke="#1b9e77" d="M229.21,-165.03C241.93,-167.49 253.02,-169.64 257.27,-170.46"/>
<text text-anchor="middle" x="256.92" y="-161.16" font-family="Times,serif" font-size="9.00" fill="lightgray">BD2</text>
</g>
<!-- C -->
<g id="node3" class="node">
<title>C</title>
<path fill="lightgray" stroke="black" d="M193.02,-36C193.02,-36 109.02,-36 109.02,-36 103.02,-36 97.02,-30 97.02,-24 97.02,-24 97.02,-12 97.02,-12 97.02,-6 103.02,0 109.02,0 109.02,0 193.02,0 193.02,0 199.02,0 205.02,-6 205.02,-12 205.02,-12 205.02,-24 205.02,-24 205.02,-30 199.02,-36 193.02,-36"/>
<text text-anchor="middle" x="151.02" y="-14.3" font-family="Times,serif" font-size="14.00">C</text>
</g>
<!-- cb -->
<g id="node7" class="node">
<title>cb</title>
<ellipse fill="#3d3d3d" stroke="lightgray" cx="164.37" cy="-78.56" rx="1.8" ry="1.8"/>
</g>
<!-- C&#45;&gt;cb -->
<g id="edge10" class="edge">
<title>C&#45;&gt;cb</title>
<path fill="none" stroke="#1b9e77" d="M155.02,-36.17C158.28,-50.94 162.55,-70.31 163.92,-76.54"/>
<text text-anchor="middle" x="153.18" y="-62.36" font-family="Times,serif" font-size="9.00" fill="lightgray">CB</text>
</g>
<!-- cd -->
<g id="node8" class="node">
<title>cd</title>
<ellipse fill="#3d3d3d" stroke="lightgray" cx="240.89" cy="-12.06" rx="1.8" ry="1.8"/>
</g>
<!-- C&#45;&gt;cd -->
<g id="edge11" class="edge">
<title>C&#45;&gt;cd</title>
<path fill="none" stroke="#1b9e77" d="M205.11,-14.42C220.28,-13.42 233.99,-12.52 238.93,-12.19"/>
<text text-anchor="middle" x="218.35" y="-15.85" font-family="Times,serif" font-size="9.00" fill="lightgray">CD</text>
</g>
<!-- D -->
<g id="node4" class="node">
<title>D</title>
<path fill="lightgray" stroke="black" d="M335.44,-101.63C335.44,-101.63 251.44,-101.63 251.44,-101.63 245.44,-101.63 239.44,-95.63 239.44,-89.63 239.44,-89.63 239.44,-77.63 239.44,-77.63 239.44,-71.63 245.44,-65.63 251.44,-65.63 251.44,-65.63 335.44,-65.63 335.44,-65.63 341.44,-65.63 347.44,-71.63 347.44,-77.63 347.44,-77.63 347.44,-89.63 347.44,-89.63 347.44,-95.63 341.44,-101.63 335.44,-101.63"/>
<text text-anchor="middle" x="293.44" y="-79.93" font-family="Times,serif" font-size="14.00">D</text>
</g>
<!-- ab&#45;&gt;B -->
<g id="edge1" class="edge">
<title>ab&#45;&gt;B</title>
<path fill="none" stroke="#1b9e77" d="M118,-208.85C122.35,-204.7 135.8,-191.88 148.55,-179.73"/>
<polygon fill="#1b9e77" stroke="#1b9e77" points="155.89,-172.73 151.76,-182.88 152.28,-176.18 148.66,-179.63 148.66,-179.63 148.66,-179.63 152.28,-176.18 145.55,-176.37 155.89,-172.73 155.89,-172.73"/>
</g>
<!-- ac&#45;&gt;B -->
<g id="edge2" class="edge">
<title>ac&#45;&gt;B</title>
<path fill="none" stroke="#1b9e77" d="M109.31,-99.05C114.48,-103.42 130.85,-117.24 145.94,-129.99"/>
<polygon fill="#1b9e77" stroke="#1b9e77" points="153.66,-136.51 143.11,-133.49 149.84,-133.28 146.02,-130.06 146.02,-130.06 146.02,-130.06 149.84,-133.28 148.92,-126.62 153.66,-136.51 153.66,-136.51"/>
</g>
<!-- ac&#45;&gt;C -->
<g id="edge3" class="edge">
<title>ac&#45;&gt;C</title>
<path fill="none" stroke="#1b9e77" d="M108.55,-95.98C112.1,-89.46 125.4,-65.05 136.18,-45.25"/>
<polygon fill="#1b9e77" stroke="#1b9e77" points="141.06,-36.28 140.23,-47.22 138.67,-40.67 136.28,-45.06 136.28,-45.06 136.28,-45.06 138.67,-40.67 132.33,-42.91 141.06,-36.28 141.06,-36.28"/>
</g>
<!-- cb&#45;&gt;B -->
<g id="edge4" class="edge">
<title>cb&#45;&gt;B</title>
<path fill="none" stroke="#1b9e77" d="M164.63,-80.43C165.52,-86.8 168.51,-108.21 171.05,-126.39"/>
<polygon fill="#1b9e77" stroke="#1b9e77" points="172.44,-136.31 166.6,-127.03 171.75,-131.35 171.05,-126.4 171.05,-126.4 171.05,-126.4 171.75,-131.35 175.51,-125.78 172.44,-136.31 172.44,-136.31"/>
</g>
<!-- cd&#45;&gt;D -->
<g id="edge5" class="edge">
<title>cd&#45;&gt;D</title>
<path fill="none" stroke="#1b9e77" d="M241.98,-13.55C246.14,-19.21 261.31,-39.88 274.12,-57.32"/>
<polygon fill="#1b9e77" stroke="#1b9e77" points="280.15,-65.54 270.61,-60.14 277.19,-61.51 274.23,-57.48 274.23,-57.48 274.23,-57.48 277.19,-61.51 277.86,-54.81 280.15,-65.54 280.15,-65.54"/>
</g>
<!-- bd1&#45;&gt;D -->
<g id="edge6" class="edge">
<title>bd1&#45;&gt;D</title>
<path fill="none" stroke="#1b9e77" d="M248.64,-128.95C251.93,-125.63 260.02,-117.44 268.44,-108.93"/>
<polygon fill="#1b9e77" stroke="#1b9e77" points="275.48,-101.8 271.65,-112.08 271.97,-105.36 268.45,-108.91 268.45,-108.91 268.45,-108.91 271.97,-105.36 265.25,-105.75 275.48,-101.8 275.48,-101.8"/>
</g>
<!-- bd2&#45;&gt;D -->
<g id="edge7" class="edge">
<title>bd2&#45;&gt;D</title>
<path fill="none" stroke="#1b9e77" d="M259.82,-169C262.73,-161.62 273.89,-133.28 282.56,-111.26"/>
<polygon fill="#1b9e77" stroke="#1b9e77" points="286.33,-101.68 286.86,-112.63 284.5,-106.33 282.67,-110.98 282.67,-110.98 282.67,-110.98 284.5,-106.33 278.48,-109.34 286.33,-101.68 286.33,-101.68"/>
</g>
</g>
</svg>
