<?xml version="1.0" encoding="UTF-8" standalone="no"?>
<!DOCTYPE svg PUBLIC "-//W3C//DTD SVG 1.1//EN"
 "http://www.w3.org/Graphics/SVG/1.1/DTD/svg11.dtd">
<!-- Generated by graphviz version 2.43.0 (0)
 -->
<!-- Title: G Pages: 1 -->
<svg width="5361pt" height="5365pt"
 viewBox="0.00 0.00 5360.98 5364.50" xmlns="http://www.w3.org/2000/svg" xmlns:xlink="http://www.w3.org/1999/xlink">
<g id="graph0" class="graph" transform="scale(1 1) rotate(0) translate(4 5360.5)">
<title>G</title>
<polygon fill="#3d3d3d" stroke="transparent" points="-4,4 -4,-5360.5 5356.98,-5360.5 5356.98,4 -4,4"/>
<!-- 6923268465890841387 -->
<g id="node1" class="node">
<title>6923268465890841387</title>
<path fill="lightgray" stroke="black" d="M2955.9,-2686.54C2955.9,-2686.54 2357.9,-2686.54 2357.9,-2686.54 2351.9,-2686.54 2345.9,-2680.54 2345.9,-2674.54 2345.9,-2674.54 2345.9,-2645.54 2345.9,-2645.54 2345.9,-2639.54 2351.9,-2633.54 2357.9,-2633.54 2357.9,-2633.54 2955.9,-2633.54 2955.9,-2633.54 2961.9,-2633.54 2967.9,-2639.54 2967.9,-2645.54 2967.9,-2645.54 2967.9,-2674.54 2967.9,-2674.54 2967.9,-2680.54 2961.9,-2686.54 2955.9,-2686.54"/>
<text text-anchor="middle" x="2656.9" y="-2675.34" font-family="Times,serif" font-size="14.00">GMT</text>
<text text-anchor="middle" x="2656.9" y="-2660.34" font-family="Times,serif" font-size="14.00"> &#160;&#160;&#160;Finite Element Model</text>
<text text-anchor="middle" x="2656.9" y="-2645.34" font-family="Times,serif" font-size="14.00"> &#160;&#160;&#160;/media/rconan/20230131_1605_zen_30_M1_202110_ASM_202208_Mount_202111/</text>
</g>
<!-- 17060268248001869314 -->
<g id="node38" class="node">
<title>17060268248001869314</title>
<ellipse fill="#3d3d3d" stroke="lightgray" cx="2469.29" cy="-2929.29" rx="1.8" ry="1.8"/>
</g>
<!-- 6923268465890841387&#45;&gt;17060268248001869314 -->
<g id="edge1" class="edge">
<title>6923268465890841387&#45;&gt;17060268248001869314</title>
<path fill="none" stroke="#1b9e77" stroke-width="2" d="M2638.23,-2686.84C2593.37,-2751.22 2482.36,-2910.54 2470.35,-2927.77"/>
</g>
<!-- 5185050415724242220 -->
<g id="node39" class="node">
<title>5185050415724242220</title>
<ellipse fill="#3d3d3d" stroke="lightgray" cx="2264.68" cy="-2553.97" rx="1.8" ry="1.8"/>
</g>
<!-- 6923268465890841387&#45;&gt;5185050415724242220 -->
<g id="edge2" class="edge">
<title>6923268465890841387&#45;&gt;5185050415724242220</title>
<path fill="none" stroke="#1b9e77" stroke-width="2" d="M2558.69,-2633.48C2449.77,-2604.02 2286.67,-2559.92 2266.7,-2554.52"/>
</g>
<!-- 12510606062659071544 -->
<g id="node40" class="node">
<title>12510606062659071544</title>
<ellipse fill="#3d3d3d" stroke="lightgray" cx="2513.1" cy="-3187.99" rx="1.8" ry="1.8"/>
</g>
<!-- 6923268465890841387&#45;&gt;12510606062659071544 -->
<g id="edge3" class="edge">
<title>6923268465890841387&#45;&gt;12510606062659071544</title>
<path fill="none" stroke="#1b9e77" stroke-width="2" d="M2649.67,-2686.58C2621.65,-2789.46 2521.37,-3157.62 2513.58,-3186.23"/>
</g>
<!-- 10569719447980019225 -->
<g id="node41" class="node">
<title>10569719447980019225</title>
<ellipse fill="#3d3d3d" stroke="lightgray" cx="2953.05" cy="-3049.62" rx="1.8" ry="1.8"/>
</g>
<!-- 6923268465890841387&#45;&gt;10569719447980019225 -->
<g id="edge4" class="edge">
<title>6923268465890841387&#45;&gt;10569719447980019225</title>
<path fill="none" stroke="#1b9e77" stroke-width="2" d="M2677.26,-2686.82C2741.29,-2771.05 2935.36,-3026.35 2951.92,-3048.14"/>
</g>
<!-- 17144408110511068227 -->
<g id="node42" class="node">
<title>17144408110511068227</title>
<ellipse fill="#3d3d3d" stroke="lightgray" cx="2851.07" cy="-2315.02" rx="1.8" ry="1.8"/>
</g>
<!-- 6923268465890841387&#45;&gt;17144408110511068227 -->
<g id="edge5" class="edge">
<title>6923268465890841387&#45;&gt;17144408110511068227</title>
<path fill="none" stroke="#1b9e77" stroke-width="2" d="M2671.81,-2633.54C2714.97,-2556.85 2837.71,-2338.76 2850.07,-2316.8"/>
</g>
<!-- 17378901314928794640 -->
<g id="node43" class="node">
<title>17378901314928794640</title>
<ellipse fill="#3d3d3d" stroke="lightgray" cx="3164.63" cy="-2826.04" rx="1.8" ry="1.8"/>
</g>
<!-- 6923268465890841387&#45;&gt;17378901314928794640 -->
<g id="edge6" class="edge">
<title>6923268465890841387&#45;&gt;17378901314928794640</title>
<path fill="none" stroke="#1b9e77" stroke-width="2" d="M2738.19,-2686.62C2874.91,-2731.32 3138.41,-2817.46 3162.81,-2825.44"/>
</g>
<!-- 17621401139099446208 -->
<g id="node44" class="node">
<title>17621401139099446208</title>
<ellipse fill="#3d3d3d" stroke="lightgray" cx="2724.4" cy="-2178.25" rx="1.8" ry="1.8"/>
</g>
<!-- 6923268465890841387&#45;&gt;17621401139099446208 -->
<g id="edge7" class="edge">
<title>6923268465890841387&#45;&gt;17621401139099446208</title>
<path fill="none" stroke="#1b9e77" stroke-width="2" d="M2660.63,-2633.45C2674.17,-2536.79 2720.2,-2208.22 2724.14,-2180.16"/>
</g>
<!-- 9695870857230867192 -->
<g id="node45" class="node">
<title>9695870857230867192</title>
<ellipse fill="#3d3d3d" stroke="lightgray" cx="2317.57" cy="-2265.68" rx="1.8" ry="1.8"/>
</g>
<!-- 6923268465890841387&#45;&gt;9695870857230867192 -->
<g id="edge8" class="edge">
<title>6923268465890841387&#45;&gt;9695870857230867192</title>
<path fill="none" stroke="#1b9e77" stroke-width="2" d="M2633.84,-2633.25C2560.75,-2548.3 2337.88,-2289.29 2318.86,-2267.18"/>
</g>
<!-- 8611624904136851065 -->
<g id="node2" class="node">
<title>8611624904136851065</title>
<path fill="lightgray" stroke="black" d="M1910.97,-1721.97C1910.97,-1721.97 1826.97,-1721.97 1826.97,-1721.97 1820.97,-1721.97 1814.97,-1715.97 1814.97,-1709.97 1814.97,-1709.97 1814.97,-1697.97 1814.97,-1697.97 1814.97,-1691.97 1820.97,-1685.97 1826.97,-1685.97 1826.97,-1685.97 1910.97,-1685.97 1910.97,-1685.97 1916.97,-1685.97 1922.97,-1691.97 1922.97,-1697.97 1922.97,-1697.97 1922.97,-1709.97 1922.97,-1709.97 1922.97,-1715.97 1916.97,-1721.97 1910.97,-1721.97"/>
<text text-anchor="middle" x="1868.97" y="-1700.27" font-family="Times,serif" font-size="14.00">Logging</text>
</g>
<!-- 12731085354785306831 -->
<g id="node3" class="node">
<title>12731085354785306831</title>
<path fill="lightgray" stroke="black" d="M1596.57,-2088.68C1596.57,-2088.68 1433.57,-2088.68 1433.57,-2088.68 1427.57,-2088.68 1421.57,-2082.68 1421.57,-2076.68 1421.57,-2076.68 1421.57,-2062.68 1421.57,-2062.68 1421.57,-2056.68 1427.57,-2050.68 1433.57,-2050.68 1433.57,-2050.68 1596.57,-2050.68 1596.57,-2050.68 1602.57,-2050.68 1608.57,-2056.68 1608.57,-2062.68 1608.57,-2062.68 1608.57,-2076.68 1608.57,-2076.68 1608.57,-2082.68 1602.57,-2088.68 1596.57,-2088.68"/>
<text text-anchor="middle" x="1515.07" y="-2073.48" font-family="Times,serif" font-size="14.00">M1S1</text>
<text text-anchor="middle" x="1515.07" y="-2058.48" font-family="Times,serif" font-size="14.00"> &#160;&#160;&#160;&#160;&#160;&#160;&#160;&#160;&#160;&#160;&#160;&#160;&#160;&#160;&#160;&#160;&#160;&#160;&#160;Hardpoints</text>
</g>
<!-- 13254462184774527690 -->
<g id="node46" class="node">
<title>13254462184774527690</title>
<ellipse fill="#3d3d3d" stroke="lightgray" cx="2048.48" cy="-2632.12" rx="1.8" ry="1.8"/>
</g>
<!-- 12731085354785306831&#45;&gt;13254462184774527690 -->
<g id="edge9" class="edge">
<title>12731085354785306831&#45;&gt;13254462184774527690</title>
<path fill="none" stroke="#1b9e77" d="M1533.13,-2088.71C1623.03,-2183.51 2019.21,-2601.25 2046.95,-2630.5"/>
</g>
<!-- 9817141177901842795 -->
<g id="node4" class="node">
<title>9817141177901842795</title>
<path fill="lightgray" stroke="black" d="M2008.62,-3479.43C2008.62,-3479.43 1859.62,-3479.43 1859.62,-3479.43 1853.62,-3479.43 1847.62,-3473.43 1847.62,-3467.43 1847.62,-3467.43 1847.62,-3453.43 1847.62,-3453.43 1847.62,-3447.43 1853.62,-3441.43 1859.62,-3441.43 1859.62,-3441.43 2008.62,-3441.43 2008.62,-3441.43 2014.62,-3441.43 2020.62,-3447.43 2020.62,-3453.43 2020.62,-3453.43 2020.62,-3467.43 2020.62,-3467.43 2020.62,-3473.43 2014.62,-3479.43 2008.62,-3479.43"/>
<text text-anchor="middle" x="1934.12" y="-3464.23" font-family="Times,serif" font-size="14.00">M1S1</text>
<text text-anchor="middle" x="1934.12" y="-3449.23" font-family="Times,serif" font-size="14.00"> &#160;&#160;&#160;&#160;&#160;&#160;&#160;&#160;&#160;&#160;&#160;&#160;&#160;&#160;&#160;&#160;&#160;&#160;&#160;Loadcells</text>
</g>
<!-- 13734935183375864922 -->
<g id="node47" class="node">
<title>13734935183375864922</title>
<ellipse fill="#3d3d3d" stroke="lightgray" cx="2129.49" cy="-4258.12" rx="1.8" ry="1.8"/>
</g>
<!-- 9817141177901842795&#45;&gt;13734935183375864922 -->
<g id="edge10" class="edge">
<title>9817141177901842795&#45;&gt;13734935183375864922</title>
<path fill="none" stroke="#d95f02" stroke-width="2" d="M1937.19,-3479.54C1945.09,-3527.88 1967.27,-3658.87 1992.52,-3766.61 2041.82,-3977.06 2121.57,-4232.85 2128.94,-4256.37"/>
</g>
<!-- 13456541555459239564 -->
<g id="node5" class="node">
<title>13456541555459239564</title>
<path fill="lightgray" stroke="black" d="M2826.45,-4071.39C2826.45,-4071.39 2674.45,-4071.39 2674.45,-4071.39 2668.45,-4071.39 2662.45,-4065.39 2662.45,-4059.39 2662.45,-4059.39 2662.45,-4045.39 2662.45,-4045.39 2662.45,-4039.39 2668.45,-4033.39 2674.45,-4033.39 2674.45,-4033.39 2826.45,-4033.39 2826.45,-4033.39 2832.45,-4033.39 2838.45,-4039.39 2838.45,-4045.39 2838.45,-4045.39 2838.45,-4059.39 2838.45,-4059.39 2838.45,-4065.39 2832.45,-4071.39 2826.45,-4071.39"/>
<text text-anchor="middle" x="2750.45" y="-4056.19" font-family="Times,serif" font-size="14.00">M1S1</text>
<text text-anchor="middle" x="2750.45" y="-4041.19" font-family="Times,serif" font-size="14.00"> &#160;&#160;&#160;&#160;&#160;&#160;&#160;&#160;&#160;&#160;&#160;&#160;&#160;&#160;&#160;&#160;&#160;&#160;&#160;Actuators</text>
</g>
<!-- 16963285381156722616 -->
<g id="node48" class="node">
<title>16963285381156722616</title>
<ellipse fill="#3d3d3d" stroke="lightgray" cx="2796.77" cy="-3320.3" rx="1.8" ry="1.8"/>
</g>
<!-- 13456541555459239564&#45;&gt;16963285381156722616 -->
<g id="edge11" class="edge">
<title>13456541555459239564&#45;&gt;16963285381156722616</title>
<path fill="none" stroke="#1b9e77" d="M2751.66,-4033.18C2758.73,-3921.51 2794.3,-3359.44 2796.65,-3322.24"/>
</g>
<!-- 17247103710083610990 -->
<g id="node6" class="node">
<title>17247103710083610990</title>
<path fill="lightgray" stroke="black" d="M3538.55,-3603.74C3538.55,-3603.74 3375.55,-3603.74 3375.55,-3603.74 3369.55,-3603.74 3363.55,-3597.74 3363.55,-3591.74 3363.55,-3591.74 3363.55,-3577.74 3363.55,-3577.74 3363.55,-3571.74 3369.55,-3565.74 3375.55,-3565.74 3375.55,-3565.74 3538.55,-3565.74 3538.55,-3565.74 3544.55,-3565.74 3550.55,-3571.74 3550.55,-3577.74 3550.55,-3577.74 3550.55,-3591.74 3550.55,-3591.74 3550.55,-3597.74 3544.55,-3603.74 3538.55,-3603.74"/>
<text text-anchor="middle" x="3457.05" y="-3588.54" font-family="Times,serif" font-size="14.00">M1S2</text>
<text text-anchor="middle" x="3457.05" y="-3573.54" font-family="Times,serif" font-size="14.00"> &#160;&#160;&#160;&#160;&#160;&#160;&#160;&#160;&#160;&#160;&#160;&#160;&#160;&#160;&#160;&#160;&#160;&#160;&#160;Hardpoints</text>
</g>
<!-- 3266460364944529614 -->
<g id="node49" class="node">
<title>3266460364944529614</title>
<ellipse fill="#3d3d3d" stroke="lightgray" cx="2729.63" cy="-3041.74" rx="1.8" ry="1.8"/>
</g>
<!-- 17247103710083610990&#45;&gt;3266460364944529614 -->
<g id="edge12" class="edge">
<title>17247103710083610990&#45;&gt;3266460364944529614</title>
<path fill="none" stroke="#1b9e77" d="M3431.58,-3565.73C3306.86,-3472.63 2765.02,-3068.16 2731.27,-3042.97"/>
</g>
<!-- 12914288804457826028 -->
<g id="node7" class="node">
<title>12914288804457826028</title>
<path fill="lightgray" stroke="black" d="M1800.51,-2892.82C1800.51,-2892.82 1651.51,-2892.82 1651.51,-2892.82 1645.51,-2892.82 1639.51,-2886.82 1639.51,-2880.82 1639.51,-2880.82 1639.51,-2866.82 1639.51,-2866.82 1639.51,-2860.82 1645.51,-2854.82 1651.51,-2854.82 1651.51,-2854.82 1800.51,-2854.82 1800.51,-2854.82 1806.51,-2854.82 1812.51,-2860.82 1812.51,-2866.82 1812.51,-2866.82 1812.51,-2880.82 1812.51,-2880.82 1812.51,-2886.82 1806.51,-2892.82 1800.51,-2892.82"/>
<text text-anchor="middle" x="1726.01" y="-2877.62" font-family="Times,serif" font-size="14.00">M1S2</text>
<text text-anchor="middle" x="1726.01" y="-2862.62" font-family="Times,serif" font-size="14.00"> &#160;&#160;&#160;&#160;&#160;&#160;&#160;&#160;&#160;&#160;&#160;&#160;&#160;&#160;&#160;&#160;&#160;&#160;&#160;Loadcells</text>
</g>
<!-- 11229188983633792363 -->
<g id="node50" class="node">
<title>11229188983633792363</title>
<ellipse fill="#3d3d3d" stroke="lightgray" cx="1020.06" cy="-2625.37" rx="1.8" ry="1.8"/>
</g>
<!-- 12914288804457826028&#45;&gt;11229188983633792363 -->
<g id="edge13" class="edge">
<title>12914288804457826028&#45;&gt;11229188983633792363</title>
<path fill="none" stroke="#d95f02" stroke-width="2" d="M1671.79,-2854.74C1512.29,-2798.61 1053.86,-2637.27 1021.83,-2626"/>
</g>
<!-- 12757732583399154715 -->
<g id="node8" class="node">
<title>12757732583399154715</title>
<path fill="lightgray" stroke="black" d="M1427.05,-2207.36C1427.05,-2207.36 1275.05,-2207.36 1275.05,-2207.36 1269.05,-2207.36 1263.05,-2201.36 1263.05,-2195.36 1263.05,-2195.36 1263.05,-2181.36 1263.05,-2181.36 1263.05,-2175.36 1269.05,-2169.36 1275.05,-2169.36 1275.05,-2169.36 1427.05,-2169.36 1427.05,-2169.36 1433.05,-2169.36 1439.05,-2175.36 1439.05,-2181.36 1439.05,-2181.36 1439.05,-2195.36 1439.05,-2195.36 1439.05,-2201.36 1433.05,-2207.36 1427.05,-2207.36"/>
<text text-anchor="middle" x="1351.05" y="-2192.16" font-family="Times,serif" font-size="14.00">M1S2</text>
<text text-anchor="middle" x="1351.05" y="-2177.16" font-family="Times,serif" font-size="14.00"> &#160;&#160;&#160;&#160;&#160;&#160;&#160;&#160;&#160;&#160;&#160;&#160;&#160;&#160;&#160;&#160;&#160;&#160;&#160;Actuators</text>
</g>
<!-- 15628350407256098675 -->
<g id="node51" class="node">
<title>15628350407256098675</title>
<ellipse fill="#3d3d3d" stroke="lightgray" cx="2049.65" cy="-2356.54" rx="1.8" ry="1.8"/>
</g>
<!-- 12757732583399154715&#45;&gt;15628350407256098675 -->
<g id="edge14" class="edge">
<title>12757732583399154715&#45;&gt;15628350407256098675</title>
<path fill="none" stroke="#1b9e77" d="M1430.17,-2207.41C1605.93,-2249.72 2015.93,-2348.42 2047.69,-2356.06"/>
</g>
<!-- 8394722738487995712 -->
<g id="node9" class="node">
<title>8394722738487995712</title>
<path fill="lightgray" stroke="black" d="M1475.35,-3304.32C1475.35,-3304.32 1312.35,-3304.32 1312.35,-3304.32 1306.35,-3304.32 1300.35,-3298.32 1300.35,-3292.32 1300.35,-3292.32 1300.35,-3278.32 1300.35,-3278.32 1300.35,-3272.32 1306.35,-3266.32 1312.35,-3266.32 1312.35,-3266.32 1475.35,-3266.32 1475.35,-3266.32 1481.35,-3266.32 1487.35,-3272.32 1487.35,-3278.32 1487.35,-3278.32 1487.35,-3292.32 1487.35,-3292.32 1487.35,-3298.32 1481.35,-3304.32 1475.35,-3304.32"/>
<text text-anchor="middle" x="1393.85" y="-3289.12" font-family="Times,serif" font-size="14.00">M1S3</text>
<text text-anchor="middle" x="1393.85" y="-3274.12" font-family="Times,serif" font-size="14.00"> &#160;&#160;&#160;&#160;&#160;&#160;&#160;&#160;&#160;&#160;&#160;&#160;&#160;&#160;&#160;&#160;&#160;&#160;&#160;Hardpoints</text>
</g>
<!-- 16660014027615126763 -->
<g id="node52" class="node">
<title>16660014027615126763</title>
<ellipse fill="#3d3d3d" stroke="lightgray" cx="2064.81" cy="-3020.39" rx="1.8" ry="1.8"/>
</g>
<!-- 8394722738487995712&#45;&gt;16660014027615126763 -->
<g id="edge15" class="edge">
<title>8394722738487995712&#45;&gt;16660014027615126763</title>
<path fill="none" stroke="#1b9e77" d="M1442.11,-3266.27C1590.54,-3207.66 2032.23,-3033.25 2063.1,-3021.06"/>
</g>
<!-- 12367018580917085300 -->
<g id="node10" class="node">
<title>12367018580917085300</title>
<path fill="lightgray" stroke="black" d="M2156.72,-3763.41C2156.72,-3763.41 2007.72,-3763.41 2007.72,-3763.41 2001.72,-3763.41 1995.72,-3757.41 1995.72,-3751.41 1995.72,-3751.41 1995.72,-3737.41 1995.72,-3737.41 1995.72,-3731.41 2001.72,-3725.41 2007.72,-3725.41 2007.72,-3725.41 2156.72,-3725.41 2156.72,-3725.41 2162.72,-3725.41 2168.72,-3731.41 2168.72,-3737.41 2168.72,-3737.41 2168.72,-3751.41 2168.72,-3751.41 2168.72,-3757.41 2162.72,-3763.41 2156.72,-3763.41"/>
<text text-anchor="middle" x="2082.22" y="-3748.21" font-family="Times,serif" font-size="14.00">M1S3</text>
<text text-anchor="middle" x="2082.22" y="-3733.21" font-family="Times,serif" font-size="14.00"> &#160;&#160;&#160;&#160;&#160;&#160;&#160;&#160;&#160;&#160;&#160;&#160;&#160;&#160;&#160;&#160;&#160;&#160;&#160;Loadcells</text>
</g>
<!-- 12231861257859185698 -->
<g id="node53" class="node">
<title>12231861257859185698</title>
<ellipse fill="#3d3d3d" stroke="lightgray" cx="1786.69" cy="-4331.09" rx="1.8" ry="1.8"/>
</g>
<!-- 12367018580917085300&#45;&gt;12231861257859185698 -->
<g id="edge16" class="edge">
<title>12367018580917085300&#45;&gt;12231861257859185698</title>
<path fill="none" stroke="#d95f02" stroke-width="2" d="M2072.55,-3763.6C2023.41,-3861.16 1802.98,-4298.75 1787.54,-4329.4"/>
</g>
<!-- 14050267932239083785 -->
<g id="node11" class="node">
<title>14050267932239083785</title>
<path fill="lightgray" stroke="black" d="M1802.11,-3799.4C1802.11,-3799.4 1650.11,-3799.4 1650.11,-3799.4 1644.11,-3799.4 1638.11,-3793.4 1638.11,-3787.4 1638.11,-3787.4 1638.11,-3773.4 1638.11,-3773.4 1638.11,-3767.4 1644.11,-3761.4 1650.11,-3761.4 1650.11,-3761.4 1802.11,-3761.4 1802.11,-3761.4 1808.11,-3761.4 1814.11,-3767.4 1814.11,-3773.4 1814.11,-3773.4 1814.11,-3787.4 1814.11,-3787.4 1814.11,-3793.4 1808.11,-3799.4 1802.11,-3799.4"/>
<text text-anchor="middle" x="1726.11" y="-3784.2" font-family="Times,serif" font-size="14.00">M1S3</text>
<text text-anchor="middle" x="1726.11" y="-3769.2" font-family="Times,serif" font-size="14.00"> &#160;&#160;&#160;&#160;&#160;&#160;&#160;&#160;&#160;&#160;&#160;&#160;&#160;&#160;&#160;&#160;&#160;&#160;&#160;Actuators</text>
</g>
<!-- 4540907197014273973 -->
<g id="node54" class="node">
<title>4540907197014273973</title>
<ellipse fill="#3d3d3d" stroke="lightgray" cx="2267.97" cy="-3216.46" rx="1.8" ry="1.8"/>
</g>
<!-- 14050267932239083785&#45;&gt;4540907197014273973 -->
<g id="edge17" class="edge">
<title>14050267932239083785&#45;&gt;4540907197014273973</title>
<path fill="none" stroke="#1b9e77" d="M1745.91,-3761.17C1794.12,-3714.24 1921.18,-3589.81 2023.82,-3482.63 2127.91,-3373.94 2251.41,-3235.11 2266.45,-3218.18"/>
</g>
<!-- 15217189094916091562 -->
<g id="node12" class="node">
<title>15217189094916091562</title>
<path fill="lightgray" stroke="black" d="M1483.32,-3014.49C1483.32,-3014.49 1320.32,-3014.49 1320.32,-3014.49 1314.32,-3014.49 1308.32,-3008.49 1308.32,-3002.49 1308.32,-3002.49 1308.32,-2988.49 1308.32,-2988.49 1308.32,-2982.49 1314.32,-2976.49 1320.32,-2976.49 1320.32,-2976.49 1483.32,-2976.49 1483.32,-2976.49 1489.32,-2976.49 1495.32,-2982.49 1495.32,-2988.49 1495.32,-2988.49 1495.32,-3002.49 1495.32,-3002.49 1495.32,-3008.49 1489.32,-3014.49 1483.32,-3014.49"/>
<text text-anchor="middle" x="1401.82" y="-2999.29" font-family="Times,serif" font-size="14.00">M1S4</text>
<text text-anchor="middle" x="1401.82" y="-2984.29" font-family="Times,serif" font-size="14.00"> &#160;&#160;&#160;&#160;&#160;&#160;&#160;&#160;&#160;&#160;&#160;&#160;&#160;&#160;&#160;&#160;&#160;&#160;&#160;Hardpoints</text>
</g>
<!-- 12395115991920806803 -->
<g id="node55" class="node">
<title>12395115991920806803</title>
<ellipse fill="#3d3d3d" stroke="lightgray" cx="2242.47" cy="-2986.29" rx="1.8" ry="1.8"/>
</g>
<!-- 15217189094916091562&#45;&gt;12395115991920806803 -->
<g id="edge18" class="edge">
<title>15217189094916091562&#45;&gt;12395115991920806803</title>
<path fill="none" stroke="#1b9e77" d="M1495.4,-2994.47C1706.82,-2992.15 2205.73,-2986.69 2240.54,-2986.31"/>
</g>
<!-- 253783876682516454 -->
<g id="node13" class="node">
<title>253783876682516454</title>
<path fill="lightgray" stroke="black" d="M2735.75,-3762.51C2735.75,-3762.51 2586.75,-3762.51 2586.75,-3762.51 2580.75,-3762.51 2574.75,-3756.51 2574.75,-3750.51 2574.75,-3750.51 2574.75,-3736.51 2574.75,-3736.51 2574.75,-3730.51 2580.75,-3724.51 2586.75,-3724.51 2586.75,-3724.51 2735.75,-3724.51 2735.75,-3724.51 2741.75,-3724.51 2747.75,-3730.51 2747.75,-3736.51 2747.75,-3736.51 2747.75,-3750.51 2747.75,-3750.51 2747.75,-3756.51 2741.75,-3762.51 2735.75,-3762.51"/>
<text text-anchor="middle" x="2661.25" y="-3747.31" font-family="Times,serif" font-size="14.00">M1S4</text>
<text text-anchor="middle" x="2661.25" y="-3732.31" font-family="Times,serif" font-size="14.00"> &#160;&#160;&#160;&#160;&#160;&#160;&#160;&#160;&#160;&#160;&#160;&#160;&#160;&#160;&#160;&#160;&#160;&#160;&#160;Loadcells</text>
</g>
<!-- 6412797464805006005 -->
<g id="node56" class="node">
<title>6412797464805006005</title>
<ellipse fill="#3d3d3d" stroke="lightgray" cx="3187.38" cy="-4307.42" rx="1.8" ry="1.8"/>
</g>
<!-- 253783876682516454&#45;&gt;6412797464805006005 -->
<g id="edge19" class="edge">
<title>253783876682516454&#45;&gt;6412797464805006005</title>
<path fill="none" stroke="#d95f02" stroke-width="2" d="M2679.06,-3762.59C2767.73,-3857.63 3158.5,-4276.47 3185.87,-4305.8"/>
</g>
<!-- 7606381790494488192 -->
<g id="node14" class="node">
<title>7606381790494488192</title>
<path fill="lightgray" stroke="black" d="M3266.5,-3952.34C3266.5,-3952.34 3114.5,-3952.34 3114.5,-3952.34 3108.5,-3952.34 3102.5,-3946.34 3102.5,-3940.34 3102.5,-3940.34 3102.5,-3926.34 3102.5,-3926.34 3102.5,-3920.34 3108.5,-3914.34 3114.5,-3914.34 3114.5,-3914.34 3266.5,-3914.34 3266.5,-3914.34 3272.5,-3914.34 3278.5,-3920.34 3278.5,-3926.34 3278.5,-3926.34 3278.5,-3940.34 3278.5,-3940.34 3278.5,-3946.34 3272.5,-3952.34 3266.5,-3952.34"/>
<text text-anchor="middle" x="3190.5" y="-3937.14" font-family="Times,serif" font-size="14.00">M1S4</text>
<text text-anchor="middle" x="3190.5" y="-3922.14" font-family="Times,serif" font-size="14.00"> &#160;&#160;&#160;&#160;&#160;&#160;&#160;&#160;&#160;&#160;&#160;&#160;&#160;&#160;&#160;&#160;&#160;&#160;&#160;Actuators</text>
</g>
<!-- 4941318742070416173 -->
<g id="node57" class="node">
<title>4941318742070416173</title>
<ellipse fill="#3d3d3d" stroke="lightgray" cx="3042.52" cy="-3237.75" rx="1.8" ry="1.8"/>
</g>
<!-- 7606381790494488192&#45;&gt;4941318742070416173 -->
<g id="edge20" class="edge">
<title>7606381790494488192&#45;&gt;4941318742070416173</title>
<path fill="none" stroke="#1b9e77" d="M3186.38,-3914.01C3163.33,-3805.61 3050.84,-3276.84 3042.96,-3239.79"/>
</g>
<!-- 12840535852242017780 -->
<g id="node15" class="node">
<title>12840535852242017780</title>
<path fill="lightgray" stroke="black" d="M3986.91,-2967.14C3986.91,-2967.14 3823.91,-2967.14 3823.91,-2967.14 3817.91,-2967.14 3811.91,-2961.14 3811.91,-2955.14 3811.91,-2955.14 3811.91,-2941.14 3811.91,-2941.14 3811.91,-2935.14 3817.91,-2929.14 3823.91,-2929.14 3823.91,-2929.14 3986.91,-2929.14 3986.91,-2929.14 3992.91,-2929.14 3998.91,-2935.14 3998.91,-2941.14 3998.91,-2941.14 3998.91,-2955.14 3998.91,-2955.14 3998.91,-2961.14 3992.91,-2967.14 3986.91,-2967.14"/>
<text text-anchor="middle" x="3905.41" y="-2951.94" font-family="Times,serif" font-size="14.00">M1S6</text>
<text text-anchor="middle" x="3905.41" y="-2936.94" font-family="Times,serif" font-size="14.00"> &#160;&#160;&#160;&#160;&#160;&#160;&#160;&#160;&#160;&#160;&#160;&#160;&#160;&#160;&#160;&#160;&#160;&#160;&#160;Hardpoints</text>
</g>
<!-- 14480343811691284513 -->
<g id="node58" class="node">
<title>14480343811691284513</title>
<ellipse fill="#3d3d3d" stroke="lightgray" cx="3178.76" cy="-2532.31" rx="1.8" ry="1.8"/>
</g>
<!-- 12840535852242017780&#45;&gt;14480343811691284513 -->
<g id="edge21" class="edge">
<title>12840535852242017780&#45;&gt;14480343811691284513</title>
<path fill="none" stroke="#1b9e77" d="M3871.82,-2928.92C3733.37,-2849.7 3212.74,-2551.76 3180.34,-2533.21"/>
</g>
<!-- 4596463053101681754 -->
<g id="node16" class="node">
<title>4596463053101681754</title>
<path fill="lightgray" stroke="black" d="M3283.78,-1766.1C3283.78,-1766.1 3134.78,-1766.1 3134.78,-1766.1 3128.78,-1766.1 3122.78,-1760.1 3122.78,-1754.1 3122.78,-1754.1 3122.78,-1740.1 3122.78,-1740.1 3122.78,-1734.1 3128.78,-1728.1 3134.78,-1728.1 3134.78,-1728.1 3283.78,-1728.1 3283.78,-1728.1 3289.78,-1728.1 3295.78,-1734.1 3295.78,-1740.1 3295.78,-1740.1 3295.78,-1754.1 3295.78,-1754.1 3295.78,-1760.1 3289.78,-1766.1 3283.78,-1766.1"/>
<text text-anchor="middle" x="3209.28" y="-1750.9" font-family="Times,serif" font-size="14.00">M1S6</text>
<text text-anchor="middle" x="3209.28" y="-1735.9" font-family="Times,serif" font-size="14.00"> &#160;&#160;&#160;&#160;&#160;&#160;&#160;&#160;&#160;&#160;&#160;&#160;&#160;&#160;&#160;&#160;&#160;&#160;&#160;Loadcells</text>
</g>
<!-- 3400305328334063720 -->
<g id="node59" class="node">
<title>3400305328334063720</title>
<ellipse fill="#3d3d3d" stroke="lightgray" cx="2924.72" cy="-1032.3" rx="1.8" ry="1.8"/>
</g>
<!-- 4596463053101681754&#45;&gt;3400305328334063720 -->
<g id="edge22" class="edge">
<title>4596463053101681754&#45;&gt;3400305328334063720</title>
<path fill="none" stroke="#d95f02" stroke-width="2" d="M3201.66,-1727.98C3157.83,-1617.86 2939.02,-1068.22 2925.39,-1033.98"/>
</g>
<!-- 4971691102062873834 -->
<g id="node17" class="node">
<title>4971691102062873834</title>
<path fill="lightgray" stroke="black" d="M2365.81,-1379.56C2365.81,-1379.56 2213.81,-1379.56 2213.81,-1379.56 2207.81,-1379.56 2201.81,-1373.56 2201.81,-1367.56 2201.81,-1367.56 2201.81,-1353.56 2201.81,-1353.56 2201.81,-1347.56 2207.81,-1341.56 2213.81,-1341.56 2213.81,-1341.56 2365.81,-1341.56 2365.81,-1341.56 2371.81,-1341.56 2377.81,-1347.56 2377.81,-1353.56 2377.81,-1353.56 2377.81,-1367.56 2377.81,-1367.56 2377.81,-1373.56 2371.81,-1379.56 2365.81,-1379.56"/>
<text text-anchor="middle" x="2289.81" y="-1364.36" font-family="Times,serif" font-size="14.00">M1S6</text>
<text text-anchor="middle" x="2289.81" y="-1349.36" font-family="Times,serif" font-size="14.00"> &#160;&#160;&#160;&#160;&#160;&#160;&#160;&#160;&#160;&#160;&#160;&#160;&#160;&#160;&#160;&#160;&#160;&#160;&#160;Actuators</text>
</g>
<!-- 14571155803125052809 -->
<g id="node60" class="node">
<title>14571155803125052809</title>
<ellipse fill="#3d3d3d" stroke="lightgray" cx="2406.68" cy="-2065.18" rx="1.8" ry="1.8"/>
</g>
<!-- 4971691102062873834&#45;&gt;14571155803125052809 -->
<g id="edge23" class="edge">
<title>4971691102062873834&#45;&gt;14571155803125052809</title>
<path fill="none" stroke="#1b9e77" d="M2293,-1379.78C2311.07,-1488.73 2400.1,-2025.49 2406.33,-2063.1"/>
</g>
<!-- 7029504328798252482 -->
<g id="node18" class="node">
<title>7029504328798252482</title>
<path fill="lightgray" stroke="black" d="M3848.59,-1951.66C3848.59,-1951.66 3685.59,-1951.66 3685.59,-1951.66 3679.59,-1951.66 3673.59,-1945.66 3673.59,-1939.66 3673.59,-1939.66 3673.59,-1925.66 3673.59,-1925.66 3673.59,-1919.66 3679.59,-1913.66 3685.59,-1913.66 3685.59,-1913.66 3848.59,-1913.66 3848.59,-1913.66 3854.59,-1913.66 3860.59,-1919.66 3860.59,-1925.66 3860.59,-1925.66 3860.59,-1939.66 3860.59,-1939.66 3860.59,-1945.66 3854.59,-1951.66 3848.59,-1951.66"/>
<text text-anchor="middle" x="3767.09" y="-1936.46" font-family="Times,serif" font-size="14.00">M1S5</text>
<text text-anchor="middle" x="3767.09" y="-1921.46" font-family="Times,serif" font-size="14.00"> &#160;&#160;&#160;&#160;&#160;&#160;&#160;&#160;&#160;&#160;&#160;&#160;&#160;&#160;&#160;&#160;&#160;&#160;&#160;Hardpoints</text>
</g>
<!-- 3866450572919949294 -->
<g id="node61" class="node">
<title>3866450572919949294</title>
<ellipse fill="#3d3d3d" stroke="lightgray" cx="3270.55" cy="-2412.81" rx="1.8" ry="1.8"/>
</g>
<!-- 7029504328798252482&#45;&gt;3866450572919949294 -->
<g id="edge24" class="edge">
<title>7029504328798252482&#45;&gt;3866450572919949294</title>
<path fill="none" stroke="#1b9e77" d="M3747.32,-1951.77C3658.21,-2037.94 3297.22,-2387.02 3271.94,-2411.46"/>
</g>
<!-- 17837599286913035225 -->
<g id="node19" class="node">
<title>17837599286913035225</title>
<path fill="lightgray" stroke="black" d="M3902.57,-2761.65C3902.57,-2761.65 3753.57,-2761.65 3753.57,-2761.65 3747.57,-2761.65 3741.57,-2755.65 3741.57,-2749.65 3741.57,-2749.65 3741.57,-2735.65 3741.57,-2735.65 3741.57,-2729.65 3747.57,-2723.65 3753.57,-2723.65 3753.57,-2723.65 3902.57,-2723.65 3902.57,-2723.65 3908.57,-2723.65 3914.57,-2729.65 3914.57,-2735.65 3914.57,-2735.65 3914.57,-2749.65 3914.57,-2749.65 3914.57,-2755.65 3908.57,-2761.65 3902.57,-2761.65"/>
<text text-anchor="middle" x="3828.07" y="-2746.45" font-family="Times,serif" font-size="14.00">M1S5</text>
<text text-anchor="middle" x="3828.07" y="-2731.45" font-family="Times,serif" font-size="14.00"> &#160;&#160;&#160;&#160;&#160;&#160;&#160;&#160;&#160;&#160;&#160;&#160;&#160;&#160;&#160;&#160;&#160;&#160;&#160;Loadcells</text>
</g>
<!-- 18083880317815061432 -->
<g id="node62" class="node">
<title>18083880317815061432</title>
<ellipse fill="#3d3d3d" stroke="lightgray" cx="4457.66" cy="-2853.87" rx="1.8" ry="1.8"/>
</g>
<!-- 17837599286913035225&#45;&gt;18083880317815061432 -->
<g id="edge25" class="edge">
<title>17837599286913035225&#45;&gt;18083880317815061432</title>
<path fill="none" stroke="#d95f02" stroke-width="2" d="M3914.62,-2757.94C4079.78,-2787.12 4426.19,-2848.31 4455.66,-2853.52"/>
</g>
<!-- 11866810641491922280 -->
<g id="node20" class="node">
<title>11866810641491922280</title>
<path fill="lightgray" stroke="black" d="M4113.88,-2545.76C4113.88,-2545.76 3961.88,-2545.76 3961.88,-2545.76 3955.88,-2545.76 3949.88,-2539.76 3949.88,-2533.76 3949.88,-2533.76 3949.88,-2519.76 3949.88,-2519.76 3949.88,-2513.76 3955.88,-2507.76 3961.88,-2507.76 3961.88,-2507.76 4113.88,-2507.76 4113.88,-2507.76 4119.88,-2507.76 4125.88,-2513.76 4125.88,-2519.76 4125.88,-2519.76 4125.88,-2533.76 4125.88,-2533.76 4125.88,-2539.76 4119.88,-2545.76 4113.88,-2545.76"/>
<text text-anchor="middle" x="4037.88" y="-2530.56" font-family="Times,serif" font-size="14.00">M1S5</text>
<text text-anchor="middle" x="4037.88" y="-2515.56" font-family="Times,serif" font-size="14.00"> &#160;&#160;&#160;&#160;&#160;&#160;&#160;&#160;&#160;&#160;&#160;&#160;&#160;&#160;&#160;&#160;&#160;&#160;&#160;Actuators</text>
</g>
<!-- 6099127760367114275 -->
<g id="node63" class="node">
<title>6099127760367114275</title>
<ellipse fill="#3d3d3d" stroke="lightgray" cx="3321.07" cy="-2711.99" rx="1.8" ry="1.8"/>
</g>
<!-- 11866810641491922280&#45;&gt;6099127760367114275 -->
<g id="edge26" class="edge">
<title>11866810641491922280&#45;&gt;6099127760367114275</title>
<path fill="none" stroke="#1b9e77" d="M3964.2,-2545.8C3788.43,-2591.22 3356.6,-2702.8 3323.13,-2711.45"/>
</g>
<!-- 5211479530975126942 -->
<g id="node21" class="node">
<title>5211479530975126942</title>
<path fill="lightgray" stroke="black" d="M2542.29,-1333.56C2542.29,-1333.56 2379.29,-1333.56 2379.29,-1333.56 2373.29,-1333.56 2367.29,-1327.56 2367.29,-1321.56 2367.29,-1321.56 2367.29,-1307.56 2367.29,-1307.56 2367.29,-1301.56 2373.29,-1295.56 2379.29,-1295.56 2379.29,-1295.56 2542.29,-1295.56 2542.29,-1295.56 2548.29,-1295.56 2554.29,-1301.56 2554.29,-1307.56 2554.29,-1307.56 2554.29,-1321.56 2554.29,-1321.56 2554.29,-1327.56 2548.29,-1333.56 2542.29,-1333.56"/>
<text text-anchor="middle" x="2460.79" y="-1318.36" font-family="Times,serif" font-size="14.00">M1S7</text>
<text text-anchor="middle" x="2460.79" y="-1303.36" font-family="Times,serif" font-size="14.00"> &#160;&#160;&#160;&#160;&#160;&#160;&#160;&#160;&#160;&#160;&#160;&#160;&#160;&#160;&#160;&#160;&#160;&#160;&#160;Hardpoints</text>
</g>
<!-- 5194074664784390226 -->
<g id="node64" class="node">
<title>5194074664784390226</title>
<ellipse fill="#3d3d3d" stroke="lightgray" cx="2635.67" cy="-1987.3" rx="1.8" ry="1.8"/>
</g>
<!-- 5211479530975126942&#45;&gt;5194074664784390226 -->
<g id="edge27" class="edge">
<title>5211479530975126942&#45;&gt;5194074664784390226</title>
<path fill="none" stroke="#1b9e77" d="M2465.74,-1333.61C2493.2,-1439.24 2625.86,-1949.57 2635.16,-1985.32"/>
</g>
<!-- 16759380960328700133 -->
<g id="node22" class="node">
<title>16759380960328700133</title>
<path fill="lightgray" stroke="black" d="M3025.04,-1517.14C3025.04,-1517.14 2876.04,-1517.14 2876.04,-1517.14 2870.04,-1517.14 2864.04,-1511.14 2864.04,-1505.14 2864.04,-1505.14 2864.04,-1491.14 2864.04,-1491.14 2864.04,-1485.14 2870.04,-1479.14 2876.04,-1479.14 2876.04,-1479.14 3025.04,-1479.14 3025.04,-1479.14 3031.04,-1479.14 3037.04,-1485.14 3037.04,-1491.14 3037.04,-1491.14 3037.04,-1505.14 3037.04,-1505.14 3037.04,-1511.14 3031.04,-1517.14 3025.04,-1517.14"/>
<text text-anchor="middle" x="2950.54" y="-1501.94" font-family="Times,serif" font-size="14.00">M1S7</text>
<text text-anchor="middle" x="2950.54" y="-1486.94" font-family="Times,serif" font-size="14.00"> &#160;&#160;&#160;&#160;&#160;&#160;&#160;&#160;&#160;&#160;&#160;&#160;&#160;&#160;&#160;&#160;&#160;&#160;&#160;Loadcells</text>
</g>
<!-- 17455302710639134042 -->
<g id="node65" class="node">
<title>17455302710639134042</title>
<ellipse fill="#3d3d3d" stroke="lightgray" cx="3406.88" cy="-1024.46" rx="1.8" ry="1.8"/>
</g>
<!-- 16759380960328700133&#45;&gt;17455302710639134042 -->
<g id="edge28" class="edge">
<title>16759380960328700133&#45;&gt;17455302710639134042</title>
<path fill="none" stroke="#d95f02" stroke-width="2" d="M2969,-1478.98C3051.37,-1393.48 3382.42,-1049.85 3405.6,-1025.79"/>
</g>
<!-- 13967629702428167562 -->
<g id="node23" class="node">
<title>13967629702428167562</title>
<path fill="lightgray" stroke="black" d="M3624.68,-1656.93C3624.68,-1656.93 3472.68,-1656.93 3472.68,-1656.93 3466.68,-1656.93 3460.68,-1650.93 3460.68,-1644.93 3460.68,-1644.93 3460.68,-1630.93 3460.68,-1630.93 3460.68,-1624.93 3466.68,-1618.93 3472.68,-1618.93 3472.68,-1618.93 3624.68,-1618.93 3624.68,-1618.93 3630.68,-1618.93 3636.68,-1624.93 3636.68,-1630.93 3636.68,-1630.93 3636.68,-1644.93 3636.68,-1644.93 3636.68,-1650.93 3630.68,-1656.93 3624.68,-1656.93"/>
<text text-anchor="middle" x="3548.68" y="-1641.73" font-family="Times,serif" font-size="14.00">M1S7</text>
<text text-anchor="middle" x="3548.68" y="-1626.73" font-family="Times,serif" font-size="14.00"> &#160;&#160;&#160;&#160;&#160;&#160;&#160;&#160;&#160;&#160;&#160;&#160;&#160;&#160;&#160;&#160;&#160;&#160;&#160;Actuators</text>
</g>
<!-- 18219438198209507952 -->
<g id="node66" class="node">
<title>18219438198209507952</title>
<ellipse fill="#3d3d3d" stroke="lightgray" cx="3054.9" cy="-2188.55" rx="1.8" ry="1.8"/>
</g>
<!-- 13967629702428167562&#45;&gt;18219438198209507952 -->
<g id="edge29" class="edge">
<title>13967629702428167562&#45;&gt;18219438198209507952</title>
<path fill="none" stroke="#1b9e77" d="M3531.4,-1657.2C3447.07,-1751.23 3081.89,-2158.46 3056.32,-2186.97"/>
</g>
<!-- 11763641791469948013 -->
<g id="node24" class="node">
<title>11763641791469948013</title>
<path fill="lightgray" stroke="black" d="M588.28,-1164.18C588.28,-1164.18 504.28,-1164.18 504.28,-1164.18 498.28,-1164.18 492.28,-1158.18 492.28,-1152.18 492.28,-1152.18 492.28,-1140.18 492.28,-1140.18 492.28,-1134.18 498.28,-1128.18 504.28,-1128.18 504.28,-1128.18 588.28,-1128.18 588.28,-1128.18 594.28,-1128.18 600.28,-1134.18 600.28,-1140.18 600.28,-1140.18 600.28,-1152.18 600.28,-1152.18 600.28,-1158.18 594.28,-1164.18 588.28,-1164.18"/>
<text text-anchor="middle" x="546.28" y="-1142.48" font-family="Times,serif" font-size="14.00">Signals</text>
</g>
<!-- 10901010791771574459 -->
<g id="node67" class="node">
<title>10901010791771574459</title>
<ellipse fill="#3d3d3d" stroke="lightgray" cx="1017.94" cy="-1571.99" rx="1.8" ry="1.8"/>
</g>
<!-- 11763641791469948013&#45;&gt;10901010791771574459 -->
<g id="edge30" class="edge">
<title>11763641791469948013&#45;&gt;10901010791771574459</title>
<path fill="none" stroke="#1b9e77" d="M566.24,-1164.2C652.51,-1242.08 990.08,-1546.83 1016.32,-1570.52"/>
</g>
<!-- 15145901477169751526 -->
<g id="node25" class="node">
<title>15145901477169751526</title>
<path fill="lightgray" stroke="black" d="M3391.51,-5256.78C3391.51,-5256.78 3307.51,-5256.78 3307.51,-5256.78 3301.51,-5256.78 3295.51,-5250.78 3295.51,-5244.78 3295.51,-5244.78 3295.51,-5232.78 3295.51,-5232.78 3295.51,-5226.78 3301.51,-5220.78 3307.51,-5220.78 3307.51,-5220.78 3391.51,-5220.78 3391.51,-5220.78 3397.51,-5220.78 3403.51,-5226.78 3403.51,-5232.78 3403.51,-5232.78 3403.51,-5244.78 3403.51,-5244.78 3403.51,-5250.78 3397.51,-5256.78 3391.51,-5256.78"/>
<text text-anchor="middle" x="3349.51" y="-5235.08" font-family="Times,serif" font-size="14.00">Signals</text>
</g>
<!-- 17850338592001803333 -->
<g id="node68" class="node">
<title>17850338592001803333</title>
<ellipse fill="#3d3d3d" stroke="lightgray" cx="3100.59" cy="-4654.33" rx="1.8" ry="1.8"/>
</g>
<!-- 15145901477169751526&#45;&gt;17850338592001803333 -->
<g id="edge31" class="edge">
<title>15145901477169751526&#45;&gt;17850338592001803333</title>
<path fill="none" stroke="#d95f02" d="M3341.78,-5220.65C3301.25,-5125.47 3114.4,-4686.76 3101.31,-4656.03"/>
</g>
<!-- 9227271794353802672 -->
<g id="node26" class="node">
<title>9227271794353802672</title>
<path fill="lightgray" stroke="black" d="M4510.45,-4503.41C4510.45,-4503.41 4426.45,-4503.41 4426.45,-4503.41 4420.45,-4503.41 4414.45,-4497.41 4414.45,-4491.41 4414.45,-4491.41 4414.45,-4479.41 4414.45,-4479.41 4414.45,-4473.41 4420.45,-4467.41 4426.45,-4467.41 4426.45,-4467.41 4510.45,-4467.41 4510.45,-4467.41 4516.45,-4467.41 4522.45,-4473.41 4522.45,-4479.41 4522.45,-4479.41 4522.45,-4491.41 4522.45,-4491.41 4522.45,-4497.41 4516.45,-4503.41 4510.45,-4503.41"/>
<text text-anchor="middle" x="4468.45" y="-4481.71" font-family="Times,serif" font-size="14.00">Signals</text>
</g>
<!-- 1560569834449579204 -->
<g id="node69" class="node">
<title>1560569834449579204</title>
<ellipse fill="#3d3d3d" stroke="lightgray" cx="4002.27" cy="-4048.75" rx="1.8" ry="1.8"/>
</g>
<!-- 9227271794353802672&#45;&gt;1560569834449579204 -->
<g id="edge32" class="edge">
<title>9227271794353802672&#45;&gt;1560569834449579204</title>
<path fill="none" stroke="#1b9e77" d="M4449.01,-4467.2C4364.23,-4387.79 4029.87,-4074.6 4003.87,-4050.25"/>
</g>
<!-- 9518213049189947366 -->
<g id="node27" class="node">
<title>9518213049189947366</title>
<path fill="lightgray" stroke="black" d="M218.12,-1693.96C218.12,-1693.96 134.12,-1693.96 134.12,-1693.96 128.12,-1693.96 122.12,-1687.96 122.12,-1681.96 122.12,-1681.96 122.12,-1669.96 122.12,-1669.96 122.12,-1663.96 128.12,-1657.96 134.12,-1657.96 134.12,-1657.96 218.12,-1657.96 218.12,-1657.96 224.12,-1657.96 230.12,-1663.96 230.12,-1669.96 230.12,-1669.96 230.12,-1681.96 230.12,-1681.96 230.12,-1687.96 224.12,-1693.96 218.12,-1693.96"/>
<text text-anchor="middle" x="176.12" y="-1672.26" font-family="Times,serif" font-size="14.00">Signals</text>
</g>
<!-- 5173928062779297333 -->
<g id="node70" class="node">
<title>5173928062779297333</title>
<ellipse fill="#3d3d3d" stroke="lightgray" cx="753.84" cy="-1893.22" rx="1.8" ry="1.8"/>
</g>
<!-- 9518213049189947366&#45;&gt;5173928062779297333 -->
<g id="edge33" class="edge">
<title>9518213049189947366&#45;&gt;5173928062779297333</title>
<path fill="none" stroke="#d95f02" d="M224.38,-1694.11C357.81,-1744.28 723.71,-1881.88 752.09,-1892.56"/>
</g>
<!-- 17383542812352438922 -->
<g id="node28" class="node">
<title>17383542812352438922</title>
<path fill="lightgray" stroke="black" d="M272.02,-3882.91C272.02,-3882.91 188.02,-3882.91 188.02,-3882.91 182.02,-3882.91 176.02,-3876.91 176.02,-3870.91 176.02,-3870.91 176.02,-3858.91 176.02,-3858.91 176.02,-3852.91 182.02,-3846.91 188.02,-3846.91 188.02,-3846.91 272.02,-3846.91 272.02,-3846.91 278.02,-3846.91 284.02,-3852.91 284.02,-3858.91 284.02,-3858.91 284.02,-3870.91 284.02,-3870.91 284.02,-3876.91 278.02,-3882.91 272.02,-3882.91"/>
<text text-anchor="middle" x="230.02" y="-3861.21" font-family="Times,serif" font-size="14.00">Signals</text>
</g>
<!-- 16074485712335845093 -->
<g id="node71" class="node">
<title>16074485712335845093</title>
<ellipse fill="#3d3d3d" stroke="lightgray" cx="787.96" cy="-3586.58" rx="1.8" ry="1.8"/>
</g>
<!-- 17383542812352438922&#45;&gt;16074485712335845093 -->
<g id="edge34" class="edge">
<title>17383542812352438922&#45;&gt;16074485712335845093</title>
<path fill="none" stroke="#1b9e77" d="M266.2,-3846.86C385,-3787.6 757.28,-3601.89 786.18,-3587.47"/>
</g>
<!-- 8302649568942587561 -->
<g id="node29" class="node">
<title>8302649568942587561</title>
<path fill="lightgray" stroke="black" d="M988.03,-4817.96C988.03,-4817.96 904.03,-4817.96 904.03,-4817.96 898.03,-4817.96 892.03,-4811.96 892.03,-4805.96 892.03,-4805.96 892.03,-4793.96 892.03,-4793.96 892.03,-4787.96 898.03,-4781.96 904.03,-4781.96 904.03,-4781.96 988.03,-4781.96 988.03,-4781.96 994.03,-4781.96 1000.03,-4787.96 1000.03,-4793.96 1000.03,-4793.96 1000.03,-4805.96 1000.03,-4805.96 1000.03,-4811.96 994.03,-4817.96 988.03,-4817.96"/>
<text text-anchor="middle" x="946.03" y="-4796.26" font-family="Times,serif" font-size="14.00">Signals</text>
</g>
<!-- 4978143971295123632 -->
<g id="node72" class="node">
<title>4978143971295123632</title>
<ellipse fill="#3d3d3d" stroke="lightgray" cx="1254.06" cy="-4263.6" rx="1.8" ry="1.8"/>
</g>
<!-- 8302649568942587561&#45;&gt;4978143971295123632 -->
<g id="edge35" class="edge">
<title>8302649568942587561&#45;&gt;4978143971295123632</title>
<path fill="none" stroke="#d95f02" d="M956.45,-4781.81C1008.16,-4691.77 1235.3,-4296.26 1252.97,-4265.5"/>
</g>
<!-- 12341793244238613210 -->
<g id="node30" class="node">
<title>12341793244238613210</title>
<path fill="lightgray" stroke="black" d="M96,-3087.54C96,-3087.54 12,-3087.54 12,-3087.54 6,-3087.54 0,-3081.54 0,-3075.54 0,-3075.54 0,-3063.54 0,-3063.54 0,-3057.54 6,-3051.54 12,-3051.54 12,-3051.54 96,-3051.54 96,-3051.54 102,-3051.54 108,-3057.54 108,-3063.54 108,-3063.54 108,-3075.54 108,-3075.54 108,-3081.54 102,-3087.54 96,-3087.54"/>
<text text-anchor="middle" x="54" y="-3065.84" font-family="Times,serif" font-size="14.00">Signals</text>
</g>
<!-- 10381210061958966062 -->
<g id="node73" class="node">
<title>10381210061958966062</title>
<ellipse fill="#3d3d3d" stroke="lightgray" cx="691.1" cy="-3043.88" rx="1.8" ry="1.8"/>
</g>
<!-- 12341793244238613210&#45;&gt;10381210061958966062 -->
<g id="edge36" class="edge">
<title>12341793244238613210&#45;&gt;10381210061958966062</title>
<path fill="none" stroke="#1b9e77" d="M108.04,-3067.36C255.87,-3061.41 657.99,-3045.22 689.18,-3043.96"/>
</g>
<!-- 1900659861650821083 -->
<g id="node31" class="node">
<title>1900659861650821083</title>
<path fill="lightgray" stroke="black" d="M3061.52,-5356.5C3061.52,-5356.5 2977.52,-5356.5 2977.52,-5356.5 2971.52,-5356.5 2965.52,-5350.5 2965.52,-5344.5 2965.52,-5344.5 2965.52,-5332.5 2965.52,-5332.5 2965.52,-5326.5 2971.52,-5320.5 2977.52,-5320.5 2977.52,-5320.5 3061.52,-5320.5 3061.52,-5320.5 3067.52,-5320.5 3073.52,-5326.5 3073.52,-5332.5 3073.52,-5332.5 3073.52,-5344.5 3073.52,-5344.5 3073.52,-5350.5 3067.52,-5356.5 3061.52,-5356.5"/>
<text text-anchor="middle" x="3019.52" y="-5334.8" font-family="Times,serif" font-size="14.00">Signals</text>
</g>
<!-- 1220750975316630934 -->
<g id="node74" class="node">
<title>1220750975316630934</title>
<ellipse fill="#3d3d3d" stroke="lightgray" cx="3016.67" cy="-4708.92" rx="1.8" ry="1.8"/>
</g>
<!-- 1900659861650821083&#45;&gt;1220750975316630934 -->
<g id="edge37" class="edge">
<title>1900659861650821083&#45;&gt;1220750975316630934</title>
<path fill="none" stroke="#d95f02" d="M3019.44,-5320.34C3018.99,-5220.74 3016.83,-4744.15 3016.68,-4710.76"/>
</g>
<!-- 3509656805982508733 -->
<g id="node32" class="node">
<title>3509656805982508733</title>
<path fill="lightgray" stroke="black" d="M5192.36,-3418.52C5192.36,-3418.52 5108.36,-3418.52 5108.36,-3418.52 5102.36,-3418.52 5096.36,-3412.52 5096.36,-3406.52 5096.36,-3406.52 5096.36,-3394.52 5096.36,-3394.52 5096.36,-3388.52 5102.36,-3382.52 5108.36,-3382.52 5108.36,-3382.52 5192.36,-3382.52 5192.36,-3382.52 5198.36,-3382.52 5204.36,-3388.52 5204.36,-3394.52 5204.36,-3394.52 5204.36,-3406.52 5204.36,-3406.52 5204.36,-3412.52 5198.36,-3418.52 5192.36,-3418.52"/>
<text text-anchor="middle" x="5150.36" y="-3396.82" font-family="Times,serif" font-size="14.00">Signals</text>
</g>
<!-- 13690209237385652781 -->
<g id="node75" class="node">
<title>13690209237385652781</title>
<ellipse fill="#3d3d3d" stroke="lightgray" cx="4550.18" cy="-3216.59" rx="1.8" ry="1.8"/>
</g>
<!-- 3509656805982508733&#45;&gt;13690209237385652781 -->
<g id="edge38" class="edge">
<title>3509656805982508733&#45;&gt;13690209237385652781</title>
<path fill="none" stroke="#1b9e77" d="M5096.31,-3383.96C4954.54,-3340.51 4580.94,-3226.01 4551.97,-3217.14"/>
</g>
<!-- 11708920306642233574 -->
<g id="node33" class="node">
<title>11708920306642233574</title>
<path fill="lightgray" stroke="black" d="M1741.34,-237.54C1741.34,-237.54 1657.34,-237.54 1657.34,-237.54 1651.34,-237.54 1645.34,-231.54 1645.34,-225.54 1645.34,-225.54 1645.34,-213.54 1645.34,-213.54 1645.34,-207.54 1651.34,-201.54 1657.34,-201.54 1657.34,-201.54 1741.34,-201.54 1741.34,-201.54 1747.34,-201.54 1753.34,-207.54 1753.34,-213.54 1753.34,-213.54 1753.34,-225.54 1753.34,-225.54 1753.34,-231.54 1747.34,-237.54 1741.34,-237.54"/>
<text text-anchor="middle" x="1699.34" y="-215.84" font-family="Times,serif" font-size="14.00">Signals</text>
</g>
<!-- 2275214403196109054 -->
<g id="node76" class="node">
<title>2275214403196109054</title>
<ellipse fill="#3d3d3d" stroke="lightgray" cx="1939.78" cy="-788.55" rx="1.8" ry="1.8"/>
</g>
<!-- 11708920306642233574&#45;&gt;2275214403196109054 -->
<g id="edge39" class="edge">
<title>11708920306642233574&#45;&gt;2275214403196109054</title>
<path fill="none" stroke="#d95f02" d="M1707.07,-237.83C1746.62,-331.42 1925.04,-753.68 1938.92,-786.52"/>
</g>
<!-- 6520066949627032006 -->
<g id="node34" class="node">
<title>6520066949627032006</title>
<path fill="lightgray" stroke="black" d="M4491.55,-788.18C4491.55,-788.18 4407.55,-788.18 4407.55,-788.18 4401.55,-788.18 4395.55,-782.18 4395.55,-776.18 4395.55,-776.18 4395.55,-764.18 4395.55,-764.18 4395.55,-758.18 4401.55,-752.18 4407.55,-752.18 4407.55,-752.18 4491.55,-752.18 4491.55,-752.18 4497.55,-752.18 4503.55,-758.18 4503.55,-764.18 4503.55,-764.18 4503.55,-776.18 4503.55,-776.18 4503.55,-782.18 4497.55,-788.18 4491.55,-788.18"/>
<text text-anchor="middle" x="4449.55" y="-766.48" font-family="Times,serif" font-size="14.00">Signals</text>
</g>
<!-- 17530534829934980672 -->
<g id="node77" class="node">
<title>17530534829934980672</title>
<ellipse fill="#3d3d3d" stroke="lightgray" cx="4111.41" cy="-1318.42" rx="1.8" ry="1.8"/>
</g>
<!-- 6520066949627032006&#45;&gt;17530534829934980672 -->
<g id="edge40" class="edge">
<title>6520066949627032006&#45;&gt;17530534829934980672</title>
<path fill="none" stroke="#1b9e77" d="M4438.3,-788.42C4381.69,-880.2 4130.01,-1288.26 4112.38,-1316.84"/>
</g>
<!-- 1369025530303032934 -->
<g id="node35" class="node">
<title>1369025530303032934</title>
<path fill="lightgray" stroke="black" d="M5340.98,-2376.88C5340.98,-2376.88 5256.98,-2376.88 5256.98,-2376.88 5250.98,-2376.88 5244.98,-2370.88 5244.98,-2364.88 5244.98,-2364.88 5244.98,-2352.88 5244.98,-2352.88 5244.98,-2346.88 5250.98,-2340.88 5256.98,-2340.88 5256.98,-2340.88 5340.98,-2340.88 5340.98,-2340.88 5346.98,-2340.88 5352.98,-2346.88 5352.98,-2352.88 5352.98,-2352.88 5352.98,-2364.88 5352.98,-2364.88 5352.98,-2370.88 5346.98,-2376.88 5340.98,-2376.88"/>
<text text-anchor="middle" x="5298.98" y="-2355.18" font-family="Times,serif" font-size="14.00">Signals</text>
</g>
<!-- 11762802769501662117 -->
<g id="node78" class="node">
<title>11762802769501662117</title>
<ellipse fill="#3d3d3d" stroke="lightgray" cx="4684.42" cy="-2365.84" rx="1.8" ry="1.8"/>
</g>
<!-- 1369025530303032934&#45;&gt;11762802769501662117 -->
<g id="edge41" class="edge">
<title>1369025530303032934&#45;&gt;11762802769501662117</title>
<path fill="none" stroke="#d95f02" d="M5244.71,-2359.49C5100.39,-2361.13 4716.07,-2365.48 4686.26,-2365.82"/>
</g>
<!-- 10386181684737637314 -->
<g id="node36" class="node">
<title>10386181684737637314</title>
<path fill="lightgray" stroke="black" d="M2495.83,-36C2495.83,-36 2411.83,-36 2411.83,-36 2405.83,-36 2399.83,-30 2399.83,-24 2399.83,-24 2399.83,-12 2399.83,-12 2399.83,-6 2405.83,0 2411.83,0 2411.83,0 2495.83,0 2495.83,0 2501.83,0 2507.83,-6 2507.83,-12 2507.83,-12 2507.83,-24 2507.83,-24 2507.83,-30 2501.83,-36 2495.83,-36"/>
<text text-anchor="middle" x="2453.83" y="-14.3" font-family="Times,serif" font-size="14.00">Signals</text>
</g>
<!-- 13423924940488150543 -->
<g id="node79" class="node">
<title>13423924940488150543</title>
<ellipse fill="#3d3d3d" stroke="lightgray" cx="2430.77" cy="-635.61" rx="1.8" ry="1.8"/>
</g>
<!-- 10386181684737637314&#45;&gt;13423924940488150543 -->
<g id="edge42" class="edge">
<title>10386181684737637314&#45;&gt;13423924940488150543</title>
<path fill="none" stroke="#1b9e77" d="M2453.15,-36.15C2449.47,-134.58 2432.06,-601.13 2430.84,-633.81"/>
</g>
<!-- 18003283753325439862 -->
<g id="node37" class="node">
<title>18003283753325439862</title>
<path fill="lightgray" stroke="black" d="M4726.25,-1013.33C4726.25,-1013.33 4642.25,-1013.33 4642.25,-1013.33 4636.25,-1013.33 4630.25,-1007.33 4630.25,-1001.33 4630.25,-1001.33 4630.25,-989.33 4630.25,-989.33 4630.25,-983.33 4636.25,-977.33 4642.25,-977.33 4642.25,-977.33 4726.25,-977.33 4726.25,-977.33 4732.25,-977.33 4738.25,-983.33 4738.25,-989.33 4738.25,-989.33 4738.25,-1001.33 4738.25,-1001.33 4738.25,-1007.33 4732.25,-1013.33 4726.25,-1013.33"/>
<text text-anchor="middle" x="4684.25" y="-991.63" font-family="Times,serif" font-size="14.00">Signals</text>
</g>
<!-- 6728750169540037491 -->
<g id="node80" class="node">
<title>6728750169540037491</title>
<ellipse fill="#3d3d3d" stroke="lightgray" cx="4185.29" cy="-1375.34" rx="1.8" ry="1.8"/>
</g>
<!-- 18003283753325439862&#45;&gt;6728750169540037491 -->
<g id="edge43" class="edge">
<title>18003283753325439862&#45;&gt;6728750169540037491</title>
<path fill="none" stroke="#d95f02" d="M4660.52,-1013.4C4565.23,-1085.97 4214.24,-1353.29 4186.97,-1374.06"/>
</g>
<!-- 17060268248001869314&#45;&gt;9817141177901842795 -->
<g id="edge61" class="edge">
<title>17060268248001869314&#45;&gt;9817141177901842795</title>
<path fill="none" stroke="#1b9e77" d="M2467.76,-2930.81C2440.75,-2957.61 2065.25,-3330.29 1960.87,-3433.89"/>
<polygon fill="#1b9e77" stroke="#1b9e77" points="1953.55,-3441.15 1957.48,-3430.91 1957.1,-3437.63 1960.65,-3434.1 1960.65,-3434.1 1960.65,-3434.1 1957.1,-3437.63 1963.82,-3437.3 1953.55,-3441.15 1953.55,-3441.15"/>
<text text-anchor="middle" x="2157.48" y="-3188.95" font-family="Times,serif" font-size="9.00" fill="lightgray">HardpointsMotion&lt;1&gt;</text>
</g>
<!-- 5185050415724242220&#45;&gt;12914288804457826028 -->
<g id="edge66" class="edge">
<title>5185050415724242220&#45;&gt;12914288804457826028</title>
<path fill="none" stroke="#1b9e77" d="M2262.73,-2555.13C2233.64,-2572.4 1887.2,-2778.11 1766.87,-2849.56"/>
<polygon fill="#1b9e77" stroke="#1b9e77" points="1758.27,-2854.67 1764.57,-2845.69 1762.57,-2852.11 1766.87,-2849.56 1766.87,-2849.56 1766.87,-2849.56 1762.57,-2852.11 1769.17,-2853.43 1758.27,-2854.67 1758.27,-2854.67"/>
<text text-anchor="middle" x="1957.38" y="-2707.77" font-family="Times,serif" font-size="9.00" fill="lightgray">HardpointsMotion&lt;2&gt;</text>
</g>
<!-- 12510606062659071544&#45;&gt;12367018580917085300 -->
<g id="edge71" class="edge">
<title>12510606062659071544&#45;&gt;12367018580917085300</title>
<path fill="none" stroke="#1b9e77" d="M2511.86,-3189.59C2490.09,-3217.7 2187,-3609.1 2103.42,-3717.03"/>
<polygon fill="#1b9e77" stroke="#1b9e77" points="2097.13,-3725.16 2099.69,-3714.5 2100.19,-3721.21 2103.25,-3717.25 2103.25,-3717.25 2103.25,-3717.25 2100.19,-3721.21 2106.81,-3720.01 2097.13,-3725.16 2097.13,-3725.16"/>
<text text-anchor="middle" x="2251.33" y="-3460.38" font-family="Times,serif" font-size="9.00" fill="lightgray">HardpointsMotion&lt;3&gt;</text>
</g>
<!-- 10569719447980019225&#45;&gt;253783876682516454 -->
<g id="edge76" class="edge">
<title>10569719447980019225&#45;&gt;253783876682516454</title>
<path fill="none" stroke="#1b9e77" d="M2952.21,-3051.61C2937.26,-3087.18 2726.28,-3588.87 2673.27,-3714.93"/>
<polygon fill="#1b9e77" stroke="#1b9e77" points="2669.32,-3724.33 2669.05,-3713.36 2671.25,-3719.72 2673.19,-3715.11 2673.19,-3715.11 2673.19,-3715.11 2671.25,-3719.72 2677.34,-3716.85 2669.32,-3724.33 2669.32,-3724.33"/>
<text text-anchor="middle" x="2757.79" y="-3390.72" font-family="Times,serif" font-size="9.00" fill="lightgray">HardpointsMotion&lt;4&gt;</text>
</g>
<!-- 17144408110511068227&#45;&gt;4596463053101681754 -->
<g id="edge81" class="edge">
<title>17144408110511068227&#45;&gt;4596463053101681754</title>
<path fill="none" stroke="#1b9e77" d="M2852.1,-2313.39C2870.22,-2284.66 3122.77,-1884.25 3191.9,-1774.66"/>
<polygon fill="#1b9e77" stroke="#1b9e77" points="3197.28,-1766.12 3195.75,-1776.98 3194.61,-1770.35 3191.95,-1774.58 3191.95,-1774.58 3191.95,-1774.58 3194.61,-1770.35 3188.14,-1772.18 3197.28,-1766.12 3197.28,-1766.12"/>
<text text-anchor="middle" x="2971.7" y="-2042.54" font-family="Times,serif" font-size="9.00" fill="lightgray">HardpointsMotion&lt;6&gt;</text>
</g>
<!-- 17378901314928794640&#45;&gt;17837599286913035225 -->
<g id="edge86" class="edge">
<title>17378901314928794640&#45;&gt;17837599286913035225</title>
<path fill="none" stroke="#1b9e77" d="M3166.54,-2825.8C3195.78,-2822.12 3554.69,-2777.01 3731.25,-2754.82"/>
<polygon fill="#1b9e77" stroke="#1b9e77" points="3741.32,-2753.56 3731.96,-2759.27 3736.36,-2754.18 3731.4,-2754.8 3731.4,-2754.8 3731.4,-2754.8 3736.36,-2754.18 3730.84,-2750.34 3741.32,-2753.56 3741.32,-2753.56"/>
<text text-anchor="middle" x="3400.79" y="-2792.49" font-family="Times,serif" font-size="9.00" fill="lightgray">HardpointsMotion&lt;5&gt;</text>
</g>
<!-- 17621401139099446208&#45;&gt;16759380960328700133 -->
<g id="edge91" class="edge">
<title>17621401139099446208&#45;&gt;16759380960328700133</title>
<path fill="none" stroke="#1b9e77" d="M2725.05,-2176.3C2736.62,-2141.51 2899.46,-1651.76 2940.97,-1526.93"/>
<polygon fill="#1b9e77" stroke="#1b9e77" points="2944.18,-1517.28 2945.29,-1528.19 2942.6,-1522.03 2941.02,-1526.77 2941.02,-1526.77 2941.02,-1526.77 2942.6,-1522.03 2936.75,-1525.35 2944.18,-1517.28 2944.18,-1517.28"/>
<text text-anchor="middle" x="2781.61" y="-1849.61" font-family="Times,serif" font-size="9.00" fill="lightgray">HardpointsMotion&lt;7&gt;</text>
</g>
<!-- 9695870857230867192&#45;&gt;8611624904136851065 -->
<g id="edge58" class="edge">
<title>9695870857230867192&#45;&gt;8611624904136851065</title>
<path fill="none" stroke="#1b9e77" stroke-dasharray="5,2" d="M2316.28,-2264.07C2293.51,-2235.56 1975.27,-1837.07 1889.91,-1730.19"/>
<polygon fill="#1b9e77" stroke="#1b9e77" points="1883.5,-1722.16 1893.25,-1727.17 1886.62,-1726.07 1889.74,-1729.97 1889.74,-1729.97 1889.74,-1729.97 1886.62,-1726.07 1886.22,-1732.78 1883.5,-1722.16 1883.5,-1722.16"/>
<text text-anchor="middle" x="2049.96" y="-1996.01" font-family="Times,serif" font-size="9.00" fill="lightgray">M1RigidBodyMotions</text>
</g>
<!-- 13254462184774527690&#45;&gt;6923268465890841387 -->
<g id="edge44" class="edge">
<title>13254462184774527690&#45;&gt;6923268465890841387</title>
<path fill="none" stroke="#1b9e77" d="M2050.45,-2632.21C2067.96,-2633.01 2199.52,-2639.05 2335.64,-2645.3"/>
<polygon fill="#1b9e77" stroke="#1b9e77" points="2345.87,-2645.77 2335.68,-2649.8 2340.88,-2645.54 2335.88,-2645.31 2335.88,-2645.31 2335.88,-2645.31 2340.88,-2645.54 2336.09,-2640.81 2345.87,-2645.77 2345.87,-2645.77"/>
<text text-anchor="middle" x="2145.82" y="-2641.77" font-family="Times,serif" font-size="9.00" fill="lightgray">HardpointsForces&lt;1&gt;</text>
</g>
<!-- 13254462184774527690&#45;&gt;9817141177901842795 -->
<g id="edge60" class="edge">
<title>13254462184774527690&#45;&gt;9817141177901842795</title>
<path fill="none" stroke="#1b9e77" d="M2048.23,-2633.94C2043,-2671.83 1957.8,-3288.87 1938.14,-3431.27"/>
<polygon fill="#1b9e77" stroke="#1b9e77" points="1936.74,-3441.42 1933.65,-3430.9 1937.43,-3436.47 1938.11,-3431.51 1938.11,-3431.51 1938.11,-3431.51 1937.43,-3436.47 1942.57,-3432.13 1936.74,-3441.42 1936.74,-3441.42"/>
<text text-anchor="middle" x="1940.49" y="-3040.44" font-family="Times,serif" font-size="9.00" fill="lightgray">HardpointsForces&lt;1&gt;</text>
</g>
<!-- 13734935183375864922&#45;&gt;13456541555459239564 -->
<g id="edge63" class="edge">
<title>13734935183375864922&#45;&gt;13456541555459239564</title>
<path fill="none" stroke="#d95f02" d="M2131.27,-4257.53C2160,-4248.01 2528.69,-4125.86 2683.12,-4074.69"/>
<polygon fill="#d95f02" stroke="#d95f02" points="2692.98,-4071.43 2684.9,-4078.84 2688.23,-4073 2683.48,-4074.57 2683.48,-4074.57 2683.48,-4074.57 2688.23,-4073 2682.07,-4070.3 2692.98,-4071.43 2692.98,-4071.43"/>
<text text-anchor="middle" x="2360.61" y="-4167.28" font-family="Times,serif" font-size="9.00" fill="lightgray">BarycentricForce&lt;1&gt;</text>
</g>
<!-- 16963285381156722616&#45;&gt;6923268465890841387 -->
<g id="edge45" class="edge">
<title>16963285381156722616&#45;&gt;6923268465890841387</title>
<path fill="none" stroke="#1b9e77" d="M2796.37,-3318.41C2789.38,-3285.42 2693.08,-2830.81 2664.71,-2696.9"/>
<polygon fill="#1b9e77" stroke="#1b9e77" points="2662.56,-2686.74 2669.03,-2695.59 2663.59,-2691.63 2664.63,-2696.52 2664.63,-2696.52 2664.63,-2696.52 2663.59,-2691.63 2660.23,-2697.46 2662.56,-2686.74 2662.56,-2686.74"/>
<text text-anchor="middle" x="2664.98" y="-3005.42" font-family="Times,serif" font-size="9.00" fill="lightgray">ActuatorAppliedForces&lt;1&gt;</text>
</g>
<!-- 3266460364944529614&#45;&gt;6923268465890841387 -->
<g id="edge46" class="edge">
<title>3266460364944529614&#45;&gt;6923268465890841387</title>
<path fill="none" stroke="#1b9e77" d="M2729.23,-3039.68C2724.66,-3015.67 2681.17,-2787.44 2663.91,-2696.84"/>
<polygon fill="#1b9e77" stroke="#1b9e77" points="2661.99,-2686.75 2668.28,-2695.73 2662.92,-2691.66 2663.86,-2696.57 2663.86,-2696.57 2663.86,-2696.57 2662.92,-2691.66 2659.44,-2697.42 2661.99,-2686.75 2661.99,-2686.75"/>
<text text-anchor="middle" x="2643.6" y="-2865.97" font-family="Times,serif" font-size="9.00" fill="lightgray">HardpointsForces&lt;2&gt;</text>
</g>
<!-- 3266460364944529614&#45;&gt;12914288804457826028 -->
<g id="edge65" class="edge">
<title>3266460364944529614&#45;&gt;12914288804457826028</title>
<path fill="none" stroke="#1b9e77" d="M2727.72,-3041.42C2688.83,-3034.91 2066,-2930.71 1822.51,-2889.97"/>
<polygon fill="#1b9e77" stroke="#1b9e77" points="1812.6,-2888.31 1823.21,-2885.52 1817.53,-2889.13 1822.47,-2889.96 1822.47,-2889.96 1822.47,-2889.96 1817.53,-2889.13 1821.72,-2894.4 1812.6,-2888.31 1812.6,-2888.31"/>
<text text-anchor="middle" x="2218.36" y="-2967.7" font-family="Times,serif" font-size="9.00" fill="lightgray">HardpointsForces&lt;2&gt;</text>
</g>
<!-- 11229188983633792363&#45;&gt;12757732583399154715 -->
<g id="edge68" class="edge">
<title>11229188983633792363&#45;&gt;12757732583399154715</title>
<path fill="none" stroke="#d95f02" d="M1021.26,-2623.79C1039.5,-2599.71 1260.82,-2307.49 1330.32,-2215.74"/>
<polygon fill="#d95f02" stroke="#d95f02" points="1336.56,-2207.5 1334.1,-2218.19 1333.54,-2211.49 1330.52,-2215.47 1330.52,-2215.47 1330.52,-2215.47 1333.54,-2211.49 1326.93,-2212.75 1336.56,-2207.5 1336.56,-2207.5"/>
<text text-anchor="middle" x="1127.39" y="-2418.47" font-family="Times,serif" font-size="9.00" fill="lightgray">BarycentricForce&lt;2&gt;</text>
</g>
<!-- 15628350407256098675&#45;&gt;6923268465890841387 -->
<g id="edge47" class="edge">
<title>15628350407256098675&#45;&gt;6923268465890841387</title>
<path fill="none" stroke="#1b9e77" d="M2051.39,-2357.41C2079.72,-2371.57 2446.03,-2554.65 2594.77,-2628.99"/>
<polygon fill="#1b9e77" stroke="#1b9e77" points="2603.82,-2633.51 2592.86,-2633.06 2599.34,-2631.27 2594.87,-2629.04 2594.87,-2629.04 2594.87,-2629.04 2599.34,-2631.27 2596.88,-2625.01 2603.82,-2633.51 2603.82,-2633.51"/>
<text text-anchor="middle" x="2263.12" y="-2498.27" font-family="Times,serif" font-size="9.00" fill="lightgray">ActuatorAppliedForces&lt;2&gt;</text>
</g>
<!-- 16660014027615126763&#45;&gt;6923268465890841387 -->
<g id="edge48" class="edge">
<title>16660014027615126763&#45;&gt;6923268465890841387</title>
<path fill="none" stroke="#1b9e77" d="M2066.51,-3019.36C2094.65,-3002.23 2464.86,-2776.92 2604.28,-2692.07"/>
<polygon fill="#1b9e77" stroke="#1b9e77" points="2613.12,-2686.68 2606.92,-2695.73 2608.85,-2689.28 2604.58,-2691.88 2604.58,-2691.88 2604.58,-2691.88 2608.85,-2689.28 2602.24,-2688.04 2613.12,-2686.68 2613.12,-2686.68"/>
<text text-anchor="middle" x="2287.79" y="-2855.83" font-family="Times,serif" font-size="9.00" fill="lightgray">HardpointsForces&lt;3&gt;</text>
</g>
<!-- 16660014027615126763&#45;&gt;12367018580917085300 -->
<g id="edge70" class="edge">
<title>16660014027615126763&#45;&gt;12367018580917085300</title>
<path fill="none" stroke="#1b9e77" d="M2064.86,-3022.47C2065.75,-3059.62 2078.37,-3584.28 2081.51,-3715.05"/>
<polygon fill="#1b9e77" stroke="#1b9e77" points="2081.75,-3725.13 2077.01,-3715.24 2081.63,-3720.13 2081.51,-3715.13 2081.51,-3715.13 2081.51,-3715.13 2081.63,-3720.13 2086.01,-3715.02 2081.75,-3725.13 2081.75,-3725.13"/>
<text text-anchor="middle" x="2021.31" y="-3376.77" font-family="Times,serif" font-size="9.00" fill="lightgray">HardpointsForces&lt;3&gt;</text>
</g>
<!-- 12231861257859185698&#45;&gt;14050267932239083785 -->
<g id="edge73" class="edge">
<title>12231861257859185698&#45;&gt;14050267932239083785</title>
<path fill="none" stroke="#d95f02" d="M1786.47,-4329.1C1783.08,-4298.27 1741.33,-3918.77 1729.32,-3809.6"/>
<polygon fill="#d95f02" stroke="#d95f02" points="1728.23,-3799.61 1733.79,-3809.06 1728.77,-3804.58 1729.32,-3809.55 1729.32,-3809.55 1729.32,-3809.55 1728.77,-3804.58 1724.85,-3810.05 1728.23,-3799.61 1728.23,-3799.61"/>
<text text-anchor="middle" x="1705.84" y="-4067.07" font-family="Times,serif" font-size="9.00" fill="lightgray">BarycentricForce&lt;3&gt;</text>
</g>
<!-- 4540907197014273973&#45;&gt;6923268465890841387 -->
<g id="edge49" class="edge">
<title>4540907197014273973&#45;&gt;6923268465890841387</title>
<path fill="none" stroke="#1b9e77" d="M2269.22,-3214.62C2281.57,-3196.39 2383,-3046.83 2466.91,-2926.86 2525.29,-2843.39 2595,-2746.08 2631.59,-2695.18"/>
<polygon fill="#1b9e77" stroke="#1b9e77" points="2637.6,-2686.82 2635.42,-2697.57 2634.68,-2690.88 2631.76,-2694.94 2631.76,-2694.94 2631.76,-2694.94 2634.68,-2690.88 2628.11,-2692.32 2637.6,-2686.82 2637.6,-2686.82"/>
<text text-anchor="middle" x="2402.41" y="-2929.66" font-family="Times,serif" font-size="9.00" fill="lightgray">ActuatorAppliedForces&lt;3&gt;</text>
</g>
<!-- 12395115991920806803&#45;&gt;6923268465890841387 -->
<g id="edge50" class="edge">
<title>12395115991920806803&#45;&gt;6923268465890841387</title>
<path fill="none" stroke="#1b9e77" d="M2243.97,-2985.1C2265.56,-2968.11 2514.41,-2772.21 2615.05,-2692.99"/>
<polygon fill="#1b9e77" stroke="#1b9e77" points="2623.17,-2686.59 2618.1,-2696.31 2619.25,-2689.68 2615.32,-2692.78 2615.32,-2692.78 2615.32,-2692.78 2619.25,-2689.68 2612.53,-2689.24 2623.17,-2686.59 2623.17,-2686.59"/>
<text text-anchor="middle" x="2381.48" y="-2838.72" font-family="Times,serif" font-size="9.00" fill="lightgray">HardpointsForces&lt;4&gt;</text>
</g>
<!-- 12395115991920806803&#45;&gt;253783876682516454 -->
<g id="edge75" class="edge">
<title>12395115991920806803&#45;&gt;253783876682516454</title>
<path fill="none" stroke="#1b9e77" d="M2243.39,-2987.95C2262.48,-3022.48 2572.4,-3582.85 2645.77,-3715.51"/>
<polygon fill="#1b9e77" stroke="#1b9e77" points="2650.63,-3724.31 2641.86,-3717.74 2648.21,-3719.93 2645.79,-3715.56 2645.79,-3715.56 2645.79,-3715.56 2648.21,-3719.93 2649.73,-3713.38 2650.63,-3724.31 2650.63,-3724.31"/>
<text text-anchor="middle" x="2395.02" y="-3358.96" font-family="Times,serif" font-size="9.00" fill="lightgray">HardpointsForces&lt;4&gt;</text>
</g>
<!-- 6412797464805006005&#45;&gt;7606381790494488192 -->
<g id="edge78" class="edge">
<title>6412797464805006005&#45;&gt;7606381790494488192</title>
<path fill="none" stroke="#d95f02" d="M3187.39,-4305.41C3187.6,-4281.28 3189.55,-4046.79 3190.25,-3962.95"/>
<polygon fill="#d95f02" stroke="#d95f02" points="3190.33,-3952.83 3194.75,-3962.86 3190.29,-3957.83 3190.25,-3962.83 3190.25,-3962.83 3190.25,-3962.83 3190.29,-3957.83 3185.75,-3962.79 3190.33,-3952.83 3190.33,-3952.83"/>
<text text-anchor="middle" x="3137.37" y="-4131.64" font-family="Times,serif" font-size="9.00" fill="lightgray">BarycentricForce&lt;4&gt;</text>
</g>
<!-- 4941318742070416173&#45;&gt;6923268465890841387 -->
<g id="edge51" class="edge">
<title>4941318742070416173&#45;&gt;6923268465890841387</title>
<path fill="none" stroke="#1b9e77" d="M3041.42,-3236.09C3022.3,-3207.45 2760.9,-2815.84 2680.35,-2695.18"/>
<polygon fill="#1b9e77" stroke="#1b9e77" points="2674.65,-2686.64 2683.95,-2692.46 2677.43,-2690.8 2680.21,-2694.96 2680.21,-2694.96 2680.21,-2694.96 2677.43,-2690.8 2676.46,-2697.45 2674.65,-2686.64 2674.65,-2686.64"/>
<text text-anchor="middle" x="2793.45" y="-2964.04" font-family="Times,serif" font-size="9.00" fill="lightgray">ActuatorAppliedForces&lt;4&gt;</text>
</g>
<!-- 14480343811691284513&#45;&gt;6923268465890841387 -->
<g id="edge52" class="edge">
<title>14480343811691284513&#45;&gt;6923268465890841387</title>
<path fill="none" stroke="#1b9e77" d="M3176.87,-2532.77C3153.63,-2538.46 2921.45,-2595.29 2775.31,-2631.06"/>
<polygon fill="#1b9e77" stroke="#1b9e77" points="2765.38,-2633.49 2774.02,-2626.74 2770.23,-2632.3 2775.09,-2631.11 2775.09,-2631.11 2775.09,-2631.11 2770.23,-2632.3 2776.16,-2635.48 2765.38,-2633.49 2765.38,-2633.49"/>
<text text-anchor="middle" x="2919.33" y="-2585.88" font-family="Times,serif" font-size="9.00" fill="lightgray">HardpointsForces&lt;6&gt;</text>
</g>
<!-- 14480343811691284513&#45;&gt;4596463053101681754 -->
<g id="edge80" class="edge">
<title>14480343811691284513&#45;&gt;4596463053101681754</title>
<path fill="none" stroke="#1b9e77" d="M3178.85,-2530.06C3180.42,-2489.55 3202.76,-1914.66 3208.13,-1776.7"/>
<polygon fill="#1b9e77" stroke="#1b9e77" points="3208.52,-1766.48 3212.63,-1776.64 3208.33,-1771.47 3208.13,-1776.47 3208.13,-1776.47 3208.13,-1776.47 3208.33,-1771.47 3203.64,-1776.29 3208.52,-1766.48 3208.52,-1766.48"/>
<text text-anchor="middle" x="3141.68" y="-2151.2" font-family="Times,serif" font-size="9.00" fill="lightgray">HardpointsForces&lt;6&gt;</text>
</g>
<!-- 3400305328334063720&#45;&gt;4971691102062873834 -->
<g id="edge83" class="edge">
<title>3400305328334063720&#45;&gt;4971691102062873834</title>
<path fill="none" stroke="#d95f02" d="M2922.92,-1032.9C2896.37,-1041.63 2582.73,-1146.43 2364.09,-1292.36 2346.15,-1304.34 2328.28,-1320.58 2314.56,-1334.21"/>
<polygon fill="#d95f02" stroke="#d95f02" points="2307.39,-1341.47 2311.21,-1331.19 2310.9,-1337.91 2314.42,-1334.35 2314.42,-1334.35 2314.42,-1334.35 2310.9,-1337.91 2317.62,-1337.51 2307.39,-1341.47 2307.39,-1341.47"/>
<text text-anchor="middle" x="2551.32" y="-1163.77" font-family="Times,serif" font-size="9.00" fill="lightgray">BarycentricForce&lt;6&gt;</text>
</g>
<!-- 14571155803125052809&#45;&gt;6923268465890841387 -->
<g id="edge53" class="edge">
<title>14571155803125052809&#45;&gt;6923268465890841387</title>
<path fill="none" stroke="#1b9e77" d="M2407.4,-2066.88C2419.8,-2096.38 2589.5,-2499.81 2641.72,-2623.95"/>
<polygon fill="#1b9e77" stroke="#1b9e77" points="2645.7,-2633.41 2637.67,-2625.94 2643.76,-2628.8 2641.82,-2624.19 2641.82,-2624.19 2641.82,-2624.19 2643.76,-2628.8 2645.97,-2622.45 2645.7,-2633.41 2645.7,-2633.41"/>
<text text-anchor="middle" x="2462.13" y="-2353.15" font-family="Times,serif" font-size="9.00" fill="lightgray">ActuatorAppliedForces&lt;6&gt;</text>
</g>
<!-- 3866450572919949294&#45;&gt;6923268465890841387 -->
<g id="edge54" class="edge">
<title>3866450572919949294&#45;&gt;6923268465890841387</title>
<path fill="none" stroke="#1b9e77" d="M3268.79,-2413.52C3240.93,-2424.74 2889.78,-2566.22 2732.36,-2629.64"/>
<polygon fill="#1b9e77" stroke="#1b9e77" points="2722.73,-2633.52 2730.33,-2625.61 2727.37,-2631.65 2732.01,-2629.78 2732.01,-2629.78 2732.01,-2629.78 2727.37,-2631.65 2733.69,-2633.95 2722.73,-2633.52 2722.73,-2633.52"/>
<text text-anchor="middle" x="2943.54" y="-2526.4" font-family="Times,serif" font-size="9.00" fill="lightgray">HardpointsForces&lt;5&gt;</text>
</g>
<!-- 3866450572919949294&#45;&gt;17837599286913035225 -->
<g id="edge85" class="edge">
<title>3866450572919949294&#45;&gt;17837599286913035225</title>
<path fill="none" stroke="#1b9e77" d="M3272.15,-2413.75C3299.22,-2429.77 3662.52,-2644.71 3786.75,-2718.21"/>
<polygon fill="#1b9e77" stroke="#1b9e77" points="3795.62,-2723.46 3784.72,-2722.24 3791.32,-2720.91 3787.01,-2718.36 3787.01,-2718.36 3787.01,-2718.36 3791.32,-2720.91 3789.3,-2714.49 3795.62,-2723.46 3795.62,-2723.46"/>
<text text-anchor="middle" x="3481.94" y="-2571.44" font-family="Times,serif" font-size="9.00" fill="lightgray">HardpointsForces&lt;5&gt;</text>
</g>
<!-- 18083880317815061432&#45;&gt;11866810641491922280 -->
<g id="edge88" class="edge">
<title>18083880317815061432&#45;&gt;11866810641491922280</title>
<path fill="none" stroke="#d95f02" d="M4456.14,-2852.69C4433.53,-2835.07 4164.95,-2625.78 4070.49,-2552.17"/>
<polygon fill="#d95f02" stroke="#d95f02" points="4062.42,-2545.89 4073.08,-2548.49 4066.37,-2548.96 4070.31,-2552.04 4070.31,-2552.04 4070.31,-2552.04 4066.37,-2548.96 4067.54,-2555.59 4062.42,-2545.89 4062.42,-2545.89"/>
<text text-anchor="middle" x="4208.02" y="-2702.27" font-family="Times,serif" font-size="9.00" fill="lightgray">BarycentricForce&lt;5&gt;</text>
</g>
<!-- 6099127760367114275&#45;&gt;6923268465890841387 -->
<g id="edge55" class="edge">
<title>6099127760367114275&#45;&gt;6923268465890841387</title>
<path fill="none" stroke="#1b9e77" d="M3319.17,-2711.84C3299.88,-2710.33 3137.41,-2697.62 2978.24,-2685.17"/>
<polygon fill="#1b9e77" stroke="#1b9e77" points="2968.25,-2684.39 2978.57,-2680.68 2973.23,-2684.78 2978.22,-2685.17 2978.22,-2685.17 2978.22,-2685.17 2973.23,-2684.78 2977.87,-2689.66 2968.25,-2684.39 2968.25,-2684.39"/>
<text text-anchor="middle" x="3078.99" y="-2700.9" font-family="Times,serif" font-size="9.00" fill="lightgray">ActuatorAppliedForces&lt;5&gt;</text>
</g>
<!-- 5194074664784390226&#45;&gt;6923268465890841387 -->
<g id="edge56" class="edge">
<title>5194074664784390226&#45;&gt;6923268465890841387</title>
<path fill="none" stroke="#1b9e77" d="M2635.73,-1989.23C2636.79,-2022.88 2651.44,-2487.08 2655.73,-2622.94"/>
<polygon fill="#1b9e77" stroke="#1b9e77" points="2656.05,-2633.24 2651.24,-2623.39 2655.9,-2628.24 2655.74,-2623.25 2655.74,-2623.25 2655.74,-2623.25 2655.9,-2628.24 2660.24,-2623.1 2656.05,-2633.24 2656.05,-2633.24"/>
<text text-anchor="middle" x="2593.89" y="-2313.89" font-family="Times,serif" font-size="9.00" fill="lightgray">HardpointsForces&lt;7&gt;</text>
</g>
<!-- 5194074664784390226&#45;&gt;16759380960328700133 -->
<g id="edge90" class="edge">
<title>5194074664784390226&#45;&gt;16759380960328700133</title>
<path fill="none" stroke="#1b9e77" d="M2636.81,-1985.53C2654.34,-1958.3 2868.94,-1624.91 2932.76,-1525.77"/>
<polygon fill="#1b9e77" stroke="#1b9e77" points="2938.28,-1517.18 2936.65,-1528.03 2935.58,-1521.39 2932.87,-1525.59 2932.87,-1525.59 2932.87,-1525.59 2935.58,-1521.39 2929.08,-1523.16 2938.28,-1517.18 2938.28,-1517.18"/>
<text text-anchor="middle" x="2735.38" y="-1754.41" font-family="Times,serif" font-size="9.00" fill="lightgray">HardpointsForces&lt;7&gt;</text>
</g>
<!-- 17455302710639134042&#45;&gt;13967629702428167562 -->
<g id="edge93" class="edge">
<title>17455302710639134042&#45;&gt;13967629702428167562</title>
<path fill="none" stroke="#d95f02" d="M3407.29,-1026.22C3414.47,-1057.3 3514.71,-1490.98 3541.91,-1608.65"/>
<polygon fill="#d95f02" stroke="#d95f02" points="3544.24,-1618.73 3537.61,-1610 3543.12,-1613.86 3541.99,-1608.98 3541.99,-1608.98 3541.99,-1608.98 3543.12,-1613.86 3546.38,-1607.97 3544.24,-1618.73 3544.24,-1618.73"/>
<text text-anchor="middle" x="3424.25" y="-1325.2" font-family="Times,serif" font-size="9.00" fill="lightgray">BarycentricForce&lt;7&gt;</text>
</g>
<!-- 18219438198209507952&#45;&gt;6923268465890841387 -->
<g id="edge57" class="edge">
<title>18219438198209507952&#45;&gt;6923268465890841387</title>
<path fill="none" stroke="#1b9e77" d="M3053.46,-2190.26C3031.87,-2215.84 2773.55,-2521.85 2685.83,-2625.77"/>
<polygon fill="#1b9e77" stroke="#1b9e77" points="2679.33,-2633.47 2682.34,-2622.93 2682.56,-2629.65 2685.78,-2625.83 2685.78,-2625.83 2685.78,-2625.83 2682.56,-2629.65 2689.22,-2628.73 2679.33,-2633.47 2679.33,-2633.47"/>
<text text-anchor="middle" x="2801.71" y="-2414.88" font-family="Times,serif" font-size="9.00" fill="lightgray">ActuatorAppliedForces&lt;7&gt;</text>
</g>
<!-- 10901010791771574459&#45;&gt;12731085354785306831 -->
<g id="edge59" class="edge">
<title>10901010791771574459&#45;&gt;12731085354785306831</title>
<path fill="none" stroke="#1b9e77" d="M1019.37,-1573.41C1044.32,-1598.39 1389.49,-1943.95 1488.62,-2043.2"/>
<polygon fill="#1b9e77" stroke="#1b9e77" points="1495.86,-2050.44 1485.61,-2046.55 1492.33,-2046.91 1488.79,-2043.37 1488.79,-2043.37 1488.79,-2043.37 1492.33,-2046.91 1491.98,-2040.19 1495.86,-2050.44 1495.86,-2050.44"/>
<text text-anchor="middle" x="1235.71" y="-1814.82" font-family="Times,serif" font-size="9.00" fill="lightgray">RBM&lt;1&gt;</text>
</g>
<!-- 17850338592001803333&#45;&gt;13456541555459239564 -->
<g id="edge62" class="edge">
<title>17850338592001803333&#45;&gt;13456541555459239564</title>
<path fill="none" stroke="#d95f02" d="M3099.58,-4652.6C3081.81,-4622.05 2833.37,-4194.94 2766.77,-4080.45"/>
<polygon fill="#d95f02" stroke="#d95f02" points="2761.6,-4071.55 2770.51,-4077.93 2764.11,-4075.88 2766.62,-4080.2 2766.62,-4080.2 2766.62,-4080.2 2764.11,-4075.88 2762.73,-4082.46 2761.6,-4071.55 2761.6,-4071.55"/>
<text text-anchor="middle" x="2861" y="-4364.73" font-family="Times,serif" font-size="9.00" fill="lightgray">ActuatorCommandForces&lt;1&gt;</text>
</g>
<!-- 1560569834449579204&#45;&gt;17247103710083610990 -->
<g id="edge64" class="edge">
<title>1560569834449579204&#45;&gt;17247103710083610990</title>
<path fill="none" stroke="#1b9e77" d="M4000.71,-4047.42C3973.44,-4024.21 3597.39,-3704.18 3487.19,-3610.39"/>
<polygon fill="#1b9e77" stroke="#1b9e77" points="3479.42,-3603.79 3489.96,-3606.84 3483.23,-3607.03 3487.04,-3610.27 3487.04,-3610.27 3487.04,-3610.27 3483.23,-3607.03 3484.12,-3613.69 3479.42,-3603.79 3479.42,-3603.79"/>
<text text-anchor="middle" x="3718.27" y="-3828.57" font-family="Times,serif" font-size="9.00" fill="lightgray">RBM&lt;2&gt;</text>
</g>
<!-- 5173928062779297333&#45;&gt;12757732583399154715 -->
<g id="edge67" class="edge">
<title>5173928062779297333&#45;&gt;12757732583399154715</title>
<path fill="none" stroke="#d95f02" d="M755.56,-1894.06C784.31,-1908.28 1167.22,-2097.51 1303.4,-2164.81"/>
<polygon fill="#d95f02" stroke="#d95f02" points="1312.39,-2169.25 1301.43,-2168.85 1307.9,-2167.03 1303.42,-2164.82 1303.42,-2164.82 1303.42,-2164.82 1307.9,-2167.03 1305.41,-2160.78 1312.39,-2169.25 1312.39,-2169.25"/>
<text text-anchor="middle" x="964.5" y="-2034.47" font-family="Times,serif" font-size="9.00" fill="lightgray">ActuatorCommandForces&lt;2&gt;</text>
</g>
<!-- 16074485712335845093&#45;&gt;8394722738487995712 -->
<g id="edge69" class="edge">
<title>16074485712335845093&#45;&gt;8394722738487995712</title>
<path fill="none" stroke="#1b9e77" d="M789.7,-3585.71C818.94,-3571.17 1209.16,-3377.15 1346.46,-3308.88"/>
<polygon fill="#1b9e77" stroke="#1b9e77" points="1355.52,-3304.38 1348.57,-3312.86 1351.04,-3306.61 1346.57,-3308.83 1346.57,-3308.83 1346.57,-3308.83 1351.04,-3306.61 1344.56,-3304.8 1355.52,-3304.38 1355.52,-3304.38"/>
<text text-anchor="middle" x="1050.08" y="-3448.11" font-family="Times,serif" font-size="9.00" fill="lightgray">RBM&lt;3&gt;</text>
</g>
<!-- 4978143971295123632&#45;&gt;14050267932239083785 -->
<g id="edge72" class="edge">
<title>4978143971295123632&#45;&gt;14050267932239083785</title>
<path fill="none" stroke="#d95f02" d="M1255.41,-4262.21C1279.02,-4238.04 1604.75,-3904.62 1700.08,-3807.04"/>
<polygon fill="#d95f02" stroke="#d95f02" points="1707.31,-3799.65 1703.54,-3809.94 1703.81,-3803.22 1700.32,-3806.8 1700.32,-3806.8 1700.32,-3806.8 1703.81,-3803.22 1697.1,-3803.65 1707.31,-3799.65 1707.31,-3799.65"/>
<text text-anchor="middle" x="1411.76" y="-4033.83" font-family="Times,serif" font-size="9.00" fill="lightgray">ActuatorCommandForces&lt;3&gt;</text>
</g>
<!-- 10381210061958966062&#45;&gt;15217189094916091562 -->
<g id="edge74" class="edge">
<title>10381210061958966062&#45;&gt;15217189094916091562</title>
<path fill="none" stroke="#1b9e77" d="M693.14,-3043.75C724.46,-3041.61 1108.75,-3015.45 1297.95,-3002.57"/>
<polygon fill="#1b9e77" stroke="#1b9e77" points="1308.19,-3001.87 1298.52,-3007.04 1303.2,-3002.21 1298.21,-3002.55 1298.21,-3002.55 1298.21,-3002.55 1303.2,-3002.21 1297.91,-2998.06 1308.19,-3001.87 1308.19,-3001.87"/>
<text text-anchor="middle" x="978.74" y="-3025.6" font-family="Times,serif" font-size="9.00" fill="lightgray">RBM&lt;4&gt;</text>
</g>
<!-- 1220750975316630934&#45;&gt;7606381790494488192 -->
<g id="edge77" class="edge">
<title>1220750975316630934&#45;&gt;7606381790494488192</title>
<path fill="none" stroke="#d95f02" d="M3017.17,-4706.69C3026.14,-4666.68 3153.4,-4098.84 3183.94,-3962.57"/>
<polygon fill="#d95f02" stroke="#d95f02" points="3186.21,-3952.47 3188.41,-3963.21 3185.11,-3957.35 3184.02,-3962.23 3184.02,-3962.23 3184.02,-3962.23 3185.11,-3957.35 3179.63,-3961.24 3186.21,-3952.47 3186.21,-3952.47"/>
<text text-anchor="middle" x="3032.16" y="-4332.51" font-family="Times,serif" font-size="9.00" fill="lightgray">ActuatorCommandForces&lt;4&gt;</text>
</g>
<!-- 13690209237385652781&#45;&gt;12840535852242017780 -->
<g id="edge79" class="edge">
<title>13690209237385652781&#45;&gt;12840535852242017780</title>
<path fill="none" stroke="#1b9e77" d="M4548.33,-3215.82C4517.54,-3203 4110.72,-3033.63 3960.58,-2971.12"/>
<polygon fill="#1b9e77" stroke="#1b9e77" points="3951.07,-2967.16 3962.03,-2966.84 3955.68,-2969.08 3960.3,-2971 3960.3,-2971 3960.3,-2971 3955.68,-2969.08 3958.57,-2975.15 3951.07,-2967.16 3951.07,-2967.16"/>
<text text-anchor="middle" x="4227.82" y="-3094.34" font-family="Times,serif" font-size="9.00" fill="lightgray">RBM&lt;6&gt;</text>
</g>
<!-- 2275214403196109054&#45;&gt;4971691102062873834 -->
<g id="edge82" class="edge">
<title>2275214403196109054&#45;&gt;4971691102062873834</title>
<path fill="none" stroke="#d95f02" d="M1940.78,-790.19C1958.49,-819.13 2205.28,-1222.43 2272.83,-1332.81"/>
<polygon fill="#d95f02" stroke="#d95f02" points="2278.09,-1341.41 2269.03,-1335.23 2275.48,-1337.14 2272.87,-1332.88 2272.87,-1332.88 2272.87,-1332.88 2275.48,-1337.14 2276.71,-1330.53 2278.09,-1341.41 2278.09,-1341.41"/>
<text text-anchor="middle" x="2039.94" y="-1068.61" font-family="Times,serif" font-size="9.00" fill="lightgray">ActuatorCommandForces&lt;6&gt;</text>
</g>
<!-- 17530534829934980672&#45;&gt;7029504328798252482 -->
<g id="edge84" class="edge">
<title>17530534829934980672&#45;&gt;7029504328798252482</title>
<path fill="none" stroke="#1b9e77" d="M4110.42,-1320.18C4092.93,-1351.39 3848.1,-1788.14 3782.93,-1904.4"/>
<polygon fill="#1b9e77" stroke="#1b9e77" points="3777.87,-1913.43 3778.83,-1902.51 3780.31,-1909.07 3782.76,-1904.71 3782.76,-1904.71 3782.76,-1904.71 3780.31,-1909.07 3786.68,-1906.91 3777.87,-1913.43 3777.87,-1913.43"/>
<text text-anchor="middle" x="3922.1" y="-1619.67" font-family="Times,serif" font-size="9.00" fill="lightgray">RBM&lt;5&gt;</text>
</g>
<!-- 11762802769501662117&#45;&gt;11866810641491922280 -->
<g id="edge87" class="edge">
<title>11762802769501662117&#45;&gt;11866810641491922280</title>
<path fill="none" stroke="#d95f02" d="M4682.57,-2366.3C4653.61,-2373.51 4292.97,-2463.27 4124.08,-2505.31"/>
<polygon fill="#d95f02" stroke="#d95f02" points="4114.22,-2507.76 4122.83,-2500.98 4119.07,-2506.56 4123.92,-2505.35 4123.92,-2505.35 4123.92,-2505.35 4119.07,-2506.56 4125.01,-2509.72 4114.22,-2507.76 4114.22,-2507.76"/>
<text text-anchor="middle" x="4328.98" y="-2439.81" font-family="Times,serif" font-size="9.00" fill="lightgray">ActuatorCommandForces&lt;5&gt;</text>
</g>
<!-- 13423924940488150543&#45;&gt;5211479530975126942 -->
<g id="edge89" class="edge">
<title>13423924940488150543&#45;&gt;5211479530975126942</title>
<path fill="none" stroke="#1b9e77" d="M2430.86,-637.56C2432.39,-672.25 2453.97,-1160.22 2459.5,-1285.45"/>
<polygon fill="#1b9e77" stroke="#1b9e77" points="2459.94,-1295.45 2455.01,-1285.66 2459.72,-1290.45 2459.5,-1285.46 2459.5,-1285.46 2459.5,-1285.46 2459.72,-1290.45 2464,-1285.26 2459.94,-1295.45 2459.94,-1295.45"/>
<text text-anchor="middle" x="2423.4" y="-969.24" font-family="Times,serif" font-size="9.00" fill="lightgray">RBM&lt;7&gt;</text>
</g>
<!-- 6728750169540037491&#45;&gt;13967629702428167562 -->
<g id="edge92" class="edge">
<title>6728750169540037491&#45;&gt;13967629702428167562</title>
<path fill="none" stroke="#d95f02" d="M4183.46,-1376.09C4153.13,-1388.6 3753.28,-1553.54 3604.2,-1615.03"/>
<polygon fill="#d95f02" stroke="#d95f02" points="3594.75,-1618.93 3602.28,-1610.95 3599.38,-1617.02 3604,-1615.11 3604,-1615.11 3604,-1615.11 3599.38,-1617.02 3605.71,-1619.27 3594.75,-1618.93 3594.75,-1618.93"/>
<text text-anchor="middle" x="3819.86" y="-1500.2" font-family="Times,serif" font-size="9.00" fill="lightgray">ActuatorCommandForces&lt;7&gt;</text>
</g>
</g>
</svg>
