<?xml version="1.0" encoding="UTF-8" standalone="no"?>
<!DOCTYPE svg PUBLIC "-//W3C//DTD SVG 1.1//EN"
 "http://www.w3.org/Graphics/SVG/1.1/DTD/svg11.dtd">
<!-- Generated by graphviz version 2.43.0 (0)
 -->
<!-- Title: G Pages: 1 -->
<svg width="4463pt" height="4324pt"
 viewBox="0.00 0.00 4462.73 4323.67" xmlns="http://www.w3.org/2000/svg" xmlns:xlink="http://www.w3.org/1999/xlink">
<g id="graph0" class="graph" transform="scale(1 1) rotate(0) translate(4 4319.67)">
<title>G</title>
<polygon fill="#3d3d3d" stroke="transparent" points="-4,4 -4,-4319.67 4458.73,-4319.67 4458.73,4 -4,4"/>
<!-- 6923268465890841387 -->
<g id="node1" class="node">
<title>6923268465890841387</title>
<path fill="lightgray" stroke="black" d="M2523.78,-2287.26C2523.78,-2287.26 1925.78,-2287.26 1925.78,-2287.26 1919.78,-2287.26 1913.78,-2281.26 1913.78,-2275.26 1913.78,-2275.26 1913.78,-1973.26 1913.78,-1973.26 1913.78,-1967.26 1919.78,-1961.26 1925.78,-1961.26 1925.78,-1961.26 2523.78,-1961.26 2523.78,-1961.26 2529.78,-1961.26 2535.78,-1967.26 2535.78,-1973.26 2535.78,-1973.26 2535.78,-2275.26 2535.78,-2275.26 2535.78,-2281.26 2529.78,-2287.26 2523.78,-2287.26"/>
<image xlink:href="fem.png" width="503px" height="326px" preserveAspectRatio="xMinYMin meet" x="1973.28" y="-2287.26"/>
<text text-anchor="middle" x="2224.78" y="-2276.06" font-family="Times,serif" font-size="14.00">GMT</text>
<text text-anchor="middle" x="2224.78" y="-2261.06" font-family="Times,serif" font-size="14.00"> &#160;&#160;&#160;Finite Element Model</text>
<text text-anchor="middle" x="2224.78" y="-2246.06" font-family="Times,serif" font-size="14.00"> &#160;&#160;&#160;/media/rconan/20230131_1605_zen_30_M1_202110_ASM_202208_Mount_202111/</text>
</g>
<!-- 17060268248001869314 -->
<g id="node38" class="node">
<title>17060268248001869314</title>
<ellipse fill="#3d3d3d" stroke="lightgray" cx="2569.99" cy="-1896.16" rx="1.8" ry="1.8"/>
</g>
<!-- 6923268465890841387&#45;&gt;17060268248001869314 -->
<g id="edge1" class="edge">
<title>6923268465890841387&#45;&gt;17060268248001869314</title>
<path fill="none" stroke="#1b9e77" stroke-width="2" d="M2471.53,-1961.22C2520.14,-1929.1 2559.06,-1903.37 2568.03,-1897.45"/>
</g>
<!-- 5185050415724242220 -->
<g id="node39" class="node">
<title>5185050415724242220</title>
<ellipse fill="#3d3d3d" stroke="lightgray" cx="2545.58" cy="-2091.67" rx="1.8" ry="1.8"/>
</g>
<!-- 6923268465890841387&#45;&gt;5185050415724242220 -->
<g id="edge2" class="edge">
<title>6923268465890841387&#45;&gt;5185050415724242220</title>
<path fill="none" stroke="#1b9e77" stroke-width="2" d="M2535.98,-2092.65C2539.45,-2092.29 2542.05,-2092.03 2543.67,-2091.87"/>
</g>
<!-- 12510606062659071544 -->
<g id="node40" class="node">
<title>12510606062659071544</title>
<ellipse fill="#3d3d3d" stroke="lightgray" cx="1881.92" cy="-2300.57" rx="1.8" ry="1.8"/>
</g>
<!-- 6923268465890841387&#45;&gt;12510606062659071544 -->
<g id="edge3" class="edge">
<title>6923268465890841387&#45;&gt;12510606062659071544</title>
<path fill="none" stroke="#1b9e77" stroke-width="2" d="M1913.56,-2284.3C1898.26,-2292.17 1887.55,-2297.68 1883.6,-2299.71"/>
</g>
<!-- 10569719447980019225 -->
<g id="node41" class="node">
<title>10569719447980019225</title>
<ellipse fill="#3d3d3d" stroke="lightgray" cx="2372.62" cy="-2500.32" rx="1.8" ry="1.8"/>
</g>
<!-- 6923268465890841387&#45;&gt;10569719447980019225 -->
<g id="edge4" class="edge">
<title>6923268465890841387&#45;&gt;10569719447980019225</title>
<path fill="none" stroke="#1b9e77" stroke-width="2" d="M2288.87,-2287.29C2325.68,-2380.92 2365.79,-2482.97 2371.84,-2498.34"/>
</g>
<!-- 17144408110511068227 -->
<g id="node42" class="node">
<title>17144408110511068227</title>
<ellipse fill="#3d3d3d" stroke="lightgray" cx="1891.58" cy="-1998.97" rx="1.8" ry="1.8"/>
</g>
<!-- 6923268465890841387&#45;&gt;17144408110511068227 -->
<g id="edge5" class="edge">
<title>6923268465890841387&#45;&gt;17144408110511068227</title>
<path fill="none" stroke="#1b9e77" stroke-width="2" d="M1913.7,-2007.29C1903.72,-2003.54 1896.66,-2000.88 1893.47,-1999.69"/>
</g>
<!-- 17378901314928794640 -->
<g id="node43" class="node">
<title>17378901314928794640</title>
<ellipse fill="#3d3d3d" stroke="lightgray" cx="2127.45" cy="-1705.62" rx="1.8" ry="1.8"/>
</g>
<!-- 6923268465890841387&#45;&gt;17378901314928794640 -->
<g id="edge6" class="edge">
<title>6923268465890841387&#45;&gt;17378901314928794640</title>
<path fill="none" stroke="#1b9e77" stroke-width="2" d="M2186.87,-1961.21C2161.46,-1851.92 2131.94,-1724.93 2127.91,-1707.61"/>
</g>
<!-- 17621401139099446208 -->
<g id="node44" class="node">
<title>17621401139099446208</title>
<ellipse fill="#3d3d3d" stroke="lightgray" cx="2129.69" cy="-2459.38" rx="1.8" ry="1.8"/>
</g>
<!-- 6923268465890841387&#45;&gt;17621401139099446208 -->
<g id="edge7" class="edge">
<title>6923268465890841387&#45;&gt;17621401139099446208</title>
<path fill="none" stroke="#1b9e77" stroke-width="2" d="M2178.49,-2287.4C2156.38,-2365.3 2133.91,-2444.48 2130.22,-2457.51"/>
</g>
<!-- 9695870857230867192 -->
<g id="node45" class="node">
<title>9695870857230867192</title>
<ellipse fill="#3d3d3d" stroke="lightgray" cx="2391.75" cy="-1724.91" rx="1.8" ry="1.8"/>
</g>
<!-- 6923268465890841387&#45;&gt;9695870857230867192 -->
<g id="edge8" class="edge">
<title>6923268465890841387&#45;&gt;9695870857230867192</title>
<path fill="none" stroke="#1b9e77" stroke-width="2" d="M2292.93,-1961.25C2335.85,-1858.59 2384.37,-1742.54 2390.99,-1726.72"/>
</g>
<!-- 8611624904136851065 -->
<g id="node2" class="node">
<title>8611624904136851065</title>
<path fill="lightgray" stroke="black" d="M2742.43,-1226.51C2742.43,-1226.51 2658.43,-1226.51 2658.43,-1226.51 2652.43,-1226.51 2646.43,-1220.51 2646.43,-1214.51 2646.43,-1214.51 2646.43,-1202.51 2646.43,-1202.51 2646.43,-1196.51 2652.43,-1190.51 2658.43,-1190.51 2658.43,-1190.51 2742.43,-1190.51 2742.43,-1190.51 2748.43,-1190.51 2754.43,-1196.51 2754.43,-1202.51 2754.43,-1202.51 2754.43,-1214.51 2754.43,-1214.51 2754.43,-1220.51 2748.43,-1226.51 2742.43,-1226.51"/>
<text text-anchor="middle" x="2700.43" y="-1204.81" font-family="Times,serif" font-size="14.00">Logging</text>
</g>
<!-- 12731085354785306831 -->
<g id="node3" class="node">
<title>12731085354785306831</title>
<path fill="lightgray" stroke="black" d="M3206.07,-2707.5C3206.07,-2707.5 3043.07,-2707.5 3043.07,-2707.5 3037.07,-2707.5 3031.07,-2701.5 3031.07,-2695.5 3031.07,-2695.5 3031.07,-2681.5 3031.07,-2681.5 3031.07,-2675.5 3037.07,-2669.5 3043.07,-2669.5 3043.07,-2669.5 3206.07,-2669.5 3206.07,-2669.5 3212.07,-2669.5 3218.07,-2675.5 3218.07,-2681.5 3218.07,-2681.5 3218.07,-2695.5 3218.07,-2695.5 3218.07,-2701.5 3212.07,-2707.5 3206.07,-2707.5"/>
<text text-anchor="middle" x="3124.57" y="-2692.3" font-family="Times,serif" font-size="14.00">M1S1</text>
<text text-anchor="middle" x="3124.57" y="-2677.3" font-family="Times,serif" font-size="14.00"> &#160;&#160;&#160;&#160;&#160;&#160;&#160;&#160;&#160;&#160;&#160;&#160;&#160;&#160;&#160;&#160;&#160;&#160;&#160;Hardpoints</text>
</g>
<!-- 13254462184774527690 -->
<g id="node46" class="node">
<title>13254462184774527690</title>
<ellipse fill="#3d3d3d" stroke="lightgray" cx="2734.32" cy="-2227.6" rx="1.8" ry="1.8"/>
</g>
<!-- 12731085354785306831&#45;&gt;13254462184774527690 -->
<g id="edge9" class="edge">
<title>12731085354785306831&#45;&gt;13254462184774527690</title>
<path fill="none" stroke="#1b9e77" d="M3108.3,-2669.28C3037.33,-2585.46 2757.42,-2254.88 2735.66,-2229.18"/>
</g>
<!-- 9817141177901842795 -->
<g id="node4" class="node">
<title>9817141177901842795</title>
<path fill="lightgray" stroke="black" d="M3201.41,-1831.69C3201.41,-1831.69 3052.41,-1831.69 3052.41,-1831.69 3046.41,-1831.69 3040.41,-1825.69 3040.41,-1819.69 3040.41,-1819.69 3040.41,-1805.69 3040.41,-1805.69 3040.41,-1799.69 3046.41,-1793.69 3052.41,-1793.69 3052.41,-1793.69 3201.41,-1793.69 3201.41,-1793.69 3207.41,-1793.69 3213.41,-1799.69 3213.41,-1805.69 3213.41,-1805.69 3213.41,-1819.69 3213.41,-1819.69 3213.41,-1825.69 3207.41,-1831.69 3201.41,-1831.69"/>
<text text-anchor="middle" x="3126.91" y="-1816.49" font-family="Times,serif" font-size="14.00">M1S1</text>
<text text-anchor="middle" x="3126.91" y="-1801.49" font-family="Times,serif" font-size="14.00"> &#160;&#160;&#160;&#160;&#160;&#160;&#160;&#160;&#160;&#160;&#160;&#160;&#160;&#160;&#160;&#160;&#160;&#160;&#160;Loadcells</text>
</g>
<!-- 13734935183375864922 -->
<g id="node47" class="node">
<title>13734935183375864922</title>
<ellipse fill="#3d3d3d" stroke="lightgray" cx="3635.41" cy="-1604.5" rx="1.8" ry="1.8"/>
</g>
<!-- 9817141177901842795&#45;&gt;13734935183375864922 -->
<g id="edge10" class="edge">
<title>9817141177901842795&#45;&gt;13734935183375864922</title>
<path fill="none" stroke="#d95f02" stroke-width="2" d="M3173.38,-1793.66C3293.52,-1744.47 3606.89,-1616.18 3633.59,-1605.24"/>
</g>
<!-- 13456541555459239564 -->
<g id="node5" class="node">
<title>13456541555459239564</title>
<path fill="lightgray" stroke="black" d="M3432.39,-1959.12C3432.39,-1959.12 3280.39,-1959.12 3280.39,-1959.12 3274.39,-1959.12 3268.39,-1953.12 3268.39,-1947.12 3268.39,-1947.12 3268.39,-1933.12 3268.39,-1933.12 3268.39,-1927.12 3274.39,-1921.12 3280.39,-1921.12 3280.39,-1921.12 3432.39,-1921.12 3432.39,-1921.12 3438.39,-1921.12 3444.39,-1927.12 3444.39,-1933.12 3444.39,-1933.12 3444.39,-1947.12 3444.39,-1947.12 3444.39,-1953.12 3438.39,-1959.12 3432.39,-1959.12"/>
<text text-anchor="middle" x="3356.39" y="-1943.92" font-family="Times,serif" font-size="14.00">M1S1</text>
<text text-anchor="middle" x="3356.39" y="-1928.92" font-family="Times,serif" font-size="14.00"> &#160;&#160;&#160;&#160;&#160;&#160;&#160;&#160;&#160;&#160;&#160;&#160;&#160;&#160;&#160;&#160;&#160;&#160;&#160;Actuators</text>
</g>
<!-- 16963285381156722616 -->
<g id="node48" class="node">
<title>16963285381156722616</title>
<ellipse fill="#3d3d3d" stroke="lightgray" cx="2739.85" cy="-1984.06" rx="1.8" ry="1.8"/>
</g>
<!-- 13456541555459239564&#45;&gt;16963285381156722616 -->
<g id="edge11" class="edge">
<title>13456541555459239564&#45;&gt;16963285381156722616</title>
<path fill="none" stroke="#1b9e77" d="M3268.38,-1946.39C3105.35,-1958.01 2770.28,-1981.89 2741.79,-1983.92"/>
</g>
<!-- 17247103710083610990 -->
<g id="node6" class="node">
<title>17247103710083610990</title>
<path fill="lightgray" stroke="black" d="M2818.56,-3091.67C2818.56,-3091.67 2655.56,-3091.67 2655.56,-3091.67 2649.56,-3091.67 2643.56,-3085.67 2643.56,-3079.67 2643.56,-3079.67 2643.56,-3065.67 2643.56,-3065.67 2643.56,-3059.67 2649.56,-3053.67 2655.56,-3053.67 2655.56,-3053.67 2818.56,-3053.67 2818.56,-3053.67 2824.56,-3053.67 2830.56,-3059.67 2830.56,-3065.67 2830.56,-3065.67 2830.56,-3079.67 2830.56,-3079.67 2830.56,-3085.67 2824.56,-3091.67 2818.56,-3091.67"/>
<text text-anchor="middle" x="2737.06" y="-3076.47" font-family="Times,serif" font-size="14.00">M1S2</text>
<text text-anchor="middle" x="2737.06" y="-3061.47" font-family="Times,serif" font-size="14.00"> &#160;&#160;&#160;&#160;&#160;&#160;&#160;&#160;&#160;&#160;&#160;&#160;&#160;&#160;&#160;&#160;&#160;&#160;&#160;Hardpoints</text>
</g>
<!-- 3266460364944529614 -->
<g id="node49" class="node">
<title>3266460364944529614</title>
<ellipse fill="#3d3d3d" stroke="lightgray" cx="2581.02" cy="-2473.48" rx="1.8" ry="1.8"/>
</g>
<!-- 17247103710083610990&#45;&gt;3266460364944529614 -->
<g id="edge12" class="edge">
<title>17247103710083610990&#45;&gt;3266460364944529614</title>
<path fill="none" stroke="#1b9e77" d="M2750.05,-3053.44C2759.7,-3037.94 2772.04,-3015.2 2777.29,-2993.25 2781.87,-2974.06 2781.12,-2968.21 2777.29,-2948.85 2734.91,-2735.15 2595.02,-2496.96 2581.99,-2475.1"/>
</g>
<!-- 12914288804457826028 -->
<g id="node7" class="node">
<title>12914288804457826028</title>
<path fill="lightgray" stroke="black" d="M3206.84,-2148.43C3206.84,-2148.43 3057.84,-2148.43 3057.84,-2148.43 3051.84,-2148.43 3045.84,-2142.43 3045.84,-2136.43 3045.84,-2136.43 3045.84,-2122.43 3045.84,-2122.43 3045.84,-2116.43 3051.84,-2110.43 3057.84,-2110.43 3057.84,-2110.43 3206.84,-2110.43 3206.84,-2110.43 3212.84,-2110.43 3218.84,-2116.43 3218.84,-2122.43 3218.84,-2122.43 3218.84,-2136.43 3218.84,-2136.43 3218.84,-2142.43 3212.84,-2148.43 3206.84,-2148.43"/>
<text text-anchor="middle" x="3132.34" y="-2133.23" font-family="Times,serif" font-size="14.00">M1S2</text>
<text text-anchor="middle" x="3132.34" y="-2118.23" font-family="Times,serif" font-size="14.00"> &#160;&#160;&#160;&#160;&#160;&#160;&#160;&#160;&#160;&#160;&#160;&#160;&#160;&#160;&#160;&#160;&#160;&#160;&#160;Loadcells</text>
</g>
<!-- 11229188983633792363 -->
<g id="node50" class="node">
<title>11229188983633792363</title>
<ellipse fill="#3d3d3d" stroke="lightgray" cx="3507.35" cy="-1611.1" rx="1.8" ry="1.8"/>
</g>
<!-- 12914288804457826028&#45;&gt;11229188983633792363 -->
<g id="edge13" class="edge">
<title>12914288804457826028&#45;&gt;11229188983633792363</title>
<path fill="none" stroke="#d95f02" stroke-width="2" d="M3143.41,-2110.32C3165.4,-2072.68 3216.69,-1986.65 3265.19,-1917.92 3359.87,-1783.74 3491.94,-1629.07 3506.11,-1612.55"/>
</g>
<!-- 12757732583399154715 -->
<g id="node8" class="node">
<title>12757732583399154715</title>
<path fill="lightgray" stroke="black" d="M3141.35,-1366.99C3141.35,-1366.99 2989.35,-1366.99 2989.35,-1366.99 2983.35,-1366.99 2977.35,-1360.99 2977.35,-1354.99 2977.35,-1354.99 2977.35,-1340.99 2977.35,-1340.99 2977.35,-1334.99 2983.35,-1328.99 2989.35,-1328.99 2989.35,-1328.99 3141.35,-1328.99 3141.35,-1328.99 3147.35,-1328.99 3153.35,-1334.99 3153.35,-1340.99 3153.35,-1340.99 3153.35,-1354.99 3153.35,-1354.99 3153.35,-1360.99 3147.35,-1366.99 3141.35,-1366.99"/>
<text text-anchor="middle" x="3065.35" y="-1351.79" font-family="Times,serif" font-size="14.00">M1S2</text>
<text text-anchor="middle" x="3065.35" y="-1336.79" font-family="Times,serif" font-size="14.00"> &#160;&#160;&#160;&#160;&#160;&#160;&#160;&#160;&#160;&#160;&#160;&#160;&#160;&#160;&#160;&#160;&#160;&#160;&#160;Actuators</text>
</g>
<!-- 15628350407256098675 -->
<g id="node51" class="node">
<title>15628350407256098675</title>
<ellipse fill="#3d3d3d" stroke="lightgray" cx="2596.61" cy="-1698.93" rx="1.8" ry="1.8"/>
</g>
<!-- 12757732583399154715&#45;&gt;15628350407256098675 -->
<g id="edge14" class="edge">
<title>12757732583399154715&#45;&gt;15628350407256098675</title>
<path fill="none" stroke="#1b9e77" d="M3039.81,-1367.11C2945.82,-1437.48 2623.22,-1679.01 2598.16,-1697.78"/>
</g>
<!-- 8394722738487995712 -->
<g id="node9" class="node">
<title>8394722738487995712</title>
<path fill="lightgray" stroke="black" d="M1647.2,-1232.31C1647.2,-1232.31 1484.2,-1232.31 1484.2,-1232.31 1478.2,-1232.31 1472.2,-1226.31 1472.2,-1220.31 1472.2,-1220.31 1472.2,-1206.31 1472.2,-1206.31 1472.2,-1200.31 1478.2,-1194.31 1484.2,-1194.31 1484.2,-1194.31 1647.2,-1194.31 1647.2,-1194.31 1653.2,-1194.31 1659.2,-1200.31 1659.2,-1206.31 1659.2,-1206.31 1659.2,-1220.31 1659.2,-1220.31 1659.2,-1226.31 1653.2,-1232.31 1647.2,-1232.31"/>
<text text-anchor="middle" x="1565.7" y="-1217.11" font-family="Times,serif" font-size="14.00">M1S3</text>
<text text-anchor="middle" x="1565.7" y="-1202.11" font-family="Times,serif" font-size="14.00"> &#160;&#160;&#160;&#160;&#160;&#160;&#160;&#160;&#160;&#160;&#160;&#160;&#160;&#160;&#160;&#160;&#160;&#160;&#160;Hardpoints</text>
</g>
<!-- 16660014027615126763 -->
<g id="node52" class="node">
<title>16660014027615126763</title>
<ellipse fill="#3d3d3d" stroke="lightgray" cx="1781.25" cy="-1810.98" rx="1.8" ry="1.8"/>
</g>
<!-- 8394722738487995712&#45;&gt;16660014027615126763 -->
<g id="edge15" class="edge">
<title>8394722738487995712&#45;&gt;16660014027615126763</title>
<path fill="none" stroke="#1b9e77" d="M1572.62,-1232.51C1608.22,-1331.22 1769.34,-1777.96 1780.62,-1809.25"/>
</g>
<!-- 12367018580917085300 -->
<g id="node10" class="node">
<title>12367018580917085300</title>
<path fill="lightgray" stroke="black" d="M1354.52,-2122.17C1354.52,-2122.17 1205.52,-2122.17 1205.52,-2122.17 1199.52,-2122.17 1193.52,-2116.17 1193.52,-2110.17 1193.52,-2110.17 1193.52,-2096.17 1193.52,-2096.17 1193.52,-2090.17 1199.52,-2084.17 1205.52,-2084.17 1205.52,-2084.17 1354.52,-2084.17 1354.52,-2084.17 1360.52,-2084.17 1366.52,-2090.17 1366.52,-2096.17 1366.52,-2096.17 1366.52,-2110.17 1366.52,-2110.17 1366.52,-2116.17 1360.52,-2122.17 1354.52,-2122.17"/>
<text text-anchor="middle" x="1280.02" y="-2106.97" font-family="Times,serif" font-size="14.00">M1S3</text>
<text text-anchor="middle" x="1280.02" y="-2091.97" font-family="Times,serif" font-size="14.00"> &#160;&#160;&#160;&#160;&#160;&#160;&#160;&#160;&#160;&#160;&#160;&#160;&#160;&#160;&#160;&#160;&#160;&#160;&#160;Loadcells</text>
</g>
<!-- 12231861257859185698 -->
<g id="node53" class="node">
<title>12231861257859185698</title>
<ellipse fill="#3d3d3d" stroke="lightgray" cx="716.97" cy="-2149.54" rx="1.8" ry="1.8"/>
</g>
<!-- 12367018580917085300&#45;&gt;12231861257859185698 -->
<g id="edge16" class="edge">
<title>12367018580917085300&#45;&gt;12231861257859185698</title>
<path fill="none" stroke="#d95f02" stroke-width="2" d="M1193.27,-2110.32C1042.74,-2122.71 746.47,-2147.11 719.02,-2149.37"/>
</g>
<!-- 14050267932239083785 -->
<g id="node11" class="node">
<title>14050267932239083785</title>
<path fill="lightgray" stroke="black" d="M1149.47,-1886.85C1149.47,-1886.85 997.47,-1886.85 997.47,-1886.85 991.47,-1886.85 985.47,-1880.85 985.47,-1874.85 985.47,-1874.85 985.47,-1860.85 985.47,-1860.85 985.47,-1854.85 991.47,-1848.85 997.47,-1848.85 997.47,-1848.85 1149.47,-1848.85 1149.47,-1848.85 1155.47,-1848.85 1161.47,-1854.85 1161.47,-1860.85 1161.47,-1860.85 1161.47,-1874.85 1161.47,-1874.85 1161.47,-1880.85 1155.47,-1886.85 1149.47,-1886.85"/>
<text text-anchor="middle" x="1073.47" y="-1871.65" font-family="Times,serif" font-size="14.00">M1S3</text>
<text text-anchor="middle" x="1073.47" y="-1856.65" font-family="Times,serif" font-size="14.00"> &#160;&#160;&#160;&#160;&#160;&#160;&#160;&#160;&#160;&#160;&#160;&#160;&#160;&#160;&#160;&#160;&#160;&#160;&#160;Actuators</text>
</g>
<!-- 4540907197014273973 -->
<g id="node54" class="node">
<title>4540907197014273973</title>
<ellipse fill="#3d3d3d" stroke="lightgray" cx="1670.8" cy="-2069.02" rx="1.8" ry="1.8"/>
</g>
<!-- 14050267932239083785&#45;&gt;4540907197014273973 -->
<g id="edge17" class="edge">
<title>14050267932239083785&#45;&gt;4540907197014273973</title>
<path fill="none" stroke="#1b9e77" d="M1129.93,-1886.86C1273.02,-1935.05 1640.55,-2058.84 1669.04,-2068.43"/>
</g>
<!-- 15217189094916091562 -->
<g id="node12" class="node">
<title>15217189094916091562</title>
<path fill="lightgray" stroke="black" d="M2319.47,-3264.4C2319.47,-3264.4 2156.47,-3264.4 2156.47,-3264.4 2150.47,-3264.4 2144.47,-3258.4 2144.47,-3252.4 2144.47,-3252.4 2144.47,-3238.4 2144.47,-3238.4 2144.47,-3232.4 2150.47,-3226.4 2156.47,-3226.4 2156.47,-3226.4 2319.47,-3226.4 2319.47,-3226.4 2325.47,-3226.4 2331.47,-3232.4 2331.47,-3238.4 2331.47,-3238.4 2331.47,-3252.4 2331.47,-3252.4 2331.47,-3258.4 2325.47,-3264.4 2319.47,-3264.4"/>
<text text-anchor="middle" x="2237.97" y="-3249.2" font-family="Times,serif" font-size="14.00">M1S4</text>
<text text-anchor="middle" x="2237.97" y="-3234.2" font-family="Times,serif" font-size="14.00"> &#160;&#160;&#160;&#160;&#160;&#160;&#160;&#160;&#160;&#160;&#160;&#160;&#160;&#160;&#160;&#160;&#160;&#160;&#160;Hardpoints</text>
</g>
<!-- 12395115991920806803 -->
<g id="node55" class="node">
<title>12395115991920806803</title>
<ellipse fill="#3d3d3d" stroke="lightgray" cx="2301.34" cy="-2681.19" rx="1.8" ry="1.8"/>
</g>
<!-- 15217189094916091562&#45;&gt;12395115991920806803 -->
<g id="edge18" class="edge">
<title>15217189094916091562&#45;&gt;12395115991920806803</title>
<path fill="none" stroke="#1b9e77" d="M2240.11,-3226.31C2250.75,-3131.6 2297.48,-2715.54 2301.12,-2683.18"/>
</g>
<!-- 253783876682516454 -->
<g id="node13" class="node">
<title>253783876682516454</title>
<path fill="lightgray" stroke="black" d="M2762.09,-2990.05C2762.09,-2990.05 2613.09,-2990.05 2613.09,-2990.05 2607.09,-2990.05 2601.09,-2984.05 2601.09,-2978.05 2601.09,-2978.05 2601.09,-2964.05 2601.09,-2964.05 2601.09,-2958.05 2607.09,-2952.05 2613.09,-2952.05 2613.09,-2952.05 2762.09,-2952.05 2762.09,-2952.05 2768.09,-2952.05 2774.09,-2958.05 2774.09,-2964.05 2774.09,-2964.05 2774.09,-2978.05 2774.09,-2978.05 2774.09,-2984.05 2768.09,-2990.05 2762.09,-2990.05"/>
<text text-anchor="middle" x="2687.59" y="-2974.85" font-family="Times,serif" font-size="14.00">M1S4</text>
<text text-anchor="middle" x="2687.59" y="-2959.85" font-family="Times,serif" font-size="14.00"> &#160;&#160;&#160;&#160;&#160;&#160;&#160;&#160;&#160;&#160;&#160;&#160;&#160;&#160;&#160;&#160;&#160;&#160;&#160;Loadcells</text>
</g>
<!-- 6412797464805006005 -->
<g id="node56" class="node">
<title>6412797464805006005</title>
<ellipse fill="#3d3d3d" stroke="lightgray" cx="3194.65" cy="-3187.93" rx="1.8" ry="1.8"/>
</g>
<!-- 253783876682516454&#45;&gt;6412797464805006005 -->
<g id="edge19" class="edge">
<title>253783876682516454&#45;&gt;6412797464805006005</title>
<path fill="none" stroke="#d95f02" stroke-width="2" d="M2732.14,-2990.11C2850.55,-3040.76 3165.93,-3175.65 3192.81,-3187.15"/>
</g>
<!-- 7606381790494488192 -->
<g id="node14" class="node">
<title>7606381790494488192</title>
<path fill="lightgray" stroke="black" d="M3282.15,-2652.68C3282.15,-2652.68 3130.15,-2652.68 3130.15,-2652.68 3124.15,-2652.68 3118.15,-2646.68 3118.15,-2640.68 3118.15,-2640.68 3118.15,-2626.68 3118.15,-2626.68 3118.15,-2620.68 3124.15,-2614.68 3130.15,-2614.68 3130.15,-2614.68 3282.15,-2614.68 3282.15,-2614.68 3288.15,-2614.68 3294.15,-2620.68 3294.15,-2626.68 3294.15,-2626.68 3294.15,-2640.68 3294.15,-2640.68 3294.15,-2646.68 3288.15,-2652.68 3282.15,-2652.68"/>
<text text-anchor="middle" x="3206.15" y="-2637.48" font-family="Times,serif" font-size="14.00">M1S4</text>
<text text-anchor="middle" x="3206.15" y="-2622.48" font-family="Times,serif" font-size="14.00"> &#160;&#160;&#160;&#160;&#160;&#160;&#160;&#160;&#160;&#160;&#160;&#160;&#160;&#160;&#160;&#160;&#160;&#160;&#160;Actuators</text>
</g>
<!-- 4941318742070416173 -->
<g id="node57" class="node">
<title>4941318742070416173</title>
<ellipse fill="#3d3d3d" stroke="lightgray" cx="2635.32" cy="-2369.79" rx="1.8" ry="1.8"/>
</g>
<!-- 7606381790494488192&#45;&gt;4941318742070416173 -->
<g id="edge20" class="edge">
<title>7606381790494488192&#45;&gt;4941318742070416173</title>
<path fill="none" stroke="#1b9e77" d="M3164.64,-2614.49C3038.41,-2556.14 2666,-2383.98 2637.1,-2370.62"/>
</g>
<!-- 12840535852242017780 -->
<g id="node15" class="node">
<title>12840535852242017780</title>
<path fill="lightgray" stroke="black" d="M1457.86,-1359.01C1457.86,-1359.01 1294.86,-1359.01 1294.86,-1359.01 1288.86,-1359.01 1282.86,-1353.01 1282.86,-1347.01 1282.86,-1347.01 1282.86,-1333.01 1282.86,-1333.01 1282.86,-1327.01 1288.86,-1321.01 1294.86,-1321.01 1294.86,-1321.01 1457.86,-1321.01 1457.86,-1321.01 1463.86,-1321.01 1469.86,-1327.01 1469.86,-1333.01 1469.86,-1333.01 1469.86,-1347.01 1469.86,-1347.01 1469.86,-1353.01 1463.86,-1359.01 1457.86,-1359.01"/>
<text text-anchor="middle" x="1376.36" y="-1343.81" font-family="Times,serif" font-size="14.00">M1S6</text>
<text text-anchor="middle" x="1376.36" y="-1328.81" font-family="Times,serif" font-size="14.00"> &#160;&#160;&#160;&#160;&#160;&#160;&#160;&#160;&#160;&#160;&#160;&#160;&#160;&#160;&#160;&#160;&#160;&#160;&#160;Hardpoints</text>
</g>
<!-- 14480343811691284513 -->
<g id="node58" class="node">
<title>14480343811691284513</title>
<ellipse fill="#3d3d3d" stroke="lightgray" cx="1823.25" cy="-1725.13" rx="1.8" ry="1.8"/>
</g>
<!-- 12840535852242017780&#45;&gt;14480343811691284513 -->
<g id="edge21" class="edge">
<title>12840535852242017780&#45;&gt;14480343811691284513</title>
<path fill="none" stroke="#1b9e77" d="M1398.52,-1359.11C1485.17,-1433.78 1797.49,-1702.93 1821.76,-1723.84"/>
</g>
<!-- 4596463053101681754 -->
<g id="node16" class="node">
<title>4596463053101681754</title>
<path fill="lightgray" stroke="black" d="M1361.66,-1870.16C1361.66,-1870.16 1212.66,-1870.16 1212.66,-1870.16 1206.66,-1870.16 1200.66,-1864.16 1200.66,-1858.16 1200.66,-1858.16 1200.66,-1844.16 1200.66,-1844.16 1200.66,-1838.16 1206.66,-1832.16 1212.66,-1832.16 1212.66,-1832.16 1361.66,-1832.16 1361.66,-1832.16 1367.66,-1832.16 1373.66,-1838.16 1373.66,-1844.16 1373.66,-1844.16 1373.66,-1858.16 1373.66,-1858.16 1373.66,-1864.16 1367.66,-1870.16 1361.66,-1870.16"/>
<text text-anchor="middle" x="1287.16" y="-1854.96" font-family="Times,serif" font-size="14.00">M1S6</text>
<text text-anchor="middle" x="1287.16" y="-1839.96" font-family="Times,serif" font-size="14.00"> &#160;&#160;&#160;&#160;&#160;&#160;&#160;&#160;&#160;&#160;&#160;&#160;&#160;&#160;&#160;&#160;&#160;&#160;&#160;Loadcells</text>
</g>
<!-- 3400305328334063720 -->
<g id="node59" class="node">
<title>3400305328334063720</title>
<ellipse fill="#3d3d3d" stroke="lightgray" cx="772.41" cy="-2114.52" rx="1.8" ry="1.8"/>
</g>
<!-- 4596463053101681754&#45;&gt;3400305328334063720 -->
<g id="edge22" class="edge">
<title>4596463053101681754&#45;&gt;3400305328334063720</title>
<path fill="none" stroke="#d95f02" stroke-width="2" d="M1249.72,-1870.31C1135.9,-1928.55 800.08,-2100.36 774.01,-2113.7"/>
</g>
<!-- 4971691102062873834 -->
<g id="node17" class="node">
<title>4971691102062873834</title>
<path fill="lightgray" stroke="black" d="M1222.62,-2535.1C1222.62,-2535.1 1070.62,-2535.1 1070.62,-2535.1 1064.62,-2535.1 1058.62,-2529.1 1058.62,-2523.1 1058.62,-2523.1 1058.62,-2509.1 1058.62,-2509.1 1058.62,-2503.1 1064.62,-2497.1 1070.62,-2497.1 1070.62,-2497.1 1222.62,-2497.1 1222.62,-2497.1 1228.62,-2497.1 1234.62,-2503.1 1234.62,-2509.1 1234.62,-2509.1 1234.62,-2523.1 1234.62,-2523.1 1234.62,-2529.1 1228.62,-2535.1 1222.62,-2535.1"/>
<text text-anchor="middle" x="1146.62" y="-2519.9" font-family="Times,serif" font-size="14.00">M1S6</text>
<text text-anchor="middle" x="1146.62" y="-2504.9" font-family="Times,serif" font-size="14.00"> &#160;&#160;&#160;&#160;&#160;&#160;&#160;&#160;&#160;&#160;&#160;&#160;&#160;&#160;&#160;&#160;&#160;&#160;&#160;Actuators</text>
</g>
<!-- 14571155803125052809 -->
<g id="node60" class="node">
<title>14571155803125052809</title>
<ellipse fill="#3d3d3d" stroke="lightgray" cx="1748.46" cy="-2411.31" rx="1.8" ry="1.8"/>
</g>
<!-- 4971691102062873834&#45;&gt;14571155803125052809 -->
<g id="edge23" class="edge">
<title>4971691102062873834&#45;&gt;14571155803125052809</title>
<path fill="none" stroke="#1b9e77" d="M1234.78,-2500.75C1394.76,-2472.9 1719.01,-2416.43 1746.58,-2411.63"/>
</g>
<!-- 7029504328798252482 -->
<g id="node18" class="node">
<title>7029504328798252482</title>
<path fill="lightgray" stroke="black" d="M1434.43,-2685.55C1434.43,-2685.55 1271.43,-2685.55 1271.43,-2685.55 1265.43,-2685.55 1259.43,-2679.55 1259.43,-2673.55 1259.43,-2673.55 1259.43,-2659.55 1259.43,-2659.55 1259.43,-2653.55 1265.43,-2647.55 1271.43,-2647.55 1271.43,-2647.55 1434.43,-2647.55 1434.43,-2647.55 1440.43,-2647.55 1446.43,-2653.55 1446.43,-2659.55 1446.43,-2659.55 1446.43,-2673.55 1446.43,-2673.55 1446.43,-2679.55 1440.43,-2685.55 1434.43,-2685.55"/>
<text text-anchor="middle" x="1352.93" y="-2670.35" font-family="Times,serif" font-size="14.00">M1S5</text>
<text text-anchor="middle" x="1352.93" y="-2655.35" font-family="Times,serif" font-size="14.00"> &#160;&#160;&#160;&#160;&#160;&#160;&#160;&#160;&#160;&#160;&#160;&#160;&#160;&#160;&#160;&#160;&#160;&#160;&#160;Hardpoints</text>
</g>
<!-- 3866450572919949294 -->
<g id="node61" class="node">
<title>3866450572919949294</title>
<ellipse fill="#3d3d3d" stroke="lightgray" cx="1810.57" cy="-2142.24" rx="1.8" ry="1.8"/>
</g>
<!-- 7029504328798252482&#45;&gt;3866450572919949294 -->
<g id="edge24" class="edge">
<title>7029504328798252482&#45;&gt;3866450572919949294</title>
<path fill="none" stroke="#1b9e77" d="M1369.76,-2647.27C1449.42,-2556 1785.73,-2170.71 1809.27,-2143.73"/>
</g>
<!-- 17837599286913035225 -->
<g id="node19" class="node">
<title>17837599286913035225</title>
<path fill="lightgray" stroke="black" d="M1843.6,-1392.86C1843.6,-1392.86 1694.6,-1392.86 1694.6,-1392.86 1688.6,-1392.86 1682.6,-1386.86 1682.6,-1380.86 1682.6,-1380.86 1682.6,-1366.86 1682.6,-1366.86 1682.6,-1360.86 1688.6,-1354.86 1694.6,-1354.86 1694.6,-1354.86 1843.6,-1354.86 1843.6,-1354.86 1849.6,-1354.86 1855.6,-1360.86 1855.6,-1366.86 1855.6,-1366.86 1855.6,-1380.86 1855.6,-1380.86 1855.6,-1386.86 1849.6,-1392.86 1843.6,-1392.86"/>
<text text-anchor="middle" x="1769.1" y="-1377.66" font-family="Times,serif" font-size="14.00">M1S5</text>
<text text-anchor="middle" x="1769.1" y="-1362.66" font-family="Times,serif" font-size="14.00"> &#160;&#160;&#160;&#160;&#160;&#160;&#160;&#160;&#160;&#160;&#160;&#160;&#160;&#160;&#160;&#160;&#160;&#160;&#160;Loadcells</text>
</g>
<!-- 18083880317815061432 -->
<g id="node62" class="node">
<title>18083880317815061432</title>
<ellipse fill="#3d3d3d" stroke="lightgray" cx="1889.97" cy="-779" rx="1.8" ry="1.8"/>
</g>
<!-- 17837599286913035225&#45;&gt;18083880317815061432 -->
<g id="edge25" class="edge">
<title>17837599286913035225&#45;&gt;18083880317815061432</title>
<path fill="none" stroke="#d95f02" stroke-width="2" d="M1772.98,-1354.74C1792.86,-1256.9 1882.56,-815.46 1889.54,-781.12"/>
</g>
<!-- 11866810641491922280 -->
<g id="node20" class="node">
<title>11866810641491922280</title>
<path fill="lightgray" stroke="black" d="M2453.57,-1001.57C2453.57,-1001.57 2301.57,-1001.57 2301.57,-1001.57 2295.57,-1001.57 2289.57,-995.57 2289.57,-989.57 2289.57,-989.57 2289.57,-975.57 2289.57,-975.57 2289.57,-969.57 2295.57,-963.57 2301.57,-963.57 2301.57,-963.57 2453.57,-963.57 2453.57,-963.57 2459.57,-963.57 2465.57,-969.57 2465.57,-975.57 2465.57,-975.57 2465.57,-989.57 2465.57,-989.57 2465.57,-995.57 2459.57,-1001.57 2453.57,-1001.57"/>
<text text-anchor="middle" x="2377.57" y="-986.37" font-family="Times,serif" font-size="14.00">M1S5</text>
<text text-anchor="middle" x="2377.57" y="-971.37" font-family="Times,serif" font-size="14.00"> &#160;&#160;&#160;&#160;&#160;&#160;&#160;&#160;&#160;&#160;&#160;&#160;&#160;&#160;&#160;&#160;&#160;&#160;&#160;Actuators</text>
</g>
<!-- 6099127760367114275 -->
<g id="node63" class="node">
<title>6099127760367114275</title>
<ellipse fill="#3d3d3d" stroke="lightgray" cx="2296.04" cy="-1560.7" rx="1.8" ry="1.8"/>
</g>
<!-- 11866810641491922280&#45;&gt;6099127760367114275 -->
<g id="edge26" class="edge">
<title>11866810641491922280&#45;&gt;6099127760367114275</title>
<path fill="none" stroke="#1b9e77" d="M2374.85,-1001.8C2361.26,-1098.2 2301.01,-1525.42 2296.33,-1558.65"/>
</g>
<!-- 5211479530975126942 -->
<g id="node21" class="node">
<title>5211479530975126942</title>
<path fill="lightgray" stroke="black" d="M2229.87,-1187.09C2229.87,-1187.09 2066.87,-1187.09 2066.87,-1187.09 2060.87,-1187.09 2054.87,-1181.09 2054.87,-1175.09 2054.87,-1175.09 2054.87,-1161.09 2054.87,-1161.09 2054.87,-1155.09 2060.87,-1149.09 2066.87,-1149.09 2066.87,-1149.09 2229.87,-1149.09 2229.87,-1149.09 2235.87,-1149.09 2241.87,-1155.09 2241.87,-1161.09 2241.87,-1161.09 2241.87,-1175.09 2241.87,-1175.09 2241.87,-1181.09 2235.87,-1187.09 2229.87,-1187.09"/>
<text text-anchor="middle" x="2148.37" y="-1171.89" font-family="Times,serif" font-size="14.00">M1S7</text>
<text text-anchor="middle" x="2148.37" y="-1156.89" font-family="Times,serif" font-size="14.00"> &#160;&#160;&#160;&#160;&#160;&#160;&#160;&#160;&#160;&#160;&#160;&#160;&#160;&#160;&#160;&#160;&#160;&#160;&#160;Hardpoints</text>
</g>
<!-- 5194074664784390226 -->
<g id="node64" class="node">
<title>5194074664784390226</title>
<ellipse fill="#3d3d3d" stroke="lightgray" cx="2120.12" cy="-1943.36" rx="1.8" ry="1.8"/>
</g>
<!-- 5211479530975126942&#45;&gt;5194074664784390226 -->
<g id="edge27" class="edge">
<title>5211479530975126942&#45;&gt;5194074664784390226</title>
<path fill="none" stroke="#1b9e77" d="M2147.83,-1187.14C2145.87,-1256.58 2138.73,-1502.71 2130.85,-1705.64 2127.03,-1803.89 2121.04,-1924.92 2120.22,-1941.46"/>
</g>
<!-- 16759380960328700133 -->
<g id="node22" class="node">
<title>16759380960328700133</title>
<path fill="lightgray" stroke="black" d="M1925.98,-2804.36C1925.98,-2804.36 1776.98,-2804.36 1776.98,-2804.36 1770.98,-2804.36 1764.98,-2798.36 1764.98,-2792.36 1764.98,-2792.36 1764.98,-2778.36 1764.98,-2778.36 1764.98,-2772.36 1770.98,-2766.36 1776.98,-2766.36 1776.98,-2766.36 1925.98,-2766.36 1925.98,-2766.36 1931.98,-2766.36 1937.98,-2772.36 1937.98,-2778.36 1937.98,-2778.36 1937.98,-2792.36 1937.98,-2792.36 1937.98,-2798.36 1931.98,-2804.36 1925.98,-2804.36"/>
<text text-anchor="middle" x="1851.48" y="-2789.16" font-family="Times,serif" font-size="14.00">M1S7</text>
<text text-anchor="middle" x="1851.48" y="-2774.16" font-family="Times,serif" font-size="14.00"> &#160;&#160;&#160;&#160;&#160;&#160;&#160;&#160;&#160;&#160;&#160;&#160;&#160;&#160;&#160;&#160;&#160;&#160;&#160;Loadcells</text>
</g>
<!-- 17455302710639134042 -->
<g id="node65" class="node">
<title>17455302710639134042</title>
<ellipse fill="#3d3d3d" stroke="lightgray" cx="1822.76" cy="-3399.44" rx="1.8" ry="1.8"/>
</g>
<!-- 16759380960328700133&#45;&gt;17455302710639134042 -->
<g id="edge28" class="edge">
<title>16759380960328700133&#45;&gt;17455302710639134042</title>
<path fill="none" stroke="#d95f02" stroke-width="2" d="M1850.59,-2804.41C1845.93,-2904.01 1824.53,-3361.64 1822.86,-3397.24"/>
</g>
<!-- 13967629702428167562 -->
<g id="node23" class="node">
<title>13967629702428167562</title>
<path fill="lightgray" stroke="black" d="M1770.69,-3140.4C1770.69,-3140.4 1618.69,-3140.4 1618.69,-3140.4 1612.69,-3140.4 1606.69,-3134.4 1606.69,-3128.4 1606.69,-3128.4 1606.69,-3114.4 1606.69,-3114.4 1606.69,-3108.4 1612.69,-3102.4 1618.69,-3102.4 1618.69,-3102.4 1770.69,-3102.4 1770.69,-3102.4 1776.69,-3102.4 1782.69,-3108.4 1782.69,-3114.4 1782.69,-3114.4 1782.69,-3128.4 1782.69,-3128.4 1782.69,-3134.4 1776.69,-3140.4 1770.69,-3140.4"/>
<text text-anchor="middle" x="1694.69" y="-3125.2" font-family="Times,serif" font-size="14.00">M1S7</text>
<text text-anchor="middle" x="1694.69" y="-3110.2" font-family="Times,serif" font-size="14.00"> &#160;&#160;&#160;&#160;&#160;&#160;&#160;&#160;&#160;&#160;&#160;&#160;&#160;&#160;&#160;&#160;&#160;&#160;&#160;Actuators</text>
</g>
<!-- 18219438198209507952 -->
<g id="node66" class="node">
<title>18219438198209507952</title>
<ellipse fill="#3d3d3d" stroke="lightgray" cx="2009.18" cy="-2617.05" rx="1.8" ry="1.8"/>
</g>
<!-- 13967629702428167562&#45;&gt;18219438198209507952 -->
<g id="edge29" class="edge">
<title>13967629702428167562&#45;&gt;18219438198209507952</title>
<path fill="none" stroke="#1b9e77" d="M1713.61,-3102.1C1758.62,-3055.27 1873.39,-2930.39 1941.18,-2807.56 1981.23,-2735 2005.23,-2634.32 2008.73,-2619.03"/>
</g>
<!-- 11763641791469948013 -->
<g id="node24" class="node">
<title>11763641791469948013</title>
<path fill="lightgray" stroke="black" d="M3986.33,-3431.7C3986.33,-3431.7 3902.33,-3431.7 3902.33,-3431.7 3896.33,-3431.7 3890.33,-3425.7 3890.33,-3419.7 3890.33,-3419.7 3890.33,-3407.7 3890.33,-3407.7 3890.33,-3401.7 3896.33,-3395.7 3902.33,-3395.7 3902.33,-3395.7 3986.33,-3395.7 3986.33,-3395.7 3992.33,-3395.7 3998.33,-3401.7 3998.33,-3407.7 3998.33,-3407.7 3998.33,-3419.7 3998.33,-3419.7 3998.33,-3425.7 3992.33,-3431.7 3986.33,-3431.7"/>
<text text-anchor="middle" x="3944.33" y="-3410" font-family="Times,serif" font-size="14.00">Signals</text>
</g>
<!-- 10901010791771574459 -->
<g id="node67" class="node">
<title>10901010791771574459</title>
<ellipse fill="#3d3d3d" stroke="lightgray" cx="3568.14" cy="-3057.15" rx="1.8" ry="1.8"/>
</g>
<!-- 11763641791469948013&#45;&gt;10901010791771574459 -->
<g id="edge30" class="edge">
<title>11763641791469948013&#45;&gt;10901010791771574459</title>
<path fill="none" stroke="#1b9e77" d="M3925.16,-3395.53C3851.79,-3325.99 3591.86,-3079.62 3569.66,-3058.58"/>
</g>
<!-- 15145901477169751526 -->
<g id="node25" class="node">
<title>15145901477169751526</title>
<path fill="lightgray" stroke="black" d="M4442.73,-1838.98C4442.73,-1838.98 4358.73,-1838.98 4358.73,-1838.98 4352.73,-1838.98 4346.73,-1832.98 4346.73,-1826.98 4346.73,-1826.98 4346.73,-1814.98 4346.73,-1814.98 4346.73,-1808.98 4352.73,-1802.98 4358.73,-1802.98 4358.73,-1802.98 4442.73,-1802.98 4442.73,-1802.98 4448.73,-1802.98 4454.73,-1808.98 4454.73,-1814.98 4454.73,-1814.98 4454.73,-1826.98 4454.73,-1826.98 4454.73,-1832.98 4448.73,-1838.98 4442.73,-1838.98"/>
<text text-anchor="middle" x="4400.73" y="-1817.28" font-family="Times,serif" font-size="14.00">Signals</text>
</g>
<!-- 17850338592001803333 -->
<g id="node68" class="node">
<title>17850338592001803333</title>
<ellipse fill="#3d3d3d" stroke="lightgray" cx="3910.54" cy="-1931.96" rx="1.8" ry="1.8"/>
</g>
<!-- 15145901477169751526&#45;&gt;17850338592001803333 -->
<g id="edge31" class="edge">
<title>15145901477169751526&#45;&gt;17850338592001803333</title>
<path fill="none" stroke="#d95f02" d="M4346.4,-1833.28C4224.75,-1860.82 3939.04,-1925.51 3912.52,-1931.51"/>
</g>
<!-- 9227271794353802672 -->
<g id="node26" class="node">
<title>9227271794353802672</title>
<path fill="lightgray" stroke="black" d="M3190.41,-4074.24C3190.41,-4074.24 3106.41,-4074.24 3106.41,-4074.24 3100.41,-4074.24 3094.41,-4068.24 3094.41,-4062.24 3094.41,-4062.24 3094.41,-4050.24 3094.41,-4050.24 3094.41,-4044.24 3100.41,-4038.24 3106.41,-4038.24 3106.41,-4038.24 3190.41,-4038.24 3190.41,-4038.24 3196.41,-4038.24 3202.41,-4044.24 3202.41,-4050.24 3202.41,-4050.24 3202.41,-4062.24 3202.41,-4062.24 3202.41,-4068.24 3196.41,-4074.24 3190.41,-4074.24"/>
<text text-anchor="middle" x="3148.41" y="-4052.54" font-family="Times,serif" font-size="14.00">Signals</text>
</g>
<!-- 1560569834449579204 -->
<g id="node69" class="node">
<title>1560569834449579204</title>
<ellipse fill="#3d3d3d" stroke="lightgray" cx="2935.05" cy="-3591.75" rx="1.8" ry="1.8"/>
</g>
<!-- 9227271794353802672&#45;&gt;1560569834449579204 -->
<g id="edge32" class="edge">
<title>9227271794353802672&#45;&gt;1560569834449579204</title>
<path fill="none" stroke="#1b9e77" d="M3140.05,-4038.03C3102.3,-3955.84 2949.05,-3622.22 2935.95,-3593.7"/>
</g>
<!-- 9518213049189947366 -->
<g id="node27" class="node">
<title>9518213049189947366</title>
<path fill="lightgray" stroke="black" d="M3804.5,-592.68C3804.5,-592.68 3720.5,-592.68 3720.5,-592.68 3714.5,-592.68 3708.5,-586.68 3708.5,-580.68 3708.5,-580.68 3708.5,-568.68 3708.5,-568.68 3708.5,-562.68 3714.5,-556.68 3720.5,-556.68 3720.5,-556.68 3804.5,-556.68 3804.5,-556.68 3810.5,-556.68 3816.5,-562.68 3816.5,-568.68 3816.5,-568.68 3816.5,-580.68 3816.5,-580.68 3816.5,-586.68 3810.5,-592.68 3804.5,-592.68"/>
<text text-anchor="middle" x="3762.5" y="-570.98" font-family="Times,serif" font-size="14.00">Signals</text>
</g>
<!-- 5173928062779297333 -->
<g id="node70" class="node">
<title>5173928062779297333</title>
<ellipse fill="#3d3d3d" stroke="lightgray" cx="3397.32" cy="-916.68" rx="1.8" ry="1.8"/>
</g>
<!-- 9518213049189947366&#45;&gt;5173928062779297333 -->
<g id="edge33" class="edge">
<title>9518213049189947366&#45;&gt;5173928062779297333</title>
<path fill="none" stroke="#d95f02" d="M3743.13,-592.82C3670.87,-660.49 3420.19,-895.26 3398.78,-915.31"/>
</g>
<!-- 17383542812352438922 -->
<g id="node28" class="node">
<title>17383542812352438922</title>
<path fill="lightgray" stroke="black" d="M1146.76,-256.81C1146.76,-256.81 1062.76,-256.81 1062.76,-256.81 1056.76,-256.81 1050.76,-250.81 1050.76,-244.81 1050.76,-244.81 1050.76,-232.81 1050.76,-232.81 1050.76,-226.81 1056.76,-220.81 1062.76,-220.81 1062.76,-220.81 1146.76,-220.81 1146.76,-220.81 1152.76,-220.81 1158.76,-226.81 1158.76,-232.81 1158.76,-232.81 1158.76,-244.81 1158.76,-244.81 1158.76,-250.81 1152.76,-256.81 1146.76,-256.81"/>
<text text-anchor="middle" x="1104.76" y="-235.11" font-family="Times,serif" font-size="14.00">Signals</text>
</g>
<!-- 16074485712335845093 -->
<g id="node71" class="node">
<title>16074485712335845093</title>
<ellipse fill="#3d3d3d" stroke="lightgray" cx="1323.63" cy="-704.85" rx="1.8" ry="1.8"/>
</g>
<!-- 17383542812352438922&#45;&gt;16074485712335845093 -->
<g id="edge34" class="edge">
<title>17383542812352438922&#45;&gt;16074485712335845093</title>
<path fill="none" stroke="#1b9e77" d="M1113.34,-257.08C1152.07,-339.54 1309.27,-674.29 1322.71,-702.9"/>
</g>
<!-- 8302649568942587561 -->
<g id="node29" class="node">
<title>8302649568942587561</title>
<path fill="lightgray" stroke="black" d="M96,-1621.58C96,-1621.58 12,-1621.58 12,-1621.58 6,-1621.58 0,-1615.58 0,-1609.58 0,-1609.58 0,-1597.58 0,-1597.58 0,-1591.58 6,-1585.58 12,-1585.58 12,-1585.58 96,-1585.58 96,-1585.58 102,-1585.58 108,-1591.58 108,-1597.58 108,-1597.58 108,-1609.58 108,-1609.58 108,-1615.58 102,-1621.58 96,-1621.58"/>
<text text-anchor="middle" x="54" y="-1599.88" font-family="Times,serif" font-size="14.00">Signals</text>
</g>
<!-- 4978143971295123632 -->
<g id="node72" class="node">
<title>4978143971295123632</title>
<ellipse fill="#3d3d3d" stroke="lightgray" cx="558.4" cy="-1656.64" rx="1.8" ry="1.8"/>
</g>
<!-- 8302649568942587561&#45;&gt;4978143971295123632 -->
<g id="edge35" class="edge">
<title>8302649568942587561&#45;&gt;4978143971295123632</title>
<path fill="none" stroke="#d95f02" d="M108.46,-1609.31C232.77,-1622.38 528.86,-1653.53 556.35,-1656.42"/>
</g>
<!-- 12341793244238613210 -->
<g id="node30" class="node">
<title>12341793244238613210</title>
<path fill="lightgray" stroke="black" d="M2281.62,-4315.67C2281.62,-4315.67 2197.62,-4315.67 2197.62,-4315.67 2191.62,-4315.67 2185.62,-4309.67 2185.62,-4303.67 2185.62,-4303.67 2185.62,-4291.67 2185.62,-4291.67 2185.62,-4285.67 2191.62,-4279.67 2197.62,-4279.67 2197.62,-4279.67 2281.62,-4279.67 2281.62,-4279.67 2287.62,-4279.67 2293.62,-4285.67 2293.62,-4291.67 2293.62,-4291.67 2293.62,-4303.67 2293.62,-4303.67 2293.62,-4309.67 2287.62,-4315.67 2281.62,-4315.67"/>
<text text-anchor="middle" x="2239.62" y="-4293.97" font-family="Times,serif" font-size="14.00">Signals</text>
</g>
<!-- 10381210061958966062 -->
<g id="node73" class="node">
<title>10381210061958966062</title>
<ellipse fill="#3d3d3d" stroke="lightgray" cx="2241.47" cy="-3792.7" rx="1.8" ry="1.8"/>
</g>
<!-- 12341793244238613210&#45;&gt;10381210061958966062 -->
<g id="edge36" class="edge">
<title>12341793244238613210&#45;&gt;10381210061958966062</title>
<path fill="none" stroke="#1b9e77" d="M2239.69,-4279.4C2240.01,-4192.76 2241.34,-3826.19 2241.46,-3794.84"/>
</g>
<!-- 1900659861650821083 -->
<g id="node31" class="node">
<title>1900659861650821083</title>
<path fill="lightgray" stroke="black" d="M4309.73,-2816.28C4309.73,-2816.28 4225.73,-2816.28 4225.73,-2816.28 4219.73,-2816.28 4213.73,-2810.28 4213.73,-2804.28 4213.73,-2804.28 4213.73,-2792.28 4213.73,-2792.28 4213.73,-2786.28 4219.73,-2780.28 4225.73,-2780.28 4225.73,-2780.28 4309.73,-2780.28 4309.73,-2780.28 4315.73,-2780.28 4321.73,-2786.28 4321.73,-2792.28 4321.73,-2792.28 4321.73,-2804.28 4321.73,-2804.28 4321.73,-2810.28 4315.73,-2816.28 4309.73,-2816.28"/>
<text text-anchor="middle" x="4267.73" y="-2794.58" font-family="Times,serif" font-size="14.00">Signals</text>
</g>
<!-- 1220750975316630934 -->
<g id="node74" class="node">
<title>1220750975316630934</title>
<ellipse fill="#3d3d3d" stroke="lightgray" cx="3762.33" cy="-2701.42" rx="1.8" ry="1.8"/>
</g>
<!-- 1900659861650821083&#45;&gt;1220750975316630934 -->
<g id="edge37" class="edge">
<title>1900659861650821083&#45;&gt;1220750975316630934</title>
<path fill="none" stroke="#d95f02" d="M4213.64,-2787.91C4089.38,-2764.1 3792,-2707.11 3764.4,-2701.82"/>
</g>
<!-- 3509656805982508733 -->
<g id="node32" class="node">
<title>3509656805982508733</title>
<path fill="lightgray" stroke="black" d="M607.97,-670.64C607.97,-670.64 523.97,-670.64 523.97,-670.64 517.97,-670.64 511.97,-664.64 511.97,-658.64 511.97,-658.64 511.97,-646.64 511.97,-646.64 511.97,-640.64 517.97,-634.64 523.97,-634.64 523.97,-634.64 607.97,-634.64 607.97,-634.64 613.97,-634.64 619.97,-640.64 619.97,-646.64 619.97,-646.64 619.97,-658.64 619.97,-658.64 619.97,-664.64 613.97,-670.64 607.97,-670.64"/>
<text text-anchor="middle" x="565.97" y="-648.94" font-family="Times,serif" font-size="14.00">Signals</text>
</g>
<!-- 13690209237385652781 -->
<g id="node75" class="node">
<title>13690209237385652781</title>
<ellipse fill="#3d3d3d" stroke="lightgray" cx="953.75" cy="-983.34" rx="1.8" ry="1.8"/>
</g>
<!-- 3509656805982508733&#45;&gt;13690209237385652781 -->
<g id="edge38" class="edge">
<title>3509656805982508733&#45;&gt;13690209237385652781</title>
<path fill="none" stroke="#1b9e77" d="M587.1,-670.66C664.54,-736.7 929.58,-962.72 952.21,-982.02"/>
</g>
<!-- 11708920306642233574 -->
<g id="node33" class="node">
<title>11708920306642233574</title>
<path fill="lightgray" stroke="black" d="M219.08,-2958.16C219.08,-2958.16 135.08,-2958.16 135.08,-2958.16 129.08,-2958.16 123.08,-2952.16 123.08,-2946.16 123.08,-2946.16 123.08,-2934.16 123.08,-2934.16 123.08,-2928.16 129.08,-2922.16 135.08,-2922.16 135.08,-2922.16 219.08,-2922.16 219.08,-2922.16 225.08,-2922.16 231.08,-2928.16 231.08,-2934.16 231.08,-2934.16 231.08,-2946.16 231.08,-2946.16 231.08,-2952.16 225.08,-2958.16 219.08,-2958.16"/>
<text text-anchor="middle" x="177.08" y="-2936.46" font-family="Times,serif" font-size="14.00">Signals</text>
</g>
<!-- 2275214403196109054 -->
<g id="node76" class="node">
<title>2275214403196109054</title>
<ellipse fill="#3d3d3d" stroke="lightgray" cx="663.74" cy="-2781.86" rx="1.8" ry="1.8"/>
</g>
<!-- 11708920306642233574&#45;&gt;2275214403196109054 -->
<g id="edge39" class="edge">
<title>11708920306642233574&#45;&gt;2275214403196109054</title>
<path fill="none" stroke="#d95f02" d="M231.49,-2922.46C352.53,-2883.09 635.51,-2791.04 661.77,-2782.49"/>
</g>
<!-- 6520066949627032006 -->
<g id="node34" class="node">
<title>6520066949627032006</title>
<path fill="lightgray" stroke="black" d="M590.6,-3454.82C590.6,-3454.82 506.6,-3454.82 506.6,-3454.82 500.6,-3454.82 494.6,-3448.82 494.6,-3442.82 494.6,-3442.82 494.6,-3430.82 494.6,-3430.82 494.6,-3424.82 500.6,-3418.82 506.6,-3418.82 506.6,-3418.82 590.6,-3418.82 590.6,-3418.82 596.6,-3418.82 602.6,-3424.82 602.6,-3430.82 602.6,-3430.82 602.6,-3442.82 602.6,-3442.82 602.6,-3448.82 596.6,-3454.82 590.6,-3454.82"/>
<text text-anchor="middle" x="548.6" y="-3433.12" font-family="Times,serif" font-size="14.00">Signals</text>
</g>
<!-- 17530534829934980672 -->
<g id="node77" class="node">
<title>17530534829934980672</title>
<ellipse fill="#3d3d3d" stroke="lightgray" cx="941.38" cy="-3083.39" rx="1.8" ry="1.8"/>
</g>
<!-- 6520066949627032006&#45;&gt;17530534829934980672 -->
<g id="edge40" class="edge">
<title>6520066949627032006&#45;&gt;17530534829934980672</title>
<path fill="none" stroke="#1b9e77" d="M568.62,-3418.8C645.22,-3349.88 916.62,-3105.67 939.8,-3084.81"/>
</g>
<!-- 1369025530303032934 -->
<g id="node35" class="node">
<title>1369025530303032934</title>
<path fill="lightgray" stroke="black" d="M2852.21,-39.06C2852.21,-39.06 2768.21,-39.06 2768.21,-39.06 2762.21,-39.06 2756.21,-33.06 2756.21,-27.06 2756.21,-27.06 2756.21,-15.06 2756.21,-15.06 2756.21,-9.06 2762.21,-3.06 2768.21,-3.06 2768.21,-3.06 2852.21,-3.06 2852.21,-3.06 2858.21,-3.06 2864.21,-9.06 2864.21,-15.06 2864.21,-15.06 2864.21,-27.06 2864.21,-27.06 2864.21,-33.06 2858.21,-39.06 2852.21,-39.06"/>
<text text-anchor="middle" x="2810.21" y="-17.36" font-family="Times,serif" font-size="14.00">Signals</text>
</g>
<!-- 11762802769501662117 -->
<g id="node78" class="node">
<title>11762802769501662117</title>
<ellipse fill="#3d3d3d" stroke="lightgray" cx="2635.11" cy="-495.93" rx="1.8" ry="1.8"/>
</g>
<!-- 1369025530303032934&#45;&gt;11762802769501662117 -->
<g id="edge41" class="edge">
<title>1369025530303032934&#45;&gt;11762802769501662117</title>
<path fill="none" stroke="#d95f02" d="M2803.56,-39.1C2772.95,-122.11 2646.64,-464.65 2635.84,-493.93"/>
</g>
<!-- 10386181684737637314 -->
<g id="node36" class="node">
<title>10386181684737637314</title>
<path fill="lightgray" stroke="black" d="M2202.8,-36C2202.8,-36 2118.8,-36 2118.8,-36 2112.8,-36 2106.8,-30 2106.8,-24 2106.8,-24 2106.8,-12 2106.8,-12 2106.8,-6 2112.8,0 2118.8,0 2118.8,0 2202.8,0 2202.8,0 2208.8,0 2214.8,-6 2214.8,-12 2214.8,-12 2214.8,-24 2214.8,-24 2214.8,-30 2208.8,-36 2202.8,-36"/>
<text text-anchor="middle" x="2160.8" y="-14.3" font-family="Times,serif" font-size="14.00">Signals</text>
</g>
<!-- 13423924940488150543 -->
<g id="node79" class="node">
<title>13423924940488150543</title>
<ellipse fill="#3d3d3d" stroke="lightgray" cx="2173.58" cy="-551.78" rx="1.8" ry="1.8"/>
</g>
<!-- 10386181684737637314&#45;&gt;13423924940488150543 -->
<g id="edge42" class="edge">
<title>10386181684737637314&#45;&gt;13423924940488150543</title>
<path fill="none" stroke="#1b9e77" d="M2161.23,-36.07C2163.38,-125.66 2172.8,-519.27 2173.54,-549.89"/>
</g>
<!-- 18003283753325439862 -->
<g id="node37" class="node">
<title>18003283753325439862</title>
<path fill="lightgray" stroke="black" d="M1322.59,-4116.33C1322.59,-4116.33 1238.59,-4116.33 1238.59,-4116.33 1232.59,-4116.33 1226.59,-4110.33 1226.59,-4104.33 1226.59,-4104.33 1226.59,-4092.33 1226.59,-4092.33 1226.59,-4086.33 1232.59,-4080.33 1238.59,-4080.33 1238.59,-4080.33 1322.59,-4080.33 1322.59,-4080.33 1328.59,-4080.33 1334.59,-4086.33 1334.59,-4092.33 1334.59,-4092.33 1334.59,-4104.33 1334.59,-4104.33 1334.59,-4110.33 1328.59,-4116.33 1322.59,-4116.33"/>
<text text-anchor="middle" x="1280.59" y="-4094.63" font-family="Times,serif" font-size="14.00">Signals</text>
</g>
<!-- 6728750169540037491 -->
<g id="node80" class="node">
<title>6728750169540037491</title>
<ellipse fill="#3d3d3d" stroke="lightgray" cx="1451.27" cy="-3627.73" rx="1.8" ry="1.8"/>
</g>
<!-- 18003283753325439862&#45;&gt;6728750169540037491 -->
<g id="edge43" class="edge">
<title>18003283753325439862&#45;&gt;6728750169540037491</title>
<path fill="none" stroke="#d95f02" d="M1287.18,-4080.17C1317.2,-3997.4 1440.05,-3658.66 1450.55,-3629.71"/>
</g>
<!-- 17060268248001869314&#45;&gt;9817141177901842795 -->
<g id="edge61" class="edge">
<title>17060268248001869314&#45;&gt;9817141177901842795</title>
<path fill="none" stroke="#1b9e77" d="M2572,-1895.85C2598.43,-1891.89 2878.24,-1849.96 3030.12,-1827.19"/>
<polygon fill="#1b9e77" stroke="#1b9e77" points="3040.38,-1825.66 3031.16,-1831.59 3035.43,-1826.4 3030.49,-1827.14 3030.49,-1827.14 3030.49,-1827.14 3035.43,-1826.4 3029.82,-1822.69 3040.38,-1825.66 3040.38,-1825.66"/>
<text text-anchor="middle" x="2753.11" y="-1863.57" font-family="Times,serif" font-size="9.00" fill="lightgray">HardpointsMotion&lt;1&gt;</text>
</g>
<!-- 5185050415724242220&#45;&gt;12914288804457826028 -->
<g id="edge66" class="edge">
<title>5185050415724242220&#45;&gt;12914288804457826028</title>
<path fill="none" stroke="#1b9e77" d="M2547.71,-2091.81C2575.85,-2093.62 2876.8,-2112.99 3035.54,-2123.2"/>
<polygon fill="#1b9e77" stroke="#1b9e77" points="3045.78,-2123.86 3035.51,-2127.71 3040.79,-2123.54 3035.8,-2123.22 3035.8,-2123.22 3035.8,-2123.22 3040.79,-2123.54 3036.09,-2118.73 3045.78,-2123.86 3045.78,-2123.86"/>
<text text-anchor="middle" x="2743.48" y="-2110.62" font-family="Times,serif" font-size="9.00" fill="lightgray">HardpointsMotion&lt;2&gt;</text>
</g>
<!-- 12510606062659071544&#45;&gt;12367018580917085300 -->
<g id="edge71" class="edge">
<title>12510606062659071544&#45;&gt;12367018580917085300</title>
<path fill="none" stroke="#1b9e77" d="M1880.19,-2300.01C1852.49,-2290.92 1498.85,-2174.94 1347.74,-2125.39"/>
<polygon fill="#1b9e77" stroke="#1b9e77" points="1338.09,-2122.22 1348.99,-2121.06 1342.84,-2123.78 1347.59,-2125.34 1347.59,-2125.34 1347.59,-2125.34 1342.84,-2123.78 1346.19,-2129.61 1338.09,-2122.22 1338.09,-2122.22"/>
<text text-anchor="middle" x="1556.45" y="-2214.02" font-family="Times,serif" font-size="9.00" fill="lightgray">HardpointsMotion&lt;3&gt;</text>
</g>
<!-- 10569719447980019225&#45;&gt;253783876682516454 -->
<g id="edge76" class="edge">
<title>10569719447980019225&#45;&gt;253783876682516454</title>
<path fill="none" stroke="#1b9e77" d="M2373.76,-2502.03C2391.23,-2528.14 2604.53,-2846.92 2669.15,-2943.5"/>
<polygon fill="#1b9e77" stroke="#1b9e77" points="2674.76,-2951.88 2665.46,-2946.07 2671.98,-2947.72 2669.2,-2943.57 2669.2,-2943.57 2669.2,-2943.57 2671.98,-2947.72 2672.94,-2941.06 2674.76,-2951.88 2674.76,-2951.88"/>
<text text-anchor="middle" x="2471.42" y="-2729.99" font-family="Times,serif" font-size="9.00" fill="lightgray">HardpointsMotion&lt;4&gt;</text>
</g>
<!-- 17144408110511068227&#45;&gt;4596463053101681754 -->
<g id="edge81" class="edge">
<title>17144408110511068227&#45;&gt;4596463053101681754</title>
<path fill="none" stroke="#1b9e77" d="M1889.62,-1998.49C1861.42,-1991.6 1535.08,-1911.79 1374.84,-1872.6"/>
<polygon fill="#1b9e77" stroke="#1b9e77" points="1365,-1870.19 1375.78,-1868.2 1369.86,-1871.38 1374.71,-1872.57 1374.71,-1872.57 1374.71,-1872.57 1369.86,-1871.38 1373.64,-1876.94 1365,-1870.19 1365,-1870.19"/>
<text text-anchor="middle" x="1574" y="-1937.07" font-family="Times,serif" font-size="9.00" fill="lightgray">HardpointsMotion&lt;6&gt;</text>
</g>
<!-- 17378901314928794640&#45;&gt;17837599286913035225 -->
<g id="edge86" class="edge">
<title>17378901314928794640&#45;&gt;17837599286913035225</title>
<path fill="none" stroke="#1b9e77" d="M2125.85,-1704.14C2104.64,-1684.51 1878.09,-1474.76 1797.42,-1400.07"/>
<polygon fill="#1b9e77" stroke="#1b9e77" points="1789.64,-1392.87 1800.03,-1396.36 1793.3,-1396.27 1796.97,-1399.66 1796.97,-1399.66 1796.97,-1399.66 1793.3,-1396.27 1793.92,-1402.97 1789.64,-1392.87 1789.64,-1392.87"/>
<text text-anchor="middle" x="1905.07" y="-1551.61" font-family="Times,serif" font-size="9.00" fill="lightgray">HardpointsMotion&lt;5&gt;</text>
</g>
<!-- 17621401139099446208&#45;&gt;16759380960328700133 -->
<g id="edge91" class="edge">
<title>17621401139099446208&#45;&gt;16759380960328700133</title>
<path fill="none" stroke="#1b9e77" d="M2128.45,-2460.83C2112.1,-2479.98 1938.72,-2683.14 1874.89,-2757.93"/>
<polygon fill="#1b9e77" stroke="#1b9e77" points="1868.02,-2765.99 1871.08,-2755.46 1871.26,-2762.18 1874.51,-2758.38 1874.51,-2758.38 1874.51,-2758.38 1871.26,-2762.18 1877.93,-2761.3 1868.02,-2765.99 1868.02,-2765.99"/>
<text text-anchor="middle" x="1945.29" y="-2616.13" font-family="Times,serif" font-size="9.00" fill="lightgray">HardpointsMotion&lt;7&gt;</text>
</g>
<!-- 9695870857230867192&#45;&gt;8611624904136851065 -->
<g id="edge58" class="edge">
<title>9695870857230867192&#45;&gt;8611624904136851065</title>
<path fill="none" stroke="#1b9e77" stroke-dasharray="5,2" d="M2392.86,-1723.04C2410.18,-1694.07 2623.72,-1336.83 2684.43,-1235.28"/>
<polygon fill="#1b9e77" stroke="#1b9e77" points="2689.66,-1226.54 2688.39,-1237.43 2687.09,-1230.83 2684.53,-1235.12 2684.53,-1235.12 2684.53,-1235.12 2687.09,-1230.83 2680.66,-1232.81 2689.66,-1226.54 2689.66,-1226.54"/>
<text text-anchor="middle" x="2491.36" y="-1477.42" font-family="Times,serif" font-size="9.00" fill="lightgray">M1RigidBodyMotions</text>
</g>
<!-- 13254462184774527690&#45;&gt;6923268465890841387 -->
<g id="edge44" class="edge">
<title>13254462184774527690&#45;&gt;6923268465890841387</title>
<path fill="none" stroke="#1b9e77" d="M2732.48,-2227.22C2719.44,-2224.58 2639,-2208.26 2545.85,-2189.37"/>
<polygon fill="#1b9e77" stroke="#1b9e77" points="2535.91,-2187.36 2546.61,-2184.94 2540.81,-2188.35 2545.71,-2189.35 2545.71,-2189.35 2545.71,-2189.35 2540.81,-2188.35 2544.82,-2193.76 2535.91,-2187.36 2535.91,-2187.36"/>
<text text-anchor="middle" x="2686.27" y="-2210.11" font-family="Times,serif" font-size="9.00" fill="lightgray">HardpointsForces&lt;1&gt;</text>
</g>
<!-- 13254462184774527690&#45;&gt;9817141177901842795 -->
<g id="edge60" class="edge">
<title>13254462184774527690&#45;&gt;9817141177901842795</title>
<path fill="none" stroke="#1b9e77" d="M2735.74,-2226.09C2757.33,-2203.28 3018.59,-1927.17 3101.7,-1839.33"/>
<polygon fill="#1b9e77" stroke="#1b9e77" points="3108.72,-1831.91 3105.12,-1842.26 3105.29,-1835.54 3101.85,-1839.17 3101.85,-1839.17 3101.85,-1839.17 3105.29,-1835.54 3098.58,-1836.08 3108.72,-1831.91 3108.72,-1831.91"/>
<text text-anchor="middle" x="2870.05" y="-2032" font-family="Times,serif" font-size="9.00" fill="lightgray">HardpointsForces&lt;1&gt;</text>
</g>
<!-- 13734935183375864922&#45;&gt;13456541555459239564 -->
<g id="edge63" class="edge">
<title>13734935183375864922&#45;&gt;13456541555459239564</title>
<path fill="none" stroke="#d95f02" d="M3634.17,-1605.99C3617.67,-1625.84 3441.56,-1837.67 3378.6,-1913.4"/>
<polygon fill="#d95f02" stroke="#d95f02" points="3372.18,-1921.12 3375.12,-1910.55 3375.38,-1917.27 3378.58,-1913.43 3378.58,-1913.43 3378.58,-1913.43 3375.38,-1917.27 3382.04,-1916.3 3372.18,-1921.12 3372.18,-1921.12"/>
<text text-anchor="middle" x="3451.54" y="-1766.51" font-family="Times,serif" font-size="9.00" fill="lightgray">BarycentricForce&lt;1&gt;</text>
</g>
<!-- 16963285381156722616&#45;&gt;6923268465890841387 -->
<g id="edge45" class="edge">
<title>16963285381156722616&#45;&gt;6923268465890841387</title>
<path fill="none" stroke="#1b9e77" d="M2737.98,-1984.57C2724.65,-1988.2 2641.55,-2010.82 2545.97,-2036.83"/>
<polygon fill="#1b9e77" stroke="#1b9e77" points="2536.08,-2039.53 2544.55,-2032.56 2540.91,-2038.21 2545.73,-2036.9 2545.73,-2036.9 2545.73,-2036.9 2540.91,-2038.21 2546.91,-2041.24 2536.08,-2039.53 2536.08,-2039.53"/>
<text text-anchor="middle" x="2701.34" y="-2014.9" font-family="Times,serif" font-size="9.00" fill="lightgray">ActuatorAppliedForces&lt;1&gt;</text>
</g>
<!-- 3266460364944529614&#45;&gt;6923268465890841387 -->
<g id="edge46" class="edge">
<title>3266460364944529614&#45;&gt;6923268465890841387</title>
<path fill="none" stroke="#1b9e77" d="M2579.73,-2472.21C2568.3,-2461.01 2482.81,-2377.21 2398.61,-2294.66"/>
<polygon fill="#1b9e77" stroke="#1b9e77" points="2391.25,-2287.45 2401.54,-2291.23 2394.82,-2290.95 2398.39,-2294.45 2398.39,-2294.45 2398.39,-2294.45 2394.82,-2290.95 2395.24,-2297.66 2391.25,-2287.45 2391.25,-2287.45"/>
<text text-anchor="middle" x="2433.51" y="-2382.65" font-family="Times,serif" font-size="9.00" fill="lightgray">HardpointsForces&lt;2&gt;</text>
</g>
<!-- 3266460364944529614&#45;&gt;12914288804457826028 -->
<g id="edge65" class="edge">
<title>3266460364944529614&#45;&gt;12914288804457826028</title>
<path fill="none" stroke="#1b9e77" d="M2582.6,-2472.49C2609.5,-2455.71 2971.94,-2229.52 3093.16,-2153.88"/>
<polygon fill="#1b9e77" stroke="#1b9e77" points="3101.8,-2148.49 3095.7,-2157.6 3097.56,-2151.13 3093.32,-2153.78 3093.32,-2153.78 3093.32,-2153.78 3097.56,-2151.13 3090.94,-2149.96 3101.8,-2148.49 3101.8,-2148.49"/>
<text text-anchor="middle" x="2790.22" y="-2313.28" font-family="Times,serif" font-size="9.00" fill="lightgray">HardpointsForces&lt;2&gt;</text>
</g>
<!-- 11229188983633792363&#45;&gt;12757732583399154715 -->
<g id="edge68" class="edge">
<title>11229188983633792363&#45;&gt;12757732583399154715</title>
<path fill="none" stroke="#d95f02" d="M3505.75,-1610.15C3482.44,-1596.27 3210.86,-1434.61 3106.16,-1372.28"/>
<polygon fill="#d95f02" stroke="#d95f02" points="3097.44,-1367.09 3108.33,-1368.34 3101.73,-1369.65 3106.03,-1372.21 3106.03,-1372.21 3106.03,-1372.21 3101.73,-1369.65 3103.73,-1376.07 3097.44,-1367.09 3097.44,-1367.09"/>
<text text-anchor="middle" x="3250.13" y="-1491.44" font-family="Times,serif" font-size="9.00" fill="lightgray">BarycentricForce&lt;2&gt;</text>
</g>
<!-- 15628350407256098675&#45;&gt;6923268465890841387 -->
<g id="edge47" class="edge">
<title>15628350407256098675&#45;&gt;6923268465890841387</title>
<path fill="none" stroke="#1b9e77" d="M2595.26,-1700.47C2581.87,-1715.8 2471.01,-1842.61 2374.02,-1953.56"/>
<polygon fill="#1b9e77" stroke="#1b9e77" points="2367.35,-1961.18 2370.55,-1950.69 2370.64,-1957.41 2373.93,-1953.65 2373.93,-1953.65 2373.93,-1953.65 2370.64,-1957.41 2377.32,-1956.61 2367.35,-1961.18 2367.35,-1961.18"/>
<text text-anchor="middle" x="2417" y="-1833.41" font-family="Times,serif" font-size="9.00" fill="lightgray">ActuatorAppliedForces&lt;2&gt;</text>
</g>
<!-- 16660014027615126763&#45;&gt;6923268465890841387 -->
<g id="edge48" class="edge">
<title>16660014027615126763&#45;&gt;6923268465890841387</title>
<path fill="none" stroke="#1b9e77" d="M1782.85,-1812.12C1796.05,-1821.44 1888.54,-1886.77 1985.52,-1955.27"/>
<polygon fill="#1b9e77" stroke="#1b9e77" points="1993.71,-1961.05 1982.95,-1958.96 1989.63,-1958.17 1985.54,-1955.28 1985.54,-1955.28 1985.54,-1955.28 1989.63,-1958.17 1988.14,-1951.61 1993.71,-1961.05 1993.71,-1961.05"/>
<text text-anchor="middle" x="1836.4" y="-1889.47" font-family="Times,serif" font-size="9.00" fill="lightgray">HardpointsForces&lt;3&gt;</text>
</g>
<!-- 16660014027615126763&#45;&gt;12367018580917085300 -->
<g id="edge70" class="edge">
<title>16660014027615126763&#45;&gt;12367018580917085300</title>
<path fill="none" stroke="#1b9e77" d="M1779.43,-1812.04C1752.67,-1827.64 1437.2,-2011.55 1321.89,-2078.77"/>
<polygon fill="#1b9e77" stroke="#1b9e77" points="1312.97,-2083.96 1319.34,-2075.04 1317.29,-2081.45 1321.61,-2078.93 1321.61,-2078.93 1321.61,-2078.93 1317.29,-2081.45 1323.87,-2082.82 1312.97,-2083.96 1312.97,-2083.96"/>
<text text-anchor="middle" x="1494.08" y="-1950.88" font-family="Times,serif" font-size="9.00" fill="lightgray">HardpointsForces&lt;3&gt;</text>
</g>
<!-- 12231861257859185698&#45;&gt;14050267932239083785 -->
<g id="edge73" class="edge">
<title>12231861257859185698&#45;&gt;14050267932239083785</title>
<path fill="none" stroke="#d95f02" d="M718.56,-2148.29C739.34,-2131.86 958.28,-1958.87 1041.56,-1893.06"/>
<polygon fill="#d95f02" stroke="#d95f02" points="1049.41,-1886.85 1044.36,-1896.58 1045.49,-1889.95 1041.57,-1893.05 1041.57,-1893.05 1041.57,-1893.05 1045.49,-1889.95 1038.78,-1889.52 1049.41,-1886.85 1049.41,-1886.85"/>
<text text-anchor="middle" x="832.43" y="-2020.42" font-family="Times,serif" font-size="9.00" fill="lightgray">BarycentricForce&lt;3&gt;</text>
</g>
<!-- 4540907197014273973&#45;&gt;6923268465890841387 -->
<g id="edge49" class="edge">
<title>4540907197014273973&#45;&gt;6923268465890841387</title>
<path fill="none" stroke="#1b9e77" d="M1672.81,-2069.22C1688.26,-2070.76 1790.76,-2080.99 1903.32,-2092.21"/>
<polygon fill="#1b9e77" stroke="#1b9e77" points="1913.54,-2093.23 1903.14,-2096.71 1908.56,-2092.73 1903.59,-2092.24 1903.59,-2092.24 1903.59,-2092.24 1908.56,-2092.73 1904.04,-2087.76 1913.54,-2093.23 1913.54,-2093.23"/>
<text text-anchor="middle" x="1728.87" y="-2084.05" font-family="Times,serif" font-size="9.00" fill="lightgray">ActuatorAppliedForces&lt;3&gt;</text>
</g>
<!-- 12395115991920806803&#45;&gt;6923268465890841387 -->
<g id="edge50" class="edge">
<title>12395115991920806803&#45;&gt;6923268465890841387</title>
<path fill="none" stroke="#1b9e77" d="M2301.06,-2679.17C2297.98,-2656.74 2269.8,-2451.76 2248.58,-2297.42"/>
<polygon fill="#1b9e77" stroke="#1b9e77" points="2247.2,-2287.32 2253.02,-2296.62 2247.88,-2292.28 2248.56,-2297.23 2248.56,-2297.23 2248.56,-2297.23 2247.88,-2292.28 2244.1,-2297.84 2247.2,-2287.32 2247.2,-2287.32"/>
<text text-anchor="middle" x="2222.15" y="-2486.19" font-family="Times,serif" font-size="9.00" fill="lightgray">HardpointsForces&lt;4&gt;</text>
</g>
<!-- 12395115991920806803&#45;&gt;253783876682516454 -->
<g id="edge75" class="edge">
<title>12395115991920806803&#45;&gt;253783876682516454</title>
<path fill="none" stroke="#1b9e77" d="M2303.06,-2682.48C2325.65,-2699.43 2564.37,-2878.58 2653.91,-2945.78"/>
<polygon fill="#1b9e77" stroke="#1b9e77" points="2662.1,-2951.92 2651.4,-2949.52 2658.1,-2948.92 2654.1,-2945.92 2654.1,-2945.92 2654.1,-2945.92 2658.1,-2948.92 2656.8,-2942.32 2662.1,-2951.92 2662.1,-2951.92"/>
<text text-anchor="middle" x="2430.64" y="-2820.05" font-family="Times,serif" font-size="9.00" fill="lightgray">HardpointsForces&lt;4&gt;</text>
</g>
<!-- 6412797464805006005&#45;&gt;7606381790494488192 -->
<g id="edge78" class="edge">
<title>6412797464805006005&#45;&gt;7606381790494488192</title>
<path fill="none" stroke="#d95f02" d="M3194.8,-3185.93C3196.71,-3161.17 3215.66,-2912.26 3221.27,-2710.7 3221.82,-2690.97 3225.53,-2685.57 3221.27,-2666.3 3220.99,-2665.03 3220.66,-2663.75 3220.28,-2662.47"/>
<polygon fill="#d95f02" stroke="#d95f02" points="3216.7,-2652.86 3224.41,-2660.66 3218.45,-2657.54 3220.19,-2662.23 3220.19,-2662.23 3220.19,-2662.23 3218.45,-2657.54 3215.97,-2663.8 3216.7,-2652.86 3216.7,-2652.86"/>
<text text-anchor="middle" x="3160.72" y="-2922.97" font-family="Times,serif" font-size="9.00" fill="lightgray">BarycentricForce&lt;4&gt;</text>
</g>
<!-- 4941318742070416173&#45;&gt;6923268465890841387 -->
<g id="edge51" class="edge">
<title>4941318742070416173&#45;&gt;6923268465890841387</title>
<path fill="none" stroke="#1b9e77" d="M2633.48,-2368.7C2623.17,-2362.53 2570.51,-2331.03 2506.23,-2292.59"/>
<polygon fill="#1b9e77" stroke="#1b9e77" points="2497.5,-2287.37 2508.39,-2288.64 2501.79,-2289.94 2506.08,-2292.5 2506.08,-2292.5 2506.08,-2292.5 2501.79,-2289.94 2503.77,-2296.36 2497.5,-2287.37 2497.5,-2287.37"/>
<text text-anchor="middle" x="2500.79" y="-2330.71" font-family="Times,serif" font-size="9.00" fill="lightgray">ActuatorAppliedForces&lt;4&gt;</text>
</g>
<!-- 14480343811691284513&#45;&gt;6923268465890841387 -->
<g id="edge52" class="edge">
<title>14480343811691284513&#45;&gt;6923268465890841387</title>
<path fill="none" stroke="#1b9e77" d="M1824.71,-1726.58C1838.69,-1740.48 1951.09,-1852.2 2053.2,-1953.7"/>
<polygon fill="#1b9e77" stroke="#1b9e77" points="2060.53,-1960.99 2050.26,-1957.13 2056.98,-1957.46 2053.44,-1953.94 2053.44,-1953.94 2053.44,-1953.94 2056.98,-1957.46 2056.61,-1950.75 2060.53,-1960.99 2060.53,-1960.99"/>
<text text-anchor="middle" x="1890.5" y="-1846.46" font-family="Times,serif" font-size="9.00" fill="lightgray">HardpointsForces&lt;6&gt;</text>
</g>
<!-- 14480343811691284513&#45;&gt;4596463053101681754 -->
<g id="edge80" class="edge">
<title>14480343811691284513&#45;&gt;4596463053101681754</title>
<path fill="none" stroke="#1b9e77" d="M1821.31,-1725.59C1795.74,-1731.6 1523.68,-1795.55 1378.03,-1829.79"/>
<polygon fill="#1b9e77" stroke="#1b9e77" points="1368.2,-1832.11 1376.9,-1825.44 1373.06,-1830.96 1377.93,-1829.82 1377.93,-1829.82 1377.93,-1829.82 1373.06,-1830.96 1378.96,-1834.2 1368.2,-1832.11 1368.2,-1832.11"/>
<text text-anchor="middle" x="1542.77" y="-1781.64" font-family="Times,serif" font-size="9.00" fill="lightgray">HardpointsForces&lt;6&gt;</text>
</g>
<!-- 3400305328334063720&#45;&gt;4971691102062873834 -->
<g id="edge83" class="edge">
<title>3400305328334063720&#45;&gt;4971691102062873834</title>
<path fill="none" stroke="#d95f02" d="M773.76,-2115.97C794.27,-2137.98 1041.75,-2403.56 1121.81,-2489.47"/>
<polygon fill="#d95f02" stroke="#d95f02" points="1128.8,-2496.98 1118.69,-2492.74 1125.4,-2493.33 1121.99,-2489.67 1121.99,-2489.67 1121.99,-2489.67 1125.4,-2493.33 1125.28,-2486.6 1128.8,-2496.98 1128.8,-2496.98"/>
<text text-anchor="middle" x="899.91" y="-2309.41" font-family="Times,serif" font-size="9.00" fill="lightgray">BarycentricForce&lt;6&gt;</text>
</g>
<!-- 14571155803125052809&#45;&gt;6923268465890841387 -->
<g id="edge53" class="edge">
<title>14571155803125052809&#45;&gt;6923268465890841387</title>
<path fill="none" stroke="#1b9e77" d="M1750.18,-2410.27C1763.33,-2402.34 1849.84,-2350.21 1945.48,-2292.57"/>
<polygon fill="#1b9e77" stroke="#1b9e77" points="1954.16,-2287.34 1947.92,-2296.36 1949.88,-2289.92 1945.6,-2292.5 1945.6,-2292.5 1945.6,-2292.5 1949.88,-2289.92 1943.28,-2288.65 1954.16,-2287.34 1954.16,-2287.34"/>
<text text-anchor="middle" x="1787.72" y="-2341.58" font-family="Times,serif" font-size="9.00" fill="lightgray">ActuatorAppliedForces&lt;6&gt;</text>
</g>
<!-- 3866450572919949294&#45;&gt;6923268465890841387 -->
<g id="edge54" class="edge">
<title>3866450572919949294&#45;&gt;6923268465890841387</title>
<path fill="none" stroke="#1b9e77" d="M1812.42,-2142.16C1820.73,-2141.8 1856.3,-2140.25 1903.34,-2138.21"/>
<polygon fill="#1b9e77" stroke="#1b9e77" points="1913.54,-2137.77 1903.75,-2142.7 1908.55,-2137.99 1903.55,-2138.2 1903.55,-2138.2 1903.55,-2138.2 1908.55,-2137.99 1903.35,-2133.71 1913.54,-2137.77 1913.54,-2137.77"/>
<text text-anchor="middle" x="1810.63" y="-2132.78" font-family="Times,serif" font-size="9.00" fill="lightgray">HardpointsForces&lt;5&gt;</text>
</g>
<!-- 3866450572919949294&#45;&gt;17837599286913035225 -->
<g id="edge85" class="edge">
<title>3866450572919949294&#45;&gt;17837599286913035225</title>
<path fill="none" stroke="#1b9e77" d="M1810.46,-2140.03C1808.32,-2100.44 1778.01,-1539.04 1770.68,-1403.26"/>
<polygon fill="#1b9e77" stroke="#1b9e77" points="1770.14,-1393.19 1775.17,-1402.93 1770.41,-1398.18 1770.68,-1403.17 1770.68,-1403.17 1770.68,-1403.17 1770.41,-1398.18 1766.18,-1403.41 1770.14,-1393.19 1770.14,-1393.19"/>
<text text-anchor="middle" x="1738.3" y="-1769.45" font-family="Times,serif" font-size="9.00" fill="lightgray">HardpointsForces&lt;5&gt;</text>
</g>
<!-- 18083880317815061432&#45;&gt;11866810641491922280 -->
<g id="edge88" class="edge">
<title>18083880317815061432&#45;&gt;11866810641491922280</title>
<path fill="none" stroke="#d95f02" d="M1891.73,-779.74C1916.71,-790.17 2200.09,-908.47 2322.17,-959.44"/>
<polygon fill="#d95f02" stroke="#d95f02" points="2331.72,-963.43 2320.76,-963.73 2327.11,-961.5 2322.49,-959.58 2322.49,-959.58 2322.49,-959.58 2327.11,-961.5 2324.23,-955.42 2331.72,-963.43 2331.72,-963.43"/>
<text text-anchor="middle" x="2059.94" y="-874.26" font-family="Times,serif" font-size="9.00" fill="lightgray">BarycentricForce&lt;5&gt;</text>
</g>
<!-- 6099127760367114275&#45;&gt;6923268465890841387 -->
<g id="edge55" class="edge">
<title>6099127760367114275&#45;&gt;6923268465890841387</title>
<path fill="none" stroke="#1b9e77" d="M2295.78,-1562.74C2292.9,-1585.53 2266.48,-1794.47 2246.71,-1950.86"/>
<polygon fill="#1b9e77" stroke="#1b9e77" points="2245.41,-1961.08 2242.2,-1950.6 2246.04,-1956.12 2246.67,-1951.16 2246.67,-1951.16 2246.67,-1951.16 2246.04,-1956.12 2251.13,-1951.73 2245.41,-1961.08 2245.41,-1961.08"/>
<text text-anchor="middle" x="2206.08" y="-1764.82" font-family="Times,serif" font-size="9.00" fill="lightgray">ActuatorAppliedForces&lt;5&gt;</text>
</g>
<!-- 5194074664784390226&#45;&gt;6923268465890841387 -->
<g id="edge56" class="edge">
<title>5194074664784390226&#45;&gt;6923268465890841387</title>
<path fill="none" stroke="#1b9e77" d="M2121.03,-1944.92C2121.89,-1946.42 2123.36,-1948.95 2125.31,-1952.33"/>
<polygon fill="#1b9e77" stroke="#1b9e77" points="2130.33,-1961 2121.43,-1954.6 2127.82,-1956.67 2125.32,-1952.34 2125.32,-1952.34 2125.32,-1952.34 2127.82,-1956.67 2129.22,-1950.09 2130.33,-1961 2130.33,-1961"/>
<text text-anchor="middle" x="2177.22" y="-1944.97" font-family="Times,serif" font-size="9.00" fill="lightgray">HardpointsForces&lt;7&gt;</text>
</g>
<!-- 5194074664784390226&#45;&gt;16759380960328700133 -->
<g id="edge90" class="edge">
<title>5194074664784390226&#45;&gt;16759380960328700133</title>
<path fill="none" stroke="#1b9e77" d="M2118.07,-1942.66C2100.33,-1936.73 1971.99,-1896.73 1910.58,-1958.06 1685.09,-2183.27 1805.32,-2637.42 1842.03,-2756.33"/>
<polygon fill="#1b9e77" stroke="#1b9e77" points="1845.11,-2766.16 1837.82,-2757.97 1843.61,-2761.39 1842.12,-2756.62 1842.12,-2756.62 1842.12,-2756.62 1843.61,-2761.39 1846.41,-2755.27 1845.11,-2766.16 1845.11,-2766.16"/>
<text text-anchor="middle" x="1725.07" y="-2357.39" font-family="Times,serif" font-size="9.00" fill="lightgray">HardpointsForces&lt;7&gt;</text>
</g>
<!-- 17455302710639134042&#45;&gt;13967629702428167562 -->
<g id="edge93" class="edge">
<title>17455302710639134042&#45;&gt;13967629702428167562</title>
<path fill="none" stroke="#d95f02" d="M1821.94,-3397.66C1813.29,-3378.89 1738.33,-3216.15 1707.68,-3149.59"/>
<polygon fill="#d95f02" stroke="#d95f02" points="1703.49,-3140.5 1711.76,-3147.7 1705.58,-3145.04 1707.67,-3149.58 1707.67,-3149.58 1707.67,-3149.58 1705.58,-3145.04 1703.58,-3151.46 1703.49,-3140.5 1703.49,-3140.5"/>
<text text-anchor="middle" x="1711.18" y="-3271.8" font-family="Times,serif" font-size="9.00" fill="lightgray">BarycentricForce&lt;7&gt;</text>
</g>
<!-- 18219438198209507952&#45;&gt;6923268465890841387 -->
<g id="edge57" class="edge">
<title>18219438198209507952&#45;&gt;6923268465890841387</title>
<path fill="none" stroke="#1b9e77" d="M2009.96,-2615.27C2018.25,-2596.33 2090.85,-2430.39 2149.39,-2296.58"/>
<polygon fill="#1b9e77" stroke="#1b9e77" points="2153.4,-2287.41 2153.52,-2298.37 2151.4,-2291.99 2149.39,-2296.57 2149.39,-2296.57 2149.39,-2296.57 2151.4,-2291.99 2145.27,-2294.77 2153.4,-2287.41 2153.4,-2287.41"/>
<text text-anchor="middle" x="2017.06" y="-2454.41" font-family="Times,serif" font-size="9.00" fill="lightgray">ActuatorAppliedForces&lt;7&gt;</text>
</g>
<!-- 10901010791771574459&#45;&gt;12731085354785306831 -->
<g id="edge59" class="edge">
<title>10901010791771574459&#45;&gt;12731085354785306831</title>
<path fill="none" stroke="#1b9e77" d="M3566.54,-3055.81C3542.35,-3035.71 3251.69,-2794.14 3155.36,-2714.08"/>
<polygon fill="#1b9e77" stroke="#1b9e77" points="3147.45,-2707.51 3158.01,-2710.44 3151.29,-2710.7 3155.14,-2713.9 3155.14,-2713.9 3155.14,-2713.9 3151.29,-2710.7 3152.26,-2717.36 3147.45,-2707.51 3147.45,-2707.51"/>
<text text-anchor="middle" x="3335.14" y="-2884.58" font-family="Times,serif" font-size="9.00" fill="lightgray">RBM&lt;1&gt;</text>
</g>
<!-- 17850338592001803333&#45;&gt;13456541555459239564 -->
<g id="edge62" class="edge">
<title>17850338592001803333&#45;&gt;13456541555459239564</title>
<path fill="none" stroke="#d95f02" d="M3908.53,-1931.99C3882.36,-1932.38 3606.38,-1936.44 3454.8,-1938.67"/>
<polygon fill="#d95f02" stroke="#d95f02" points="3444.55,-1938.82 3454.48,-1934.17 3449.55,-1938.75 3454.55,-1938.67 3454.55,-1938.67 3454.55,-1938.67 3449.55,-1938.75 3454.61,-1943.17 3444.55,-1938.82 3444.55,-1938.82"/>
<text text-anchor="middle" x="3607.1" y="-1938.2" font-family="Times,serif" font-size="9.00" fill="lightgray">ActuatorCommandForces&lt;1&gt;</text>
</g>
<!-- 1560569834449579204&#45;&gt;17247103710083610990 -->
<g id="edge64" class="edge">
<title>1560569834449579204&#45;&gt;17247103710083610990</title>
<path fill="none" stroke="#1b9e77" d="M2934.34,-3589.87C2923.29,-3560.91 2787.71,-3205.47 2747.95,-3101.22"/>
<polygon fill="#1b9e77" stroke="#1b9e77" points="2744.31,-3091.67 2752.08,-3099.41 2746.09,-3096.34 2747.87,-3101.01 2747.87,-3101.01 2747.87,-3101.01 2746.09,-3096.34 2743.67,-3102.62 2744.31,-3091.67 2744.31,-3091.67"/>
<text text-anchor="middle" x="2817.33" y="-3343.59" font-family="Times,serif" font-size="9.00" fill="lightgray">RBM&lt;2&gt;</text>
</g>
<!-- 5173928062779297333&#45;&gt;12757732583399154715 -->
<g id="edge67" class="edge">
<title>5173928062779297333&#45;&gt;12757732583399154715</title>
<path fill="none" stroke="#d95f02" d="M3396.11,-918.24C3377.84,-941.98 3156.34,-1229.77 3086.38,-1320.66"/>
<polygon fill="#d95f02" stroke="#d95f02" points="3080.1,-1328.83 3082.63,-1318.16 3083.15,-1324.87 3086.2,-1320.9 3086.2,-1320.9 3086.2,-1320.9 3083.15,-1324.87 3089.76,-1323.65 3080.1,-1328.83 3080.1,-1328.83"/>
<text text-anchor="middle" x="3168.77" y="-1126.12" font-family="Times,serif" font-size="9.00" fill="lightgray">ActuatorCommandForces&lt;2&gt;</text>
</g>
<!-- 16074485712335845093&#45;&gt;8394722738487995712 -->
<g id="edge69" class="edge">
<title>16074485712335845093&#45;&gt;8394722738487995712</title>
<path fill="none" stroke="#1b9e77" d="M1324.51,-706.69C1338,-735.03 1503.37,-1082.38 1552.2,-1184.96"/>
<polygon fill="#1b9e77" stroke="#1b9e77" points="1556.56,-1194.1 1548.19,-1187.01 1554.41,-1189.59 1552.26,-1185.08 1552.26,-1185.08 1552.26,-1185.08 1554.41,-1189.59 1556.32,-1183.14 1556.56,-1194.1 1556.56,-1194.1"/>
<text text-anchor="middle" x="1418.46" y="-953.06" font-family="Times,serif" font-size="9.00" fill="lightgray">RBM&lt;3&gt;</text>
</g>
<!-- 4978143971295123632&#45;&gt;14050267932239083785 -->
<g id="edge72" class="edge">
<title>4978143971295123632&#45;&gt;14050267932239083785</title>
<path fill="none" stroke="#d95f02" d="M560.26,-1657.41C586.8,-1668.29 889.52,-1792.42 1017.2,-1844.77"/>
<polygon fill="#d95f02" stroke="#d95f02" points="1026.82,-1848.72 1015.86,-1849.09 1022.19,-1846.82 1017.56,-1844.92 1017.56,-1844.92 1017.56,-1844.92 1022.19,-1846.82 1019.27,-1840.76 1026.82,-1848.72 1026.82,-1848.72"/>
<text text-anchor="middle" x="723.67" y="-1755.71" font-family="Times,serif" font-size="9.00" fill="lightgray">ActuatorCommandForces&lt;3&gt;</text>
</g>
<!-- 10381210061958966062&#45;&gt;15217189094916091562 -->
<g id="edge74" class="edge">
<title>10381210061958966062&#45;&gt;15217189094916091562</title>
<path fill="none" stroke="#1b9e77" d="M2241.45,-3790.72C2241.26,-3760.11 2238.85,-3383.69 2238.16,-3274.75"/>
<polygon fill="#1b9e77" stroke="#1b9e77" points="2238.09,-3264.5 2242.65,-3274.47 2238.12,-3269.5 2238.16,-3274.5 2238.16,-3274.5 2238.16,-3274.5 2238.12,-3269.5 2233.66,-3274.53 2238.09,-3264.5 2238.09,-3264.5"/>
<text text-anchor="middle" x="2217.77" y="-3530.04" font-family="Times,serif" font-size="9.00" fill="lightgray">RBM&lt;4&gt;</text>
</g>
<!-- 1220750975316630934&#45;&gt;7606381790494488192 -->
<g id="edge77" class="edge">
<title>1220750975316630934&#45;&gt;7606381790494488192</title>
<path fill="none" stroke="#d95f02" d="M3760.32,-2701.17C3734.03,-2697.97 3456.69,-2664.19 3304.62,-2645.67"/>
<polygon fill="#d95f02" stroke="#d95f02" points="3294.34,-2644.42 3304.81,-2641.16 3299.3,-2645.03 3304.26,-2645.63 3304.26,-2645.63 3304.26,-2645.63 3299.3,-2645.03 3303.72,-2650.1 3294.34,-2644.42 3294.34,-2644.42"/>
<text text-anchor="middle" x="3457.81" y="-2675.6" font-family="Times,serif" font-size="9.00" fill="lightgray">ActuatorCommandForces&lt;4&gt;</text>
</g>
<!-- 13690209237385652781&#45;&gt;12840535852242017780 -->
<g id="edge79" class="edge">
<title>13690209237385652781&#45;&gt;12840535852242017780</title>
<path fill="none" stroke="#1b9e77" d="M955.28,-984.63C978.23,-1004 1252.81,-1235.74 1345.8,-1314.22"/>
<polygon fill="#1b9e77" stroke="#1b9e77" points="1353.71,-1320.89 1343.17,-1317.88 1349.89,-1317.67 1346.07,-1314.44 1346.07,-1314.44 1346.07,-1314.44 1349.89,-1317.67 1348.97,-1311.01 1353.71,-1320.89 1353.71,-1320.89"/>
<text text-anchor="middle" x="1132.27" y="-1155.37" font-family="Times,serif" font-size="9.00" fill="lightgray">RBM&lt;6&gt;</text>
</g>
<!-- 2275214403196109054&#45;&gt;4971691102062873834 -->
<g id="edge82" class="edge">
<title>2275214403196109054&#45;&gt;4971691102062873834</title>
<path fill="none" stroke="#d95f02" d="M665.48,-2780.89C691.03,-2766.84 989.55,-2602.55 1103.13,-2540.04"/>
<polygon fill="#d95f02" stroke="#d95f02" points="1111.94,-2535.19 1105.35,-2543.95 1107.56,-2537.6 1103.18,-2540.01 1103.18,-2540.01 1103.18,-2540.01 1107.56,-2537.6 1101.01,-2536.07 1111.94,-2535.19 1111.94,-2535.19"/>
<text text-anchor="middle" x="819.46" y="-2660.71" font-family="Times,serif" font-size="9.00" fill="lightgray">ActuatorCommandForces&lt;6&gt;</text>
</g>
<!-- 17530534829934980672&#45;&gt;7029504328798252482 -->
<g id="edge84" class="edge">
<title>17530534829934980672&#45;&gt;7029504328798252482</title>
<path fill="none" stroke="#1b9e77" d="M942.87,-3081.88C965.54,-3058.91 1240.54,-2780.38 1327.05,-2692.76"/>
<polygon fill="#1b9e77" stroke="#1b9e77" points="1334.13,-2685.6 1330.3,-2695.87 1330.61,-2689.15 1327.1,-2692.71 1327.1,-2692.71 1327.1,-2692.71 1330.61,-2689.15 1323.9,-2689.55 1334.13,-2685.6 1334.13,-2685.6"/>
<text text-anchor="middle" x="1116.52" y="-2886.51" font-family="Times,serif" font-size="9.00" fill="lightgray">RBM&lt;5&gt;</text>
</g>
<!-- 11762802769501662117&#45;&gt;11866810641491922280 -->
<g id="edge87" class="edge">
<title>11762802769501662117&#45;&gt;11866810641491922280</title>
<path fill="none" stroke="#d95f02" d="M2634.17,-497.69C2619.87,-524.72 2445.05,-855.05 2392.45,-954.45"/>
<polygon fill="#d95f02" stroke="#d95f02" points="2387.75,-963.33 2388.45,-952.39 2390.09,-958.91 2392.42,-954.49 2392.42,-954.49 2392.42,-954.49 2390.09,-958.91 2396.4,-956.6 2387.75,-963.33 2387.75,-963.33"/>
<text text-anchor="middle" x="2441.43" y="-733.38" font-family="Times,serif" font-size="9.00" fill="lightgray">ActuatorCommandForces&lt;5&gt;</text>
</g>
<!-- 13423924940488150543&#45;&gt;5211479530975126942 -->
<g id="edge89" class="edge">
<title>13423924940488150543&#45;&gt;5211479530975126942</title>
<path fill="none" stroke="#1b9e77" d="M2173.5,-553.77C2172.15,-586.81 2154.39,-1021.01 2149.57,-1138.79"/>
<polygon fill="#1b9e77" stroke="#1b9e77" points="2149.15,-1148.88 2145.07,-1138.7 2149.36,-1143.88 2149.56,-1138.89 2149.56,-1138.89 2149.56,-1138.89 2149.36,-1143.88 2154.06,-1139.07 2149.15,-1148.88 2149.15,-1148.88"/>
<text text-anchor="middle" x="2139.33" y="-854.09" font-family="Times,serif" font-size="9.00" fill="lightgray">RBM&lt;7&gt;</text>
</g>
<!-- 6728750169540037491&#45;&gt;13967629702428167562 -->
<g id="edge92" class="edge">
<title>6728750169540037491&#45;&gt;13967629702428167562</title>
<path fill="none" stroke="#d95f02" d="M1452.15,-3625.9C1465.72,-3597.68 1632.01,-3251.78 1681.12,-3149.63"/>
<polygon fill="#d95f02" stroke="#d95f02" points="1685.5,-3140.52 1685.22,-3151.48 1683.33,-3145.03 1681.17,-3149.53 1681.17,-3149.53 1681.17,-3149.53 1683.33,-3145.03 1677.11,-3147.58 1685.5,-3140.52 1685.5,-3140.52"/>
<text text-anchor="middle" x="1499.26" y="-3386.15" font-family="Times,serif" font-size="9.00" fill="lightgray">ActuatorCommandForces&lt;7&gt;</text>
</g>
</g>
</svg>
