<?xml version="1.0" encoding="UTF-8" standalone="no"?>
<!DOCTYPE svg PUBLIC "-//W3C//DTD SVG 1.1//EN"
 "http://www.w3.org/Graphics/SVG/1.1/DTD/svg11.dtd">
<!-- Generated by graphviz version 2.43.0 (0)
 -->
<!-- Title: G Pages: 1 -->
<svg width="5214pt" height="5135pt"
 viewBox="0.00 0.00 5214.04 5135.18" xmlns="http://www.w3.org/2000/svg" xmlns:xlink="http://www.w3.org/1999/xlink">
<g id="graph0" class="graph" transform="scale(1 1) rotate(0) translate(4 5131.18)">
<title>G</title>
<polygon fill="#3d3d3d" stroke="transparent" points="-4,4 -4,-5131.18 5210.04,-5131.18 5210.04,4 -4,4"/>
<!-- 6923268465890841387 -->
<g id="node1" class="node">
<title>6923268465890841387</title>
<path fill="lightgray" stroke="black" d="M2904.91,-2767.44C2904.91,-2767.44 2306.91,-2767.44 2306.91,-2767.44 2300.91,-2767.44 2294.91,-2761.44 2294.91,-2755.44 2294.91,-2755.44 2294.91,-2453.44 2294.91,-2453.44 2294.91,-2447.44 2300.91,-2441.44 2306.91,-2441.44 2306.91,-2441.44 2904.91,-2441.44 2904.91,-2441.44 2910.91,-2441.44 2916.91,-2447.44 2916.91,-2453.44 2916.91,-2453.44 2916.91,-2755.44 2916.91,-2755.44 2916.91,-2761.44 2910.91,-2767.44 2904.91,-2767.44"/>
<image xlink:href="fem.png" width="503px" height="326px" preserveAspectRatio="xMinYMin meet" x="2354.41" y="-2767.44"/>
<text text-anchor="middle" x="2605.91" y="-2756.24" font-family="Times,serif" font-size="14.00">GMT</text>
<text text-anchor="middle" x="2605.91" y="-2741.24" font-family="Times,serif" font-size="14.00"> &#160;&#160;&#160;Finite Element Model</text>
<text text-anchor="middle" x="2605.91" y="-2726.24" font-family="Times,serif" font-size="14.00"> &#160;&#160;&#160;/media/rconan/20230131_1605_zen_30_M1_202110_ASM_202208_Mount_202111/</text>
</g>
<!-- 17060268248001869314 -->
<g id="node38" class="node">
<title>17060268248001869314</title>
<ellipse fill="#3d3d3d" stroke="lightgray" cx="2366.22" cy="-2247.6" rx="1.8" ry="1.8"/>
</g>
<!-- 6923268465890841387&#45;&gt;17060268248001869314 -->
<g id="edge1" class="edge">
<title>6923268465890841387&#45;&gt;17060268248001869314</title>
<path fill="none" stroke="#1b9e77" stroke-width="2" d="M2496.41,-2441.42C2438.18,-2354.73 2376.67,-2263.15 2367.41,-2249.37"/>
</g>
<!-- 5185050415724242220 -->
<g id="node39" class="node">
<title>5185050415724242220</title>
<ellipse fill="#3d3d3d" stroke="lightgray" cx="2285.1" cy="-2475.97" rx="1.8" ry="1.8"/>
</g>
<!-- 6923268465890841387&#45;&gt;5185050415724242220 -->
<g id="edge2" class="edge">
<title>6923268465890841387&#45;&gt;5185050415724242220</title>
<path fill="none" stroke="#1b9e77" stroke-width="2" d="M2294.71,-2479.82C2291.24,-2478.43 2288.63,-2477.39 2287.02,-2476.74"/>
</g>
<!-- 12510606062659071544 -->
<g id="node40" class="node">
<title>12510606062659071544</title>
<ellipse fill="#3d3d3d" stroke="lightgray" cx="2400.17" cy="-2971.33" rx="1.8" ry="1.8"/>
</g>
<!-- 6923268465890841387&#45;&gt;12510606062659071544 -->
<g id="edge3" class="edge">
<title>6923268465890841387&#45;&gt;12510606062659071544</title>
<path fill="none" stroke="#1b9e77" stroke-width="2" d="M2514.47,-2767.5C2463.82,-2857.83 2409.42,-2954.84 2401.23,-2969.44"/>
</g>
<!-- 10569719447980019225 -->
<g id="node41" class="node">
<title>10569719447980019225</title>
<ellipse fill="#3d3d3d" stroke="lightgray" cx="3025.33" cy="-2437.67" rx="1.8" ry="1.8"/>
</g>
<!-- 6923268465890841387&#45;&gt;10569719447980019225 -->
<g id="edge4" class="edge">
<title>6923268465890841387&#45;&gt;10569719447980019225</title>
<path fill="none" stroke="#1b9e77" stroke-width="2" d="M2917.05,-2480.72C2971.22,-2459.18 3013.49,-2442.37 3023.22,-2438.51"/>
</g>
<!-- 17144408110511068227 -->
<g id="node42" class="node">
<title>17144408110511068227</title>
<ellipse fill="#3d3d3d" stroke="lightgray" cx="2712.43" cy="-3074.49" rx="1.8" ry="1.8"/>
</g>
<!-- 6923268465890841387&#45;&gt;17144408110511068227 -->
<g id="edge5" class="edge">
<title>6923268465890841387&#45;&gt;17144408110511068227</title>
<path fill="none" stroke="#1b9e77" stroke-width="2" d="M2642.86,-2767.52C2671.71,-2894.8 2707.61,-3053.23 2711.98,-3072.53"/>
</g>
<!-- 17378901314928794640 -->
<g id="node43" class="node">
<title>17378901314928794640</title>
<ellipse fill="#3d3d3d" stroke="lightgray" cx="2719.14" cy="-2192.63" rx="1.8" ry="1.8"/>
</g>
<!-- 6923268465890841387&#45;&gt;17378901314928794640 -->
<g id="edge6" class="edge">
<title>6923268465890841387&#45;&gt;17378901314928794640</title>
<path fill="none" stroke="#1b9e77" stroke-width="2" d="M2650.74,-2441.39C2680.15,-2334.43 2714,-2211.34 2718.61,-2194.56"/>
</g>
<!-- 17621401139099446208 -->
<g id="node44" class="node">
<title>17621401139099446208</title>
<ellipse fill="#3d3d3d" stroke="lightgray" cx="3006.91" cy="-2800.19" rx="1.8" ry="1.8"/>
</g>
<!-- 6923268465890841387&#45;&gt;17621401139099446208 -->
<g id="edge7" class="edge">
<title>6923268465890841387&#45;&gt;17621401139099446208</title>
<path fill="none" stroke="#1b9e77" stroke-width="2" d="M2916.92,-2756.26C2962.67,-2778.59 2997.26,-2795.47 3005.19,-2799.34"/>
</g>
<!-- 9695870857230867192 -->
<g id="node45" class="node">
<title>9695870857230867192</title>
<ellipse fill="#3d3d3d" stroke="lightgray" cx="2102" cy="-2674.52" rx="1.8" ry="1.8"/>
</g>
<!-- 6923268465890841387&#45;&gt;9695870857230867192 -->
<g id="edge8" class="edge">
<title>6923268465890841387&#45;&gt;9695870857230867192</title>
<path fill="none" stroke="#1b9e77" stroke-width="2" d="M2294.67,-2647.72C2200.16,-2660.87 2117.45,-2672.37 2103.93,-2674.25"/>
</g>
<!-- 8611624904136851065 -->
<g id="node2" class="node">
<title>8611624904136851065</title>
<path fill="lightgray" stroke="black" d="M1428.13,-2794.02C1428.13,-2794.02 1344.13,-2794.02 1344.13,-2794.02 1338.13,-2794.02 1332.13,-2788.02 1332.13,-2782.02 1332.13,-2782.02 1332.13,-2770.02 1332.13,-2770.02 1332.13,-2764.02 1338.13,-2758.02 1344.13,-2758.02 1344.13,-2758.02 1428.13,-2758.02 1428.13,-2758.02 1434.13,-2758.02 1440.13,-2764.02 1440.13,-2770.02 1440.13,-2770.02 1440.13,-2782.02 1440.13,-2782.02 1440.13,-2788.02 1434.13,-2794.02 1428.13,-2794.02"/>
<text text-anchor="middle" x="1386.13" y="-2772.32" font-family="Times,serif" font-size="14.00">Logging</text>
</g>
<!-- 12731085354785306831 -->
<g id="node3" class="node">
<title>12731085354785306831</title>
<path fill="lightgray" stroke="black" d="M2197.72,-1335.29C2197.72,-1335.29 2034.72,-1335.29 2034.72,-1335.29 2028.72,-1335.29 2022.72,-1329.29 2022.72,-1323.29 2022.72,-1323.29 2022.72,-1309.29 2022.72,-1309.29 2022.72,-1303.29 2028.72,-1297.29 2034.72,-1297.29 2034.72,-1297.29 2197.72,-1297.29 2197.72,-1297.29 2203.72,-1297.29 2209.72,-1303.29 2209.72,-1309.29 2209.72,-1309.29 2209.72,-1323.29 2209.72,-1323.29 2209.72,-1329.29 2203.72,-1335.29 2197.72,-1335.29"/>
<text text-anchor="middle" x="2116.22" y="-1320.09" font-family="Times,serif" font-size="14.00">M1S1</text>
<text text-anchor="middle" x="2116.22" y="-1305.09" font-family="Times,serif" font-size="14.00"> &#160;&#160;&#160;&#160;&#160;&#160;&#160;&#160;&#160;&#160;&#160;&#160;&#160;&#160;&#160;&#160;&#160;&#160;&#160;Hardpoints</text>
</g>
<!-- 13254462184774527690 -->
<g id="node46" class="node">
<title>13254462184774527690</title>
<ellipse fill="#3d3d3d" stroke="lightgray" cx="2324.12" cy="-1988.83" rx="1.8" ry="1.8"/>
</g>
<!-- 12731085354785306831&#45;&gt;13254462184774527690 -->
<g id="edge9" class="edge">
<title>12731085354785306831&#45;&gt;13254462184774527690</title>
<path fill="none" stroke="#1b9e77" d="M2122.11,-1335.34C2154.75,-1440.93 2312.46,-1951.11 2323.51,-1986.85"/>
</g>
<!-- 9817141177901842795 -->
<g id="node4" class="node">
<title>9817141177901842795</title>
<path fill="lightgray" stroke="black" d="M1894.94,-1730.61C1894.94,-1730.61 1745.94,-1730.61 1745.94,-1730.61 1739.94,-1730.61 1733.94,-1724.61 1733.94,-1718.61 1733.94,-1718.61 1733.94,-1704.61 1733.94,-1704.61 1733.94,-1698.61 1739.94,-1692.61 1745.94,-1692.61 1745.94,-1692.61 1894.94,-1692.61 1894.94,-1692.61 1900.94,-1692.61 1906.94,-1698.61 1906.94,-1704.61 1906.94,-1704.61 1906.94,-1718.61 1906.94,-1718.61 1906.94,-1724.61 1900.94,-1730.61 1894.94,-1730.61"/>
<text text-anchor="middle" x="1820.44" y="-1715.41" font-family="Times,serif" font-size="14.00">M1S1</text>
<text text-anchor="middle" x="1820.44" y="-1700.41" font-family="Times,serif" font-size="14.00"> &#160;&#160;&#160;&#160;&#160;&#160;&#160;&#160;&#160;&#160;&#160;&#160;&#160;&#160;&#160;&#160;&#160;&#160;&#160;Loadcells</text>
</g>
<!-- 13734935183375864922 -->
<g id="node47" class="node">
<title>13734935183375864922</title>
<ellipse fill="#3d3d3d" stroke="lightgray" cx="1245.77" cy="-1391.87" rx="1.8" ry="1.8"/>
</g>
<!-- 9817141177901842795&#45;&gt;13734935183375864922 -->
<g id="edge10" class="edge">
<title>9817141177901842795&#45;&gt;13734935183375864922</title>
<path fill="none" stroke="#d95f02" stroke-width="2" d="M1786.22,-1692.56C1667.33,-1626.42 1277.88,-1409.74 1247.63,-1392.91"/>
</g>
<!-- 13456541555459239564 -->
<g id="node5" class="node">
<title>13456541555459239564</title>
<path fill="lightgray" stroke="black" d="M1421.81,-1984.22C1421.81,-1984.22 1269.81,-1984.22 1269.81,-1984.22 1263.81,-1984.22 1257.81,-1978.22 1257.81,-1972.22 1257.81,-1972.22 1257.81,-1958.22 1257.81,-1958.22 1257.81,-1952.22 1263.81,-1946.22 1269.81,-1946.22 1269.81,-1946.22 1421.81,-1946.22 1421.81,-1946.22 1427.81,-1946.22 1433.81,-1952.22 1433.81,-1958.22 1433.81,-1958.22 1433.81,-1972.22 1433.81,-1972.22 1433.81,-1978.22 1427.81,-1984.22 1421.81,-1984.22"/>
<text text-anchor="middle" x="1345.81" y="-1969.02" font-family="Times,serif" font-size="14.00">M1S1</text>
<text text-anchor="middle" x="1345.81" y="-1954.02" font-family="Times,serif" font-size="14.00"> &#160;&#160;&#160;&#160;&#160;&#160;&#160;&#160;&#160;&#160;&#160;&#160;&#160;&#160;&#160;&#160;&#160;&#160;&#160;Actuators</text>
</g>
<!-- 16963285381156722616 -->
<g id="node48" class="node">
<title>16963285381156722616</title>
<ellipse fill="#3d3d3d" stroke="lightgray" cx="1988.86" cy="-2374.72" rx="1.8" ry="1.8"/>
</g>
<!-- 13456541555459239564&#45;&gt;16963285381156722616 -->
<g id="edge11" class="edge">
<title>13456541555459239564&#45;&gt;16963285381156722616</title>
<path fill="none" stroke="#1b9e77" d="M1382.2,-1984.31C1458.02,-2024.51 1637.71,-2122 1780.39,-2216.81 1870.39,-2276.62 1973.23,-2361.71 1987.25,-2373.38"/>
</g>
<!-- 17247103710083610990 -->
<g id="node6" class="node">
<title>17247103710083610990</title>
<path fill="lightgray" stroke="black" d="M2392.13,-3755.95C2392.13,-3755.95 2229.13,-3755.95 2229.13,-3755.95 2223.13,-3755.95 2217.13,-3749.95 2217.13,-3743.95 2217.13,-3743.95 2217.13,-3729.95 2217.13,-3729.95 2217.13,-3723.95 2223.13,-3717.95 2229.13,-3717.95 2229.13,-3717.95 2392.13,-3717.95 2392.13,-3717.95 2398.13,-3717.95 2404.13,-3723.95 2404.13,-3729.95 2404.13,-3729.95 2404.13,-3743.95 2404.13,-3743.95 2404.13,-3749.95 2398.13,-3755.95 2392.13,-3755.95"/>
<text text-anchor="middle" x="2310.63" y="-3740.75" font-family="Times,serif" font-size="14.00">M1S2</text>
<text text-anchor="middle" x="2310.63" y="-3725.75" font-family="Times,serif" font-size="14.00"> &#160;&#160;&#160;&#160;&#160;&#160;&#160;&#160;&#160;&#160;&#160;&#160;&#160;&#160;&#160;&#160;&#160;&#160;&#160;Hardpoints</text>
</g>
<!-- 3266460364944529614 -->
<g id="node49" class="node">
<title>3266460364944529614</title>
<ellipse fill="#3d3d3d" stroke="lightgray" cx="2252.74" cy="-2869.69" rx="1.8" ry="1.8"/>
</g>
<!-- 17247103710083610990&#45;&gt;3266460364944529614 -->
<g id="edge12" class="edge">
<title>17247103710083610990&#45;&gt;3266460364944529614</title>
<path fill="none" stroke="#1b9e77" d="M2309.34,-3717.62C2301.07,-3593.66 2255.71,-2914.11 2252.88,-2871.76"/>
</g>
<!-- 12914288804457826028 -->
<g id="node7" class="node">
<title>12914288804457826028</title>
<path fill="lightgray" stroke="black" d="M1765.19,-2258.01C1765.19,-2258.01 1616.19,-2258.01 1616.19,-2258.01 1610.19,-2258.01 1604.19,-2252.01 1604.19,-2246.01 1604.19,-2246.01 1604.19,-2232.01 1604.19,-2232.01 1604.19,-2226.01 1610.19,-2220.01 1616.19,-2220.01 1616.19,-2220.01 1765.19,-2220.01 1765.19,-2220.01 1771.19,-2220.01 1777.19,-2226.01 1777.19,-2232.01 1777.19,-2232.01 1777.19,-2246.01 1777.19,-2246.01 1777.19,-2252.01 1771.19,-2258.01 1765.19,-2258.01"/>
<text text-anchor="middle" x="1690.69" y="-2242.81" font-family="Times,serif" font-size="14.00">M1S2</text>
<text text-anchor="middle" x="1690.69" y="-2227.81" font-family="Times,serif" font-size="14.00"> &#160;&#160;&#160;&#160;&#160;&#160;&#160;&#160;&#160;&#160;&#160;&#160;&#160;&#160;&#160;&#160;&#160;&#160;&#160;Loadcells</text>
</g>
<!-- 11229188983633792363 -->
<g id="node50" class="node">
<title>11229188983633792363</title>
<ellipse fill="#3d3d3d" stroke="lightgray" cx="1618.03" cy="-1394.5" rx="1.8" ry="1.8"/>
</g>
<!-- 12914288804457826028&#45;&gt;11229188983633792363 -->
<g id="edge13" class="edge">
<title>12914288804457826028&#45;&gt;11229188983633792363</title>
<path fill="none" stroke="#d95f02" stroke-width="2" d="M1689.03,-2219.79C1678.56,-2098.01 1621.75,-1437.66 1618.21,-1396.51"/>
</g>
<!-- 12757732583399154715 -->
<g id="node8" class="node">
<title>12757732583399154715</title>
<path fill="lightgray" stroke="black" d="M2381.72,-1328.27C2381.72,-1328.27 2229.72,-1328.27 2229.72,-1328.27 2223.72,-1328.27 2217.72,-1322.27 2217.72,-1316.27 2217.72,-1316.27 2217.72,-1302.27 2217.72,-1302.27 2217.72,-1296.27 2223.72,-1290.27 2229.72,-1290.27 2229.72,-1290.27 2381.72,-1290.27 2381.72,-1290.27 2387.72,-1290.27 2393.72,-1296.27 2393.72,-1302.27 2393.72,-1302.27 2393.72,-1316.27 2393.72,-1316.27 2393.72,-1322.27 2387.72,-1328.27 2381.72,-1328.27"/>
<text text-anchor="middle" x="2305.72" y="-1313.07" font-family="Times,serif" font-size="14.00">M1S2</text>
<text text-anchor="middle" x="2305.72" y="-1298.07" font-family="Times,serif" font-size="14.00"> &#160;&#160;&#160;&#160;&#160;&#160;&#160;&#160;&#160;&#160;&#160;&#160;&#160;&#160;&#160;&#160;&#160;&#160;&#160;Actuators</text>
</g>
<!-- 15628350407256098675 -->
<g id="node51" class="node">
<title>15628350407256098675</title>
<ellipse fill="#3d3d3d" stroke="lightgray" cx="2577.15" cy="-1991.04" rx="1.8" ry="1.8"/>
</g>
<!-- 12757732583399154715&#45;&gt;15628350407256098675 -->
<g id="edge14" class="edge">
<title>12757732583399154715&#45;&gt;15628350407256098675</title>
<path fill="none" stroke="#1b9e77" d="M2313.41,-1328.57C2356.03,-1435.62 2561.93,-1952.8 2576.35,-1989.04"/>
</g>
<!-- 8394722738487995712 -->
<g id="node9" class="node">
<title>8394722738487995712</title>
<path fill="lightgray" stroke="black" d="M2218.47,-3898.82C2218.47,-3898.82 2055.47,-3898.82 2055.47,-3898.82 2049.47,-3898.82 2043.47,-3892.82 2043.47,-3886.82 2043.47,-3886.82 2043.47,-3872.82 2043.47,-3872.82 2043.47,-3866.82 2049.47,-3860.82 2055.47,-3860.82 2055.47,-3860.82 2218.47,-3860.82 2218.47,-3860.82 2224.47,-3860.82 2230.47,-3866.82 2230.47,-3872.82 2230.47,-3872.82 2230.47,-3886.82 2230.47,-3886.82 2230.47,-3892.82 2224.47,-3898.82 2218.47,-3898.82"/>
<text text-anchor="middle" x="2136.97" y="-3883.62" font-family="Times,serif" font-size="14.00">M1S3</text>
<text text-anchor="middle" x="2136.97" y="-3868.62" font-family="Times,serif" font-size="14.00"> &#160;&#160;&#160;&#160;&#160;&#160;&#160;&#160;&#160;&#160;&#160;&#160;&#160;&#160;&#160;&#160;&#160;&#160;&#160;Hardpoints</text>
</g>
<!-- 16660014027615126763 -->
<g id="node52" class="node">
<title>16660014027615126763</title>
<ellipse fill="#3d3d3d" stroke="lightgray" cx="2379.92" cy="-3219.62" rx="1.8" ry="1.8"/>
</g>
<!-- 8394722738487995712&#45;&gt;16660014027615126763 -->
<g id="edge15" class="edge">
<title>8394722738487995712&#45;&gt;16660014027615126763</title>
<path fill="none" stroke="#1b9e77" d="M2143.98,-3860.78C2182.41,-3756.33 2366.33,-3256.56 2379.21,-3221.55"/>
</g>
<!-- 12367018580917085300 -->
<g id="node10" class="node">
<title>12367018580917085300</title>
<path fill="lightgray" stroke="black" d="M1850.23,-3435.22C1850.23,-3435.22 1701.23,-3435.22 1701.23,-3435.22 1695.23,-3435.22 1689.23,-3429.22 1689.23,-3423.22 1689.23,-3423.22 1689.23,-3409.22 1689.23,-3409.22 1689.23,-3403.22 1695.23,-3397.22 1701.23,-3397.22 1701.23,-3397.22 1850.23,-3397.22 1850.23,-3397.22 1856.23,-3397.22 1862.23,-3403.22 1862.23,-3409.22 1862.23,-3409.22 1862.23,-3423.22 1862.23,-3423.22 1862.23,-3429.22 1856.23,-3435.22 1850.23,-3435.22"/>
<text text-anchor="middle" x="1775.73" y="-3420.02" font-family="Times,serif" font-size="14.00">M1S3</text>
<text text-anchor="middle" x="1775.73" y="-3405.02" font-family="Times,serif" font-size="14.00"> &#160;&#160;&#160;&#160;&#160;&#160;&#160;&#160;&#160;&#160;&#160;&#160;&#160;&#160;&#160;&#160;&#160;&#160;&#160;Loadcells</text>
</g>
<!-- 12231861257859185698 -->
<g id="node53" class="node">
<title>12231861257859185698</title>
<ellipse fill="#3d3d3d" stroke="lightgray" cx="1137.15" cy="-3628.72" rx="1.8" ry="1.8"/>
</g>
<!-- 12367018580917085300&#45;&gt;12231861257859185698 -->
<g id="edge16" class="edge">
<title>12367018580917085300&#45;&gt;12231861257859185698</title>
<path fill="none" stroke="#d95f02" stroke-width="2" d="M1718.5,-3435.27C1567.88,-3485.39 1169.91,-3617.82 1139.05,-3628.09"/>
</g>
<!-- 14050267932239083785 -->
<g id="node11" class="node">
<title>14050267932239083785</title>
<path fill="lightgray" stroke="black" d="M1356.55,-3105.5C1356.55,-3105.5 1204.55,-3105.5 1204.55,-3105.5 1198.55,-3105.5 1192.55,-3099.5 1192.55,-3093.5 1192.55,-3093.5 1192.55,-3079.5 1192.55,-3079.5 1192.55,-3073.5 1198.55,-3067.5 1204.55,-3067.5 1204.55,-3067.5 1356.55,-3067.5 1356.55,-3067.5 1362.55,-3067.5 1368.55,-3073.5 1368.55,-3079.5 1368.55,-3079.5 1368.55,-3093.5 1368.55,-3093.5 1368.55,-3099.5 1362.55,-3105.5 1356.55,-3105.5"/>
<text text-anchor="middle" x="1280.55" y="-3090.3" font-family="Times,serif" font-size="14.00">M1S3</text>
<text text-anchor="middle" x="1280.55" y="-3075.3" font-family="Times,serif" font-size="14.00"> &#160;&#160;&#160;&#160;&#160;&#160;&#160;&#160;&#160;&#160;&#160;&#160;&#160;&#160;&#160;&#160;&#160;&#160;&#160;Actuators</text>
</g>
<!-- 4540907197014273973 -->
<g id="node54" class="node">
<title>4540907197014273973</title>
<ellipse fill="#3d3d3d" stroke="lightgray" cx="1960.37" cy="-2845.61" rx="1.8" ry="1.8"/>
</g>
<!-- 14050267932239083785&#45;&gt;4540907197014273973 -->
<g id="edge17" class="edge">
<title>14050267932239083785&#45;&gt;4540907197014273973</title>
<path fill="none" stroke="#1b9e77" d="M1334.18,-3067.5C1488.43,-3012.84 1924.46,-2858.34 1958.29,-2846.35"/>
</g>
<!-- 15217189094916091562 -->
<g id="node12" class="node">
<title>15217189094916091562</title>
<path fill="lightgray" stroke="black" d="M3994.53,-2427.69C3994.53,-2427.69 3831.53,-2427.69 3831.53,-2427.69 3825.53,-2427.69 3819.53,-2421.69 3819.53,-2415.69 3819.53,-2415.69 3819.53,-2401.69 3819.53,-2401.69 3819.53,-2395.69 3825.53,-2389.69 3831.53,-2389.69 3831.53,-2389.69 3994.53,-2389.69 3994.53,-2389.69 4000.53,-2389.69 4006.53,-2395.69 4006.53,-2401.69 4006.53,-2401.69 4006.53,-2415.69 4006.53,-2415.69 4006.53,-2421.69 4000.53,-2427.69 3994.53,-2427.69"/>
<text text-anchor="middle" x="3913.03" y="-2412.49" font-family="Times,serif" font-size="14.00">M1S4</text>
<text text-anchor="middle" x="3913.03" y="-2397.49" font-family="Times,serif" font-size="14.00"> &#160;&#160;&#160;&#160;&#160;&#160;&#160;&#160;&#160;&#160;&#160;&#160;&#160;&#160;&#160;&#160;&#160;&#160;&#160;Hardpoints</text>
</g>
<!-- 12395115991920806803 -->
<g id="node55" class="node">
<title>12395115991920806803</title>
<ellipse fill="#3d3d3d" stroke="lightgray" cx="3235.99" cy="-2449.53" rx="1.8" ry="1.8"/>
</g>
<!-- 15217189094916091562&#45;&gt;12395115991920806803 -->
<g id="edge18" class="edge">
<title>15217189094916091562&#45;&gt;12395115991920806803</title>
<path fill="none" stroke="#1b9e77" d="M3819.25,-2414.35C3641.35,-2425.08 3269.75,-2447.49 3238.14,-2449.4"/>
</g>
<!-- 253783876682516454 -->
<g id="node13" class="node">
<title>253783876682516454</title>
<path fill="lightgray" stroke="black" d="M3725.51,-2105.66C3725.51,-2105.66 3576.51,-2105.66 3576.51,-2105.66 3570.51,-2105.66 3564.51,-2099.66 3564.51,-2093.66 3564.51,-2093.66 3564.51,-2079.66 3564.51,-2079.66 3564.51,-2073.66 3570.51,-2067.66 3576.51,-2067.66 3576.51,-2067.66 3725.51,-2067.66 3725.51,-2067.66 3731.51,-2067.66 3737.51,-2073.66 3737.51,-2079.66 3737.51,-2079.66 3737.51,-2093.66 3737.51,-2093.66 3737.51,-2099.66 3731.51,-2105.66 3725.51,-2105.66"/>
<text text-anchor="middle" x="3651.01" y="-2090.46" font-family="Times,serif" font-size="14.00">M1S4</text>
<text text-anchor="middle" x="3651.01" y="-2075.46" font-family="Times,serif" font-size="14.00"> &#160;&#160;&#160;&#160;&#160;&#160;&#160;&#160;&#160;&#160;&#160;&#160;&#160;&#160;&#160;&#160;&#160;&#160;&#160;Loadcells</text>
</g>
<!-- 6412797464805006005 -->
<g id="node56" class="node">
<title>6412797464805006005</title>
<ellipse fill="#3d3d3d" stroke="lightgray" cx="4103.13" cy="-1657.91" rx="1.8" ry="1.8"/>
</g>
<!-- 253783876682516454&#45;&gt;6412797464805006005 -->
<g id="edge19" class="edge">
<title>253783876682516454&#45;&gt;6412797464805006005</title>
<path fill="none" stroke="#d95f02" stroke-width="2" d="M3671.32,-2067.41C3755.85,-1987.24 4076.66,-1683.02 4101.59,-1659.37"/>
</g>
<!-- 7606381790494488192 -->
<g id="node14" class="node">
<title>7606381790494488192</title>
<path fill="lightgray" stroke="black" d="M3598.02,-1649.93C3598.02,-1649.93 3446.02,-1649.93 3446.02,-1649.93 3440.02,-1649.93 3434.02,-1643.93 3434.02,-1637.93 3434.02,-1637.93 3434.02,-1623.93 3434.02,-1623.93 3434.02,-1617.93 3440.02,-1611.93 3446.02,-1611.93 3446.02,-1611.93 3598.02,-1611.93 3598.02,-1611.93 3604.02,-1611.93 3610.02,-1617.93 3610.02,-1623.93 3610.02,-1623.93 3610.02,-1637.93 3610.02,-1637.93 3610.02,-1643.93 3604.02,-1649.93 3598.02,-1649.93"/>
<text text-anchor="middle" x="3522.02" y="-1634.73" font-family="Times,serif" font-size="14.00">M1S4</text>
<text text-anchor="middle" x="3522.02" y="-1619.73" font-family="Times,serif" font-size="14.00"> &#160;&#160;&#160;&#160;&#160;&#160;&#160;&#160;&#160;&#160;&#160;&#160;&#160;&#160;&#160;&#160;&#160;&#160;&#160;Actuators</text>
</g>
<!-- 4941318742070416173 -->
<g id="node57" class="node">
<title>4941318742070416173</title>
<ellipse fill="#3d3d3d" stroke="lightgray" cx="3065.39" cy="-2183.53" rx="1.8" ry="1.8"/>
</g>
<!-- 7606381790494488192&#45;&gt;4941318742070416173 -->
<g id="edge20" class="edge">
<title>7606381790494488192&#45;&gt;4941318742070416173</title>
<path fill="none" stroke="#1b9e77" d="M3506.3,-1649.95C3428.83,-1743.7 3090.4,-2153.26 3066.7,-2181.94"/>
</g>
<!-- 12840535852242017780 -->
<g id="node15" class="node">
<title>12840535852242017780</title>
<path fill="lightgray" stroke="black" d="M1791.06,-3642.77C1791.06,-3642.77 1628.06,-3642.77 1628.06,-3642.77 1622.06,-3642.77 1616.06,-3636.77 1616.06,-3630.77 1616.06,-3630.77 1616.06,-3616.77 1616.06,-3616.77 1616.06,-3610.77 1622.06,-3604.77 1628.06,-3604.77 1628.06,-3604.77 1791.06,-3604.77 1791.06,-3604.77 1797.06,-3604.77 1803.06,-3610.77 1803.06,-3616.77 1803.06,-3616.77 1803.06,-3630.77 1803.06,-3630.77 1803.06,-3636.77 1797.06,-3642.77 1791.06,-3642.77"/>
<text text-anchor="middle" x="1709.56" y="-3627.57" font-family="Times,serif" font-size="14.00">M1S6</text>
<text text-anchor="middle" x="1709.56" y="-3612.57" font-family="Times,serif" font-size="14.00"> &#160;&#160;&#160;&#160;&#160;&#160;&#160;&#160;&#160;&#160;&#160;&#160;&#160;&#160;&#160;&#160;&#160;&#160;&#160;Hardpoints</text>
</g>
<!-- 14480343811691284513 -->
<g id="node58" class="node">
<title>14480343811691284513</title>
<ellipse fill="#3d3d3d" stroke="lightgray" cx="2277.99" cy="-3178.72" rx="1.8" ry="1.8"/>
</g>
<!-- 12840535852242017780&#45;&gt;14480343811691284513 -->
<g id="edge21" class="edge">
<title>12840535852242017780&#45;&gt;14480343811691284513</title>
<path fill="none" stroke="#1b9e77" d="M1733.98,-3604.64C1838.96,-3522.45 2247.79,-3202.36 2276.41,-3179.95"/>
</g>
<!-- 4596463053101681754 -->
<g id="node16" class="node">
<title>4596463053101681754</title>
<path fill="lightgray" stroke="black" d="M2721.91,-3775.79C2721.91,-3775.79 2572.91,-3775.79 2572.91,-3775.79 2566.91,-3775.79 2560.91,-3769.79 2560.91,-3763.79 2560.91,-3763.79 2560.91,-3749.79 2560.91,-3749.79 2560.91,-3743.79 2566.91,-3737.79 2572.91,-3737.79 2572.91,-3737.79 2721.91,-3737.79 2721.91,-3737.79 2727.91,-3737.79 2733.91,-3743.79 2733.91,-3749.79 2733.91,-3749.79 2733.91,-3763.79 2733.91,-3763.79 2733.91,-3769.79 2727.91,-3775.79 2721.91,-3775.79"/>
<text text-anchor="middle" x="2647.41" y="-3760.59" font-family="Times,serif" font-size="14.00">M1S6</text>
<text text-anchor="middle" x="2647.41" y="-3745.59" font-family="Times,serif" font-size="14.00"> &#160;&#160;&#160;&#160;&#160;&#160;&#160;&#160;&#160;&#160;&#160;&#160;&#160;&#160;&#160;&#160;&#160;&#160;&#160;Loadcells</text>
</g>
<!-- 3400305328334063720 -->
<g id="node59" class="node">
<title>3400305328334063720</title>
<ellipse fill="#3d3d3d" stroke="lightgray" cx="2905.94" cy="-4326.45" rx="1.8" ry="1.8"/>
</g>
<!-- 4596463053101681754&#45;&gt;3400305328334063720 -->
<g id="edge22" class="edge">
<title>4596463053101681754&#45;&gt;3400305328334063720</title>
<path fill="none" stroke="#d95f02" stroke-width="2" d="M2656.16,-3776.07C2699.55,-3871.69 2890.2,-4291.76 2905.03,-4324.43"/>
</g>
<!-- 4971691102062873834 -->
<g id="node17" class="node">
<title>4971691102062873834</title>
<path fill="lightgray" stroke="black" d="M3255.53,-3832.33C3255.53,-3832.33 3103.53,-3832.33 3103.53,-3832.33 3097.53,-3832.33 3091.53,-3826.33 3091.53,-3820.33 3091.53,-3820.33 3091.53,-3806.33 3091.53,-3806.33 3091.53,-3800.33 3097.53,-3794.33 3103.53,-3794.33 3103.53,-3794.33 3255.53,-3794.33 3255.53,-3794.33 3261.53,-3794.33 3267.53,-3800.33 3267.53,-3806.33 3267.53,-3806.33 3267.53,-3820.33 3267.53,-3820.33 3267.53,-3826.33 3261.53,-3832.33 3255.53,-3832.33"/>
<text text-anchor="middle" x="3179.53" y="-3817.13" font-family="Times,serif" font-size="14.00">M1S6</text>
<text text-anchor="middle" x="3179.53" y="-3802.13" font-family="Times,serif" font-size="14.00"> &#160;&#160;&#160;&#160;&#160;&#160;&#160;&#160;&#160;&#160;&#160;&#160;&#160;&#160;&#160;&#160;&#160;&#160;&#160;Actuators</text>
</g>
<!-- 14571155803125052809 -->
<g id="node60" class="node">
<title>14571155803125052809</title>
<ellipse fill="#3d3d3d" stroke="lightgray" cx="2886.05" cy="-3173.37" rx="1.8" ry="1.8"/>
</g>
<!-- 4971691102062873834&#45;&gt;14571155803125052809 -->
<g id="edge23" class="edge">
<title>4971691102062873834&#45;&gt;14571155803125052809</title>
<path fill="none" stroke="#1b9e77" d="M3170.75,-3794.18C3123.64,-3691.44 2902.4,-3209.03 2886.91,-3175.23"/>
</g>
<!-- 7029504328798252482 -->
<g id="node18" class="node">
<title>7029504328798252482</title>
<path fill="lightgray" stroke="black" d="M1452.39,-2189.45C1452.39,-2189.45 1289.39,-2189.45 1289.39,-2189.45 1283.39,-2189.45 1277.39,-2183.45 1277.39,-2177.45 1277.39,-2177.45 1277.39,-2163.45 1277.39,-2163.45 1277.39,-2157.45 1283.39,-2151.45 1289.39,-2151.45 1289.39,-2151.45 1452.39,-2151.45 1452.39,-2151.45 1458.39,-2151.45 1464.39,-2157.45 1464.39,-2163.45 1464.39,-2163.45 1464.39,-2177.45 1464.39,-2177.45 1464.39,-2183.45 1458.39,-2189.45 1452.39,-2189.45"/>
<text text-anchor="middle" x="1370.89" y="-2174.25" font-family="Times,serif" font-size="14.00">M1S5</text>
<text text-anchor="middle" x="1370.89" y="-2159.25" font-family="Times,serif" font-size="14.00"> &#160;&#160;&#160;&#160;&#160;&#160;&#160;&#160;&#160;&#160;&#160;&#160;&#160;&#160;&#160;&#160;&#160;&#160;&#160;Hardpoints</text>
</g>
<!-- 3866450572919949294 -->
<g id="node61" class="node">
<title>3866450572919949294</title>
<ellipse fill="#3d3d3d" stroke="lightgray" cx="2168.58" cy="-2167.22" rx="1.8" ry="1.8"/>
</g>
<!-- 7029504328798252482&#45;&gt;3866450572919949294 -->
<g id="edge24" class="edge">
<title>7029504328798252482&#45;&gt;3866450572919949294</title>
<path fill="none" stroke="#1b9e77" d="M1464.74,-2170.07C1667.37,-2169.25 2130.5,-2167.37 2166.37,-2167.23"/>
</g>
<!-- 17837599286913035225 -->
<g id="node19" class="node">
<title>17837599286913035225</title>
<path fill="lightgray" stroke="black" d="M2641.4,-1526.16C2641.4,-1526.16 2492.4,-1526.16 2492.4,-1526.16 2486.4,-1526.16 2480.4,-1520.16 2480.4,-1514.16 2480.4,-1514.16 2480.4,-1500.16 2480.4,-1500.16 2480.4,-1494.16 2486.4,-1488.16 2492.4,-1488.16 2492.4,-1488.16 2641.4,-1488.16 2641.4,-1488.16 2647.4,-1488.16 2653.4,-1494.16 2653.4,-1500.16 2653.4,-1500.16 2653.4,-1514.16 2653.4,-1514.16 2653.4,-1520.16 2647.4,-1526.16 2641.4,-1526.16"/>
<text text-anchor="middle" x="2566.9" y="-1510.96" font-family="Times,serif" font-size="14.00">M1S5</text>
<text text-anchor="middle" x="2566.9" y="-1495.96" font-family="Times,serif" font-size="14.00"> &#160;&#160;&#160;&#160;&#160;&#160;&#160;&#160;&#160;&#160;&#160;&#160;&#160;&#160;&#160;&#160;&#160;&#160;&#160;Loadcells</text>
</g>
<!-- 18083880317815061432 -->
<g id="node62" class="node">
<title>18083880317815061432</title>
<ellipse fill="#3d3d3d" stroke="lightgray" cx="2911.41" cy="-929.39" rx="1.8" ry="1.8"/>
</g>
<!-- 17837599286913035225&#45;&gt;18083880317815061432 -->
<g id="edge25" class="edge">
<title>17837599286913035225&#45;&gt;18083880317815061432</title>
<path fill="none" stroke="#d95f02" stroke-width="2" d="M2578.36,-1487.94C2636.04,-1391.21 2892.46,-961.17 2910.41,-931.05"/>
</g>
<!-- 11866810641491922280 -->
<g id="node20" class="node">
<title>11866810641491922280</title>
<path fill="lightgray" stroke="black" d="M3315.59,-1451.19C3315.59,-1451.19 3163.59,-1451.19 3163.59,-1451.19 3157.59,-1451.19 3151.59,-1445.19 3151.59,-1439.19 3151.59,-1439.19 3151.59,-1425.19 3151.59,-1425.19 3151.59,-1419.19 3157.59,-1413.19 3163.59,-1413.19 3163.59,-1413.19 3315.59,-1413.19 3315.59,-1413.19 3321.59,-1413.19 3327.59,-1419.19 3327.59,-1425.19 3327.59,-1425.19 3327.59,-1439.19 3327.59,-1439.19 3327.59,-1445.19 3321.59,-1451.19 3315.59,-1451.19"/>
<text text-anchor="middle" x="3239.59" y="-1435.99" font-family="Times,serif" font-size="14.00">M1S5</text>
<text text-anchor="middle" x="3239.59" y="-1420.99" font-family="Times,serif" font-size="14.00"> &#160;&#160;&#160;&#160;&#160;&#160;&#160;&#160;&#160;&#160;&#160;&#160;&#160;&#160;&#160;&#160;&#160;&#160;&#160;Actuators</text>
</g>
<!-- 6099127760367114275 -->
<g id="node63" class="node">
<title>6099127760367114275</title>
<ellipse fill="#3d3d3d" stroke="lightgray" cx="2917.95" cy="-2056.01" rx="1.8" ry="1.8"/>
</g>
<!-- 11866810641491922280&#45;&gt;6099127760367114275 -->
<g id="edge26" class="edge">
<title>11866810641491922280&#45;&gt;6099127760367114275</title>
<path fill="none" stroke="#1b9e77" d="M3229.79,-1451.2C3177.78,-1552.07 2935.83,-2021.33 2918.89,-2054.2"/>
</g>
<!-- 5211479530975126942 -->
<g id="node21" class="node">
<title>5211479530975126942</title>
<path fill="lightgray" stroke="black" d="M3990.79,-2797.92C3990.79,-2797.92 3827.79,-2797.92 3827.79,-2797.92 3821.79,-2797.92 3815.79,-2791.92 3815.79,-2785.92 3815.79,-2785.92 3815.79,-2771.92 3815.79,-2771.92 3815.79,-2765.92 3821.79,-2759.92 3827.79,-2759.92 3827.79,-2759.92 3990.79,-2759.92 3990.79,-2759.92 3996.79,-2759.92 4002.79,-2765.92 4002.79,-2771.92 4002.79,-2771.92 4002.79,-2785.92 4002.79,-2785.92 4002.79,-2791.92 3996.79,-2797.92 3990.79,-2797.92"/>
<text text-anchor="middle" x="3909.29" y="-2782.72" font-family="Times,serif" font-size="14.00">M1S7</text>
<text text-anchor="middle" x="3909.29" y="-2767.72" font-family="Times,serif" font-size="14.00"> &#160;&#160;&#160;&#160;&#160;&#160;&#160;&#160;&#160;&#160;&#160;&#160;&#160;&#160;&#160;&#160;&#160;&#160;&#160;Hardpoints</text>
</g>
<!-- 5194074664784390226 -->
<g id="node64" class="node">
<title>5194074664784390226</title>
<ellipse fill="#3d3d3d" stroke="lightgray" cx="3227.77" cy="-2758.79" rx="1.8" ry="1.8"/>
</g>
<!-- 5211479530975126942&#45;&gt;5194074664784390226 -->
<g id="edge27" class="edge">
<title>5211479530975126942&#45;&gt;5194074664784390226</title>
<path fill="none" stroke="#1b9e77" d="M3815.6,-2776.15C3636.82,-2770.87 3261.84,-2759.8 3229.95,-2758.85"/>
</g>
<!-- 16759380960328700133 -->
<g id="node22" class="node">
<title>16759380960328700133</title>
<path fill="lightgray" stroke="black" d="M3719.95,-3119.4C3719.95,-3119.4 3570.95,-3119.4 3570.95,-3119.4 3564.95,-3119.4 3558.95,-3113.4 3558.95,-3107.4 3558.95,-3107.4 3558.95,-3093.4 3558.95,-3093.4 3558.95,-3087.4 3564.95,-3081.4 3570.95,-3081.4 3570.95,-3081.4 3719.95,-3081.4 3719.95,-3081.4 3725.95,-3081.4 3731.95,-3087.4 3731.95,-3093.4 3731.95,-3093.4 3731.95,-3107.4 3731.95,-3107.4 3731.95,-3113.4 3725.95,-3119.4 3719.95,-3119.4"/>
<text text-anchor="middle" x="3645.45" y="-3104.2" font-family="Times,serif" font-size="14.00">M1S7</text>
<text text-anchor="middle" x="3645.45" y="-3089.2" font-family="Times,serif" font-size="14.00"> &#160;&#160;&#160;&#160;&#160;&#160;&#160;&#160;&#160;&#160;&#160;&#160;&#160;&#160;&#160;&#160;&#160;&#160;&#160;Loadcells</text>
</g>
<!-- 17455302710639134042 -->
<g id="node65" class="node">
<title>17455302710639134042</title>
<ellipse fill="#3d3d3d" stroke="lightgray" cx="4153.89" cy="-3439.37" rx="1.8" ry="1.8"/>
</g>
<!-- 16759380960328700133&#45;&gt;17455302710639134042 -->
<g id="edge28" class="edge">
<title>16759380960328700133&#45;&gt;17455302710639134042</title>
<path fill="none" stroke="#d95f02" stroke-width="2" d="M3674.24,-3119.6C3777.6,-3188.51 4125.22,-3420.26 4152.22,-3438.26"/>
</g>
<!-- 13967629702428167562 -->
<g id="node23" class="node">
<title>13967629702428167562</title>
<path fill="lightgray" stroke="black" d="M3679.27,-3510.03C3679.27,-3510.03 3527.27,-3510.03 3527.27,-3510.03 3521.27,-3510.03 3515.27,-3504.03 3515.27,-3498.03 3515.27,-3498.03 3515.27,-3484.03 3515.27,-3484.03 3515.27,-3478.03 3521.27,-3472.03 3527.27,-3472.03 3527.27,-3472.03 3679.27,-3472.03 3679.27,-3472.03 3685.27,-3472.03 3691.27,-3478.03 3691.27,-3484.03 3691.27,-3484.03 3691.27,-3498.03 3691.27,-3498.03 3691.27,-3504.03 3685.27,-3510.03 3679.27,-3510.03"/>
<text text-anchor="middle" x="3603.27" y="-3494.83" font-family="Times,serif" font-size="14.00">M1S7</text>
<text text-anchor="middle" x="3603.27" y="-3479.83" font-family="Times,serif" font-size="14.00"> &#160;&#160;&#160;&#160;&#160;&#160;&#160;&#160;&#160;&#160;&#160;&#160;&#160;&#160;&#160;&#160;&#160;&#160;&#160;Actuators</text>
</g>
<!-- 18219438198209507952 -->
<g id="node66" class="node">
<title>18219438198209507952</title>
<ellipse fill="#3d3d3d" stroke="lightgray" cx="3076.68" cy="-3013.49" rx="1.8" ry="1.8"/>
</g>
<!-- 13967629702428167562&#45;&gt;18219438198209507952 -->
<g id="edge29" class="edge">
<title>13967629702428167562&#45;&gt;18219438198209507952</title>
<path fill="none" stroke="#1b9e77" d="M3582.3,-3472.01C3487.81,-3386.32 3104.97,-3039.14 3078.16,-3014.83"/>
</g>
<!-- 11763641791469948013 -->
<g id="node24" class="node">
<title>11763641791469948013</title>
<path fill="lightgray" stroke="black" d="M1577.45,-184.12C1577.45,-184.12 1493.45,-184.12 1493.45,-184.12 1487.45,-184.12 1481.45,-178.12 1481.45,-172.12 1481.45,-172.12 1481.45,-160.12 1481.45,-160.12 1481.45,-154.12 1487.45,-148.12 1493.45,-148.12 1493.45,-148.12 1577.45,-148.12 1577.45,-148.12 1583.45,-148.12 1589.45,-154.12 1589.45,-160.12 1589.45,-160.12 1589.45,-172.12 1589.45,-172.12 1589.45,-178.12 1583.45,-184.12 1577.45,-184.12"/>
<text text-anchor="middle" x="1535.45" y="-162.42" font-family="Times,serif" font-size="14.00">Signals</text>
</g>
<!-- 10901010791771574459 -->
<g id="node67" class="node">
<title>10901010791771574459</title>
<ellipse fill="#3d3d3d" stroke="lightgray" cx="1821.53" cy="-706.48" rx="1.8" ry="1.8"/>
</g>
<!-- 11763641791469948013&#45;&gt;10901010791771574459 -->
<g id="edge30" class="edge">
<title>11763641791469948013&#45;&gt;10901010791771574459</title>
<path fill="none" stroke="#1b9e77" d="M1545.13,-184.4C1593.15,-275.11 1804.11,-673.58 1820.52,-704.57"/>
</g>
<!-- 15145901477169751526 -->
<g id="node25" class="node">
<title>15145901477169751526</title>
<path fill="lightgray" stroke="black" d="M292.76,-1339.25C292.76,-1339.25 208.76,-1339.25 208.76,-1339.25 202.76,-1339.25 196.76,-1333.25 196.76,-1327.25 196.76,-1327.25 196.76,-1315.25 196.76,-1315.25 196.76,-1309.25 202.76,-1303.25 208.76,-1303.25 208.76,-1303.25 292.76,-1303.25 292.76,-1303.25 298.76,-1303.25 304.76,-1309.25 304.76,-1315.25 304.76,-1315.25 304.76,-1327.25 304.76,-1327.25 304.76,-1333.25 298.76,-1339.25 292.76,-1339.25"/>
<text text-anchor="middle" x="250.76" y="-1317.55" font-family="Times,serif" font-size="14.00">Signals</text>
</g>
<!-- 17850338592001803333 -->
<g id="node68" class="node">
<title>17850338592001803333</title>
<ellipse fill="#3d3d3d" stroke="lightgray" cx="734.48" cy="-1703.4" rx="1.8" ry="1.8"/>
</g>
<!-- 15145901477169751526&#45;&gt;17850338592001803333 -->
<g id="edge31" class="edge">
<title>15145901477169751526&#45;&gt;17850338592001803333</title>
<path fill="none" stroke="#d95f02" d="M273.76,-1339.42C366.14,-1412.4 706.41,-1681.22 732.85,-1702.11"/>
</g>
<!-- 9227271794353802672 -->
<g id="node26" class="node">
<title>9227271794353802672</title>
<path fill="lightgray" stroke="black" d="M2426.99,-5127.18C2426.99,-5127.18 2342.99,-5127.18 2342.99,-5127.18 2336.99,-5127.18 2330.99,-5121.18 2330.99,-5115.18 2330.99,-5115.18 2330.99,-5103.18 2330.99,-5103.18 2330.99,-5097.18 2336.99,-5091.18 2342.99,-5091.18 2342.99,-5091.18 2426.99,-5091.18 2426.99,-5091.18 2432.99,-5091.18 2438.99,-5097.18 2438.99,-5103.18 2438.99,-5103.18 2438.99,-5115.18 2438.99,-5115.18 2438.99,-5121.18 2432.99,-5127.18 2426.99,-5127.18"/>
<text text-anchor="middle" x="2384.99" y="-5105.48" font-family="Times,serif" font-size="14.00">Signals</text>
</g>
<!-- 1560569834449579204 -->
<g id="node69" class="node">
<title>1560569834449579204</title>
<ellipse fill="#3d3d3d" stroke="lightgray" cx="2344.76" cy="-4468.56" rx="1.8" ry="1.8"/>
</g>
<!-- 9227271794353802672&#45;&gt;1560569834449579204 -->
<g id="edge32" class="edge">
<title>9227271794353802672&#45;&gt;1560569834449579204</title>
<path fill="none" stroke="#1b9e77" d="M2383.85,-5091.04C2377.54,-4990.45 2347.02,-4504.49 2344.88,-4470.44"/>
</g>
<!-- 9518213049189947366 -->
<g id="node27" class="node">
<title>9518213049189947366</title>
<path fill="lightgray" stroke="black" d="M2362.83,-36C2362.83,-36 2278.83,-36 2278.83,-36 2272.83,-36 2266.83,-30 2266.83,-24 2266.83,-24 2266.83,-12 2266.83,-12 2266.83,-6 2272.83,0 2278.83,0 2278.83,0 2362.83,0 2362.83,0 2368.83,0 2374.83,-6 2374.83,-12 2374.83,-12 2374.83,-24 2374.83,-24 2374.83,-30 2368.83,-36 2362.83,-36"/>
<text text-anchor="middle" x="2320.83" y="-14.3" font-family="Times,serif" font-size="14.00">Signals</text>
</g>
<!-- 5173928062779297333 -->
<g id="node70" class="node">
<title>5173928062779297333</title>
<ellipse fill="#3d3d3d" stroke="lightgray" cx="2337.27" cy="-632.54" rx="1.8" ry="1.8"/>
</g>
<!-- 9518213049189947366&#45;&gt;5173928062779297333 -->
<g id="edge33" class="edge">
<title>9518213049189947366&#45;&gt;5173928062779297333</title>
<path fill="none" stroke="#d95f02" d="M2321.31,-36.06C2323.92,-133.6 2336.25,-594.47 2337.21,-630.32"/>
</g>
<!-- 17383542812352438922 -->
<g id="node28" class="node">
<title>17383542812352438922</title>
<path fill="lightgray" stroke="black" d="M1666.42,-5066.76C1666.42,-5066.76 1582.42,-5066.76 1582.42,-5066.76 1576.42,-5066.76 1570.42,-5060.76 1570.42,-5054.76 1570.42,-5054.76 1570.42,-5042.76 1570.42,-5042.76 1570.42,-5036.76 1576.42,-5030.76 1582.42,-5030.76 1582.42,-5030.76 1666.42,-5030.76 1666.42,-5030.76 1672.42,-5030.76 1678.42,-5036.76 1678.42,-5042.76 1678.42,-5042.76 1678.42,-5054.76 1678.42,-5054.76 1678.42,-5060.76 1672.42,-5066.76 1666.42,-5066.76"/>
<text text-anchor="middle" x="1624.42" y="-5045.06" font-family="Times,serif" font-size="14.00">Signals</text>
</g>
<!-- 16074485712335845093 -->
<g id="node71" class="node">
<title>16074485712335845093</title>
<ellipse fill="#3d3d3d" stroke="lightgray" cx="1865.73" cy="-4485.69" rx="1.8" ry="1.8"/>
</g>
<!-- 17383542812352438922&#45;&gt;16074485712335845093 -->
<g id="edge34" class="edge">
<title>17383542812352438922&#45;&gt;16074485712335845093</title>
<path fill="none" stroke="#1b9e77" d="M1632.17,-5030.67C1671.86,-4938.05 1850.94,-4520.2 1864.87,-4487.7"/>
</g>
<!-- 8302649568942587561 -->
<g id="node29" class="node">
<title>8302649568942587561</title>
<path fill="lightgray" stroke="black" d="M96,-3382.09C96,-3382.09 12,-3382.09 12,-3382.09 6,-3382.09 0,-3376.09 0,-3370.09 0,-3370.09 0,-3358.09 0,-3358.09 0,-3352.09 6,-3346.09 12,-3346.09 12,-3346.09 96,-3346.09 96,-3346.09 102,-3346.09 108,-3352.09 108,-3358.09 108,-3358.09 108,-3370.09 108,-3370.09 108,-3376.09 102,-3382.09 96,-3382.09"/>
<text text-anchor="middle" x="54" y="-3360.39" font-family="Times,serif" font-size="14.00">Signals</text>
</g>
<!-- 4978143971295123632 -->
<g id="node72" class="node">
<title>4978143971295123632</title>
<ellipse fill="#3d3d3d" stroke="lightgray" cx="626.44" cy="-3174.67" rx="1.8" ry="1.8"/>
</g>
<!-- 8302649568942587561&#45;&gt;4978143971295123632 -->
<g id="edge35" class="edge">
<title>8302649568942587561&#45;&gt;4978143971295123632</title>
<path fill="none" stroke="#d95f02" d="M108.11,-3346.18C244.68,-3300.99 594.59,-3185.21 624.41,-3175.34"/>
</g>
<!-- 12341793244238613210 -->
<g id="node30" class="node">
<title>12341793244238613210</title>
<path fill="lightgray" stroke="black" d="M5184.31,-2113.08C5184.31,-2113.08 5100.31,-2113.08 5100.31,-2113.08 5094.31,-2113.08 5088.31,-2107.08 5088.31,-2101.08 5088.31,-2101.08 5088.31,-2089.08 5088.31,-2089.08 5088.31,-2083.08 5094.31,-2077.08 5100.31,-2077.08 5100.31,-2077.08 5184.31,-2077.08 5184.31,-2077.08 5190.31,-2077.08 5196.31,-2083.08 5196.31,-2089.08 5196.31,-2089.08 5196.31,-2101.08 5196.31,-2101.08 5196.31,-2107.08 5190.31,-2113.08 5184.31,-2113.08"/>
<text text-anchor="middle" x="5142.31" y="-2091.38" font-family="Times,serif" font-size="14.00">Signals</text>
</g>
<!-- 10381210061958966062 -->
<g id="node73" class="node">
<title>10381210061958966062</title>
<ellipse fill="#3d3d3d" stroke="lightgray" cx="4555.77" cy="-2252.16" rx="1.8" ry="1.8"/>
</g>
<!-- 12341793244238613210&#45;&gt;10381210061958966062 -->
<g id="edge36" class="edge">
<title>12341793244238613210&#45;&gt;10381210061958966062</title>
<path fill="none" stroke="#1b9e77" d="M5088.18,-2109.58C4949.22,-2146.79 4588.6,-2243.37 4557.86,-2251.6"/>
</g>
<!-- 1900659861650821083 -->
<g id="node31" class="node">
<title>1900659861650821083</title>
<path fill="lightgray" stroke="black" d="M4072.14,-451.49C4072.14,-451.49 3988.14,-451.49 3988.14,-451.49 3982.14,-451.49 3976.14,-445.49 3976.14,-439.49 3976.14,-439.49 3976.14,-427.49 3976.14,-427.49 3976.14,-421.49 3982.14,-415.49 3988.14,-415.49 3988.14,-415.49 4072.14,-415.49 4072.14,-415.49 4078.14,-415.49 4084.14,-421.49 4084.14,-427.49 4084.14,-427.49 4084.14,-439.49 4084.14,-439.49 4084.14,-445.49 4078.14,-451.49 4072.14,-451.49"/>
<text text-anchor="middle" x="4030.14" y="-429.79" font-family="Times,serif" font-size="14.00">Signals</text>
</g>
<!-- 1220750975316630934 -->
<g id="node74" class="node">
<title>1220750975316630934</title>
<ellipse fill="#3d3d3d" stroke="lightgray" cx="3728.56" cy="-975.2" rx="1.8" ry="1.8"/>
</g>
<!-- 1900659861650821083&#45;&gt;1220750975316630934 -->
<g id="edge37" class="edge">
<title>1900659861650821083&#45;&gt;1220750975316630934</title>
<path fill="none" stroke="#d95f02" d="M4020.1,-451.51C3969.82,-541.83 3746.96,-942.14 3729.63,-973.28"/>
</g>
<!-- 3509656805982508733 -->
<g id="node32" class="node">
<title>3509656805982508733</title>
<path fill="lightgray" stroke="black" d="M770.98,-4470.56C770.98,-4470.56 686.98,-4470.56 686.98,-4470.56 680.98,-4470.56 674.98,-4464.56 674.98,-4458.56 674.98,-4458.56 674.98,-4446.56 674.98,-4446.56 674.98,-4440.56 680.98,-4434.56 686.98,-4434.56 686.98,-4434.56 770.98,-4434.56 770.98,-4434.56 776.98,-4434.56 782.98,-4440.56 782.98,-4446.56 782.98,-4446.56 782.98,-4458.56 782.98,-4458.56 782.98,-4464.56 776.98,-4470.56 770.98,-4470.56"/>
<text text-anchor="middle" x="728.98" y="-4448.86" font-family="Times,serif" font-size="14.00">Signals</text>
</g>
<!-- 13690209237385652781 -->
<g id="node75" class="node">
<title>13690209237385652781</title>
<ellipse fill="#3d3d3d" stroke="lightgray" cx="1209.74" cy="-4071.6" rx="1.8" ry="1.8"/>
</g>
<!-- 3509656805982508733&#45;&gt;13690209237385652781 -->
<g id="edge38" class="edge">
<title>3509656805982508733&#45;&gt;13690209237385652781</title>
<path fill="none" stroke="#1b9e77" d="M751.84,-4434.44C843.65,-4361.69 1181.84,-4093.71 1208.12,-4072.88"/>
</g>
<!-- 11708920306642233574 -->
<g id="node33" class="node">
<title>11708920306642233574</title>
<path fill="lightgray" stroke="black" d="M3826.26,-4934.37C3826.26,-4934.37 3742.26,-4934.37 3742.26,-4934.37 3736.26,-4934.37 3730.26,-4928.37 3730.26,-4922.37 3730.26,-4922.37 3730.26,-4910.37 3730.26,-4910.37 3730.26,-4904.37 3736.26,-4898.37 3742.26,-4898.37 3742.26,-4898.37 3826.26,-4898.37 3826.26,-4898.37 3832.26,-4898.37 3838.26,-4904.37 3838.26,-4910.37 3838.26,-4910.37 3838.26,-4922.37 3838.26,-4922.37 3838.26,-4928.37 3832.26,-4934.37 3826.26,-4934.37"/>
<text text-anchor="middle" x="3784.26" y="-4912.67" font-family="Times,serif" font-size="14.00">Signals</text>
</g>
<!-- 2275214403196109054 -->
<g id="node76" class="node">
<title>2275214403196109054</title>
<ellipse fill="#3d3d3d" stroke="lightgray" cx="3539.77" cy="-4360.29" rx="1.8" ry="1.8"/>
</g>
<!-- 11708920306642233574&#45;&gt;2275214403196109054 -->
<g id="edge39" class="edge">
<title>11708920306642233574&#45;&gt;2275214403196109054</title>
<path fill="none" stroke="#d95f02" d="M3776.27,-4898.18C3735.78,-4806.09 3554.73,-4394.3 3540.64,-4362.27"/>
</g>
<!-- 6520066949627032006 -->
<g id="node34" class="node">
<title>6520066949627032006</title>
<path fill="lightgray" stroke="black" d="M106.31,-2000.46C106.31,-2000.46 22.31,-2000.46 22.31,-2000.46 16.31,-2000.46 10.31,-1994.46 10.31,-1988.46 10.31,-1988.46 10.31,-1976.46 10.31,-1976.46 10.31,-1970.46 16.31,-1964.46 22.31,-1964.46 22.31,-1964.46 106.31,-1964.46 106.31,-1964.46 112.31,-1964.46 118.31,-1970.46 118.31,-1976.46 118.31,-1976.46 118.31,-1988.46 118.31,-1988.46 118.31,-1994.46 112.31,-2000.46 106.31,-2000.46"/>
<text text-anchor="middle" x="64.31" y="-1978.76" font-family="Times,serif" font-size="14.00">Signals</text>
</g>
<!-- 17530534829934980672 -->
<g id="node77" class="node">
<title>17530534829934980672</title>
<ellipse fill="#3d3d3d" stroke="lightgray" cx="678.81" cy="-2102.51" rx="1.8" ry="1.8"/>
</g>
<!-- 6520066949627032006&#45;&gt;17530534829934980672 -->
<g id="edge40" class="edge">
<title>6520066949627032006&#45;&gt;17530534829934980672</title>
<path fill="none" stroke="#1b9e77" d="M118.57,-1993.06C262.88,-2021.25 647.17,-2096.33 676.97,-2102.15"/>
</g>
<!-- 1369025530303032934 -->
<g id="node35" class="node">
<title>1369025530303032934</title>
<path fill="lightgray" stroke="black" d="M4301.2,-644.48C4301.2,-644.48 4217.2,-644.48 4217.2,-644.48 4211.2,-644.48 4205.2,-638.48 4205.2,-632.48 4205.2,-632.48 4205.2,-620.48 4205.2,-620.48 4205.2,-614.48 4211.2,-608.48 4217.2,-608.48 4217.2,-608.48 4301.2,-608.48 4301.2,-608.48 4307.2,-608.48 4313.2,-614.48 4313.2,-620.48 4313.2,-620.48 4313.2,-632.48 4313.2,-632.48 4313.2,-638.48 4307.2,-644.48 4301.2,-644.48"/>
<text text-anchor="middle" x="4259.2" y="-622.78" font-family="Times,serif" font-size="14.00">Signals</text>
</g>
<!-- 11762802769501662117 -->
<g id="node78" class="node">
<title>11762802769501662117</title>
<ellipse fill="#3d3d3d" stroke="lightgray" cx="3801.48" cy="-1050.45" rx="1.8" ry="1.8"/>
</g>
<!-- 1369025530303032934&#45;&gt;11762802769501662117 -->
<g id="edge41" class="edge">
<title>1369025530303032934&#45;&gt;11762802769501662117</title>
<path fill="none" stroke="#d95f02" d="M4239.54,-644.7C4155.35,-722.68 3828.46,-1025.46 3803.05,-1049"/>
</g>
<!-- 10386181684737637314 -->
<g id="node36" class="node">
<title>10386181684737637314</title>
<path fill="lightgray" stroke="black" d="M5194.04,-3059.37C5194.04,-3059.37 5110.04,-3059.37 5110.04,-3059.37 5104.04,-3059.37 5098.04,-3053.37 5098.04,-3047.37 5098.04,-3047.37 5098.04,-3035.37 5098.04,-3035.37 5098.04,-3029.37 5104.04,-3023.37 5110.04,-3023.37 5110.04,-3023.37 5194.04,-3023.37 5194.04,-3023.37 5200.04,-3023.37 5206.04,-3029.37 5206.04,-3035.37 5206.04,-3035.37 5206.04,-3047.37 5206.04,-3047.37 5206.04,-3053.37 5200.04,-3059.37 5194.04,-3059.37"/>
<text text-anchor="middle" x="5152.04" y="-3037.67" font-family="Times,serif" font-size="14.00">Signals</text>
</g>
<!-- 13423924940488150543 -->
<g id="node79" class="node">
<title>13423924940488150543</title>
<ellipse fill="#3d3d3d" stroke="lightgray" cx="4559.85" cy="-2905.02" rx="1.8" ry="1.8"/>
</g>
<!-- 10386181684737637314&#45;&gt;13423924940488150543 -->
<g id="edge42" class="edge">
<title>10386181684737637314&#45;&gt;13423924940488150543</title>
<path fill="none" stroke="#1b9e77" d="M5097.91,-3028.91C4957.44,-2996.56 4590.09,-2911.98 4561.6,-2905.43"/>
</g>
<!-- 18003283753325439862 -->
<g id="node37" class="node">
<title>18003283753325439862</title>
<path fill="lightgray" stroke="black" d="M4613.22,-4313.09C4613.22,-4313.09 4529.22,-4313.09 4529.22,-4313.09 4523.22,-4313.09 4517.22,-4307.09 4517.22,-4301.09 4517.22,-4301.09 4517.22,-4289.09 4517.22,-4289.09 4517.22,-4283.09 4523.22,-4277.09 4529.22,-4277.09 4529.22,-4277.09 4613.22,-4277.09 4613.22,-4277.09 4619.22,-4277.09 4625.22,-4283.09 4625.22,-4289.09 4625.22,-4289.09 4625.22,-4301.09 4625.22,-4301.09 4625.22,-4307.09 4619.22,-4313.09 4613.22,-4313.09"/>
<text text-anchor="middle" x="4571.22" y="-4291.39" font-family="Times,serif" font-size="14.00">Signals</text>
</g>
<!-- 6728750169540037491 -->
<g id="node80" class="node">
<title>6728750169540037491</title>
<ellipse fill="#3d3d3d" stroke="lightgray" cx="4061.89" cy="-3961.7" rx="1.8" ry="1.8"/>
</g>
<!-- 18003283753325439862&#45;&gt;6728750169540037491 -->
<g id="edge43" class="edge">
<title>18003283753325439862&#45;&gt;6728750169540037491</title>
<path fill="none" stroke="#d95f02" d="M4543.48,-4276.93C4441.34,-4210.08 4090.8,-3980.62 4063.57,-3962.8"/>
</g>
<!-- 17060268248001869314&#45;&gt;9817141177901842795 -->
<g id="edge61" class="edge">
<title>17060268248001869314&#45;&gt;9817141177901842795</title>
<path fill="none" stroke="#1b9e77" d="M2364.65,-2246.06C2337.08,-2218.98 1953.32,-1842.11 1847.37,-1738.05"/>
<polygon fill="#1b9e77" stroke="#1b9e77" points="1839.95,-1730.76 1850.24,-1734.56 1843.52,-1734.26 1847.08,-1737.77 1847.08,-1737.77 1847.08,-1737.77 1843.52,-1734.26 1843.93,-1740.98 1839.95,-1730.76 1839.95,-1730.76"/>
<text text-anchor="middle" x="2049.53" y="-1991.44" font-family="Times,serif" font-size="9.00" fill="lightgray">HardpointsMotion&lt;1&gt;</text>
</g>
<!-- 5185050415724242220&#45;&gt;12914288804457826028 -->
<g id="edge66" class="edge">
<title>5185050415724242220&#45;&gt;12914288804457826028</title>
<path fill="none" stroke="#1b9e77" d="M2283.4,-2475.29C2255.44,-2464.15 1891.19,-2318.94 1747.97,-2261.85"/>
<polygon fill="#1b9e77" stroke="#1b9e77" points="1738.45,-2258.05 1749.41,-2257.58 1743.09,-2259.91 1747.74,-2261.76 1747.74,-2261.76 1747.74,-2261.76 1743.09,-2259.91 1746.07,-2265.94 1738.45,-2258.05 1738.45,-2258.05"/>
<text text-anchor="middle" x="1958.14" y="-2359.56" font-family="Times,serif" font-size="9.00" fill="lightgray">HardpointsMotion&lt;2&gt;</text>
</g>
<!-- 12510606062659071544&#45;&gt;12367018580917085300 -->
<g id="edge71" class="edge">
<title>12510606062659071544&#45;&gt;12367018580917085300</title>
<path fill="none" stroke="#1b9e77" d="M2398.38,-2972.6C2367.19,-2994.82 1937.64,-3300.87 1810.77,-3391.26"/>
<polygon fill="#1b9e77" stroke="#1b9e77" points="1802.51,-3397.14 1808.04,-3387.67 1806.58,-3394.24 1810.65,-3391.34 1810.65,-3391.34 1810.65,-3391.34 1806.58,-3394.24 1813.27,-3395 1802.51,-3397.14 1802.51,-3397.14"/>
<text text-anchor="middle" x="2047.31" y="-3187.77" font-family="Times,serif" font-size="9.00" fill="lightgray">HardpointsMotion&lt;3&gt;</text>
</g>
<!-- 10569719447980019225&#45;&gt;253783876682516454 -->
<g id="edge76" class="edge">
<title>10569719447980019225&#45;&gt;253783876682516454</title>
<path fill="none" stroke="#1b9e77" d="M3027.13,-2436.66C3057.75,-2419.48 3471.58,-2187.32 3607.84,-2110.88"/>
<polygon fill="#1b9e77" stroke="#1b9e77" points="3616.79,-2105.86 3610.27,-2114.68 3612.43,-2108.31 3608.07,-2110.75 3608.07,-2110.75 3608.07,-2110.75 3612.43,-2108.31 3605.86,-2106.83 3616.79,-2105.86 3616.79,-2105.86"/>
<text text-anchor="middle" x="3268.98" y="-2274.05" font-family="Times,serif" font-size="9.00" fill="lightgray">HardpointsMotion&lt;4&gt;</text>
</g>
<!-- 17144408110511068227&#45;&gt;4596463053101681754 -->
<g id="edge81" class="edge">
<title>17144408110511068227&#45;&gt;4596463053101681754</title>
<path fill="none" stroke="#1b9e77" d="M2712.24,-3076.45C2708.92,-3111.31 2662.19,-3601.69 2650.19,-3727.53"/>
<polygon fill="#1b9e77" stroke="#1b9e77" points="2649.24,-3737.58 2645.71,-3727.2 2649.71,-3732.61 2650.18,-3727.63 2650.18,-3727.63 2650.18,-3727.63 2649.71,-3732.61 2654.66,-3728.06 2649.24,-3737.58 2649.24,-3737.58"/>
<text text-anchor="middle" x="2627.74" y="-3409.75" font-family="Times,serif" font-size="9.00" fill="lightgray">HardpointsMotion&lt;6&gt;</text>
</g>
<!-- 17378901314928794640&#45;&gt;17837599286913035225 -->
<g id="edge86" class="edge">
<title>17378901314928794640&#45;&gt;17837599286913035225</title>
<path fill="none" stroke="#1b9e77" d="M2718.71,-2190.66C2710.93,-2155.64 2601.51,-1662.99 2573.43,-1536.56"/>
<polygon fill="#1b9e77" stroke="#1b9e77" points="2571.19,-1526.46 2577.75,-1535.25 2572.27,-1531.34 2573.35,-1536.22 2573.35,-1536.22 2573.35,-1536.22 2572.27,-1531.34 2568.96,-1537.2 2571.19,-1526.46 2571.19,-1526.46"/>
<text text-anchor="middle" x="2591.96" y="-1861.43" font-family="Times,serif" font-size="9.00" fill="lightgray">HardpointsMotion&lt;5&gt;</text>
</g>
<!-- 17621401139099446208&#45;&gt;16759380960328700133 -->
<g id="edge91" class="edge">
<title>17621401139099446208&#45;&gt;16759380960328700133</title>
<path fill="none" stroke="#1b9e77" d="M3008.75,-2801.05C3039.56,-2815.53 3450.67,-3008.83 3595.44,-3076.89"/>
<polygon fill="#1b9e77" stroke="#1b9e77" points="3604.58,-3081.19 3593.62,-3081.01 3600.06,-3079.06 3595.53,-3076.93 3595.53,-3076.93 3595.53,-3076.93 3600.06,-3079.06 3597.45,-3072.86 3604.58,-3081.19 3604.58,-3081.19"/>
<text text-anchor="middle" x="3253.27" y="-2943.73" font-family="Times,serif" font-size="9.00" fill="lightgray">HardpointsMotion&lt;7&gt;</text>
</g>
<!-- 9695870857230867192&#45;&gt;8611624904136851065 -->
<g id="edge58" class="edge">
<title>9695870857230867192&#45;&gt;8611624904136851065</title>
<path fill="none" stroke="#1b9e77" stroke-dasharray="5,2" d="M2099.95,-2674.81C2065.95,-2679.63 1619.09,-2742.99 1450.19,-2766.94"/>
<polygon fill="#1b9e77" stroke="#1b9e77" points="1440.19,-2768.36 1449.46,-2762.5 1445.14,-2767.66 1450.09,-2766.95 1450.09,-2766.95 1450.09,-2766.95 1445.14,-2767.66 1450.72,-2771.41 1440.19,-2768.36 1440.19,-2768.36"/>
<text text-anchor="middle" x="1719.94" y="-2724.4" font-family="Times,serif" font-size="9.00" fill="lightgray">M1RigidBodyMotions</text>
</g>
<!-- 13254462184774527690&#45;&gt;6923268465890841387 -->
<g id="edge44" class="edge">
<title>13254462184774527690&#45;&gt;6923268465890841387</title>
<path fill="none" stroke="#1b9e77" d="M2324.93,-1990.59C2335.5,-2013.7 2447.6,-2258.6 2526.96,-2431.97"/>
<polygon fill="#1b9e77" stroke="#1b9e77" points="2531.19,-2441.21 2522.94,-2433.99 2529.11,-2436.66 2527.03,-2432.12 2527.03,-2432.12 2527.03,-2432.12 2529.11,-2436.66 2531.12,-2430.24 2531.19,-2441.21 2531.19,-2441.21"/>
<text text-anchor="middle" x="2376.22" y="-2219.05" font-family="Times,serif" font-size="9.00" fill="lightgray">HardpointsForces&lt;1&gt;</text>
</g>
<!-- 13254462184774527690&#45;&gt;9817141177901842795 -->
<g id="edge60" class="edge">
<title>13254462184774527690&#45;&gt;9817141177901842795</title>
<path fill="none" stroke="#1b9e77" d="M2322.29,-1987.82C2295.52,-1973.09 1981.34,-1800.16 1864.15,-1735.66"/>
<polygon fill="#1b9e77" stroke="#1b9e77" points="1855.07,-1730.67 1866,-1731.55 1859.45,-1733.08 1863.83,-1735.49 1863.83,-1735.49 1863.83,-1735.49 1859.45,-1733.08 1861.66,-1739.43 1855.07,-1730.67 1855.07,-1730.67"/>
<text text-anchor="middle" x="2036.78" y="-1862.1" font-family="Times,serif" font-size="9.00" fill="lightgray">HardpointsForces&lt;1&gt;</text>
</g>
<!-- 13734935183375864922&#45;&gt;13456541555459239564 -->
<g id="edge63" class="edge">
<title>13734935183375864922&#45;&gt;13456541555459239564</title>
<path fill="none" stroke="#d95f02" d="M1246.13,-1393.95C1251.75,-1426.19 1321.27,-1824.58 1340.76,-1936.28"/>
<polygon fill="#d95f02" stroke="#d95f02" points="1342.48,-1946.17 1336.33,-1937.1 1341.62,-1941.25 1340.76,-1936.32 1340.76,-1936.32 1340.76,-1936.32 1341.62,-1941.25 1345.2,-1935.55 1342.48,-1946.17 1342.48,-1946.17"/>
<text text-anchor="middle" x="1242.79" y="-1672.78" font-family="Times,serif" font-size="9.00" fill="lightgray">BarycentricForce&lt;1&gt;</text>
</g>
<!-- 16963285381156722616&#45;&gt;6923268465890841387 -->
<g id="edge45" class="edge">
<title>16963285381156722616&#45;&gt;6923268465890841387</title>
<path fill="none" stroke="#1b9e77" d="M1990.63,-2375.38C2007.65,-2381.72 2144.67,-2432.73 2285.09,-2485.01"/>
<polygon fill="#1b9e77" stroke="#1b9e77" points="2294.77,-2488.61 2283.83,-2489.34 2290.09,-2486.87 2285.4,-2485.12 2285.4,-2485.12 2285.4,-2485.12 2290.09,-2486.87 2286.97,-2480.9 2294.77,-2488.61 2294.77,-2488.61"/>
<text text-anchor="middle" x="2078.09" y="-2434.76" font-family="Times,serif" font-size="9.00" fill="lightgray">ActuatorAppliedForces&lt;1&gt;</text>
</g>
<!-- 3266460364944529614&#45;&gt;6923268465890841387 -->
<g id="edge46" class="edge">
<title>3266460364944529614&#45;&gt;6923268465890841387</title>
<path fill="none" stroke="#1b9e77" d="M2254.32,-2868.5C2264.08,-2861.17 2317.94,-2820.72 2380.7,-2773.59"/>
<polygon fill="#1b9e77" stroke="#1b9e77" points="2388.79,-2767.51 2383.5,-2777.11 2384.8,-2770.51 2380.8,-2773.51 2380.8,-2773.51 2380.8,-2773.51 2384.8,-2770.51 2378.1,-2769.91 2388.79,-2767.51 2388.79,-2767.51"/>
<text text-anchor="middle" x="2269.49" y="-2820.86" font-family="Times,serif" font-size="9.00" fill="lightgray">HardpointsForces&lt;2&gt;</text>
</g>
<!-- 3266460364944529614&#45;&gt;12914288804457826028 -->
<g id="edge65" class="edge">
<title>3266460364944529614&#45;&gt;12914288804457826028</title>
<path fill="none" stroke="#1b9e77" d="M2251.51,-2868.3C2226.16,-2839.86 1818.9,-2382.87 1714.77,-2266.04"/>
<polygon fill="#1b9e77" stroke="#1b9e77" points="1707.81,-2258.23 1717.82,-2262.7 1711.14,-2261.96 1714.46,-2265.7 1714.46,-2265.7 1714.46,-2265.7 1711.14,-2261.96 1711.11,-2268.69 1707.81,-2258.23 1707.81,-2258.23"/>
<text text-anchor="middle" x="1927.65" y="-2566.06" font-family="Times,serif" font-size="9.00" fill="lightgray">HardpointsForces&lt;2&gt;</text>
</g>
<!-- 11229188983633792363&#45;&gt;12757732583399154715 -->
<g id="edge68" class="edge">
<title>11229188983633792363&#45;&gt;12757732583399154715</title>
<path fill="none" stroke="#d95f02" d="M1619.85,-1394.47C1646.65,-1394.11 1963.81,-1388.85 2212.92,-1338.49 2222.48,-1336.56 2232.45,-1334.01 2242.16,-1331.22"/>
<polygon fill="#d95f02" stroke="#d95f02" points="2251.76,-1328.37 2243.45,-1335.53 2246.96,-1329.8 2242.17,-1331.22 2242.17,-1331.22 2242.17,-1331.22 2246.96,-1329.8 2240.89,-1326.91 2251.76,-1328.37 2251.76,-1328.37"/>
<text text-anchor="middle" x="1885.7" y="-1379.74" font-family="Times,serif" font-size="9.00" fill="lightgray">BarycentricForce&lt;2&gt;</text>
</g>
<!-- 15628350407256098675&#45;&gt;6923268465890841387 -->
<g id="edge47" class="edge">
<title>15628350407256098675&#45;&gt;6923268465890841387</title>
<path fill="none" stroke="#1b9e77" d="M2577.24,-1993.02C2578.38,-2017.28 2589.71,-2258.88 2597.78,-2430.99"/>
<polygon fill="#1b9e77" stroke="#1b9e77" points="2598.26,-2441.19 2593.29,-2431.41 2598.02,-2436.2 2597.79,-2431.2 2597.79,-2431.2 2597.79,-2431.2 2598.02,-2436.2 2602.28,-2430.99 2598.26,-2441.19 2598.26,-2441.19"/>
<text text-anchor="middle" x="2523.26" y="-2220.07" font-family="Times,serif" font-size="9.00" fill="lightgray">ActuatorAppliedForces&lt;2&gt;</text>
</g>
<!-- 16660014027615126763&#45;&gt;6923268465890841387 -->
<g id="edge48" class="edge">
<title>16660014027615126763&#45;&gt;6923268465890841387</title>
<path fill="none" stroke="#1b9e77" d="M2380.57,-3217.85C2389.05,-3194.77 2478.86,-2950.28 2542.5,-2777.04"/>
<polygon fill="#1b9e77" stroke="#1b9e77" points="2545.99,-2767.56 2546.76,-2778.49 2544.26,-2772.25 2542.54,-2776.94 2542.54,-2776.94 2542.54,-2776.94 2544.26,-2772.25 2538.32,-2775.39 2545.99,-2767.56 2545.99,-2767.56"/>
<text text-anchor="middle" x="2411.34" y="-2995.33" font-family="Times,serif" font-size="9.00" fill="lightgray">HardpointsForces&lt;3&gt;</text>
</g>
<!-- 16660014027615126763&#45;&gt;12367018580917085300 -->
<g id="edge70" class="edge">
<title>16660014027615126763&#45;&gt;12367018580917085300</title>
<path fill="none" stroke="#1b9e77" d="M2378.19,-3220.18C2350.4,-3229.22 1995.83,-3344.6 1843.99,-3394.01"/>
<polygon fill="#1b9e77" stroke="#1b9e77" points="1834.29,-3397.17 1842.4,-3389.79 1839.04,-3395.62 1843.8,-3394.07 1843.8,-3394.07 1843.8,-3394.07 1839.04,-3395.62 1845.19,-3398.35 1834.29,-3397.17 1834.29,-3397.17"/>
<text text-anchor="middle" x="2054.32" y="-3311.45" font-family="Times,serif" font-size="9.00" fill="lightgray">HardpointsForces&lt;3&gt;</text>
</g>
<!-- 12231861257859185698&#45;&gt;14050267932239083785 -->
<g id="edge73" class="edge">
<title>12231861257859185698&#45;&gt;14050267932239083785</title>
<path fill="none" stroke="#d95f02" d="M1137.67,-3626.76C1145.69,-3596.43 1244.3,-3223.57 1272.85,-3115.61"/>
<polygon fill="#d95f02" stroke="#d95f02" points="1275.46,-3105.73 1277.26,-3116.55 1274.18,-3110.56 1272.9,-3115.4 1272.9,-3115.4 1272.9,-3115.4 1274.18,-3110.56 1268.55,-3114.25 1275.46,-3105.73 1275.46,-3105.73"/>
<text text-anchor="middle" x="1155.11" y="-3368.88" font-family="Times,serif" font-size="9.00" fill="lightgray">BarycentricForce&lt;3&gt;</text>
</g>
<!-- 4540907197014273973&#45;&gt;6923268465890841387 -->
<g id="edge49" class="edge">
<title>4540907197014273973&#45;&gt;6923268465890841387</title>
<path fill="none" stroke="#1b9e77" d="M1962.23,-2844.92C1980.62,-2838.05 2133.13,-2781.07 2285.06,-2724.31"/>
<polygon fill="#1b9e77" stroke="#1b9e77" points="2294.61,-2720.74 2286.81,-2728.46 2289.92,-2722.49 2285.24,-2724.24 2285.24,-2724.24 2285.24,-2724.24 2289.92,-2722.49 2283.66,-2720.03 2294.61,-2720.74 2294.61,-2720.74"/>
<text text-anchor="middle" x="2063.98" y="-2785.61" font-family="Times,serif" font-size="9.00" fill="lightgray">ActuatorAppliedForces&lt;3&gt;</text>
</g>
<!-- 12395115991920806803&#45;&gt;6923268465890841387 -->
<g id="edge50" class="edge">
<title>12395115991920806803&#45;&gt;6923268465890841387</title>
<path fill="none" stroke="#1b9e77" d="M3234.18,-2449.97C3216.54,-2454.31 3072.6,-2489.7 2926.95,-2525.51"/>
<polygon fill="#1b9e77" stroke="#1b9e77" points="2916.91,-2527.98 2925.55,-2521.22 2921.77,-2526.78 2926.62,-2525.59 2926.62,-2525.59 2926.62,-2525.59 2921.77,-2526.78 2927.7,-2529.96 2916.91,-2527.98 2916.91,-2527.98"/>
<text text-anchor="middle" x="3023.28" y="-2491.84" font-family="Times,serif" font-size="9.00" fill="lightgray">HardpointsForces&lt;4&gt;</text>
</g>
<!-- 12395115991920806803&#45;&gt;253783876682516454 -->
<g id="edge75" class="edge">
<title>12395115991920806803&#45;&gt;253783876682516454</title>
<path fill="none" stroke="#1b9e77" d="M3237.49,-2448.21C3260.05,-2428.49 3530.3,-2192.21 3621.31,-2112.63"/>
<polygon fill="#1b9e77" stroke="#1b9e77" points="3629.05,-2105.86 3624.48,-2115.83 3625.29,-2109.15 3621.52,-2112.44 3621.52,-2112.44 3621.52,-2112.44 3625.29,-2109.15 3618.56,-2109.06 3629.05,-2105.86 3629.05,-2105.86"/>
<text text-anchor="middle" x="3381.23" y="-2279.88" font-family="Times,serif" font-size="9.00" fill="lightgray">HardpointsForces&lt;4&gt;</text>
</g>
<!-- 6412797464805006005&#45;&gt;7606381790494488192 -->
<g id="edge78" class="edge">
<title>6412797464805006005&#45;&gt;7606381790494488192</title>
<path fill="none" stroke="#d95f02" d="M4101.02,-1657.82C4073.29,-1656.53 3778.2,-1642.82 3620.36,-1635.49"/>
<polygon fill="#d95f02" stroke="#d95f02" points="3610.17,-1635.02 3620.37,-1630.99 3615.16,-1635.25 3620.16,-1635.48 3620.16,-1635.48 3620.16,-1635.48 3615.16,-1635.25 3619.95,-1639.98 3610.17,-1635.02 3610.17,-1635.02"/>
<text text-anchor="middle" x="3803.84" y="-1649.21" font-family="Times,serif" font-size="9.00" fill="lightgray">BarycentricForce&lt;4&gt;</text>
</g>
<!-- 4941318742070416173&#45;&gt;6923268465890841387 -->
<g id="edge51" class="edge">
<title>4941318742070416173&#45;&gt;6923268465890841387</title>
<path fill="none" stroke="#1b9e77" d="M3063.73,-2185.05C3047.23,-2200.17 2911.06,-2324.91 2791.48,-2434.45"/>
<polygon fill="#1b9e77" stroke="#1b9e77" points="2783.99,-2441.31 2788.33,-2431.23 2787.68,-2437.93 2791.37,-2434.55 2791.37,-2434.55 2791.37,-2434.55 2787.68,-2437.93 2794.41,-2437.87 2783.99,-2441.31 2783.99,-2441.31"/>
<text text-anchor="middle" x="2859.34" y="-2316" font-family="Times,serif" font-size="9.00" fill="lightgray">ActuatorAppliedForces&lt;4&gt;</text>
</g>
<!-- 14480343811691284513&#45;&gt;6923268465890841387 -->
<g id="edge52" class="edge">
<title>14480343811691284513&#45;&gt;6923268465890841387</title>
<path fill="none" stroke="#1b9e77" d="M2278.95,-3177.04C2287.28,-3162.44 2348.29,-3055.59 2397.79,-2968.9 2433.61,-2906.18 2472.89,-2837.39 2507.58,-2776.63"/>
<polygon fill="#1b9e77" stroke="#1b9e77" points="2512.67,-2767.72 2511.62,-2778.64 2510.19,-2772.07 2507.71,-2776.41 2507.71,-2776.41 2507.71,-2776.41 2510.19,-2772.07 2503.8,-2774.18 2512.67,-2767.72 2512.67,-2767.72"/>
<text text-anchor="middle" x="2345.82" y="-2971.65" font-family="Times,serif" font-size="9.00" fill="lightgray">HardpointsForces&lt;6&gt;</text>
</g>
<!-- 14480343811691284513&#45;&gt;4596463053101681754 -->
<g id="edge80" class="edge">
<title>14480343811691284513&#45;&gt;4596463053101681754</title>
<path fill="none" stroke="#1b9e77" d="M2279.05,-3180.38C2297.76,-3209.65 2558.77,-3618.09 2629.72,-3729.11"/>
<polygon fill="#1b9e77" stroke="#1b9e77" points="2635.24,-3737.75 2626.06,-3731.75 2632.55,-3733.54 2629.85,-3729.33 2629.85,-3729.33 2629.85,-3729.33 2632.55,-3733.54 2633.65,-3726.9 2635.24,-3737.75 2635.24,-3737.75"/>
<text text-anchor="middle" x="2405.1" y="-3461.8" font-family="Times,serif" font-size="9.00" fill="lightgray">HardpointsForces&lt;6&gt;</text>
</g>
<!-- 3400305328334063720&#45;&gt;4971691102062873834 -->
<g id="edge83" class="edge">
<title>3400305328334063720&#45;&gt;4971691102062873834</title>
<path fill="none" stroke="#d95f02" d="M2906.94,-4324.59C2922.22,-4295.93 3109.88,-3943.97 3164.63,-3841.28"/>
<polygon fill="#d95f02" stroke="#d95f02" points="3169.36,-3832.41 3168.63,-3843.35 3167.01,-3836.82 3164.66,-3841.23 3164.66,-3841.23 3164.66,-3841.23 3167.01,-3836.82 3160.69,-3839.12 3169.36,-3832.41 3169.36,-3832.41"/>
<text text-anchor="middle" x="2986.72" y="-4081.16" font-family="Times,serif" font-size="9.00" fill="lightgray">BarycentricForce&lt;6&gt;</text>
</g>
<!-- 14571155803125052809&#45;&gt;6923268465890841387 -->
<g id="edge53" class="edge">
<title>14571155803125052809&#45;&gt;6923268465890841387</title>
<path fill="none" stroke="#1b9e77" d="M2885.25,-3171.73C2875.02,-3150.96 2769.32,-2936.31 2690.95,-2777.15"/>
<polygon fill="#1b9e77" stroke="#1b9e77" points="2686.3,-2767.71 2694.76,-2774.69 2688.51,-2772.2 2690.72,-2776.68 2690.72,-2776.68 2690.72,-2776.68 2688.51,-2772.2 2686.68,-2778.67 2686.3,-2767.71 2686.3,-2767.71"/>
<text text-anchor="middle" x="2721.34" y="-2972.66" font-family="Times,serif" font-size="9.00" fill="lightgray">ActuatorAppliedForces&lt;6&gt;</text>
</g>
<!-- 3866450572919949294&#45;&gt;6923268465890841387 -->
<g id="edge54" class="edge">
<title>3866450572919949294&#45;&gt;6923268465890841387</title>
<path fill="none" stroke="#1b9e77" d="M2170.17,-2168.8C2186.16,-2184.79 2320.26,-2318.86 2435.52,-2434.09"/>
<polygon fill="#1b9e77" stroke="#1b9e77" points="2442.73,-2441.31 2432.48,-2437.42 2439.2,-2437.77 2435.66,-2434.24 2435.66,-2434.24 2435.66,-2434.24 2439.2,-2437.77 2438.84,-2431.05 2442.73,-2441.31 2442.73,-2441.31"/>
<text text-anchor="middle" x="2253.04" y="-2306.45" font-family="Times,serif" font-size="9.00" fill="lightgray">HardpointsForces&lt;5&gt;</text>
</g>
<!-- 3866450572919949294&#45;&gt;17837599286913035225 -->
<g id="edge85" class="edge">
<title>3866450572919949294&#45;&gt;17837599286913035225</title>
<path fill="none" stroke="#1b9e77" d="M2169.73,-2165.32C2190.09,-2131.57 2476.83,-1656.42 2550,-1535.17"/>
<polygon fill="#1b9e77" stroke="#1b9e77" points="2555.27,-1526.43 2553.96,-1537.31 2552.69,-1530.71 2550.11,-1534.99 2550.11,-1534.99 2550.11,-1534.99 2552.69,-1530.71 2546.25,-1532.66 2555.27,-1526.43 2555.27,-1526.43"/>
<text text-anchor="middle" x="2310.4" y="-1848.84" font-family="Times,serif" font-size="9.00" fill="lightgray">HardpointsForces&lt;5&gt;</text>
</g>
<!-- 18083880317815061432&#45;&gt;11866810641491922280 -->
<g id="edge88" class="edge">
<title>18083880317815061432&#45;&gt;11866810641491922280</title>
<path fill="none" stroke="#d95f02" d="M2912.6,-931.21C2930.9,-959.26 3155.49,-1303.34 3221.47,-1404.44"/>
<polygon fill="#d95f02" stroke="#d95f02" points="3227,-1412.91 3217.77,-1406.99 3224.27,-1408.72 3221.54,-1404.54 3221.54,-1404.54 3221.54,-1404.54 3224.27,-1408.72 3225.31,-1402.08 3227,-1412.91 3227,-1412.91"/>
<text text-anchor="middle" x="3018.31" y="-1174.87" font-family="Times,serif" font-size="9.00" fill="lightgray">BarycentricForce&lt;5&gt;</text>
</g>
<!-- 6099127760367114275&#45;&gt;6923268465890841387 -->
<g id="edge55" class="edge">
<title>6099127760367114275&#45;&gt;6923268465890841387</title>
<path fill="none" stroke="#1b9e77" d="M2917.05,-2057.58C2905.8,-2077.36 2790.81,-2279.46 2703.87,-2432.26"/>
<polygon fill="#1b9e77" stroke="#1b9e77" points="2698.71,-2441.33 2699.75,-2430.42 2701.19,-2436.99 2703.66,-2432.64 2703.66,-2432.64 2703.66,-2432.64 2701.19,-2436.99 2707.57,-2434.87 2698.71,-2441.33 2698.71,-2441.33"/>
<text text-anchor="middle" x="2743.37" y="-2252.28" font-family="Times,serif" font-size="9.00" fill="lightgray">ActuatorAppliedForces&lt;5&gt;</text>
</g>
<!-- 5194074664784390226&#45;&gt;6923268465890841387 -->
<g id="edge56" class="edge">
<title>5194074664784390226&#45;&gt;6923268465890841387</title>
<path fill="none" stroke="#1b9e77" d="M3225.99,-2758.35C3208.75,-2754.07 3069.35,-2719.47 2927.08,-2684.16"/>
<polygon fill="#1b9e77" stroke="#1b9e77" points="2917.27,-2681.72 2928.06,-2679.76 2922.12,-2682.93 2926.97,-2684.13 2926.97,-2684.13 2926.97,-2684.13 2922.12,-2682.93 2925.89,-2688.5 2917.27,-2681.72 2917.27,-2681.72"/>
<text text-anchor="middle" x="3019.62" y="-2722.83" font-family="Times,serif" font-size="9.00" fill="lightgray">HardpointsForces&lt;7&gt;</text>
</g>
<!-- 5194074664784390226&#45;&gt;16759380960328700133 -->
<g id="edge90" class="edge">
<title>5194074664784390226&#45;&gt;16759380960328700133</title>
<path fill="none" stroke="#1b9e77" d="M3229.29,-2760.03C3251.88,-2778.51 3521.48,-2999.01 3614.29,-3074.92"/>
<polygon fill="#1b9e77" stroke="#1b9e77" points="3622.2,-3081.39 3611.61,-3078.54 3618.33,-3078.22 3614.46,-3075.06 3614.46,-3075.06 3614.46,-3075.06 3618.33,-3078.22 3617.31,-3071.58 3622.2,-3081.39 3622.2,-3081.39"/>
<text text-anchor="middle" x="3373.97" y="-2923.69" font-family="Times,serif" font-size="9.00" fill="lightgray">HardpointsForces&lt;7&gt;</text>
</g>
<!-- 17455302710639134042&#45;&gt;13967629702428167562 -->
<g id="edge93" class="edge">
<title>17455302710639134042&#45;&gt;13967629702428167562</title>
<path fill="none" stroke="#d95f02" d="M4151.9,-3439.56C4125.92,-3442 3852.39,-3467.66 3701.65,-3481.8"/>
<polygon fill="#d95f02" stroke="#d95f02" points="3691.46,-3482.76 3700.99,-3477.34 3696.44,-3482.29 3701.41,-3481.82 3701.41,-3481.82 3701.41,-3481.82 3696.44,-3482.29 3701.83,-3486.3 3691.46,-3482.76 3691.46,-3482.76"/>
<text text-anchor="middle" x="3870.38" y="-3463.94" font-family="Times,serif" font-size="9.00" fill="lightgray">BarycentricForce&lt;7&gt;</text>
</g>
<!-- 18219438198209507952&#45;&gt;6923268465890841387 -->
<g id="edge57" class="edge">
<title>18219438198209507952&#45;&gt;6923268465890841387</title>
<path fill="none" stroke="#1b9e77" d="M3074.98,-3012.01C3058.31,-2997.52 2922.43,-2879.46 2801.18,-2774.11"/>
<polygon fill="#1b9e77" stroke="#1b9e77" points="2793.58,-2767.51 2804.08,-2770.67 2797.36,-2770.79 2801.13,-2774.07 2801.13,-2774.07 2801.13,-2774.07 2797.36,-2770.79 2798.18,-2777.46 2793.58,-2767.51 2793.58,-2767.51"/>
<text text-anchor="middle" x="2869.87" y="-2892.63" font-family="Times,serif" font-size="9.00" fill="lightgray">ActuatorAppliedForces&lt;7&gt;</text>
</g>
<!-- 10901010791771574459&#45;&gt;12731085354785306831 -->
<g id="edge59" class="edge">
<title>10901010791771574459&#45;&gt;12731085354785306831</title>
<path fill="none" stroke="#1b9e77" d="M1822.38,-708.23C1837.34,-739.18 2046.47,-1171.95 2102.5,-1287.89"/>
<polygon fill="#1b9e77" stroke="#1b9e77" points="2107,-1297.2 2098.59,-1290.16 2104.82,-1292.7 2102.65,-1288.2 2102.65,-1288.2 2102.65,-1288.2 2104.82,-1292.7 2106.7,-1286.24 2107,-1297.2 2107,-1297.2"/>
<text text-anchor="middle" x="1942.7" y="-1005.54" font-family="Times,serif" font-size="9.00" fill="lightgray">RBM&lt;1&gt;</text>
</g>
<!-- 17850338592001803333&#45;&gt;13456541555459239564 -->
<g id="edge62" class="edge">
<title>17850338592001803333&#45;&gt;13456541555459239564</title>
<path fill="none" stroke="#d95f02" d="M736.23,-1704.15C765.29,-1716.59 1147.66,-1880.36 1291.55,-1941.99"/>
<polygon fill="#d95f02" stroke="#d95f02" points="1301.09,-1946.07 1290.12,-1946.27 1296.49,-1944.1 1291.89,-1942.13 1291.89,-1942.13 1291.89,-1942.13 1296.49,-1944.1 1293.66,-1938 1301.09,-1946.07 1301.09,-1946.07"/>
<text text-anchor="middle" x="949.32" y="-1827.98" font-family="Times,serif" font-size="9.00" fill="lightgray">ActuatorCommandForces&lt;1&gt;</text>
</g>
<!-- 1560569834449579204&#45;&gt;17247103710083610990 -->
<g id="edge64" class="edge">
<title>1560569834449579204&#45;&gt;17247103710083610990</title>
<path fill="none" stroke="#1b9e77" d="M2344.67,-4466.46C2342.91,-4428.88 2318.13,-3897.61 2312,-3766.19"/>
<polygon fill="#1b9e77" stroke="#1b9e77" points="2311.53,-3756.07 2316.49,-3765.85 2311.76,-3761.07 2311.99,-3766.06 2311.99,-3766.06 2311.99,-3766.06 2311.76,-3761.07 2307.5,-3766.27 2311.53,-3756.07 2311.53,-3756.07"/>
<text text-anchor="middle" x="2306.09" y="-4113.98" font-family="Times,serif" font-size="9.00" fill="lightgray">RBM&lt;2&gt;</text>
</g>
<!-- 5173928062779297333&#45;&gt;12757732583399154715 -->
<g id="edge67" class="edge">
<title>5173928062779297333&#45;&gt;12757732583399154715</title>
<path fill="none" stroke="#d95f02" d="M2337.18,-634.48C2335.57,-669.02 2312.94,-1154.45 2307.09,-1279.87"/>
<polygon fill="#d95f02" stroke="#d95f02" points="2306.61,-1290.22 2302.58,-1280.02 2306.84,-1285.22 2307.07,-1280.23 2307.07,-1280.23 2307.07,-1280.23 2306.84,-1285.22 2311.57,-1280.44 2306.61,-1290.22 2306.61,-1290.22"/>
<text text-anchor="middle" x="2252.4" y="-965.03" font-family="Times,serif" font-size="9.00" fill="lightgray">ActuatorCommandForces&lt;2&gt;</text>
</g>
<!-- 16074485712335845093&#45;&gt;8394722738487995712 -->
<g id="edge69" class="edge">
<title>16074485712335845093&#45;&gt;8394722738487995712</title>
<path fill="none" stroke="#1b9e77" d="M1866.51,-4483.95C1880.26,-4453.23 2072.35,-4024.17 2124.16,-3908.42"/>
<polygon fill="#1b9e77" stroke="#1b9e77" points="2128.33,-3899.11 2128.35,-3910.08 2126.29,-3903.68 2124.24,-3908.24 2124.24,-3908.24 2124.24,-3908.24 2126.29,-3903.68 2120.14,-3906.4 2128.33,-3899.11 2128.33,-3899.11"/>
<text text-anchor="middle" x="1975.3" y="-4194.6" font-family="Times,serif" font-size="9.00" fill="lightgray">RBM&lt;3&gt;</text>
</g>
<!-- 4978143971295123632&#45;&gt;14050267932239083785 -->
<g id="edge72" class="edge">
<title>4978143971295123632&#45;&gt;14050267932239083785</title>
<path fill="none" stroke="#d95f02" d="M628.32,-3174.41C657,-3170.55 1007.42,-3123.32 1182.42,-3099.73"/>
<polygon fill="#d95f02" stroke="#d95f02" points="1192.41,-3098.38 1183.1,-3104.18 1187.45,-3099.05 1182.49,-3099.72 1182.49,-3099.72 1182.49,-3099.72 1187.45,-3099.05 1181.89,-3095.26 1192.41,-3098.38 1192.41,-3098.38"/>
<text text-anchor="middle" x="840.95" y="-3139.19" font-family="Times,serif" font-size="9.00" fill="lightgray">ActuatorCommandForces&lt;3&gt;</text>
</g>
<!-- 10381210061958966062&#45;&gt;15217189094916091562 -->
<g id="edge74" class="edge">
<title>10381210061958966062&#45;&gt;15217189094916091562</title>
<path fill="none" stroke="#1b9e77" d="M4553.92,-2252.61C4525.26,-2259.59 4169.76,-2346.17 4000.94,-2387.28"/>
<polygon fill="#1b9e77" stroke="#1b9e77" points="3991.08,-2389.69 3999.73,-2382.95 3995.94,-2388.5 4000.8,-2387.32 4000.8,-2387.32 4000.8,-2387.32 3995.94,-2388.5 4001.86,-2391.69 3991.08,-2389.69 3991.08,-2389.69"/>
<text text-anchor="middle" x="4250.28" y="-2324" font-family="Times,serif" font-size="9.00" fill="lightgray">RBM&lt;4&gt;</text>
</g>
<!-- 1220750975316630934&#45;&gt;7606381790494488192 -->
<g id="edge77" class="edge">
<title>1220750975316630934&#45;&gt;7606381790494488192</title>
<path fill="none" stroke="#d95f02" d="M3727.97,-977.08C3717.44,-1010.51 3569.62,-1479.81 3531.13,-1602.01"/>
<polygon fill="#d95f02" stroke="#d95f02" points="3528.05,-1611.79 3526.76,-1600.9 3529.55,-1607.02 3531.05,-1602.25 3531.05,-1602.25 3531.05,-1602.25 3529.55,-1607.02 3535.35,-1603.6 3528.05,-1611.79 3528.05,-1611.79"/>
<text text-anchor="middle" x="3558.48" y="-1297.33" font-family="Times,serif" font-size="9.00" fill="lightgray">ActuatorCommandForces&lt;4&gt;</text>
</g>
<!-- 13690209237385652781&#45;&gt;12840535852242017780 -->
<g id="edge79" class="edge">
<title>13690209237385652781&#45;&gt;12840535852242017780</title>
<path fill="none" stroke="#1b9e77" d="M1211.18,-4070.31C1236.07,-4048.01 1577.91,-3741.72 1680.59,-3649.72"/>
<polygon fill="#1b9e77" stroke="#1b9e77" points="1688.12,-3642.97 1683.68,-3653 1684.4,-3646.31 1680.67,-3649.65 1680.67,-3649.65 1680.67,-3649.65 1684.4,-3646.31 1677.67,-3646.3 1688.12,-3642.97 1688.12,-3642.97"/>
<text text-anchor="middle" x="1427.64" y="-3859.45" font-family="Times,serif" font-size="9.00" fill="lightgray">RBM&lt;6&gt;</text>
</g>
<!-- 2275214403196109054&#45;&gt;4971691102062873834 -->
<g id="edge82" class="edge">
<title>2275214403196109054&#45;&gt;4971691102062873834</title>
<path fill="none" stroke="#d95f02" d="M3538.74,-4358.72C3520.58,-4331.14 3268.21,-3947.96 3197.71,-3840.93"/>
<polygon fill="#d95f02" stroke="#d95f02" points="3192.2,-3832.57 3201.46,-3838.44 3194.95,-3836.74 3197.7,-3840.92 3197.7,-3840.92 3197.7,-3840.92 3194.95,-3836.74 3193.95,-3843.39 3192.2,-3832.57 3192.2,-3832.57"/>
<text text-anchor="middle" x="3296.04" y="-4098.55" font-family="Times,serif" font-size="9.00" fill="lightgray">ActuatorCommandForces&lt;6&gt;</text>
</g>
<!-- 17530534829934980672&#45;&gt;7029504328798252482 -->
<g id="edge84" class="edge">
<title>17530534829934980672&#45;&gt;7029504328798252482</title>
<path fill="none" stroke="#1b9e77" d="M680.8,-2102.7C711.16,-2105.68 1082.17,-2142.11 1267.26,-2160.28"/>
<polygon fill="#1b9e77" stroke="#1b9e77" points="1277.28,-2161.26 1266.89,-2164.76 1272.31,-2160.77 1267.33,-2160.29 1267.33,-2160.29 1267.33,-2160.29 1272.31,-2160.77 1267.77,-2155.81 1277.28,-2161.26 1277.28,-2161.26"/>
<text text-anchor="middle" x="956.73" y="-2134.75" font-family="Times,serif" font-size="9.00" fill="lightgray">RBM&lt;5&gt;</text>
</g>
<!-- 11762802769501662117&#45;&gt;11866810641491922280 -->
<g id="edge87" class="edge">
<title>11762802769501662117&#45;&gt;11866810641491922280</title>
<path fill="none" stroke="#d95f02" d="M3799.87,-1051.55C3772.2,-1070.34 3396.26,-1325.75 3276.18,-1407.33"/>
<polygon fill="#d95f02" stroke="#d95f02" points="3267.66,-1413.12 3273.4,-1403.78 3271.79,-1410.31 3275.93,-1407.5 3275.93,-1407.5 3275.93,-1407.5 3271.79,-1410.31 3278.46,-1411.22 3267.66,-1413.12 3267.66,-1413.12"/>
<text text-anchor="middle" x="3464.29" y="-1235.11" font-family="Times,serif" font-size="9.00" fill="lightgray">ActuatorCommandForces&lt;5&gt;</text>
</g>
<!-- 13423924940488150543&#45;&gt;5211479530975126942 -->
<g id="edge89" class="edge">
<title>13423924940488150543&#45;&gt;5211479530975126942</title>
<path fill="none" stroke="#1b9e77" d="M4557.98,-2904.66C4529.78,-2899.19 4188.93,-2833.12 4012.98,-2799.02"/>
<polygon fill="#1b9e77" stroke="#1b9e77" points="4002.92,-2797.07 4013.6,-2794.55 4007.83,-2798.02 4012.74,-2798.97 4012.74,-2798.97 4012.74,-2798.97 4007.83,-2798.02 4011.88,-2803.39 4002.92,-2797.07 4002.92,-2797.07"/>
<text text-anchor="middle" x="4258.43" y="-2853.66" font-family="Times,serif" font-size="9.00" fill="lightgray">RBM&lt;7&gt;</text>
</g>
<!-- 6728750169540037491&#45;&gt;13967629702428167562 -->
<g id="edge92" class="edge">
<title>6728750169540037491&#45;&gt;13967629702428167562</title>
<path fill="none" stroke="#d95f02" d="M4060.58,-3960.35C4037.66,-3936.83 3721.88,-3612.76 3628.87,-3517.3"/>
<polygon fill="#d95f02" stroke="#d95f02" points="3621.82,-3510.06 3632.02,-3514.08 3625.31,-3513.64 3628.79,-3517.22 3628.79,-3517.22 3628.79,-3517.22 3625.31,-3513.64 3625.57,-3520.37 3621.82,-3510.06 3621.82,-3510.06"/>
<text text-anchor="middle" x="3771.73" y="-3738.04" font-family="Times,serif" font-size="9.00" fill="lightgray">ActuatorCommandForces&lt;7&gt;</text>
</g>
</g>
</svg>
