<?xml version="1.0" encoding="UTF-8" standalone="no"?>
<!DOCTYPE svg PUBLIC "-//W3C//DTD SVG 1.1//EN"
 "http://www.w3.org/Graphics/SVG/1.1/DTD/svg11.dtd">
<!-- Generated by graphviz version 2.43.0 (0)
 -->
<!-- Title: G Pages: 1 -->
<svg width="4751pt" height="4740pt"
 viewBox="0.00 0.00 4751.14 4739.65" xmlns="http://www.w3.org/2000/svg" xmlns:xlink="http://www.w3.org/1999/xlink">
<g id="graph0" class="graph" transform="scale(1 1) rotate(0) translate(4 4735.65)">
<title>G</title>
<polygon fill="#3d3d3d" stroke="transparent" points="-4,4 -4,-4735.65 4747.14,-4735.65 4747.14,4 -4,4"/>
<!-- 6923268465890841387 -->
<g id="node1" class="node">
<title>6923268465890841387</title>
<path fill="lightgray" stroke="black" d="M2682.82,-2529.15C2682.82,-2529.15 2084.82,-2529.15 2084.82,-2529.15 2078.82,-2529.15 2072.82,-2523.15 2072.82,-2517.15 2072.82,-2517.15 2072.82,-2215.15 2072.82,-2215.15 2072.82,-2209.15 2078.82,-2203.15 2084.82,-2203.15 2084.82,-2203.15 2682.82,-2203.15 2682.82,-2203.15 2688.82,-2203.15 2694.82,-2209.15 2694.82,-2215.15 2694.82,-2215.15 2694.82,-2517.15 2694.82,-2517.15 2694.82,-2523.15 2688.82,-2529.15 2682.82,-2529.15"/>
<image xlink:href="fem.png" width="503px" height="326px" preserveAspectRatio="xMinYMin meet" x="2132.32" y="-2529.15"/>
<text text-anchor="middle" x="2383.82" y="-2517.95" font-family="Times,serif" font-size="14.00">GMT</text>
<text text-anchor="middle" x="2383.82" y="-2502.95" font-family="Times,serif" font-size="14.00"> &#160;&#160;&#160;Finite Element Model</text>
<text text-anchor="middle" x="2383.82" y="-2487.95" font-family="Times,serif" font-size="14.00"> &#160;&#160;&#160;/media/rconan/20230131_1605_zen_30_M1_202110_ASM_202208_Mount_202111/</text>
</g>
<!-- 17060268248001869314 -->
<g id="node38" class="node">
<title>17060268248001869314</title>
<ellipse fill="#3d3d3d" stroke="lightgray" cx="2745.12" cy="-2205.54" rx="1.8" ry="1.8"/>
</g>
<!-- 6923268465890841387&#45;&gt;17060268248001869314 -->
<g id="edge1" class="edge">
<title>6923268465890841387&#45;&gt;17060268248001869314</title>
<path fill="none" stroke="#1b9e77" stroke-width="2" d="M2694.88,-2227.87C2720.05,-2216.68 2737.99,-2208.71 2743.41,-2206.3"/>
</g>
<!-- 5185050415724242220 -->
<g id="node39" class="node">
<title>5185050415724242220</title>
<ellipse fill="#3d3d3d" stroke="lightgray" cx="2490.23" cy="-2765.04" rx="1.8" ry="1.8"/>
</g>
<!-- 6923268465890841387&#45;&gt;5185050415724242220 -->
<g id="edge2" class="edge">
<title>6923268465890841387&#45;&gt;5185050415724242220</title>
<path fill="none" stroke="#1b9e77" stroke-width="2" d="M2427.34,-2529.26C2454.67,-2631.74 2485.54,-2747.46 2489.75,-2763.23"/>
</g>
<!-- 12510606062659071544 -->
<g id="node40" class="node">
<title>12510606062659071544</title>
<ellipse fill="#3d3d3d" stroke="lightgray" cx="2510.67" cy="-1945.77" rx="1.8" ry="1.8"/>
</g>
<!-- 6923268465890841387&#45;&gt;12510606062659071544 -->
<g id="edge3" class="edge">
<title>6923268465890841387&#45;&gt;12510606062659071544</title>
<path fill="none" stroke="#1b9e77" stroke-width="2" d="M2433.05,-2203.02C2466.2,-2093.16 2504.8,-1965.22 2510.07,-1947.78"/>
</g>
<!-- 10569719447980019225 -->
<g id="node41" class="node">
<title>10569719447980019225</title>
<ellipse fill="#3d3d3d" stroke="lightgray" cx="2043.03" cy="-2367.35" rx="1.8" ry="1.8"/>
</g>
<!-- 6923268465890841387&#45;&gt;10569719447980019225 -->
<g id="edge4" class="edge">
<title>6923268465890841387&#45;&gt;10569719447980019225</title>
<path fill="none" stroke="#1b9e77" stroke-width="2" d="M2072.68,-2367.25C2058.88,-2367.3 2049.1,-2367.33 2045.08,-2367.35"/>
</g>
<!-- 17144408110511068227 -->
<g id="node42" class="node">
<title>17144408110511068227</title>
<ellipse fill="#3d3d3d" stroke="lightgray" cx="2757.05" cy="-2520.95" rx="1.8" ry="1.8"/>
</g>
<!-- 6923268465890841387&#45;&gt;17144408110511068227 -->
<g id="edge5" class="edge">
<title>6923268465890841387&#45;&gt;17144408110511068227</title>
<path fill="none" stroke="#1b9e77" stroke-width="2" d="M2695,-2495.22C2726.27,-2508.19 2748.95,-2517.59 2755.27,-2520.22"/>
</g>
<!-- 17378901314928794640 -->
<g id="node43" class="node">
<title>17378901314928794640</title>
<ellipse fill="#3d3d3d" stroke="lightgray" cx="2199.11" cy="-2654.37" rx="1.8" ry="1.8"/>
</g>
<!-- 6923268465890841387&#45;&gt;17378901314928794640 -->
<g id="edge6" class="edge">
<title>6923268465890841387&#45;&gt;17378901314928794640</title>
<path fill="none" stroke="#1b9e77" stroke-width="2" d="M2279.32,-2529.21C2241.44,-2588.31 2206.34,-2643.08 2200.09,-2652.83"/>
</g>
<!-- 17621401139099446208 -->
<g id="node44" class="node">
<title>17621401139099446208</title>
<ellipse fill="#3d3d3d" stroke="lightgray" cx="2056.73" cy="-2087.89" rx="1.8" ry="1.8"/>
</g>
<!-- 6923268465890841387&#45;&gt;17621401139099446208 -->
<g id="edge7" class="edge">
<title>6923268465890841387&#45;&gt;17621401139099446208</title>
<path fill="none" stroke="#1b9e77" stroke-width="2" d="M2192.13,-2203.08C2127.44,-2148.04 2068.8,-2098.16 2058.37,-2089.29"/>
</g>
<!-- 9695870857230867192 -->
<g id="node45" class="node">
<title>9695870857230867192</title>
<ellipse fill="#3d3d3d" stroke="lightgray" cx="2328.07" cy="-2003.85" rx="1.8" ry="1.8"/>
</g>
<!-- 6923268465890841387&#45;&gt;9695870857230867192 -->
<g id="edge8" class="edge">
<title>6923268465890841387&#45;&gt;9695870857230867192</title>
<path fill="none" stroke="#1b9e77" stroke-width="2" d="M2358.72,-2203.02C2345.08,-2114.36 2330.54,-2019.9 2328.36,-2005.68"/>
</g>
<!-- 8611624904136851065 -->
<g id="node2" class="node">
<title>8611624904136851065</title>
<path fill="lightgray" stroke="black" d="M2276.34,-1354.17C2276.34,-1354.17 2192.34,-1354.17 2192.34,-1354.17 2186.34,-1354.17 2180.34,-1348.17 2180.34,-1342.17 2180.34,-1342.17 2180.34,-1330.17 2180.34,-1330.17 2180.34,-1324.17 2186.34,-1318.17 2192.34,-1318.17 2192.34,-1318.17 2276.34,-1318.17 2276.34,-1318.17 2282.34,-1318.17 2288.34,-1324.17 2288.34,-1330.17 2288.34,-1330.17 2288.34,-1342.17 2288.34,-1342.17 2288.34,-1348.17 2282.34,-1354.17 2276.34,-1354.17"/>
<text text-anchor="middle" x="2234.34" y="-1332.47" font-family="Times,serif" font-size="14.00">Logging</text>
</g>
<!-- 12731085354785306831 -->
<g id="node3" class="node">
<title>12731085354785306831</title>
<path fill="lightgray" stroke="black" d="M3616.3,-2721.56C3616.3,-2721.56 3453.3,-2721.56 3453.3,-2721.56 3447.3,-2721.56 3441.3,-2715.56 3441.3,-2709.56 3441.3,-2709.56 3441.3,-2695.56 3441.3,-2695.56 3441.3,-2689.56 3447.3,-2683.56 3453.3,-2683.56 3453.3,-2683.56 3616.3,-2683.56 3616.3,-2683.56 3622.3,-2683.56 3628.3,-2689.56 3628.3,-2695.56 3628.3,-2695.56 3628.3,-2709.56 3628.3,-2709.56 3628.3,-2715.56 3622.3,-2721.56 3616.3,-2721.56"/>
<text text-anchor="middle" x="3534.8" y="-2706.36" font-family="Times,serif" font-size="14.00">M1S1</text>
<text text-anchor="middle" x="3534.8" y="-2691.36" font-family="Times,serif" font-size="14.00"> &#160;&#160;&#160;&#160;&#160;&#160;&#160;&#160;&#160;&#160;&#160;&#160;&#160;&#160;&#160;&#160;&#160;&#160;&#160;Hardpoints</text>
</g>
<!-- 13254462184774527690 -->
<g id="node46" class="node">
<title>13254462184774527690</title>
<ellipse fill="#3d3d3d" stroke="lightgray" cx="2963.87" cy="-2436.44" rx="1.8" ry="1.8"/>
</g>
<!-- 12731085354785306831&#45;&gt;13254462184774527690 -->
<g id="edge9" class="edge">
<title>12731085354785306831&#45;&gt;13254462184774527690</title>
<path fill="none" stroke="#1b9e77" d="M3493.74,-2683.43C3367.95,-2624.79 2994.63,-2450.78 2965.66,-2437.27"/>
</g>
<!-- 9817141177901842795 -->
<g id="node4" class="node">
<title>9817141177901842795</title>
<path fill="lightgray" stroke="black" d="M3448.07,-2068.01C3448.07,-2068.01 3299.07,-2068.01 3299.07,-2068.01 3293.07,-2068.01 3287.07,-2062.01 3287.07,-2056.01 3287.07,-2056.01 3287.07,-2042.01 3287.07,-2042.01 3287.07,-2036.01 3293.07,-2030.01 3299.07,-2030.01 3299.07,-2030.01 3448.07,-2030.01 3448.07,-2030.01 3454.07,-2030.01 3460.07,-2036.01 3460.07,-2042.01 3460.07,-2042.01 3460.07,-2056.01 3460.07,-2056.01 3460.07,-2062.01 3454.07,-2068.01 3448.07,-2068.01"/>
<text text-anchor="middle" x="3373.57" y="-2052.81" font-family="Times,serif" font-size="14.00">M1S1</text>
<text text-anchor="middle" x="3373.57" y="-2037.81" font-family="Times,serif" font-size="14.00"> &#160;&#160;&#160;&#160;&#160;&#160;&#160;&#160;&#160;&#160;&#160;&#160;&#160;&#160;&#160;&#160;&#160;&#160;&#160;Loadcells</text>
</g>
<!-- 13734935183375864922 -->
<g id="node47" class="node">
<title>13734935183375864922</title>
<ellipse fill="#3d3d3d" stroke="lightgray" cx="3821.68" cy="-1699.54" rx="1.8" ry="1.8"/>
</g>
<!-- 9817141177901842795&#45;&gt;13734935183375864922 -->
<g id="edge10" class="edge">
<title>9817141177901842795&#45;&gt;13734935183375864922</title>
<path fill="none" stroke="#d95f02" stroke-width="2" d="M3397.98,-2029.97C3487.84,-1959.89 3796.25,-1719.38 3820.2,-1700.7"/>
</g>
<!-- 13456541555459239564 -->
<g id="node5" class="node">
<title>13456541555459239564</title>
<path fill="lightgray" stroke="black" d="M3390.75,-1608.57C3390.75,-1608.57 3238.75,-1608.57 3238.75,-1608.57 3232.75,-1608.57 3226.75,-1602.57 3226.75,-1596.57 3226.75,-1596.57 3226.75,-1582.57 3226.75,-1582.57 3226.75,-1576.57 3232.75,-1570.57 3238.75,-1570.57 3238.75,-1570.57 3390.75,-1570.57 3390.75,-1570.57 3396.75,-1570.57 3402.75,-1576.57 3402.75,-1582.57 3402.75,-1582.57 3402.75,-1596.57 3402.75,-1596.57 3402.75,-1602.57 3396.75,-1608.57 3390.75,-1608.57"/>
<text text-anchor="middle" x="3314.75" y="-1593.37" font-family="Times,serif" font-size="14.00">M1S1</text>
<text text-anchor="middle" x="3314.75" y="-1578.37" font-family="Times,serif" font-size="14.00"> &#160;&#160;&#160;&#160;&#160;&#160;&#160;&#160;&#160;&#160;&#160;&#160;&#160;&#160;&#160;&#160;&#160;&#160;&#160;Actuators</text>
</g>
<!-- 16963285381156722616 -->
<g id="node48" class="node">
<title>16963285381156722616</title>
<ellipse fill="#3d3d3d" stroke="lightgray" cx="2819.34" cy="-2000.25" rx="1.8" ry="1.8"/>
</g>
<!-- 13456541555459239564&#45;&gt;16963285381156722616 -->
<g id="edge11" class="edge">
<title>13456541555459239564&#45;&gt;16963285381156722616</title>
<path fill="none" stroke="#1b9e77" d="M3291.52,-1608.83C3197.4,-1686.85 2848.16,-1976.36 2821.02,-1998.86"/>
</g>
<!-- 17247103710083610990 -->
<g id="node6" class="node">
<title>17247103710083610990</title>
<path fill="lightgray" stroke="black" d="M1407.2,-2840.44C1407.2,-2840.44 1244.2,-2840.44 1244.2,-2840.44 1238.2,-2840.44 1232.2,-2834.44 1232.2,-2828.44 1232.2,-2828.44 1232.2,-2814.44 1232.2,-2814.44 1232.2,-2808.44 1238.2,-2802.44 1244.2,-2802.44 1244.2,-2802.44 1407.2,-2802.44 1407.2,-2802.44 1413.2,-2802.44 1419.2,-2808.44 1419.2,-2814.44 1419.2,-2814.44 1419.2,-2828.44 1419.2,-2828.44 1419.2,-2834.44 1413.2,-2840.44 1407.2,-2840.44"/>
<text text-anchor="middle" x="1325.7" y="-2825.24" font-family="Times,serif" font-size="14.00">M1S2</text>
<text text-anchor="middle" x="1325.7" y="-2810.24" font-family="Times,serif" font-size="14.00"> &#160;&#160;&#160;&#160;&#160;&#160;&#160;&#160;&#160;&#160;&#160;&#160;&#160;&#160;&#160;&#160;&#160;&#160;&#160;Hardpoints</text>
</g>
<!-- 3266460364944529614 -->
<g id="node49" class="node">
<title>3266460364944529614</title>
<ellipse fill="#3d3d3d" stroke="lightgray" cx="2028.82" cy="-2767.22" rx="1.8" ry="1.8"/>
</g>
<!-- 17247103710083610990&#45;&gt;3266460364944529614 -->
<g id="edge12" class="edge">
<title>17247103710083610990&#45;&gt;3266460364944529614</title>
<path fill="none" stroke="#1b9e77" d="M1419.43,-2814.22C1603.38,-2800.03 1996.51,-2769.71 2026.95,-2767.36"/>
</g>
<!-- 12914288804457826028 -->
<g id="node7" class="node">
<title>12914288804457826028</title>
<path fill="lightgray" stroke="black" d="M2479.04,-3379.95C2479.04,-3379.95 2330.04,-3379.95 2330.04,-3379.95 2324.04,-3379.95 2318.04,-3373.95 2318.04,-3367.95 2318.04,-3367.95 2318.04,-3353.95 2318.04,-3353.95 2318.04,-3347.95 2324.04,-3341.95 2330.04,-3341.95 2330.04,-3341.95 2479.04,-3341.95 2479.04,-3341.95 2485.04,-3341.95 2491.04,-3347.95 2491.04,-3353.95 2491.04,-3353.95 2491.04,-3367.95 2491.04,-3367.95 2491.04,-3373.95 2485.04,-3379.95 2479.04,-3379.95"/>
<text text-anchor="middle" x="2404.54" y="-3364.75" font-family="Times,serif" font-size="14.00">M1S2</text>
<text text-anchor="middle" x="2404.54" y="-3349.75" font-family="Times,serif" font-size="14.00"> &#160;&#160;&#160;&#160;&#160;&#160;&#160;&#160;&#160;&#160;&#160;&#160;&#160;&#160;&#160;&#160;&#160;&#160;&#160;Loadcells</text>
</g>
<!-- 11229188983633792363 -->
<g id="node50" class="node">
<title>11229188983633792363</title>
<ellipse fill="#3d3d3d" stroke="lightgray" cx="2785.81" cy="-3837.63" rx="1.8" ry="1.8"/>
</g>
<!-- 12914288804457826028&#45;&gt;11229188983633792363 -->
<g id="edge13" class="edge">
<title>12914288804457826028&#45;&gt;11229188983633792363</title>
<path fill="none" stroke="#d95f02" stroke-width="2" d="M2419.96,-3380.22C2488.5,-3465.92 2763.14,-3809.29 2784.5,-3835.99"/>
</g>
<!-- 12757732583399154715 -->
<g id="node8" class="node">
<title>12757732583399154715</title>
<path fill="lightgray" stroke="black" d="M3182.1,-3354.32C3182.1,-3354.32 3030.1,-3354.32 3030.1,-3354.32 3024.1,-3354.32 3018.1,-3348.32 3018.1,-3342.32 3018.1,-3342.32 3018.1,-3328.32 3018.1,-3328.32 3018.1,-3322.32 3024.1,-3316.32 3030.1,-3316.32 3030.1,-3316.32 3182.1,-3316.32 3182.1,-3316.32 3188.1,-3316.32 3194.1,-3322.32 3194.1,-3328.32 3194.1,-3328.32 3194.1,-3342.32 3194.1,-3342.32 3194.1,-3348.32 3188.1,-3354.32 3182.1,-3354.32"/>
<text text-anchor="middle" x="3106.1" y="-3339.12" font-family="Times,serif" font-size="14.00">M1S2</text>
<text text-anchor="middle" x="3106.1" y="-3324.12" font-family="Times,serif" font-size="14.00"> &#160;&#160;&#160;&#160;&#160;&#160;&#160;&#160;&#160;&#160;&#160;&#160;&#160;&#160;&#160;&#160;&#160;&#160;&#160;Actuators</text>
</g>
<!-- 15628350407256098675 -->
<g id="node51" class="node">
<title>15628350407256098675</title>
<ellipse fill="#3d3d3d" stroke="lightgray" cx="2687.6" cy="-2832.18" rx="1.8" ry="1.8"/>
</g>
<!-- 12757732583399154715&#45;&gt;15628350407256098675 -->
<g id="edge14" class="edge">
<title>12757732583399154715&#45;&gt;15628350407256098675</title>
<path fill="none" stroke="#1b9e77" d="M3090.21,-3316.21C3016.45,-3227.54 2710.22,-2859.38 2688.78,-2833.61"/>
</g>
<!-- 8394722738487995712 -->
<g id="node9" class="node">
<title>8394722738487995712</title>
<path fill="lightgray" stroke="black" d="M3066.02,-1331.48C3066.02,-1331.48 2903.02,-1331.48 2903.02,-1331.48 2897.02,-1331.48 2891.02,-1325.48 2891.02,-1319.48 2891.02,-1319.48 2891.02,-1305.48 2891.02,-1305.48 2891.02,-1299.48 2897.02,-1293.48 2903.02,-1293.48 2903.02,-1293.48 3066.02,-1293.48 3066.02,-1293.48 3072.02,-1293.48 3078.02,-1299.48 3078.02,-1305.48 3078.02,-1305.48 3078.02,-1319.48 3078.02,-1319.48 3078.02,-1325.48 3072.02,-1331.48 3066.02,-1331.48"/>
<text text-anchor="middle" x="2984.52" y="-1316.28" font-family="Times,serif" font-size="14.00">M1S3</text>
<text text-anchor="middle" x="2984.52" y="-1301.28" font-family="Times,serif" font-size="14.00"> &#160;&#160;&#160;&#160;&#160;&#160;&#160;&#160;&#160;&#160;&#160;&#160;&#160;&#160;&#160;&#160;&#160;&#160;&#160;Hardpoints</text>
</g>
<!-- 16660014027615126763 -->
<g id="node52" class="node">
<title>16660014027615126763</title>
<ellipse fill="#3d3d3d" stroke="lightgray" cx="2630.52" cy="-1810.79" rx="1.8" ry="1.8"/>
</g>
<!-- 8394722738487995712&#45;&gt;16660014027615126763 -->
<g id="edge15" class="edge">
<title>8394722738487995712&#45;&gt;16660014027615126763</title>
<path fill="none" stroke="#1b9e77" d="M2970.86,-1331.71C2908.34,-1419.71 2651.71,-1780.97 2631.75,-1809.06"/>
</g>
<!-- 12367018580917085300 -->
<g id="node10" class="node">
<title>12367018580917085300</title>
<path fill="lightgray" stroke="black" d="M2696.57,-1331.69C2696.57,-1331.69 2547.57,-1331.69 2547.57,-1331.69 2541.57,-1331.69 2535.57,-1325.69 2535.57,-1319.69 2535.57,-1319.69 2535.57,-1305.69 2535.57,-1305.69 2535.57,-1299.69 2541.57,-1293.69 2547.57,-1293.69 2547.57,-1293.69 2696.57,-1293.69 2696.57,-1293.69 2702.57,-1293.69 2708.57,-1299.69 2708.57,-1305.69 2708.57,-1305.69 2708.57,-1319.69 2708.57,-1319.69 2708.57,-1325.69 2702.57,-1331.69 2696.57,-1331.69"/>
<text text-anchor="middle" x="2622.07" y="-1316.49" font-family="Times,serif" font-size="14.00">M1S3</text>
<text text-anchor="middle" x="2622.07" y="-1301.49" font-family="Times,serif" font-size="14.00"> &#160;&#160;&#160;&#160;&#160;&#160;&#160;&#160;&#160;&#160;&#160;&#160;&#160;&#160;&#160;&#160;&#160;&#160;&#160;Loadcells</text>
</g>
<!-- 12231861257859185698 -->
<g id="node53" class="node">
<title>12231861257859185698</title>
<ellipse fill="#3d3d3d" stroke="lightgray" cx="2567.48" cy="-752.79" rx="1.8" ry="1.8"/>
</g>
<!-- 12367018580917085300&#45;&gt;12231861257859185698 -->
<g id="edge16" class="edge">
<title>12367018580917085300&#45;&gt;12231861257859185698</title>
<path fill="none" stroke="#d95f02" stroke-width="2" d="M2620.19,-1293.41C2610.97,-1198.81 2570.8,-786.81 2567.67,-754.77"/>
</g>
<!-- 14050267932239083785 -->
<g id="node11" class="node">
<title>14050267932239083785</title>
<path fill="lightgray" stroke="black" d="M2287.63,-1145.87C2287.63,-1145.87 2135.63,-1145.87 2135.63,-1145.87 2129.63,-1145.87 2123.63,-1139.87 2123.63,-1133.87 2123.63,-1133.87 2123.63,-1119.87 2123.63,-1119.87 2123.63,-1113.87 2129.63,-1107.87 2135.63,-1107.87 2135.63,-1107.87 2287.63,-1107.87 2287.63,-1107.87 2293.63,-1107.87 2299.63,-1113.87 2299.63,-1119.87 2299.63,-1119.87 2299.63,-1133.87 2299.63,-1133.87 2299.63,-1139.87 2293.63,-1145.87 2287.63,-1145.87"/>
<text text-anchor="middle" x="2211.63" y="-1130.67" font-family="Times,serif" font-size="14.00">M1S3</text>
<text text-anchor="middle" x="2211.63" y="-1115.67" font-family="Times,serif" font-size="14.00"> &#160;&#160;&#160;&#160;&#160;&#160;&#160;&#160;&#160;&#160;&#160;&#160;&#160;&#160;&#160;&#160;&#160;&#160;&#160;Actuators</text>
</g>
<!-- 4540907197014273973 -->
<g id="node54" class="node">
<title>4540907197014273973</title>
<ellipse fill="#3d3d3d" stroke="lightgray" cx="2301.82" cy="-1779.12" rx="1.8" ry="1.8"/>
</g>
<!-- 14050267932239083785&#45;&gt;4540907197014273973 -->
<g id="edge17" class="edge">
<title>14050267932239083785&#45;&gt;4540907197014273973</title>
<path fill="none" stroke="#1b9e77" d="M2222.72,-1146.09C2241.18,-1179.26 2277.55,-1249.93 2291.54,-1314.97 2332.74,-1506.45 2304.99,-1752.62 2302.07,-1777.13"/>
</g>
<!-- 15217189094916091562 -->
<g id="node12" class="node">
<title>15217189094916091562</title>
<path fill="lightgray" stroke="black" d="M2255.87,-3539.74C2255.87,-3539.74 2092.87,-3539.74 2092.87,-3539.74 2086.87,-3539.74 2080.87,-3533.74 2080.87,-3527.74 2080.87,-3527.74 2080.87,-3513.74 2080.87,-3513.74 2080.87,-3507.74 2086.87,-3501.74 2092.87,-3501.74 2092.87,-3501.74 2255.87,-3501.74 2255.87,-3501.74 2261.87,-3501.74 2267.87,-3507.74 2267.87,-3513.74 2267.87,-3513.74 2267.87,-3527.74 2267.87,-3527.74 2267.87,-3533.74 2261.87,-3539.74 2255.87,-3539.74"/>
<text text-anchor="middle" x="2174.37" y="-3524.54" font-family="Times,serif" font-size="14.00">M1S4</text>
<text text-anchor="middle" x="2174.37" y="-3509.54" font-family="Times,serif" font-size="14.00"> &#160;&#160;&#160;&#160;&#160;&#160;&#160;&#160;&#160;&#160;&#160;&#160;&#160;&#160;&#160;&#160;&#160;&#160;&#160;Hardpoints</text>
</g>
<!-- 12395115991920806803 -->
<g id="node55" class="node">
<title>12395115991920806803</title>
<ellipse fill="#3d3d3d" stroke="lightgray" cx="2131.34" cy="-2842.79" rx="1.8" ry="1.8"/>
</g>
<!-- 15217189094916091562&#45;&gt;12395115991920806803 -->
<g id="edge18" class="edge">
<title>15217189094916091562&#45;&gt;12395115991920806803</title>
<path fill="none" stroke="#1b9e77" d="M2173.16,-3501.54C2166.4,-3395.09 2133.75,-2880.81 2131.47,-2844.78"/>
</g>
<!-- 253783876682516454 -->
<g id="node13" class="node">
<title>253783876682516454</title>
<path fill="lightgray" stroke="black" d="M1538.7,-2619.23C1538.7,-2619.23 1389.7,-2619.23 1389.7,-2619.23 1383.7,-2619.23 1377.7,-2613.23 1377.7,-2607.23 1377.7,-2607.23 1377.7,-2593.23 1377.7,-2593.23 1377.7,-2587.23 1383.7,-2581.23 1389.7,-2581.23 1389.7,-2581.23 1538.7,-2581.23 1538.7,-2581.23 1544.7,-2581.23 1550.7,-2587.23 1550.7,-2593.23 1550.7,-2593.23 1550.7,-2607.23 1550.7,-2607.23 1550.7,-2613.23 1544.7,-2619.23 1538.7,-2619.23"/>
<text text-anchor="middle" x="1464.2" y="-2604.03" font-family="Times,serif" font-size="14.00">M1S4</text>
<text text-anchor="middle" x="1464.2" y="-2589.03" font-family="Times,serif" font-size="14.00"> &#160;&#160;&#160;&#160;&#160;&#160;&#160;&#160;&#160;&#160;&#160;&#160;&#160;&#160;&#160;&#160;&#160;&#160;&#160;Loadcells</text>
</g>
<!-- 6412797464805006005 -->
<g id="node56" class="node">
<title>6412797464805006005</title>
<ellipse fill="#3d3d3d" stroke="lightgray" cx="875.64" cy="-2244.76" rx="1.8" ry="1.8"/>
</g>
<!-- 253783876682516454&#45;&gt;6412797464805006005 -->
<g id="edge19" class="edge">
<title>253783876682516454&#45;&gt;6412797464805006005</title>
<path fill="none" stroke="#d95f02" stroke-width="2" d="M1432.55,-2581.12C1314.6,-2509.88 905.82,-2262.98 877.22,-2245.71"/>
</g>
<!-- 7606381790494488192 -->
<g id="node14" class="node">
<title>7606381790494488192</title>
<path fill="lightgray" stroke="black" d="M1322.98,-1882.85C1322.98,-1882.85 1170.98,-1882.85 1170.98,-1882.85 1164.98,-1882.85 1158.98,-1876.85 1158.98,-1870.85 1158.98,-1870.85 1158.98,-1856.85 1158.98,-1856.85 1158.98,-1850.85 1164.98,-1844.85 1170.98,-1844.85 1170.98,-1844.85 1322.98,-1844.85 1322.98,-1844.85 1328.98,-1844.85 1334.98,-1850.85 1334.98,-1856.85 1334.98,-1856.85 1334.98,-1870.85 1334.98,-1870.85 1334.98,-1876.85 1328.98,-1882.85 1322.98,-1882.85"/>
<text text-anchor="middle" x="1246.98" y="-1867.65" font-family="Times,serif" font-size="14.00">M1S4</text>
<text text-anchor="middle" x="1246.98" y="-1852.65" font-family="Times,serif" font-size="14.00"> &#160;&#160;&#160;&#160;&#160;&#160;&#160;&#160;&#160;&#160;&#160;&#160;&#160;&#160;&#160;&#160;&#160;&#160;&#160;Actuators</text>
</g>
<!-- 4941318742070416173 -->
<g id="node57" class="node">
<title>4941318742070416173</title>
<ellipse fill="#3d3d3d" stroke="lightgray" cx="1860.3" cy="-2091.92" rx="1.8" ry="1.8"/>
</g>
<!-- 7606381790494488192&#45;&gt;4941318742070416173 -->
<g id="edge20" class="edge">
<title>7606381790494488192&#45;&gt;4941318742070416173</title>
<path fill="none" stroke="#1b9e77" d="M1298.21,-1882.9C1439.86,-1935.58 1828.31,-2080.02 1858.44,-2091.23"/>
</g>
<!-- 12840535852242017780 -->
<g id="node15" class="node">
<title>12840535852242017780</title>
<path fill="lightgray" stroke="black" d="M3096.34,-3400.32C3096.34,-3400.32 2933.34,-3400.32 2933.34,-3400.32 2927.34,-3400.32 2921.34,-3394.32 2921.34,-3388.32 2921.34,-3388.32 2921.34,-3374.32 2921.34,-3374.32 2921.34,-3368.32 2927.34,-3362.32 2933.34,-3362.32 2933.34,-3362.32 3096.34,-3362.32 3096.34,-3362.32 3102.34,-3362.32 3108.34,-3368.32 3108.34,-3374.32 3108.34,-3374.32 3108.34,-3388.32 3108.34,-3388.32 3108.34,-3394.32 3102.34,-3400.32 3096.34,-3400.32"/>
<text text-anchor="middle" x="3014.84" y="-3385.12" font-family="Times,serif" font-size="14.00">M1S6</text>
<text text-anchor="middle" x="3014.84" y="-3370.12" font-family="Times,serif" font-size="14.00"> &#160;&#160;&#160;&#160;&#160;&#160;&#160;&#160;&#160;&#160;&#160;&#160;&#160;&#160;&#160;&#160;&#160;&#160;&#160;Hardpoints</text>
</g>
<!-- 14480343811691284513 -->
<g id="node58" class="node">
<title>14480343811691284513</title>
<ellipse fill="#3d3d3d" stroke="lightgray" cx="2823.19" cy="-2769.65" rx="1.8" ry="1.8"/>
</g>
<!-- 12840535852242017780&#45;&gt;14480343811691284513 -->
<g id="edge21" class="edge">
<title>12840535852242017780&#45;&gt;14480343811691284513</title>
<path fill="none" stroke="#1b9e77" d="M3008.79,-3362C2977.36,-3261.69 2833.8,-2803.51 2823.75,-2771.42"/>
</g>
<!-- 4596463053101681754 -->
<g id="node16" class="node">
<title>4596463053101681754</title>
<path fill="lightgray" stroke="black" d="M3421.05,-2807.68C3421.05,-2807.68 3272.05,-2807.68 3272.05,-2807.68 3266.05,-2807.68 3260.05,-2801.68 3260.05,-2795.68 3260.05,-2795.68 3260.05,-2781.68 3260.05,-2781.68 3260.05,-2775.68 3266.05,-2769.68 3272.05,-2769.68 3272.05,-2769.68 3421.05,-2769.68 3421.05,-2769.68 3427.05,-2769.68 3433.05,-2775.68 3433.05,-2781.68 3433.05,-2781.68 3433.05,-2795.68 3433.05,-2795.68 3433.05,-2801.68 3427.05,-2807.68 3421.05,-2807.68"/>
<text text-anchor="middle" x="3346.55" y="-2792.48" font-family="Times,serif" font-size="14.00">M1S6</text>
<text text-anchor="middle" x="3346.55" y="-2777.48" font-family="Times,serif" font-size="14.00"> &#160;&#160;&#160;&#160;&#160;&#160;&#160;&#160;&#160;&#160;&#160;&#160;&#160;&#160;&#160;&#160;&#160;&#160;&#160;Loadcells</text>
</g>
<!-- 3400305328334063720 -->
<g id="node59" class="node">
<title>3400305328334063720</title>
<ellipse fill="#3d3d3d" stroke="lightgray" cx="3930.06" cy="-2664.56" rx="1.8" ry="1.8"/>
</g>
<!-- 4596463053101681754&#45;&gt;3400305328334063720 -->
<g id="edge22" class="edge">
<title>4596463053101681754&#45;&gt;3400305328334063720</title>
<path fill="none" stroke="#d95f02" stroke-width="2" d="M3433.27,-2770.23C3588.84,-2737.14 3901.65,-2670.61 3928.24,-2664.95"/>
</g>
<!-- 4971691102062873834 -->
<g id="node17" class="node">
<title>4971691102062873834</title>
<path fill="lightgray" stroke="black" d="M3664.28,-2265.43C3664.28,-2265.43 3512.28,-2265.43 3512.28,-2265.43 3506.28,-2265.43 3500.28,-2259.43 3500.28,-2253.43 3500.28,-2253.43 3500.28,-2239.43 3500.28,-2239.43 3500.28,-2233.43 3506.28,-2227.43 3512.28,-2227.43 3512.28,-2227.43 3664.28,-2227.43 3664.28,-2227.43 3670.28,-2227.43 3676.28,-2233.43 3676.28,-2239.43 3676.28,-2239.43 3676.28,-2253.43 3676.28,-2253.43 3676.28,-2259.43 3670.28,-2265.43 3664.28,-2265.43"/>
<text text-anchor="middle" x="3588.28" y="-2250.23" font-family="Times,serif" font-size="14.00">M1S6</text>
<text text-anchor="middle" x="3588.28" y="-2235.23" font-family="Times,serif" font-size="14.00"> &#160;&#160;&#160;&#160;&#160;&#160;&#160;&#160;&#160;&#160;&#160;&#160;&#160;&#160;&#160;&#160;&#160;&#160;&#160;Actuators</text>
</g>
<!-- 14571155803125052809 -->
<g id="node60" class="node">
<title>14571155803125052809</title>
<ellipse fill="#3d3d3d" stroke="lightgray" cx="2931.6" cy="-2272.52" rx="1.8" ry="1.8"/>
</g>
<!-- 4971691102062873834&#45;&gt;14571155803125052809 -->
<g id="edge23" class="edge">
<title>4971691102062873834&#45;&gt;14571155803125052809</title>
<path fill="none" stroke="#1b9e77" d="M3500.06,-2249.94C3328.66,-2256.75 2964.68,-2271.21 2933.71,-2272.44"/>
</g>
<!-- 7029504328798252482 -->
<g id="node18" class="node">
<title>7029504328798252482</title>
<path fill="lightgray" stroke="black" d="M1268.59,-2586.95C1268.59,-2586.95 1105.59,-2586.95 1105.59,-2586.95 1099.59,-2586.95 1093.59,-2580.95 1093.59,-2574.95 1093.59,-2574.95 1093.59,-2560.95 1093.59,-2560.95 1093.59,-2554.95 1099.59,-2548.95 1105.59,-2548.95 1105.59,-2548.95 1268.59,-2548.95 1268.59,-2548.95 1274.59,-2548.95 1280.59,-2554.95 1280.59,-2560.95 1280.59,-2560.95 1280.59,-2574.95 1280.59,-2574.95 1280.59,-2580.95 1274.59,-2586.95 1268.59,-2586.95"/>
<text text-anchor="middle" x="1187.09" y="-2571.75" font-family="Times,serif" font-size="14.00">M1S5</text>
<text text-anchor="middle" x="1187.09" y="-2556.75" font-family="Times,serif" font-size="14.00"> &#160;&#160;&#160;&#160;&#160;&#160;&#160;&#160;&#160;&#160;&#160;&#160;&#160;&#160;&#160;&#160;&#160;&#160;&#160;Hardpoints</text>
</g>
<!-- 3866450572919949294 -->
<g id="node61" class="node">
<title>3866450572919949294</title>
<ellipse fill="#3d3d3d" stroke="lightgray" cx="1859.42" cy="-2603.28" rx="1.8" ry="1.8"/>
</g>
<!-- 7029504328798252482&#45;&gt;3866450572919949294 -->
<g id="edge24" class="edge">
<title>7029504328798252482&#45;&gt;3866450572919949294</title>
<path fill="none" stroke="#1b9e77" d="M1280.62,-2569.11C1354.78,-2570.36 1461.03,-2572.92 1553.9,-2578.03 1681.44,-2585.05 1838.37,-2601.1 1857.48,-2603.08"/>
</g>
<!-- 17837599286913035225 -->
<g id="node19" class="node">
<title>17837599286913035225</title>
<path fill="lightgray" stroke="black" d="M1776.08,-3187.62C1776.08,-3187.62 1627.08,-3187.62 1627.08,-3187.62 1621.08,-3187.62 1615.08,-3181.62 1615.08,-3175.62 1615.08,-3175.62 1615.08,-3161.62 1615.08,-3161.62 1615.08,-3155.62 1621.08,-3149.62 1627.08,-3149.62 1627.08,-3149.62 1776.08,-3149.62 1776.08,-3149.62 1782.08,-3149.62 1788.08,-3155.62 1788.08,-3161.62 1788.08,-3161.62 1788.08,-3175.62 1788.08,-3175.62 1788.08,-3181.62 1782.08,-3187.62 1776.08,-3187.62"/>
<text text-anchor="middle" x="1701.58" y="-3172.42" font-family="Times,serif" font-size="14.00">M1S5</text>
<text text-anchor="middle" x="1701.58" y="-3157.42" font-family="Times,serif" font-size="14.00"> &#160;&#160;&#160;&#160;&#160;&#160;&#160;&#160;&#160;&#160;&#160;&#160;&#160;&#160;&#160;&#160;&#160;&#160;&#160;Loadcells</text>
</g>
<!-- 18083880317815061432 -->
<g id="node62" class="node">
<title>18083880317815061432</title>
<ellipse fill="#3d3d3d" stroke="lightgray" cx="1468.82" cy="-3701.74" rx="1.8" ry="1.8"/>
</g>
<!-- 17837599286913035225&#45;&gt;18083880317815061432 -->
<g id="edge25" class="edge">
<title>17837599286913035225&#45;&gt;18083880317815061432</title>
<path fill="none" stroke="#d95f02" stroke-width="2" d="M1693.16,-3187.9C1653.06,-3279.75 1482.87,-3669.56 1469.64,-3699.87"/>
</g>
<!-- 11866810641491922280 -->
<g id="node20" class="node">
<title>11866810641491922280</title>
<path fill="lightgray" stroke="black" d="M2044.05,-3570.34C2044.05,-3570.34 1892.05,-3570.34 1892.05,-3570.34 1886.05,-3570.34 1880.05,-3564.34 1880.05,-3558.34 1880.05,-3558.34 1880.05,-3544.34 1880.05,-3544.34 1880.05,-3538.34 1886.05,-3532.34 1892.05,-3532.34 1892.05,-3532.34 2044.05,-3532.34 2044.05,-3532.34 2050.05,-3532.34 2056.05,-3538.34 2056.05,-3544.34 2056.05,-3544.34 2056.05,-3558.34 2056.05,-3558.34 2056.05,-3564.34 2050.05,-3570.34 2044.05,-3570.34"/>
<text text-anchor="middle" x="1968.05" y="-3555.14" font-family="Times,serif" font-size="14.00">M1S5</text>
<text text-anchor="middle" x="1968.05" y="-3540.14" font-family="Times,serif" font-size="14.00"> &#160;&#160;&#160;&#160;&#160;&#160;&#160;&#160;&#160;&#160;&#160;&#160;&#160;&#160;&#160;&#160;&#160;&#160;&#160;Actuators</text>
</g>
<!-- 6099127760367114275 -->
<g id="node63" class="node">
<title>6099127760367114275</title>
<ellipse fill="#3d3d3d" stroke="lightgray" cx="2303.51" cy="-2948.17" rx="1.8" ry="1.8"/>
</g>
<!-- 11866810641491922280&#45;&gt;6099127760367114275 -->
<g id="edge26" class="edge">
<title>11866810641491922280&#45;&gt;6099127760367114275</title>
<path fill="none" stroke="#1b9e77" d="M1978.65,-3532.29C2033.66,-3433.37 2284.94,-2981.56 2302.54,-2949.91"/>
</g>
<!-- 5211479530975126942 -->
<g id="node21" class="node">
<title>5211479530975126942</title>
<path fill="lightgray" stroke="black" d="M1418.01,-2946.99C1418.01,-2946.99 1255.01,-2946.99 1255.01,-2946.99 1249.01,-2946.99 1243.01,-2940.99 1243.01,-2934.99 1243.01,-2934.99 1243.01,-2920.99 1243.01,-2920.99 1243.01,-2914.99 1249.01,-2908.99 1255.01,-2908.99 1255.01,-2908.99 1418.01,-2908.99 1418.01,-2908.99 1424.01,-2908.99 1430.01,-2914.99 1430.01,-2920.99 1430.01,-2920.99 1430.01,-2934.99 1430.01,-2934.99 1430.01,-2940.99 1424.01,-2946.99 1418.01,-2946.99"/>
<text text-anchor="middle" x="1336.51" y="-2931.79" font-family="Times,serif" font-size="14.00">M1S7</text>
<text text-anchor="middle" x="1336.51" y="-2916.79" font-family="Times,serif" font-size="14.00"> &#160;&#160;&#160;&#160;&#160;&#160;&#160;&#160;&#160;&#160;&#160;&#160;&#160;&#160;&#160;&#160;&#160;&#160;&#160;Hardpoints</text>
</g>
<!-- 5194074664784390226 -->
<g id="node64" class="node">
<title>5194074664784390226</title>
<ellipse fill="#3d3d3d" stroke="lightgray" cx="1812.59" cy="-2359.75" rx="1.8" ry="1.8"/>
</g>
<!-- 5211479530975126942&#45;&gt;5194074664784390226 -->
<g id="edge27" class="edge">
<title>5211479530975126942&#45;&gt;5194074664784390226</title>
<path fill="none" stroke="#1b9e77" d="M1357.31,-2908.86C1375.13,-2892.17 1401.2,-2867.02 1422.4,-2843.64 1600,-2647.77 1795.04,-2383.61 1811.48,-2361.27"/>
</g>
<!-- 16759380960328700133 -->
<g id="node22" class="node">
<title>16759380960328700133</title>
<path fill="lightgray" stroke="black" d="M1548.96,-1873.03C1548.96,-1873.03 1399.96,-1873.03 1399.96,-1873.03 1393.96,-1873.03 1387.96,-1867.03 1387.96,-1861.03 1387.96,-1861.03 1387.96,-1847.03 1387.96,-1847.03 1387.96,-1841.03 1393.96,-1835.03 1399.96,-1835.03 1399.96,-1835.03 1548.96,-1835.03 1548.96,-1835.03 1554.96,-1835.03 1560.96,-1841.03 1560.96,-1847.03 1560.96,-1847.03 1560.96,-1861.03 1560.96,-1861.03 1560.96,-1867.03 1554.96,-1873.03 1548.96,-1873.03"/>
<text text-anchor="middle" x="1474.46" y="-1857.83" font-family="Times,serif" font-size="14.00">M1S7</text>
<text text-anchor="middle" x="1474.46" y="-1842.83" font-family="Times,serif" font-size="14.00"> &#160;&#160;&#160;&#160;&#160;&#160;&#160;&#160;&#160;&#160;&#160;&#160;&#160;&#160;&#160;&#160;&#160;&#160;&#160;Loadcells</text>
</g>
<!-- 17455302710639134042 -->
<g id="node65" class="node">
<title>17455302710639134042</title>
<ellipse fill="#3d3d3d" stroke="lightgray" cx="1147.08" cy="-1366.49" rx="1.8" ry="1.8"/>
</g>
<!-- 16759380960328700133&#45;&gt;17455302710639134042 -->
<g id="edge28" class="edge">
<title>16759380960328700133&#45;&gt;17455302710639134042</title>
<path fill="none" stroke="#d95f02" stroke-width="2" d="M1461.62,-1834.92C1403.46,-1748.3 1166.63,-1395.6 1148.22,-1368.18"/>
</g>
<!-- 13967629702428167562 -->
<g id="node23" class="node">
<title>13967629702428167562</title>
<path fill="lightgray" stroke="black" d="M1746.53,-1366.93C1746.53,-1366.93 1594.53,-1366.93 1594.53,-1366.93 1588.53,-1366.93 1582.53,-1360.93 1582.53,-1354.93 1582.53,-1354.93 1582.53,-1340.93 1582.53,-1340.93 1582.53,-1334.93 1588.53,-1328.93 1594.53,-1328.93 1594.53,-1328.93 1746.53,-1328.93 1746.53,-1328.93 1752.53,-1328.93 1758.53,-1334.93 1758.53,-1340.93 1758.53,-1340.93 1758.53,-1354.93 1758.53,-1354.93 1758.53,-1360.93 1752.53,-1366.93 1746.53,-1366.93"/>
<text text-anchor="middle" x="1670.53" y="-1351.73" font-family="Times,serif" font-size="14.00">M1S7</text>
<text text-anchor="middle" x="1670.53" y="-1336.73" font-family="Times,serif" font-size="14.00"> &#160;&#160;&#160;&#160;&#160;&#160;&#160;&#160;&#160;&#160;&#160;&#160;&#160;&#160;&#160;&#160;&#160;&#160;&#160;Actuators</text>
</g>
<!-- 18219438198209507952 -->
<g id="node66" class="node">
<title>18219438198209507952</title>
<ellipse fill="#3d3d3d" stroke="lightgray" cx="2046.78" cy="-1868.2" rx="1.8" ry="1.8"/>
</g>
<!-- 13967629702428167562&#45;&gt;18219438198209507952 -->
<g id="edge29" class="edge">
<title>13967629702428167562&#45;&gt;18219438198209507952</title>
<path fill="none" stroke="#1b9e77" d="M1684.36,-1367.06C1749.86,-1457.63 2026.35,-1839.95 2045.71,-1866.72"/>
</g>
<!-- 11763641791469948013 -->
<g id="node24" class="node">
<title>11763641791469948013</title>
<path fill="lightgray" stroke="black" d="M4662.86,-3113.75C4662.86,-3113.75 4578.86,-3113.75 4578.86,-3113.75 4572.86,-3113.75 4566.86,-3107.75 4566.86,-3101.75 4566.86,-3101.75 4566.86,-3089.75 4566.86,-3089.75 4566.86,-3083.75 4572.86,-3077.75 4578.86,-3077.75 4578.86,-3077.75 4662.86,-3077.75 4662.86,-3077.75 4668.86,-3077.75 4674.86,-3083.75 4674.86,-3089.75 4674.86,-3089.75 4674.86,-3101.75 4674.86,-3101.75 4674.86,-3107.75 4668.86,-3113.75 4662.86,-3113.75"/>
<text text-anchor="middle" x="4620.86" y="-3092.05" font-family="Times,serif" font-size="14.00">Signals</text>
</g>
<!-- 10901010791771574459 -->
<g id="node67" class="node">
<title>10901010791771574459</title>
<ellipse fill="#3d3d3d" stroke="lightgray" cx="4098.46" cy="-2928.22" rx="1.8" ry="1.8"/>
</g>
<!-- 11763641791469948013&#45;&gt;10901010791771574459 -->
<g id="edge30" class="edge">
<title>11763641791469948013&#45;&gt;10901010791771574459</title>
<path fill="none" stroke="#1b9e77" d="M4566.44,-3078.29C4438.38,-3037.23 4126.81,-2937.31 4100.27,-2928.8"/>
</g>
<!-- 15145901477169751526 -->
<g id="node25" class="node">
<title>15145901477169751526</title>
<path fill="lightgray" stroke="black" d="M4172.54,-819.15C4172.54,-819.15 4088.54,-819.15 4088.54,-819.15 4082.54,-819.15 4076.54,-813.15 4076.54,-807.15 4076.54,-807.15 4076.54,-795.15 4076.54,-795.15 4076.54,-789.15 4082.54,-783.15 4088.54,-783.15 4088.54,-783.15 4172.54,-783.15 4172.54,-783.15 4178.54,-783.15 4184.54,-789.15 4184.54,-795.15 4184.54,-795.15 4184.54,-807.15 4184.54,-807.15 4184.54,-813.15 4178.54,-819.15 4172.54,-819.15"/>
<text text-anchor="middle" x="4130.54" y="-797.45" font-family="Times,serif" font-size="14.00">Signals</text>
</g>
<!-- 17850338592001803333 -->
<g id="node68" class="node">
<title>17850338592001803333</title>
<ellipse fill="#3d3d3d" stroke="lightgray" cx="3701.29" cy="-1140.06" rx="1.8" ry="1.8"/>
</g>
<!-- 15145901477169751526&#45;&gt;17850338592001803333 -->
<g id="edge31" class="edge">
<title>15145901477169751526&#45;&gt;17850338592001803333</title>
<path fill="none" stroke="#d95f02" d="M4107.46,-819.37C4021.78,-887.01 3725.71,-1120.78 3702.71,-1138.94"/>
</g>
<!-- 9227271794353802672 -->
<g id="node26" class="node">
<title>9227271794353802672</title>
<path fill="lightgray" stroke="black" d="M109.9,-2654.67C109.9,-2654.67 25.9,-2654.67 25.9,-2654.67 19.9,-2654.67 13.9,-2648.67 13.9,-2642.67 13.9,-2642.67 13.9,-2630.67 13.9,-2630.67 13.9,-2624.67 19.9,-2618.67 25.9,-2618.67 25.9,-2618.67 109.9,-2618.67 109.9,-2618.67 115.9,-2618.67 121.9,-2624.67 121.9,-2630.67 121.9,-2630.67 121.9,-2642.67 121.9,-2642.67 121.9,-2648.67 115.9,-2654.67 109.9,-2654.67"/>
<text text-anchor="middle" x="67.9" y="-2632.97" font-family="Times,serif" font-size="14.00">Signals</text>
</g>
<!-- 1560569834449579204 -->
<g id="node69" class="node">
<title>1560569834449579204</title>
<ellipse fill="#3d3d3d" stroke="lightgray" cx="662.36" cy="-2718.47" rx="1.8" ry="1.8"/>
</g>
<!-- 9227271794353802672&#45;&gt;1560569834449579204 -->
<g id="edge32" class="edge">
<title>9227271794353802672&#45;&gt;1560569834449579204</title>
<path fill="none" stroke="#1b9e77" d="M121.96,-2644.11C262.21,-2663.41 628.97,-2713.88 660.23,-2718.18"/>
</g>
<!-- 9518213049189947366 -->
<g id="node27" class="node">
<title>9518213049189947366</title>
<path fill="lightgray" stroke="black" d="M4073.13,-4053.38C4073.13,-4053.38 3989.13,-4053.38 3989.13,-4053.38 3983.13,-4053.38 3977.13,-4047.38 3977.13,-4041.38 3977.13,-4041.38 3977.13,-4029.38 3977.13,-4029.38 3977.13,-4023.38 3983.13,-4017.38 3989.13,-4017.38 3989.13,-4017.38 4073.13,-4017.38 4073.13,-4017.38 4079.13,-4017.38 4085.13,-4023.38 4085.13,-4029.38 4085.13,-4029.38 4085.13,-4041.38 4085.13,-4041.38 4085.13,-4047.38 4079.13,-4053.38 4073.13,-4053.38"/>
<text text-anchor="middle" x="4031.13" y="-4031.68" font-family="Times,serif" font-size="14.00">Signals</text>
</g>
<!-- 5173928062779297333 -->
<g id="node70" class="node">
<title>5173928062779297333</title>
<ellipse fill="#3d3d3d" stroke="lightgray" cx="3600.01" cy="-3681.48" rx="1.8" ry="1.8"/>
</g>
<!-- 9518213049189947366&#45;&gt;5173928062779297333 -->
<g id="edge33" class="edge">
<title>9518213049189947366&#45;&gt;5173928062779297333</title>
<path fill="none" stroke="#d95f02" d="M4009.16,-4017.34C3924.74,-3948.04 3624.76,-3701.79 3601.45,-3682.66"/>
</g>
<!-- 17383542812352438922 -->
<g id="node28" class="node">
<title>17383542812352438922</title>
<path fill="lightgray" stroke="black" d="M3430.22,-256.7C3430.22,-256.7 3346.22,-256.7 3346.22,-256.7 3340.22,-256.7 3334.22,-250.7 3334.22,-244.7 3334.22,-244.7 3334.22,-232.7 3334.22,-232.7 3334.22,-226.7 3340.22,-220.7 3346.22,-220.7 3346.22,-220.7 3430.22,-220.7 3430.22,-220.7 3436.22,-220.7 3442.22,-226.7 3442.22,-232.7 3442.22,-232.7 3442.22,-244.7 3442.22,-244.7 3442.22,-250.7 3436.22,-256.7 3430.22,-256.7"/>
<text text-anchor="middle" x="3388.22" y="-235" font-family="Times,serif" font-size="14.00">Signals</text>
</g>
<!-- 16074485712335845093 -->
<g id="node71" class="node">
<title>16074485712335845093</title>
<ellipse fill="#3d3d3d" stroke="lightgray" cx="3199.52" cy="-753.64" rx="1.8" ry="1.8"/>
</g>
<!-- 17383542812352438922&#45;&gt;16074485712335845093 -->
<g id="edge34" class="edge">
<title>17383542812352438922&#45;&gt;16074485712335845093</title>
<path fill="none" stroke="#1b9e77" d="M3381.61,-256.72C3349.52,-344.3 3210.96,-722.42 3200.19,-751.82"/>
</g>
<!-- 8302649568942587561 -->
<g id="node29" class="node">
<title>8302649568942587561</title>
<path fill="lightgray" stroke="black" d="M2086.51,-36C2086.51,-36 2002.51,-36 2002.51,-36 1996.51,-36 1990.51,-30 1990.51,-24 1990.51,-24 1990.51,-12 1990.51,-12 1990.51,-6 1996.51,0 2002.51,0 2002.51,0 2086.51,0 2086.51,0 2092.51,0 2098.51,-6 2098.51,-12 2098.51,-12 2098.51,-24 2098.51,-24 2098.51,-30 2092.51,-36 2086.51,-36"/>
<text text-anchor="middle" x="2044.51" y="-14.3" font-family="Times,serif" font-size="14.00">Signals</text>
</g>
<!-- 4978143971295123632 -->
<g id="node72" class="node">
<title>4978143971295123632</title>
<ellipse fill="#3d3d3d" stroke="lightgray" cx="2065.5" cy="-562.21" rx="1.8" ry="1.8"/>
</g>
<!-- 8302649568942587561&#45;&gt;4978143971295123632 -->
<g id="edge35" class="edge">
<title>8302649568942587561&#45;&gt;4978143971295123632</title>
<path fill="none" stroke="#d95f02" d="M2045.21,-36.11C2048.7,-126.85 2064.22,-529 2065.42,-560.28"/>
</g>
<!-- 12341793244238613210 -->
<g id="node30" class="node">
<title>12341793244238613210</title>
<path fill="lightgray" stroke="black" d="M2247.37,-4731.65C2247.37,-4731.65 2163.37,-4731.65 2163.37,-4731.65 2157.37,-4731.65 2151.37,-4725.65 2151.37,-4719.65 2151.37,-4719.65 2151.37,-4707.65 2151.37,-4707.65 2151.37,-4701.65 2157.37,-4695.65 2163.37,-4695.65 2163.37,-4695.65 2247.37,-4695.65 2247.37,-4695.65 2253.37,-4695.65 2259.37,-4701.65 2259.37,-4707.65 2259.37,-4707.65 2259.37,-4719.65 2259.37,-4719.65 2259.37,-4725.65 2253.37,-4731.65 2247.37,-4731.65"/>
<text text-anchor="middle" x="2205.37" y="-4709.95" font-family="Times,serif" font-size="14.00">Signals</text>
</g>
<!-- 10381210061958966062 -->
<g id="node73" class="node">
<title>10381210061958966062</title>
<ellipse fill="#3d3d3d" stroke="lightgray" cx="2201.42" cy="-4146.19" rx="1.8" ry="1.8"/>
</g>
<!-- 12341793244238613210&#45;&gt;10381210061958966062 -->
<g id="edge36" class="edge">
<title>12341793244238613210&#45;&gt;10381210061958966062</title>
<path fill="none" stroke="#1b9e77" d="M2205.24,-4695.41C2204.59,-4602.08 2201.67,-4180.97 2201.44,-4148.21"/>
</g>
<!-- 1900659861650821083 -->
<g id="node31" class="node">
<title>1900659861650821083</title>
<path fill="lightgray" stroke="black" d="M334.63,-1243.31C334.63,-1243.31 250.63,-1243.31 250.63,-1243.31 244.63,-1243.31 238.63,-1237.31 238.63,-1231.31 238.63,-1231.31 238.63,-1219.31 238.63,-1219.31 238.63,-1213.31 244.63,-1207.31 250.63,-1207.31 250.63,-1207.31 334.63,-1207.31 334.63,-1207.31 340.63,-1207.31 346.63,-1213.31 346.63,-1219.31 346.63,-1219.31 346.63,-1231.31 346.63,-1231.31 346.63,-1237.31 340.63,-1243.31 334.63,-1243.31"/>
<text text-anchor="middle" x="292.63" y="-1221.61" font-family="Times,serif" font-size="14.00">Signals</text>
</g>
<!-- 1220750975316630934 -->
<g id="node74" class="node">
<title>1220750975316630934</title>
<ellipse fill="#3d3d3d" stroke="lightgray" cx="757.21" cy="-1513.06" rx="1.8" ry="1.8"/>
</g>
<!-- 1900659861650821083&#45;&gt;1220750975316630934 -->
<g id="edge37" class="edge">
<title>1900659861650821083&#45;&gt;1220750975316630934</title>
<path fill="none" stroke="#d95f02" d="M321.69,-1243.31C419.03,-1303.6 728.95,-1495.56 755.41,-1511.95"/>
</g>
<!-- 3509656805982508733 -->
<g id="node32" class="node">
<title>3509656805982508733</title>
<path fill="lightgray" stroke="black" d="M3585.04,-4447.61C3585.04,-4447.61 3501.04,-4447.61 3501.04,-4447.61 3495.04,-4447.61 3489.04,-4441.61 3489.04,-4435.61 3489.04,-4435.61 3489.04,-4423.61 3489.04,-4423.61 3489.04,-4417.61 3495.04,-4411.61 3501.04,-4411.61 3501.04,-4411.61 3585.04,-4411.61 3585.04,-4411.61 3591.04,-4411.61 3597.04,-4417.61 3597.04,-4423.61 3597.04,-4423.61 3597.04,-4435.61 3597.04,-4435.61 3597.04,-4441.61 3591.04,-4447.61 3585.04,-4447.61"/>
<text text-anchor="middle" x="3543.04" y="-4425.91" font-family="Times,serif" font-size="14.00">Signals</text>
</g>
<!-- 13690209237385652781 -->
<g id="node75" class="node">
<title>13690209237385652781</title>
<ellipse fill="#3d3d3d" stroke="lightgray" cx="3301.64" cy="-3925.27" rx="1.8" ry="1.8"/>
</g>
<!-- 3509656805982508733&#45;&gt;13690209237385652781 -->
<g id="edge38" class="edge">
<title>3509656805982508733&#45;&gt;13690209237385652781</title>
<path fill="none" stroke="#1b9e77" d="M3534.31,-4411.37C3492.72,-4324.48 3316.21,-3955.71 3302.49,-3927.04"/>
</g>
<!-- 11708920306642233574 -->
<g id="node33" class="node">
<title>11708920306642233574</title>
<path fill="lightgray" stroke="black" d="M4731.14,-1952.43C4731.14,-1952.43 4647.14,-1952.43 4647.14,-1952.43 4641.14,-1952.43 4635.14,-1946.43 4635.14,-1940.43 4635.14,-1940.43 4635.14,-1928.43 4635.14,-1928.43 4635.14,-1922.43 4641.14,-1916.43 4647.14,-1916.43 4647.14,-1916.43 4731.14,-1916.43 4731.14,-1916.43 4737.14,-1916.43 4743.14,-1922.43 4743.14,-1928.43 4743.14,-1928.43 4743.14,-1940.43 4743.14,-1940.43 4743.14,-1946.43 4737.14,-1952.43 4731.14,-1952.43"/>
<text text-anchor="middle" x="4689.14" y="-1930.73" font-family="Times,serif" font-size="14.00">Signals</text>
</g>
<!-- 2275214403196109054 -->
<g id="node76" class="node">
<title>2275214403196109054</title>
<ellipse fill="#3d3d3d" stroke="lightgray" cx="4155.54" cy="-2048.9" rx="1.8" ry="1.8"/>
</g>
<!-- 11708920306642233574&#45;&gt;2275214403196109054 -->
<g id="edge39" class="edge">
<title>11708920306642233574&#45;&gt;2275214403196109054</title>
<path fill="none" stroke="#d95f02" d="M4635.04,-1946.03C4505.21,-1973.89 4184.7,-2042.64 4157.4,-2048.5"/>
</g>
<!-- 6520066949627032006 -->
<g id="node34" class="node">
<title>6520066949627032006</title>
<path fill="lightgray" stroke="black" d="M96,-2995.58C96,-2995.58 12,-2995.58 12,-2995.58 6,-2995.58 0,-2989.58 0,-2983.58 0,-2983.58 0,-2971.58 0,-2971.58 0,-2965.58 6,-2959.58 12,-2959.58 12,-2959.58 96,-2959.58 96,-2959.58 102,-2959.58 108,-2965.58 108,-2971.58 108,-2971.58 108,-2983.58 108,-2983.58 108,-2989.58 102,-2995.58 96,-2995.58"/>
<text text-anchor="middle" x="54" y="-2973.88" font-family="Times,serif" font-size="14.00">Signals</text>
</g>
<!-- 17530534829934980672 -->
<g id="node77" class="node">
<title>17530534829934980672</title>
<ellipse fill="#3d3d3d" stroke="lightgray" cx="598.75" cy="-2822.38" rx="1.8" ry="1.8"/>
</g>
<!-- 6520066949627032006&#45;&gt;17530534829934980672 -->
<g id="edge40" class="edge">
<title>6520066949627032006&#45;&gt;17530534829934980672</title>
<path fill="none" stroke="#1b9e77" d="M108.22,-2962.13C240.09,-2924.56 568.84,-2830.9 596.84,-2822.92"/>
</g>
<!-- 1369025530303032934 -->
<g id="node35" class="node">
<title>1369025530303032934</title>
<path fill="lightgray" stroke="black" d="M1628.32,-4660.82C1628.32,-4660.82 1544.32,-4660.82 1544.32,-4660.82 1538.32,-4660.82 1532.32,-4654.82 1532.32,-4648.82 1532.32,-4648.82 1532.32,-4636.82 1532.32,-4636.82 1532.32,-4630.82 1538.32,-4624.82 1544.32,-4624.82 1544.32,-4624.82 1628.32,-4624.82 1628.32,-4624.82 1634.32,-4624.82 1640.32,-4630.82 1640.32,-4636.82 1640.32,-4636.82 1640.32,-4648.82 1640.32,-4648.82 1640.32,-4654.82 1634.32,-4660.82 1628.32,-4660.82"/>
<text text-anchor="middle" x="1586.32" y="-4639.12" font-family="Times,serif" font-size="14.00">Signals</text>
</g>
<!-- 11762802769501662117 -->
<g id="node78" class="node">
<title>11762802769501662117</title>
<ellipse fill="#3d3d3d" stroke="lightgray" cx="1818.84" cy="-4137.55" rx="1.8" ry="1.8"/>
</g>
<!-- 1369025530303032934&#45;&gt;11762802769501662117 -->
<g id="edge41" class="edge">
<title>1369025530303032934&#45;&gt;11762802769501662117</title>
<path fill="none" stroke="#d95f02" d="M1594.73,-4624.54C1634.79,-4537.49 1804.81,-4168.05 1818.03,-4139.32"/>
</g>
<!-- 10386181684737637314 -->
<g id="node36" class="node">
<title>10386181684737637314</title>
<path fill="lightgray" stroke="black" d="M478.32,-3742.38C478.32,-3742.38 394.32,-3742.38 394.32,-3742.38 388.32,-3742.38 382.32,-3736.38 382.32,-3730.38 382.32,-3730.38 382.32,-3718.38 382.32,-3718.38 382.32,-3712.38 388.32,-3706.38 394.32,-3706.38 394.32,-3706.38 478.32,-3706.38 478.32,-3706.38 484.32,-3706.38 490.32,-3712.38 490.32,-3718.38 490.32,-3718.38 490.32,-3730.38 490.32,-3730.38 490.32,-3736.38 484.32,-3742.38 478.32,-3742.38"/>
<text text-anchor="middle" x="436.32" y="-3720.68" font-family="Times,serif" font-size="14.00">Signals</text>
</g>
<!-- 13423924940488150543 -->
<g id="node79" class="node">
<title>13423924940488150543</title>
<ellipse fill="#3d3d3d" stroke="lightgray" cx="865.05" cy="-3350.33" rx="1.8" ry="1.8"/>
</g>
<!-- 10386181684737637314&#45;&gt;13423924940488150543 -->
<g id="edge42" class="edge">
<title>10386181684737637314&#45;&gt;13423924940488150543</title>
<path fill="none" stroke="#1b9e77" d="M457,-3706.34C539.3,-3634.54 840.23,-3371.99 863.61,-3351.59"/>
</g>
<!-- 18003283753325439862 -->
<g id="node37" class="node">
<title>18003283753325439862</title>
<path fill="lightgray" stroke="black" d="M1166.51,-371.18C1166.51,-371.18 1082.51,-371.18 1082.51,-371.18 1076.51,-371.18 1070.51,-365.18 1070.51,-359.18 1070.51,-359.18 1070.51,-347.18 1070.51,-347.18 1070.51,-341.18 1076.51,-335.18 1082.51,-335.18 1082.51,-335.18 1166.51,-335.18 1166.51,-335.18 1172.51,-335.18 1178.51,-341.18 1178.51,-347.18 1178.51,-347.18 1178.51,-359.18 1178.51,-359.18 1178.51,-365.18 1172.51,-371.18 1166.51,-371.18"/>
<text text-anchor="middle" x="1124.51" y="-349.48" font-family="Times,serif" font-size="14.00">Signals</text>
</g>
<!-- 6728750169540037491 -->
<g id="node80" class="node">
<title>6728750169540037491</title>
<ellipse fill="#3d3d3d" stroke="lightgray" cx="1425.52" cy="-809.2" rx="1.8" ry="1.8"/>
</g>
<!-- 18003283753325439862&#45;&gt;6728750169540037491 -->
<g id="edge43" class="edge">
<title>18003283753325439862&#45;&gt;6728750169540037491</title>
<path fill="none" stroke="#d95f02" d="M1136.5,-371.34C1190.29,-452.84 1407.58,-782.03 1424.48,-807.62"/>
</g>
<!-- 17060268248001869314&#45;&gt;9817141177901842795 -->
<g id="edge61" class="edge">
<title>17060268248001869314&#45;&gt;9817141177901842795</title>
<path fill="none" stroke="#1b9e77" d="M2746.92,-2205.09C2774.92,-2198.12 3121.85,-2111.7 3287.12,-2070.54"/>
<polygon fill="#1b9e77" stroke="#1b9e77" points="3297.25,-2068.01 3288.64,-2074.8 3292.4,-2069.22 3287.55,-2070.43 3287.55,-2070.43 3287.55,-2070.43 3292.4,-2069.22 3286.46,-2066.06 3297.25,-2068.01 3297.25,-2068.01"/>
<text text-anchor="middle" x="2968.91" y="-2139.4" font-family="Times,serif" font-size="9.00" fill="lightgray">HardpointsMotion&lt;1&gt;</text>
</g>
<!-- 5185050415724242220&#45;&gt;12914288804457826028 -->
<g id="edge66" class="edge">
<title>5185050415724242220&#45;&gt;12914288804457826028</title>
<path fill="none" stroke="#1b9e77" d="M2489.92,-2767.2C2485.09,-2800.78 2425.3,-3216.6 2408.76,-3331.63"/>
<polygon fill="#1b9e77" stroke="#1b9e77" points="2407.3,-3341.8 2404.26,-3331.26 2408.01,-3336.85 2408.72,-3331.9 2408.72,-3331.9 2408.72,-3331.9 2408.01,-3336.85 2413.17,-3332.54 2407.3,-3341.8 2407.3,-3341.8"/>
<text text-anchor="middle" x="2395.64" y="-3057.05" font-family="Times,serif" font-size="9.00" fill="lightgray">HardpointsMotion&lt;2&gt;</text>
</g>
<!-- 12510606062659071544&#45;&gt;12367018580917085300 -->
<g id="edge71" class="edge">
<title>12510606062659071544&#45;&gt;12367018580917085300</title>
<path fill="none" stroke="#1b9e77" d="M2510.99,-1943.95C2516.65,-1911.78 2595.89,-1461.47 2616.96,-1341.74"/>
<polygon fill="#1b9e77" stroke="#1b9e77" points="2618.7,-1331.83 2621.4,-1342.45 2617.84,-1336.75 2616.97,-1341.67 2616.97,-1341.67 2616.97,-1341.67 2617.84,-1336.75 2612.54,-1340.9 2618.7,-1331.83 2618.7,-1331.83"/>
<text text-anchor="middle" x="2511.88" y="-1640.49" font-family="Times,serif" font-size="9.00" fill="lightgray">HardpointsMotion&lt;3&gt;</text>
</g>
<!-- 10569719447980019225&#45;&gt;253783876682516454 -->
<g id="edge76" class="edge">
<title>10569719447980019225&#45;&gt;253783876682516454</title>
<path fill="none" stroke="#1b9e77" d="M2040.94,-2368.2C2010.69,-2380.36 1661.26,-2520.95 1521.47,-2577.19"/>
<polygon fill="#1b9e77" stroke="#1b9e77" points="1511.78,-2581.09 1519.37,-2573.18 1516.41,-2579.23 1521.05,-2577.36 1521.05,-2577.36 1521.05,-2577.36 1516.41,-2579.23 1522.73,-2581.53 1511.78,-2581.09 1511.78,-2581.09"/>
<text text-anchor="middle" x="1723.48" y="-2477.39" font-family="Times,serif" font-size="9.00" fill="lightgray">HardpointsMotion&lt;4&gt;</text>
</g>
<!-- 17144408110511068227&#45;&gt;4596463053101681754 -->
<g id="edge81" class="edge">
<title>17144408110511068227&#45;&gt;4596463053101681754</title>
<path fill="none" stroke="#1b9e77" d="M2758.74,-2521.72C2786.83,-2534.48 3157.22,-2702.69 3295.21,-2765.36"/>
<polygon fill="#1b9e77" stroke="#1b9e77" points="3304.34,-2769.51 3293.38,-2769.47 3299.79,-2767.44 3295.24,-2765.38 3295.24,-2765.38 3295.24,-2765.38 3299.79,-2767.44 3297.1,-2761.28 3304.34,-2769.51 3304.34,-2769.51"/>
<text text-anchor="middle" x="2978.49" y="-2648.39" font-family="Times,serif" font-size="9.00" fill="lightgray">HardpointsMotion&lt;6&gt;</text>
</g>
<!-- 17378901314928794640&#45;&gt;17837599286913035225 -->
<g id="edge86" class="edge">
<title>17378901314928794640&#45;&gt;17837599286913035225</title>
<path fill="none" stroke="#1b9e77" d="M2197.68,-2655.84C2172.66,-2681.71 1825.73,-3040.29 1727.39,-3141.94"/>
<polygon fill="#1b9e77" stroke="#1b9e77" points="1720.22,-3149.35 1723.94,-3139.03 1723.7,-3145.75 1727.18,-3142.16 1727.18,-3142.16 1727.18,-3142.16 1723.7,-3145.75 1730.41,-3145.29 1720.22,-3149.35 1720.22,-3149.35"/>
<text text-anchor="middle" x="1906" y="-2905.35" font-family="Times,serif" font-size="9.00" fill="lightgray">HardpointsMotion&lt;5&gt;</text>
</g>
<!-- 17621401139099446208&#45;&gt;16759380960328700133 -->
<g id="edge91" class="edge">
<title>17621401139099446208&#45;&gt;16759380960328700133</title>
<path fill="none" stroke="#1b9e77" d="M2055.06,-2087.22C2027.74,-2076.25 1672.56,-1933.6 1531.57,-1876.97"/>
<polygon fill="#1b9e77" stroke="#1b9e77" points="1522.2,-1873.21 1533.15,-1872.76 1526.84,-1875.07 1531.48,-1876.94 1531.48,-1876.94 1531.48,-1876.94 1526.84,-1875.07 1529.8,-1881.11 1522.2,-1873.21 1522.2,-1873.21"/>
<text text-anchor="middle" x="1735.62" y="-1983.01" font-family="Times,serif" font-size="9.00" fill="lightgray">HardpointsMotion&lt;7&gt;</text>
</g>
<!-- 9695870857230867192&#45;&gt;8611624904136851065 -->
<g id="edge58" class="edge">
<title>9695870857230867192&#45;&gt;8611624904136851065</title>
<path fill="none" stroke="#1b9e77" stroke-dasharray="5,2" d="M2327.81,-2001.93C2323.01,-1967.78 2255.49,-1486.83 2238.3,-1364.37"/>
<polygon fill="#1b9e77" stroke="#1b9e77" points="2236.88,-1354.29 2242.73,-1363.57 2237.58,-1359.24 2238.27,-1364.19 2238.27,-1364.19 2238.27,-1364.19 2237.58,-1359.24 2233.82,-1364.82 2236.88,-1354.29 2236.88,-1354.29"/>
<text text-anchor="middle" x="2232.33" y="-1680.77" font-family="Times,serif" font-size="9.00" fill="lightgray">M1RigidBodyMotions</text>
</g>
<!-- 13254462184774527690&#45;&gt;6923268465890841387 -->
<g id="edge44" class="edge">
<title>13254462184774527690&#45;&gt;6923268465890841387</title>
<path fill="none" stroke="#1b9e77" d="M2961.77,-2436.18C2944.9,-2434.14 2828.83,-2420.07 2705.09,-2405.08"/>
<polygon fill="#1b9e77" stroke="#1b9e77" points="2695.02,-2403.86 2705.49,-2400.6 2699.98,-2404.46 2704.95,-2405.06 2704.95,-2405.06 2704.95,-2405.06 2699.98,-2404.46 2704.41,-2409.53 2695.02,-2403.86 2695.02,-2403.86"/>
<text text-anchor="middle" x="2776.15" y="-2422.79" font-family="Times,serif" font-size="9.00" fill="lightgray">HardpointsForces&lt;1&gt;</text>
</g>
<!-- 13254462184774527690&#45;&gt;9817141177901842795 -->
<g id="edge60" class="edge">
<title>13254462184774527690&#45;&gt;9817141177901842795</title>
<path fill="none" stroke="#1b9e77" d="M2965.36,-2435.03C2987.75,-2413.86 3257.46,-2158.81 3345.77,-2075.29"/>
<polygon fill="#1b9e77" stroke="#1b9e77" points="3353.26,-2068.21 3349.08,-2078.35 3349.63,-2071.65 3345.99,-2075.08 3345.99,-2075.08 3345.99,-2075.08 3349.63,-2071.65 3342.9,-2071.81 3353.26,-2068.21 3353.26,-2068.21"/>
<text text-anchor="middle" x="3107.18" y="-2254.54" font-family="Times,serif" font-size="9.00" fill="lightgray">HardpointsForces&lt;1&gt;</text>
</g>
<!-- 13734935183375864922&#45;&gt;13456541555459239564 -->
<g id="edge63" class="edge">
<title>13734935183375864922&#45;&gt;13456541555459239564</title>
<path fill="none" stroke="#d95f02" d="M3819.85,-1699.15C3796.33,-1694.05 3552.54,-1641.16 3412.45,-1610.77"/>
<polygon fill="#d95f02" stroke="#d95f02" points="3402.54,-1608.62 3413.27,-1606.34 3407.43,-1609.68 3412.32,-1610.74 3412.32,-1610.74 3412.32,-1610.74 3407.43,-1609.68 3411.36,-1615.14 3402.54,-1608.62 3402.54,-1608.62"/>
<text text-anchor="middle" x="3559.81" y="-1656.71" font-family="Times,serif" font-size="9.00" fill="lightgray">BarycentricForce&lt;1&gt;</text>
</g>
<!-- 16963285381156722616&#45;&gt;6923268465890841387 -->
<g id="edge45" class="edge">
<title>16963285381156722616&#45;&gt;6923268465890841387</title>
<path fill="none" stroke="#1b9e77" d="M2817.77,-2001.58C2803.33,-2013.7 2692.25,-2107.03 2586.1,-2196.21"/>
<polygon fill="#1b9e77" stroke="#1b9e77" points="2578.14,-2202.9 2582.9,-2193.02 2581.97,-2199.68 2585.79,-2196.47 2585.79,-2196.47 2585.79,-2196.47 2581.97,-2199.68 2588.69,-2199.91 2578.14,-2202.9 2578.14,-2202.9"/>
<text text-anchor="middle" x="2633.52" y="-2104.98" font-family="Times,serif" font-size="9.00" fill="lightgray">ActuatorAppliedForces&lt;1&gt;</text>
</g>
<!-- 3266460364944529614&#45;&gt;6923268465890841387 -->
<g id="edge46" class="edge">
<title>3266460364944529614&#45;&gt;6923268465890841387</title>
<path fill="none" stroke="#1b9e77" d="M2030.11,-2765.77C2042.49,-2751.77 2142.18,-2639.15 2232.58,-2537.03"/>
<polygon fill="#1b9e77" stroke="#1b9e77" points="2239.34,-2529.38 2236.09,-2539.85 2236.03,-2533.12 2232.72,-2536.87 2232.72,-2536.87 2232.72,-2536.87 2236.03,-2533.12 2229.35,-2533.88 2239.34,-2529.38 2239.34,-2529.38"/>
<text text-anchor="middle" x="2082.52" y="-2650.61" font-family="Times,serif" font-size="9.00" fill="lightgray">HardpointsForces&lt;2&gt;</text>
</g>
<!-- 3266460364944529614&#45;&gt;12914288804457826028 -->
<g id="edge65" class="edge">
<title>3266460364944529614&#45;&gt;12914288804457826028</title>
<path fill="none" stroke="#1b9e77" d="M2029.9,-2768.92C2048.97,-2799.05 2315.51,-3220.26 2387,-3333.23"/>
<polygon fill="#1b9e77" stroke="#1b9e77" points="2392.37,-3341.72 2383.22,-3335.67 2389.7,-3337.49 2387.03,-3333.27 2387.03,-3333.27 2387.03,-3333.27 2389.7,-3337.49 2390.83,-3330.86 2392.37,-3341.72 2392.37,-3341.72"/>
<text text-anchor="middle" x="2159.07" y="-3058.02" font-family="Times,serif" font-size="9.00" fill="lightgray">HardpointsForces&lt;2&gt;</text>
</g>
<!-- 11229188983633792363&#45;&gt;12757732583399154715 -->
<g id="edge68" class="edge">
<title>11229188983633792363&#45;&gt;12757732583399154715</title>
<path fill="none" stroke="#d95f02" d="M2787.41,-3836.3C2808.82,-3818.34 3038.81,-3621.62 3111.54,-3403.52 3115.67,-3391.14 3115.25,-3376.83 3113.43,-3364.53"/>
<polygon fill="#d95f02" stroke="#d95f02" points="3111.55,-3354.33 3117.79,-3363.35 3112.46,-3359.24 3113.37,-3364.16 3113.37,-3364.16 3113.37,-3364.16 3112.46,-3359.24 3108.94,-3364.98 3111.55,-3354.33 3111.55,-3354.33"/>
<text text-anchor="middle" x="2936.46" y="-3627.47" font-family="Times,serif" font-size="9.00" fill="lightgray">BarycentricForce&lt;2&gt;</text>
</g>
<!-- 15628350407256098675&#45;&gt;6923268465890841387 -->
<g id="edge47" class="edge">
<title>15628350407256098675&#45;&gt;6923268465890841387</title>
<path fill="none" stroke="#1b9e77" d="M2686.5,-2830.49C2675.09,-2812.99 2577.14,-2662.73 2495.71,-2537.8"/>
<polygon fill="#1b9e77" stroke="#1b9e77" points="2490.12,-2529.23 2499.36,-2535.15 2492.85,-2533.42 2495.59,-2537.61 2495.59,-2537.61 2495.59,-2537.61 2492.85,-2533.42 2491.82,-2540.07 2490.12,-2529.23 2490.12,-2529.23"/>
<text text-anchor="middle" x="2524.41" y="-2683.58" font-family="Times,serif" font-size="9.00" fill="lightgray">ActuatorAppliedForces&lt;2&gt;</text>
</g>
<!-- 16660014027615126763&#45;&gt;6923268465890841387 -->
<g id="edge48" class="edge">
<title>16660014027615126763&#45;&gt;6923268465890841387</title>
<path fill="none" stroke="#1b9e77" d="M2629.63,-1812.8C2619.7,-1835.16 2529,-2039.34 2460.64,-2193.23"/>
<polygon fill="#1b9e77" stroke="#1b9e77" points="2456.38,-2202.82 2456.32,-2191.86 2458.41,-2198.25 2460.44,-2193.69 2460.44,-2193.69 2460.44,-2193.69 2458.41,-2198.25 2464.55,-2195.51 2456.38,-2202.82 2456.38,-2202.82"/>
<text text-anchor="middle" x="2490.98" y="-2010.67" font-family="Times,serif" font-size="9.00" fill="lightgray">HardpointsForces&lt;3&gt;</text>
</g>
<!-- 16660014027615126763&#45;&gt;12367018580917085300 -->
<g id="edge70" class="edge">
<title>16660014027615126763&#45;&gt;12367018580917085300</title>
<path fill="none" stroke="#1b9e77" d="M2630.49,-1808.99C2630.02,-1781.37 2624.31,-1444.43 2622.57,-1342.02"/>
<polygon fill="#1b9e77" stroke="#1b9e77" points="2622.39,-1331.79 2627.06,-1341.71 2622.48,-1336.79 2622.56,-1341.78 2622.56,-1341.78 2622.56,-1341.78 2622.48,-1336.79 2618.07,-1341.86 2622.39,-1331.79 2622.39,-1331.79"/>
<text text-anchor="middle" x="2574.45" y="-1573.43" font-family="Times,serif" font-size="9.00" fill="lightgray">HardpointsForces&lt;3&gt;</text>
</g>
<!-- 12231861257859185698&#45;&gt;14050267932239083785 -->
<g id="edge73" class="edge">
<title>12231861257859185698&#45;&gt;14050267932239083785</title>
<path fill="none" stroke="#d95f02" d="M2566.19,-754.14C2546.82,-774.51 2314.48,-1018.75 2236.77,-1100.44"/>
<polygon fill="#d95f02" stroke="#d95f02" points="2229.74,-1107.83 2233.37,-1097.48 2233.19,-1104.2 2236.63,-1100.58 2236.63,-1100.58 2236.63,-1100.58 2233.19,-1104.2 2239.89,-1103.68 2229.74,-1107.83 2229.74,-1107.83"/>
<text text-anchor="middle" x="2346.53" y="-933.72" font-family="Times,serif" font-size="9.00" fill="lightgray">BarycentricForce&lt;3&gt;</text>
</g>
<!-- 4540907197014273973&#45;&gt;6923268465890841387 -->
<g id="edge49" class="edge">
<title>4540907197014273973&#45;&gt;6923268465890841387</title>
<path fill="none" stroke="#1b9e77" d="M2302.12,-1781.24C2305.49,-1805.33 2336.75,-2029.17 2359.61,-2192.79"/>
<polygon fill="#1b9e77" stroke="#1b9e77" points="2361.03,-2202.98 2355.19,-2193.7 2360.34,-2198.03 2359.65,-2193.08 2359.65,-2193.08 2359.65,-2193.08 2360.34,-2198.03 2364.11,-2192.46 2361.03,-2202.98 2361.03,-2202.98"/>
<text text-anchor="middle" x="2267.06" y="-1994.79" font-family="Times,serif" font-size="9.00" fill="lightgray">ActuatorAppliedForces&lt;3&gt;</text>
</g>
<!-- 12395115991920806803&#45;&gt;6923268465890841387 -->
<g id="edge50" class="edge">
<title>12395115991920806803&#45;&gt;6923268465890841387</title>
<path fill="none" stroke="#1b9e77" d="M2132.25,-2841.07C2141.81,-2823.02 2224.48,-2666.97 2292.48,-2538.59"/>
<polygon fill="#1b9e77" stroke="#1b9e77" points="2297.35,-2529.4 2296.65,-2540.34 2295.01,-2533.82 2292.67,-2538.24 2292.67,-2538.24 2292.67,-2538.24 2295.01,-2533.82 2288.69,-2536.13 2297.35,-2529.4 2297.35,-2529.4"/>
<text text-anchor="middle" x="2162.32" y="-2688.94" font-family="Times,serif" font-size="9.00" fill="lightgray">HardpointsForces&lt;4&gt;</text>
</g>
<!-- 12395115991920806803&#45;&gt;253783876682516454 -->
<g id="edge75" class="edge">
<title>12395115991920806803&#45;&gt;253783876682516454</title>
<path fill="none" stroke="#1b9e77" d="M2129.43,-2842.1C2097.91,-2830.64 1685.64,-2680.75 1526.39,-2622.84"/>
<polygon fill="#1b9e77" stroke="#1b9e77" points="1516.72,-2619.33 1527.66,-2618.52 1521.42,-2621.04 1526.12,-2622.75 1526.12,-2622.75 1526.12,-2622.75 1521.42,-2621.04 1524.58,-2626.98 1516.72,-2619.33 1516.72,-2619.33"/>
<text text-anchor="middle" x="1771.06" y="-2733.51" font-family="Times,serif" font-size="9.00" fill="lightgray">HardpointsForces&lt;4&gt;</text>
</g>
<!-- 6412797464805006005&#45;&gt;7606381790494488192 -->
<g id="edge78" class="edge">
<title>6412797464805006005&#45;&gt;7606381790494488192</title>
<path fill="none" stroke="#d95f02" d="M876.99,-2243.38C897.22,-2222.62 1140.2,-1973.38 1221.02,-1890.47"/>
<polygon fill="#d95f02" stroke="#d95f02" points="1228.32,-1882.98 1224.57,-1893.29 1224.83,-1886.56 1221.34,-1890.14 1221.34,-1890.14 1221.34,-1890.14 1224.83,-1886.56 1218.12,-1887 1228.32,-1882.98 1228.32,-1882.98"/>
<text text-anchor="middle" x="1001.25" y="-2065.88" font-family="Times,serif" font-size="9.00" fill="lightgray">BarycentricForce&lt;4&gt;</text>
</g>
<!-- 4941318742070416173&#45;&gt;6923268465890841387 -->
<g id="edge51" class="edge">
<title>4941318742070416173&#45;&gt;6923268465890841387</title>
<path fill="none" stroke="#1b9e77" d="M1862.2,-2092.91C1876.03,-2100.16 1963.76,-2146.11 2063.44,-2198.33"/>
<polygon fill="#1b9e77" stroke="#1b9e77" points="2072.5,-2203.07 2061.55,-2202.42 2068.07,-2200.75 2063.64,-2198.43 2063.64,-2198.43 2063.64,-2198.43 2068.07,-2200.75 2065.73,-2194.45 2072.5,-2203.07 2072.5,-2203.07"/>
<text text-anchor="middle" x="1902.65" y="-2150.69" font-family="Times,serif" font-size="9.00" fill="lightgray">ActuatorAppliedForces&lt;4&gt;</text>
</g>
<!-- 14480343811691284513&#45;&gt;6923268465890841387 -->
<g id="edge52" class="edge">
<title>14480343811691284513&#45;&gt;6923268465890841387</title>
<path fill="none" stroke="#1b9e77" d="M2821.6,-2768.19C2806.17,-2754.02 2681.26,-2639.31 2568.81,-2536.03"/>
<polygon fill="#1b9e77" stroke="#1b9e77" points="2561.42,-2529.25 2571.83,-2532.7 2565.1,-2532.63 2568.78,-2536.01 2568.78,-2536.01 2568.78,-2536.01 2565.1,-2532.63 2565.74,-2539.32 2561.42,-2529.25 2561.42,-2529.25"/>
<text text-anchor="middle" x="2639.38" y="-2651.39" font-family="Times,serif" font-size="9.00" fill="lightgray">HardpointsForces&lt;6&gt;</text>
</g>
<!-- 14480343811691284513&#45;&gt;4596463053101681754 -->
<g id="edge80" class="edge">
<title>14480343811691284513&#45;&gt;4596463053101681754</title>
<path fill="none" stroke="#1b9e77" d="M2825.09,-2769.72C2849.59,-2770.61 3105.81,-2779.92 3249.74,-2785.16"/>
<polygon fill="#1b9e77" stroke="#1b9e77" points="3259.91,-2785.53 3249.75,-2789.66 3254.91,-2785.35 3249.92,-2785.16 3249.92,-2785.16 3249.92,-2785.16 3254.91,-2785.35 3250.08,-2780.67 3259.91,-2785.53 3259.91,-2785.53"/>
<text text-anchor="middle" x="2990.32" y="-2780.42" font-family="Times,serif" font-size="9.00" fill="lightgray">HardpointsForces&lt;6&gt;</text>
</g>
<!-- 3400305328334063720&#45;&gt;4971691102062873834 -->
<g id="edge83" class="edge">
<title>3400305328334063720&#45;&gt;4971691102062873834</title>
<path fill="none" stroke="#d95f02" d="M3928.82,-2663.05C3910.04,-2640.08 3682.98,-2362.3 3610.42,-2273.52"/>
<polygon fill="#d95f02" stroke="#d95f02" points="3603.89,-2265.54 3613.71,-2270.43 3607.06,-2269.41 3610.22,-2273.28 3610.22,-2273.28 3610.22,-2273.28 3607.06,-2269.41 3606.74,-2276.13 3603.89,-2265.54 3603.89,-2265.54"/>
<text text-anchor="middle" x="3714.93" y="-2467.18" font-family="Times,serif" font-size="9.00" fill="lightgray">BarycentricForce&lt;6&gt;</text>
</g>
<!-- 14571155803125052809&#45;&gt;6923268465890841387 -->
<g id="edge53" class="edge">
<title>14571155803125052809&#45;&gt;6923268465890841387</title>
<path fill="none" stroke="#1b9e77" d="M2929.62,-2272.86C2914.49,-2275.45 2815.01,-2292.45 2705.02,-2311.25"/>
<polygon fill="#1b9e77" stroke="#1b9e77" points="2695.04,-2312.96 2704.14,-2306.84 2699.97,-2312.11 2704.9,-2311.27 2704.9,-2311.27 2704.9,-2311.27 2699.97,-2312.11 2705.65,-2315.71 2695.04,-2312.96 2695.04,-2312.96"/>
<text text-anchor="middle" x="2876.77" y="-2295.72" font-family="Times,serif" font-size="9.00" fill="lightgray">ActuatorAppliedForces&lt;6&gt;</text>
</g>
<!-- 3866450572919949294&#45;&gt;6923268465890841387 -->
<g id="edge54" class="edge">
<title>3866450572919949294&#45;&gt;6923268465890841387</title>
<path fill="none" stroke="#1b9e77" d="M1861.32,-2602.42C1875.2,-2596.15 1963.29,-2556.31 2063.31,-2511.09"/>
<polygon fill="#1b9e77" stroke="#1b9e77" points="2072.71,-2506.84 2065.45,-2515.06 2068.15,-2508.9 2063.6,-2510.96 2063.6,-2510.96 2063.6,-2510.96 2068.15,-2508.9 2061.74,-2506.86 2072.71,-2506.84 2072.71,-2506.84"/>
<text text-anchor="middle" x="1914.92" y="-2557.47" font-family="Times,serif" font-size="9.00" fill="lightgray">HardpointsForces&lt;5&gt;</text>
</g>
<!-- 3866450572919949294&#45;&gt;17837599286913035225 -->
<g id="edge85" class="edge">
<title>3866450572919949294&#45;&gt;17837599286913035225</title>
<path fill="none" stroke="#1b9e77" d="M1858.85,-2605.33C1849.98,-2637.08 1740.54,-3029.07 1709.65,-3139.71"/>
<polygon fill="#1b9e77" stroke="#1b9e77" points="1706.91,-3149.52 1705.27,-3138.68 1708.26,-3144.7 1709.6,-3139.89 1709.6,-3139.89 1709.6,-3139.89 1708.26,-3144.7 1713.94,-3141.1 1706.91,-3149.52 1706.91,-3149.52"/>
<text text-anchor="middle" x="1730.79" y="-2880.56" font-family="Times,serif" font-size="9.00" fill="lightgray">HardpointsForces&lt;5&gt;</text>
</g>
<!-- 18083880317815061432&#45;&gt;11866810641491922280 -->
<g id="edge88" class="edge">
<title>18083880317815061432&#45;&gt;11866810641491922280</title>
<path fill="none" stroke="#d95f02" d="M1470.63,-3701.2C1495.16,-3693.81 1763.21,-3613.05 1895.32,-3573.25"/>
<polygon fill="#d95f02" stroke="#d95f02" points="1904.97,-3570.34 1896.7,-3577.54 1900.19,-3571.79 1895.4,-3573.23 1895.4,-3573.23 1895.4,-3573.23 1900.19,-3571.79 1894.1,-3568.92 1904.97,-3570.34 1904.97,-3570.34"/>
<text text-anchor="middle" x="1636.21" y="-3638.6" font-family="Times,serif" font-size="9.00" fill="lightgray">BarycentricForce&lt;5&gt;</text>
</g>
<!-- 6099127760367114275&#45;&gt;6923268465890841387 -->
<g id="edge55" class="edge">
<title>6099127760367114275&#45;&gt;6923268465890841387</title>
<path fill="none" stroke="#1b9e77" d="M2303.8,-2946.06C2307.09,-2922.24 2337.53,-2701.61 2359.9,-2539.52"/>
<polygon fill="#1b9e77" stroke="#1b9e77" points="2361.3,-2529.42 2364.39,-2539.94 2360.61,-2534.37 2359.93,-2539.32 2359.93,-2539.32 2359.93,-2539.32 2360.61,-2534.37 2355.47,-2538.71 2361.3,-2529.42 2361.3,-2529.42"/>
<text text-anchor="middle" x="2268.07" y="-2740.38" font-family="Times,serif" font-size="9.00" fill="lightgray">ActuatorAppliedForces&lt;5&gt;</text>
</g>
<!-- 5194074664784390226&#45;&gt;6923268465890841387 -->
<g id="edge56" class="edge">
<title>5194074664784390226&#45;&gt;6923268465890841387</title>
<path fill="none" stroke="#1b9e77" d="M1814.66,-2359.78C1831.05,-2359.96 1942.44,-2361.21 2062.39,-2362.55"/>
<polygon fill="#1b9e77" stroke="#1b9e77" points="2072.53,-2362.67 2062.48,-2367.05 2067.53,-2362.61 2062.53,-2362.55 2062.53,-2362.55 2062.53,-2362.55 2067.53,-2362.61 2062.58,-2358.05 2072.53,-2362.67 2072.53,-2362.67"/>
<text text-anchor="middle" x="1891.42" y="-2364.02" font-family="Times,serif" font-size="9.00" fill="lightgray">HardpointsForces&lt;7&gt;</text>
</g>
<!-- 5194074664784390226&#45;&gt;16759380960328700133 -->
<g id="edge90" class="edge">
<title>5194074664784390226&#45;&gt;16759380960328700133</title>
<path fill="none" stroke="#1b9e77" d="M1811.37,-2357.92C1792.48,-2329.68 1560.59,-1982.86 1492.89,-1881.61"/>
<polygon fill="#1b9e77" stroke="#1b9e77" points="1487.22,-1873.13 1496.52,-1878.94 1490,-1877.29 1492.78,-1881.44 1492.78,-1881.44 1492.78,-1881.44 1490,-1877.29 1489.04,-1883.94 1487.22,-1873.13 1487.22,-1873.13"/>
<text text-anchor="middle" x="1597.34" y="-2118.39" font-family="Times,serif" font-size="9.00" fill="lightgray">HardpointsForces&lt;7&gt;</text>
</g>
<!-- 17455302710639134042&#45;&gt;13967629702428167562 -->
<g id="edge93" class="edge">
<title>17455302710639134042&#45;&gt;13967629702428167562</title>
<path fill="none" stroke="#d95f02" d="M1148.98,-1366.42C1173.4,-1365.55 1428.05,-1356.53 1572.26,-1351.41"/>
<polygon fill="#d95f02" stroke="#d95f02" points="1582.45,-1351.05 1572.62,-1355.9 1577.46,-1351.23 1572.46,-1351.41 1572.46,-1351.41 1572.46,-1351.41 1577.46,-1351.23 1572.3,-1346.91 1582.45,-1351.05 1582.45,-1351.05"/>
<text text-anchor="middle" x="1314.21" y="-1361.54" font-family="Times,serif" font-size="9.00" fill="lightgray">BarycentricForce&lt;7&gt;</text>
</g>
<!-- 18219438198209507952&#45;&gt;6923268465890841387 -->
<g id="edge57" class="edge">
<title>18219438198209507952&#45;&gt;6923268465890841387</title>
<path fill="none" stroke="#1b9e77" d="M2048,-1870C2061.03,-1889.26 2175.83,-2058.86 2267.63,-2194.49"/>
<polygon fill="#1b9e77" stroke="#1b9e77" points="2273.37,-2202.96 2264.04,-2197.2 2270.56,-2198.82 2267.76,-2194.68 2267.76,-2194.68 2267.76,-2194.68 2270.56,-2198.82 2271.49,-2192.16 2273.37,-2202.96 2273.37,-2202.96"/>
<text text-anchor="middle" x="2096.2" y="-2039.3" font-family="Times,serif" font-size="9.00" fill="lightgray">ActuatorAppliedForces&lt;7&gt;</text>
</g>
<!-- 10901010791771574459&#45;&gt;12731085354785306831 -->
<g id="edge59" class="edge">
<title>10901010791771574459&#45;&gt;12731085354785306831</title>
<path fill="none" stroke="#1b9e77" d="M4096.42,-2927.4C4067.07,-2915.65 3729.13,-2780.36 3592.05,-2725.48"/>
<polygon fill="#1b9e77" stroke="#1b9e77" points="3582.53,-2721.67 3593.49,-2721.21 3587.17,-2723.53 3591.81,-2725.39 3591.81,-2725.39 3591.81,-2725.39 3587.17,-2723.53 3590.14,-2729.57 3582.53,-2721.67 3582.53,-2721.67"/>
<text text-anchor="middle" x="3817.28" y="-2827.26" font-family="Times,serif" font-size="9.00" fill="lightgray">RBM&lt;1&gt;</text>
</g>
<!-- 17850338592001803333&#45;&gt;13456541555459239564 -->
<g id="edge62" class="edge">
<title>17850338592001803333&#45;&gt;13456541555459239564</title>
<path fill="none" stroke="#d95f02" d="M3699.89,-1141.69C3678.5,-1166.57 3417.91,-1469.61 3337.94,-1562.61"/>
<polygon fill="#d95f02" stroke="#d95f02" points="3331.2,-1570.44 3334.31,-1559.93 3334.46,-1566.65 3337.72,-1562.86 3337.72,-1562.86 3337.72,-1562.86 3334.46,-1566.65 3341.13,-1565.8 3331.2,-1570.44 3331.2,-1570.44"/>
<text text-anchor="middle" x="3446.12" y="-1358.79" font-family="Times,serif" font-size="9.00" fill="lightgray">ActuatorCommandForces&lt;1&gt;</text>
</g>
<!-- 1560569834449579204&#45;&gt;17247103710083610990 -->
<g id="edge64" class="edge">
<title>1560569834449579204&#45;&gt;17247103710083610990</title>
<path fill="none" stroke="#1b9e77" d="M664.26,-2718.77C693.12,-2723.25 1043.16,-2777.59 1221.98,-2805.34"/>
<polygon fill="#1b9e77" stroke="#1b9e77" points="1231.93,-2806.89 1221.36,-2809.8 1226.99,-2806.12 1222.05,-2805.36 1222.05,-2805.36 1222.05,-2805.36 1226.99,-2806.12 1222.74,-2800.91 1231.93,-2806.89 1231.93,-2806.89"/>
<text text-anchor="middle" x="926.13" y="-2765.63" font-family="Times,serif" font-size="9.00" fill="lightgray">RBM&lt;2&gt;</text>
</g>
<!-- 5173928062779297333&#45;&gt;12757732583399154715 -->
<g id="edge67" class="edge">
<title>5173928062779297333&#45;&gt;12757732583399154715</title>
<path fill="none" stroke="#d95f02" d="M3598.22,-3680.22C3571.39,-3661.42 3250.03,-3436.19 3141.58,-3360.19"/>
<polygon fill="#d95f02" stroke="#d95f02" points="3133.25,-3354.35 3144.02,-3356.4 3137.35,-3357.22 3141.44,-3360.09 3141.44,-3360.09 3141.44,-3360.09 3137.35,-3357.22 3138.86,-3363.77 3133.25,-3354.35 3133.25,-3354.35"/>
<text text-anchor="middle" x="3296.21" y="-3520.07" font-family="Times,serif" font-size="9.00" fill="lightgray">ActuatorCommandForces&lt;2&gt;</text>
</g>
<!-- 16074485712335845093&#45;&gt;8394722738487995712 -->
<g id="edge69" class="edge">
<title>16074485712335845093&#45;&gt;8394722738487995712</title>
<path fill="none" stroke="#1b9e77" d="M3198.74,-755.66C3186.67,-787.05 3037.62,-1174.47 2995.52,-1283.88"/>
<polygon fill="#1b9e77" stroke="#1b9e77" points="2991.9,-1293.3 2991.29,-1282.35 2993.7,-1288.63 2995.49,-1283.96 2995.49,-1283.96 2995.49,-1283.96 2993.7,-1288.63 2999.69,-1285.58 2991.9,-1293.3 2991.9,-1293.3"/>
<text text-anchor="middle" x="3073.28" y="-1027.39" font-family="Times,serif" font-size="9.00" fill="lightgray">RBM&lt;3&gt;</text>
</g>
<!-- 4978143971295123632&#45;&gt;14050267932239083785 -->
<g id="edge72" class="edge">
<title>4978143971295123632&#45;&gt;14050267932239083785</title>
<path fill="none" stroke="#d95f02" d="M2066.03,-564.26C2074.23,-595.97 2175.56,-987.49 2204.16,-1098"/>
<polygon fill="#d95f02" stroke="#d95f02" points="2206.69,-1107.79 2199.83,-1099.24 2205.44,-1102.95 2204.19,-1098.11 2204.19,-1098.11 2204.19,-1098.11 2205.44,-1102.95 2208.54,-1096.98 2206.69,-1107.79 2206.69,-1107.79"/>
<text text-anchor="middle" x="2066.94" y="-839.16" font-family="Times,serif" font-size="9.00" fill="lightgray">ActuatorCommandForces&lt;3&gt;</text>
</g>
<!-- 10381210061958966062&#45;&gt;15217189094916091562 -->
<g id="edge74" class="edge">
<title>10381210061958966062&#45;&gt;15217189094916091562</title>
<path fill="none" stroke="#1b9e77" d="M2201.34,-4144.17C2199.89,-4110.6 2180.79,-3669.04 2175.64,-3550.08"/>
<polygon fill="#1b9e77" stroke="#1b9e77" points="2175.2,-3539.91 2180.13,-3549.7 2175.42,-3544.9 2175.64,-3549.9 2175.64,-3549.9 2175.64,-3549.9 2175.42,-3544.9 2171.14,-3550.09 2175.2,-3539.91 2175.2,-3539.91"/>
<text text-anchor="middle" x="2166.26" y="-3844.57" font-family="Times,serif" font-size="9.00" fill="lightgray">RBM&lt;4&gt;</text>
</g>
<!-- 1220750975316630934&#45;&gt;7606381790494488192 -->
<g id="edge77" class="edge">
<title>1220750975316630934&#45;&gt;7606381790494488192</title>
<path fill="none" stroke="#d95f02" d="M758.99,-1514.33C785.63,-1533.41 1104.99,-1762.15 1212.16,-1838.91"/>
<polygon fill="#d95f02" stroke="#d95f02" points="1220.39,-1844.81 1209.64,-1842.65 1216.33,-1841.9 1212.26,-1838.99 1212.26,-1838.99 1212.26,-1838.99 1216.33,-1841.9 1214.88,-1835.33 1220.39,-1844.81 1220.39,-1844.81"/>
<text text-anchor="middle" x="920.14" y="-1682.33" font-family="Times,serif" font-size="9.00" fill="lightgray">ActuatorCommandForces&lt;4&gt;</text>
</g>
<!-- 13690209237385652781&#45;&gt;12840535852242017780 -->
<g id="edge79" class="edge">
<title>13690209237385652781&#45;&gt;12840535852242017780</title>
<path fill="none" stroke="#1b9e77" d="M3300.6,-3923.3C3284.52,-3892.79 3086.15,-3516.56 3029.72,-3409.54"/>
<polygon fill="#1b9e77" stroke="#1b9e77" points="3025.01,-3400.61 3033.66,-3407.36 3027.34,-3405.03 3029.67,-3409.45 3029.67,-3409.45 3029.67,-3409.45 3027.34,-3405.03 3025.69,-3411.55 3025.01,-3400.61 3025.01,-3400.61"/>
<text text-anchor="middle" x="3140.65" y="-3664.46" font-family="Times,serif" font-size="9.00" fill="lightgray">RBM&lt;6&gt;</text>
</g>
<!-- 2275214403196109054&#45;&gt;4971691102062873834 -->
<g id="edge82" class="edge">
<title>2275214403196109054&#45;&gt;4971691102062873834</title>
<path fill="none" stroke="#d95f02" d="M4153.48,-2049.62C4124.42,-2059.74 3794.52,-2174.62 3652.58,-2224.04"/>
<polygon fill="#d95f02" stroke="#d95f02" points="3643.1,-2227.34 3651.06,-2219.81 3647.82,-2225.7 3652.54,-2224.06 3652.54,-2224.06 3652.54,-2224.06 3647.82,-2225.7 3654.02,-2228.31 3643.1,-2227.34 3643.1,-2227.34"/>
<text text-anchor="middle" x="3828.88" y="-2141.25" font-family="Times,serif" font-size="9.00" fill="lightgray">ActuatorCommandForces&lt;6&gt;</text>
</g>
<!-- 17530534829934980672&#45;&gt;7029504328798252482 -->
<g id="edge84" class="edge">
<title>17530534829934980672&#45;&gt;7029504328798252482</title>
<path fill="none" stroke="#1b9e77" d="M600.44,-2821.65C628.34,-2809.58 994.66,-2651.17 1133.89,-2590.96"/>
<polygon fill="#1b9e77" stroke="#1b9e77" points="1143.12,-2586.97 1135.73,-2595.07 1138.53,-2588.95 1133.94,-2590.93 1133.94,-2590.93 1133.94,-2590.93 1138.53,-2588.95 1132.16,-2586.8 1143.12,-2586.97 1143.12,-2586.97"/>
<text text-anchor="middle" x="849.48" y="-2707.24" font-family="Times,serif" font-size="9.00" fill="lightgray">RBM&lt;5&gt;</text>
</g>
<!-- 11762802769501662117&#45;&gt;11866810641491922280 -->
<g id="edge87" class="edge">
<title>11762802769501662117&#45;&gt;11866810641491922280</title>
<path fill="none" stroke="#d95f02" d="M1819.38,-4135.43C1827.79,-4102.4 1931.89,-3693.42 1960.7,-3580.21"/>
<polygon fill="#d95f02" stroke="#d95f02" points="1963.18,-3570.5 1965.07,-3581.3 1961.94,-3575.34 1960.71,-3580.19 1960.71,-3580.19 1960.71,-3580.19 1961.94,-3575.34 1956.35,-3579.08 1963.18,-3570.5 1963.18,-3570.5"/>
<text text-anchor="middle" x="1821.75" y="-3855.88" font-family="Times,serif" font-size="9.00" fill="lightgray">ActuatorCommandForces&lt;5&gt;</text>
</g>
<!-- 13423924940488150543&#45;&gt;5211479530975126942 -->
<g id="edge89" class="edge">
<title>13423924940488150543&#45;&gt;5211479530975126942</title>
<path fill="none" stroke="#1b9e77" d="M866.41,-3349.12C889.75,-3328.2 1208.81,-3042.39 1307.58,-2953.91"/>
<polygon fill="#1b9e77" stroke="#1b9e77" points="1315.11,-2947.17 1310.66,-2957.19 1311.38,-2950.5 1307.66,-2953.84 1307.66,-2953.84 1307.66,-2953.84 1311.38,-2950.5 1304.66,-2950.49 1315.11,-2947.17 1315.11,-2947.17"/>
<text text-anchor="middle" x="1068.71" y="-3150.99" font-family="Times,serif" font-size="9.00" fill="lightgray">RBM&lt;7&gt;</text>
</g>
<!-- 6728750169540037491&#45;&gt;13967629702428167562 -->
<g id="edge92" class="edge">
<title>6728750169540037491&#45;&gt;13967629702428167562</title>
<path fill="none" stroke="#d95f02" d="M1426.41,-811.15C1440.14,-841.34 1609.27,-1213.24 1657.67,-1319.65"/>
<polygon fill="#d95f02" stroke="#d95f02" points="1661.84,-1328.82 1653.6,-1321.58 1659.77,-1324.27 1657.7,-1319.72 1657.7,-1319.72 1657.7,-1319.72 1659.77,-1324.27 1661.79,-1317.86 1661.84,-1328.82 1661.84,-1328.82"/>
<text text-anchor="middle" x="1474.59" y="-1072.71" font-family="Times,serif" font-size="9.00" fill="lightgray">ActuatorCommandForces&lt;7&gt;</text>
</g>
</g>
</svg>
