<?xml version="1.0" encoding="UTF-8" standalone="no"?>
<!DOCTYPE svg PUBLIC "-//W3C//DTD SVG 1.1//EN"
 "http://www.w3.org/Graphics/SVG/1.1/DTD/svg11.dtd">
<!-- Generated by graphviz version 2.43.0 (0)
 -->
<!-- Title: G Pages: 1 -->
<svg width="845pt" height="890pt"
 viewBox="0.00 0.00 844.86 889.91" xmlns="http://www.w3.org/2000/svg" xmlns:xlink="http://www.w3.org/1999/xlink">
<g id="graph0" class="graph" transform="scale(1 1) rotate(0) translate(4 885.91)">
<title>G</title>
<polygon fill="#3d3d3d" stroke="transparent" points="-4,4 -4,-885.91 840.86,-885.91 840.86,4 -4,4"/>
<!-- 11416145923813279236 -->
<g id="node1" class="node">
<title>11416145923813279236</title>
<path fill="lightgray" stroke="black" d="M824.86,-36C824.86,-36 740.86,-36 740.86,-36 734.86,-36 728.86,-30 728.86,-24 728.86,-24 728.86,-12 728.86,-12 728.86,-6 734.86,0 740.86,0 740.86,0 824.86,0 824.86,0 830.86,0 836.86,-6 836.86,-12 836.86,-12 836.86,-24 836.86,-24 836.86,-30 830.86,-36 824.86,-36"/>
<text text-anchor="middle" x="782.86" y="-14.3" font-family="Times,serif" font-size="14.00">RBM</text>
</g>
<!-- 12429609304473061511 -->
<g id="node8" class="node">
<title>12429609304473061511</title>
<ellipse fill="#3d3d3d" stroke="lightgray" cx="678.93" cy="-111.37" rx="1.8" ry="1.8"/>
</g>
<!-- 11416145923813279236&#45;&gt;12429609304473061511 -->
<g id="edge1" class="edge">
<title>11416145923813279236&#45;&gt;12429609304473061511</title>
<path fill="none" stroke="#1b9e77" d="M762.82,-36C735.45,-60.59 688.79,-102.51 680.28,-110.15"/>
</g>
<!-- 1836056230026995588 -->
<g id="node2" class="node">
<title>1836056230026995588</title>
<path fill="lightgray" stroke="black" d="M149.03,-881.91C149.03,-881.91 65.03,-881.91 65.03,-881.91 59.03,-881.91 53.03,-875.91 53.03,-869.91 53.03,-869.91 53.03,-857.91 53.03,-857.91 53.03,-851.91 59.03,-845.91 65.03,-845.91 65.03,-845.91 149.03,-845.91 149.03,-845.91 155.03,-845.91 161.03,-851.91 161.03,-857.91 161.03,-857.91 161.03,-869.91 161.03,-869.91 161.03,-875.91 155.03,-881.91 149.03,-881.91"/>
<text text-anchor="middle" x="107.03" y="-860.21" font-family="Times,serif" font-size="14.00">Actuators</text>
</g>
<!-- 16857762666838171400 -->
<g id="node9" class="node">
<title>16857762666838171400</title>
<ellipse fill="#3d3d3d" stroke="lightgray" cx="176.48" cy="-741.11" rx="1.8" ry="1.8"/>
</g>
<!-- 1836056230026995588&#45;&gt;16857762666838171400 -->
<g id="edge2" class="edge">
<title>1836056230026995588&#45;&gt;16857762666838171400</title>
<path fill="none" stroke="#d95f02" d="M117.28,-845.79C134.78,-814.83 169.18,-754.02 175.47,-742.88"/>
</g>
<!-- 3761756327224005506 -->
<g id="node3" class="node">
<title>3761756327224005506</title>
<path fill="lightgray" stroke="black" d="M604.88,-212.54C604.88,-212.54 520.88,-212.54 520.88,-212.54 514.88,-212.54 508.88,-206.54 508.88,-200.54 508.88,-200.54 508.88,-188.54 508.88,-188.54 508.88,-182.54 514.88,-176.54 520.88,-176.54 520.88,-176.54 604.88,-176.54 604.88,-176.54 610.88,-176.54 616.88,-182.54 616.88,-188.54 616.88,-188.54 616.88,-200.54 616.88,-200.54 616.88,-206.54 610.88,-212.54 604.88,-212.54"/>
<text text-anchor="middle" x="562.88" y="-190.84" font-family="Times,serif" font-size="14.00">Hardpoints</text>
</g>
<!-- 12850268379360650402 -->
<g id="node10" class="node">
<title>12850268379360650402</title>
<ellipse fill="#3d3d3d" stroke="lightgray" cx="447.48" cy="-290.99" rx="1.8" ry="1.8"/>
</g>
<!-- 3761756327224005506&#45;&gt;12850268379360650402 -->
<g id="edge3" class="edge">
<title>3761756327224005506&#45;&gt;12850268379360650402</title>
<path fill="none" stroke="#1b9e77" d="M541.17,-212.68C510.88,-238 458.55,-281.74 449,-289.72"/>
</g>
<!-- 1854954244384026457 -->
<g id="node4" class="node">
<title>1854954244384026457</title>
<path fill="lightgray" stroke="black" d="M525.37,-473.67C525.37,-473.67 441.37,-473.67 441.37,-473.67 435.37,-473.67 429.37,-467.67 429.37,-461.67 429.37,-461.67 429.37,-449.67 429.37,-449.67 429.37,-443.67 435.37,-437.67 441.37,-437.67 441.37,-437.67 525.37,-437.67 525.37,-437.67 531.37,-437.67 537.37,-443.67 537.37,-449.67 537.37,-449.67 537.37,-461.67 537.37,-461.67 537.37,-467.67 531.37,-473.67 525.37,-473.67"/>
<text text-anchor="middle" x="483.37" y="-451.97" font-family="Times,serif" font-size="14.00">LoadCells</text>
</g>
<!-- 4921756849162817265 -->
<g id="node11" class="node">
<title>4921756849162817265</title>
<ellipse fill="#3d3d3d" stroke="lightgray" cx="414.89" cy="-601.3" rx="1.8" ry="1.8"/>
</g>
<!-- 1854954244384026457&#45;&gt;4921756849162817265 -->
<g id="edge4" class="edge">
<title>1854954244384026457&#45;&gt;4921756849162817265</title>
<path fill="none" stroke="#d95f02" stroke-width="2" d="M474.84,-473.82C458.06,-509.5 421.86,-586.46 415.77,-599.43"/>
</g>
<!-- 12198824238011265167 -->
<g id="node5" class="node">
<title>12198824238011265167</title>
<path fill="lightgray" stroke="black" d="M298.55,-630.7C298.55,-630.7 203.55,-630.7 203.55,-630.7 197.55,-630.7 191.55,-624.7 191.55,-618.7 191.55,-618.7 191.55,-606.7 191.55,-606.7 191.55,-600.7 197.55,-594.7 203.55,-594.7 203.55,-594.7 298.55,-594.7 298.55,-594.7 304.55,-594.7 310.55,-600.7 310.55,-606.7 310.55,-606.7 310.55,-618.7 310.55,-618.7 310.55,-624.7 304.55,-630.7 298.55,-630.7"/>
<text text-anchor="middle" x="251.05" y="-609" font-family="Times,serif" font-size="14.00">Actuators&lt;1&gt;</text>
</g>
<!-- 12027004182354162994 -->
<g id="node12" class="node">
<title>12027004182354162994</title>
<ellipse fill="#3d3d3d" stroke="lightgray" cx="196.89" cy="-459.46" rx="1.8" ry="1.8"/>
</g>
<!-- 12198824238011265167&#45;&gt;12027004182354162994 -->
<g id="edge5" class="edge">
<title>12198824238011265167&#45;&gt;12027004182354162994</title>
<path fill="none" stroke="#1b9e77" d="M244.62,-594.52C231.51,-557.41 202.48,-475.3 197.59,-461.46"/>
</g>
<!-- 9415670301499719253 -->
<g id="node6" class="node">
<title>9415670301499719253</title>
<path fill="lightgray" stroke="black" d="M425.68,-325.41C425.68,-325.41 125.68,-325.41 125.68,-325.41 119.68,-325.41 113.68,-319.41 113.68,-313.41 113.68,-313.41 113.68,-301.41 113.68,-301.41 113.68,-295.41 119.68,-289.41 125.68,-289.41 125.68,-289.41 425.68,-289.41 425.68,-289.41 431.68,-289.41 437.68,-295.41 437.68,-301.41 437.68,-301.41 437.68,-313.41 437.68,-313.41 437.68,-319.41 431.68,-325.41 425.68,-325.41"/>
<text text-anchor="middle" x="275.68" y="-303.71" font-family="Times,serif" font-size="14.00">DiscreteModalSolver&lt;ExponentialMatrix&gt;</text>
</g>
<!-- 6937603818107486710 -->
<g id="node13" class="node">
<title>6937603818107486710</title>
<ellipse fill="#3d3d3d" stroke="lightgray" cx="363.54" cy="-394.15" rx="1.8" ry="1.8"/>
</g>
<!-- 9415670301499719253&#45;&gt;6937603818107486710 -->
<g id="edge6" class="edge">
<title>9415670301499719253&#45;&gt;6937603818107486710</title>
<path fill="none" stroke="#1b9e77" stroke-width="2" d="M294.31,-325.81C317.28,-348.48 354.25,-384.98 362.06,-392.69"/>
</g>
<!-- 1364777136656261658 -->
<g id="node14" class="node">
<title>1364777136656261658</title>
<ellipse fill="#3d3d3d" stroke="lightgray" cx="170.06" cy="-199.34" rx="1.8" ry="1.8"/>
</g>
<!-- 9415670301499719253&#45;&gt;1364777136656261658 -->
<g id="edge7" class="edge">
<title>9415670301499719253&#45;&gt;1364777136656261658</title>
<path fill="none" stroke="#1b9e77" stroke-width="2" d="M257.77,-289.08C230.46,-261.14 180.62,-210.14 171.51,-200.82"/>
</g>
<!-- 37939277890634959 -->
<g id="node7" class="node">
<title>37939277890634959</title>
<path fill="lightgray" stroke="black" d="M110,-123.25C110,-123.25 12,-123.25 12,-123.25 6,-123.25 0,-117.25 0,-111.25 0,-111.25 0,-99.25 0,-99.25 0,-93.25 6,-87.25 12,-87.25 12,-87.25 110,-87.25 110,-87.25 116,-87.25 122,-93.25 122,-99.25 122,-99.25 122,-111.25 122,-111.25 122,-117.25 116,-123.25 110,-123.25"/>
<text text-anchor="middle" x="61" y="-101.55" font-family="Times,serif" font-size="14.00">Logging&lt;f64&gt;</text>
</g>
<!-- 12429609304473061511&#45;&gt;3761756327224005506 -->
<g id="edge8" class="edge">
<title>12429609304473061511&#45;&gt;3761756327224005506</title>
<path fill="none" stroke="#1b9e77" d="M677.29,-112.54C668.57,-118.79 626.97,-148.6 596.44,-170.49"/>
<polygon fill="#1b9e77" stroke="#1b9e77" points="588.15,-176.43 593.66,-166.94 592.22,-173.51 596.28,-170.6 596.28,-170.6 596.28,-170.6 592.22,-173.51 598.9,-174.26 588.15,-176.43 588.15,-176.43"/>
<text text-anchor="middle" x="610.76" y="-147.26" font-family="Times,serif" font-size="9.00" fill="lightgray">RBM&lt;1&gt;</text>
</g>
<!-- 16857762666838171400&#45;&gt;12198824238011265167 -->
<g id="edge11" class="edge">
<title>16857762666838171400&#45;&gt;12198824238011265167</title>
<path fill="none" stroke="#d95f02" d="M177.53,-739.3C183.71,-728.65 215.66,-673.65 235.35,-639.74"/>
<polygon fill="#d95f02" stroke="#d95f02" points="240.55,-630.79 239.42,-641.69 238.04,-635.11 235.52,-639.43 235.52,-639.43 235.52,-639.43 238.04,-635.11 231.63,-637.17 240.55,-630.79 240.55,-630.79"/>
<text text-anchor="middle" x="139.7" y="-687.56" font-family="Times,serif" font-size="9.00" fill="lightgray">ActuatorCommandForces&lt;1&gt;</text>
</g>
<!-- 12850268379360650402&#45;&gt;1854954244384026457 -->
<g id="edge9" class="edge">
<title>12850268379360650402&#45;&gt;1854954244384026457</title>
<path fill="none" stroke="#1b9e77" d="M447.88,-292.84C450.72,-305.86 467.87,-384.53 477.25,-427.57"/>
<polygon fill="#1b9e77" stroke="#1b9e77" points="479.4,-437.44 472.87,-428.63 478.33,-432.55 477.27,-427.67 477.27,-427.67 477.27,-427.67 478.33,-432.55 481.66,-426.71 479.4,-437.44 479.4,-437.44"/>
<text text-anchor="middle" x="411.59" y="-367.72" font-family="Times,serif" font-size="9.00" fill="lightgray">HardpointsForces&lt;1&gt;</text>
</g>
<!-- 12850268379360650402&#45;&gt;9415670301499719253 -->
<g id="edge13" class="edge">
<title>12850268379360650402&#45;&gt;9415670301499719253</title>
<path fill="none" stroke="#1b9e77" d="M445.55,-291.17C445.45,-291.18 445.35,-291.19 445.24,-291.2"/>
<polygon fill="#1b9e77" stroke="#1b9e77" points="437.94,-291.9 447.47,-286.47 442.92,-291.43 447.89,-290.95 447.89,-290.95 447.89,-290.95 442.92,-291.43 448.32,-295.43 437.94,-291.9 437.94,-291.9"/>
<text text-anchor="middle" x="497.28" y="-294" font-family="Times,serif" font-size="9.00" fill="lightgray">HardpointsForces&lt;1&gt;</text>
</g>
<!-- 4921756849162817265&#45;&gt;12198824238011265167 -->
<g id="edge12" class="edge">
<title>4921756849162817265&#45;&gt;12198824238011265167</title>
<path fill="none" stroke="#d95f02" d="M413.05,-601.43C403.7,-602.08 360.38,-605.09 320.89,-607.84"/>
<polygon fill="#d95f02" stroke="#d95f02" points="310.69,-608.55 320.36,-603.37 315.68,-608.2 320.67,-607.85 320.67,-607.85 320.67,-607.85 315.68,-608.2 320.98,-612.34 310.69,-608.55 310.69,-608.55"/>
<text text-anchor="middle" x="413.38" y="-607.79" font-family="Times,serif" font-size="9.00" fill="lightgray">BarycentricForce&lt;1&gt;</text>
</g>
<!-- 12027004182354162994&#45;&gt;9415670301499719253 -->
<g id="edge14" class="edge">
<title>12027004182354162994&#45;&gt;9415670301499719253</title>
<path fill="none" stroke="#1b9e77" d="M197.77,-457.75C203.94,-445.85 240.86,-374.6 261.59,-334.61"/>
<polygon fill="#1b9e77" stroke="#1b9e77" points="266.24,-325.64 265.63,-336.59 263.94,-330.08 261.63,-334.52 261.63,-334.52 261.63,-334.52 263.94,-330.08 257.64,-332.45 266.24,-325.64 266.24,-325.64"/>
<text text-anchor="middle" x="167.57" y="-394.37" font-family="Times,serif" font-size="9.00" fill="lightgray">ActuatorAppliedForces&lt;1&gt;</text>
</g>
<!-- 6937603818107486710&#45;&gt;1854954244384026457 -->
<g id="edge10" class="edge">
<title>6937603818107486710&#45;&gt;1854954244384026457</title>
<path fill="none" stroke="#1b9e77" d="M365.23,-395.02C373.33,-399.17 408.92,-417.45 438.94,-432.86"/>
<polygon fill="#1b9e77" stroke="#1b9e77" points="448.04,-437.53 437.09,-436.97 443.59,-435.25 439.14,-432.96 439.14,-432.96 439.14,-432.96 443.59,-435.25 441.2,-428.96 448.04,-437.53 448.04,-437.53"/>
<text text-anchor="middle" x="353.65" y="-419.08" font-family="Times,serif" font-size="9.00" fill="lightgray">HardpointsMotion&lt;1&gt;</text>
</g>
<!-- 1364777136656261658&#45;&gt;37939277890634959 -->
<g id="edge15" class="edge">
<title>1364777136656261658&#45;&gt;37939277890634959</title>
<path fill="none" stroke="#1b9e77" stroke-dasharray="5,2" d="M168.52,-198.01C160.1,-190.74 118.95,-155.24 90.08,-130.33"/>
<polygon fill="#1b9e77" stroke="#1b9e77" points="82.3,-123.62 92.81,-126.75 86.08,-126.89 89.87,-130.15 89.87,-130.15 89.87,-130.15 86.08,-126.89 86.93,-133.56 82.3,-123.62 82.3,-123.62"/>
<text text-anchor="middle" x="103.74" y="-163.9" font-family="Times,serif" font-size="9.00" fill="lightgray">RBM&lt;1&gt;</text>
</g>
</g>
</svg>
