<?xml version="1.0" encoding="UTF-8" standalone="no"?>
<!DOCTYPE svg PUBLIC "-//W3C//DTD SVG 1.1//EN"
 "http://www.w3.org/Graphics/SVG/1.1/DTD/svg11.dtd">
<!-- Generated by graphviz version 2.43.0 (0)
 -->
<!-- Title: G Pages: 1 -->
<svg width="840pt" height="343pt"
 viewBox="0.00 0.00 840.08 342.96" xmlns="http://www.w3.org/2000/svg" xmlns:xlink="http://www.w3.org/1999/xlink">
<g id="graph0" class="graph" transform="scale(1 1) rotate(0) translate(4 338.96)">
<title>G</title>
<polygon fill="#3d3d3d" stroke="transparent" points="-4,4 -4,-338.96 836.08,-338.96 836.08,4 -4,4"/>
<!-- 2840948173961713372 -->
<g id="node1" class="node">
<title>2840948173961713372</title>
<path fill="lightgray" stroke="black" d="M820.08,-334.96C820.08,-334.96 688.08,-334.96 688.08,-334.96 682.08,-334.96 676.08,-328.96 676.08,-322.96 676.08,-322.96 676.08,-308.96 676.08,-308.96 676.08,-302.96 682.08,-296.96 688.08,-296.96 688.08,-296.96 820.08,-296.96 820.08,-296.96 826.08,-296.96 832.08,-302.96 832.08,-308.96 832.08,-308.96 832.08,-322.96 832.08,-322.96 832.08,-328.96 826.08,-334.96 820.08,-334.96"/>
<text text-anchor="middle" x="754.08" y="-319.76" font-family="Times,serif" font-size="14.00">M1S1</text>
<text text-anchor="middle" x="754.08" y="-304.76" font-family="Times,serif" font-size="14.00"> &#160;&#160;&#160;&#160;&#160;&#160;&#160;&#160;&#160;&#160;&#160;RBM Inputs</text>
</g>
<!-- 9593768862212529189 -->
<g id="node6" class="node">
<title>9593768862212529189</title>
<ellipse fill="#3d3d3d" stroke="lightgray" cx="685.12" cy="-258.43" rx="1.8" ry="1.8"/>
</g>
<!-- 2840948173961713372&#45;&gt;9593768862212529189 -->
<g id="edge1" class="edge">
<title>2840948173961713372&#45;&gt;9593768862212529189</title>
<path fill="none" stroke="#1b9e77" d="M731.12,-296.8C713.88,-282.42 692.3,-264.42 686.57,-259.64"/>
</g>
<!-- 3304766857151690073 -->
<g id="node2" class="node">
<title>3304766857151690073</title>
<path fill="lightgray" stroke="black" d="M688.96,-230.92C688.96,-230.92 525.96,-230.92 525.96,-230.92 519.96,-230.92 513.96,-224.92 513.96,-218.92 513.96,-218.92 513.96,-204.92 513.96,-204.92 513.96,-198.92 519.96,-192.92 525.96,-192.92 525.96,-192.92 688.96,-192.92 688.96,-192.92 694.96,-192.92 700.96,-198.92 700.96,-204.92 700.96,-204.92 700.96,-218.92 700.96,-218.92 700.96,-224.92 694.96,-230.92 688.96,-230.92"/>
<text text-anchor="middle" x="607.46" y="-215.72" font-family="Times,serif" font-size="14.00">M1S1</text>
<text text-anchor="middle" x="607.46" y="-200.72" font-family="Times,serif" font-size="14.00"> &#160;&#160;&#160;&#160;&#160;&#160;&#160;&#160;&#160;&#160;&#160;&#160;&#160;&#160;&#160;&#160;&#160;&#160;&#160;Hardpoints</text>
</g>
<!-- 13254462184774527690 -->
<g id="node7" class="node">
<title>13254462184774527690</title>
<ellipse fill="#3d3d3d" stroke="lightgray" cx="530.15" cy="-161.65" rx="1.8" ry="1.8"/>
</g>
<!-- 3304766857151690073&#45;&gt;13254462184774527690 -->
<g id="edge2" class="edge">
<title>3304766857151690073&#45;&gt;13254462184774527690</title>
<path fill="none" stroke="#1b9e77" d="M578.24,-192.92C559.76,-180.9 538.23,-166.9 531.95,-162.82"/>
</g>
<!-- 5415970854442737504 -->
<g id="node3" class="node">
<title>5415970854442737504</title>
<path fill="lightgray" stroke="black" d="M532.08,-115.36C532.08,-115.36 383.08,-115.36 383.08,-115.36 377.08,-115.36 371.08,-109.36 371.08,-103.36 371.08,-103.36 371.08,-89.36 371.08,-89.36 371.08,-83.36 377.08,-77.36 383.08,-77.36 383.08,-77.36 532.08,-77.36 532.08,-77.36 538.08,-77.36 544.08,-83.36 544.08,-89.36 544.08,-89.36 544.08,-103.36 544.08,-103.36 544.08,-109.36 538.08,-115.36 532.08,-115.36"/>
<text text-anchor="middle" x="457.58" y="-100.16" font-family="Times,serif" font-size="14.00">M1S1</text>
<text text-anchor="middle" x="457.58" y="-85.16" font-family="Times,serif" font-size="14.00"> &#160;&#160;&#160;&#160;&#160;&#160;&#160;&#160;&#160;&#160;&#160;&#160;&#160;&#160;&#160;&#160;&#160;&#160;&#160;Loadcells</text>
</g>
<!-- 13734935183375864922 -->
<g id="node8" class="node">
<title>13734935183375864922</title>
<ellipse fill="#3d3d3d" stroke="lightgray" cx="359.72" cy="-109.48" rx="1.8" ry="1.8"/>
</g>
<!-- 5415970854442737504&#45;&gt;13734935183375864922 -->
<g id="edge3" class="edge">
<title>5415970854442737504&#45;&gt;13734935183375864922</title>
<path fill="none" stroke="#d95f02" stroke-width="2" d="M370.95,-107.97C366.87,-108.52 363.67,-108.95 361.75,-109.2"/>
</g>
<!-- 13850291169344893125 -->
<g id="node4" class="node">
<title>13850291169344893125</title>
<path fill="lightgray" stroke="black" d="M214,-237.28C214,-237.28 12,-237.28 12,-237.28 6,-237.28 0,-231.28 0,-225.28 0,-225.28 0,-211.28 0,-211.28 0,-205.28 6,-199.28 12,-199.28 12,-199.28 214,-199.28 214,-199.28 220,-199.28 226,-205.28 226,-211.28 226,-211.28 226,-225.28 226,-225.28 226,-231.28 220,-237.28 214,-237.28"/>
<text text-anchor="middle" x="113" y="-222.08" font-family="Times,serif" font-size="14.00">M1S1</text>
<text text-anchor="middle" x="113" y="-207.08" font-family="Times,serif" font-size="14.00"> &#160;&#160;&#160;&#160;&#160;&#160;&#160;&#160;&#160;&#160;&#160;&#160;&#160;&#160;&#160;&#160;&#160;&#160;&#160;Actuators Inputs</text>
</g>
<!-- 14217526540371448765 -->
<g id="node9" class="node">
<title>14217526540371448765</title>
<ellipse fill="#3d3d3d" stroke="lightgray" cx="191.05" cy="-169.18" rx="1.8" ry="1.8"/>
</g>
<!-- 13850291169344893125&#45;&gt;14217526540371448765 -->
<g id="edge4" class="edge">
<title>13850291169344893125&#45;&gt;14217526540371448765</title>
<path fill="none" stroke="#d95f02" d="M143.4,-199.16C161.89,-187.53 183.1,-174.18 189.27,-170.3"/>
</g>
<!-- 16625943216170358616 -->
<g id="node5" class="node">
<title>16625943216170358616</title>
<path fill="lightgray" stroke="black" d="M337.92,-120.71C337.92,-120.71 185.92,-120.71 185.92,-120.71 179.92,-120.71 173.92,-114.71 173.92,-108.71 173.92,-108.71 173.92,-94.71 173.92,-94.71 173.92,-88.71 179.92,-82.71 185.92,-82.71 185.92,-82.71 337.92,-82.71 337.92,-82.71 343.92,-82.71 349.92,-88.71 349.92,-94.71 349.92,-94.71 349.92,-108.71 349.92,-108.71 349.92,-114.71 343.92,-120.71 337.92,-120.71"/>
<text text-anchor="middle" x="261.92" y="-105.51" font-family="Times,serif" font-size="14.00">M1S1</text>
<text text-anchor="middle" x="261.92" y="-90.51" font-family="Times,serif" font-size="14.00"> &#160;&#160;&#160;&#160;&#160;&#160;&#160;&#160;&#160;&#160;&#160;&#160;&#160;&#160;&#160;&#160;&#160;&#160;&#160;Actuators</text>
</g>
<!-- 16963285381156722616 -->
<g id="node10" class="node">
<title>16963285381156722616</title>
<ellipse fill="#3d3d3d" stroke="lightgray" cx="215.58" cy="-13.25" rx="1.8" ry="1.8"/>
</g>
<!-- 16625943216170358616&#45;&gt;16963285381156722616 -->
<g id="edge5" class="edge">
<title>16625943216170358616&#45;&gt;16963285381156722616</title>
<path fill="none" stroke="#1b9e77" d="M251.87,-82.51C239.94,-59.75 221.1,-23.79 216.58,-15.16"/>
</g>
<!-- 9593768862212529189&#45;&gt;3304766857151690073 -->
<g id="edge6" class="edge">
<title>9593768862212529189&#45;&gt;3304766857151690073</title>
<path fill="none" stroke="#1b9e77" d="M683.5,-257.46C678.61,-254.53 663.4,-245.42 647.85,-236.11"/>
<polygon fill="#1b9e77" stroke="#1b9e77" points="639.24,-230.95 650.13,-232.23 643.53,-233.52 647.82,-236.09 647.82,-236.09 647.82,-236.09 643.53,-233.52 645.51,-239.95 639.24,-230.95 639.24,-230.95"/>
<text text-anchor="middle" x="639.35" y="-246.99" font-family="Times,serif" font-size="9.00" fill="lightgray">RBM&lt;1&gt;</text>
</g>
<!-- 13254462184774527690&#45;&gt;5415970854442737504 -->
<g id="edge7" class="edge">
<title>13254462184774527690&#45;&gt;5415970854442737504</title>
<path fill="none" stroke="#1b9e77" d="M528.64,-160.29C523.13,-155.33 503.6,-137.76 486.4,-122.29"/>
<polygon fill="#1b9e77" stroke="#1b9e77" points="478.73,-115.39 489.17,-118.73 482.44,-118.73 486.16,-122.07 486.16,-122.07 486.16,-122.07 482.44,-118.73 483.15,-125.42 478.73,-115.39 478.73,-115.39"/>
<text text-anchor="middle" x="451.9" y="-140.84" font-family="Times,serif" font-size="9.00" fill="lightgray">HardpointsForces&lt;1&gt;</text>
</g>
<!-- 13734935183375864922&#45;&gt;16625943216170358616 -->
<g id="edge10" class="edge">
<title>13734935183375864922&#45;&gt;16625943216170358616</title>
<path fill="none" stroke="#d95f02" d="M357.68,-109.31C357.58,-109.31 357.47,-109.3 357.36,-109.29"/>
<polygon fill="#d95f02" stroke="#d95f02" points="350.19,-108.72 360.52,-105.02 355.18,-109.11 360.16,-109.51 360.16,-109.51 360.16,-109.51 355.18,-109.11 359.81,-114 350.19,-108.72 350.19,-108.72"/>
<text text-anchor="middle" x="305.9" y="-112.09" font-family="Times,serif" font-size="9.00" fill="lightgray">BarycentricForce&lt;1&gt;</text>
</g>
<!-- 14217526540371448765&#45;&gt;16625943216170358616 -->
<g id="edge9" class="edge">
<title>14217526540371448765&#45;&gt;16625943216170358616</title>
<path fill="none" stroke="#d95f02" d="M192.53,-167.77C197.97,-162.59 217.47,-144.03 234.41,-127.9"/>
<polygon fill="#d95f02" stroke="#d95f02" points="241.96,-120.71 237.82,-130.87 238.34,-124.16 234.72,-127.61 234.72,-127.61 234.72,-127.61 238.34,-124.16 231.61,-124.35 241.96,-120.71 241.96,-120.71"/>
<text text-anchor="middle" x="147.6" y="-147.18" font-family="Times,serif" font-size="9.00" fill="lightgray">ActuatorCommandForces&lt;1&gt;</text>
</g>
<!-- 6844289949833130077 -->
<g id="node11" class="node">
<title>6844289949833130077</title>
<ellipse fill="#3d3d3d" stroke="lightgray" cx="492.52" cy="-1.8" rx="1.8" ry="1.8"/>
</g>
<!-- 6844289949833130077&#45;&gt;5415970854442737504 -->
<g id="edge8" class="edge">
<title>6844289949833130077&#45;&gt;5415970854442737504</title>
<path fill="none" stroke="#1b9e77" d="M491.79,-3.77C488.77,-11.93 477.03,-43.71 468.14,-67.78"/>
<polygon fill="#1b9e77" stroke="#1b9e77" points="464.65,-77.2 463.9,-66.26 466.39,-72.51 468.12,-67.82 468.12,-67.82 468.12,-67.82 466.39,-72.51 472.34,-69.38 464.65,-77.2 464.65,-77.2"/>
<text text-anchor="middle" x="425.18" y="-43.4" font-family="Times,serif" font-size="9.00" fill="lightgray">HardpointsMotion&lt;1&gt;</text>
</g>
</g>
</svg>
