<?xml version="1.0" encoding="UTF-8" standalone="no"?>
<!DOCTYPE svg PUBLIC "-//W3C//DTD SVG 1.1//EN"
 "http://www.w3.org/Graphics/SVG/1.1/DTD/svg11.dtd">
<!-- Generated by graphviz version 2.43.0 (0)
 -->
<!-- Title: G Pages: 1 -->
<svg width="382pt" height="387pt"
 viewBox="0.00 0.00 381.98 387.48" xmlns="http://www.w3.org/2000/svg" xmlns:xlink="http://www.w3.org/1999/xlink">
<g id="graph0" class="graph" transform="scale(1 1) rotate(0) translate(4 383.48)">
<title>G</title>
<polygon fill="#3d3d3d" stroke="transparent" points="-4,4 -4,-383.48 377.98,-383.48 377.98,4 -4,4"/>
<!-- 14320145240822928344 -->
<g id="node1" class="node">
<title>14320145240822928344</title>
<path fill="lightgray" stroke="black" d="M361.98,-74.22C361.98,-74.22 198.98,-74.22 198.98,-74.22 192.98,-74.22 186.98,-68.22 186.98,-62.22 186.98,-62.22 186.98,-48.22 186.98,-48.22 186.98,-42.22 192.98,-36.22 198.98,-36.22 198.98,-36.22 361.98,-36.22 361.98,-36.22 367.98,-36.22 373.98,-42.22 373.98,-48.22 373.98,-48.22 373.98,-62.22 373.98,-62.22 373.98,-68.22 367.98,-74.22 361.98,-74.22"/>
<text text-anchor="middle" x="280.48" y="-59.02" font-family="Times,serif" font-size="14.00">M1S1</text>
<text text-anchor="middle" x="280.48" y="-44.02" font-family="Times,serif" font-size="14.00"> &#160;&#160;&#160;&#160;&#160;&#160;&#160;&#160;&#160;&#160;&#160;&#160;&#160;&#160;&#160;&#160;&#160;&#160;&#160;Hardpoints</text>
</g>
<!-- 13254462184774527690 -->
<g id="node4" class="node">
<title>13254462184774527690</title>
<ellipse fill="#3d3d3d" stroke="lightgray" cx="233.76" cy="-113.16" rx="1.8" ry="1.8"/>
</g>
<!-- 14320145240822928344&#45;&gt;13254462184774527690 -->
<g id="edge1" class="edge">
<title>14320145240822928344&#45;&gt;13254462184774527690</title>
<path fill="none" stroke="#1b9e77" d="M264.93,-74.51C253.46,-88.73 239.16,-106.47 234.97,-111.66"/>
</g>
<!-- 9370727727190305725 -->
<g id="node2" class="node">
<title>9370727727190305725</title>
<path fill="lightgray" stroke="black" d="M251.56,-186.94C251.56,-186.94 102.56,-186.94 102.56,-186.94 96.56,-186.94 90.56,-180.94 90.56,-174.94 90.56,-174.94 90.56,-160.94 90.56,-160.94 90.56,-154.94 96.56,-148.94 102.56,-148.94 102.56,-148.94 251.56,-148.94 251.56,-148.94 257.56,-148.94 263.56,-154.94 263.56,-160.94 263.56,-160.94 263.56,-174.94 263.56,-174.94 263.56,-180.94 257.56,-186.94 251.56,-186.94"/>
<text text-anchor="middle" x="177.06" y="-171.74" font-family="Times,serif" font-size="14.00">M1S1</text>
<text text-anchor="middle" x="177.06" y="-156.74" font-family="Times,serif" font-size="14.00"> &#160;&#160;&#160;&#160;&#160;&#160;&#160;&#160;&#160;&#160;&#160;&#160;&#160;&#160;&#160;&#160;&#160;&#160;&#160;Loadcells</text>
</g>
<!-- 13734935183375864922 -->
<g id="node5" class="node">
<title>13734935183375864922</title>
<ellipse fill="#3d3d3d" stroke="lightgray" cx="184.04" cy="-247.04" rx="1.8" ry="1.8"/>
</g>
<!-- 9370727727190305725&#45;&gt;13734935183375864922 -->
<g id="edge2" class="edge">
<title>9370727727190305725&#45;&gt;13734935183375864922</title>
<path fill="none" stroke="#d95f02" stroke-width="2" d="M178.75,-187.09C180.53,-207.21 183.16,-237.02 183.86,-245.01"/>
</g>
<!-- 18355315885655082220 -->
<g id="node3" class="node">
<title>18355315885655082220</title>
<path fill="lightgray" stroke="black" d="M258.54,-344.45C258.54,-344.45 106.54,-344.45 106.54,-344.45 100.54,-344.45 94.54,-338.45 94.54,-332.45 94.54,-332.45 94.54,-318.45 94.54,-318.45 94.54,-312.45 100.54,-306.45 106.54,-306.45 106.54,-306.45 258.54,-306.45 258.54,-306.45 264.54,-306.45 270.54,-312.45 270.54,-318.45 270.54,-318.45 270.54,-332.45 270.54,-332.45 270.54,-338.45 264.54,-344.45 258.54,-344.45"/>
<text text-anchor="middle" x="182.54" y="-329.25" font-family="Times,serif" font-size="14.00">M1S1</text>
<text text-anchor="middle" x="182.54" y="-314.25" font-family="Times,serif" font-size="14.00"> &#160;&#160;&#160;&#160;&#160;&#160;&#160;&#160;&#160;&#160;&#160;&#160;&#160;&#160;&#160;&#160;&#160;&#160;&#160;Actuators</text>
</g>
<!-- 16963285381156722616 -->
<g id="node6" class="node">
<title>16963285381156722616</title>
<ellipse fill="#3d3d3d" stroke="lightgray" cx="241.8" cy="-377.68" rx="1.8" ry="1.8"/>
</g>
<!-- 18355315885655082220&#45;&gt;16963285381156722616 -->
<g id="edge3" class="edge">
<title>18355315885655082220&#45;&gt;16963285381156722616</title>
<path fill="none" stroke="#1b9e77" d="M204.27,-344.6C218.54,-357.18 235.45,-372.08 240.39,-376.43"/>
</g>
<!-- 13254462184774527690&#45;&gt;9370727727190305725 -->
<g id="edge5" class="edge">
<title>13254462184774527690&#45;&gt;9370727727190305725</title>
<path fill="none" stroke="#1b9e77" d="M232.36,-114.51C228.29,-118.44 216.02,-130.3 204.06,-141.86"/>
<polygon fill="#1b9e77" stroke="#1b9e77" points="196.73,-148.94 200.8,-138.75 200.33,-145.46 203.92,-141.99 203.92,-141.99 203.92,-141.99 200.33,-145.46 207.05,-145.22 196.73,-148.94 196.73,-148.94"/>
<text text-anchor="middle" x="162.57" y="-134.5" font-family="Times,serif" font-size="9.00" fill="lightgray">HardpointsForces&lt;1&gt;</text>
</g>
<!-- 13734935183375864922&#45;&gt;18355315885655082220 -->
<g id="edge8" class="edge">
<title>13734935183375864922&#45;&gt;18355315885655082220</title>
<path fill="none" stroke="#d95f02" d="M184,-248.98C183.88,-255.51 183.46,-277.38 183.1,-296.07"/>
<polygon fill="#d95f02" stroke="#d95f02" points="182.9,-306.28 178.6,-296.2 183,-301.28 183.1,-296.28 183.1,-296.28 183.1,-296.28 183,-301.28 187.6,-296.37 182.9,-306.28 182.9,-306.28"/>
<text text-anchor="middle" x="131.95" y="-280.54" font-family="Times,serif" font-size="9.00" fill="lightgray">BarycentricForce&lt;1&gt;</text>
</g>
<!-- 10901010791771574459 -->
<g id="node7" class="node">
<title>10901010791771574459</title>
<ellipse fill="#3d3d3d" stroke="lightgray" cx="330.3" cy="-1.8" rx="1.8" ry="1.8"/>
</g>
<!-- 10901010791771574459&#45;&gt;14320145240822928344 -->
<g id="edge4" class="edge">
<title>10901010791771574459&#45;&gt;14320145240822928344</title>
<path fill="none" stroke="#1b9e77" d="M329.07,-3.12C325.61,-6.83 315.4,-17.78 305.23,-28.69"/>
<polygon fill="#1b9e77" stroke="#1b9e77" points="298.27,-36.14 301.8,-25.76 301.68,-32.49 305.09,-28.83 305.09,-28.83 305.09,-28.83 301.68,-32.49 308.39,-31.9 298.27,-36.14 298.27,-36.14"/>
<text text-anchor="middle" x="291.67" y="-22.43" font-family="Times,serif" font-size="9.00" fill="lightgray">RBM&lt;1&gt;</text>
</g>
<!-- 17060268248001869314 -->
<g id="node8" class="node">
<title>17060268248001869314</title>
<ellipse fill="#3d3d3d" stroke="lightgray" cx="103.04" cy="-135.33" rx="1.8" ry="1.8"/>
</g>
<!-- 17060268248001869314&#45;&gt;9370727727190305725 -->
<g id="edge6" class="edge">
<title>17060268248001869314&#45;&gt;9370727727190305725</title>
<path fill="none" stroke="#1b9e77" d="M104.87,-136.14C108.18,-137.6 115.64,-140.88 124.57,-144.82"/>
<polygon fill="#1b9e77" stroke="#1b9e77" points="133.88,-148.92 122.92,-149.01 129.31,-146.9 124.73,-144.89 124.73,-144.89 124.73,-144.89 129.31,-146.9 126.55,-140.77 133.88,-148.92 133.88,-148.92"/>
<text text-anchor="middle" x="66.33" y="-135.31" font-family="Times,serif" font-size="9.00" fill="lightgray">HardpointsMotion&lt;1&gt;</text>
</g>
<!-- 17850338592001803333 -->
<g id="node9" class="node">
<title>17850338592001803333</title>
<ellipse fill="#3d3d3d" stroke="lightgray" cx="119.28" cy="-372.95" rx="1.8" ry="1.8"/>
</g>
<!-- 17850338592001803333&#45;&gt;18355315885655082220 -->
<g id="edge7" class="edge">
<title>17850338592001803333&#45;&gt;18355315885655082220</title>
<path fill="none" stroke="#d95f02" d="M120.84,-371.78C124.95,-368.69 136.59,-359.96 148.66,-350.89"/>
<polygon fill="#d95f02" stroke="#d95f02" points="157,-344.63 151.71,-354.23 153,-347.63 149,-350.63 149,-350.63 149,-350.63 153,-347.63 146.3,-347.03 157,-344.63 157,-344.63"/>
<text text-anchor="middle" x="69.5" y="-360.94" font-family="Times,serif" font-size="9.00" fill="lightgray">ActuatorCommandForces&lt;1&gt;</text>
</g>
</g>
</svg>
