<?xml version="1.0" encoding="UTF-8" standalone="no"?>
<!DOCTYPE svg PUBLIC "-//W3C//DTD SVG 1.1//EN"
 "http://www.w3.org/Graphics/SVG/1.1/DTD/svg11.dtd">
<!-- Generated by graphviz version 2.43.0 (0)
 -->
<!-- Title: G Pages: 1 -->
<svg width="844pt" height="340pt"
 viewBox="0.00 0.00 844.27 340.15" xmlns="http://www.w3.org/2000/svg" xmlns:xlink="http://www.w3.org/1999/xlink">
<g id="graph0" class="graph" transform="scale(1 1) rotate(0) translate(4 336.15)">
<title>G</title>
<polygon fill="#3d3d3d" stroke="transparent" points="-4,4 -4,-336.15 840.27,-336.15 840.27,4 -4,4"/>
<!-- 2840948173961713372 -->
<g id="node1" class="node">
<title>2840948173961713372</title>
<path fill="lightgray" stroke="black" d="M144,-38C144,-38 12,-38 12,-38 6,-38 0,-32 0,-26 0,-26 0,-12 0,-12 0,-6 6,0 12,0 12,0 144,0 144,0 150,0 156,-6 156,-12 156,-12 156,-26 156,-26 156,-32 150,-38 144,-38"/>
<text text-anchor="middle" x="78" y="-22.8" font-family="Times,serif" font-size="14.00">M1S1</text>
<text text-anchor="middle" x="78" y="-7.8" font-family="Times,serif" font-size="14.00"> &#160;&#160;&#160;&#160;&#160;&#160;&#160;&#160;&#160;&#160;&#160;RBM Inputs</text>
</g>
<!-- 9593768862212529189 -->
<g id="node6" class="node">
<title>9593768862212529189</title>
<ellipse fill="#3d3d3d" stroke="lightgray" cx="152.13" cy="-69.51" rx="1.8" ry="1.8"/>
</g>
<!-- 2840948173961713372&#45;&gt;9593768862212529189 -->
<g id="edge1" class="edge">
<title>2840948173961713372&#45;&gt;9593768862212529189</title>
<path fill="none" stroke="#1b9e77" d="M106.03,-38.09C123.74,-50.16 144.39,-64.23 150.41,-68.33"/>
</g>
<!-- 3304766857151690073 -->
<g id="node2" class="node">
<title>3304766857151690073</title>
<path fill="lightgray" stroke="black" d="M309.07,-138.51C309.07,-138.51 146.07,-138.51 146.07,-138.51 140.07,-138.51 134.07,-132.51 134.07,-126.51 134.07,-126.51 134.07,-112.51 134.07,-112.51 134.07,-106.51 140.07,-100.51 146.07,-100.51 146.07,-100.51 309.07,-100.51 309.07,-100.51 315.07,-100.51 321.07,-106.51 321.07,-112.51 321.07,-112.51 321.07,-126.51 321.07,-126.51 321.07,-132.51 315.07,-138.51 309.07,-138.51"/>
<text text-anchor="middle" x="227.57" y="-123.31" font-family="Times,serif" font-size="14.00">M1S1</text>
<text text-anchor="middle" x="227.57" y="-108.31" font-family="Times,serif" font-size="14.00"> &#160;&#160;&#160;&#160;&#160;&#160;&#160;&#160;&#160;&#160;&#160;&#160;&#160;&#160;&#160;&#160;&#160;&#160;&#160;Hardpoints</text>
</g>
<!-- 13254462184774527690 -->
<g id="node7" class="node">
<title>13254462184774527690</title>
<ellipse fill="#3d3d3d" stroke="lightgray" cx="304.84" cy="-169.91" rx="1.8" ry="1.8"/>
</g>
<!-- 3304766857151690073&#45;&gt;13254462184774527690 -->
<g id="edge2" class="edge">
<title>3304766857151690073&#45;&gt;13254462184774527690</title>
<path fill="none" stroke="#1b9e77" d="M256.79,-138.56C275.25,-150.61 296.77,-164.64 303.04,-168.73"/>
</g>
<!-- 5415970854442737504 -->
<g id="node3" class="node">
<title>5415970854442737504</title>
<path fill="lightgray" stroke="black" d="M451.31,-255.02C451.31,-255.02 302.31,-255.02 302.31,-255.02 296.31,-255.02 290.31,-249.02 290.31,-243.02 290.31,-243.02 290.31,-229.02 290.31,-229.02 290.31,-223.02 296.31,-217.02 302.31,-217.02 302.31,-217.02 451.31,-217.02 451.31,-217.02 457.31,-217.02 463.31,-223.02 463.31,-229.02 463.31,-229.02 463.31,-243.02 463.31,-243.02 463.31,-249.02 457.31,-255.02 451.31,-255.02"/>
<text text-anchor="middle" x="376.81" y="-239.82" font-family="Times,serif" font-size="14.00">M1S1</text>
<text text-anchor="middle" x="376.81" y="-224.82" font-family="Times,serif" font-size="14.00"> &#160;&#160;&#160;&#160;&#160;&#160;&#160;&#160;&#160;&#160;&#160;&#160;&#160;&#160;&#160;&#160;&#160;&#160;&#160;Loadcells</text>
</g>
<!-- 13734935183375864922 -->
<g id="node8" class="node">
<title>13734935183375864922</title>
<ellipse fill="#3d3d3d" stroke="lightgray" cx="474.86" cy="-223.65" rx="1.8" ry="1.8"/>
</g>
<!-- 5415970854442737504&#45;&gt;13734935183375864922 -->
<g id="edge3" class="edge">
<title>5415970854442737504&#45;&gt;13734935183375864922</title>
<path fill="none" stroke="#d95f02" stroke-width="2" d="M463.61,-225.07C467.7,-224.55 470.9,-224.15 472.82,-223.9"/>
</g>
<!-- 13850291169344893125 -->
<g id="node4" class="node">
<title>13850291169344893125</title>
<path fill="lightgray" stroke="black" d="M824.27,-137.09C824.27,-137.09 622.27,-137.09 622.27,-137.09 616.27,-137.09 610.27,-131.09 610.27,-125.09 610.27,-125.09 610.27,-111.09 610.27,-111.09 610.27,-105.09 616.27,-99.09 622.27,-99.09 622.27,-99.09 824.27,-99.09 824.27,-99.09 830.27,-99.09 836.27,-105.09 836.27,-111.09 836.27,-111.09 836.27,-125.09 836.27,-125.09 836.27,-131.09 830.27,-137.09 824.27,-137.09"/>
<text text-anchor="middle" x="723.27" y="-121.89" font-family="Times,serif" font-size="14.00">M1S1</text>
<text text-anchor="middle" x="723.27" y="-106.89" font-family="Times,serif" font-size="14.00"> &#160;&#160;&#160;&#160;&#160;&#160;&#160;&#160;&#160;&#160;&#160;&#160;&#160;&#160;&#160;&#160;&#160;&#160;&#160;Actuators Inputs</text>
</g>
<!-- 14217526540371448765 -->
<g id="node9" class="node">
<title>14217526540371448765</title>
<ellipse fill="#3d3d3d" stroke="lightgray" cx="644.29" cy="-165.84" rx="1.8" ry="1.8"/>
</g>
<!-- 13850291169344893125&#45;&gt;14217526540371448765 -->
<g id="edge4" class="edge">
<title>13850291169344893125&#45;&gt;14217526540371448765</title>
<path fill="none" stroke="#d95f02" d="M691.6,-137.24C673.06,-148.44 652.12,-161.1 646.03,-164.78"/>
</g>
<!-- 16625943216170358616 -->
<g id="node5" class="node">
<title>16625943216170358616</title>
<path fill="lightgray" stroke="black" d="M648.66,-251.66C648.66,-251.66 496.66,-251.66 496.66,-251.66 490.66,-251.66 484.66,-245.66 484.66,-239.66 484.66,-239.66 484.66,-225.66 484.66,-225.66 484.66,-219.66 490.66,-213.66 496.66,-213.66 496.66,-213.66 648.66,-213.66 648.66,-213.66 654.66,-213.66 660.66,-219.66 660.66,-225.66 660.66,-225.66 660.66,-239.66 660.66,-239.66 660.66,-245.66 654.66,-251.66 648.66,-251.66"/>
<text text-anchor="middle" x="572.66" y="-236.46" font-family="Times,serif" font-size="14.00">M1S1</text>
<text text-anchor="middle" x="572.66" y="-221.46" font-family="Times,serif" font-size="14.00"> &#160;&#160;&#160;&#160;&#160;&#160;&#160;&#160;&#160;&#160;&#160;&#160;&#160;&#160;&#160;&#160;&#160;&#160;&#160;Actuators</text>
</g>
<!-- 16963285381156722616 -->
<g id="node10" class="node">
<title>16963285381156722616</title>
<ellipse fill="#3d3d3d" stroke="lightgray" cx="618.02" cy="-321.73" rx="1.8" ry="1.8"/>
</g>
<!-- 16625943216170358616&#45;&gt;16963285381156722616 -->
<g id="edge5" class="edge">
<title>16625943216170358616&#45;&gt;16963285381156722616</title>
<path fill="none" stroke="#1b9e77" d="M582.5,-251.99C594.18,-274.91 612.62,-311.12 617.04,-319.81"/>
</g>
<!-- 9593768862212529189&#45;&gt;3304766857151690073 -->
<g id="edge6" class="edge">
<title>9593768862212529189&#45;&gt;3304766857151690073</title>
<path fill="none" stroke="#1b9e77" d="M153.71,-70.55C158.64,-73.82 174.36,-84.24 190.05,-94.64"/>
<polygon fill="#1b9e77" stroke="#1b9e77" points="198.68,-100.36 187.86,-98.59 194.52,-97.6 190.35,-94.84 190.35,-94.84 190.35,-94.84 194.52,-97.6 192.83,-91.09 198.68,-100.36 198.68,-100.36"/>
<text text-anchor="middle" x="154.35" y="-88.36" font-family="Times,serif" font-size="9.00" fill="lightgray">RBM&lt;1&gt;</text>
</g>
<!-- 13254462184774527690&#45;&gt;5415970854442737504 -->
<g id="edge7" class="edge">
<title>13254462184774527690&#45;&gt;5415970854442737504</title>
<path fill="none" stroke="#1b9e77" d="M306.34,-171.29C311.81,-176.31 331.17,-194.09 348.23,-209.76"/>
<polygon fill="#1b9e77" stroke="#1b9e77" points="355.84,-216.75 345.43,-213.3 352.16,-213.37 348.47,-209.99 348.47,-209.99 348.47,-209.99 352.16,-213.37 351.52,-206.67 355.84,-216.75 355.84,-216.75"/>
<text text-anchor="middle" x="278.87" y="-196.62" font-family="Times,serif" font-size="9.00" fill="lightgray">HardpointsForces&lt;1&gt;</text>
</g>
<!-- 13734935183375864922&#45;&gt;16625943216170358616 -->
<g id="edge10" class="edge">
<title>13734935183375864922&#45;&gt;16625943216170358616</title>
<path fill="none" stroke="#d95f02" d="M476.9,-223.84C477,-223.85 477.11,-223.85 477.22,-223.87"/>
<polygon fill="#d95f02" stroke="#d95f02" points="484.38,-224.53 474.01,-228.09 479.41,-224.07 474.43,-223.61 474.43,-223.61 474.43,-223.61 479.41,-224.07 474.84,-219.13 484.38,-224.53 484.38,-224.53"/>
<text text-anchor="middle" x="451.43" y="-216.66" font-family="Times,serif" font-size="9.00" fill="lightgray">BarycentricForce&lt;1&gt;</text>
</g>
<!-- 14217526540371448765&#45;&gt;16625943216170358616 -->
<g id="edge9" class="edge">
<title>14217526540371448765&#45;&gt;16625943216170358616</title>
<path fill="none" stroke="#d95f02" d="M642.79,-167.23C637.32,-172.34 617.83,-190.52 600.78,-206.42"/>
<polygon fill="#d95f02" stroke="#d95f02" points="593.18,-213.51 597.42,-203.4 596.84,-210.1 600.49,-206.69 600.49,-206.69 600.49,-206.69 596.84,-210.1 603.56,-209.98 593.18,-213.51 593.18,-213.51"/>
<text text-anchor="middle" x="548.67" y="-193.01" font-family="Times,serif" font-size="9.00" fill="lightgray">ActuatorCommandForces&lt;1&gt;</text>
</g>
<!-- 6844289949833130077 -->
<g id="node11" class="node">
<title>6844289949833130077</title>
<ellipse fill="#3d3d3d" stroke="lightgray" cx="341" cy="-330.35" rx="1.8" ry="1.8"/>
</g>
<!-- 6844289949833130077&#45;&gt;5415970854442737504 -->
<g id="edge8" class="edge">
<title>6844289949833130077&#45;&gt;5415970854442737504</title>
<path fill="none" stroke="#1b9e77" d="M341.75,-328.38C344.84,-320.24 356.87,-288.54 365.99,-264.53"/>
<polygon fill="#1b9e77" stroke="#1b9e77" points="369.56,-255.12 370.22,-266.07 367.79,-259.8 366.01,-264.47 366.01,-264.47 366.01,-264.47 367.79,-259.8 361.8,-262.87 369.56,-255.12 369.56,-255.12"/>
<text text-anchor="middle" x="302.7" y="-294.44" font-family="Times,serif" font-size="9.00" fill="lightgray">HardpointsMotion&lt;1&gt;</text>
</g>
</g>
</svg>
