<?xml version="1.0" encoding="UTF-8" standalone="no"?>
<!DOCTYPE svg PUBLIC "-//W3C//DTD SVG 1.1//EN"
 "http://www.w3.org/Graphics/SVG/1.1/DTD/svg11.dtd">
<!-- Generated by graphviz version 2.43.0 (0)
 -->
<!-- Title: G Pages: 1 -->
<svg width="611pt" height="541pt"
 viewBox="0.00 0.00 610.71 541.32" xmlns="http://www.w3.org/2000/svg" xmlns:xlink="http://www.w3.org/1999/xlink">
<g id="graph0" class="graph" transform="scale(1 1) rotate(0) translate(4 537.32)">
<title>G</title>
<polygon fill="#3d3d3d" stroke="transparent" points="-4,4 -4,-537.32 606.71,-537.32 606.71,4 -4,4"/>
<!-- 2840948173961713372 -->
<g id="node1" class="node">
<title>2840948173961713372</title>
<path fill="lightgray" stroke="black" d="M144,-533.32C144,-533.32 12,-533.32 12,-533.32 6,-533.32 0,-527.32 0,-521.32 0,-521.32 0,-507.32 0,-507.32 0,-501.32 6,-495.32 12,-495.32 12,-495.32 144,-495.32 144,-495.32 150,-495.32 156,-501.32 156,-507.32 156,-507.32 156,-521.32 156,-521.32 156,-527.32 150,-533.32 144,-533.32"/>
<text text-anchor="middle" x="78" y="-518.12" font-family="Times,serif" font-size="14.00">M1S1</text>
<text text-anchor="middle" x="78" y="-503.12" font-family="Times,serif" font-size="14.00"> &#160;&#160;&#160;&#160;&#160;&#160;&#160;&#160;&#160;&#160;&#160;RBM Inputs</text>
</g>
<!-- 9593768862212529189 -->
<g id="node6" class="node">
<title>9593768862212529189</title>
<ellipse fill="#3d3d3d" stroke="lightgray" cx="160.18" cy="-482.74" rx="1.8" ry="1.8"/>
</g>
<!-- 2840948173961713372&#45;&gt;9593768862212529189 -->
<g id="edge1" class="edge">
<title>2840948173961713372&#45;&gt;9593768862212529189</title>
<path fill="none" stroke="#1b9e77" d="M127.7,-495.22C141.49,-489.92 153.92,-485.15 158.41,-483.42"/>
</g>
<!-- 3304766857151690073 -->
<g id="node2" class="node">
<title>3304766857151690073</title>
<path fill="lightgray" stroke="black" d="M319.56,-459.18C319.56,-459.18 156.56,-459.18 156.56,-459.18 150.56,-459.18 144.56,-453.18 144.56,-447.18 144.56,-447.18 144.56,-433.18 144.56,-433.18 144.56,-427.18 150.56,-421.18 156.56,-421.18 156.56,-421.18 319.56,-421.18 319.56,-421.18 325.56,-421.18 331.56,-427.18 331.56,-433.18 331.56,-433.18 331.56,-447.18 331.56,-447.18 331.56,-453.18 325.56,-459.18 319.56,-459.18"/>
<text text-anchor="middle" x="238.06" y="-443.98" font-family="Times,serif" font-size="14.00">M1S1</text>
<text text-anchor="middle" x="238.06" y="-428.98" font-family="Times,serif" font-size="14.00"> &#160;&#160;&#160;&#160;&#160;&#160;&#160;&#160;&#160;&#160;&#160;&#160;&#160;&#160;&#160;&#160;&#160;&#160;&#160;Hardpoints</text>
</g>
<!-- 13254462184774527690 -->
<g id="node7" class="node">
<title>13254462184774527690</title>
<ellipse fill="#3d3d3d" stroke="lightgray" cx="318.93" cy="-399.7" rx="1.8" ry="1.8"/>
</g>
<!-- 3304766857151690073&#45;&gt;13254462184774527690 -->
<g id="edge2" class="edge">
<title>3304766857151690073&#45;&gt;13254462184774527690</title>
<path fill="none" stroke="#1b9e77" d="M276.13,-421.12C293.5,-412.43 311.45,-403.44 317.11,-400.61"/>
</g>
<!-- 5415970854442737504 -->
<g id="node3" class="node">
<title>5415970854442737504</title>
<path fill="lightgray" stroke="black" d="M484.75,-389.9C484.75,-389.9 335.75,-389.9 335.75,-389.9 329.75,-389.9 323.75,-383.9 323.75,-377.9 323.75,-377.9 323.75,-363.9 323.75,-363.9 323.75,-357.9 329.75,-351.9 335.75,-351.9 335.75,-351.9 484.75,-351.9 484.75,-351.9 490.75,-351.9 496.75,-357.9 496.75,-363.9 496.75,-363.9 496.75,-377.9 496.75,-377.9 496.75,-383.9 490.75,-389.9 484.75,-389.9"/>
<text text-anchor="middle" x="410.25" y="-374.7" font-family="Times,serif" font-size="14.00">M1S1</text>
<text text-anchor="middle" x="410.25" y="-359.7" font-family="Times,serif" font-size="14.00"> &#160;&#160;&#160;&#160;&#160;&#160;&#160;&#160;&#160;&#160;&#160;&#160;&#160;&#160;&#160;&#160;&#160;&#160;&#160;Loadcells</text>
</g>
<!-- 13734935183375864922 -->
<g id="node8" class="node">
<title>13734935183375864922</title>
<ellipse fill="#3d3d3d" stroke="lightgray" cx="447.77" cy="-281.64" rx="1.8" ry="1.8"/>
</g>
<!-- 5415970854442737504&#45;&gt;13734935183375864922 -->
<g id="edge3" class="edge">
<title>5415970854442737504&#45;&gt;13734935183375864922</title>
<path fill="none" stroke="#d95f02" stroke-width="2" d="M418.4,-351.53C428.05,-328.56 443.3,-292.27 446.96,-283.56"/>
</g>
<!-- 13850291169344893125 -->
<g id="node4" class="node">
<title>13850291169344893125</title>
<path fill="lightgray" stroke="black" d="M580,-38C580,-38 378,-38 378,-38 372,-38 366,-32 366,-26 366,-26 366,-12 366,-12 366,-6 372,0 378,0 378,0 580,0 580,0 586,0 592,-6 592,-12 592,-12 592,-26 592,-26 592,-32 586,-38 580,-38"/>
<text text-anchor="middle" x="479" y="-22.8" font-family="Times,serif" font-size="14.00">M1S1</text>
<text text-anchor="middle" x="479" y="-7.8" font-family="Times,serif" font-size="14.00"> &#160;&#160;&#160;&#160;&#160;&#160;&#160;&#160;&#160;&#160;&#160;&#160;&#160;&#160;&#160;&#160;&#160;&#160;&#160;Actuators Inputs</text>
</g>
<!-- 14217526540371448765 -->
<g id="node9" class="node">
<title>14217526540371448765</title>
<ellipse fill="#3d3d3d" stroke="lightgray" cx="481.28" cy="-109.41" rx="1.8" ry="1.8"/>
</g>
<!-- 13850291169344893125&#45;&gt;14217526540371448765 -->
<g id="edge4" class="edge">
<title>13850291169344893125&#45;&gt;14217526540371448765</title>
<path fill="none" stroke="#d95f02" d="M479.48,-38.17C480.07,-61.39 481.01,-98.52 481.23,-107.43"/>
</g>
<!-- 16625943216170358616 -->
<g id="node5" class="node">
<title>16625943216170358616</title>
<path fill="lightgray" stroke="black" d="M579.08,-221.88C579.08,-221.88 427.08,-221.88 427.08,-221.88 421.08,-221.88 415.08,-215.88 415.08,-209.88 415.08,-209.88 415.08,-195.88 415.08,-195.88 415.08,-189.88 421.08,-183.88 427.08,-183.88 427.08,-183.88 579.08,-183.88 579.08,-183.88 585.08,-183.88 591.08,-189.88 591.08,-195.88 591.08,-195.88 591.08,-209.88 591.08,-209.88 591.08,-215.88 585.08,-221.88 579.08,-221.88"/>
<text text-anchor="middle" x="503.08" y="-206.68" font-family="Times,serif" font-size="14.00">M1S1</text>
<text text-anchor="middle" x="503.08" y="-191.68" font-family="Times,serif" font-size="14.00"> &#160;&#160;&#160;&#160;&#160;&#160;&#160;&#160;&#160;&#160;&#160;&#160;&#160;&#160;&#160;&#160;&#160;&#160;&#160;Actuators</text>
</g>
<!-- 16963285381156722616 -->
<g id="node10" class="node">
<title>16963285381156722616</title>
<ellipse fill="#3d3d3d" stroke="lightgray" cx="600.91" cy="-207.77" rx="1.8" ry="1.8"/>
</g>
<!-- 16625943216170358616&#45;&gt;16963285381156722616 -->
<g id="edge5" class="edge">
<title>16625943216170358616&#45;&gt;16963285381156722616</title>
<path fill="none" stroke="#1b9e77" d="M591.17,-207.28C594.55,-207.45 597.21,-207.58 598.89,-207.67"/>
</g>
<!-- 9593768862212529189&#45;&gt;3304766857151690073 -->
<g id="edge6" class="edge">
<title>9593768862212529189&#45;&gt;3304766857151690073</title>
<path fill="none" stroke="#1b9e77" d="M161.8,-481.85C166.33,-479.38 179.66,-472.1 193.94,-464.29"/>
<polygon fill="#1b9e77" stroke="#1b9e77" points="202.88,-459.41 196.27,-468.15 198.5,-461.8 194.11,-464.2 194.11,-464.2 194.11,-464.2 198.5,-461.8 191.95,-460.25 202.88,-459.41 202.88,-459.41"/>
<text text-anchor="middle" x="160.29" y="-473.46" font-family="Times,serif" font-size="9.00" fill="lightgray">RBM&lt;1&gt;</text>
</g>
<!-- 13254462184774527690&#45;&gt;5415970854442737504 -->
<g id="edge7" class="edge">
<title>13254462184774527690&#45;&gt;5415970854442737504</title>
<path fill="none" stroke="#1b9e77" d="M320.84,-399.09C324.07,-398.07 331.14,-395.85 339.96,-393.06"/>
<polygon fill="#1b9e77" stroke="#1b9e77" points="349.69,-389.99 341.51,-397.29 344.93,-391.5 340.16,-393 340.16,-393 340.16,-393 344.93,-391.5 338.8,-388.71 349.69,-389.99 349.69,-389.99"/>
<text text-anchor="middle" x="387.2" y="-397.37" font-family="Times,serif" font-size="9.00" fill="lightgray">HardpointsForces&lt;1&gt;</text>
</g>
<!-- 13734935183375864922&#45;&gt;16625943216170358616 -->
<g id="edge10" class="edge">
<title>13734935183375864922&#45;&gt;16625943216170358616</title>
<path fill="none" stroke="#d95f02" d="M448.93,-279.99C453.41,-273.6 470.11,-249.83 483.79,-230.35"/>
<polygon fill="#d95f02" stroke="#d95f02" points="489.62,-222.06 487.55,-232.82 486.74,-226.15 483.87,-230.24 483.87,-230.24 483.87,-230.24 486.74,-226.15 480.19,-227.65 489.62,-222.06 489.62,-222.06"/>
<text text-anchor="middle" x="417.73" y="-253.88" font-family="Times,serif" font-size="9.00" fill="lightgray">BarycentricForce&lt;1&gt;</text>
</g>
<!-- 14217526540371448765&#45;&gt;16625943216170358616 -->
<g id="edge9" class="edge">
<title>14217526540371448765&#45;&gt;16625943216170358616</title>
<path fill="none" stroke="#d95f02" d="M481.74,-111.36C483.59,-119.31 490.73,-149.93 496.25,-173.59"/>
<polygon fill="#d95f02" stroke="#d95f02" points="498.57,-183.54 491.92,-174.82 497.44,-178.67 496.3,-173.8 496.3,-173.8 496.3,-173.8 497.44,-178.67 500.68,-172.78 498.57,-183.54 498.57,-183.54"/>
<text text-anchor="middle" x="420.63" y="-150.14" font-family="Times,serif" font-size="9.00" fill="lightgray">ActuatorCommandForces&lt;1&gt;</text>
</g>
<!-- 6844289949833130077 -->
<g id="node11" class="node">
<title>6844289949833130077</title>
<ellipse fill="#3d3d3d" stroke="lightgray" cx="472.83" cy="-447.44" rx="1.8" ry="1.8"/>
</g>
<!-- 6844289949833130077&#45;&gt;5415970854442737504 -->
<g id="edge8" class="edge">
<title>6844289949833130077&#45;&gt;5415970854442737504</title>
<path fill="none" stroke="#1b9e77" d="M471.52,-445.84C466.49,-439.68 447.84,-416.88 432.43,-398.03"/>
<polygon fill="#1b9e77" stroke="#1b9e77" points="426.08,-390.25 435.89,-395.14 429.24,-394.12 432.4,-397.99 432.4,-397.99 432.4,-397.99 429.24,-394.12 428.92,-400.84 426.08,-390.25 426.08,-390.25"/>
<text text-anchor="middle" x="395.79" y="-420.83" font-family="Times,serif" font-size="9.00" fill="lightgray">HardpointsMotion&lt;1&gt;</text>
</g>
</g>
</svg>
