<?xml version="1.0" encoding="UTF-8" standalone="no"?>
<!DOCTYPE svg PUBLIC "-//W3C//DTD SVG 1.1//EN"
 "http://www.w3.org/Graphics/SVG/1.1/DTD/svg11.dtd">
<!-- Generated by graphviz version 2.43.0 (0)
 -->
<!-- Title: G Pages: 1 -->
<svg width="458pt" height="723pt"
 viewBox="0.00 0.00 458.05 722.56" xmlns="http://www.w3.org/2000/svg" xmlns:xlink="http://www.w3.org/1999/xlink">
<g id="graph0" class="graph" transform="scale(1 1) rotate(0) translate(4 718.56)">
<title>G</title>
<polygon fill="#3d3d3d" stroke="transparent" points="-4,4 -4,-718.56 454.05,-718.56 454.05,4 -4,4"/>
<!-- 4759183791845599315 -->
<g id="node1" class="node">
<title>4759183791845599315</title>
<path fill="lightgray" stroke="black" d="M148.72,-714.56C148.72,-714.56 16.72,-714.56 16.72,-714.56 10.72,-714.56 4.72,-708.56 4.72,-702.56 4.72,-702.56 4.72,-688.56 4.72,-688.56 4.72,-682.56 10.72,-676.56 16.72,-676.56 16.72,-676.56 148.72,-676.56 148.72,-676.56 154.72,-676.56 160.72,-682.56 160.72,-688.56 160.72,-688.56 160.72,-702.56 160.72,-702.56 160.72,-708.56 154.72,-714.56 148.72,-714.56"/>
<text text-anchor="middle" x="82.72" y="-699.36" font-family="Times,serif" font-size="14.00">M1S1</text>
<text text-anchor="middle" x="82.72" y="-684.36" font-family="Times,serif" font-size="14.00"> &#160;&#160;&#160;&#160;&#160;&#160;&#160;&#160;&#160;&#160;&#160;RBM Inputs</text>
</g>
<!-- 9593768862212529189 -->
<g id="node6" class="node">
<title>9593768862212529189</title>
<ellipse fill="#3d3d3d" stroke="lightgray" cx="122.65" cy="-613.69" rx="1.8" ry="1.8"/>
</g>
<!-- 4759183791845599315&#45;&gt;9593768862212529189 -->
<g id="edge1" class="edge">
<title>4759183791845599315&#45;&gt;9593768862212529189</title>
<path fill="none" stroke="#1b9e77" d="M92.18,-676.15C102.51,-654.97 118.09,-623.04 121.82,-615.38"/>
</g>
<!-- 9142816102510844646 -->
<g id="node2" class="node">
<title>9142816102510844646</title>
<path fill="lightgray" stroke="black" d="M230.74,-544.86C230.74,-544.86 67.74,-544.86 67.74,-544.86 61.74,-544.86 55.74,-538.86 55.74,-532.86 55.74,-532.86 55.74,-518.86 55.74,-518.86 55.74,-512.86 61.74,-506.86 67.74,-506.86 67.74,-506.86 230.74,-506.86 230.74,-506.86 236.74,-506.86 242.74,-512.86 242.74,-518.86 242.74,-518.86 242.74,-532.86 242.74,-532.86 242.74,-538.86 236.74,-544.86 230.74,-544.86"/>
<text text-anchor="middle" x="149.24" y="-529.66" font-family="Times,serif" font-size="14.00">M1S1</text>
<text text-anchor="middle" x="149.24" y="-514.66" font-family="Times,serif" font-size="14.00"> &#160;&#160;&#160;&#160;&#160;&#160;&#160;&#160;&#160;&#160;&#160;&#160;&#160;&#160;&#160;&#160;&#160;&#160;&#160;Hardpoints</text>
</g>
<!-- 13254462184774527690 -->
<g id="node7" class="node">
<title>13254462184774527690</title>
<ellipse fill="#3d3d3d" stroke="lightgray" cx="166" cy="-433.88" rx="1.8" ry="1.8"/>
</g>
<!-- 9142816102510844646&#45;&gt;13254462184774527690 -->
<g id="edge2" class="edge">
<title>9142816102510844646&#45;&gt;13254462184774527690</title>
<path fill="none" stroke="#1b9e77" d="M152.72,-506.8C157.01,-483.22 163.96,-445.08 165.63,-435.91"/>
</g>
<!-- 7578602511832530068 -->
<g id="node3" class="node">
<title>7578602511832530068</title>
<path fill="lightgray" stroke="black" d="M246.25,-354.06C246.25,-354.06 97.25,-354.06 97.25,-354.06 91.25,-354.06 85.25,-348.06 85.25,-342.06 85.25,-342.06 85.25,-328.06 85.25,-328.06 85.25,-322.06 91.25,-316.06 97.25,-316.06 97.25,-316.06 246.25,-316.06 246.25,-316.06 252.25,-316.06 258.25,-322.06 258.25,-328.06 258.25,-328.06 258.25,-342.06 258.25,-342.06 258.25,-348.06 252.25,-354.06 246.25,-354.06"/>
<text text-anchor="middle" x="171.75" y="-338.86" font-family="Times,serif" font-size="14.00">M1S1</text>
<text text-anchor="middle" x="171.75" y="-323.86" font-family="Times,serif" font-size="14.00"> &#160;&#160;&#160;&#160;&#160;&#160;&#160;&#160;&#160;&#160;&#160;&#160;&#160;&#160;&#160;&#160;&#160;&#160;&#160;Loadcells</text>
</g>
<!-- 13734935183375864922 -->
<g id="node8" class="node">
<title>13734935183375864922</title>
<ellipse fill="#3d3d3d" stroke="lightgray" cx="252.51" cy="-275.89" rx="1.8" ry="1.8"/>
</g>
<!-- 7578602511832530068&#45;&gt;13734935183375864922 -->
<g id="edge3" class="edge">
<title>7578602511832530068&#45;&gt;13734935183375864922</title>
<path fill="none" stroke="#d95f02" stroke-width="2" d="M197.75,-316.01C218.04,-301.15 243.9,-282.2 250.77,-277.17"/>
</g>
<!-- 11746591910582854152 -->
<g id="node4" class="node">
<title>11746591910582854152</title>
<path fill="lightgray" stroke="black" d="M438.05,-38C438.05,-38 236.05,-38 236.05,-38 230.05,-38 224.05,-32 224.05,-26 224.05,-26 224.05,-12 224.05,-12 224.05,-6 230.05,0 236.05,0 236.05,0 438.05,0 438.05,0 444.05,0 450.05,-6 450.05,-12 450.05,-12 450.05,-26 450.05,-26 450.05,-32 444.05,-38 438.05,-38"/>
<text text-anchor="middle" x="337.05" y="-22.8" font-family="Times,serif" font-size="14.00">M1S1</text>
<text text-anchor="middle" x="337.05" y="-7.8" font-family="Times,serif" font-size="14.00"> &#160;&#160;&#160;&#160;&#160;&#160;&#160;&#160;&#160;&#160;&#160;&#160;&#160;&#160;&#160;&#160;&#160;&#160;&#160;Actuators Inputs</text>
</g>
<!-- 14217526540371448765 -->
<g id="node9" class="node">
<title>14217526540371448765</title>
<ellipse fill="#3d3d3d" stroke="lightgray" cx="325.92" cy="-111.61" rx="1.8" ry="1.8"/>
</g>
<!-- 11746591910582854152&#45;&gt;14217526540371448765 -->
<g id="edge4" class="edge">
<title>11746591910582854152&#45;&gt;14217526540371448765</title>
<path fill="none" stroke="#d95f02" d="M334.74,-38.19C331.89,-61.93 327.28,-100.34 326.17,-109.57"/>
</g>
<!-- 18186593373958287242 -->
<g id="node5" class="node">
<title>18186593373958287242</title>
<path fill="lightgray" stroke="black" d="M403.88,-229.9C403.88,-229.9 251.88,-229.9 251.88,-229.9 245.88,-229.9 239.88,-223.9 239.88,-217.9 239.88,-217.9 239.88,-203.9 239.88,-203.9 239.88,-197.9 245.88,-191.9 251.88,-191.9 251.88,-191.9 403.88,-191.9 403.88,-191.9 409.88,-191.9 415.88,-197.9 415.88,-203.9 415.88,-203.9 415.88,-217.9 415.88,-217.9 415.88,-223.9 409.88,-229.9 403.88,-229.9"/>
<text text-anchor="middle" x="327.88" y="-214.7" font-family="Times,serif" font-size="14.00">M1S1</text>
<text text-anchor="middle" x="327.88" y="-199.7" font-family="Times,serif" font-size="14.00"> &#160;&#160;&#160;&#160;&#160;&#160;&#160;&#160;&#160;&#160;&#160;&#160;&#160;&#160;&#160;&#160;&#160;&#160;&#160;Actuators</text>
</g>
<!-- 16963285381156722616 -->
<g id="node10" class="node">
<title>16963285381156722616</title>
<ellipse fill="#3d3d3d" stroke="lightgray" cx="425.68" cy="-235.85" rx="1.8" ry="1.8"/>
</g>
<!-- 18186593373958287242&#45;&gt;16963285381156722616 -->
<g id="edge5" class="edge">
<title>18186593373958287242&#45;&gt;16963285381156722616</title>
<path fill="none" stroke="#1b9e77" d="M402.51,-229.94C412.13,-232.39 419.89,-234.37 423.5,-235.29"/>
</g>
<!-- 9593768862212529189&#45;&gt;9142816102510844646 -->
<g id="edge6" class="edge">
<title>9593768862212529189&#45;&gt;9142816102510844646</title>
<path fill="none" stroke="#1b9e77" d="M123.2,-611.86C125.42,-604.55 133.8,-576.85 140.47,-554.84"/>
<polygon fill="#1b9e77" stroke="#1b9e77" points="143.38,-545.22 144.79,-556.09 141.93,-550 140.48,-554.79 140.48,-554.79 140.48,-554.79 141.93,-550 136.18,-553.48 143.38,-545.22 143.38,-545.22"/>
<text text-anchor="middle" x="111.3" y="-581.3" font-family="Times,serif" font-size="9.00" fill="lightgray">RBM&lt;1&gt;</text>
</g>
<!-- 13254462184774527690&#45;&gt;7578602511832530068 -->
<g id="edge7" class="edge">
<title>13254462184774527690&#45;&gt;7578602511832530068</title>
<path fill="none" stroke="#1b9e77" d="M166.12,-431.81C166.62,-423.23 168.58,-389.62 170.05,-364.41"/>
<polygon fill="#1b9e77" stroke="#1b9e77" points="170.64,-354.21 174.55,-364.46 170.35,-359.2 170.06,-364.2 170.06,-364.2 170.06,-364.2 170.35,-359.2 165.56,-363.93 170.64,-354.21 170.64,-354.21"/>
<text text-anchor="middle" x="116.4" y="-395.46" font-family="Times,serif" font-size="9.00" fill="lightgray">HardpointsForces&lt;1&gt;</text>
</g>
<!-- 13734935183375864922&#45;&gt;18186593373958287242 -->
<g id="edge10" class="edge">
<title>13734935183375864922&#45;&gt;18186593373958287242</title>
<path fill="none" stroke="#d95f02" d="M254.09,-274.53C259.77,-269.63 279.83,-252.34 297.6,-237.01"/>
<polygon fill="#d95f02" stroke="#d95f02" points="305.55,-230.16 300.91,-240.1 301.76,-233.43 297.97,-236.69 297.97,-236.69 297.97,-236.69 301.76,-233.43 295.04,-233.28 305.55,-230.16 305.55,-230.16"/>
<text text-anchor="middle" x="228.46" y="-255.03" font-family="Times,serif" font-size="9.00" fill="lightgray">BarycentricForce&lt;1&gt;</text>
</g>
<!-- 14217526540371448765&#45;&gt;18186593373958287242 -->
<g id="edge9" class="edge">
<title>14217526540371448765&#45;&gt;18186593373958287242</title>
<path fill="none" stroke="#d95f02" d="M325.96,-113.69C326.13,-122.31 326.8,-156.08 327.3,-181.42"/>
<polygon fill="#d95f02" stroke="#d95f02" points="327.5,-191.66 322.81,-181.75 327.4,-186.66 327.31,-181.66 327.31,-181.66 327.31,-181.66 327.4,-186.66 331.8,-181.57 327.5,-191.66 327.5,-191.66"/>
<text text-anchor="middle" x="257.24" y="-155.83" font-family="Times,serif" font-size="9.00" fill="lightgray">ActuatorCommandForces&lt;1&gt;</text>
</g>
<!-- 6844289949833130077 -->
<g id="node11" class="node">
<title>6844289949833130077</title>
<ellipse fill="#3d3d3d" stroke="lightgray" cx="79.27" cy="-291.99" rx="1.8" ry="1.8"/>
</g>
<!-- 6844289949833130077&#45;&gt;7578602511832530068 -->
<g id="edge8" class="edge">
<title>6844289949833130077&#45;&gt;7578602511832530068</title>
<path fill="none" stroke="#1b9e77" d="M81.2,-292.89C86.77,-295.48 103.58,-303.31 121.22,-311.53"/>
<polygon fill="#1b9e77" stroke="#1b9e77" points="130.47,-315.84 119.51,-315.69 125.94,-313.73 121.41,-311.62 121.41,-311.62 121.41,-311.62 125.94,-313.73 123.31,-307.54 130.47,-315.84 130.47,-315.84"/>
<text text-anchor="middle" x="53" y="-307.24" font-family="Times,serif" font-size="9.00" fill="lightgray">HardpointsMotion&lt;1&gt;</text>
</g>
</g>
</svg>
