<?xml version="1.0" encoding="UTF-8" standalone="no"?>
<!DOCTYPE svg PUBLIC "-//W3C//DTD SVG 1.1//EN"
 "http://www.w3.org/Graphics/SVG/1.1/DTD/svg11.dtd">
<!-- Generated by graphviz version 2.43.0 (0)
 -->
<!-- Title: G Pages: 1 -->
<svg width="443pt" height="506pt"
 viewBox="0.00 0.00 442.88 505.84" xmlns="http://www.w3.org/2000/svg" xmlns:xlink="http://www.w3.org/1999/xlink">
<g id="graph0" class="graph" transform="scale(1 1) rotate(0) translate(4 501.84)">
<title>G</title>
<polygon fill="#3d3d3d" stroke="transparent" points="-4,4 -4,-501.84 438.88,-501.84 438.88,4 -4,4"/>
<!-- 14320145240822928344 -->
<g id="node1" class="node">
<title>14320145240822928344</title>
<path fill="lightgray" stroke="black" d="M422.88,-111.84C422.88,-111.84 259.88,-111.84 259.88,-111.84 253.88,-111.84 247.88,-105.84 247.88,-99.84 247.88,-99.84 247.88,-85.84 247.88,-85.84 247.88,-79.84 253.88,-73.84 259.88,-73.84 259.88,-73.84 422.88,-73.84 422.88,-73.84 428.88,-73.84 434.88,-79.84 434.88,-85.84 434.88,-85.84 434.88,-99.84 434.88,-99.84 434.88,-105.84 428.88,-111.84 422.88,-111.84"/>
<text text-anchor="middle" x="341.38" y="-96.64" font-family="Times,serif" font-size="14.00">M1S1</text>
<text text-anchor="middle" x="341.38" y="-81.64" font-family="Times,serif" font-size="14.00"> &#160;&#160;&#160;&#160;&#160;&#160;&#160;&#160;&#160;&#160;&#160;&#160;&#160;&#160;&#160;&#160;&#160;&#160;&#160;Hardpoints</text>
</g>
<!-- 13254462184774527690 -->
<g id="node4" class="node">
<title>13254462184774527690</title>
<ellipse fill="#3d3d3d" stroke="lightgray" cx="317.05" cy="-183.91" rx="1.8" ry="1.8"/>
</g>
<!-- 14320145240822928344&#45;&gt;13254462184774527690 -->
<g id="edge1" class="edge">
<title>14320145240822928344&#45;&gt;13254462184774527690</title>
<path fill="none" stroke="#1b9e77" d="M336.22,-112.15C329.97,-135.54 319.98,-172.94 317.58,-181.92"/>
</g>
<!-- 9370727727190305725 -->
<g id="node2" class="node">
<title>9370727727190305725</title>
<path fill="lightgray" stroke="black" d="M378.47,-301.92C378.47,-301.92 229.47,-301.92 229.47,-301.92 223.47,-301.92 217.47,-295.92 217.47,-289.92 217.47,-289.92 217.47,-275.92 217.47,-275.92 217.47,-269.92 223.47,-263.92 229.47,-263.92 229.47,-263.92 378.47,-263.92 378.47,-263.92 384.47,-263.92 390.47,-269.92 390.47,-275.92 390.47,-275.92 390.47,-289.92 390.47,-289.92 390.47,-295.92 384.47,-301.92 378.47,-301.92"/>
<text text-anchor="middle" x="303.97" y="-286.72" font-family="Times,serif" font-size="14.00">M1S1</text>
<text text-anchor="middle" x="303.97" y="-271.72" font-family="Times,serif" font-size="14.00"> &#160;&#160;&#160;&#160;&#160;&#160;&#160;&#160;&#160;&#160;&#160;&#160;&#160;&#160;&#160;&#160;&#160;&#160;&#160;Loadcells</text>
</g>
<!-- 13734935183375864922 -->
<g id="node5" class="node">
<title>13734935183375864922</title>
<ellipse fill="#3d3d3d" stroke="lightgray" cx="218.17" cy="-335.33" rx="1.8" ry="1.8"/>
</g>
<!-- 9370727727190305725&#45;&gt;13734935183375864922 -->
<g id="edge2" class="edge">
<title>9370727727190305725&#45;&gt;13734935183375864922</title>
<path fill="none" stroke="#d95f02" stroke-width="2" d="M272.51,-302.14C251.46,-314.99 226.46,-330.27 219.84,-334.31"/>
</g>
<!-- 18355315885655082220 -->
<g id="node3" class="node">
<title>18355315885655082220</title>
<path fill="lightgray" stroke="black" d="M215.43,-414.86C215.43,-414.86 63.43,-414.86 63.43,-414.86 57.43,-414.86 51.43,-408.86 51.43,-402.86 51.43,-402.86 51.43,-388.86 51.43,-388.86 51.43,-382.86 57.43,-376.86 63.43,-376.86 63.43,-376.86 215.43,-376.86 215.43,-376.86 221.43,-376.86 227.43,-382.86 227.43,-388.86 227.43,-388.86 227.43,-402.86 227.43,-402.86 227.43,-408.86 221.43,-414.86 215.43,-414.86"/>
<text text-anchor="middle" x="139.43" y="-399.66" font-family="Times,serif" font-size="14.00">M1S1</text>
<text text-anchor="middle" x="139.43" y="-384.66" font-family="Times,serif" font-size="14.00"> &#160;&#160;&#160;&#160;&#160;&#160;&#160;&#160;&#160;&#160;&#160;&#160;&#160;&#160;&#160;&#160;&#160;&#160;&#160;Actuators</text>
</g>
<!-- 16963285381156722616 -->
<g id="node6" class="node">
<title>16963285381156722616</title>
<ellipse fill="#3d3d3d" stroke="lightgray" cx="41.63" cy="-374.76" rx="1.8" ry="1.8"/>
</g>
<!-- 18355315885655082220&#45;&gt;16963285381156722616 -->
<g id="edge3" class="edge">
<title>18355315885655082220&#45;&gt;16963285381156722616</title>
<path fill="none" stroke="#1b9e77" d="M51.36,-376.86C47.99,-376.14 45.33,-375.56 43.65,-375.2"/>
</g>
<!-- 13254462184774527690&#45;&gt;9370727727190305725 -->
<g id="edge5" class="edge">
<title>13254462184774527690&#45;&gt;9370727727190305725</title>
<path fill="none" stroke="#1b9e77" d="M316.78,-185.98C315.64,-194.58 311.19,-228.25 307.86,-253.52"/>
<polygon fill="#1b9e77" stroke="#1b9e77" points="306.51,-263.73 303.36,-253.23 307.16,-258.77 307.82,-253.82 307.82,-253.82 307.82,-253.82 307.16,-258.77 312.28,-254.41 306.51,-263.73 306.51,-263.73"/>
<text text-anchor="middle" x="259.6" y="-228.01" font-family="Times,serif" font-size="9.00" fill="lightgray">HardpointsForces&lt;1&gt;</text>
</g>
<!-- 13734935183375864922&#45;&gt;18355315885655082220 -->
<g id="edge8" class="edge">
<title>13734935183375864922&#45;&gt;18355315885655082220</title>
<path fill="none" stroke="#d95f02" d="M216.52,-336.59C210.74,-341.04 190.7,-356.44 172.51,-370.43"/>
<polygon fill="#d95f02" stroke="#d95f02" points="164.33,-376.72 169.52,-367.05 168.3,-373.67 172.26,-370.62 172.26,-370.62 172.26,-370.62 168.3,-373.67 175,-374.19 164.33,-376.72 164.33,-376.72"/>
<text text-anchor="middle" x="138.94" y="-359.44" font-family="Times,serif" font-size="9.00" fill="lightgray">BarycentricForce&lt;1&gt;</text>
</g>
<!-- 10901010791771574459 -->
<g id="node7" class="node">
<title>10901010791771574459</title>
<ellipse fill="#3d3d3d" stroke="lightgray" cx="358.03" cy="-1.8" rx="1.8" ry="1.8"/>
</g>
<!-- 10901010791771574459&#45;&gt;14320145240822928344 -->
<g id="edge4" class="edge">
<title>10901010791771574459&#45;&gt;14320145240822928344</title>
<path fill="none" stroke="#1b9e77" d="M357.68,-3.7C356.28,-11.36 350.92,-40.66 346.73,-63.6"/>
<polygon fill="#1b9e77" stroke="#1b9e77" points="344.9,-73.59 342.27,-62.94 345.8,-68.67 346.7,-63.75 346.7,-63.75 346.7,-63.75 345.8,-68.67 351.13,-64.56 344.9,-73.59 344.9,-73.59"/>
<text text-anchor="middle" x="329.36" y="-41.06" font-family="Times,serif" font-size="9.00" fill="lightgray">RBM&lt;1&gt;</text>
</g>
<!-- 17060268248001869314 -->
<g id="node8" class="node">
<title>17060268248001869314</title>
<ellipse fill="#3d3d3d" stroke="lightgray" cx="392.88" cy="-333.81" rx="1.8" ry="1.8"/>
</g>
<!-- 17060268248001869314&#45;&gt;9370727727190305725 -->
<g id="edge6" class="edge">
<title>17060268248001869314&#45;&gt;9370727727190305725</title>
<path fill="none" stroke="#1b9e77" d="M391.02,-332.75C385.01,-329.31 365.36,-318.06 346.25,-307.12"/>
<polygon fill="#1b9e77" stroke="#1b9e77" points="337.56,-302.14 348.47,-303.21 341.9,-304.63 346.24,-307.11 346.24,-307.11 346.24,-307.11 341.9,-304.63 344,-311.02 337.56,-302.14 337.56,-302.14"/>
<text text-anchor="middle" x="311.32" y="-320.26" font-family="Times,serif" font-size="9.00" fill="lightgray">HardpointsMotion&lt;1&gt;</text>
</g>
<!-- 17850338592001803333 -->
<g id="node9" class="node">
<title>17850338592001803333</title>
<ellipse fill="#3d3d3d" stroke="lightgray" cx="138.69" cy="-496.04" rx="1.8" ry="1.8"/>
</g>
<!-- 17850338592001803333&#45;&gt;18355315885655082220 -->
<g id="edge7" class="edge">
<title>17850338592001803333&#45;&gt;18355315885655082220</title>
<path fill="none" stroke="#d95f02" d="M138.71,-493.95C138.77,-485.25 139.02,-451.17 139.21,-425.61"/>
<polygon fill="#d95f02" stroke="#d95f02" points="139.29,-415.28 143.71,-425.31 139.25,-420.28 139.21,-425.28 139.21,-425.28 139.21,-425.28 139.25,-420.28 134.71,-425.24 139.29,-415.28 139.29,-415.28"/>
<text text-anchor="middle" x="69.5" y="-457.06" font-family="Times,serif" font-size="9.00" fill="lightgray">ActuatorCommandForces&lt;1&gt;</text>
</g>
</g>
</svg>
