<?xml version="1.0" encoding="UTF-8" standalone="no"?>
<!DOCTYPE svg PUBLIC "-//W3C//DTD SVG 1.1//EN"
 "http://www.w3.org/Graphics/SVG/1.1/DTD/svg11.dtd">
<!-- Generated by graphviz version 2.43.0 (0)
 -->
<!-- Title: G Pages: 1 -->
<svg width="548pt" height="657pt"
 viewBox="0.00 0.00 548.37 656.61" xmlns="http://www.w3.org/2000/svg" xmlns:xlink="http://www.w3.org/1999/xlink">
<g id="graph0" class="graph" transform="scale(1 1) rotate(0) translate(4 652.61)">
<title>G</title>
<polygon fill="#3d3d3d" stroke="transparent" points="-4,4 -4,-652.61 544.37,-652.61 544.37,4 -4,4"/>
<!-- 4759183791845599315 -->
<g id="node1" class="node">
<title>4759183791845599315</title>
<path fill="lightgray" stroke="black" d="M320.28,-648.61C320.28,-648.61 188.28,-648.61 188.28,-648.61 182.28,-648.61 176.28,-642.61 176.28,-636.61 176.28,-636.61 176.28,-622.61 176.28,-622.61 176.28,-616.61 182.28,-610.61 188.28,-610.61 188.28,-610.61 320.28,-610.61 320.28,-610.61 326.28,-610.61 332.28,-616.61 332.28,-622.61 332.28,-622.61 332.28,-636.61 332.28,-636.61 332.28,-642.61 326.28,-648.61 320.28,-648.61"/>
<text text-anchor="middle" x="254.28" y="-633.41" font-family="Times,serif" font-size="14.00">M1S1</text>
<text text-anchor="middle" x="254.28" y="-618.41" font-family="Times,serif" font-size="14.00"> &#160;&#160;&#160;&#160;&#160;&#160;&#160;&#160;&#160;&#160;&#160;RBM Inputs</text>
</g>
<!-- 9593768862212529189 -->
<g id="node6" class="node">
<title>9593768862212529189</title>
<ellipse fill="#3d3d3d" stroke="lightgray" cx="260.78" cy="-543.88" rx="1.8" ry="1.8"/>
</g>
<!-- 4759183791845599315&#45;&gt;9593768862212529189 -->
<g id="edge1" class="edge">
<title>4759183791845599315&#45;&gt;9593768862212529189</title>
<path fill="none" stroke="#1b9e77" d="M255.72,-610.58C257.39,-588.48 260.01,-553.99 260.64,-545.71"/>
</g>
<!-- 9142816102510844646 -->
<g id="node2" class="node">
<title>9142816102510844646</title>
<path fill="lightgray" stroke="black" d="M333.84,-476.64C333.84,-476.64 170.84,-476.64 170.84,-476.64 164.84,-476.64 158.84,-470.64 158.84,-464.64 158.84,-464.64 158.84,-450.64 158.84,-450.64 158.84,-444.64 164.84,-438.64 170.84,-438.64 170.84,-438.64 333.84,-438.64 333.84,-438.64 339.84,-438.64 345.84,-444.64 345.84,-450.64 345.84,-450.64 345.84,-464.64 345.84,-464.64 345.84,-470.64 339.84,-476.64 333.84,-476.64"/>
<text text-anchor="middle" x="252.34" y="-461.44" font-family="Times,serif" font-size="14.00">M1S1</text>
<text text-anchor="middle" x="252.34" y="-446.44" font-family="Times,serif" font-size="14.00"> &#160;&#160;&#160;&#160;&#160;&#160;&#160;&#160;&#160;&#160;&#160;&#160;&#160;&#160;&#160;&#160;&#160;&#160;&#160;Hardpoints</text>
</g>
<!-- 13254462184774527690 -->
<g id="node7" class="node">
<title>13254462184774527690</title>
<ellipse fill="#3d3d3d" stroke="lightgray" cx="232.97" cy="-371.53" rx="1.8" ry="1.8"/>
</g>
<!-- 9142816102510844646&#45;&gt;13254462184774527690 -->
<g id="edge2" class="edge">
<title>9142816102510844646&#45;&gt;13254462184774527690</title>
<path fill="none" stroke="#1b9e77" d="M248.04,-438.53C243.05,-416.34 235.25,-381.69 233.38,-373.37"/>
</g>
<!-- 3641760680307702045 -->
<g id="node3" class="node">
<title>3641760680307702045</title>
<path fill="lightgray" stroke="black" d="M274.51,-303.22C274.51,-303.22 125.51,-303.22 125.51,-303.22 119.51,-303.22 113.51,-297.22 113.51,-291.22 113.51,-291.22 113.51,-277.22 113.51,-277.22 113.51,-271.22 119.51,-265.22 125.51,-265.22 125.51,-265.22 274.51,-265.22 274.51,-265.22 280.51,-265.22 286.51,-271.22 286.51,-277.22 286.51,-277.22 286.51,-291.22 286.51,-291.22 286.51,-297.22 280.51,-303.22 274.51,-303.22"/>
<text text-anchor="middle" x="200.01" y="-288.02" font-family="Times,serif" font-size="14.00">M1S1</text>
<text text-anchor="middle" x="200.01" y="-273.02" font-family="Times,serif" font-size="14.00"> &#160;&#160;&#160;&#160;&#160;&#160;&#160;&#160;&#160;&#160;&#160;&#160;&#160;&#160;&#160;&#160;&#160;&#160;&#160;Loadcells</text>
</g>
<!-- 13734935183375864922 -->
<g id="node8" class="node">
<title>13734935183375864922</title>
<ellipse fill="#3d3d3d" stroke="lightgray" cx="246.12" cy="-201.9" rx="1.8" ry="1.8"/>
</g>
<!-- 3641760680307702045&#45;&gt;13734935183375864922 -->
<g id="edge3" class="edge">
<title>3641760680307702045&#45;&gt;13734935183375864922</title>
<path fill="none" stroke="#d95f02" stroke-width="2" d="M210.7,-265.12C222.62,-243.85 240.8,-211.4 245.16,-203.62"/>
</g>
<!-- 3481722465515755939 -->
<g id="node4" class="node">
<title>3481722465515755939</title>
<path fill="lightgray" stroke="black" d="M528.37,-38C528.37,-38 326.37,-38 326.37,-38 320.37,-38 314.37,-32 314.37,-26 314.37,-26 314.37,-12 314.37,-12 314.37,-6 320.37,0 326.37,0 326.37,0 528.37,0 528.37,0 534.37,0 540.37,-6 540.37,-12 540.37,-12 540.37,-26 540.37,-26 540.37,-32 534.37,-38 528.37,-38"/>
<text text-anchor="middle" x="427.37" y="-22.8" font-family="Times,serif" font-size="14.00">M1S1</text>
<text text-anchor="middle" x="427.37" y="-7.8" font-family="Times,serif" font-size="14.00"> &#160;&#160;&#160;&#160;&#160;&#160;&#160;&#160;&#160;&#160;&#160;&#160;&#160;&#160;&#160;&#160;&#160;&#160;&#160;Actuators Inputs</text>
</g>
<!-- 14217526540371448765 -->
<g id="node9" class="node">
<title>14217526540371448765</title>
<ellipse fill="#3d3d3d" stroke="lightgray" cx="357.2" cy="-72.27" rx="1.8" ry="1.8"/>
</g>
<!-- 3481722465515755939&#45;&gt;14217526540371448765 -->
<g id="edge4" class="edge">
<title>3481722465515755939&#45;&gt;14217526540371448765</title>
<path fill="none" stroke="#d95f02" d="M402.04,-38.23C385.08,-51.11 364.82,-66.49 358.9,-70.98"/>
</g>
<!-- 11385616751142278572 -->
<g id="node5" class="node">
<title>11385616751142278572</title>
<path fill="lightgray" stroke="black" d="M348.49,-130.96C348.49,-130.96 196.49,-130.96 196.49,-130.96 190.49,-130.96 184.49,-124.96 184.49,-118.96 184.49,-118.96 184.49,-104.96 184.49,-104.96 184.49,-98.96 190.49,-92.96 196.49,-92.96 196.49,-92.96 348.49,-92.96 348.49,-92.96 354.49,-92.96 360.49,-98.96 360.49,-104.96 360.49,-104.96 360.49,-118.96 360.49,-118.96 360.49,-124.96 354.49,-130.96 348.49,-130.96"/>
<text text-anchor="middle" x="272.49" y="-115.76" font-family="Times,serif" font-size="14.00">M1S1</text>
<text text-anchor="middle" x="272.49" y="-100.76" font-family="Times,serif" font-size="14.00"> &#160;&#160;&#160;&#160;&#160;&#160;&#160;&#160;&#160;&#160;&#160;&#160;&#160;&#160;&#160;&#160;&#160;&#160;&#160;Actuators</text>
</g>
<!-- 16963285381156722616 -->
<g id="node10" class="node">
<title>16963285381156722616</title>
<ellipse fill="#3d3d3d" stroke="lightgray" cx="209.55" cy="-40.16" rx="1.8" ry="1.8"/>
</g>
<!-- 11385616751142278572&#45;&gt;16963285381156722616 -->
<g id="edge5" class="edge">
<title>11385616751142278572&#45;&gt;16963285381156722616</title>
<path fill="none" stroke="#1b9e77" d="M255.63,-92.72C239.31,-74.11 216.27,-47.83 210.77,-41.55"/>
</g>
<!-- 9593768862212529189&#45;&gt;9142816102510844646 -->
<g id="edge6" class="edge">
<title>9593768862212529189&#45;&gt;9142816102510844646</title>
<path fill="none" stroke="#1b9e77" d="M260.6,-542.08C259.9,-534.97 257.29,-508.2 255.18,-486.68"/>
<polygon fill="#1b9e77" stroke="#1b9e77" points="254.2,-476.65 259.65,-486.17 254.69,-481.63 255.17,-486.61 255.17,-486.61 255.17,-486.61 254.69,-481.63 250.7,-487.04 254.2,-476.65 254.2,-476.65"/>
<text text-anchor="middle" x="235.38" y="-512" font-family="Times,serif" font-size="9.00" fill="lightgray">RBM&lt;1&gt;</text>
</g>
<!-- 13254462184774527690&#45;&gt;3641760680307702045 -->
<g id="edge7" class="edge">
<title>13254462184774527690&#45;&gt;3641760680307702045</title>
<path fill="none" stroke="#1b9e77" d="M232.28,-369.71C229.54,-362.45 219.14,-334.91 210.88,-313.03"/>
<polygon fill="#1b9e77" stroke="#1b9e77" points="207.27,-303.46 215.01,-311.23 209.04,-308.14 210.8,-312.82 210.8,-312.82 210.8,-312.82 209.04,-308.14 206.59,-314.41 207.27,-303.46 207.27,-303.46"/>
<text text-anchor="middle" x="167.76" y="-339.35" font-family="Times,serif" font-size="9.00" fill="lightgray">HardpointsForces&lt;1&gt;</text>
</g>
<!-- 13734935183375864922&#45;&gt;11385616751142278572 -->
<g id="edge10" class="edge">
<title>13734935183375864922&#45;&gt;11385616751142278572</title>
<path fill="none" stroke="#d95f02" d="M246.67,-200.02C248.89,-192.45 257.38,-163.51 264.02,-140.84"/>
<polygon fill="#d95f02" stroke="#d95f02" points="266.92,-130.97 268.42,-141.83 265.51,-135.77 264.1,-140.57 264.1,-140.57 264.1,-140.57 265.51,-135.77 259.79,-139.3 266.92,-130.97 266.92,-130.97"/>
<text text-anchor="middle" x="205.18" y="-168.68" font-family="Times,serif" font-size="9.00" fill="lightgray">BarycentricForce&lt;1&gt;</text>
</g>
<!-- 14217526540371448765&#45;&gt;11385616751142278572 -->
<g id="edge9" class="edge">
<title>14217526540371448765&#45;&gt;11385616751142278572</title>
<path fill="none" stroke="#d95f02" d="M355.43,-73.1C350.75,-75.29 337.38,-81.56 322.71,-88.43"/>
<polygon fill="#d95f02" stroke="#d95f02" points="313.47,-92.76 320.62,-84.44 318,-90.64 322.53,-88.51 322.53,-88.51 322.53,-88.51 318,-90.64 324.43,-92.59 313.47,-92.76 313.47,-92.76"/>
<text text-anchor="middle" x="265.11" y="-85.65" font-family="Times,serif" font-size="9.00" fill="lightgray">ActuatorCommandForces&lt;1&gt;</text>
</g>
<!-- 3451935346642065969 -->
<g id="node11" class="node">
<title>3451935346642065969</title>
<ellipse fill="#3d3d3d" stroke="lightgray" cx="103.71" cy="-281.72" rx="1.8" ry="1.8"/>
</g>
<!-- 3451935346642065969&#45;&gt;3641760680307702045 -->
<g id="edge8" class="edge">
<title>3451935346642065969&#45;&gt;3641760680307702045</title>
<path fill="none" stroke="#1b9e77" d="M105.72,-281.77C105.82,-281.77 105.93,-281.78 106.04,-281.78"/>
<polygon fill="#1b9e77" stroke="#1b9e77" points="113.41,-281.97 103.3,-286.21 108.41,-281.84 103.41,-281.71 103.41,-281.71 103.41,-281.71 108.41,-281.84 103.53,-277.21 113.41,-281.97 113.41,-281.97"/>
<text text-anchor="middle" x="53" y="-284.58" font-family="Times,serif" font-size="9.00" fill="lightgray">HardpointsMotion&lt;1&gt;</text>
</g>
</g>
</svg>
