<?xml version="1.0" encoding="UTF-8" standalone="no"?>
<!DOCTYPE svg PUBLIC "-//W3C//DTD SVG 1.1//EN"
 "http://www.w3.org/Graphics/SVG/1.1/DTD/svg11.dtd">
<!-- Generated by graphviz version 2.43.0 (0)
 -->
<!-- Title: G Pages: 1 -->
<svg width="488pt" height="519pt"
 viewBox="0.00 0.00 488.09 519.37" xmlns="http://www.w3.org/2000/svg" xmlns:xlink="http://www.w3.org/1999/xlink">
<g id="graph0" class="graph" transform="scale(1 1) rotate(0) translate(4 515.37)">
<title>G</title>
<polygon fill="#3d3d3d" stroke="transparent" points="-4,4 -4,-515.37 484.09,-515.37 484.09,4 -4,4"/>
<!-- 14320145240822928344 -->
<g id="node1" class="node">
<title>14320145240822928344</title>
<path fill="lightgray" stroke="black" d="M177.27,-441.13C177.27,-441.13 14.27,-441.13 14.27,-441.13 8.27,-441.13 2.27,-435.13 2.27,-429.13 2.27,-429.13 2.27,-415.13 2.27,-415.13 2.27,-409.13 8.27,-403.13 14.27,-403.13 14.27,-403.13 177.27,-403.13 177.27,-403.13 183.27,-403.13 189.27,-409.13 189.27,-415.13 189.27,-415.13 189.27,-429.13 189.27,-429.13 189.27,-435.13 183.27,-441.13 177.27,-441.13"/>
<text text-anchor="middle" x="95.77" y="-425.93" font-family="Times,serif" font-size="14.00">M1S1</text>
<text text-anchor="middle" x="95.77" y="-410.93" font-family="Times,serif" font-size="14.00"> &#160;&#160;&#160;&#160;&#160;&#160;&#160;&#160;&#160;&#160;&#160;&#160;&#160;&#160;&#160;&#160;&#160;&#160;&#160;Hardpoints</text>
</g>
<!-- 13254462184774527690 -->
<g id="node4" class="node">
<title>13254462184774527690</title>
<ellipse fill="#3d3d3d" stroke="lightgray" cx="104.76" cy="-330.19" rx="1.8" ry="1.8"/>
</g>
<!-- 14320145240822928344&#45;&gt;13254462184774527690 -->
<g id="edge1" class="edge">
<title>14320145240822928344&#45;&gt;13254462184774527690</title>
<path fill="none" stroke="#1b9e77" d="M97.63,-403.08C99.93,-379.52 103.67,-341.39 104.56,-332.22"/>
</g>
<!-- 9370727727190305725 -->
<g id="node2" class="node">
<title>9370727727190305725</title>
<path fill="lightgray" stroke="black" d="M177.42,-251.36C177.42,-251.36 28.42,-251.36 28.42,-251.36 22.42,-251.36 16.42,-245.36 16.42,-239.36 16.42,-239.36 16.42,-225.36 16.42,-225.36 16.42,-219.36 22.42,-213.36 28.42,-213.36 28.42,-213.36 177.42,-213.36 177.42,-213.36 183.42,-213.36 189.42,-219.36 189.42,-225.36 189.42,-225.36 189.42,-239.36 189.42,-239.36 189.42,-245.36 183.42,-251.36 177.42,-251.36"/>
<text text-anchor="middle" x="102.92" y="-236.16" font-family="Times,serif" font-size="14.00">M1S1</text>
<text text-anchor="middle" x="102.92" y="-221.16" font-family="Times,serif" font-size="14.00"> &#160;&#160;&#160;&#160;&#160;&#160;&#160;&#160;&#160;&#160;&#160;&#160;&#160;&#160;&#160;&#160;&#160;&#160;&#160;Loadcells</text>
</g>
<!-- 13734935183375864922 -->
<g id="node5" class="node">
<title>13734935183375864922</title>
<ellipse fill="#3d3d3d" stroke="lightgray" cx="178.75" cy="-169.53" rx="1.8" ry="1.8"/>
</g>
<!-- 9370727727190305725&#45;&gt;13734935183375864922 -->
<g id="edge2" class="edge">
<title>9370727727190305725&#45;&gt;13734935183375864922</title>
<path fill="none" stroke="#d95f02" stroke-width="2" d="M126.09,-213.17C145.25,-197.29 170.37,-176.47 177.05,-170.93"/>
</g>
<!-- 18355315885655082220 -->
<g id="node3" class="node">
<title>18355315885655082220</title>
<path fill="lightgray" stroke="black" d="M321.61,-117.9C321.61,-117.9 169.61,-117.9 169.61,-117.9 163.61,-117.9 157.61,-111.9 157.61,-105.9 157.61,-105.9 157.61,-91.9 157.61,-91.9 157.61,-85.9 163.61,-79.9 169.61,-79.9 169.61,-79.9 321.61,-79.9 321.61,-79.9 327.61,-79.9 333.61,-85.9 333.61,-91.9 333.61,-91.9 333.61,-105.9 333.61,-105.9 333.61,-111.9 327.61,-117.9 321.61,-117.9"/>
<text text-anchor="middle" x="245.61" y="-102.7" font-family="Times,serif" font-size="14.00">M1S1</text>
<text text-anchor="middle" x="245.61" y="-87.7" font-family="Times,serif" font-size="14.00"> &#160;&#160;&#160;&#160;&#160;&#160;&#160;&#160;&#160;&#160;&#160;&#160;&#160;&#160;&#160;&#160;&#160;&#160;&#160;Actuators</text>
</g>
<!-- 16963285381156722616 -->
<g id="node6" class="node">
<title>16963285381156722616</title>
<ellipse fill="#3d3d3d" stroke="lightgray" cx="231.13" cy="-1.8" rx="1.8" ry="1.8"/>
</g>
<!-- 18355315885655082220&#45;&gt;16963285381156722616 -->
<g id="edge3" class="edge">
<title>18355315885655082220&#45;&gt;16963285381156722616</title>
<path fill="none" stroke="#1b9e77" d="M242.75,-79.71C239.06,-54.95 232.93,-13.87 231.46,-3.99"/>
</g>
<!-- 13254462184774527690&#45;&gt;9370727727190305725 -->
<g id="edge5" class="edge">
<title>13254462184774527690&#45;&gt;9370727727190305725</title>
<path fill="none" stroke="#1b9e77" d="M104.72,-328.15C104.56,-319.7 103.95,-286.75 103.48,-261.84"/>
<polygon fill="#1b9e77" stroke="#1b9e77" points="103.29,-251.75 107.98,-261.66 103.38,-256.75 103.48,-261.75 103.48,-261.75 103.48,-261.75 103.38,-256.75 98.98,-261.83 103.29,-251.75 103.29,-251.75"/>
<text text-anchor="middle" x="52" y="-292.48" font-family="Times,serif" font-size="9.00" fill="lightgray">HardpointsForces&lt;1&gt;</text>
</g>
<!-- 13734935183375864922&#45;&gt;18355315885655082220 -->
<g id="edge8" class="edge">
<title>13734935183375864922&#45;&gt;18355315885655082220</title>
<path fill="none" stroke="#d95f02" d="M180.15,-168.05C185.35,-162.56 204.14,-142.7 220.27,-125.67"/>
<polygon fill="#d95f02" stroke="#d95f02" points="227.43,-118.1 223.82,-128.46 223.99,-121.73 220.55,-125.37 220.55,-125.37 220.55,-125.37 223.99,-121.73 217.29,-122.27 227.43,-118.1 227.43,-118.1"/>
<text text-anchor="middle" x="152.23" y="-145.94" font-family="Times,serif" font-size="9.00" fill="lightgray">BarycentricForce&lt;1&gt;</text>
</g>
<!-- 10901010791771574459 -->
<g id="node7" class="node">
<title>10901010791771574459</title>
<ellipse fill="#3d3d3d" stroke="lightgray" cx="71.63" cy="-509.57" rx="1.8" ry="1.8"/>
</g>
<!-- 10901010791771574459&#45;&gt;14320145240822928344 -->
<g id="edge4" class="edge">
<title>10901010791771574459&#45;&gt;14320145240822928344</title>
<path fill="none" stroke="#1b9e77" d="M72.14,-507.74C74.14,-500.5 81.69,-473.14 87.72,-451.28"/>
<polygon fill="#1b9e77" stroke="#1b9e77" points="90.45,-441.4 92.12,-452.24 89.12,-446.22 87.79,-451.04 87.79,-451.04 87.79,-451.04 89.12,-446.22 83.45,-449.85 90.45,-441.4 90.45,-441.4"/>
<text text-anchor="middle" x="59.39" y="-477" font-family="Times,serif" font-size="9.00" fill="lightgray">RBM&lt;1&gt;</text>
</g>
<!-- 17060268248001869314 -->
<g id="node8" class="node">
<title>17060268248001869314</title>
<ellipse fill="#3d3d3d" stroke="lightgray" cx="9.64" cy="-195.47" rx="1.8" ry="1.8"/>
</g>
<!-- 17060268248001869314&#45;&gt;9370727727190305725 -->
<g id="edge6" class="edge">
<title>17060268248001869314&#45;&gt;9370727727190305725</title>
<path fill="none" stroke="#1b9e77" d="M11.59,-196.24C16.48,-198.17 30.01,-203.52 45.19,-209.53"/>
<polygon fill="#1b9e77" stroke="#1b9e77" points="54.8,-213.33 43.85,-213.84 50.15,-211.49 45.5,-209.65 45.5,-209.65 45.5,-209.65 50.15,-211.49 47.16,-205.47 54.8,-213.33 54.8,-213.33"/>
<text text-anchor="middle" x="86.25" y="-197.61" font-family="Times,serif" font-size="9.00" fill="lightgray">HardpointsMotion&lt;1&gt;</text>
</g>
<!-- 17850338592001803333 -->
<g id="node9" class="node">
<title>17850338592001803333</title>
<ellipse fill="#3d3d3d" stroke="lightgray" cx="343.41" cy="-104.68" rx="1.8" ry="1.8"/>
</g>
<!-- 17850338592001803333&#45;&gt;18355315885655082220 -->
<g id="edge7" class="edge">
<title>17850338592001803333&#45;&gt;18355315885655082220</title>
<path fill="none" stroke="#d95f02" d="M341.37,-104.55C341.27,-104.55 341.16,-104.54 341.05,-104.54"/>
<polygon fill="#d95f02" stroke="#d95f02" points="333.88,-104.11 344.13,-100.21 338.87,-104.41 343.87,-104.7 343.87,-104.7 343.87,-104.7 338.87,-104.41 343.6,-109.19 333.88,-104.11 333.88,-104.11"/>
<text text-anchor="middle" x="410.59" y="-107.34" font-family="Times,serif" font-size="9.00" fill="lightgray">ActuatorCommandForces&lt;1&gt;</text>
</g>
</g>
</svg>
