<?xml version="1.0" encoding="UTF-8" standalone="no"?>
<!DOCTYPE svg PUBLIC "-//W3C//DTD SVG 1.1//EN"
 "http://www.w3.org/Graphics/SVG/1.1/DTD/svg11.dtd">
<!-- Generated by graphviz version 2.43.0 (0)
 -->
<!-- Title: G Pages: 1 -->
<svg width="627pt" height="404pt"
 viewBox="0.00 0.00 627.39 403.83" xmlns="http://www.w3.org/2000/svg" xmlns:xlink="http://www.w3.org/1999/xlink">
<g id="graph0" class="graph" transform="scale(1 1) rotate(0) translate(4 399.83)">
<title>G</title>
<polygon fill="#3d3d3d" stroke="transparent" points="-4,4 -4,-399.83 623.39,-399.83 623.39,4 -4,4"/>
<!-- 14320145240822928344 -->
<g id="node1" class="node">
<title>14320145240822928344</title>
<path fill="lightgray" stroke="black" d="M226.72,-331.11C226.72,-331.11 63.72,-331.11 63.72,-331.11 57.72,-331.11 51.72,-325.11 51.72,-319.11 51.72,-319.11 51.72,-305.11 51.72,-305.11 51.72,-299.11 57.72,-293.11 63.72,-293.11 63.72,-293.11 226.72,-293.11 226.72,-293.11 232.72,-293.11 238.72,-299.11 238.72,-305.11 238.72,-305.11 238.72,-319.11 238.72,-319.11 238.72,-325.11 232.72,-331.11 226.72,-331.11"/>
<text text-anchor="middle" x="145.22" y="-315.91" font-family="Times,serif" font-size="14.00">M1S1</text>
<text text-anchor="middle" x="145.22" y="-300.91" font-family="Times,serif" font-size="14.00"> &#160;&#160;&#160;&#160;&#160;&#160;&#160;&#160;&#160;&#160;&#160;&#160;&#160;&#160;&#160;&#160;&#160;&#160;&#160;Hardpoints</text>
</g>
<!-- 13254462184774527690 -->
<g id="node4" class="node">
<title>13254462184774527690</title>
<ellipse fill="#3d3d3d" stroke="lightgray" cx="250.42" cy="-295.45" rx="1.8" ry="1.8"/>
</g>
<!-- 14320145240822928344&#45;&gt;13254462184774527690 -->
<g id="edge1" class="edge">
<title>14320145240822928344&#45;&gt;13254462184774527690</title>
<path fill="none" stroke="#1b9e77" d="M238.76,-297.29C243.23,-296.59 246.66,-296.04 248.61,-295.73"/>
</g>
<!-- 9370727727190305725 -->
<g id="node2" class="node">
<title>9370727727190305725</title>
<path fill="lightgray" stroke="black" d="M437.54,-308.31C437.54,-308.31 288.54,-308.31 288.54,-308.31 282.54,-308.31 276.54,-302.31 276.54,-296.31 276.54,-296.31 276.54,-282.31 276.54,-282.31 276.54,-276.31 282.54,-270.31 288.54,-270.31 288.54,-270.31 437.54,-270.31 437.54,-270.31 443.54,-270.31 449.54,-276.31 449.54,-282.31 449.54,-282.31 449.54,-296.31 449.54,-296.31 449.54,-302.31 443.54,-308.31 437.54,-308.31"/>
<text text-anchor="middle" x="363.04" y="-293.11" font-family="Times,serif" font-size="14.00">M1S1</text>
<text text-anchor="middle" x="363.04" y="-278.11" font-family="Times,serif" font-size="14.00"> &#160;&#160;&#160;&#160;&#160;&#160;&#160;&#160;&#160;&#160;&#160;&#160;&#160;&#160;&#160;&#160;&#160;&#160;&#160;Loadcells</text>
</g>
<!-- 13734935183375864922 -->
<g id="node5" class="node">
<title>13734935183375864922</title>
<ellipse fill="#3d3d3d" stroke="lightgray" cx="429.85" cy="-197.44" rx="1.8" ry="1.8"/>
</g>
<!-- 9370727727190305725&#45;&gt;13734935183375864922 -->
<g id="edge2" class="edge">
<title>9370727727190305725&#45;&gt;13734935183375864922</title>
<path fill="none" stroke="#d95f02" stroke-width="2" d="M376.88,-270.28C394.31,-246.31 422.71,-207.26 428.71,-199.01"/>
</g>
<!-- 18355315885655082220 -->
<g id="node3" class="node">
<title>18355315885655082220</title>
<path fill="lightgray" stroke="black" d="M580.66,-132.79C580.66,-132.79 428.66,-132.79 428.66,-132.79 422.66,-132.79 416.66,-126.79 416.66,-120.79 416.66,-120.79 416.66,-106.79 416.66,-106.79 416.66,-100.79 422.66,-94.79 428.66,-94.79 428.66,-94.79 580.66,-94.79 580.66,-94.79 586.66,-94.79 592.66,-100.79 592.66,-106.79 592.66,-106.79 592.66,-120.79 592.66,-120.79 592.66,-126.79 586.66,-132.79 580.66,-132.79"/>
<text text-anchor="middle" x="504.66" y="-117.59" font-family="Times,serif" font-size="14.00">M1S1</text>
<text text-anchor="middle" x="504.66" y="-102.59" font-family="Times,serif" font-size="14.00"> &#160;&#160;&#160;&#160;&#160;&#160;&#160;&#160;&#160;&#160;&#160;&#160;&#160;&#160;&#160;&#160;&#160;&#160;&#160;Actuators</text>
</g>
<!-- 16963285381156722616 -->
<g id="node6" class="node">
<title>16963285381156722616</title>
<ellipse fill="#3d3d3d" stroke="lightgray" cx="617.59" cy="-121.41" rx="1.8" ry="1.8"/>
</g>
<!-- 18355315885655082220&#45;&gt;16963285381156722616 -->
<g id="edge3" class="edge">
<title>18355315885655082220&#45;&gt;16963285381156722616</title>
<path fill="none" stroke="#1b9e77" d="M592.81,-119.74C603.64,-120.47 612.16,-121.04 615.75,-121.28"/>
</g>
<!-- 13254462184774527690&#45;&gt;9370727727190305725 -->
<g id="edge5" class="edge">
<title>13254462184774527690&#45;&gt;9370727727190305725</title>
<path fill="none" stroke="#1b9e77" d="M252.37,-295.34C254.92,-295.2 259.82,-294.94 266.2,-294.59"/>
<polygon fill="#1b9e77" stroke="#1b9e77" points="276.49,-294.03 266.75,-299.07 271.5,-294.3 266.51,-294.57 266.51,-294.57 266.51,-294.57 271.5,-294.3 266.26,-290.08 276.49,-294.03 276.49,-294.03"/>
<text text-anchor="middle" x="212.45" y="-287.48" font-family="Times,serif" font-size="9.00" fill="lightgray">HardpointsForces&lt;1&gt;</text>
</g>
<!-- 13734935183375864922&#45;&gt;18355315885655082220 -->
<g id="edge8" class="edge">
<title>13734935183375864922&#45;&gt;18355315885655082220</title>
<path fill="none" stroke="#d95f02" d="M431.14,-195.99C437.02,-189.42 461.66,-161.87 480.82,-140.45"/>
<polygon fill="#d95f02" stroke="#d95f02" points="487.58,-132.89 484.27,-143.34 484.25,-136.62 480.91,-140.34 480.91,-140.34 480.91,-140.34 484.25,-136.62 477.56,-137.34 487.58,-132.89 487.58,-132.89"/>
<text text-anchor="middle" x="407.9" y="-167.2" font-family="Times,serif" font-size="9.00" fill="lightgray">BarycentricForce&lt;1&gt;</text>
</g>
<!-- 10901010791771574459 -->
<g id="node7" class="node">
<title>10901010791771574459</title>
<ellipse fill="#3d3d3d" stroke="lightgray" cx="41.92" cy="-327.64" rx="1.8" ry="1.8"/>
</g>
<!-- 10901010791771574459&#45;&gt;14320145240822928344 -->
<g id="edge4" class="edge">
<title>10901010791771574459&#45;&gt;14320145240822928344</title>
<path fill="none" stroke="#1b9e77" d="M43.72,-327.37C43.82,-327.36 43.93,-327.34 44.04,-327.32"/>
<polygon fill="#1b9e77" stroke="#1b9e77" points="51.67,-326.18 42.45,-332.11 46.73,-326.92 41.78,-327.66 41.78,-327.66 41.78,-327.66 46.73,-326.92 41.11,-323.21 51.67,-326.18 51.67,-326.18"/>
<text text-anchor="middle" x="22" y="-330.13" font-family="Times,serif" font-size="9.00" fill="lightgray">RBM&lt;1&gt;</text>
</g>
<!-- 17060268248001869314 -->
<g id="node8" class="node">
<title>17060268248001869314</title>
<ellipse fill="#3d3d3d" stroke="lightgray" cx="412.38" cy="-394.03" rx="1.8" ry="1.8"/>
</g>
<!-- 17060268248001869314&#45;&gt;9370727727190305725 -->
<g id="edge6" class="edge">
<title>17060268248001869314&#45;&gt;9370727727190305725</title>
<path fill="none" stroke="#1b9e77" d="M411.52,-392.21C407.4,-383.47 389.29,-345.02 376.41,-317.69"/>
<polygon fill="#1b9e77" stroke="#1b9e77" points="372.11,-308.55 380.44,-315.68 374.24,-313.07 376.37,-317.6 376.37,-317.6 376.37,-317.6 374.24,-313.07 372.3,-319.52 372.11,-308.55 372.11,-308.55"/>
<text text-anchor="middle" x="338.76" y="-353.07" font-family="Times,serif" font-size="9.00" fill="lightgray">HardpointsMotion&lt;1&gt;</text>
</g>
<!-- 17850338592001803333 -->
<g id="node9" class="node">
<title>17850338592001803333</title>
<ellipse fill="#3d3d3d" stroke="lightgray" cx="489.24" cy="-1.8" rx="1.8" ry="1.8"/>
</g>
<!-- 17850338592001803333&#45;&gt;18355315885655082220 -->
<g id="edge7" class="edge">
<title>17850338592001803333&#45;&gt;18355315885655082220</title>
<path fill="none" stroke="#d95f02" d="M489.5,-3.74C490.81,-13.21 496.6,-55.23 500.63,-84.51"/>
<polygon fill="#d95f02" stroke="#d95f02" points="502.03,-94.64 496.2,-85.35 501.34,-89.69 500.66,-84.73 500.66,-84.73 500.66,-84.73 501.34,-89.69 505.12,-84.12 502.03,-94.64 502.03,-94.64"/>
<text text-anchor="middle" x="426.29" y="-52.15" font-family="Times,serif" font-size="9.00" fill="lightgray">ActuatorCommandForces&lt;1&gt;</text>
</g>
</g>
</svg>
