<?xml version="1.0" encoding="UTF-8" standalone="no"?>
<!DOCTYPE svg PUBLIC "-//W3C//DTD SVG 1.1//EN"
 "http://www.w3.org/Graphics/SVG/1.1/DTD/svg11.dtd">
<!-- Generated by graphviz version 2.40.1 (20161225.0304)
 -->
<!-- Title: G Pages: 1 -->
<svg width="256pt" height="74pt"
 viewBox="0.00 0.00 255.64 73.91" xmlns="http://www.w3.org/2000/svg" xmlns:xlink="http://www.w3.org/1999/xlink">
<g id="graph0" class="graph" transform="scale(1 1) rotate(0) translate(4 69.9127)">
<title>G</title>
<polygon fill="#3d3d3d" stroke="transparent" points="-4,4 -4,-69.9127 251.6381,-69.9127 251.6381,4 -4,4"/>
<!-- 15508195544299657810 -->
<g id="node1" class="node">
<title>15508195544299657810</title>
<path fill="#d3d3d3" stroke="#000000" d="M96,-36C96,-36 12,-36 12,-36 6,-36 0,-30 0,-24 0,-24 0,-12 0,-12 0,-6 6,0 12,0 12,0 96,0 96,0 102,0 108,-6 108,-12 108,-12 108,-24 108,-24 108,-30 102,-36 96,-36"/>
<text text-anchor="middle" x="54" y="-14.3" font-family="Times,serif" font-size="14.00" fill="#000000">Timer</text>
</g>
<!-- 15164962824015256459 -->
<g id="node3" class="node">
<title>15164962824015256459</title>
<ellipse fill="#3d3d3d" stroke="#d3d3d3" cx="126.1569" cy="-22.0208" rx="1.8" ry="1.8"/>
</g>
<!-- 15508195544299657810&#45;&gt;15164962824015256459 -->
<g id="edge1" class="edge">
<title>15508195544299657810&#45;&gt;15164962824015256459</title>
<path fill="none" stroke="#1b9e77" d="M108.3204,-21.0269C115.3683,-21.4196 121.1559,-21.7421 124.0849,-21.9053"/>
</g>
<!-- 13249350414779357824 -->
<g id="node2" class="node">
<title>13249350414779357824</title>
<path fill="#d3d3d3" stroke="#000000" d="M235.6381,-65.9127C235.6381,-65.9127 151.6381,-65.9127 151.6381,-65.9127 145.6381,-65.9127 139.6381,-59.9127 139.6381,-53.9127 139.6381,-53.9127 139.6381,-41.9127 139.6381,-41.9127 139.6381,-35.9127 145.6381,-29.9127 151.6381,-29.9127 151.6381,-29.9127 235.6381,-29.9127 235.6381,-29.9127 241.6381,-29.9127 247.6381,-35.9127 247.6381,-41.9127 247.6381,-41.9127 247.6381,-53.9127 247.6381,-53.9127 247.6381,-59.9127 241.6381,-65.9127 235.6381,-65.9127"/>
<text text-anchor="middle" x="193.6381" y="-44.2127" font-family="Times,serif" font-size="14.00" fill="#000000">On&#45;axis GMT</text>
</g>
<!-- 15164962824015256459&#45;&gt;13249350414779357824 -->
<g id="edge2" class="edge">
<title>15164962824015256459&#45;&gt;13249350414779357824</title>
<path fill="none" stroke="#1b9e77" d="M128.1037,-22.7678C129.9777,-23.4868 133.0969,-24.6836 136.9857,-26.1757"/>
<polygon fill="#1b9e77" stroke="#1b9e77" points="146.5437,-29.843 135.5953,-30.462 141.8755,-28.0518 137.2073,-26.2607 137.2073,-26.2607 137.2073,-26.2607 141.8755,-28.0518 138.8194,-22.0593 146.5437,-29.843 146.5437,-29.843"/>
<text text-anchor="middle" x="128.804" y="-28.9059" font-family="Times,serif" font-size="9.00" fill="#d3d3d3">Tick</text>
</g>
</g>
</svg>
