<?xml version="1.0" encoding="UTF-8" standalone="no"?>
<!DOCTYPE svg PUBLIC "-//W3C//DTD SVG 1.1//EN"
 "http://www.w3.org/Graphics/SVG/1.1/DTD/svg11.dtd">
<!-- Generated by graphviz version 2.43.0 (0)
 -->
<!-- Title: G Pages: 1 -->
<svg width="232pt" height="496pt"
 viewBox="0.00 0.00 232.00 496.17" xmlns="http://www.w3.org/2000/svg" xmlns:xlink="http://www.w3.org/1999/xlink">
<g id="graph0" class="graph" transform="scale(1 1) rotate(0) translate(4 492.17)">
<title>G</title>
<polygon fill="#3d3d3d" stroke="transparent" points="-4,4 -4,-492.17 228,-492.17 228,4 -4,4"/>
<!-- 12591052004770678859 -->
<g id="node1" class="node">
<title>12591052004770678859</title>
<path fill="lightgray" stroke="black" d="M171.23,-488.17C171.23,-488.17 87.23,-488.17 87.23,-488.17 81.23,-488.17 75.23,-482.17 75.23,-476.17 75.23,-476.17 75.23,-464.17 75.23,-464.17 75.23,-458.17 81.23,-452.17 87.23,-452.17 87.23,-452.17 171.23,-452.17 171.23,-452.17 177.23,-452.17 183.23,-458.17 183.23,-464.17 183.23,-464.17 183.23,-476.17 183.23,-476.17 183.23,-482.17 177.23,-488.17 171.23,-488.17"/>
<text text-anchor="middle" x="129.23" y="-466.47" font-family="Times,serif" font-size="14.00">Signals</text>
</g>
<!-- 13617421333920241101 -->
<g id="node5" class="node">
<title>13617421333920241101</title>
<ellipse fill="#3d3d3d" stroke="lightgray" cx="127.29" cy="-346.65" rx="1.8" ry="1.8"/>
</g>
<!-- 12591052004770678859&#45;&gt;13617421333920241101 -->
<g id="edge1" class="edge">
<title>12591052004770678859&#45;&gt;13617421333920241101</title>
<path fill="none" stroke="#1b9e77" d="M128.94,-451.95C128.46,-421.08 127.51,-360.68 127.32,-348.73"/>
</g>
<!-- 13897816450602454118 -->
<g id="node2" class="node">
<title>13897816450602454118</title>
<path fill="lightgray" stroke="black" d="M96,-259.71C96,-259.71 12,-259.71 12,-259.71 6,-259.71 0,-253.71 0,-247.71 0,-247.71 0,-235.71 0,-235.71 0,-229.71 6,-223.71 12,-223.71 12,-223.71 96,-223.71 96,-223.71 102,-223.71 108,-229.71 108,-235.71 108,-235.71 108,-247.71 108,-247.71 108,-253.71 102,-259.71 96,-259.71"/>
<text text-anchor="middle" x="54" y="-238.01" font-family="Times,serif" font-size="14.00">+</text>
</g>
<!-- 12808559226776856679 -->
<g id="node6" class="node">
<title>12808559226776856679</title>
<ellipse fill="#3d3d3d" stroke="lightgray" cx="156.97" cy="-121.53" rx="1.8" ry="1.8"/>
</g>
<!-- 13897816450602454118&#45;&gt;12808559226776856679 -->
<g id="edge2" class="edge">
<title>13897816450602454118&#45;&gt;12808559226776856679</title>
<path fill="none" stroke="#1b9e77" d="M69.64,-223.45C95.97,-192.72 147.13,-133.01 155.73,-122.98"/>
</g>
<!-- 5038856807740738740 -->
<g id="node3" class="node">
<title>5038856807740738740</title>
<path fill="lightgray" stroke="black" d="M124.69,-36C124.69,-36 40.69,-36 40.69,-36 34.69,-36 28.69,-30 28.69,-24 28.69,-24 28.69,-12 28.69,-12 28.69,-6 34.69,0 40.69,0 40.69,0 124.69,0 124.69,0 130.69,0 136.69,-6 136.69,-12 136.69,-12 136.69,-24 136.69,-24 136.69,-30 130.69,-36 124.69,-36"/>
<text text-anchor="middle" x="82.69" y="-14.3" font-family="Times,serif" font-size="14.00">Integrator</text>
</g>
<!-- 13334648313675144244 -->
<g id="node7" class="node">
<title>13334648313675144244</title>
<ellipse fill="#3d3d3d" stroke="lightgray" cx="39.05" cy="-137.26" rx="1.8" ry="1.8"/>
</g>
<!-- 5038856807740738740&#45;&gt;13334648313675144244 -->
<g id="edge3" class="edge">
<title>5038856807740738740&#45;&gt;13334648313675144244</title>
<path fill="none" stroke="#1b9e77" stroke-width="2" d="M76.07,-36.11C65,-66.35 43.59,-124.85 39.68,-135.56"/>
</g>
<!-- 4880503327491639914 -->
<g id="node4" class="node">
<title>4880503327491639914</title>
<path fill="lightgray" stroke="black" d="M212,-244.71C212,-244.71 128,-244.71 128,-244.71 122,-244.71 116,-238.71 116,-232.71 116,-232.71 116,-220.71 116,-220.71 116,-214.71 122,-208.71 128,-208.71 128,-208.71 212,-208.71 212,-208.71 218,-208.71 224,-214.71 224,-220.71 224,-220.71 224,-232.71 224,-232.71 224,-238.71 218,-244.71 212,-244.71"/>
<text text-anchor="middle" x="170" y="-223.01" font-family="Times,serif" font-size="14.00">Logging</text>
</g>
<!-- 13617421333920241101&#45;&gt;13897816450602454118 -->
<g id="edge4" class="edge">
<title>13617421333920241101&#45;&gt;13897816450602454118</title>
<path fill="none" stroke="#1b9e77" d="M126.26,-345.17C120.51,-336.94 92.11,-296.28 72.68,-268.45"/>
<polygon fill="#1b9e77" stroke="#1b9e77" points="66.72,-259.92 76.14,-265.55 69.58,-264.02 72.45,-268.12 72.45,-268.12 72.45,-268.12 69.58,-264.02 68.76,-270.7 66.72,-259.92 66.72,-259.92"/>
<text text-anchor="middle" x="92.4" y="-305.22" font-family="Times,serif" font-size="9.00" fill="lightgray">U</text>
</g>
<!-- 13617421333920241101&#45;&gt;4880503327491639914 -->
<g id="edge7" class="edge">
<title>13617421333920241101&#45;&gt;4880503327491639914</title>
<path fill="none" stroke="#1b9e77" d="M128.03,-344.57C131.79,-334.01 149,-285.69 160.18,-254.29"/>
<polygon fill="#1b9e77" stroke="#1b9e77" points="163.57,-244.76 164.46,-255.69 161.89,-249.47 160.22,-254.18 160.22,-254.18 160.22,-254.18 161.89,-249.47 155.98,-252.67 163.57,-244.76 163.57,-244.76"/>
<text text-anchor="middle" x="141.78" y="-297.53" font-family="Times,serif" font-size="9.00" fill="lightgray">U</text>
</g>
<!-- 12808559226776856679&#45;&gt;5038856807740738740 -->
<g id="edge6" class="edge">
<title>12808559226776856679&#45;&gt;5038856807740738740</title>
<path fill="none" stroke="#1b9e77" d="M155.92,-120.06C150.13,-111.99 121.63,-72.27 101.95,-44.83"/>
<polygon fill="#1b9e77" stroke="#1b9e77" points="95.9,-36.41 105.39,-41.91 98.82,-40.47 101.73,-44.54 101.73,-44.54 101.73,-44.54 98.82,-40.47 98.08,-47.16 95.9,-36.41 95.9,-36.41"/>
<text text-anchor="middle" x="122.39" y="-81.01" font-family="Times,serif" font-size="9.00" fill="lightgray">E</text>
</g>
<!-- 12808559226776856679&#45;&gt;4880503327491639914 -->
<g id="edge8" class="edge">
<title>12808559226776856679&#45;&gt;4880503327491639914</title>
<path fill="none" stroke="#1b9e77" d="M157.2,-123.35C158.28,-132.12 163.05,-170.6 166.45,-198.03"/>
<polygon fill="#1b9e77" stroke="#1b9e77" points="167.72,-208.28 162.02,-198.91 167.1,-203.32 166.49,-198.36 166.49,-198.36 166.49,-198.36 167.1,-203.32 170.95,-197.81 167.72,-208.28 167.72,-208.28"/>
<text text-anchor="middle" x="158.94" y="-168.51" font-family="Times,serif" font-size="9.00" fill="lightgray">E</text>
</g>
<!-- 13334648313675144244&#45;&gt;13897816450602454118 -->
<g id="edge5" class="edge">
<title>13334648313675144244&#45;&gt;13897816450602454118</title>
<path fill="none" stroke="#1b9e77" d="M39.31,-139.07C40.56,-147.78 46.03,-185.99 49.93,-213.23"/>
<polygon fill="#1b9e77" stroke="#1b9e77" points="51.38,-223.41 45.51,-214.15 50.67,-218.46 49.97,-213.51 49.97,-213.51 49.97,-213.51 50.67,-218.46 54.42,-212.87 51.38,-223.41 51.38,-223.41"/>
<text text-anchor="middle" x="41.83" y="-183.94" font-family="Times,serif" font-size="9.00" fill="lightgray">Y</text>
</g>
<!-- 13334648313675144244&#45;&gt;4880503327491639914 -->
<g id="edge9" class="edge">
<title>13334648313675144244&#45;&gt;4880503327491639914</title>
<path fill="none" stroke="#1b9e77" d="M40.91,-138.53C51.02,-145.44 100.43,-179.19 135.09,-202.87"/>
<polygon fill="#1b9e77" stroke="#1b9e77" points="143.56,-208.65 132.76,-206.72 139.43,-205.83 135.3,-203.01 135.3,-203.01 135.3,-203.01 139.43,-205.83 137.84,-199.29 143.56,-208.65 143.56,-208.65"/>
<text text-anchor="middle" x="88.78" y="-176.42" font-family="Times,serif" font-size="9.00" fill="lightgray">Y</text>
</g>
</g>
</svg>
