<?xml version="1.0" encoding="UTF-8" standalone="no"?>
<!DOCTYPE svg PUBLIC "-//W3C//DTD SVG 1.1//EN"
 "http://www.w3.org/Graphics/SVG/1.1/DTD/svg11.dtd">
<!-- Generated by graphviz version 2.43.0 (0)
 -->
<!-- Title: G Pages: 1 -->
<svg width="217pt" height="290pt"
 viewBox="0.00 0.00 217.08 289.61" xmlns="http://www.w3.org/2000/svg" xmlns:xlink="http://www.w3.org/1999/xlink">
<g id="graph0" class="graph" transform="scale(1 1) rotate(0) translate(4 285.61)">
<title>G</title>
<polygon fill="#3d3d3d" stroke="transparent" points="-4,4 -4,-285.61 213.08,-285.61 213.08,4 -4,4"/>
<!-- A -->
<g id="node1" class="node">
<title>A</title>
<path fill="lightgray" stroke="black" d="M96,-281.61C96,-281.61 12,-281.61 12,-281.61 6,-281.61 0,-275.61 0,-269.61 0,-269.61 0,-257.61 0,-257.61 0,-251.61 6,-245.61 12,-245.61 12,-245.61 96,-245.61 96,-245.61 102,-245.61 108,-251.61 108,-257.61 108,-257.61 108,-269.61 108,-269.61 108,-275.61 102,-281.61 96,-281.61"/>
<text text-anchor="middle" x="54" y="-259.91" font-family="Times,serif" font-size="14.00">A</text>
</g>
<!-- U -->
<g id="node4" class="node">
<title>U</title>
<ellipse fill="#3d3d3d" stroke="lightgray" cx="88.01" cy="-199.08" rx="1.8" ry="1.8"/>
</g>
<!-- A&#45;&gt;U -->
<g id="edge4" class="edge">
<title>A&#45;&gt;U</title>
<path fill="none" stroke="#1b9e77" d="M63.66,-245.29C72.14,-229.2 83.65,-207.37 87.04,-200.94"/>
</g>
<!-- B -->
<g id="node2" class="node">
<title>B</title>
<path fill="lightgray" stroke="black" d="M155.66,-146.28C155.66,-146.28 71.66,-146.28 71.66,-146.28 65.66,-146.28 59.66,-140.28 59.66,-134.28 59.66,-134.28 59.66,-122.28 59.66,-122.28 59.66,-116.28 65.66,-110.28 71.66,-110.28 71.66,-110.28 155.66,-110.28 155.66,-110.28 161.66,-110.28 167.66,-116.28 167.66,-122.28 167.66,-122.28 167.66,-134.28 167.66,-134.28 167.66,-140.28 161.66,-146.28 155.66,-146.28"/>
<text text-anchor="middle" x="113.66" y="-124.58" font-family="Times,serif" font-size="14.00">B</text>
</g>
<!-- E -->
<g id="node5" class="node">
<title>E</title>
<ellipse fill="#3d3d3d" stroke="lightgray" cx="183.91" cy="-91.66" rx="1.8" ry="1.8"/>
</g>
<!-- B&#45;&gt;E -->
<g id="edge5" class="edge">
<title>B&#45;&gt;E</title>
<path fill="none" stroke="#1b9e77" d="M148.37,-110.18C162.75,-102.68 177.23,-95.14 182.15,-92.57"/>
</g>
<!-- C -->
<g id="node3" class="node">
<title>C</title>
<path fill="lightgray" stroke="black" d="M197.08,-36C197.08,-36 113.08,-36 113.08,-36 107.08,-36 101.08,-30 101.08,-24 101.08,-24 101.08,-12 101.08,-12 101.08,-6 107.08,0 113.08,0 113.08,0 197.08,0 197.08,0 203.08,0 209.08,-6 209.08,-12 209.08,-12 209.08,-24 209.08,-24 209.08,-30 203.08,-36 197.08,-36"/>
<text text-anchor="middle" x="155.08" y="-14.3" font-family="Times,serif" font-size="14.00">C</text>
</g>
<!-- Y -->
<g id="node6" class="node">
<title>Y</title>
<ellipse fill="#3d3d3d" stroke="lightgray" cx="84.92" cy="-54.34" rx="1.8" ry="1.8"/>
</g>
<!-- C&#45;&gt;Y -->
<g id="edge6" class="edge">
<title>C&#45;&gt;Y</title>
<path fill="none" stroke="#1b9e77" d="M120,-36.17C105.75,-43.55 91.5,-50.94 86.65,-53.44"/>
</g>
<!-- U&#45;&gt;B -->
<g id="edge1" class="edge">
<title>U&#45;&gt;B</title>
<path fill="none" stroke="#1b9e77" d="M88.65,-197.33C90.72,-191.62 97.49,-172.93 103.46,-156.43"/>
<polygon fill="#1b9e77" stroke="#1b9e77" points="107.03,-146.58 107.86,-157.52 105.33,-151.28 103.63,-155.98 103.63,-155.98 103.63,-155.98 105.33,-151.28 99.39,-154.45 107.03,-146.58 107.03,-146.58"/>
<text text-anchor="middle" x="93.93" y="-174.49" font-family="Times,serif" font-size="9.00" fill="lightgray">U</text>
</g>
<!-- E&#45;&gt;C -->
<g id="edge2" class="edge">
<title>E&#45;&gt;C</title>
<path fill="none" stroke="#1b9e77" d="M183.2,-89.83C180.78,-83.67 172.68,-62.96 165.79,-45.36"/>
<polygon fill="#1b9e77" stroke="#1b9e77" points="162.13,-36.01 169.96,-43.68 163.95,-40.66 165.77,-45.32 165.77,-45.32 165.77,-45.32 163.95,-40.66 161.58,-46.96 162.13,-36.01 162.13,-36.01"/>
<text text-anchor="middle" x="169.22" y="-65.86" font-family="Times,serif" font-size="9.00" fill="lightgray">E</text>
</g>
<!-- Y&#45;&gt;B -->
<g id="edge3" class="edge">
<title>Y&#45;&gt;B</title>
<path fill="none" stroke="#1b9e77" d="M85.63,-56.17C88.04,-62.36 96.11,-83.15 102.98,-100.82"/>
<polygon fill="#1b9e77" stroke="#1b9e77" points="106.63,-110.2 98.82,-102.51 104.82,-105.54 103.01,-100.88 103.01,-100.88 103.01,-100.88 104.82,-105.54 107.2,-99.25 106.63,-110.2 106.63,-110.2"/>
<text text-anchor="middle" x="92.57" y="-85.84" font-family="Times,serif" font-size="9.00" fill="lightgray">Y</text>
</g>
</g>
</svg>
