<?xml version="1.0" encoding="UTF-8" standalone="no"?>
<!DOCTYPE svg PUBLIC "-//W3C//DTD SVG 1.1//EN"
 "http://www.w3.org/Graphics/SVG/1.1/DTD/svg11.dtd">
<!-- Generated by graphviz version 2.43.0 (0)
 -->
<!-- Title: G Pages: 1 -->
<svg width="1221pt" height="336pt"
 viewBox="0.00 0.00 1220.88 335.92" xmlns="http://www.w3.org/2000/svg" xmlns:xlink="http://www.w3.org/1999/xlink">
<g id="graph0" class="graph" transform="scale(1 1) rotate(0) translate(4 331.92)">
<title>G</title>
<polygon fill="#3d3d3d" stroke="transparent" points="-4,4 -4,-331.92 1216.88,-331.92 1216.88,4 -4,4"/>
<!-- 16080239393517392754 -->
<g id="node1" class="node">
<title>16080239393517392754</title>
<path fill="lightgray" stroke="black" d="M138.42,-36C138.42,-36 54.42,-36 54.42,-36 48.42,-36 42.42,-30 42.42,-24 42.42,-24 42.42,-12 42.42,-12 42.42,-6 48.42,0 54.42,0 54.42,0 138.42,0 138.42,0 144.42,0 150.42,-6 150.42,-12 150.42,-12 150.42,-24 150.42,-24 150.42,-30 144.42,-36 138.42,-36"/>
<text text-anchor="middle" x="96.42" y="-14.3" font-family="Times,serif" font-size="14.00">Signals</text>
</g>
<!-- 13617421333920241101 -->
<g id="node9" class="node">
<title>13617421333920241101</title>
<ellipse fill="#3d3d3d" stroke="lightgray" cx="195.6" cy="-142.63" rx="1.8" ry="1.8"/>
</g>
<!-- 16080239393517392754&#45;&gt;13617421333920241101 -->
<g id="edge1" class="edge">
<title>16080239393517392754&#45;&gt;13617421333920241101</title>
<path fill="none" stroke="#1b9e77" d="M110.85,-36.12C135.99,-67.72 185.98,-130.54 194.39,-141.11"/>
</g>
<!-- 11110891922990083343 -->
<g id="node2" class="node">
<title>11110891922990083343</title>
<path fill="lightgray" stroke="black" d="M329.98,-308.13C329.98,-308.13 231.98,-308.13 231.98,-308.13 225.98,-308.13 219.98,-302.13 219.98,-296.13 219.98,-296.13 219.98,-282.13 219.98,-282.13 219.98,-276.13 225.98,-270.13 231.98,-270.13 231.98,-270.13 329.98,-270.13 329.98,-270.13 335.98,-270.13 341.98,-276.13 341.98,-282.13 341.98,-282.13 341.98,-296.13 341.98,-296.13 341.98,-302.13 335.98,-308.13 329.98,-308.13"/>
<text text-anchor="middle" x="280.98" y="-292.93" font-family="Times,serif" font-size="14.00">1:4</text>
<text text-anchor="middle" x="280.98" y="-277.93" font-family="Times,serif" font-size="14.00">Downsampling</text>
</g>
<!-- 14090999327100098430 -->
<g id="node10" class="node">
<title>14090999327100098430</title>
<ellipse fill="#3d3d3d" stroke="lightgray" cx="445.29" cy="-326.12" rx="1.8" ry="1.8"/>
</g>
<!-- 11110891922990083343&#45;&gt;14090999327100098430 -->
<g id="edge2" class="edge">
<title>11110891922990083343&#45;&gt;14090999327100098430</title>
<path fill="none" stroke="#d95f02" d="M342.16,-302.91C383.77,-312.27 433.06,-323.37 443.35,-325.69"/>
</g>
<!-- 17901095001679318352 -->
<g id="node3" class="node">
<title>17901095001679318352</title>
<path fill="lightgray" stroke="black" d="M917.79,-295.19C917.79,-295.19 833.79,-295.19 833.79,-295.19 827.79,-295.19 821.79,-289.19 821.79,-283.19 821.79,-283.19 821.79,-269.19 821.79,-269.19 821.79,-263.19 827.79,-257.19 833.79,-257.19 833.79,-257.19 917.79,-257.19 917.79,-257.19 923.79,-257.19 929.79,-263.19 929.79,-269.19 929.79,-269.19 929.79,-283.19 929.79,-283.19 929.79,-289.19 923.79,-295.19 917.79,-295.19"/>
<text text-anchor="middle" x="875.79" y="-279.99" font-family="Times,serif" font-size="14.00">4:2</text>
<text text-anchor="middle" x="875.79" y="-264.99" font-family="Times,serif" font-size="14.00">Upsampling</text>
</g>
<!-- 3979635211623298242 -->
<g id="node11" class="node">
<title>3979635211623298242</title>
<ellipse fill="#3d3d3d" stroke="lightgray" cx="1018.73" cy="-274.04" rx="1.8" ry="1.8"/>
</g>
<!-- 17901095001679318352&#45;&gt;3979635211623298242 -->
<g id="edge3" class="edge">
<title>17901095001679318352&#45;&gt;3979635211623298242</title>
<path fill="none" stroke="#7570b3" d="M929.83,-275.38C965.25,-274.84 1006.75,-274.22 1016.57,-274.07"/>
</g>
<!-- 7614126030020206094 -->
<g id="node4" class="node">
<title>7614126030020206094</title>
<path fill="lightgray" stroke="black" d="M647.64,-243.61C647.64,-243.61 523.64,-243.61 523.64,-243.61 517.64,-243.61 511.64,-237.61 511.64,-231.61 511.64,-231.61 511.64,-219.61 511.64,-219.61 511.64,-213.61 517.64,-207.61 523.64,-207.61 523.64,-207.61 647.64,-207.61 647.64,-207.61 653.64,-207.61 659.64,-213.61 659.64,-219.61 659.64,-219.61 659.64,-231.61 659.64,-231.61 659.64,-237.61 653.64,-243.61 647.64,-243.61"/>
<text text-anchor="middle" x="585.64" y="-221.91" font-family="Times,serif" font-size="14.00">&#45;(Y &#45; A)*sign(x[i&#45;1])</text>
</g>
<!-- 1312330470008679502 -->
<g id="node12" class="node">
<title>1312330470008679502</title>
<ellipse fill="#3d3d3d" stroke="lightgray" cx="732.71" cy="-256.6" rx="1.8" ry="1.8"/>
</g>
<!-- 7614126030020206094&#45;&gt;1312330470008679502 -->
<g id="edge4" class="edge">
<title>7614126030020206094&#45;&gt;1312330470008679502</title>
<path fill="none" stroke="#d95f02" d="M660.03,-241.29C691.38,-247.89 722.52,-254.46 730.66,-256.17"/>
</g>
<!-- 13418383846904852565 -->
<g id="node5" class="node">
<title>13418383846904852565</title>
<path fill="lightgray" stroke="black" d="M491.64,-218.24C491.64,-218.24 407.64,-218.24 407.64,-218.24 401.64,-218.24 395.64,-212.24 395.64,-206.24 395.64,-206.24 395.64,-192.24 395.64,-192.24 395.64,-186.24 401.64,-180.24 407.64,-180.24 407.64,-180.24 491.64,-180.24 491.64,-180.24 497.64,-180.24 503.64,-186.24 503.64,-192.24 503.64,-192.24 503.64,-206.24 503.64,-206.24 503.64,-212.24 497.64,-218.24 491.64,-218.24"/>
<text text-anchor="middle" x="449.64" y="-203.04" font-family="Times,serif" font-size="14.00">Down</text>
<text text-anchor="middle" x="449.64" y="-188.04" font-family="Times,serif" font-size="14.00">Logging</text>
</g>
<!-- 11645971808258574285 -->
<g id="node6" class="node">
<title>11645971808258574285</title>
<path fill="lightgray" stroke="black" d="M96,-232.85C96,-232.85 12,-232.85 12,-232.85 6,-232.85 0,-226.85 0,-220.85 0,-220.85 0,-208.85 0,-208.85 0,-202.85 6,-196.85 12,-196.85 12,-196.85 96,-196.85 96,-196.85 102,-196.85 108,-202.85 108,-208.85 108,-208.85 108,-220.85 108,-220.85 108,-226.85 102,-232.85 96,-232.85"/>
<text text-anchor="middle" x="54" y="-211.15" font-family="Times,serif" font-size="14.00">Logging</text>
</g>
<!-- 9332356357388745547 -->
<g id="node7" class="node">
<title>9332356357388745547</title>
<path fill="lightgray" stroke="black" d="M1200.88,-268.29C1200.88,-268.29 1116.88,-268.29 1116.88,-268.29 1110.88,-268.29 1104.88,-262.29 1104.88,-256.29 1104.88,-256.29 1104.88,-242.29 1104.88,-242.29 1104.88,-236.29 1110.88,-230.29 1116.88,-230.29 1116.88,-230.29 1200.88,-230.29 1200.88,-230.29 1206.88,-230.29 1212.88,-236.29 1212.88,-242.29 1212.88,-242.29 1212.88,-256.29 1212.88,-256.29 1212.88,-262.29 1206.88,-268.29 1200.88,-268.29"/>
<text text-anchor="middle" x="1158.88" y="-253.09" font-family="Times,serif" font-size="14.00">Up</text>
<text text-anchor="middle" x="1158.88" y="-238.09" font-family="Times,serif" font-size="14.00">Logging</text>
</g>
<!-- 16116145796696598429 -->
<g id="node8" class="node">
<title>16116145796696598429</title>
<path fill="lightgray" stroke="black" d="M374.46,-62.33C374.46,-62.33 290.46,-62.33 290.46,-62.33 284.46,-62.33 278.46,-56.33 278.46,-50.33 278.46,-50.33 278.46,-36.33 278.46,-36.33 278.46,-30.33 284.46,-24.33 290.46,-24.33 290.46,-24.33 374.46,-24.33 374.46,-24.33 380.46,-24.33 386.46,-30.33 386.46,-36.33 386.46,-36.33 386.46,-50.33 386.46,-50.33 386.46,-56.33 380.46,-62.33 374.46,-62.33"/>
<text text-anchor="middle" x="332.46" y="-47.13" font-family="Times,serif" font-size="14.00">1/4</text>
<text text-anchor="middle" x="332.46" y="-32.13" font-family="Times,serif" font-size="14.00">Average</text>
</g>
<!-- 9724242860893494469 -->
<g id="node13" class="node">
<title>9724242860893494469</title>
<ellipse fill="#3d3d3d" stroke="lightgray" cx="495.77" cy="-78.58" rx="1.8" ry="1.8"/>
</g>
<!-- 16116145796696598429&#45;&gt;9724242860893494469 -->
<g id="edge5" class="edge">
<title>16116145796696598429&#45;&gt;9724242860893494469</title>
<path fill="none" stroke="#d95f02" d="M386.84,-55.07C429.52,-64.28 483.44,-75.92 493.95,-78.18"/>
</g>
<!-- 13617421333920241101&#45;&gt;11110891922990083343 -->
<g id="edge6" class="edge">
<title>13617421333920241101&#45;&gt;11110891922990083343</title>
<path fill="none" stroke="#1b9e77" d="M196.56,-144.28C203.14,-155.57 242.04,-222.31 264.67,-261.15"/>
<polygon fill="#1b9e77" stroke="#1b9e77" points="269.77,-269.91 260.85,-263.53 267.26,-265.59 264.74,-261.27 264.74,-261.27 264.74,-261.27 267.26,-265.59 268.63,-259 269.77,-269.91 269.77,-269.91"/>
<text text-anchor="middle" x="229.27" y="-210.07" font-family="Times,serif" font-size="9.00" fill="lightgray">U</text>
</g>
<!-- 13617421333920241101&#45;&gt;11645971808258574285 -->
<g id="edge12" class="edge">
<title>13617421333920241101&#45;&gt;11645971808258574285</title>
<path fill="none" stroke="#1b9e77" d="M193.6,-143.65C183.31,-148.9 135.44,-173.31 98.59,-192.11"/>
<polygon fill="#1b9e77" stroke="#1b9e77" points="89.49,-196.75 96.36,-188.2 93.95,-194.48 98.4,-192.2 98.4,-192.2 98.4,-192.2 93.95,-194.48 100.44,-196.21 89.49,-196.75 89.49,-196.75"/>
<text text-anchor="middle" x="137.68" y="-172.93" font-family="Times,serif" font-size="9.00" fill="lightgray">U</text>
</g>
<!-- 13617421333920241101&#45;&gt;16116145796696598429 -->
<g id="edge14" class="edge">
<title>13617421333920241101&#45;&gt;16116145796696598429</title>
<path fill="none" stroke="#1b9e77" d="M197.14,-141.52C206.9,-134.43 261.01,-95.17 297.78,-68.5"/>
<polygon fill="#1b9e77" stroke="#1b9e77" points="306.25,-62.34 300.8,-71.86 302.21,-65.28 298.16,-68.22 298.16,-68.22 298.16,-68.22 302.21,-65.28 295.52,-64.57 306.25,-62.34 306.25,-62.34"/>
<text text-anchor="middle" x="247.87" y="-104.61" font-family="Times,serif" font-size="9.00" fill="lightgray">U</text>
</g>
<!-- 14090999327100098430&#45;&gt;7614126030020206094 -->
<g id="edge8" class="edge">
<title>14090999327100098430&#45;&gt;7614126030020206094</title>
<path fill="none" stroke="#d95f02" d="M446.86,-324.99C457.06,-317.7 514.4,-276.63 552.11,-249.62"/>
<polygon fill="#d95f02" stroke="#d95f02" points="560.3,-243.75 554.79,-253.23 556.24,-246.66 552.17,-249.58 552.17,-249.58 552.17,-249.58 556.24,-246.66 549.55,-245.92 560.3,-243.75 560.3,-243.75"/>
<text text-anchor="middle" x="499.91" y="-287.3" font-family="Times,serif" font-size="9.00" fill="lightgray">Y</text>
</g>
<!-- 14090999327100098430&#45;&gt;13418383846904852565 -->
<g id="edge10" class="edge">
<title>14090999327100098430&#45;&gt;13418383846904852565</title>
<path fill="none" stroke="#d95f02" d="M445.36,-323.92C445.75,-312.76 447.5,-261.64 448.64,-228.42"/>
<polygon fill="#d95f02" stroke="#d95f02" points="448.98,-218.34 453.14,-228.48 448.81,-223.33 448.64,-228.33 448.64,-228.33 448.64,-228.33 448.81,-223.33 444.14,-228.18 448.98,-218.34 448.98,-218.34"/>
<text text-anchor="middle" x="443.67" y="-273.99" font-family="Times,serif" font-size="9.00" fill="lightgray">Y</text>
</g>
<!-- 3979635211623298242&#45;&gt;9332356357388745547 -->
<g id="edge13" class="edge">
<title>3979635211623298242&#45;&gt;9332356357388745547</title>
<path fill="none" stroke="#7570b3" d="M1020.72,-273.69C1029.13,-272.2 1062.93,-266.24 1094.99,-260.58"/>
<polygon fill="#7570b3" stroke="#7570b3" points="1104.85,-258.83 1095.78,-265 1099.93,-259.7 1095,-260.57 1095,-260.57 1095,-260.57 1099.93,-259.7 1094.22,-256.14 1104.85,-258.83 1104.85,-258.83"/>
<text text-anchor="middle" x="1059.62" y="-269" font-family="Times,serif" font-size="9.00" fill="lightgray">Z</text>
</g>
<!-- 1312330470008679502&#45;&gt;17901095001679318352 -->
<g id="edge7" class="edge">
<title>1312330470008679502&#45;&gt;17901095001679318352</title>
<path fill="none" stroke="#d95f02" d="M734.73,-256.88C743.41,-258.07 778.57,-262.88 811.61,-267.4"/>
<polygon fill="#d95f02" stroke="#d95f02" points="821.76,-268.79 811.25,-271.9 816.81,-268.12 811.86,-267.44 811.86,-267.44 811.86,-267.44 816.81,-268.12 812.47,-262.98 821.76,-268.79 821.76,-268.79"/>
<text text-anchor="middle" x="774.81" y="-265.65" font-family="Times,serif" font-size="9.00" fill="lightgray">Z</text>
</g>
<!-- 9724242860893494469&#45;&gt;7614126030020206094 -->
<g id="edge9" class="edge">
<title>9724242860893494469&#45;&gt;7614126030020206094</title>
<path fill="none" stroke="#d95f02" d="M496.78,-80.23C503.78,-91.68 545.5,-159.94 569.2,-198.72"/>
<polygon fill="#d95f02" stroke="#d95f02" points="574.53,-207.43 565.47,-201.25 571.92,-203.17 569.31,-198.9 569.31,-198.9 569.31,-198.9 571.92,-203.17 573.15,-196.55 574.53,-207.43 574.53,-207.43"/>
<text text-anchor="middle" x="532.13" y="-146.58" font-family="Times,serif" font-size="9.00" fill="lightgray">A</text>
</g>
<!-- 9724242860893494469&#45;&gt;13418383846904852565 -->
<g id="edge11" class="edge">
<title>9724242860893494469&#45;&gt;13418383846904852565</title>
<path fill="none" stroke="#d95f02" d="M495.12,-80.28C491.43,-89.94 472.88,-138.45 460.64,-170.46"/>
<polygon fill="#d95f02" stroke="#d95f02" points="457.07,-179.81 456.44,-168.86 458.85,-175.14 460.64,-170.47 460.64,-170.47 460.64,-170.47 458.85,-175.14 464.84,-172.08 457.07,-179.81 457.07,-179.81"/>
<text text-anchor="middle" x="472.62" y="-132.78" font-family="Times,serif" font-size="9.00" fill="lightgray">A</text>
</g>
</g>
</svg>
