<?xml version="1.0" encoding="UTF-8" standalone="no"?>
<!DOCTYPE svg PUBLIC "-//W3C//DTD SVG 1.1//EN"
 "http://www.w3.org/Graphics/SVG/1.1/DTD/svg11.dtd">
<!-- Generated by graphviz version 2.43.0 (0)
 -->
<!-- Title: G Pages: 1 -->
<svg width="914pt" height="432pt"
 viewBox="0.00 0.00 913.52 432.13" xmlns="http://www.w3.org/2000/svg" xmlns:xlink="http://www.w3.org/1999/xlink">
<g id="graph0" class="graph" transform="scale(1 1) rotate(0) translate(4 428.13)">
<title>G</title>
<polygon fill="#3d3d3d" stroke="transparent" points="-4,4 -4,-428.13 909.52,-428.13 909.52,4 -4,4"/>
<!-- 16080239393517392754 -->
<g id="node1" class="node">
<title>16080239393517392754</title>
<path fill="lightgray" stroke="black" d="M164.79,-36C164.79,-36 80.79,-36 80.79,-36 74.79,-36 68.79,-30 68.79,-24 68.79,-24 68.79,-12 68.79,-12 68.79,-6 74.79,0 80.79,0 80.79,0 164.79,0 164.79,0 170.79,0 176.79,-6 176.79,-12 176.79,-12 176.79,-24 176.79,-24 176.79,-30 170.79,-36 164.79,-36"/>
<text text-anchor="middle" x="122.79" y="-14.3" font-family="Times,serif" font-size="14.00">Signals</text>
</g>
<!-- 13617421333920241101 -->
<g id="node9" class="node">
<title>13617421333920241101</title>
<ellipse fill="#3d3d3d" stroke="lightgray" cx="171.22" cy="-128.11" rx="1.8" ry="1.8"/>
</g>
<!-- 16080239393517392754&#45;&gt;13617421333920241101 -->
<g id="edge1" class="edge">
<title>16080239393517392754&#45;&gt;13617421333920241101</title>
<path fill="none" stroke="#1b9e77" d="M130.79,-36.18C143.15,-64.28 165.93,-116.09 170.44,-126.33"/>
</g>
<!-- 11110891922990083343 -->
<g id="node2" class="node">
<title>11110891922990083343</title>
<path fill="lightgray" stroke="black" d="M254.54,-270.46C254.54,-270.46 156.54,-270.46 156.54,-270.46 150.54,-270.46 144.54,-264.46 144.54,-258.46 144.54,-258.46 144.54,-244.46 144.54,-244.46 144.54,-238.46 150.54,-232.46 156.54,-232.46 156.54,-232.46 254.54,-232.46 254.54,-232.46 260.54,-232.46 266.54,-238.46 266.54,-244.46 266.54,-244.46 266.54,-258.46 266.54,-258.46 266.54,-264.46 260.54,-270.46 254.54,-270.46"/>
<text text-anchor="middle" x="205.54" y="-255.26" font-family="Times,serif" font-size="14.00">1:4</text>
<text text-anchor="middle" x="205.54" y="-240.26" font-family="Times,serif" font-size="14.00">Downsampling</text>
</g>
<!-- 14090999327100098430 -->
<g id="node10" class="node">
<title>14090999327100098430</title>
<ellipse fill="#3d3d3d" stroke="lightgray" cx="318.42" cy="-310.13" rx="1.8" ry="1.8"/>
</g>
<!-- 11110891922990083343&#45;&gt;14090999327100098430 -->
<g id="edge2" class="edge">
<title>11110891922990083343&#45;&gt;14090999327100098430</title>
<path fill="none" stroke="#d95f02" d="M242.19,-270.51C271.03,-285.5 307.76,-304.59 316.49,-309.13"/>
</g>
<!-- 17901095001679318352 -->
<g id="node3" class="node">
<title>17901095001679318352</title>
<path fill="lightgray" stroke="black" d="M685.67,-371.69C685.67,-371.69 601.67,-371.69 601.67,-371.69 595.67,-371.69 589.67,-365.69 589.67,-359.69 589.67,-359.69 589.67,-345.69 589.67,-345.69 589.67,-339.69 595.67,-333.69 601.67,-333.69 601.67,-333.69 685.67,-333.69 685.67,-333.69 691.67,-333.69 697.67,-339.69 697.67,-345.69 697.67,-345.69 697.67,-359.69 697.67,-359.69 697.67,-365.69 691.67,-371.69 685.67,-371.69"/>
<text text-anchor="middle" x="643.67" y="-356.49" font-family="Times,serif" font-size="14.00">4:2</text>
<text text-anchor="middle" x="643.67" y="-341.49" font-family="Times,serif" font-size="14.00">Upsampling</text>
</g>
<!-- 3979635211623298242 -->
<g id="node11" class="node">
<title>3979635211623298242</title>
<ellipse fill="#3d3d3d" stroke="lightgray" cx="749.57" cy="-373.05" rx="1.8" ry="1.8"/>
</g>
<!-- 17901095001679318352&#45;&gt;3979635211623298242 -->
<g id="edge3" class="edge">
<title>17901095001679318352&#45;&gt;3979635211623298242</title>
<path fill="none" stroke="#7570b3" d="M697.86,-363.11C719.84,-367.34 741.54,-371.51 747.79,-372.71"/>
</g>
<!-- 7614126030020206094 -->
<g id="node4" class="node">
<title>7614126030020206094</title>
<path fill="lightgray" stroke="black" d="M502.19,-281.43C502.19,-281.43 378.19,-281.43 378.19,-281.43 372.19,-281.43 366.19,-275.43 366.19,-269.43 366.19,-269.43 366.19,-257.43 366.19,-257.43 366.19,-251.43 372.19,-245.43 378.19,-245.43 378.19,-245.43 502.19,-245.43 502.19,-245.43 508.19,-245.43 514.19,-251.43 514.19,-257.43 514.19,-257.43 514.19,-269.43 514.19,-269.43 514.19,-275.43 508.19,-281.43 502.19,-281.43"/>
<text text-anchor="middle" x="440.19" y="-259.73" font-family="Times,serif" font-size="14.00">&#45;(Y &#45; A)*sign(x[i&#45;1])</text>
</g>
<!-- 1312330470008679502 -->
<g id="node12" class="node">
<title>1312330470008679502</title>
<ellipse fill="#3d3d3d" stroke="lightgray" cx="541.76" cy="-314.04" rx="1.8" ry="1.8"/>
</g>
<!-- 7614126030020206094&#45;&gt;1312330470008679502 -->
<g id="edge4" class="edge">
<title>7614126030020206094&#45;&gt;1312330470008679502</title>
<path fill="none" stroke="#d95f02" d="M476.57,-281.56C501.62,-294.04 531.76,-309.06 539.74,-313.04"/>
</g>
<!-- 13418383846904852565 -->
<g id="node5" class="node">
<title>13418383846904852565</title>
<path fill="lightgray" stroke="black" d="M387.83,-237.43C387.83,-237.43 303.83,-237.43 303.83,-237.43 297.83,-237.43 291.83,-231.43 291.83,-225.43 291.83,-225.43 291.83,-211.43 291.83,-211.43 291.83,-205.43 297.83,-199.43 303.83,-199.43 303.83,-199.43 387.83,-199.43 387.83,-199.43 393.83,-199.43 399.83,-205.43 399.83,-211.43 399.83,-211.43 399.83,-225.43 399.83,-225.43 399.83,-231.43 393.83,-237.43 387.83,-237.43"/>
<text text-anchor="middle" x="345.83" y="-222.23" font-family="Times,serif" font-size="14.00">Down</text>
<text text-anchor="middle" x="345.83" y="-207.23" font-family="Times,serif" font-size="14.00">Logging</text>
</g>
<!-- 11645971808258574285 -->
<g id="node6" class="node">
<title>11645971808258574285</title>
<path fill="lightgray" stroke="black" d="M96,-171.58C96,-171.58 12,-171.58 12,-171.58 6,-171.58 0,-165.58 0,-159.58 0,-159.58 0,-147.58 0,-147.58 0,-141.58 6,-135.58 12,-135.58 12,-135.58 96,-135.58 96,-135.58 102,-135.58 108,-141.58 108,-147.58 108,-147.58 108,-159.58 108,-159.58 108,-165.58 102,-171.58 96,-171.58"/>
<text text-anchor="middle" x="54" y="-149.88" font-family="Times,serif" font-size="14.00">Logging</text>
</g>
<!-- 9332356357388745547 -->
<g id="node7" class="node">
<title>9332356357388745547</title>
<path fill="lightgray" stroke="black" d="M893.52,-424.13C893.52,-424.13 809.52,-424.13 809.52,-424.13 803.52,-424.13 797.52,-418.13 797.52,-412.13 797.52,-412.13 797.52,-398.13 797.52,-398.13 797.52,-392.13 803.52,-386.13 809.52,-386.13 809.52,-386.13 893.52,-386.13 893.52,-386.13 899.52,-386.13 905.52,-392.13 905.52,-398.13 905.52,-398.13 905.52,-412.13 905.52,-412.13 905.52,-418.13 899.52,-424.13 893.52,-424.13"/>
<text text-anchor="middle" x="851.52" y="-408.93" font-family="Times,serif" font-size="14.00">Up</text>
<text text-anchor="middle" x="851.52" y="-393.93" font-family="Times,serif" font-size="14.00">Logging</text>
</g>
<!-- 16116145796696598429 -->
<g id="node8" class="node">
<title>16116145796696598429</title>
<path fill="lightgray" stroke="black" d="M332.19,-100.84C332.19,-100.84 248.19,-100.84 248.19,-100.84 242.19,-100.84 236.19,-94.84 236.19,-88.84 236.19,-88.84 236.19,-74.84 236.19,-74.84 236.19,-68.84 242.19,-62.84 248.19,-62.84 248.19,-62.84 332.19,-62.84 332.19,-62.84 338.19,-62.84 344.19,-68.84 344.19,-74.84 344.19,-74.84 344.19,-88.84 344.19,-88.84 344.19,-94.84 338.19,-100.84 332.19,-100.84"/>
<text text-anchor="middle" x="290.19" y="-85.64" font-family="Times,serif" font-size="14.00">1/4</text>
<text text-anchor="middle" x="290.19" y="-70.64" font-family="Times,serif" font-size="14.00">Average</text>
</g>
<!-- 9724242860893494469 -->
<g id="node13" class="node">
<title>9724242860893494469</title>
<ellipse fill="#3d3d3d" stroke="lightgray" cx="402.56" cy="-138.96" rx="1.8" ry="1.8"/>
</g>
<!-- 16116145796696598429&#45;&gt;9724242860893494469 -->
<g id="edge5" class="edge">
<title>16116145796696598429&#45;&gt;9724242860893494469</title>
<path fill="none" stroke="#d95f02" d="M327.61,-100.86C356.21,-115.4 392.14,-133.67 400.68,-138"/>
</g>
<!-- 13617421333920241101&#45;&gt;11110891922990083343 -->
<g id="edge6" class="edge">
<title>13617421333920241101&#45;&gt;11110891922990083343</title>
<path fill="none" stroke="#1b9e77" d="M171.71,-129.85C174.46,-139.76 188.35,-189.69 197.46,-222.41"/>
<polygon fill="#1b9e77" stroke="#1b9e77" points="200.22,-232.36 193.21,-223.93 198.88,-227.54 197.54,-222.73 197.54,-222.73 197.54,-222.73 198.88,-227.54 201.88,-221.52 200.22,-232.36 200.22,-232.36"/>
<text text-anchor="middle" x="181.91" y="-183.72" font-family="Times,serif" font-size="9.00" fill="lightgray">U</text>
</g>
<!-- 13617421333920241101&#45;&gt;11645971808258574285 -->
<g id="edge12" class="edge">
<title>13617421333920241101&#45;&gt;11645971808258574285</title>
<path fill="none" stroke="#1b9e77" d="M169.19,-128.55C162.59,-129.98 140.89,-134.7 118.08,-139.66"/>
<polygon fill="#1b9e77" stroke="#1b9e77" points="108.28,-141.79 117.09,-135.27 113.16,-140.73 118.05,-139.66 118.05,-139.66 118.05,-139.66 113.16,-140.73 119.01,-144.06 108.28,-141.79 108.28,-141.79"/>
<text text-anchor="middle" x="135.2" y="-137.87" font-family="Times,serif" font-size="9.00" fill="lightgray">U</text>
</g>
<!-- 13617421333920241101&#45;&gt;16116145796696598429 -->
<g id="edge14" class="edge">
<title>13617421333920241101&#45;&gt;16116145796696598429</title>
<path fill="none" stroke="#1b9e77" d="M172.9,-127.45C179.67,-124.82 205.78,-114.67 231.66,-104.6"/>
<polygon fill="#1b9e77" stroke="#1b9e77" points="241.14,-100.92 233.46,-108.73 236.48,-102.73 231.82,-104.54 231.82,-104.54 231.82,-104.54 236.48,-102.73 230.19,-100.35 241.14,-100.92 241.14,-100.92"/>
<text text-anchor="middle" x="203.36" y="-116.85" font-family="Times,serif" font-size="9.00" fill="lightgray">U</text>
</g>
<!-- 14090999327100098430&#45;&gt;7614126030020206094 -->
<g id="edge8" class="edge">
<title>14090999327100098430&#45;&gt;7614126030020206094</title>
<path fill="none" stroke="#d95f02" d="M320.14,-309.47C327.35,-306.7 356.06,-295.69 383.59,-285.13"/>
<polygon fill="#d95f02" stroke="#d95f02" points="393.24,-281.43 385.52,-289.21 388.57,-283.22 383.91,-285.01 383.91,-285.01 383.91,-285.01 388.57,-283.22 382.29,-280.81 393.24,-281.43 393.24,-281.43"/>
<text text-anchor="middle" x="353.11" y="-298.28" font-family="Times,serif" font-size="9.00" fill="lightgray">Y</text>
</g>
<!-- 14090999327100098430&#45;&gt;13418383846904852565 -->
<g id="edge10" class="edge">
<title>14090999327100098430&#45;&gt;13418383846904852565</title>
<path fill="none" stroke="#d95f02" d="M318.99,-308.21C321.31,-300.46 330.2,-270.72 337.12,-247.57"/>
<polygon fill="#d95f02" stroke="#d95f02" points="340.04,-237.82 341.48,-248.69 338.6,-242.61 337.17,-247.4 337.17,-247.4 337.17,-247.4 338.6,-242.61 332.86,-246.11 340.04,-237.82 340.04,-237.82"/>
<text text-anchor="middle" x="325.96" y="-275.99" font-family="Times,serif" font-size="9.00" fill="lightgray">Y</text>
</g>
<!-- 3979635211623298242&#45;&gt;9332356357388745547 -->
<g id="edge13" class="edge">
<title>3979635211623298242&#45;&gt;9332356357388745547</title>
<path fill="none" stroke="#7570b3" d="M751.34,-373.61C756.27,-375.16 770.89,-379.76 787.49,-384.98"/>
<polygon fill="#7570b3" stroke="#7570b3" points="797.43,-388.11 786.54,-389.4 792.66,-386.61 787.89,-385.11 787.89,-385.11 787.89,-385.11 792.66,-386.61 789.24,-380.82 797.43,-388.11 797.43,-388.11"/>
<text text-anchor="middle" x="770.97" y="-383.69" font-family="Times,serif" font-size="9.00" fill="lightgray">Z</text>
</g>
<!-- 1312330470008679502&#45;&gt;17901095001679318352 -->
<g id="edge7" class="edge">
<title>1312330470008679502&#45;&gt;17901095001679318352</title>
<path fill="none" stroke="#d95f02" d="M543.53,-314.71C548.89,-316.74 565.7,-323.12 584.07,-330.09"/>
<polygon fill="#d95f02" stroke="#d95f02" points="593.46,-333.65 582.51,-334.31 588.78,-331.87 584.11,-330.1 584.11,-330.1 584.11,-330.1 588.78,-331.87 585.7,-325.89 593.46,-333.65 593.46,-333.65"/>
<text text-anchor="middle" x="564.88" y="-326.94" font-family="Times,serif" font-size="9.00" fill="lightgray">Z</text>
</g>
<!-- 9724242860893494469&#45;&gt;7614126030020206094 -->
<g id="edge9" class="edge">
<title>9724242860893494469&#45;&gt;7614126030020206094</title>
<path fill="none" stroke="#d95f02" d="M403.09,-140.72C406.15,-150.85 421.75,-202.45 431.72,-235.43"/>
<polygon fill="#d95f02" stroke="#d95f02" points="434.74,-245.4 427.54,-237.13 433.29,-240.62 431.85,-235.83 431.85,-235.83 431.85,-235.83 433.29,-240.62 436.15,-234.53 434.74,-245.4 434.74,-245.4"/>
<text text-anchor="middle" x="415.45" y="-195.99" font-family="Times,serif" font-size="9.00" fill="lightgray">A</text>
</g>
<!-- 9724242860893494469&#45;&gt;13418383846904852565 -->
<g id="edge11" class="edge">
<title>9724242860893494469&#45;&gt;13418383846904852565</title>
<path fill="none" stroke="#d95f02" d="M401.37,-140.62C396.77,-147.07 379.65,-171.06 365.62,-190.71"/>
<polygon fill="#d95f02" stroke="#d95f02" points="359.64,-199.08 361.79,-188.33 362.55,-195.01 365.45,-190.94 365.45,-190.94 365.45,-190.94 362.55,-195.01 369.11,-193.56 359.64,-199.08 359.64,-199.08"/>
<text text-anchor="middle" x="377.05" y="-172.59" font-family="Times,serif" font-size="9.00" fill="lightgray">A</text>
</g>
</g>
</svg>
