<?xml version="1.0" encoding="UTF-8" standalone="no"?>
<!DOCTYPE svg PUBLIC "-//W3C//DTD SVG 1.1//EN"
 "http://www.w3.org/Graphics/SVG/1.1/DTD/svg11.dtd">
<!-- Generated by graphviz version 2.43.0 (0)
 -->
<!-- Title: G Pages: 1 -->
<svg width="299pt" height="214pt"
 viewBox="0.00 0.00 299.02 214.03" xmlns="http://www.w3.org/2000/svg" xmlns:xlink="http://www.w3.org/1999/xlink">
<g id="graph0" class="graph" transform="scale(1 1) rotate(0) translate(4 210.03)">
<title>G</title>
<polygon fill="#3d3d3d" stroke="transparent" points="-4,4 -4,-210.03 295.02,-210.03 295.02,4 -4,4"/>
<!-- 15508195544299657810 -->
<g id="node1" class="node">
<title>15508195544299657810</title>
<path fill="lightgray" stroke="black" d="M96,-206.03C96,-206.03 12,-206.03 12,-206.03 6,-206.03 0,-200.03 0,-194.03 0,-194.03 0,-182.03 0,-182.03 0,-176.03 6,-170.03 12,-170.03 12,-170.03 96,-170.03 96,-170.03 102,-170.03 108,-176.03 108,-182.03 108,-182.03 108,-194.03 108,-194.03 108,-200.03 102,-206.03 96,-206.03"/>
<text text-anchor="middle" x="54" y="-184.33" font-family="Times,serif" font-size="14.00">Timer</text>
</g>
<!-- 15164962824015256459 -->
<g id="node5" class="node">
<title>15164962824015256459</title>
<ellipse fill="#3d3d3d" stroke="lightgray" cx="110.7" cy="-135.93" rx="1.8" ry="1.8"/>
</g>
<!-- 15508195544299657810&#45;&gt;15164962824015256459 -->
<g id="edge1" class="edge">
<title>15508195544299657810&#45;&gt;15164962824015256459</title>
<path fill="none" stroke="#1b9e77" d="M73.83,-169.81C87.62,-157.13 104.39,-141.73 109.29,-137.22"/>
</g>
<!-- 13701798677331439433 -->
<g id="node2" class="node">
<title>13701798677331439433</title>
<path fill="lightgray" stroke="black" d="M231.69,-175.4C231.69,-175.4 147.69,-175.4 147.69,-175.4 141.69,-175.4 135.69,-169.4 135.69,-163.4 135.69,-163.4 135.69,-151.4 135.69,-151.4 135.69,-145.4 141.69,-139.4 147.69,-139.4 147.69,-139.4 231.69,-139.4 231.69,-139.4 237.69,-139.4 243.69,-145.4 243.69,-151.4 243.69,-151.4 243.69,-163.4 243.69,-163.4 243.69,-169.4 237.69,-175.4 231.69,-175.4"/>
<text text-anchor="middle" x="189.69" y="-153.7" font-family="Times,serif" font-size="14.00">Signals</text>
</g>
<!-- 14100923778443610677 -->
<g id="node6" class="node">
<title>14100923778443610677</title>
<ellipse fill="#3d3d3d" stroke="lightgray" cx="250.16" cy="-104.52" rx="1.8" ry="1.8"/>
</g>
<!-- 13701798677331439433&#45;&gt;14100923778443610677 -->
<g id="edge2" class="edge">
<title>13701798677331439433&#45;&gt;14100923778443610677</title>
<path fill="none" stroke="#1b9e77" d="M210.5,-139.21C225.26,-126.3 243.35,-110.48 248.64,-105.85"/>
</g>
<!-- 8213772546689937594 -->
<g id="node3" class="node">
<title>8213772546689937594</title>
<path fill="lightgray" stroke="black" d="M141.2,-72.95C141.2,-72.95 57.2,-72.95 57.2,-72.95 51.2,-72.95 45.2,-66.95 45.2,-60.95 45.2,-60.95 45.2,-48.95 45.2,-48.95 45.2,-42.95 51.2,-36.95 57.2,-36.95 57.2,-36.95 141.2,-36.95 141.2,-36.95 147.2,-36.95 153.2,-42.95 153.2,-48.95 153.2,-48.95 153.2,-60.95 153.2,-60.95 153.2,-66.95 147.2,-72.95 141.2,-72.95"/>
<text text-anchor="middle" x="99.2" y="-51.25" font-family="Times,serif" font-size="14.00">Source</text>
</g>
<!-- 378431486652388248 -->
<g id="node7" class="node">
<title>378431486652388248</title>
<ellipse fill="#3d3d3d" stroke="lightgray" cx="159.57" cy="-1.8" rx="1.8" ry="1.8"/>
</g>
<!-- 8213772546689937594&#45;&gt;378431486652388248 -->
<g id="edge3" class="edge">
<title>8213772546689937594&#45;&gt;378431486652388248</title>
<path fill="none" stroke="#1b9e77" d="M119.97,-36.66C134.71,-23.69 152.76,-7.79 158.05,-3.14"/>
</g>
<!-- 2920133588560478642 -->
<g id="node4" class="node">
<title>2920133588560478642</title>
<path fill="lightgray" stroke="black" d="M279.02,-42.82C279.02,-42.82 195.02,-42.82 195.02,-42.82 189.02,-42.82 183.02,-36.82 183.02,-30.82 183.02,-30.82 183.02,-18.82 183.02,-18.82 183.02,-12.82 189.02,-6.82 195.02,-6.82 195.02,-6.82 279.02,-6.82 279.02,-6.82 285.02,-6.82 291.02,-12.82 291.02,-18.82 291.02,-18.82 291.02,-30.82 291.02,-30.82 291.02,-36.82 285.02,-42.82 279.02,-42.82"/>
<text text-anchor="middle" x="237.02" y="-21.12" font-family="Times,serif" font-size="14.00">Logging</text>
</g>
<!-- 15164962824015256459&#45;&gt;13701798677331439433 -->
<g id="edge4" class="edge">
<title>15164962824015256459&#45;&gt;13701798677331439433</title>
<path fill="none" stroke="#1b9e77" d="M112.65,-136.46C115.11,-137.13 119.74,-138.39 125.55,-139.97"/>
<polygon fill="#1b9e77" stroke="#1b9e77" points="135.51,-142.67 124.68,-144.39 130.69,-141.36 125.86,-140.05 125.86,-140.05 125.86,-140.05 130.69,-141.36 127.04,-135.71 135.51,-142.67 135.51,-142.67"/>
<text text-anchor="middle" x="113.95" y="-142.33" font-family="Times,serif" font-size="9.00" fill="lightgray">Tick</text>
</g>
<!-- 15164962824015256459&#45;&gt;8213772546689937594 -->
<g id="edge5" class="edge">
<title>15164962824015256459&#45;&gt;8213772546689937594</title>
<path fill="none" stroke="#1b9e77" d="M110.41,-133.93C109.42,-126.95 106.03,-103.05 103.23,-83.35"/>
<polygon fill="#1b9e77" stroke="#1b9e77" points="101.8,-73.26 107.66,-82.53 102.5,-78.21 103.2,-83.16 103.2,-83.16 103.2,-83.16 102.5,-78.21 98.75,-83.79 101.8,-73.26 101.8,-73.26"/>
<text text-anchor="middle" x="96.07" y="-106.15" font-family="Times,serif" font-size="9.00" fill="lightgray">Tick</text>
</g>
<!-- 14100923778443610677&#45;&gt;2920133588560478642 -->
<g id="edge6" class="edge">
<title>14100923778443610677&#45;&gt;2920133588560478642</title>
<path fill="none" stroke="#1b9e77" d="M249.84,-102.55C248.71,-95.68 244.83,-72.16 241.63,-52.77"/>
<polygon fill="#1b9e77" stroke="#1b9e77" points="239.99,-42.84 246.06,-51.98 240.81,-47.78 241.62,-52.71 241.62,-52.71 241.62,-52.71 240.81,-47.78 237.18,-53.44 239.99,-42.84 239.99,-42.84"/>
<text text-anchor="middle" x="219.88" y="-75.26" font-family="Times,serif" font-size="9.00" fill="lightgray">Sinusoides</text>
</g>
<!-- 378431486652388248&#45;&gt;2920133588560478642 -->
<g id="edge7" class="edge">
<title>378431486652388248&#45;&gt;2920133588560478642</title>
<path fill="none" stroke="#1b9e77" d="M161.48,-2.37C163.75,-3.04 167.89,-4.27 173.1,-5.82"/>
<polygon fill="#1b9e77" stroke="#1b9e77" points="182.75,-8.69 171.88,-10.16 177.96,-7.27 173.17,-5.84 173.17,-5.84 173.17,-5.84 177.96,-7.27 174.45,-1.53 182.75,-8.69 182.75,-8.69"/>
<text text-anchor="middle" x="152.14" y="-8.34" font-family="Times,serif" font-size="9.00" fill="lightgray">UpDown</text>
</g>
</g>
</svg>
