<?xml version="1.0" encoding="UTF-8" standalone="no"?>
<!DOCTYPE svg PUBLIC "-//W3C//DTD SVG 1.1//EN"
 "http://www.w3.org/Graphics/SVG/1.1/DTD/svg11.dtd">
<!-- Generated by graphviz version 2.43.0 (0)
 -->
<!-- Title: G Pages: 1 -->
<svg width="385pt" height="146pt"
 viewBox="0.00 0.00 384.53 145.71" xmlns="http://www.w3.org/2000/svg" xmlns:xlink="http://www.w3.org/1999/xlink">
<g id="graph0" class="graph" transform="scale(1 1) rotate(0) translate(4 141.71)">
<title>G</title>
<polygon fill="#3d3d3d" stroke="transparent" points="-4,4 -4,-141.71 380.53,-141.71 380.53,4 -4,4"/>
<!-- 2388591219605785467 -->
<g id="node1" class="node">
<title>2388591219605785467</title>
<path fill="lightgray" stroke="black" d="M364.53,-36C364.53,-36 280.53,-36 280.53,-36 274.53,-36 268.53,-30 268.53,-24 268.53,-24 268.53,-12 268.53,-12 268.53,-6 274.53,0 280.53,0 280.53,0 364.53,0 364.53,0 370.53,0 376.53,-6 376.53,-12 376.53,-12 376.53,-24 376.53,-24 376.53,-30 370.53,-36 364.53,-36"/>
<text text-anchor="middle" x="322.53" y="-14.3" font-family="Times,serif" font-size="14.00">Signals</text>
</g>
<!-- 14100923778443610677 -->
<g id="node4" class="node">
<title>14100923778443610677</title>
<ellipse fill="#3d3d3d" stroke="lightgray" cx="252.55" cy="-35.92" rx="1.8" ry="1.8"/>
</g>
<!-- 2388591219605785467&#45;&gt;14100923778443610677 -->
<g id="edge1" class="edge">
<title>2388591219605785467&#45;&gt;14100923778443610677</title>
<path fill="none" stroke="#1b9e77" d="M268.43,-31.85C262.1,-33.48 256.97,-34.79 254.38,-35.45"/>
</g>
<!-- 10736817341189027654 -->
<g id="node2" class="node">
<title>10736817341189027654</title>
<path fill="lightgray" stroke="black" d="M96,-137.71C96,-137.71 12,-137.71 12,-137.71 6,-137.71 0,-131.71 0,-125.71 0,-125.71 0,-113.71 0,-113.71 0,-107.71 6,-101.71 12,-101.71 12,-101.71 96,-101.71 96,-101.71 102,-101.71 108,-107.71 108,-113.71 108,-113.71 108,-125.71 108,-125.71 108,-131.71 102,-137.71 96,-137.71"/>
<text text-anchor="middle" x="54" y="-116.01" font-family="Times,serif" font-size="14.00">Source</text>
</g>
<!-- 378431486652388248 -->
<g id="node5" class="node">
<title>378431486652388248</title>
<ellipse fill="#3d3d3d" stroke="lightgray" cx="118.86" cy="-88.09" rx="1.8" ry="1.8"/>
</g>
<!-- 10736817341189027654&#45;&gt;378431486652388248 -->
<g id="edge2" class="edge">
<title>10736817341189027654&#45;&gt;378431486652388248</title>
<path fill="none" stroke="#1b9e77" d="M90.98,-101.68C102.36,-96.14 112.97,-90.96 117.07,-88.96"/>
</g>
<!-- 2273766545587689483 -->
<g id="node3" class="node">
<title>2273766545587689483</title>
<path fill="lightgray" stroke="black" d="M231.07,-88.66C231.07,-88.66 147.07,-88.66 147.07,-88.66 141.07,-88.66 135.07,-82.66 135.07,-76.66 135.07,-76.66 135.07,-64.66 135.07,-64.66 135.07,-58.66 141.07,-52.66 147.07,-52.66 147.07,-52.66 231.07,-52.66 231.07,-52.66 237.07,-52.66 243.07,-58.66 243.07,-64.66 243.07,-64.66 243.07,-76.66 243.07,-76.66 243.07,-82.66 237.07,-88.66 231.07,-88.66"/>
<text text-anchor="middle" x="189.07" y="-66.96" font-family="Times,serif" font-size="14.00">Logging</text>
</g>
<!-- 14100923778443610677&#45;&gt;2273766545587689483 -->
<g id="edge3" class="edge">
<title>14100923778443610677&#45;&gt;2273766545587689483</title>
<path fill="none" stroke="#1b9e77" d="M250.72,-36.92C247.37,-38.76 239.77,-42.91 231.02,-47.7"/>
<polygon fill="#1b9e77" stroke="#1b9e77" points="221.99,-52.65 228.6,-43.9 226.38,-50.24 230.77,-47.84 230.77,-47.84 230.77,-47.84 226.38,-50.24 232.93,-51.79 221.99,-52.65 221.99,-52.65"/>
<text text-anchor="middle" x="211.57" y="-37.47" font-family="Times,serif" font-size="9.00" fill="lightgray">Sinusoides</text>
</g>
<!-- 378431486652388248&#45;&gt;2273766545587689483 -->
<g id="edge4" class="edge">
<title>378431486652388248&#45;&gt;2273766545587689483</title>
<path fill="none" stroke="#1b9e77" d="M120.88,-87.59C121.88,-87.34 123.21,-87.01 124.82,-86.61"/>
<polygon fill="#1b9e77" stroke="#1b9e77" points="134.79,-84.14 126.17,-90.91 129.94,-85.34 125.09,-86.55 125.09,-86.55 125.09,-86.55 129.94,-85.34 124,-82.18 134.79,-84.14 134.79,-84.14"/>
<text text-anchor="middle" x="104.74" y="-79.43" font-family="Times,serif" font-size="9.00" fill="lightgray">UpDown</text>
</g>
</g>
</svg>
