<?xml version="1.0" encoding="UTF-8" standalone="no"?>
<!DOCTYPE svg PUBLIC "-//W3C//DTD SVG 1.1//EN"
 "http://www.w3.org/Graphics/SVG/1.1/DTD/svg11.dtd">
<!-- Generated by graphviz version 2.40.1 (20161225.0304)
 -->
<!-- Title: G Pages: 1 -->
<svg width="348pt" height="340pt"
 viewBox="0.00 0.00 348.06 340.35" xmlns="http://www.w3.org/2000/svg" xmlns:xlink="http://www.w3.org/1999/xlink">
<g id="graph0" class="graph" transform="scale(1 1) rotate(0) translate(4 336.3509)">
<title>G</title>
<polygon fill="#3d3d3d" stroke="transparent" points="-4,4 -4,-336.3509 344.0624,-336.3509 344.0624,4 -4,4"/>
<!-- 9164004588556926372 -->
<g id="node1" class="node">
<title>9164004588556926372</title>
<path fill="#d3d3d3" stroke="#000000" d="M96,-133.4393C96,-133.4393 12,-133.4393 12,-133.4393 6,-133.4393 0,-127.4393 0,-121.4393 0,-121.4393 0,-109.4393 0,-109.4393 0,-103.4393 6,-97.4393 12,-97.4393 12,-97.4393 96,-97.4393 96,-97.4393 102,-97.4393 108,-103.4393 108,-109.4393 108,-109.4393 108,-121.4393 108,-121.4393 108,-127.4393 102,-133.4393 96,-133.4393"/>
<text text-anchor="middle" x="54" y="-111.7393" font-family="Times,serif" font-size="14.00" fill="#000000">DomeSeeing</text>
</g>
<!-- 3165291445831322423 -->
<g id="node6" class="node">
<title>3165291445831322423</title>
<ellipse fill="#3d3d3d" stroke="#d3d3d3" cx="126.0037" cy="-139.9399" rx="1.8" ry="1.8"/>
</g>
<!-- 9164004588556926372&#45;&gt;3165291445831322423 -->
<g id="edge1" class="edge">
<title>9164004588556926372&#45;&gt;3165291445831322423</title>
<path fill="none" stroke="#1b9e77" d="M107.0856,-133.5026C114.8425,-136.1421 121.222,-138.3128 124.1968,-139.3251"/>
</g>
<!-- 1239688399457161496 -->
<g id="node2" class="node">
<title>1239688399457161496</title>
<path fill="#d3d3d3" stroke="#000000" d="M247.2488,-178.7398C247.2488,-178.7398 163.2488,-178.7398 163.2488,-178.7398 157.2488,-178.7398 151.2488,-172.7398 151.2488,-166.7398 151.2488,-166.7398 151.2488,-154.7398 151.2488,-154.7398 151.2488,-148.7398 157.2488,-142.7398 163.2488,-142.7398 163.2488,-142.7398 247.2488,-142.7398 247.2488,-142.7398 253.2488,-142.7398 259.2488,-148.7398 259.2488,-154.7398 259.2488,-154.7398 259.2488,-166.7398 259.2488,-166.7398 259.2488,-172.7398 253.2488,-178.7398 247.2488,-178.7398"/>
<text text-anchor="middle" x="205.2488" y="-157.0398" font-family="Times,serif" font-size="14.00" fill="#000000">KarhunenLoeve</text>
</g>
<!-- 5357064446652151097 -->
<g id="node7" class="node">
<title>5357064446652151097</title>
<ellipse fill="#3d3d3d" stroke="#d3d3d3" cx="207.5502" cy="-244.7428" rx="1.8" ry="1.8"/>
</g>
<!-- 1239688399457161496&#45;&gt;5357064446652151097 -->
<g id="edge2" class="edge">
<title>1239688399457161496&#45;&gt;5357064446652151097</title>
<path fill="none" stroke="#1b9e77" d="M205.7481,-178.9672C206.3404,-200.585 207.2759,-234.7311 207.5005,-242.9299"/>
</g>
<!-- 6429715744522429051 -->
<g id="node8" class="node">
<title>6429715744522429051</title>
<ellipse fill="#3d3d3d" stroke="#d3d3d3" cx="237.1343" cy="-84.7566" rx="1.8" ry="1.8"/>
</g>
<!-- 1239688399457161496&#45;&gt;6429715744522429051 -->
<g id="edge3" class="edge">
<title>1239688399457161496&#45;&gt;6429715744522429051</title>
<path fill="none" stroke="#1b9e77" d="M212.8052,-142.7329C220.9082,-123.4233 233.0518,-94.4851 236.307,-86.7281"/>
</g>
<!-- 8599686814971375659 -->
<g id="node3" class="node">
<title>8599686814971375659</title>
<path fill="#d3d3d3" stroke="#000000" d="M328.0624,-283.0998C328.0624,-283.0998 244.0624,-283.0998 244.0624,-283.0998 238.0624,-283.0998 232.0624,-277.0998 232.0624,-271.0998 232.0624,-271.0998 232.0624,-259.0998 232.0624,-259.0998 232.0624,-253.0998 238.0624,-247.0998 244.0624,-247.0998 244.0624,-247.0998 328.0624,-247.0998 328.0624,-247.0998 334.0624,-247.0998 340.0624,-253.0998 340.0624,-259.0998 340.0624,-259.0998 340.0624,-271.0998 340.0624,-271.0998 340.0624,-277.0998 334.0624,-283.0998 328.0624,-283.0998"/>
<text text-anchor="middle" x="286.0624" y="-261.3998" font-family="Times,serif" font-size="14.00" fill="#000000">Integrator</text>
</g>
<!-- 1024739736025408084 -->
<g id="node9" class="node">
<title>1024739736025408084</title>
<ellipse fill="#3d3d3d" stroke="#d3d3d3" cx="282.7952" cy="-188.113" rx="1.8" ry="1.8"/>
</g>
<!-- 8599686814971375659&#45;&gt;1024739736025408084 -->
<g id="edge4" class="edge">
<title>8599686814971375659&#45;&gt;1024739736025408084</title>
<path fill="none" stroke="#1b9e77" stroke-width="2" d="M285.2881,-246.855C284.4578,-227.2905 283.2135,-197.97 282.88,-190.1106"/>
</g>
<!-- 11564589499844969368 -->
<g id="node4" class="node">
<title>11564589499844969368</title>
<path fill="#d3d3d3" stroke="#000000" d="M315.5777,-36C315.5777,-36 231.5777,-36 231.5777,-36 225.5777,-36 219.5777,-30 219.5777,-24 219.5777,-24 219.5777,-12 219.5777,-12 219.5777,-6 225.5777,0 231.5777,0 231.5777,0 315.5777,0 315.5777,0 321.5777,0 327.5777,-6 327.5777,-12 327.5777,-12 327.5777,-24 327.5777,-24 327.5777,-30 321.5777,-36 315.5777,-36"/>
<text text-anchor="middle" x="273.5777" y="-14.3" font-family="Times,serif" font-size="14.00" fill="#000000">Std</text>
</g>
<!-- 6866874903924500925 -->
<g id="node5" class="node">
<title>6866874903924500925</title>
<path fill="#d3d3d3" stroke="#000000" d="M213.4253,-332.3509C213.4253,-332.3509 129.4253,-332.3509 129.4253,-332.3509 123.4253,-332.3509 117.4253,-326.3509 117.4253,-320.3509 117.4253,-320.3509 117.4253,-308.3509 117.4253,-308.3509 117.4253,-302.3509 123.4253,-296.3509 129.4253,-296.3509 129.4253,-296.3509 213.4253,-296.3509 213.4253,-296.3509 219.4253,-296.3509 225.4253,-302.3509 225.4253,-308.3509 225.4253,-308.3509 225.4253,-320.3509 225.4253,-320.3509 225.4253,-326.3509 219.4253,-332.3509 213.4253,-332.3509"/>
<text text-anchor="middle" x="171.4253" y="-310.6509" font-family="Times,serif" font-size="14.00" fill="#000000">Arrow</text>
</g>
<!-- 3165291445831322423&#45;&gt;1239688399457161496 -->
<g id="edge5" class="edge">
<title>3165291445831322423&#45;&gt;1239688399457161496</title>
<path fill="none" stroke="#1b9e77" d="M127.9626,-140.454C130.4339,-141.1027 135.0739,-142.3206 140.9029,-143.8506"/>
<polygon fill="#1b9e77" stroke="#1b9e77" points="150.9006,-146.4747 140.0858,-148.2885 146.0644,-145.2053 141.2283,-143.9359 141.2283,-143.9359 141.2283,-143.9359 146.0644,-145.2053 142.3707,-139.5833 150.9006,-146.4747 150.9006,-146.4747"/>
<text text-anchor="middle" x="108.2957" y="-146.2287" font-family="Times,serif" font-size="9.00" fill="#d3d3d3">DomeSeeingOpd</text>
</g>
<!-- 5357064446652151097&#45;&gt;8599686814971375659 -->
<g id="edge7" class="edge">
<title>5357064446652151097&#45;&gt;8599686814971375659</title>
<path fill="none" stroke="#1b9e77" d="M209.4909,-245.246C211.9084,-245.8728 216.4205,-247.0428 222.0929,-248.5135"/>
<polygon fill="#1b9e77" stroke="#1b9e77" points="231.8274,-251.0375 221.0181,-252.8836 226.9875,-249.7826 222.1475,-248.5276 222.1475,-248.5276 222.1475,-248.5276 226.9875,-249.7826 223.277,-244.1717 231.8274,-251.0375 231.8274,-251.0375"/>
<text text-anchor="middle" x="155.0289" y="-250.908" font-family="Times,serif" font-size="9.00" fill="#d3d3d3">KarhunenLoeveResidualCoefficients</text>
</g>
<!-- 5357064446652151097&#45;&gt;6866874903924500925 -->
<g id="edge9" class="edge">
<title>5357064446652151097&#45;&gt;6866874903924500925</title>
<path fill="none" stroke="#1b9e77" d="M206.6572,-246.4635C203.7326,-252.0988 194.1454,-270.5721 185.7094,-286.8274"/>
<polygon fill="#1b9e77" stroke="#1b9e77" points="180.9344,-296.0281 181.5467,-285.0793 183.2376,-291.5901 185.5408,-287.1522 185.5408,-287.1522 185.5408,-287.1522 183.2376,-291.5901 189.535,-289.2251 180.9344,-296.0281 180.9344,-296.0281"/>
<text text-anchor="middle" x="128.4134" y="-273.8192" font-family="Times,serif" font-size="9.00" fill="#d3d3d3">KarhunenLoeveResidualCoefficients</text>
</g>
<!-- 6429715744522429051&#45;&gt;11564589499844969368 -->
<g id="edge8" class="edge">
<title>6429715744522429051&#45;&gt;11564589499844969368</title>
<path fill="none" stroke="#1b9e77" d="M238.0351,-83.1064C240.9216,-77.819 250.2415,-60.7468 258.6133,-45.4115"/>
<polygon fill="#1b9e77" stroke="#1b9e77" points="263.6374,-36.2085 262.7955,-47.142 261.2416,-40.5971 258.8457,-44.9857 258.8457,-44.9857 258.8457,-44.9857 261.2416,-40.5971 254.8959,-42.8295 263.6374,-36.2085 263.6374,-36.2085"/>
<text text-anchor="middle" x="227.4057" y="-62.3302" font-family="Times,serif" font-size="9.00" fill="#d3d3d3">ResidualOpd</text>
</g>
<!-- 1024739736025408084&#45;&gt;1239688399457161496 -->
<g id="edge6" class="edge">
<title>1024739736025408084&#45;&gt;1239688399457161496</title>
<path fill="none" stroke="#1b9e77" d="M280.8783,-187.4364C278.1845,-186.4855 272.8573,-184.605 266.222,-182.2628"/>
<polygon fill="#1b9e77" stroke="#1b9e77" points="256.4874,-178.8266 267.4151,-177.9119 261.2023,-180.491 265.9172,-182.1553 265.9172,-182.1553 265.9172,-182.1553 261.2023,-180.491 264.4193,-186.3987 256.4874,-178.8266 256.4874,-178.8266"/>
<text text-anchor="middle" x="218.94" y="-186.0223" font-family="Times,serif" font-size="9.00" fill="#d3d3d3">KarhunenLoeveCoefficients</text>
</g>
</g>
</svg>
