<?xml version="1.0" encoding="UTF-8" standalone="no"?>
<!DOCTYPE svg PUBLIC "-//W3C//DTD SVG 1.1//EN"
 "http://www.w3.org/Graphics/SVG/1.1/DTD/svg11.dtd">
<!-- Generated by graphviz version 2.43.0 (0)
 -->
<!-- Title: G Pages: 1 -->
<svg width="438pt" height="444pt"
 viewBox="0.00 0.00 438.05 443.54" xmlns="http://www.w3.org/2000/svg" xmlns:xlink="http://www.w3.org/1999/xlink">
<g id="graph0" class="graph" transform="scale(1 1) rotate(0) translate(4 439.54)">
<title>G</title>
<polygon fill="#3d3d3d" stroke="transparent" points="-4,4 -4,-439.54 434.05,-439.54 434.05,4 -4,4"/>
<!-- 15508195544299657810 -->
<g id="node1" class="node">
<title>15508195544299657810</title>
<path fill="lightgray" stroke="black" d="M96,-36C96,-36 12,-36 12,-36 6,-36 0,-30 0,-24 0,-24 0,-12 0,-12 0,-6 6,0 12,0 12,0 96,0 96,0 102,0 108,-6 108,-12 108,-12 108,-24 108,-24 108,-30 102,-36 96,-36"/>
<text text-anchor="middle" x="54" y="-14.3" font-family="Times,serif" font-size="14.00">Timer</text>
</g>
<!-- 15164962824015256459 -->
<g id="node7" class="node">
<title>15164962824015256459</title>
<ellipse fill="#3d3d3d" stroke="lightgray" cx="103.8" cy="-77.91" rx="1.8" ry="1.8"/>
</g>
<!-- 15508195544299657810&#45;&gt;15164962824015256459 -->
<g id="edge1" class="edge">
<title>15508195544299657810&#45;&gt;15164962824015256459</title>
<path fill="none" stroke="#1b9e77" d="M69.21,-36.3C81.57,-51.16 97.7,-70.56 102.44,-76.26"/>
</g>
<!-- 4867714217454818968 -->
<g id="node2" class="node">
<title>4867714217454818968</title>
<path fill="lightgray" stroke="black" d="M183.34,-165.37C183.34,-165.37 99.34,-165.37 99.34,-165.37 93.34,-165.37 87.34,-159.37 87.34,-153.37 87.34,-153.37 87.34,-141.37 87.34,-141.37 87.34,-135.37 93.34,-129.37 99.34,-129.37 99.34,-129.37 183.34,-129.37 183.34,-129.37 189.34,-129.37 195.34,-135.37 195.34,-141.37 195.34,-141.37 195.34,-153.37 195.34,-153.37 195.34,-159.37 189.34,-165.37 183.34,-165.37"/>
<text text-anchor="middle" x="141.34" y="-143.67" font-family="Times,serif" font-size="14.00">Signals</text>
</g>
<!-- 13617421333920241101 -->
<g id="node8" class="node">
<title>13617421333920241101</title>
<ellipse fill="#3d3d3d" stroke="lightgray" cx="177.24" cy="-222.02" rx="1.8" ry="1.8"/>
</g>
<!-- 4867714217454818968&#45;&gt;13617421333920241101 -->
<g id="edge2" class="edge">
<title>4867714217454818968&#45;&gt;13617421333920241101</title>
<path fill="none" stroke="#1b9e77" d="M150.03,-165.44C159.16,-184.43 172.69,-212.57 176.32,-220.11"/>
</g>
<!-- 14116867258807937575 -->
<g id="node3" class="node">
<title>14116867258807937575</title>
<path fill="lightgray" stroke="black" d="M176.58,-318.34C176.58,-318.34 92.58,-318.34 92.58,-318.34 86.58,-318.34 80.58,-312.34 80.58,-306.34 80.58,-306.34 80.58,-294.34 80.58,-294.34 80.58,-288.34 86.58,-282.34 92.58,-282.34 92.58,-282.34 176.58,-282.34 176.58,-282.34 182.58,-282.34 188.58,-288.34 188.58,-294.34 188.58,-294.34 188.58,-306.34 188.58,-306.34 188.58,-312.34 182.58,-318.34 176.58,-318.34"/>
<text text-anchor="middle" x="134.58" y="-296.64" font-family="Times,serif" font-size="14.00">Average</text>
</g>
<!-- 13583400200963484111 -->
<g id="node9" class="node">
<title>13583400200963484111</title>
<ellipse fill="#3d3d3d" stroke="lightgray" cx="174.48" cy="-377.63" rx="1.8" ry="1.8"/>
</g>
<!-- 14116867258807937575&#45;&gt;13583400200963484111 -->
<g id="edge3" class="edge">
<title>14116867258807937575&#45;&gt;13583400200963484111</title>
<path fill="none" stroke="#1b9e77" d="M144.03,-318.65C154.17,-338.3 169.37,-367.74 173.45,-375.63"/>
</g>
<!-- 16166801574862935505 -->
<g id="node4" class="node">
<title>16166801574862935505</title>
<path fill="lightgray" stroke="black" d="M302.05,-409.13C302.05,-409.13 218.05,-409.13 218.05,-409.13 212.05,-409.13 206.05,-403.13 206.05,-397.13 206.05,-397.13 206.05,-385.13 206.05,-385.13 206.05,-379.13 212.05,-373.13 218.05,-373.13 218.05,-373.13 302.05,-373.13 302.05,-373.13 308.05,-373.13 314.05,-379.13 314.05,-385.13 314.05,-385.13 314.05,-397.13 314.05,-397.13 314.05,-403.13 308.05,-409.13 302.05,-409.13"/>
<text text-anchor="middle" x="260.05" y="-387.43" font-family="Times,serif" font-size="14.00">+</text>
</g>
<!-- 12808559226776856679 -->
<g id="node10" class="node">
<title>12808559226776856679</title>
<ellipse fill="#3d3d3d" stroke="lightgray" cx="305.68" cy="-312.24" rx="1.8" ry="1.8"/>
</g>
<!-- 16166801574862935505&#45;&gt;12808559226776856679 -->
<g id="edge4" class="edge">
<title>16166801574862935505&#45;&gt;12808559226776856679</title>
<path fill="none" stroke="#1b9e77" d="M270.63,-372.84C282.43,-352.44 300.42,-321.34 304.73,-313.89"/>
</g>
<!-- 6082006779207733066 -->
<g id="node5" class="node">
<title>6082006779207733066</title>
<path fill="lightgray" stroke="black" d="M418.05,-376.09C418.05,-376.09 334.05,-376.09 334.05,-376.09 328.05,-376.09 322.05,-370.09 322.05,-364.09 322.05,-364.09 322.05,-352.09 322.05,-352.09 322.05,-346.09 328.05,-340.09 334.05,-340.09 334.05,-340.09 418.05,-340.09 418.05,-340.09 424.05,-340.09 430.05,-346.09 430.05,-352.09 430.05,-352.09 430.05,-364.09 430.05,-364.09 430.05,-370.09 424.05,-376.09 418.05,-376.09"/>
<text text-anchor="middle" x="376.05" y="-354.39" font-family="Times,serif" font-size="14.00">Integrator</text>
</g>
<!-- 4106161941533858576 -->
<g id="node11" class="node">
<title>4106161941533858576</title>
<ellipse fill="#3d3d3d" stroke="lightgray" cx="333.01" cy="-433.74" rx="1.8" ry="1.8"/>
</g>
<!-- 6082006779207733066&#45;&gt;4106161941533858576 -->
<g id="edge5" class="edge">
<title>6082006779207733066&#45;&gt;4106161941533858576</title>
<path fill="none" stroke="#1b9e77" stroke-width="2" d="M365.63,-376.4C354.68,-395.64 338.46,-424.16 334.11,-431.8"/>
</g>
<!-- 13931424086991491011 -->
<g id="node6" class="node">
<title>13931424086991491011</title>
<path fill="lightgray" stroke="black" d="M306.96,-254.5C306.96,-254.5 222.96,-254.5 222.96,-254.5 216.96,-254.5 210.96,-248.5 210.96,-242.5 210.96,-242.5 210.96,-230.5 210.96,-230.5 210.96,-224.5 216.96,-218.5 222.96,-218.5 222.96,-218.5 306.96,-218.5 306.96,-218.5 312.96,-218.5 318.96,-224.5 318.96,-230.5 318.96,-230.5 318.96,-242.5 318.96,-242.5 318.96,-248.5 312.96,-254.5 306.96,-254.5"/>
<text text-anchor="middle" x="264.96" y="-232.8" font-family="Times,serif" font-size="14.00">Logging</text>
</g>
<!-- 15164962824015256459&#45;&gt;4867714217454818968 -->
<g id="edge6" class="edge">
<title>15164962824015256459&#45;&gt;4867714217454818968</title>
<path fill="none" stroke="#1b9e77" d="M104.73,-79.62C107.77,-85.25 117.73,-103.68 126.5,-119.9"/>
<polygon fill="#1b9e77" stroke="#1b9e77" points="131.46,-129.08 122.74,-122.43 129.08,-124.69 126.7,-120.29 126.7,-120.29 126.7,-120.29 129.08,-124.69 130.66,-118.15 131.46,-129.08 131.46,-129.08"/>
<text text-anchor="middle" x="107.97" y="-106.93" font-family="Times,serif" font-size="9.00" fill="lightgray">Tick</text>
</g>
<!-- 13617421333920241101&#45;&gt;14116867258807937575 -->
<g id="edge7" class="edge">
<title>13617421333920241101&#45;&gt;14116867258807937575</title>
<path fill="none" stroke="#1b9e77" d="M176.35,-223.66C172.88,-230.03 159.93,-253.79 149.36,-273.2"/>
<polygon fill="#1b9e77" stroke="#1b9e77" points="144.56,-282 145.4,-271.07 146.96,-277.61 149.35,-273.22 149.35,-273.22 149.35,-273.22 146.96,-277.61 153.3,-275.37 144.56,-282 144.56,-282"/>
<text text-anchor="middle" x="156.37" y="-255.79" font-family="Times,serif" font-size="9.00" fill="lightgray">U</text>
</g>
<!-- 13617421333920241101&#45;&gt;13931424086991491011 -->
<g id="edge11" class="edge">
<title>13617421333920241101&#45;&gt;13931424086991491011</title>
<path fill="none" stroke="#1b9e77" d="M179.07,-222.33C182.58,-222.9 190.78,-224.26 200.8,-225.91"/>
<polygon fill="#1b9e77" stroke="#1b9e77" points="210.86,-227.57 200.26,-230.38 205.93,-226.76 201,-225.94 201,-225.94 201,-225.94 205.93,-226.76 201.73,-221.5 210.86,-227.57 210.86,-227.57"/>
<text text-anchor="middle" x="190.94" y="-227.75" font-family="Times,serif" font-size="9.00" fill="lightgray">U</text>
</g>
<!-- 13583400200963484111&#45;&gt;16166801574862935505 -->
<g id="edge8" class="edge">
<title>13583400200963484111&#45;&gt;16166801574862935505</title>
<path fill="none" stroke="#1b9e77" d="M176.27,-377.91C179.51,-378.43 186.87,-379.59 195.96,-381.02"/>
<polygon fill="#1b9e77" stroke="#1b9e77" points="205.94,-382.6 195.37,-385.48 201.01,-381.82 196.07,-381.04 196.07,-381.04 196.07,-381.04 201.01,-381.82 196.77,-376.59 205.94,-382.6 205.94,-382.6"/>
<text text-anchor="middle" x="187.04" y="-383.05" font-family="Times,serif" font-size="9.00" fill="lightgray">U</text>
</g>
<!-- 12808559226776856679&#45;&gt;6082006779207733066 -->
<g id="edge10" class="edge">
<title>12808559226776856679&#45;&gt;6082006779207733066</title>
<path fill="none" stroke="#1b9e77" d="M307.42,-313.37C312.16,-316.45 325.84,-325.37 339.76,-334.44"/>
<polygon fill="#1b9e77" stroke="#1b9e77" points="348.38,-340.06 337.54,-338.37 344.19,-337.33 340,-334.6 340,-334.6 340,-334.6 344.19,-337.33 342.46,-330.83 348.38,-340.06 348.38,-340.06"/>
<text text-anchor="middle" x="324.15" y="-329.35" font-family="Times,serif" font-size="9.00" fill="lightgray">E</text>
</g>
<!-- 12808559226776856679&#45;&gt;13931424086991491011 -->
<g id="edge12" class="edge">
<title>12808559226776856679&#45;&gt;13931424086991491011</title>
<path fill="none" stroke="#1b9e77" d="M304.68,-310.37C301.2,-303.9 289.36,-281.88 279.5,-263.55"/>
<polygon fill="#1b9e77" stroke="#1b9e77" points="274.73,-254.67 283.43,-261.34 277.1,-259.07 279.46,-263.47 279.46,-263.47 279.46,-263.47 277.1,-259.07 275.5,-265.61 274.73,-254.67 274.73,-254.67"/>
<text text-anchor="middle" x="286.22" y="-285.34" font-family="Times,serif" font-size="9.00" fill="lightgray">E</text>
</g>
<!-- 4106161941533858576&#45;&gt;16166801574862935505 -->
<g id="edge9" class="edge">
<title>4106161941533858576&#45;&gt;16166801574862935505</title>
<path fill="none" stroke="#1b9e77" d="M331.21,-432.69C326.56,-429.98 313.6,-422.41 299.99,-414.46"/>
<polygon fill="#1b9e77" stroke="#1b9e77" points="291.03,-409.23 301.94,-410.38 295.35,-411.75 299.67,-414.27 299.67,-414.27 299.67,-414.27 295.35,-411.75 297.4,-418.15 291.03,-409.23 291.03,-409.23"/>
<text text-anchor="middle" x="307.65" y="-423.77" font-family="Times,serif" font-size="9.00" fill="lightgray">Y</text>
</g>
</g>
</svg>
