<?xml version="1.0" encoding="UTF-8" standalone="no"?>
<!DOCTYPE svg PUBLIC "-//W3C//DTD SVG 1.1//EN"
 "http://www.w3.org/Graphics/SVG/1.1/DTD/svg11.dtd">
<!-- Generated by graphviz version 2.43.0 (0)
 -->
<!-- Title: G Pages: 1 -->
<svg width="279pt" height="419pt"
 viewBox="0.00 0.00 279.21 418.84" xmlns="http://www.w3.org/2000/svg" xmlns:xlink="http://www.w3.org/1999/xlink">
<g id="graph0" class="graph" transform="scale(1 1) rotate(0) translate(4 414.84)">
<title>G</title>
<polygon fill="#3d3d3d" stroke="transparent" points="-4,4 -4,-414.84 275.21,-414.84 275.21,4 -4,4"/>
<!-- 11342817199025411071 -->
<g id="node1" class="node">
<title>11342817199025411071</title>
<path fill="lightgray" stroke="black" d="M191.08,-36C191.08,-36 107.08,-36 107.08,-36 101.08,-36 95.08,-30 95.08,-24 95.08,-24 95.08,-12 95.08,-12 95.08,-6 101.08,0 107.08,0 107.08,0 191.08,0 191.08,0 197.08,0 203.08,-6 203.08,-12 203.08,-12 203.08,-24 203.08,-24 203.08,-30 197.08,-36 191.08,-36"/>
<text text-anchor="middle" x="149.08" y="-14.3" font-family="Times,serif" font-size="14.00">Signals</text>
</g>
<!-- 13617421333920241101 -->
<g id="node7" class="node">
<title>13617421333920241101</title>
<ellipse fill="#3d3d3d" stroke="lightgray" cx="145.23" cy="-96.23" rx="1.8" ry="1.8"/>
</g>
<!-- 11342817199025411071&#45;&gt;13617421333920241101 -->
<g id="edge1" class="edge">
<title>11342817199025411071&#45;&gt;13617421333920241101</title>
<path fill="none" stroke="#1b9e77" d="M148.18,-36.14C147.21,-56 145.72,-86.1 145.33,-94.18"/>
</g>
<!-- 6171641422625605830 -->
<g id="node2" class="node">
<title>6171641422625605830</title>
<path fill="lightgray" stroke="black" d="M111.14,-148.89C111.14,-148.89 27.14,-148.89 27.14,-148.89 21.14,-148.89 15.14,-142.89 15.14,-136.89 15.14,-136.89 15.14,-124.89 15.14,-124.89 15.14,-118.89 21.14,-112.89 27.14,-112.89 27.14,-112.89 111.14,-112.89 111.14,-112.89 117.14,-112.89 123.14,-118.89 123.14,-124.89 123.14,-124.89 123.14,-136.89 123.14,-136.89 123.14,-142.89 117.14,-148.89 111.14,-148.89"/>
<text text-anchor="middle" x="69.14" y="-127.19" font-family="Times,serif" font-size="14.00">Average</text>
</g>
<!-- 13583400200963484111 -->
<g id="node8" class="node">
<title>13583400200963484111</title>
<ellipse fill="#3d3d3d" stroke="lightgray" cx="33.11" cy="-203.57" rx="1.8" ry="1.8"/>
</g>
<!-- 6171641422625605830&#45;&gt;13583400200963484111 -->
<g id="edge2" class="edge">
<title>6171641422625605830&#45;&gt;13583400200963484111</title>
<path fill="none" stroke="#d95f02" d="M60.05,-149.23C50.88,-167.74 37.57,-194.57 34.01,-201.75"/>
</g>
<!-- 37516449950242697 -->
<g id="node3" class="node">
<title>37516449950242697</title>
<path fill="lightgray" stroke="black" d="M96,-300.65C96,-300.65 12,-300.65 12,-300.65 6,-300.65 0,-294.65 0,-288.65 0,-288.65 0,-276.65 0,-276.65 0,-270.65 6,-264.65 12,-264.65 12,-264.65 96,-264.65 96,-264.65 102,-264.65 108,-270.65 108,-276.65 108,-276.65 108,-288.65 108,-288.65 108,-294.65 102,-300.65 96,-300.65"/>
<text text-anchor="middle" x="54" y="-278.95" font-family="Times,serif" font-size="14.00">+</text>
</g>
<!-- 12808559226776856679 -->
<g id="node9" class="node">
<title>12808559226776856679</title>
<ellipse fill="#3d3d3d" stroke="lightgray" cx="129.12" cy="-323.5" rx="1.8" ry="1.8"/>
</g>
<!-- 37516449950242697&#45;&gt;12808559226776856679 -->
<g id="edge3" class="edge">
<title>37516449950242697&#45;&gt;12808559226776856679</title>
<path fill="none" stroke="#d95f02" d="M87.17,-300.68C103.83,-309.75 121.67,-319.44 127.31,-322.51"/>
</g>
<!-- 8144285536227623429 -->
<g id="node4" class="node">
<title>8144285536227623429</title>
<path fill="lightgray" stroke="black" d="M131.6,-410.84C131.6,-410.84 47.6,-410.84 47.6,-410.84 41.6,-410.84 35.6,-404.84 35.6,-398.84 35.6,-398.84 35.6,-386.84 35.6,-386.84 35.6,-380.84 41.6,-374.84 47.6,-374.84 47.6,-374.84 131.6,-374.84 131.6,-374.84 137.6,-374.84 143.6,-380.84 143.6,-386.84 143.6,-386.84 143.6,-398.84 143.6,-398.84 143.6,-404.84 137.6,-410.84 131.6,-410.84"/>
<text text-anchor="middle" x="89.6" y="-389.14" font-family="Times,serif" font-size="14.00">Integrator</text>
</g>
<!-- 4106161941533858576 -->
<g id="node10" class="node">
<title>4106161941533858576</title>
<ellipse fill="#3d3d3d" stroke="lightgray" cx="17.9" cy="-353.67" rx="1.8" ry="1.8"/>
</g>
<!-- 8144285536227623429&#45;&gt;4106161941533858576 -->
<g id="edge4" class="edge">
<title>8144285536227623429&#45;&gt;4106161941533858576</title>
<path fill="none" stroke="#d95f02" stroke-width="2" d="M56.27,-374.63C40.76,-366.16 24.63,-357.35 19.54,-354.56"/>
</g>
<!-- 11066402299780161168 -->
<g id="node5" class="node">
<title>11066402299780161168</title>
<path fill="lightgray" stroke="black" d="M246.46,-309.64C246.46,-309.64 162.46,-309.64 162.46,-309.64 156.46,-309.64 150.46,-303.64 150.46,-297.64 150.46,-297.64 150.46,-285.64 150.46,-285.64 150.46,-279.64 156.46,-273.64 162.46,-273.64 162.46,-273.64 246.46,-273.64 246.46,-273.64 252.46,-273.64 258.46,-279.64 258.46,-285.64 258.46,-285.64 258.46,-297.64 258.46,-297.64 258.46,-303.64 252.46,-309.64 246.46,-309.64"/>
<text text-anchor="middle" x="204.46" y="-287.94" font-family="Times,serif" font-size="14.00">Sampler</text>
</g>
<!-- 12484735345195816301 -->
<g id="node11" class="node">
<title>12484735345195816301</title>
<ellipse fill="#3d3d3d" stroke="lightgray" cx="239.28" cy="-217.53" rx="1.8" ry="1.8"/>
</g>
<!-- 11066402299780161168&#45;&gt;12484735345195816301 -->
<g id="edge5" class="edge">
<title>11066402299780161168&#45;&gt;12484735345195816301</title>
<path fill="none" stroke="#1b9e77" stroke-width="2" d="M213.07,-273.32C221.93,-254.46 234.92,-226.81 238.4,-219.41"/>
</g>
<!-- 11529587822733532187 -->
<g id="node6" class="node">
<title>11529587822733532187</title>
<path fill="lightgray" stroke="black" d="M259.21,-156.74C259.21,-156.74 175.21,-156.74 175.21,-156.74 169.21,-156.74 163.21,-150.74 163.21,-144.74 163.21,-144.74 163.21,-132.74 163.21,-132.74 163.21,-126.74 169.21,-120.74 175.21,-120.74 175.21,-120.74 259.21,-120.74 259.21,-120.74 265.21,-120.74 271.21,-126.74 271.21,-132.74 271.21,-132.74 271.21,-144.74 271.21,-144.74 271.21,-150.74 265.21,-156.74 259.21,-156.74"/>
<text text-anchor="middle" x="217.21" y="-135.04" font-family="Times,serif" font-size="14.00">Logging</text>
</g>
<!-- 13617421333920241101&#45;&gt;6171641422625605830 -->
<g id="edge6" class="edge">
<title>13617421333920241101&#45;&gt;6171641422625605830</title>
<path fill="none" stroke="#1b9e77" d="M143.35,-97.09C139.34,-98.91 129.39,-103.45 118.03,-108.62"/>
<polygon fill="#1b9e77" stroke="#1b9e77" points="108.7,-112.87 115.94,-104.63 113.25,-110.8 117.8,-108.72 117.8,-108.72 117.8,-108.72 113.25,-110.8 119.67,-112.82 108.7,-112.87 108.7,-112.87"/>
<text text-anchor="middle" x="122.45" y="-97.58" font-family="Times,serif" font-size="9.00" fill="lightgray">U</text>
</g>
<!-- 13617421333920241101&#45;&gt;11529587822733532187 -->
<g id="edge11" class="edge">
<title>13617421333920241101&#45;&gt;11529587822733532187</title>
<path fill="none" stroke="#1b9e77" d="M147.01,-97.28C151.59,-99.99 164.38,-107.54 177.81,-115.47"/>
<polygon fill="#1b9e77" stroke="#1b9e77" points="186.65,-120.69 175.75,-119.48 182.34,-118.14 178.04,-115.6 178.04,-115.6 178.04,-115.6 182.34,-118.14 180.32,-111.73 186.65,-120.69 186.65,-120.69"/>
<text text-anchor="middle" x="162.8" y="-111.77" font-family="Times,serif" font-size="9.00" fill="lightgray">U</text>
</g>
<!-- 13583400200963484111&#45;&gt;37516449950242697 -->
<g id="edge7" class="edge">
<title>13583400200963484111&#45;&gt;37516449950242697</title>
<path fill="none" stroke="#d95f02" d="M33.63,-205.53C35.42,-212.3 41.52,-235.41 46.58,-254.57"/>
<polygon fill="#d95f02" stroke="#d95f02" points="49.18,-264.41 42.28,-255.89 47.9,-259.58 46.63,-254.74 46.63,-254.74 46.63,-254.74 47.9,-259.58 50.98,-253.59 49.18,-264.41 49.18,-264.41"/>
<text text-anchor="middle" x="37.45" y="-237.95" font-family="Times,serif" font-size="9.00" fill="lightgray">U</text>
</g>
<!-- 12808559226776856679&#45;&gt;8144285536227623429 -->
<g id="edge9" class="edge">
<title>12808559226776856679&#45;&gt;8144285536227623429</title>
<path fill="none" stroke="#d95f02" d="M128.14,-325.21C124.91,-330.88 114.26,-349.57 104.97,-365.88"/>
<polygon fill="#d95f02" stroke="#d95f02" points="100,-374.59 101.04,-363.67 102.48,-370.24 104.95,-365.9 104.95,-365.9 104.95,-365.9 102.48,-370.24 108.86,-368.13 100,-374.59 100,-374.59"/>
<text text-anchor="middle" x="110.53" y="-352.78" font-family="Times,serif" font-size="9.00" fill="lightgray">E</text>
</g>
<!-- 12808559226776856679&#45;&gt;11066402299780161168 -->
<g id="edge10" class="edge">
<title>12808559226776856679&#45;&gt;11066402299780161168</title>
<path fill="none" stroke="#d95f02" d="M130.98,-322.71C134.52,-321.21 142.74,-317.74 152.45,-313.63"/>
<polygon fill="#d95f02" stroke="#d95f02" points="161.7,-309.72 154.24,-317.76 157.1,-311.67 152.49,-313.61 152.49,-313.61 152.49,-313.61 157.1,-311.67 150.74,-309.47 161.7,-309.72 161.7,-309.72"/>
<text text-anchor="middle" x="142.83" y="-319.02" font-family="Times,serif" font-size="9.00" fill="lightgray">E</text>
</g>
<!-- 4106161941533858576&#45;&gt;37516449950242697 -->
<g id="edge8" class="edge">
<title>4106161941533858576&#45;&gt;37516449950242697</title>
<path fill="none" stroke="#d95f02" d="M18.79,-351.92C21.78,-346.04 31.72,-326.49 40.28,-309.65"/>
<polygon fill="#d95f02" stroke="#d95f02" points="44.84,-300.67 44.32,-311.63 42.57,-305.13 40.31,-309.59 40.31,-309.59 40.31,-309.59 42.57,-305.13 36.3,-307.55 44.84,-300.67 44.84,-300.67"/>
<text text-anchor="middle" x="28.2" y="-329.32" font-family="Times,serif" font-size="9.00" fill="lightgray">Y</text>
</g>
<!-- 12484735345195816301&#45;&gt;11529587822733532187 -->
<g id="edge12" class="edge">
<title>12484735345195816301&#45;&gt;11529587822733532187</title>
<path fill="none" stroke="#1b9e77" d="M238.74,-215.58C236.85,-208.83 230.4,-185.81 225.05,-166.71"/>
<polygon fill="#1b9e77" stroke="#1b9e77" points="222.31,-156.91 229.34,-165.33 223.65,-161.73 225,-166.54 225,-166.54 225,-166.54 223.65,-161.73 220.67,-167.76 222.31,-156.91 222.31,-156.91"/>
<text text-anchor="middle" x="226.97" y="-188.87" font-family="Times,serif" font-size="9.00" fill="lightgray">E</text>
</g>
</g>
</svg>
