<?xml version="1.0" encoding="UTF-8" standalone="no"?>
<!DOCTYPE svg PUBLIC "-//W3C//DTD SVG 1.1//EN"
 "http://www.w3.org/Graphics/SVG/1.1/DTD/svg11.dtd">
<!-- Generated by graphviz version 2.43.0 (0)
 -->
<!-- Title: G Pages: 1 -->
<svg width="458pt" height="265pt"
 viewBox="0.00 0.00 458.31 264.62" xmlns="http://www.w3.org/2000/svg" xmlns:xlink="http://www.w3.org/1999/xlink">
<g id="graph0" class="graph" transform="scale(1 1) rotate(0) translate(4 260.62)">
<title>G</title>
<polygon fill="#3d3d3d" stroke="transparent" points="-4,4 -4,-260.62 454.31,-260.62 454.31,4 -4,4"/>
<!-- 15508195544299657810 -->
<g id="node1" class="node">
<title>15508195544299657810</title>
<path fill="lightgray" stroke="black" d="M96,-36C96,-36 12,-36 12,-36 6,-36 0,-30 0,-24 0,-24 0,-12 0,-12 0,-6 6,0 12,0 12,0 96,0 96,0 102,0 108,-6 108,-12 108,-12 108,-24 108,-24 108,-30 102,-36 96,-36"/>
<text text-anchor="middle" x="54" y="-14.3" font-family="Times,serif" font-size="14.00">Timer</text>
</g>
<!-- 15164962824015256459 -->
<g id="node6" class="node">
<title>15164962824015256459</title>
<ellipse fill="#3d3d3d" stroke="lightgray" cx="103.66" cy="-71.35" rx="1.8" ry="1.8"/>
</g>
<!-- 15508195544299657810&#45;&gt;15164962824015256459 -->
<g id="edge1" class="edge">
<title>15508195544299657810&#45;&gt;15164962824015256459</title>
<path fill="none" stroke="#1b9e77" d="M70.81,-36.06C82.97,-49.12 98,-65.27 102.4,-69.99"/>
</g>
<!-- 4867714217454818968 -->
<g id="node2" class="node">
<title>4867714217454818968</title>
<path fill="lightgray" stroke="black" d="M205.65,-131.87C205.65,-131.87 121.65,-131.87 121.65,-131.87 115.65,-131.87 109.65,-125.87 109.65,-119.87 109.65,-119.87 109.65,-107.87 109.65,-107.87 109.65,-101.87 115.65,-95.87 121.65,-95.87 121.65,-95.87 205.65,-95.87 205.65,-95.87 211.65,-95.87 217.65,-101.87 217.65,-107.87 217.65,-107.87 217.65,-119.87 217.65,-119.87 217.65,-125.87 211.65,-131.87 205.65,-131.87"/>
<text text-anchor="middle" x="163.65" y="-110.17" font-family="Times,serif" font-size="14.00">Signals</text>
</g>
<!-- 13617421333920241101 -->
<g id="node7" class="node">
<title>13617421333920241101</title>
<ellipse fill="#3d3d3d" stroke="lightgray" cx="225.56" cy="-158.23" rx="1.8" ry="1.8"/>
</g>
<!-- 4867714217454818968&#45;&gt;13617421333920241101 -->
<g id="edge2" class="edge">
<title>4867714217454818968&#45;&gt;13617421333920241101</title>
<path fill="none" stroke="#1b9e77" d="M188.83,-131.91C203.03,-142.08 218.9,-153.45 223.94,-157.06"/>
</g>
<!-- 1875505105751605725 -->
<g id="node3" class="node">
<title>1875505105751605725</title>
<path fill="lightgray" stroke="black" d="M347.09,-172.27C347.09,-172.27 263.09,-172.27 263.09,-172.27 257.09,-172.27 251.09,-166.27 251.09,-160.27 251.09,-160.27 251.09,-148.27 251.09,-148.27 251.09,-142.27 257.09,-136.27 263.09,-136.27 263.09,-136.27 347.09,-136.27 347.09,-136.27 353.09,-136.27 359.09,-142.27 359.09,-148.27 359.09,-148.27 359.09,-160.27 359.09,-160.27 359.09,-166.27 353.09,-172.27 347.09,-172.27"/>
<text text-anchor="middle" x="305.09" y="-150.57" font-family="Times,serif" font-size="14.00">+</text>
</g>
<!-- 12808559226776856679 -->
<g id="node8" class="node">
<title>12808559226776856679</title>
<ellipse fill="#3d3d3d" stroke="lightgray" cx="317.88" cy="-237.25" rx="1.8" ry="1.8"/>
</g>
<!-- 1875505105751605725&#45;&gt;12808559226776856679 -->
<g id="edge3" class="edge">
<title>1875505105751605725&#45;&gt;12808559226776856679</title>
<path fill="none" stroke="#1b9e77" d="M307.87,-172.28C311.16,-193.63 316.36,-227.36 317.61,-235.46"/>
</g>
<!-- 17527599223448615223 -->
<g id="node4" class="node">
<title>17527599223448615223</title>
<path fill="lightgray" stroke="black" d="M438.31,-244.81C438.31,-244.81 354.31,-244.81 354.31,-244.81 348.31,-244.81 342.31,-238.81 342.31,-232.81 342.31,-232.81 342.31,-220.81 342.31,-220.81 342.31,-214.81 348.31,-208.81 354.31,-208.81 354.31,-208.81 438.31,-208.81 438.31,-208.81 444.31,-208.81 450.31,-214.81 450.31,-220.81 450.31,-220.81 450.31,-232.81 450.31,-232.81 450.31,-238.81 444.31,-244.81 438.31,-244.81"/>
<text text-anchor="middle" x="396.31" y="-223.11" font-family="Times,serif" font-size="14.00">Integrator</text>
</g>
<!-- 4106161941533858576 -->
<g id="node9" class="node">
<title>4106161941533858576</title>
<ellipse fill="#3d3d3d" stroke="lightgray" cx="383.17" cy="-147.23" rx="1.8" ry="1.8"/>
</g>
<!-- 17527599223448615223&#45;&gt;4106161941533858576 -->
<g id="edge4" class="edge">
<title>17527599223448615223&#45;&gt;4106161941533858576</title>
<path fill="none" stroke="#1b9e77" stroke-width="2" d="M393.33,-208.75C390,-188.57 384.89,-157.64 383.52,-149.34"/>
</g>
<!-- 11179482062548718689 -->
<g id="node5" class="node">
<title>11179482062548718689</title>
<path fill="lightgray" stroke="black" d="M280.2,-256.62C280.2,-256.62 196.2,-256.62 196.2,-256.62 190.2,-256.62 184.2,-250.62 184.2,-244.62 184.2,-244.62 184.2,-232.62 184.2,-232.62 184.2,-226.62 190.2,-220.62 196.2,-220.62 196.2,-220.62 280.2,-220.62 280.2,-220.62 286.2,-220.62 292.2,-226.62 292.2,-232.62 292.2,-232.62 292.2,-244.62 292.2,-244.62 292.2,-250.62 286.2,-256.62 280.2,-256.62"/>
<text text-anchor="middle" x="238.2" y="-234.92" font-family="Times,serif" font-size="14.00">Logging</text>
</g>
<!-- 15164962824015256459&#45;&gt;4867714217454818968 -->
<g id="edge5" class="edge">
<title>15164962824015256459&#45;&gt;4867714217454818968</title>
<path fill="none" stroke="#1b9e77" d="M105.14,-72.4C108.85,-75.03 119.02,-82.24 129.85,-89.92"/>
<polygon fill="#1b9e77" stroke="#1b9e77" points="138.18,-95.81 127.42,-93.7 134.1,-92.92 130.02,-90.03 130.02,-90.03 130.02,-90.03 134.1,-92.92 132.62,-86.36 138.18,-95.81 138.18,-95.81"/>
<text text-anchor="middle" x="111.47" y="-86.77" font-family="Times,serif" font-size="9.00" fill="lightgray">Tick</text>
</g>
<!-- 13617421333920241101&#45;&gt;1875505105751605725 -->
<g id="edge6" class="edge">
<title>13617421333920241101&#45;&gt;1875505105751605725</title>
<path fill="none" stroke="#1b9e77" d="M227.53,-158.13C230.04,-158 234.78,-157.77 240.74,-157.47"/>
<polygon fill="#1b9e77" stroke="#1b9e77" points="250.94,-156.96 241.18,-161.96 245.95,-157.21 240.96,-157.46 240.96,-157.46 240.96,-157.46 245.95,-157.21 240.73,-152.97 250.94,-156.96 250.94,-156.96"/>
<text text-anchor="middle" x="235.1" y="-160.35" font-family="Times,serif" font-size="9.00" fill="lightgray">U</text>
</g>
<!-- 13617421333920241101&#45;&gt;11179482062548718689 -->
<g id="edge9" class="edge">
<title>13617421333920241101&#45;&gt;11179482062548718689</title>
<path fill="none" stroke="#1b9e77" d="M225.87,-160.21C226.96,-167.14 230.69,-190.87 233.77,-210.42"/>
<polygon fill="#1b9e77" stroke="#1b9e77" points="235.34,-220.44 229.34,-211.26 234.57,-215.5 233.79,-210.56 233.79,-210.56 233.79,-210.56 234.57,-215.5 238.23,-209.86 235.34,-220.44 235.34,-220.44"/>
<text text-anchor="middle" x="226.65" y="-193.37" font-family="Times,serif" font-size="9.00" fill="lightgray">U</text>
</g>
<!-- 12808559226776856679&#45;&gt;17527599223448615223 -->
<g id="edge8" class="edge">
<title>12808559226776856679&#45;&gt;17527599223448615223</title>
<path fill="none" stroke="#1b9e77" d="M319.82,-236.99C322.18,-236.68 326.53,-236.1 332.01,-235.37"/>
<polygon fill="#1b9e77" stroke="#1b9e77" points="342.13,-234.02 332.82,-239.8 337.18,-234.68 332.22,-235.34 332.22,-235.34 332.22,-235.34 337.18,-234.68 331.63,-230.88 342.13,-234.02 342.13,-234.02"/>
<text text-anchor="middle" x="327.49" y="-238.3" font-family="Times,serif" font-size="9.00" fill="lightgray">E</text>
</g>
<!-- 12808559226776856679&#45;&gt;11179482062548718689 -->
<g id="edge10" class="edge">
<title>12808559226776856679&#45;&gt;11179482062548718689</title>
<path fill="none" stroke="#1b9e77" d="M315.91,-237.28C313.4,-237.33 308.65,-237.41 302.68,-237.51"/>
<polygon fill="#1b9e77" stroke="#1b9e77" points="292.45,-237.69 302.37,-233.02 297.45,-237.6 302.45,-237.51 302.45,-237.51 302.45,-237.51 297.45,-237.6 302.53,-242.01 292.45,-237.69 292.45,-237.69"/>
<text text-anchor="middle" x="300.82" y="-240.28" font-family="Times,serif" font-size="9.00" fill="lightgray">E</text>
</g>
<!-- 4106161941533858576&#45;&gt;1875505105751605725 -->
<g id="edge7" class="edge">
<title>4106161941533858576&#45;&gt;1875505105751605725</title>
<path fill="none" stroke="#1b9e77" d="M381.24,-147.4C378.98,-147.61 374.88,-147.98 369.71,-148.44"/>
<polygon fill="#1b9e77" stroke="#1b9e77" points="359.42,-149.37 368.97,-143.99 364.4,-148.92 369.37,-148.47 369.37,-148.47 369.37,-148.47 364.4,-148.92 369.78,-152.95 359.42,-149.37 359.42,-149.37"/>
<text text-anchor="middle" x="366.69" y="-151.2" font-family="Times,serif" font-size="9.00" fill="lightgray">Y</text>
</g>
</g>
</svg>
