<?xml version="1.0" encoding="UTF-8" standalone="no"?>
<!DOCTYPE svg PUBLIC "-//W3C//DTD SVG 1.1//EN"
 "http://www.w3.org/Graphics/SVG/1.1/DTD/svg11.dtd">
<!-- Generated by graphviz version 2.43.0 (0)
 -->
<!-- Title: G Pages: 1 -->
<svg width="476pt" height="247pt"
 viewBox="0.00 0.00 475.96 247.30" xmlns="http://www.w3.org/2000/svg" xmlns:xlink="http://www.w3.org/1999/xlink">
<g id="graph0" class="graph" transform="scale(1 1) rotate(0) translate(4 243.3)">
<title>G</title>
<polygon fill="#3d3d3d" stroke="transparent" points="-4,4 -4,-243.3 471.96,-243.3 471.96,4 -4,4"/>
<!-- 15508195544299657810 -->
<g id="node1" class="node">
<title>15508195544299657810</title>
<path fill="lightgray" stroke="black" d="M96,-239.3C96,-239.3 12,-239.3 12,-239.3 6,-239.3 0,-233.3 0,-227.3 0,-227.3 0,-215.3 0,-215.3 0,-209.3 6,-203.3 12,-203.3 12,-203.3 96,-203.3 96,-203.3 102,-203.3 108,-209.3 108,-215.3 108,-215.3 108,-227.3 108,-227.3 108,-233.3 102,-239.3 96,-239.3"/>
<text text-anchor="middle" x="54" y="-217.6" font-family="Times,serif" font-size="14.00">Timer</text>
</g>
<!-- 15164962824015256459 -->
<g id="node6" class="node">
<title>15164962824015256459</title>
<ellipse fill="#3d3d3d" stroke="lightgray" cx="109.42" cy="-174.12" rx="1.8" ry="1.8"/>
</g>
<!-- 15508195544299657810&#45;&gt;15164962824015256459 -->
<g id="edge1" class="edge">
<title>15508195544299657810&#45;&gt;15164962824015256459</title>
<path fill="none" stroke="#1b9e77" d="M75.27,-203.19C88.21,-192.18 103.13,-179.47 107.88,-175.42"/>
</g>
<!-- 5502339216061849736 -->
<g id="node2" class="node">
<title>5502339216061849736</title>
<path fill="lightgray" stroke="black" d="M213.9,-153.45C213.9,-153.45 129.9,-153.45 129.9,-153.45 123.9,-153.45 117.9,-147.45 117.9,-141.45 117.9,-141.45 117.9,-129.45 117.9,-129.45 117.9,-123.45 123.9,-117.45 129.9,-117.45 129.9,-117.45 213.9,-117.45 213.9,-117.45 219.9,-117.45 225.9,-123.45 225.9,-129.45 225.9,-129.45 225.9,-141.45 225.9,-141.45 225.9,-147.45 219.9,-153.45 213.9,-153.45"/>
<text text-anchor="middle" x="171.9" y="-131.75" font-family="Times,serif" font-size="14.00">Signals</text>
</g>
<!-- 13617421333920241101 -->
<g id="node7" class="node">
<title>13617421333920241101</title>
<ellipse fill="#3d3d3d" stroke="lightgray" cx="237.53" cy="-96.82" rx="1.8" ry="1.8"/>
</g>
<!-- 5502339216061849736&#45;&gt;13617421333920241101 -->
<g id="edge2" class="edge">
<title>5502339216061849736&#45;&gt;13617421333920241101</title>
<path fill="none" stroke="#1b9e77" d="M202.79,-117.27C216.62,-109.13 230.91,-100.72 235.78,-97.85"/>
</g>
<!-- 2035493763424378550 -->
<g id="node3" class="node">
<title>2035493763424378550</title>
<path fill="lightgray" stroke="black" d="M358.39,-126.13C358.39,-126.13 274.39,-126.13 274.39,-126.13 268.39,-126.13 262.39,-120.13 262.39,-114.13 262.39,-114.13 262.39,-102.13 262.39,-102.13 262.39,-96.13 268.39,-90.13 274.39,-90.13 274.39,-90.13 358.39,-90.13 358.39,-90.13 364.39,-90.13 370.39,-96.13 370.39,-102.13 370.39,-102.13 370.39,-114.13 370.39,-114.13 370.39,-120.13 364.39,-126.13 358.39,-126.13"/>
<text text-anchor="middle" x="316.39" y="-104.43" font-family="Times,serif" font-size="14.00">+</text>
</g>
<!-- 12808559226776856679 -->
<g id="node8" class="node">
<title>12808559226776856679</title>
<ellipse fill="#3d3d3d" stroke="lightgray" cx="336.84" cy="-26.73" rx="1.8" ry="1.8"/>
</g>
<!-- 2035493763424378550&#45;&gt;12808559226776856679 -->
<g id="edge3" class="edge">
<title>2035493763424378550&#45;&gt;12808559226776856679</title>
<path fill="none" stroke="#1b9e77" d="M320.93,-90.06C326.11,-69.45 334.13,-37.49 336.29,-28.91"/>
</g>
<!-- 12015025960535244509 -->
<g id="node4" class="node">
<title>12015025960535244509</title>
<path fill="lightgray" stroke="black" d="M455.96,-62.55C455.96,-62.55 371.96,-62.55 371.96,-62.55 365.96,-62.55 359.96,-56.55 359.96,-50.55 359.96,-50.55 359.96,-38.55 359.96,-38.55 359.96,-32.55 365.96,-26.55 371.96,-26.55 371.96,-26.55 455.96,-26.55 455.96,-26.55 461.96,-26.55 467.96,-32.55 467.96,-38.55 467.96,-38.55 467.96,-50.55 467.96,-50.55 467.96,-56.55 461.96,-62.55 455.96,-62.55"/>
<text text-anchor="middle" x="413.96" y="-40.85" font-family="Times,serif" font-size="14.00">Integrator</text>
</g>
<!-- 4106161941533858576 -->
<g id="node9" class="node">
<title>4106161941533858576</title>
<ellipse fill="#3d3d3d" stroke="lightgray" cx="393.46" cy="-122.55" rx="1.8" ry="1.8"/>
</g>
<!-- 12015025960535244509&#45;&gt;4106161941533858576 -->
<g id="edge4" class="edge">
<title>12015025960535244509&#45;&gt;4106161941533858576</title>
<path fill="none" stroke="#1b9e77" stroke-width="2" d="M409.2,-62.64C404,-82.45 396.11,-112.46 393.99,-120.51"/>
</g>
<!-- 2201317215049037460 -->
<g id="node5" class="node">
<title>2201317215049037460</title>
<path fill="lightgray" stroke="black" d="M299.59,-36C299.59,-36 215.59,-36 215.59,-36 209.59,-36 203.59,-30 203.59,-24 203.59,-24 203.59,-12 203.59,-12 203.59,-6 209.59,0 215.59,0 215.59,0 299.59,0 299.59,0 305.59,0 311.59,-6 311.59,-12 311.59,-12 311.59,-24 311.59,-24 311.59,-30 305.59,-36 299.59,-36"/>
<text text-anchor="middle" x="257.59" y="-14.3" font-family="Times,serif" font-size="14.00">Logging</text>
</g>
<!-- 15164962824015256459&#45;&gt;5502339216061849736 -->
<g id="edge5" class="edge">
<title>15164962824015256459&#45;&gt;5502339216061849736</title>
<path fill="none" stroke="#1b9e77" d="M110.96,-173.16C114.51,-170.96 123.75,-165.25 133.99,-158.91"/>
<polygon fill="#1b9e77" stroke="#1b9e77" points="142.73,-153.5 136.59,-162.59 138.47,-156.13 134.22,-158.77 134.22,-158.77 134.22,-158.77 138.47,-156.13 131.85,-154.94 142.73,-153.5 142.73,-153.5"/>
<text text-anchor="middle" x="116.35" y="-156.44" font-family="Times,serif" font-size="9.00" fill="lightgray">Tick</text>
</g>
<!-- 13617421333920241101&#45;&gt;2035493763424378550 -->
<g id="edge6" class="edge">
<title>13617421333920241101&#45;&gt;2035493763424378550</title>
<path fill="none" stroke="#1b9e77" d="M239.48,-97.1C241.94,-97.46 246.56,-98.12 252.36,-98.95"/>
<polygon fill="#1b9e77" stroke="#1b9e77" points="262.31,-100.38 251.77,-103.41 257.36,-99.67 252.41,-98.96 252.41,-98.96 252.41,-98.96 257.36,-99.67 253.05,-94.5 262.31,-100.38 262.31,-100.38"/>
<text text-anchor="middle" x="246.76" y="-101.52" font-family="Times,serif" font-size="9.00" fill="lightgray">U</text>
</g>
<!-- 13617421333920241101&#45;&gt;2201317215049037460 -->
<g id="edge9" class="edge">
<title>13617421333920241101&#45;&gt;2201317215049037460</title>
<path fill="none" stroke="#1b9e77" d="M238.03,-94.87C239.74,-88.12 245.6,-65.09 250.47,-45.99"/>
<polygon fill="#1b9e77" stroke="#1b9e77" points="252.96,-36.18 254.86,-46.98 251.73,-41.03 250.5,-45.87 250.5,-45.87 250.5,-45.87 251.73,-41.03 246.13,-44.76 252.96,-36.18 252.96,-36.18"/>
<text text-anchor="middle" x="241.54" y="-68.15" font-family="Times,serif" font-size="9.00" fill="lightgray">U</text>
</g>
<!-- 12808559226776856679&#45;&gt;12015025960535244509 -->
<g id="edge8" class="edge">
<title>12808559226776856679&#45;&gt;12015025960535244509</title>
<path fill="none" stroke="#1b9e77" d="M338.74,-27.17C340.95,-27.68 344.92,-28.59 349.94,-29.75"/>
<polygon fill="#1b9e77" stroke="#1b9e77" points="359.92,-32.06 349.17,-34.19 355.05,-30.94 350.18,-29.81 350.18,-29.81 350.18,-29.81 355.05,-30.94 351.19,-25.43 359.92,-32.06 359.92,-32.06"/>
<text text-anchor="middle" x="345.97" y="-32.45" font-family="Times,serif" font-size="9.00" fill="lightgray">E</text>
</g>
<!-- 12808559226776856679&#45;&gt;2201317215049037460 -->
<g id="edge10" class="edge">
<title>12808559226776856679&#45;&gt;2201317215049037460</title>
<path fill="none" stroke="#1b9e77" d="M334.88,-26.51C332.41,-26.24 327.77,-25.73 321.94,-25.08"/>
<polygon fill="#1b9e77" stroke="#1b9e77" points="311.94,-23.98 322.37,-20.61 316.91,-24.53 321.88,-25.08 321.88,-25.08 321.88,-25.08 316.91,-24.53 321.39,-29.55 311.94,-23.98 311.94,-23.98"/>
<text text-anchor="middle" x="320.05" y="-28.06" font-family="Times,serif" font-size="9.00" fill="lightgray">E</text>
</g>
<!-- 4106161941533858576&#45;&gt;2035493763424378550 -->
<g id="edge7" class="edge">
<title>4106161941533858576&#45;&gt;2035493763424378550</title>
<path fill="none" stroke="#1b9e77" d="M391.55,-122.2C389.43,-121.8 385.68,-121.1 380.93,-120.21"/>
<polygon fill="#1b9e77" stroke="#1b9e77" points="370.76,-118.31 381.42,-115.72 375.68,-119.23 380.59,-120.15 380.59,-120.15 380.59,-120.15 375.68,-119.23 379.77,-124.57 370.76,-118.31 370.76,-118.31"/>
<text text-anchor="middle" x="377.87" y="-123.09" font-family="Times,serif" font-size="9.00" fill="lightgray">Y</text>
</g>
</g>
</svg>
