<?xml version="1.0" encoding="UTF-8" standalone="no"?>
<!DOCTYPE svg PUBLIC "-//W3C//DTD SVG 1.1//EN"
 "http://www.w3.org/Graphics/SVG/1.1/DTD/svg11.dtd">
<!-- Generated by graphviz version 2.43.0 (0)
 -->
<!-- Title: G Pages: 1 -->
<svg width="313pt" height="399pt"
 viewBox="0.00 0.00 312.55 398.87" xmlns="http://www.w3.org/2000/svg" xmlns:xlink="http://www.w3.org/1999/xlink">
<g id="graph0" class="graph" transform="scale(1 1) rotate(0) translate(4 394.87)">
<title>G</title>
<polygon fill="#3d3d3d" stroke="transparent" points="-4,4 -4,-394.87 308.55,-394.87 308.55,4 -4,4"/>
<!-- 11342817199025411071 -->
<g id="node1" class="node">
<title>11342817199025411071</title>
<path fill="lightgray" stroke="black" d="M108.95,-36C108.95,-36 24.95,-36 24.95,-36 18.95,-36 12.95,-30 12.95,-24 12.95,-24 12.95,-12 12.95,-12 12.95,-6 18.95,0 24.95,0 24.95,0 108.95,0 108.95,0 114.95,0 120.95,-6 120.95,-12 120.95,-12 120.95,-24 120.95,-24 120.95,-30 114.95,-36 108.95,-36"/>
<text text-anchor="middle" x="66.95" y="-14.3" font-family="Times,serif" font-size="14.00">Signals</text>
</g>
<!-- 13617421333920241101 -->
<g id="node7" class="node">
<title>13617421333920241101</title>
<ellipse fill="#3d3d3d" stroke="lightgray" cx="103.04" cy="-87.51" rx="1.8" ry="1.8"/>
</g>
<!-- 11342817199025411071&#45;&gt;13617421333920241101 -->
<g id="edge1" class="edge">
<title>11342817199025411071&#45;&gt;13617421333920241101</title>
<path fill="none" stroke="#1b9e77" d="M76.43,-36.26C85.62,-53.96 98.67,-79.09 102.15,-85.8"/>
</g>
<!-- 5305222625719339581 -->
<g id="node2" class="node">
<title>5305222625719339581</title>
<path fill="lightgray" stroke="black" d="M96,-173.22C96,-173.22 12,-173.22 12,-173.22 6,-173.22 0,-167.22 0,-161.22 0,-161.22 0,-149.22 0,-149.22 0,-143.22 6,-137.22 12,-137.22 12,-137.22 96,-137.22 96,-137.22 102,-137.22 108,-143.22 108,-149.22 108,-149.22 108,-161.22 108,-161.22 108,-167.22 102,-173.22 96,-173.22"/>
<text text-anchor="middle" x="54" y="-151.52" font-family="Times,serif" font-size="14.00">Average</text>
</g>
<!-- 13583400200963484111 -->
<g id="node8" class="node">
<title>13583400200963484111</title>
<ellipse fill="#3d3d3d" stroke="lightgray" cx="58.06" cy="-236.24" rx="1.8" ry="1.8"/>
</g>
<!-- 5305222625719339581&#45;&gt;13583400200963484111 -->
<g id="edge2" class="edge">
<title>5305222625719339581&#45;&gt;13583400200963484111</title>
<path fill="none" stroke="#d95f02" d="M54.92,-173.61C55.95,-194.15 57.53,-225.64 57.95,-234.1"/>
</g>
<!-- 7920648175383518773 -->
<g id="node3" class="node">
<title>7920648175383518773</title>
<path fill="lightgray" stroke="black" d="M157.06,-312.9C157.06,-312.9 73.06,-312.9 73.06,-312.9 67.06,-312.9 61.06,-306.9 61.06,-300.9 61.06,-300.9 61.06,-288.9 61.06,-288.9 61.06,-282.9 67.06,-276.9 73.06,-276.9 73.06,-276.9 157.06,-276.9 157.06,-276.9 163.06,-276.9 169.06,-282.9 169.06,-288.9 169.06,-288.9 169.06,-300.9 169.06,-300.9 169.06,-306.9 163.06,-312.9 157.06,-312.9"/>
<text text-anchor="middle" x="115.06" y="-291.2" font-family="Times,serif" font-size="14.00">+</text>
</g>
<!-- 12808559226776856679 -->
<g id="node9" class="node">
<title>12808559226776856679</title>
<ellipse fill="#3d3d3d" stroke="lightgray" cx="200.57" cy="-293.06" rx="1.8" ry="1.8"/>
</g>
<!-- 7920648175383518773&#45;&gt;12808559226776856679 -->
<g id="edge3" class="edge">
<title>7920648175383518773&#45;&gt;12808559226776856679</title>
<path fill="none" stroke="#d95f02" d="M169.21,-293.74C182.47,-293.45 194.15,-293.2 198.63,-293.11"/>
</g>
<!-- 10064995058927466575 -->
<g id="node4" class="node">
<title>10064995058927466575</title>
<path fill="lightgray" stroke="black" d="M243,-390.87C243,-390.87 159,-390.87 159,-390.87 153,-390.87 147,-384.87 147,-378.87 147,-378.87 147,-366.87 147,-366.87 147,-360.87 153,-354.87 159,-354.87 159,-354.87 243,-354.87 243,-354.87 249,-354.87 255,-360.87 255,-366.87 255,-366.87 255,-378.87 255,-378.87 255,-384.87 249,-390.87 243,-390.87"/>
<text text-anchor="middle" x="201" y="-369.17" font-family="Times,serif" font-size="14.00">Integrator</text>
</g>
<!-- 4106161941533858576 -->
<g id="node10" class="node">
<title>4106161941533858576</title>
<ellipse fill="#3d3d3d" stroke="lightgray" cx="119.33" cy="-374.47" rx="1.8" ry="1.8"/>
</g>
<!-- 10064995058927466575&#45;&gt;4106161941533858576 -->
<g id="edge4" class="edge">
<title>10064995058927466575&#45;&gt;4106161941533858576</title>
<path fill="none" stroke="#d95f02" stroke-width="2" d="M146.98,-373.93C135.59,-374.15 125.73,-374.34 121.52,-374.43"/>
</g>
<!-- 10487360394536013881 -->
<g id="node5" class="node">
<title>10487360394536013881</title>
<path fill="lightgray" stroke="black" d="M292.55,-246.31C292.55,-246.31 208.55,-246.31 208.55,-246.31 202.55,-246.31 196.55,-240.31 196.55,-234.31 196.55,-234.31 196.55,-222.31 196.55,-222.31 196.55,-216.31 202.55,-210.31 208.55,-210.31 208.55,-210.31 292.55,-210.31 292.55,-210.31 298.55,-210.31 304.55,-216.31 304.55,-222.31 304.55,-222.31 304.55,-234.31 304.55,-234.31 304.55,-240.31 298.55,-246.31 292.55,-246.31"/>
<text text-anchor="middle" x="250.55" y="-224.61" font-family="Times,serif" font-size="14.00">Sampler</text>
</g>
<!-- 12484735345195816301 -->
<g id="node11" class="node">
<title>12484735345195816301</title>
<ellipse fill="#3d3d3d" stroke="lightgray" cx="244.55" cy="-146.67" rx="1.8" ry="1.8"/>
</g>
<!-- 10487360394536013881&#45;&gt;12484735345195816301 -->
<g id="edge5" class="edge">
<title>10487360394536013881&#45;&gt;12484735345195816301</title>
<path fill="none" stroke="#1b9e77" d="M249.21,-210.19C247.7,-189.52 245.34,-157.46 244.71,-148.86"/>
</g>
<!-- 13913676858144905830 -->
<g id="node6" class="node">
<title>13913676858144905830</title>
<path fill="lightgray" stroke="black" d="M228.59,-106.88C228.59,-106.88 144.59,-106.88 144.59,-106.88 138.59,-106.88 132.59,-100.88 132.59,-94.88 132.59,-94.88 132.59,-82.88 132.59,-82.88 132.59,-76.88 138.59,-70.88 144.59,-70.88 144.59,-70.88 228.59,-70.88 228.59,-70.88 234.59,-70.88 240.59,-76.88 240.59,-82.88 240.59,-82.88 240.59,-94.88 240.59,-94.88 240.59,-100.88 234.59,-106.88 228.59,-106.88"/>
<text text-anchor="middle" x="186.59" y="-85.18" font-family="Times,serif" font-size="14.00">Logging</text>
</g>
<!-- 13617421333920241101&#45;&gt;5305222625719339581 -->
<g id="edge6" class="edge">
<title>13617421333920241101&#45;&gt;5305222625719339581</title>
<path fill="none" stroke="#1b9e77" d="M101.83,-89.18C97.85,-94.68 84.76,-112.75 73.29,-128.6"/>
<polygon fill="#1b9e77" stroke="#1b9e77" points="67.14,-137.08 69.36,-126.34 70.07,-133.03 73.01,-128.98 73.01,-128.98 73.01,-128.98 70.07,-133.03 76.65,-131.62 67.14,-137.08 67.14,-137.08"/>
<text text-anchor="middle" x="80.46" y="-115.97" font-family="Times,serif" font-size="9.00" fill="lightgray">U</text>
</g>
<!-- 13617421333920241101&#45;&gt;13913676858144905830 -->
<g id="edge11" class="edge">
<title>13617421333920241101&#45;&gt;13913676858144905830</title>
<path fill="none" stroke="#1b9e77" d="M105.11,-87.54C108.18,-87.59 114.43,-87.7 122.17,-87.82"/>
<polygon fill="#1b9e77" stroke="#1b9e77" points="132.23,-87.99 122.16,-92.32 127.23,-87.91 122.23,-87.83 122.23,-87.83 122.23,-87.83 127.23,-87.91 122.31,-83.33 132.23,-87.99 132.23,-87.99"/>
<text text-anchor="middle" x="114.66" y="-90.57" font-family="Times,serif" font-size="9.00" fill="lightgray">U</text>
</g>
<!-- 13583400200963484111&#45;&gt;7920648175383518773 -->
<g id="edge7" class="edge">
<title>13583400200963484111&#45;&gt;7920648175383518773</title>
<path fill="none" stroke="#d95f02" d="M59.47,-237.69C63.8,-242.15 77.37,-256.12 90.02,-269.14"/>
<polygon fill="#d95f02" stroke="#d95f02" points="97.29,-276.61 87.09,-272.58 93.81,-273.03 90.32,-269.44 90.32,-269.44 90.32,-269.44 93.81,-273.03 93.55,-266.31 97.29,-276.61 97.29,-276.61"/>
<text text-anchor="middle" x="74.49" y="-260.07" font-family="Times,serif" font-size="9.00" fill="lightgray">U</text>
</g>
<!-- 12808559226776856679&#45;&gt;10064995058927466575 -->
<g id="edge9" class="edge">
<title>12808559226776856679&#45;&gt;10064995058927466575</title>
<path fill="none" stroke="#d95f02" d="M200.58,-295.04C200.61,-301.88 200.74,-325.25 200.85,-344.61"/>
<polygon fill="#d95f02" stroke="#d95f02" points="200.9,-354.82 196.35,-344.85 200.88,-349.82 200.85,-344.82 200.85,-344.82 200.85,-344.82 200.88,-349.82 205.35,-344.8 200.9,-354.82 200.9,-354.82"/>
<text text-anchor="middle" x="197.24" y="-327.78" font-family="Times,serif" font-size="9.00" fill="lightgray">E</text>
</g>
<!-- 12808559226776856679&#45;&gt;10487360394536013881 -->
<g id="edge10" class="edge">
<title>12808559226776856679&#45;&gt;10487360394536013881</title>
<path fill="none" stroke="#d95f02" d="M201.8,-291.46C205.78,-286.3 218.7,-269.57 230.23,-254.63"/>
<polygon fill="#d95f02" stroke="#d95f02" points="236.43,-246.59 233.88,-257.26 233.38,-250.55 230.32,-254.51 230.32,-254.51 230.32,-254.51 233.38,-250.55 226.76,-251.76 236.43,-246.59 236.43,-246.59"/>
<text text-anchor="middle" x="215.56" y="-271.9" font-family="Times,serif" font-size="9.00" fill="lightgray">E</text>
</g>
<!-- 4106161941533858576&#45;&gt;7920648175383518773 -->
<g id="edge8" class="edge">
<title>4106161941533858576&#45;&gt;7920648175383518773</title>
<path fill="none" stroke="#d95f02" d="M119.23,-372.5C118.86,-365.72 117.62,-342.66 116.59,-323.42"/>
<polygon fill="#d95f02" stroke="#d95f02" points="116.05,-313.26 121.08,-323 116.31,-318.25 116.58,-323.24 116.58,-323.24 116.58,-323.24 116.31,-318.25 112.09,-323.48 116.05,-313.26 116.05,-313.26"/>
<text text-anchor="middle" x="114.14" y="-345.68" font-family="Times,serif" font-size="9.00" fill="lightgray">Y</text>
</g>
<!-- 12484735345195816301&#45;&gt;13913676858144905830 -->
<g id="edge12" class="edge">
<title>12484735345195816301&#45;&gt;13913676858144905830</title>
<path fill="none" stroke="#1b9e77" d="M243.12,-145.24C238.72,-140.85 224.91,-127.09 212.05,-114.26"/>
<polygon fill="#1b9e77" stroke="#1b9e77" points="204.66,-106.9 214.92,-110.77 208.2,-110.43 211.74,-113.96 211.74,-113.96 211.74,-113.96 208.2,-110.43 208.57,-117.15 204.66,-106.9 204.66,-106.9"/>
<text text-anchor="middle" x="220.28" y="-128.76" font-family="Times,serif" font-size="9.00" fill="lightgray">E</text>
</g>
</g>
</svg>
