<?xml version="1.0" encoding="UTF-8" standalone="no"?>
<!DOCTYPE svg PUBLIC "-//W3C//DTD SVG 1.1//EN"
 "http://www.w3.org/Graphics/SVG/1.1/DTD/svg11.dtd">
<!-- Generated by graphviz version 2.43.0 (0)
 -->
<!-- Title: G Pages: 1 -->
<svg width="412pt" height="318pt"
 viewBox="0.00 0.00 412.46 317.97" xmlns="http://www.w3.org/2000/svg" xmlns:xlink="http://www.w3.org/1999/xlink">
<g id="graph0" class="graph" transform="scale(1 1) rotate(0) translate(4 313.97)">
<title>G</title>
<polygon fill="#3d3d3d" stroke="transparent" points="-4,4 -4,-313.97 408.46,-313.97 408.46,4 -4,4"/>
<!-- 15508195544299657810 -->
<g id="node1" class="node">
<title>15508195544299657810</title>
<path fill="lightgray" stroke="black" d="M96,-309.97C96,-309.97 12,-309.97 12,-309.97 6,-309.97 0,-303.97 0,-297.97 0,-297.97 0,-285.97 0,-285.97 0,-279.97 6,-273.97 12,-273.97 12,-273.97 96,-273.97 96,-273.97 102,-273.97 108,-279.97 108,-285.97 108,-285.97 108,-297.97 108,-297.97 108,-303.97 102,-309.97 96,-309.97"/>
<text text-anchor="middle" x="54" y="-288.27" font-family="Times,serif" font-size="14.00">Timer</text>
</g>
<!-- 15164962824015256459 -->
<g id="node6" class="node">
<title>15164962824015256459</title>
<ellipse fill="#3d3d3d" stroke="lightgray" cx="101.14" cy="-236.75" rx="1.8" ry="1.8"/>
</g>
<!-- 15508195544299657810&#45;&gt;15164962824015256459 -->
<g id="edge1" class="edge">
<title>15508195544299657810&#45;&gt;15164962824015256459</title>
<path fill="none" stroke="#1b9e77" d="M69.44,-273.89C81.04,-260.3 95.63,-243.2 99.91,-238.19"/>
</g>
<!-- 5502339216061849736 -->
<g id="node2" class="node">
<title>5502339216061849736</title>
<path fill="lightgray" stroke="black" d="M197.55,-205.41C197.55,-205.41 113.55,-205.41 113.55,-205.41 107.55,-205.41 101.55,-199.41 101.55,-193.41 101.55,-193.41 101.55,-181.41 101.55,-181.41 101.55,-175.41 107.55,-169.41 113.55,-169.41 113.55,-169.41 197.55,-169.41 197.55,-169.41 203.55,-169.41 209.55,-175.41 209.55,-181.41 209.55,-181.41 209.55,-193.41 209.55,-193.41 209.55,-199.41 203.55,-205.41 197.55,-205.41"/>
<text text-anchor="middle" x="155.55" y="-183.71" font-family="Times,serif" font-size="14.00">Signals</text>
</g>
<!-- 13617421333920241101 -->
<g id="node7" class="node">
<title>13617421333920241101</title>
<ellipse fill="#3d3d3d" stroke="lightgray" cx="202.56" cy="-127.4" rx="1.8" ry="1.8"/>
</g>
<!-- 5502339216061849736&#45;&gt;13617421333920241101 -->
<g id="edge2" class="edge">
<title>5502339216061849736&#45;&gt;13617421333920241101</title>
<path fill="none" stroke="#1b9e77" d="M169.66,-169.41C181.34,-154.49 196.73,-134.84 201.26,-129.07"/>
</g>
<!-- 2035493763424378550 -->
<g id="node3" class="node">
<title>2035493763424378550</title>
<path fill="lightgray" stroke="black" d="M322.52,-129.38C322.52,-129.38 238.52,-129.38 238.52,-129.38 232.52,-129.38 226.52,-123.38 226.52,-117.38 226.52,-117.38 226.52,-105.38 226.52,-105.38 226.52,-99.38 232.52,-93.38 238.52,-93.38 238.52,-93.38 322.52,-93.38 322.52,-93.38 328.52,-93.38 334.52,-99.38 334.52,-105.38 334.52,-105.38 334.52,-117.38 334.52,-117.38 334.52,-123.38 328.52,-129.38 322.52,-129.38"/>
<text text-anchor="middle" x="280.52" y="-107.68" font-family="Times,serif" font-size="14.00">+</text>
</g>
<!-- 12808559226776856679 -->
<g id="node8" class="node">
<title>12808559226776856679</title>
<ellipse fill="#3d3d3d" stroke="lightgray" cx="272.02" cy="-27.77" rx="1.8" ry="1.8"/>
</g>
<!-- 2035493763424378550&#45;&gt;12808559226776856679 -->
<g id="edge3" class="edge">
<title>2035493763424378550&#45;&gt;12808559226776856679</title>
<path fill="none" stroke="#1b9e77" d="M278.67,-93.24C276.49,-71.72 273.04,-37.73 272.21,-29.57"/>
</g>
<!-- 12015025960535244509 -->
<g id="node4" class="node">
<title>12015025960535244509</title>
<path fill="lightgray" stroke="black" d="M392.46,-36C392.46,-36 308.46,-36 308.46,-36 302.46,-36 296.46,-30 296.46,-24 296.46,-24 296.46,-12 296.46,-12 296.46,-6 302.46,0 308.46,0 308.46,0 392.46,0 392.46,0 398.46,0 404.46,-6 404.46,-12 404.46,-12 404.46,-24 404.46,-24 404.46,-30 398.46,-36 392.46,-36"/>
<text text-anchor="middle" x="350.46" y="-14.3" font-family="Times,serif" font-size="14.00">Integrator</text>
</g>
<!-- 4106161941533858576 -->
<g id="node9" class="node">
<title>4106161941533858576</title>
<ellipse fill="#3d3d3d" stroke="lightgray" cx="357.75" cy="-98.37" rx="1.8" ry="1.8"/>
</g>
<!-- 12015025960535244509&#45;&gt;4106161941533858576 -->
<g id="edge4" class="edge">
<title>12015025960535244509&#45;&gt;4106161941533858576</title>
<path fill="none" stroke="#1b9e77" stroke-width="2" d="M352.11,-36.24C353.96,-56.62 356.8,-87.86 357.56,-96.24"/>
</g>
<!-- 2201317215049037460 -->
<g id="node5" class="node">
<title>2201317215049037460</title>
<path fill="lightgray" stroke="black" d="M236.66,-64.36C236.66,-64.36 152.66,-64.36 152.66,-64.36 146.66,-64.36 140.66,-58.36 140.66,-52.36 140.66,-52.36 140.66,-40.36 140.66,-40.36 140.66,-34.36 146.66,-28.36 152.66,-28.36 152.66,-28.36 236.66,-28.36 236.66,-28.36 242.66,-28.36 248.66,-34.36 248.66,-40.36 248.66,-40.36 248.66,-52.36 248.66,-52.36 248.66,-58.36 242.66,-64.36 236.66,-64.36"/>
<text text-anchor="middle" x="194.66" y="-42.66" font-family="Times,serif" font-size="14.00">Logging</text>
</g>
<!-- 15164962824015256459&#45;&gt;5502339216061849736 -->
<g id="edge5" class="edge">
<title>15164962824015256459&#45;&gt;5502339216061849736</title>
<path fill="none" stroke="#1b9e77" d="M102.49,-235.53C106.21,-232.16 117.1,-222.28 128.06,-212.35"/>
<polygon fill="#1b9e77" stroke="#1b9e77" points="135.56,-205.54 131.18,-215.59 131.86,-208.9 128.16,-212.26 128.16,-212.26 128.16,-212.26 131.86,-208.9 125.13,-208.92 135.56,-205.54 135.56,-205.54"/>
<text text-anchor="middle" x="108.99" y="-223.37" font-family="Times,serif" font-size="9.00" fill="lightgray">Tick</text>
</g>
<!-- 13617421333920241101&#45;&gt;2035493763424378550 -->
<g id="edge6" class="edge">
<title>13617421333920241101&#45;&gt;2035493763424378550</title>
<path fill="none" stroke="#1b9e77" d="M204.49,-127.01C206.8,-126.53 211.04,-125.66 216.39,-124.56"/>
<polygon fill="#1b9e77" stroke="#1b9e77" points="226.28,-122.53 217.39,-128.95 221.38,-123.53 216.48,-124.54 216.48,-124.54 216.48,-124.54 221.38,-123.53 215.58,-120.13 226.28,-122.53 226.28,-122.53"/>
<text text-anchor="middle" x="211.4" y="-127.56" font-family="Times,serif" font-size="9.00" fill="lightgray">U</text>
</g>
<!-- 13617421333920241101&#45;&gt;2201317215049037460 -->
<g id="edge9" class="edge">
<title>13617421333920241101&#45;&gt;2201317215049037460</title>
<path fill="none" stroke="#1b9e77" d="M202.36,-125.4C201.68,-118.42 199.35,-94.5 197.43,-74.78"/>
<polygon fill="#1b9e77" stroke="#1b9e77" points="196.44,-64.68 201.89,-74.2 196.93,-69.66 197.42,-74.64 197.42,-74.64 197.42,-74.64 196.93,-69.66 192.94,-75.07 196.44,-64.68 196.44,-64.68"/>
<text text-anchor="middle" x="195.38" y="-97.6" font-family="Times,serif" font-size="9.00" fill="lightgray">U</text>
</g>
<!-- 12808559226776856679&#45;&gt;12015025960535244509 -->
<g id="edge8" class="edge">
<title>12808559226776856679&#45;&gt;12015025960535244509</title>
<path fill="none" stroke="#1b9e77" d="M273.96,-27.52C276.32,-27.23 280.67,-26.69 286.15,-26.01"/>
<polygon fill="#1b9e77" stroke="#1b9e77" points="296.28,-24.75 286.91,-30.45 291.32,-25.36 286.35,-25.98 286.35,-25.98 286.35,-25.98 291.32,-25.36 285.8,-21.52 296.28,-24.75 296.28,-24.75"/>
<text text-anchor="middle" x="281.64" y="-28.93" font-family="Times,serif" font-size="9.00" fill="lightgray">E</text>
</g>
<!-- 12808559226776856679&#45;&gt;2201317215049037460 -->
<g id="edge10" class="edge">
<title>12808559226776856679&#45;&gt;2201317215049037460</title>
<path fill="none" stroke="#1b9e77" d="M270.11,-28.22C267.9,-28.76 263.91,-29.71 258.88,-30.92"/>
<polygon fill="#1b9e77" stroke="#1b9e77" points="248.86,-33.33 257.54,-26.62 253.73,-32.16 258.59,-30.99 258.59,-30.99 258.59,-30.99 253.73,-32.16 259.64,-35.37 248.86,-33.33 248.86,-33.33"/>
<text text-anchor="middle" x="255.85" y="-33.61" font-family="Times,serif" font-size="9.00" fill="lightgray">E</text>
</g>
<!-- 4106161941533858576&#45;&gt;2035493763424378550 -->
<g id="edge7" class="edge">
<title>4106161941533858576&#45;&gt;2035493763424378550</title>
<path fill="none" stroke="#1b9e77" d="M355.84,-98.69C353.64,-99.06 349.66,-99.74 344.64,-100.58"/>
<polygon fill="#1b9e77" stroke="#1b9e77" points="334.63,-102.27 343.75,-96.17 339.56,-101.44 344.49,-100.6 344.49,-100.6 344.49,-100.6 339.56,-101.44 345.24,-105.04 334.63,-102.27 334.63,-102.27"/>
<text text-anchor="middle" x="341.6" y="-103.3" font-family="Times,serif" font-size="9.00" fill="lightgray">Y</text>
</g>
</g>
</svg>
