<?xml version="1.0" encoding="UTF-8" standalone="no"?>
<!DOCTYPE svg PUBLIC "-//W3C//DTD SVG 1.1//EN"
 "http://www.w3.org/Graphics/SVG/1.1/DTD/svg11.dtd">
<!-- Generated by graphviz version 2.43.0 (0)
 -->
<!-- Title: G Pages: 1 -->
<svg width="309pt" height="405pt"
 viewBox="0.00 0.00 309.20 405.11" xmlns="http://www.w3.org/2000/svg" xmlns:xlink="http://www.w3.org/1999/xlink">
<g id="graph0" class="graph" transform="scale(1 1) rotate(0) translate(4 401.11)">
<title>G</title>
<polygon fill="#3d3d3d" stroke="transparent" points="-4,4 -4,-401.11 305.2,-401.11 305.2,4 -4,4"/>
<!-- 11342817199025411071 -->
<g id="node1" class="node">
<title>11342817199025411071</title>
<path fill="lightgray" stroke="black" d="M269.09,-397.11C269.09,-397.11 185.09,-397.11 185.09,-397.11 179.09,-397.11 173.09,-391.11 173.09,-385.11 173.09,-385.11 173.09,-373.11 173.09,-373.11 173.09,-367.11 179.09,-361.11 185.09,-361.11 185.09,-361.11 269.09,-361.11 269.09,-361.11 275.09,-361.11 281.09,-367.11 281.09,-373.11 281.09,-373.11 281.09,-385.11 281.09,-385.11 281.09,-391.11 275.09,-397.11 269.09,-397.11"/>
<text text-anchor="middle" x="227.09" y="-375.41" font-family="Times,serif" font-size="14.00">Signals</text>
</g>
<!-- 13617421333920241101 -->
<g id="node7" class="node">
<title>13617421333920241101</title>
<ellipse fill="#3d3d3d" stroke="lightgray" cx="194.97" cy="-307.68" rx="1.8" ry="1.8"/>
</g>
<!-- 11342817199025411071&#45;&gt;13617421333920241101 -->
<g id="edge1" class="edge">
<title>11342817199025411071&#45;&gt;13617421333920241101</title>
<path fill="none" stroke="#1b9e77" d="M218.99,-361.08C210.81,-342.9 198.95,-316.53 195.78,-309.48"/>
</g>
<!-- 6171641422625605830 -->
<g id="node2" class="node">
<title>6171641422625605830</title>
<path fill="lightgray" stroke="black" d="M289.2,-260.41C289.2,-260.41 205.2,-260.41 205.2,-260.41 199.2,-260.41 193.2,-254.41 193.2,-248.41 193.2,-248.41 193.2,-236.41 193.2,-236.41 193.2,-230.41 199.2,-224.41 205.2,-224.41 205.2,-224.41 289.2,-224.41 289.2,-224.41 295.2,-224.41 301.2,-230.41 301.2,-236.41 301.2,-236.41 301.2,-248.41 301.2,-248.41 301.2,-254.41 295.2,-260.41 289.2,-260.41"/>
<text text-anchor="middle" x="247.2" y="-238.71" font-family="Times,serif" font-size="14.00">Average</text>
</g>
<!-- 13583400200963484111 -->
<g id="node8" class="node">
<title>13583400200963484111</title>
<ellipse fill="#3d3d3d" stroke="lightgray" cx="246.67" cy="-161.3" rx="1.8" ry="1.8"/>
</g>
<!-- 6171641422625605830&#45;&gt;13583400200963484111 -->
<g id="edge2" class="edge">
<title>6171641422625605830&#45;&gt;13583400200963484111</title>
<path fill="none" stroke="#d95f02" d="M247.08,-224.41C246.95,-203.88 246.74,-172.03 246.68,-163.47"/>
</g>
<!-- 37516449950242697 -->
<g id="node3" class="node">
<title>37516449950242697</title>
<path fill="lightgray" stroke="black" d="M234.34,-118.14C234.34,-118.14 150.34,-118.14 150.34,-118.14 144.34,-118.14 138.34,-112.14 138.34,-106.14 138.34,-106.14 138.34,-94.14 138.34,-94.14 138.34,-88.14 144.34,-82.14 150.34,-82.14 150.34,-82.14 234.34,-82.14 234.34,-82.14 240.34,-82.14 246.34,-88.14 246.34,-94.14 246.34,-94.14 246.34,-106.14 246.34,-106.14 246.34,-112.14 240.34,-118.14 234.34,-118.14"/>
<text text-anchor="middle" x="192.34" y="-96.44" font-family="Times,serif" font-size="14.00">+</text>
</g>
<!-- 12808559226776856679 -->
<g id="node9" class="node">
<title>12808559226776856679</title>
<ellipse fill="#3d3d3d" stroke="lightgray" cx="106.85" cy="-97.73" rx="1.8" ry="1.8"/>
</g>
<!-- 37516449950242697&#45;&gt;12808559226776856679 -->
<g id="edge3" class="edge">
<title>37516449950242697&#45;&gt;12808559226776856679</title>
<path fill="none" stroke="#d95f02" d="M138.2,-98.61C124.95,-98.24 113.27,-97.91 108.79,-97.79"/>
</g>
<!-- 8144285536227623429 -->
<g id="node4" class="node">
<title>8144285536227623429</title>
<path fill="lightgray" stroke="black" d="M152.62,-36C152.62,-36 68.62,-36 68.62,-36 62.62,-36 56.62,-30 56.62,-24 56.62,-24 56.62,-12 56.62,-12 56.62,-6 62.62,0 68.62,0 68.62,0 152.62,0 152.62,0 158.62,0 164.62,-6 164.62,-12 164.62,-12 164.62,-24 164.62,-24 164.62,-30 158.62,-36 152.62,-36"/>
<text text-anchor="middle" x="110.62" y="-14.3" font-family="Times,serif" font-size="14.00">Integrator</text>
</g>
<!-- 4106161941533858576 -->
<g id="node10" class="node">
<title>4106161941533858576</title>
<ellipse fill="#3d3d3d" stroke="lightgray" cx="192.26" cy="-20.47" rx="1.8" ry="1.8"/>
</g>
<!-- 8144285536227623429&#45;&gt;4106161941533858576 -->
<g id="edge4" class="edge">
<title>8144285536227623429&#45;&gt;4106161941533858576</title>
<path fill="none" stroke="#d95f02" stroke-width="2" d="M164.62,-19.63C176.01,-19.97 185.86,-20.27 190.08,-20.4"/>
</g>
<!-- 11066402299780161168 -->
<g id="node5" class="node">
<title>11066402299780161168</title>
<path fill="lightgray" stroke="black" d="M96,-178.16C96,-178.16 12,-178.16 12,-178.16 6,-178.16 0,-172.16 0,-166.16 0,-166.16 0,-154.16 0,-154.16 0,-148.16 6,-142.16 12,-142.16 12,-142.16 96,-142.16 96,-142.16 102,-142.16 108,-148.16 108,-154.16 108,-154.16 108,-166.16 108,-166.16 108,-172.16 102,-178.16 96,-178.16"/>
<text text-anchor="middle" x="54" y="-156.46" font-family="Times,serif" font-size="14.00">Sampler</text>
</g>
<!-- 12484735345195816301 -->
<g id="node11" class="node">
<title>12484735345195816301</title>
<ellipse fill="#3d3d3d" stroke="lightgray" cx="56.29" cy="-241.99" rx="1.8" ry="1.8"/>
</g>
<!-- 11066402299780161168&#45;&gt;12484735345195816301 -->
<g id="edge5" class="edge">
<title>11066402299780161168&#45;&gt;12484735345195816301</title>
<path fill="none" stroke="#1b9e77" stroke-width="2" d="M54.51,-178.32C55.09,-199.04 55.99,-231.17 56.23,-239.79"/>
</g>
<!-- 11529587822733532187 -->
<g id="node6" class="node">
<title>11529587822733532187</title>
<path fill="lightgray" stroke="black" d="M153.55,-320.34C153.55,-320.34 69.55,-320.34 69.55,-320.34 63.55,-320.34 57.55,-314.34 57.55,-308.34 57.55,-308.34 57.55,-296.34 57.55,-296.34 57.55,-290.34 63.55,-284.34 69.55,-284.34 69.55,-284.34 153.55,-284.34 153.55,-284.34 159.55,-284.34 165.55,-290.34 165.55,-296.34 165.55,-296.34 165.55,-308.34 165.55,-308.34 165.55,-314.34 159.55,-320.34 153.55,-320.34"/>
<text text-anchor="middle" x="111.55" y="-298.64" font-family="Times,serif" font-size="14.00">Logging</text>
</g>
<!-- 13617421333920241101&#45;&gt;6171641422625605830 -->
<g id="edge6" class="edge">
<title>13617421333920241101&#45;&gt;6171641422625605830</title>
<path fill="none" stroke="#1b9e77" d="M196.26,-306.07C200.45,-300.84 214.09,-283.79 226.2,-268.66"/>
<polygon fill="#1b9e77" stroke="#1b9e77" points="232.7,-260.53 229.97,-271.15 229.58,-264.43 226.45,-268.34 226.45,-268.34 226.45,-268.34 229.58,-264.43 222.94,-265.53 232.7,-260.53 232.7,-260.53"/>
<text text-anchor="middle" x="210.45" y="-286.14" font-family="Times,serif" font-size="9.00" fill="lightgray">U</text>
</g>
<!-- 13617421333920241101&#45;&gt;11529587822733532187 -->
<g id="edge11" class="edge">
<title>13617421333920241101&#45;&gt;11529587822733532187</title>
<path fill="none" stroke="#1b9e77" d="M192.91,-307.55C189.84,-307.35 183.6,-306.95 175.87,-306.46"/>
<polygon fill="#1b9e77" stroke="#1b9e77" points="165.82,-305.82 176.09,-301.96 170.81,-306.14 175.8,-306.46 175.8,-306.46 175.8,-306.46 170.81,-306.14 175.52,-310.95 165.82,-305.82 165.82,-305.82"/>
<text text-anchor="middle" x="175.38" y="-309.48" font-family="Times,serif" font-size="9.00" fill="lightgray">U</text>
</g>
<!-- 13583400200963484111&#45;&gt;37516449950242697 -->
<g id="edge7" class="edge">
<title>13583400200963484111&#45;&gt;37516449950242697</title>
<path fill="none" stroke="#d95f02" d="M245.33,-159.79C241.08,-155.01 227.49,-139.71 215.14,-125.81"/>
<polygon fill="#d95f02" stroke="#d95f02" points="208.48,-118.3 218.48,-122.79 211.8,-122.04 215.12,-125.78 215.12,-125.78 215.12,-125.78 211.8,-122.04 211.75,-128.77 208.48,-118.3 208.48,-118.3"/>
<text text-anchor="middle" x="223.04" y="-142.01" font-family="Times,serif" font-size="9.00" fill="lightgray">U</text>
</g>
<!-- 12808559226776856679&#45;&gt;8144285536227623429 -->
<g id="edge9" class="edge">
<title>12808559226776856679&#45;&gt;8144285536227623429</title>
<path fill="none" stroke="#d95f02" d="M106.95,-95.76C107.27,-88.92 108.37,-65.58 109.28,-46.23"/>
<polygon fill="#d95f02" stroke="#d95f02" points="109.76,-36.03 113.79,-46.23 109.53,-41.02 109.29,-46.02 109.29,-46.02 109.29,-46.02 109.53,-41.02 104.8,-45.81 109.76,-36.03 109.76,-36.03"/>
<text text-anchor="middle" x="104.86" y="-68.64" font-family="Times,serif" font-size="9.00" fill="lightgray">E</text>
</g>
<!-- 12808559226776856679&#45;&gt;11066402299780161168 -->
<g id="edge10" class="edge">
<title>12808559226776856679&#45;&gt;11066402299780161168</title>
<path fill="none" stroke="#d95f02" d="M105.55,-99.28C101.39,-104.19 88.03,-119.97 75.95,-134.23"/>
<polygon fill="#d95f02" stroke="#d95f02" points="69.44,-141.92 72.47,-131.38 72.67,-138.11 75.9,-134.29 75.9,-134.29 75.9,-134.29 72.67,-138.11 79.33,-137.2 69.44,-141.92 69.44,-141.92"/>
<text text-anchor="middle" x="84.11" y="-123.27" font-family="Times,serif" font-size="9.00" fill="lightgray">E</text>
</g>
<!-- 4106161941533858576&#45;&gt;37516449950242697 -->
<g id="edge8" class="edge">
<title>4106161941533858576&#45;&gt;37516449950242697</title>
<path fill="none" stroke="#d95f02" d="M192.26,-22.43C192.27,-29.27 192.29,-52.6 192.31,-71.93"/>
<polygon fill="#d95f02" stroke="#d95f02" points="192.32,-82.12 187.81,-72.13 192.32,-77.12 192.31,-72.12 192.31,-72.12 192.31,-72.12 192.32,-77.12 196.81,-72.12 192.32,-82.12 192.32,-82.12"/>
<text text-anchor="middle" x="188.79" y="-55.13" font-family="Times,serif" font-size="9.00" fill="lightgray">Y</text>
</g>
<!-- 12484735345195816301&#45;&gt;11529587822733532187 -->
<g id="edge12" class="edge">
<title>12484735345195816301&#45;&gt;11529587822733532187</title>
<path fill="none" stroke="#1b9e77" d="M57.66,-243.48C61.95,-248.17 75.62,-263.09 88.11,-276.74"/>
<polygon fill="#1b9e77" stroke="#1b9e77" points="94.87,-284.12 84.8,-279.78 91.49,-280.43 88.12,-276.74 88.12,-276.74 88.12,-276.74 91.49,-280.43 91.43,-273.71 94.87,-284.12 94.87,-284.12"/>
<text text-anchor="middle" x="72.59" y="-266.41" font-family="Times,serif" font-size="9.00" fill="lightgray">E</text>
</g>
</g>
</svg>
