<?xml version="1.0" encoding="UTF-8" standalone="no"?>
<!DOCTYPE svg PUBLIC "-//W3C//DTD SVG 1.1//EN"
 "http://www.w3.org/Graphics/SVG/1.1/DTD/svg11.dtd">
<!-- Generated by graphviz version 2.43.0 (0)
 -->
<!-- Title: G Pages: 1 -->
<svg width="244pt" height="500pt"
 viewBox="0.00 0.00 243.56 500.43" xmlns="http://www.w3.org/2000/svg" xmlns:xlink="http://www.w3.org/1999/xlink">
<g id="graph0" class="graph" transform="scale(1 1) rotate(0) translate(4 496.43)">
<title>G</title>
<polygon fill="#3d3d3d" stroke="transparent" points="-4,4 -4,-496.43 239.56,-496.43 239.56,4 -4,4"/>
<!-- 15508195544299657810 -->
<g id="node1" class="node">
<title>15508195544299657810</title>
<path fill="lightgray" stroke="black" d="M223.56,-492.43C223.56,-492.43 139.56,-492.43 139.56,-492.43 133.56,-492.43 127.56,-486.43 127.56,-480.43 127.56,-480.43 127.56,-468.43 127.56,-468.43 127.56,-462.43 133.56,-456.43 139.56,-456.43 139.56,-456.43 223.56,-456.43 223.56,-456.43 229.56,-456.43 235.56,-462.43 235.56,-468.43 235.56,-468.43 235.56,-480.43 235.56,-480.43 235.56,-486.43 229.56,-492.43 223.56,-492.43"/>
<text text-anchor="middle" x="181.56" y="-470.73" font-family="Times,serif" font-size="14.00">Timer</text>
</g>
<!-- 15164962824015256459 -->
<g id="node6" class="node">
<title>15164962824015256459</title>
<ellipse fill="#3d3d3d" stroke="lightgray" cx="180.66" cy="-391.49" rx="1.8" ry="1.8"/>
</g>
<!-- 15508195544299657810&#45;&gt;15164962824015256459 -->
<g id="edge1" class="edge">
<title>15508195544299657810&#45;&gt;15164962824015256459</title>
<path fill="none" stroke="#1b9e77" d="M181.36,-456.02C181.13,-434.83 180.77,-401.87 180.68,-393.48"/>
</g>
<!-- 5502339216061849736 -->
<g id="node2" class="node">
<title>5502339216061849736</title>
<path fill="lightgray" stroke="black" d="M204.14,-327.86C204.14,-327.86 120.14,-327.86 120.14,-327.86 114.14,-327.86 108.14,-321.86 108.14,-315.86 108.14,-315.86 108.14,-303.86 108.14,-303.86 108.14,-297.86 114.14,-291.86 120.14,-291.86 120.14,-291.86 204.14,-291.86 204.14,-291.86 210.14,-291.86 216.14,-297.86 216.14,-303.86 216.14,-303.86 216.14,-315.86 216.14,-315.86 216.14,-321.86 210.14,-327.86 204.14,-327.86"/>
<text text-anchor="middle" x="162.14" y="-306.16" font-family="Times,serif" font-size="14.00">Signals</text>
</g>
<!-- 13617421333920241101 -->
<g id="node7" class="node">
<title>13617421333920241101</title>
<ellipse fill="#3d3d3d" stroke="lightgray" cx="135.46" cy="-227.28" rx="1.8" ry="1.8"/>
</g>
<!-- 5502339216061849736&#45;&gt;13617421333920241101 -->
<g id="edge2" class="edge">
<title>5502339216061849736&#45;&gt;13617421333920241101</title>
<path fill="none" stroke="#1b9e77" d="M156.22,-291.53C149.34,-270.25 138.61,-237.02 136.03,-229.04"/>
</g>
<!-- 2035493763424378550 -->
<g id="node3" class="node">
<title>2035493763424378550</title>
<path fill="lightgray" stroke="black" d="M212,-161.51C212,-161.51 128,-161.51 128,-161.51 122,-161.51 116,-155.51 116,-149.51 116,-149.51 116,-137.51 116,-137.51 116,-131.51 122,-125.51 128,-125.51 128,-125.51 212,-125.51 212,-125.51 218,-125.51 224,-131.51 224,-137.51 224,-137.51 224,-149.51 224,-149.51 224,-155.51 218,-161.51 212,-161.51"/>
<text text-anchor="middle" x="170" y="-139.81" font-family="Times,serif" font-size="14.00">+</text>
</g>
<!-- 12808559226776856679 -->
<g id="node8" class="node">
<title>12808559226776856679</title>
<ellipse fill="#3d3d3d" stroke="lightgray" cx="85.72" cy="-98.18" rx="1.8" ry="1.8"/>
</g>
<!-- 2035493763424378550&#45;&gt;12808559226776856679 -->
<g id="edge3" class="edge">
<title>2035493763424378550&#45;&gt;12808559226776856679</title>
<path fill="none" stroke="#1b9e77" d="M136.21,-125.33C116.42,-114.69 94.08,-102.68 87.59,-99.18"/>
</g>
<!-- 12015025960535244509 -->
<g id="node4" class="node">
<title>12015025960535244509</title>
<path fill="lightgray" stroke="black" d="M168.58,-36C168.58,-36 84.58,-36 84.58,-36 78.58,-36 72.58,-30 72.58,-24 72.58,-24 72.58,-12 72.58,-12 72.58,-6 78.58,0 84.58,0 84.58,0 168.58,0 168.58,0 174.58,0 180.58,-6 180.58,-12 180.58,-12 180.58,-24 180.58,-24 180.58,-30 174.58,-36 168.58,-36"/>
<text text-anchor="middle" x="126.58" y="-14.3" font-family="Times,serif" font-size="14.00">Integrator</text>
</g>
<!-- 4106161941533858576 -->
<g id="node9" class="node">
<title>4106161941533858576</title>
<ellipse fill="#3d3d3d" stroke="lightgray" cx="207.03" cy="-62.38" rx="1.8" ry="1.8"/>
</g>
<!-- 12015025960535244509&#45;&gt;4106161941533858576 -->
<g id="edge4" class="edge">
<title>12015025960535244509&#45;&gt;4106161941533858576</title>
<path fill="none" stroke="#1b9e77" stroke-width="2" d="M159.3,-36.05C178.1,-46.42 199.15,-58.03 205.27,-61.41"/>
</g>
<!-- 2201317215049037460 -->
<g id="node5" class="node">
<title>2201317215049037460</title>
<path fill="lightgray" stroke="black" d="M96,-201.05C96,-201.05 12,-201.05 12,-201.05 6,-201.05 0,-195.05 0,-189.05 0,-189.05 0,-177.05 0,-177.05 0,-171.05 6,-165.05 12,-165.05 12,-165.05 96,-165.05 96,-165.05 102,-165.05 108,-171.05 108,-177.05 108,-177.05 108,-189.05 108,-189.05 108,-195.05 102,-201.05 96,-201.05"/>
<text text-anchor="middle" x="54" y="-179.35" font-family="Times,serif" font-size="14.00">Logging</text>
</g>
<!-- 15164962824015256459&#45;&gt;5502339216061849736 -->
<g id="edge5" class="edge">
<title>15164962824015256459&#45;&gt;5502339216061849736</title>
<path fill="none" stroke="#1b9e77" d="M180.2,-389.47C178.59,-382.37 173.03,-357.84 168.5,-337.87"/>
<polygon fill="#1b9e77" stroke="#1b9e77" points="166.25,-327.95 172.85,-336.71 167.35,-332.83 168.46,-337.7 168.46,-337.7 168.46,-337.7 167.35,-332.83 164.07,-338.7 166.25,-327.95 166.25,-327.95"/>
<text text-anchor="middle" x="163.22" y="-361.5" font-family="Times,serif" font-size="9.00" fill="lightgray">Tick</text>
</g>
<!-- 13617421333920241101&#45;&gt;2035493763424378550 -->
<g id="edge6" class="edge">
<title>13617421333920241101&#45;&gt;2035493763424378550</title>
<path fill="none" stroke="#1b9e77" d="M136.18,-225.53C139.06,-218.55 149.98,-192.07 158.64,-171.07"/>
<polygon fill="#1b9e77" stroke="#1b9e77" points="162.54,-161.59 162.89,-172.55 160.64,-166.22 158.73,-170.84 158.73,-170.84 158.73,-170.84 160.64,-166.22 154.57,-169.12 162.54,-161.59 162.54,-161.59"/>
<text text-anchor="middle" x="145.32" y="-196.46" font-family="Times,serif" font-size="9.00" fill="lightgray">U</text>
</g>
<!-- 13617421333920241101&#45;&gt;2201317215049037460 -->
<g id="edge9" class="edge">
<title>13617421333920241101&#45;&gt;2201317215049037460</title>
<path fill="none" stroke="#1b9e77" d="M133.76,-226.36C128.63,-223.57 112.67,-214.91 96.37,-206.05"/>
<polygon fill="#1b9e77" stroke="#1b9e77" points="87.34,-201.15 98.27,-201.97 91.73,-203.54 96.12,-205.92 96.12,-205.92 96.12,-205.92 91.73,-203.54 93.98,-209.88 87.34,-201.15 87.34,-201.15"/>
<text text-anchor="middle" x="106.52" y="-216.54" font-family="Times,serif" font-size="9.00" fill="lightgray">U</text>
</g>
<!-- 12808559226776856679&#45;&gt;12015025960535244509 -->
<g id="edge8" class="edge">
<title>12808559226776856679&#45;&gt;12015025960535244509</title>
<path fill="none" stroke="#1b9e77" d="M86.58,-96.51C89.94,-89.91 102.6,-65.07 112.78,-45.08"/>
<polygon fill="#1b9e77" stroke="#1b9e77" points="117.39,-36.04 116.86,-46.99 115.12,-40.49 112.85,-44.95 112.85,-44.95 112.85,-44.95 115.12,-40.49 108.84,-42.9 117.39,-36.04 117.39,-36.04"/>
<text text-anchor="middle" x="98.63" y="-68.79" font-family="Times,serif" font-size="9.00" fill="lightgray">E</text>
</g>
<!-- 12808559226776856679&#45;&gt;2201317215049037460 -->
<g id="edge10" class="edge">
<title>12808559226776856679&#45;&gt;2201317215049037460</title>
<path fill="none" stroke="#1b9e77" d="M85.06,-99.95C82.42,-107.02 72.39,-133.85 64.44,-155.13"/>
<polygon fill="#1b9e77" stroke="#1b9e77" points="60.85,-164.73 60.14,-153.79 62.6,-160.05 64.35,-155.36 64.35,-155.36 64.35,-155.36 62.6,-160.05 68.57,-156.94 60.85,-164.73 60.85,-164.73"/>
<text text-anchor="middle" x="69.49" y="-135.05" font-family="Times,serif" font-size="9.00" fill="lightgray">E</text>
</g>
<!-- 4106161941533858576&#45;&gt;2035493763424378550 -->
<g id="edge7" class="edge">
<title>4106161941533858576&#45;&gt;2035493763424378550</title>
<path fill="none" stroke="#1b9e77" d="M206.26,-64.07C203.21,-70.75 191.74,-95.88 182.51,-116.11"/>
<polygon fill="#1b9e77" stroke="#1b9e77" points="178.33,-125.26 178.39,-114.29 180.41,-120.71 182.48,-116.16 182.48,-116.16 182.48,-116.16 180.41,-120.71 186.58,-118.03 178.33,-125.26 178.33,-125.26"/>
<text text-anchor="middle" x="188.66" y="-97.75" font-family="Times,serif" font-size="9.00" fill="lightgray">Y</text>
</g>
</g>
</svg>
