<?xml version="1.0" encoding="UTF-8" standalone="no"?>
<!DOCTYPE svg PUBLIC "-//W3C//DTD SVG 1.1//EN"
 "http://www.w3.org/Graphics/SVG/1.1/DTD/svg11.dtd">
<!-- Generated by graphviz version 2.43.0 (0)
 -->
<!-- Title: G Pages: 1 -->
<svg width="516pt" height="186pt"
 viewBox="0.00 0.00 516.00 186.41" xmlns="http://www.w3.org/2000/svg" xmlns:xlink="http://www.w3.org/1999/xlink">
<g id="graph0" class="graph" transform="scale(1 1) rotate(0) translate(4 182.41)">
<title>G</title>
<polygon fill="#3d3d3d" stroke="transparent" points="-4,4 -4,-182.41 512,-182.41 512,4 -4,4"/>
<!-- 15508195544299657810 -->
<g id="node1" class="node">
<title>15508195544299657810</title>
<path fill="lightgray" stroke="black" d="M496,-105.12C496,-105.12 412,-105.12 412,-105.12 406,-105.12 400,-99.12 400,-93.12 400,-93.12 400,-81.12 400,-81.12 400,-75.12 406,-69.12 412,-69.12 412,-69.12 496,-69.12 496,-69.12 502,-69.12 508,-75.12 508,-81.12 508,-81.12 508,-93.12 508,-93.12 508,-99.12 502,-105.12 496,-105.12"/>
<text text-anchor="middle" x="454" y="-83.42" font-family="Times,serif" font-size="14.00">Timer</text>
</g>
<!-- 15164962824015256459 -->
<g id="node6" class="node">
<title>15164962824015256459</title>
<ellipse fill="#3d3d3d" stroke="lightgray" cx="382.47" cy="-100.86" rx="1.8" ry="1.8"/>
</g>
<!-- 15508195544299657810&#45;&gt;15164962824015256459 -->
<g id="edge1" class="edge">
<title>15508195544299657810&#45;&gt;15164962824015256459</title>
<path fill="none" stroke="#1b9e77" d="M399.79,-97.53C392.93,-98.85 387.32,-99.93 384.48,-100.47"/>
</g>
<!-- 5502339216061849736 -->
<g id="node2" class="node">
<title>5502339216061849736</title>
<path fill="lightgray" stroke="black" d="M350.98,-119.72C350.98,-119.72 266.98,-119.72 266.98,-119.72 260.98,-119.72 254.98,-113.72 254.98,-107.72 254.98,-107.72 254.98,-95.72 254.98,-95.72 254.98,-89.72 260.98,-83.72 266.98,-83.72 266.98,-83.72 350.98,-83.72 350.98,-83.72 356.98,-83.72 362.98,-89.72 362.98,-95.72 362.98,-95.72 362.98,-107.72 362.98,-107.72 362.98,-113.72 356.98,-119.72 350.98,-119.72"/>
<text text-anchor="middle" x="308.98" y="-98.02" font-family="Times,serif" font-size="14.00">Signals</text>
</g>
<!-- 13617421333920241101 -->
<g id="node7" class="node">
<title>13617421333920241101</title>
<ellipse fill="#3d3d3d" stroke="lightgray" cx="232.82" cy="-102.3" rx="1.8" ry="1.8"/>
</g>
<!-- 5502339216061849736&#45;&gt;13617421333920241101 -->
<g id="edge2" class="edge">
<title>5502339216061849736&#45;&gt;13617421333920241101</title>
<path fill="none" stroke="#1b9e77" d="M254.85,-102.13C245.94,-102.2 238.46,-102.26 234.95,-102.28"/>
</g>
<!-- 2035493763424378550 -->
<g id="node3" class="node">
<title>2035493763424378550</title>
<path fill="lightgray" stroke="black" d="M212.31,-70.95C212.31,-70.95 128.31,-70.95 128.31,-70.95 122.31,-70.95 116.31,-64.95 116.31,-58.95 116.31,-58.95 116.31,-46.95 116.31,-46.95 116.31,-40.95 122.31,-34.95 128.31,-34.95 128.31,-34.95 212.31,-34.95 212.31,-34.95 218.31,-34.95 224.31,-40.95 224.31,-46.95 224.31,-46.95 224.31,-58.95 224.31,-58.95 224.31,-64.95 218.31,-70.95 212.31,-70.95"/>
<text text-anchor="middle" x="170.31" y="-49.25" font-family="Times,serif" font-size="14.00">+</text>
</g>
<!-- 12808559226776856679 -->
<g id="node8" class="node">
<title>12808559226776856679</title>
<ellipse fill="#3d3d3d" stroke="lightgray" cx="111.76" cy="-113.08" rx="1.8" ry="1.8"/>
</g>
<!-- 2035493763424378550&#45;&gt;12808559226776856679 -->
<g id="edge3" class="edge">
<title>2035493763424378550&#45;&gt;12808559226776856679</title>
<path fill="none" stroke="#1b9e77" d="M152.74,-70.99C137.92,-86.21 118.3,-106.36 113.08,-111.72"/>
</g>
<!-- 12015025960535244509 -->
<g id="node4" class="node">
<title>12015025960535244509</title>
<path fill="lightgray" stroke="black" d="M96,-76.98C96,-76.98 12,-76.98 12,-76.98 6,-76.98 0,-70.98 0,-64.98 0,-64.98 0,-52.98 0,-52.98 0,-46.98 6,-40.98 12,-40.98 12,-40.98 96,-40.98 96,-40.98 102,-40.98 108,-46.98 108,-52.98 108,-52.98 108,-64.98 108,-64.98 108,-70.98 102,-76.98 96,-76.98"/>
<text text-anchor="middle" x="54" y="-55.28" font-family="Times,serif" font-size="14.00">Integrator</text>
</g>
<!-- 4106161941533858576 -->
<g id="node9" class="node">
<title>4106161941533858576</title>
<ellipse fill="#3d3d3d" stroke="lightgray" cx="110.88" cy="-1.8" rx="1.8" ry="1.8"/>
</g>
<!-- 12015025960535244509&#45;&gt;4106161941533858576 -->
<g id="edge4" class="edge">
<title>12015025960535244509&#45;&gt;4106161941533858576</title>
<path fill="none" stroke="#1b9e77" stroke-width="2" d="M72,-40.88C86.06,-26.75 104.08,-8.64 109.36,-3.33"/>
</g>
<!-- 2201317215049037460 -->
<g id="node5" class="node">
<title>2201317215049037460</title>
<path fill="lightgray" stroke="black" d="M217.91,-178.41C217.91,-178.41 133.91,-178.41 133.91,-178.41 127.91,-178.41 121.91,-172.41 121.91,-166.41 121.91,-166.41 121.91,-154.41 121.91,-154.41 121.91,-148.41 127.91,-142.41 133.91,-142.41 133.91,-142.41 217.91,-142.41 217.91,-142.41 223.91,-142.41 229.91,-148.41 229.91,-154.41 229.91,-154.41 229.91,-166.41 229.91,-166.41 229.91,-172.41 223.91,-178.41 217.91,-178.41"/>
<text text-anchor="middle" x="175.91" y="-156.71" font-family="Times,serif" font-size="14.00">Logging</text>
</g>
<!-- 15164962824015256459&#45;&gt;5502339216061849736 -->
<g id="edge5" class="edge">
<title>15164962824015256459&#45;&gt;5502339216061849736</title>
<path fill="none" stroke="#1b9e77" d="M380.66,-100.88C379.11,-100.9 376.64,-100.92 373.53,-100.96"/>
<polygon fill="#1b9e77" stroke="#1b9e77" points="363.31,-101.08 373.25,-96.46 368.31,-101.02 373.31,-100.96 373.31,-100.96 373.31,-100.96 368.31,-101.02 373.36,-105.46 363.31,-101.08 363.31,-101.08"/>
<text text-anchor="middle" x="373.67" y="-93.76" font-family="Times,serif" font-size="9.00" fill="lightgray">Tick</text>
</g>
<!-- 13617421333920241101&#45;&gt;2035493763424378550 -->
<g id="edge6" class="edge">
<title>13617421333920241101&#45;&gt;2035493763424378550</title>
<path fill="none" stroke="#1b9e77" d="M231.28,-101.08C226.92,-97.64 214,-87.44 201.17,-77.31"/>
<polygon fill="#1b9e77" stroke="#1b9e77" points="193.27,-71.08 203.91,-73.74 197.2,-74.18 201.12,-77.27 201.12,-77.27 201.12,-77.27 197.2,-74.18 198.33,-80.81 193.27,-71.08 193.27,-71.08"/>
<text text-anchor="middle" x="208.4" y="-88.97" font-family="Times,serif" font-size="9.00" fill="lightgray">U</text>
</g>
<!-- 13617421333920241101&#45;&gt;2201317215049037460 -->
<g id="edge9" class="edge">
<title>13617421333920241101&#45;&gt;2201317215049037460</title>
<path fill="none" stroke="#1b9e77" d="M231.42,-103.74C227.09,-108.15 213.54,-121.99 200.91,-134.89"/>
<polygon fill="#1b9e77" stroke="#1b9e77" points="193.65,-142.3 197.43,-132 197.15,-138.72 200.65,-135.15 200.65,-135.15 200.65,-135.15 197.15,-138.72 203.86,-138.3 193.65,-142.3 193.65,-142.3"/>
<text text-anchor="middle" x="208.42" y="-125.93" font-family="Times,serif" font-size="9.00" fill="lightgray">U</text>
</g>
<!-- 12808559226776856679&#45;&gt;12015025960535244509 -->
<g id="edge8" class="edge">
<title>12808559226776856679&#45;&gt;12015025960535244509</title>
<path fill="none" stroke="#1b9e77" d="M110.33,-111.74C106.13,-107.81 93.33,-95.82 80.99,-84.26"/>
<polygon fill="#1b9e77" stroke="#1b9e77" points="73.45,-77.2 83.83,-80.75 77.1,-80.62 80.75,-84.04 80.75,-84.04 80.75,-84.04 77.1,-80.62 77.67,-87.32 73.45,-77.2 73.45,-77.2"/>
<text text-anchor="middle" x="88.37" y="-97.25" font-family="Times,serif" font-size="9.00" fill="lightgray">E</text>
</g>
<!-- 12808559226776856679&#45;&gt;2201317215049037460 -->
<g id="edge10" class="edge">
<title>12808559226776856679&#45;&gt;2201317215049037460</title>
<path fill="none" stroke="#1b9e77" d="M113.34,-114.25C117.68,-117.45 130.26,-126.74 143.02,-136.15"/>
<polygon fill="#1b9e77" stroke="#1b9e77" points="151.34,-142.29 140.63,-139.98 147.32,-139.32 143.3,-136.35 143.3,-136.35 143.3,-136.35 147.32,-139.32 145.97,-132.73 151.34,-142.29 151.34,-142.29"/>
<text text-anchor="middle" x="128.98" y="-131.17" font-family="Times,serif" font-size="9.00" fill="lightgray">E</text>
</g>
<!-- 4106161941533858576&#45;&gt;2035493763424378550 -->
<g id="edge7" class="edge">
<title>4106161941533858576&#45;&gt;2035493763424378550</title>
<path fill="none" stroke="#1b9e77" d="M112.35,-3.06C116.59,-6.71 129.3,-17.65 141.75,-28.37"/>
<polygon fill="#1b9e77" stroke="#1b9e77" points="149.39,-34.94 138.87,-31.83 145.6,-31.68 141.81,-28.42 141.81,-28.42 141.81,-28.42 145.6,-31.68 144.74,-25.01 149.39,-34.94 149.39,-34.94"/>
<text text-anchor="middle" x="127.32" y="-21.76" font-family="Times,serif" font-size="9.00" fill="lightgray">Y</text>
</g>
</g>
</svg>
