<?xml version="1.0" encoding="UTF-8" standalone="no"?>
<!DOCTYPE svg PUBLIC "-//W3C//DTD SVG 1.1//EN"
 "http://www.w3.org/Graphics/SVG/1.1/DTD/svg11.dtd">
<!-- Generated by graphviz version 2.43.0 (0)
 -->
<!-- Title: G Pages: 1 -->
<svg width="156pt" height="226pt"
 viewBox="0.00 0.00 156.00 225.89" xmlns="http://www.w3.org/2000/svg" xmlns:xlink="http://www.w3.org/1999/xlink">
<g id="graph0" class="graph" transform="scale(1 1) rotate(0) translate(4 221.89)">
<title>G</title>
<polygon fill="#3d3d3d" stroke="transparent" points="-4,4 -4,-221.89 152,-221.89 152,4 -4,4"/>
<!-- 8460517831720283043 -->
<g id="node1" class="node">
<title>8460517831720283043</title>
<path fill="lightgray" stroke="black" d="M136,-186.71C136,-186.71 12,-186.71 12,-186.71 6,-186.71 0,-180.71 0,-174.71 0,-174.71 0,-162.71 0,-162.71 0,-156.71 6,-150.71 12,-150.71 12,-150.71 136,-150.71 136,-150.71 142,-150.71 148,-156.71 148,-162.71 148,-162.71 148,-174.71 148,-174.71 148,-180.71 142,-186.71 136,-186.71"/>
<text text-anchor="middle" x="74" y="-165.01" font-family="Times,serif" font-size="14.00">&#45;(Y &#45; A)*sign(x[i&#45;1])</text>
</g>
<!-- 1312330470008679502 -->
<g id="node3" class="node">
<title>1312330470008679502</title>
<ellipse fill="#3d3d3d" stroke="lightgray" cx="67.59" cy="-92.18" rx="1.8" ry="1.8"/>
</g>
<!-- 8460517831720283043&#45;&gt;1312330470008679502 -->
<g id="edge1" class="edge">
<title>8460517831720283043&#45;&gt;1312330470008679502</title>
<path fill="none" stroke="#1b9e77" d="M72.48,-150.57C70.85,-131.12 68.41,-101.98 67.75,-94.16"/>
</g>
<!-- 3978089596291199158 -->
<g id="node2" class="node">
<title>3978089596291199158</title>
<path fill="lightgray" stroke="black" d="M107.22,-38C107.22,-38 23.22,-38 23.22,-38 17.22,-38 11.22,-32 11.22,-26 11.22,-26 11.22,-12 11.22,-12 11.22,-6 17.22,0 23.22,0 23.22,0 107.22,0 107.22,0 113.22,0 119.22,-6 119.22,-12 119.22,-12 119.22,-26 119.22,-26 119.22,-32 113.22,-38 107.22,-38"/>
<text text-anchor="middle" x="65.22" y="-22.8" font-family="Times,serif" font-size="14.00">Up</text>
<text text-anchor="middle" x="65.22" y="-7.8" font-family="Times,serif" font-size="14.00">Logging</text>
</g>
<!-- 1312330470008679502&#45;&gt;3978089596291199158 -->
<g id="edge4" class="edge">
<title>1312330470008679502&#45;&gt;3978089596291199158</title>
<path fill="none" stroke="#1b9e77" d="M67.53,-90.37C67.34,-84.5 66.72,-65.39 66.17,-48.41"/>
<polygon fill="#1b9e77" stroke="#1b9e77" points="65.84,-38.26 70.66,-48.11 66,-43.26 66.17,-48.26 66.17,-48.26 66.17,-48.26 66,-43.26 61.67,-48.4 65.84,-38.26 65.84,-38.26"/>
<text text-anchor="middle" x="63.18" y="-66.89" font-family="Times,serif" font-size="9.00" fill="lightgray">Z</text>
</g>
<!-- 14090999327100098430 -->
<g id="node4" class="node">
<title>14090999327100098430</title>
<ellipse fill="#3d3d3d" stroke="lightgray" cx="142.35" cy="-205.84" rx="1.8" ry="1.8"/>
</g>
<!-- 14090999327100098430&#45;&gt;8460517831720283043 -->
<g id="edge2" class="edge">
<title>14090999327100098430&#45;&gt;8460517831720283043</title>
<path fill="none" stroke="#d95f02" d="M140.66,-204.92C136.87,-202.86 127.14,-197.58 116.25,-191.66"/>
<polygon fill="#d95f02" stroke="#d95f02" points="107.36,-186.83 118.3,-187.65 111.76,-189.22 116.15,-191.61 116.15,-191.61 116.15,-191.61 111.76,-189.22 114,-195.56 107.36,-186.83 107.36,-186.83"/>
<text text-anchor="middle" x="120.86" y="-198.87" font-family="Times,serif" font-size="9.00" fill="lightgray">Y</text>
</g>
<!-- 9724242860893494469 -->
<g id="node5" class="node">
<title>9724242860893494469</title>
<ellipse fill="#3d3d3d" stroke="lightgray" cx="12.35" cy="-216.09" rx="1.8" ry="1.8"/>
</g>
<!-- 9724242860893494469&#45;&gt;8460517831720283043 -->
<g id="edge3" class="edge">
<title>9724242860893494469&#45;&gt;8460517831720283043</title>
<path fill="none" stroke="#d95f02" d="M13.88,-214.91C18.04,-211.71 30.14,-202.42 42.4,-193"/>
<polygon fill="#d95f02" stroke="#d95f02" points="50.4,-186.85 45.21,-196.51 46.43,-189.9 42.47,-192.94 42.47,-192.94 42.47,-192.94 46.43,-189.9 39.73,-189.37 50.4,-186.85 50.4,-186.85"/>
<text text-anchor="middle" x="28.77" y="-203.58" font-family="Times,serif" font-size="9.00" fill="lightgray">A</text>
</g>
</g>
</svg>
