<?xml version="1.0" encoding="UTF-8" standalone="no"?>
<!DOCTYPE svg PUBLIC "-//W3C//DTD SVG 1.1//EN"
 "http://www.w3.org/Graphics/SVG/1.1/DTD/svg11.dtd">
<!-- Generated by graphviz version 2.43.0 (0)
 -->
<!-- Title: G Pages: 1 -->
<svg width="1026pt" height="441pt"
 viewBox="0.00 0.00 1026.00 441.16" xmlns="http://www.w3.org/2000/svg" xmlns:xlink="http://www.w3.org/1999/xlink">
<g id="graph0" class="graph" transform="scale(1 1) rotate(0) translate(4 437.16)">
<title>G</title>
<polygon fill="#3d3d3d" stroke="transparent" points="-4,4 -4,-437.16 1022,-437.16 1022,4 -4,4"/>
<!-- 12818090556272547875 -->
<g id="node1" class="node">
<title>12818090556272547875</title>
<path fill="lightgray" stroke="black" d="M96,-211.21C96,-211.21 12,-211.21 12,-211.21 6,-211.21 0,-205.21 0,-199.21 0,-199.21 0,-187.21 0,-187.21 0,-181.21 6,-175.21 12,-175.21 12,-175.21 96,-175.21 96,-175.21 102,-175.21 108,-181.21 108,-187.21 108,-187.21 108,-199.21 108,-199.21 108,-205.21 102,-211.21 96,-211.21"/>
<text text-anchor="middle" x="54" y="-189.51" font-family="Times,serif" font-size="14.00">Signals</text>
</g>
<!-- 13617421333920241101 -->
<g id="node8" class="node">
<title>13617421333920241101</title>
<ellipse fill="#3d3d3d" stroke="lightgray" cx="219.27" cy="-267.64" rx="1.8" ry="1.8"/>
</g>
<!-- 12818090556272547875&#45;&gt;13617421333920241101 -->
<g id="edge1" class="edge">
<title>12818090556272547875&#45;&gt;13617421333920241101</title>
<path fill="none" stroke="#1b9e77" d="M94.01,-211.22C138.33,-231.19 205.19,-261.3 217.34,-266.77"/>
</g>
<!-- 4787215007996932200 -->
<g id="node2" class="node">
<title>4787215007996932200</title>
<path fill="lightgray" stroke="black" d="M156.53,-433.16C156.53,-433.16 72.53,-433.16 72.53,-433.16 66.53,-433.16 60.53,-427.16 60.53,-421.16 60.53,-421.16 60.53,-409.16 60.53,-409.16 60.53,-403.16 66.53,-397.16 72.53,-397.16 72.53,-397.16 156.53,-397.16 156.53,-397.16 162.53,-397.16 168.53,-403.16 168.53,-409.16 168.53,-409.16 168.53,-421.16 168.53,-421.16 168.53,-427.16 162.53,-433.16 156.53,-433.16"/>
<text text-anchor="middle" x="114.53" y="-411.46" font-family="Times,serif" font-size="14.00">Logging</text>
</g>
<!-- 15188268546950231350 -->
<g id="node3" class="node">
<title>15188268546950231350</title>
<path fill="lightgray" stroke="black" d="M430.42,-389.23C430.42,-389.23 332.42,-389.23 332.42,-389.23 326.42,-389.23 320.42,-383.23 320.42,-377.23 320.42,-377.23 320.42,-363.23 320.42,-363.23 320.42,-357.23 326.42,-351.23 332.42,-351.23 332.42,-351.23 430.42,-351.23 430.42,-351.23 436.42,-351.23 442.42,-357.23 442.42,-363.23 442.42,-363.23 442.42,-377.23 442.42,-377.23 442.42,-383.23 436.42,-389.23 430.42,-389.23"/>
<text text-anchor="middle" x="381.42" y="-374.03" font-family="Times,serif" font-size="14.00">1:4</text>
<text text-anchor="middle" x="381.42" y="-359.03" font-family="Times,serif" font-size="14.00">Downsampling</text>
</g>
<!-- 14090999327100098430 -->
<g id="node9" class="node">
<title>14090999327100098430</title>
<ellipse fill="#3d3d3d" stroke="lightgray" cx="566.65" cy="-322.91" rx="1.8" ry="1.8"/>
</g>
<!-- 15188268546950231350&#45;&gt;14090999327100098430 -->
<g id="edge2" class="edge">
<title>15188268546950231350&#45;&gt;14090999327100098430</title>
<path fill="none" stroke="#d95f02" d="M442.58,-354.6C491.48,-342.11 553.65,-326.24 564.88,-323.37"/>
</g>
<!-- 5547390734701249590 -->
<g id="node4" class="node">
<title>5547390734701249590</title>
<path fill="lightgray" stroke="black" d="M346.91,-115.4C346.91,-115.4 262.91,-115.4 262.91,-115.4 256.91,-115.4 250.91,-109.4 250.91,-103.4 250.91,-103.4 250.91,-89.4 250.91,-89.4 250.91,-83.4 256.91,-77.4 262.91,-77.4 262.91,-77.4 346.91,-77.4 346.91,-77.4 352.91,-77.4 358.91,-83.4 358.91,-89.4 358.91,-89.4 358.91,-103.4 358.91,-103.4 358.91,-109.4 352.91,-115.4 346.91,-115.4"/>
<text text-anchor="middle" x="304.91" y="-100.2" font-family="Times,serif" font-size="14.00">1/4</text>
<text text-anchor="middle" x="304.91" y="-85.2" font-family="Times,serif" font-size="14.00">Average</text>
</g>
<!-- 9724242860893494469 -->
<g id="node10" class="node">
<title>9724242860893494469</title>
<ellipse fill="#3d3d3d" stroke="lightgray" cx="487.36" cy="-44.17" rx="1.8" ry="1.8"/>
</g>
<!-- 5547390734701249590&#45;&gt;9724242860893494469 -->
<g id="edge3" class="edge">
<title>5547390734701249590&#45;&gt;9724242860893494469</title>
<path fill="none" stroke="#d95f02" d="M359.16,-80.87C407.9,-66.92 473.59,-48.12 485.48,-44.71"/>
</g>
<!-- 16186525304749071905 -->
<g id="node5" class="node">
<title>16186525304749071905</title>
<path fill="lightgray" stroke="black" d="M562.08,-205.8C562.08,-205.8 478.08,-205.8 478.08,-205.8 472.08,-205.8 466.08,-199.8 466.08,-193.8 466.08,-193.8 466.08,-179.8 466.08,-179.8 466.08,-173.8 472.08,-167.8 478.08,-167.8 478.08,-167.8 562.08,-167.8 562.08,-167.8 568.08,-167.8 574.08,-173.8 574.08,-179.8 574.08,-179.8 574.08,-193.8 574.08,-193.8 574.08,-199.8 568.08,-205.8 562.08,-205.8"/>
<text text-anchor="middle" x="520.08" y="-190.6" font-family="Times,serif" font-size="14.00">Down</text>
<text text-anchor="middle" x="520.08" y="-175.6" font-family="Times,serif" font-size="14.00">Logging</text>
</g>
<!-- 1979385184730206666 -->
<g id="node6" class="node">
<title>1979385184730206666</title>
<path fill="lightgray" stroke="black" d="M718.08,-164.48C718.08,-164.48 594.08,-164.48 594.08,-164.48 588.08,-164.48 582.08,-158.48 582.08,-152.48 582.08,-152.48 582.08,-140.48 582.08,-140.48 582.08,-134.48 588.08,-128.48 594.08,-128.48 594.08,-128.48 718.08,-128.48 718.08,-128.48 724.08,-128.48 730.08,-134.48 730.08,-140.48 730.08,-140.48 730.08,-152.48 730.08,-152.48 730.08,-158.48 724.08,-164.48 718.08,-164.48"/>
<text text-anchor="middle" x="656.08" y="-142.78" font-family="Times,serif" font-size="14.00">&#45;(Y &#45; A)*sign(x[i&#45;1])</text>
</g>
<!-- 1312330470008679502 -->
<g id="node11" class="node">
<title>1312330470008679502</title>
<ellipse fill="#3d3d3d" stroke="lightgray" cx="820.07" cy="-98.12" rx="1.8" ry="1.8"/>
</g>
<!-- 1979385184730206666&#45;&gt;1312330470008679502 -->
<g id="edge4" class="edge">
<title>1979385184730206666&#45;&gt;1312330470008679502</title>
<path fill="none" stroke="#7570b3" d="M717.14,-128.47C758.67,-116.23 807.87,-101.72 818.14,-98.69"/>
</g>
<!-- 15728437899048306120 -->
<g id="node7" class="node">
<title>15728437899048306120</title>
<path fill="lightgray" stroke="black" d="M1006,-38C1006,-38 922,-38 922,-38 916,-38 910,-32 910,-26 910,-26 910,-12 910,-12 910,-6 916,0 922,0 922,0 1006,0 1006,0 1012,0 1018,-6 1018,-12 1018,-12 1018,-26 1018,-26 1018,-32 1012,-38 1006,-38"/>
<text text-anchor="middle" x="964" y="-22.8" font-family="Times,serif" font-size="14.00">Up</text>
<text text-anchor="middle" x="964" y="-7.8" font-family="Times,serif" font-size="14.00">Logging</text>
</g>
<!-- 13617421333920241101&#45;&gt;4787215007996932200 -->
<g id="edge5" class="edge">
<title>13617421333920241101&#45;&gt;4787215007996932200</title>
<path fill="none" stroke="#1b9e77" d="M218.09,-269.3C209.9,-280.84 160.9,-349.85 133.33,-388.67"/>
<polygon fill="#1b9e77" stroke="#1b9e77" points="127.48,-396.93 129.6,-386.17 130.37,-392.85 133.26,-388.77 133.26,-388.77 133.26,-388.77 130.37,-392.85 136.93,-391.38 127.48,-396.93 127.48,-396.93"/>
<text text-anchor="middle" x="168.96" y="-335.66" font-family="Times,serif" font-size="9.00" fill="lightgray">U</text>
</g>
<!-- 13617421333920241101&#45;&gt;15188268546950231350 -->
<g id="edge6" class="edge">
<title>13617421333920241101&#45;&gt;15188268546950231350</title>
<path fill="none" stroke="#1b9e77" d="M221.09,-268.79C232.84,-276.23 298.85,-317.99 342.42,-345.56"/>
<polygon fill="#1b9e77" stroke="#1b9e77" points="351.08,-351.04 340.23,-349.49 346.86,-348.36 342.63,-345.69 342.63,-345.69 342.63,-345.69 346.86,-348.36 345.04,-341.89 351.08,-351.04 351.08,-351.04"/>
<text text-anchor="middle" x="282.24" y="-312.81" font-family="Times,serif" font-size="9.00" fill="lightgray">U</text>
</g>
<!-- 13617421333920241101&#45;&gt;5547390734701249590 -->
<g id="edge7" class="edge">
<title>13617421333920241101&#45;&gt;5547390734701249590</title>
<path fill="none" stroke="#1b9e77" d="M220.23,-265.72C227.04,-252.1 268.4,-169.4 290.69,-124.83"/>
<polygon fill="#1b9e77" stroke="#1b9e77" points="295.27,-115.67 294.82,-126.63 293.04,-120.14 290.8,-124.62 290.8,-124.62 290.8,-124.62 293.04,-120.14 286.77,-122.6 295.27,-115.67 295.27,-115.67"/>
<text text-anchor="middle" x="253.85" y="-193.3" font-family="Times,serif" font-size="9.00" fill="lightgray">U</text>
</g>
<!-- 14090999327100098430&#45;&gt;16186525304749071905 -->
<g id="edge8" class="edge">
<title>14090999327100098430&#45;&gt;16186525304749071905</title>
<path fill="none" stroke="#d95f02" d="M566,-320.99C562.13,-309.71 542.18,-251.4 529.88,-215.46"/>
<polygon fill="#d95f02" stroke="#d95f02" points="526.64,-205.97 534.13,-213.98 528.26,-210.7 529.87,-215.44 529.87,-215.44 529.87,-215.44 528.26,-210.7 525.62,-216.89 526.64,-205.97 526.64,-205.97"/>
<text text-anchor="middle" x="542.71" y="-265.98" font-family="Times,serif" font-size="9.00" fill="lightgray">Y</text>
</g>
<!-- 14090999327100098430&#45;&gt;1979385184730206666 -->
<g id="edge10" class="edge">
<title>14090999327100098430&#45;&gt;1979385184730206666</title>
<path fill="none" stroke="#d95f02" d="M567.66,-320.93C574.88,-306.69 619.23,-219.18 642.25,-173.77"/>
<polygon fill="#d95f02" stroke="#d95f02" points="646.81,-164.76 646.3,-175.71 644.55,-169.22 642.29,-173.68 642.29,-173.68 642.29,-173.68 644.55,-169.22 638.28,-171.65 646.81,-164.76 646.81,-164.76"/>
<text text-anchor="middle" x="603.69" y="-245.73" font-family="Times,serif" font-size="9.00" fill="lightgray">Y</text>
</g>
<!-- 9724242860893494469&#45;&gt;16186525304749071905 -->
<g id="edge9" class="edge">
<title>9724242860893494469&#45;&gt;16186525304749071905</title>
<path fill="none" stroke="#d95f02" d="M487.82,-46.19C490.56,-58.11 504.77,-120.07 513.39,-157.65"/>
<polygon fill="#d95f02" stroke="#d95f02" points="515.66,-167.55 509.04,-158.8 514.54,-162.67 513.42,-157.8 513.42,-157.8 513.42,-157.8 514.54,-162.67 517.81,-156.79 515.66,-167.55 515.66,-167.55"/>
<text text-anchor="middle" x="498.24" y="-109.69" font-family="Times,serif" font-size="9.00" fill="lightgray">A</text>
</g>
<!-- 9724242860893494469&#45;&gt;1979385184730206666 -->
<g id="edge11" class="edge">
<title>9724242860893494469&#45;&gt;1979385184730206666</title>
<path fill="none" stroke="#d95f02" d="M489.26,-45.32C501.68,-52.86 572.37,-95.72 617.66,-123.18"/>
<polygon fill="#d95f02" stroke="#d95f02" points="626.35,-128.46 615.47,-127.12 622.07,-125.86 617.8,-123.27 617.8,-123.27 617.8,-123.27 622.07,-125.86 620.13,-119.42 626.35,-128.46 626.35,-128.46"/>
<text text-anchor="middle" x="554.14" y="-89.59" font-family="Times,serif" font-size="9.00" fill="lightgray">A</text>
</g>
<!-- 1312330470008679502&#45;&gt;15728437899048306120 -->
<g id="edge12" class="edge">
<title>1312330470008679502&#45;&gt;15728437899048306120</title>
<path fill="none" stroke="#7570b3" d="M821.69,-97.23C831.32,-91.93 882.06,-64.04 920.23,-43.06"/>
<polygon fill="#7570b3" stroke="#7570b3" points="929.14,-38.16 922.54,-46.93 924.76,-40.57 920.38,-42.98 920.38,-42.98 920.38,-42.98 924.76,-40.57 918.21,-39.04 929.14,-38.16 929.14,-38.16"/>
<text text-anchor="middle" x="871.79" y="-70.57" font-family="Times,serif" font-size="9.00" fill="lightgray">Z</text>
</g>
</g>
</svg>
