<?xml version="1.0" encoding="UTF-8" standalone="no"?>
<!DOCTYPE svg PUBLIC "-//W3C//DTD SVG 1.1//EN"
 "http://www.w3.org/Graphics/SVG/1.1/DTD/svg11.dtd">
<!-- Generated by graphviz version 2.43.0 (0)
 -->
<!-- Title: G Pages: 1 -->
<svg width="259pt" height="48pt"
 viewBox="0.00 0.00 258.75 47.78" xmlns="http://www.w3.org/2000/svg" xmlns:xlink="http://www.w3.org/1999/xlink">
<g id="graph0" class="graph" transform="scale(1 1) rotate(0) translate(4 43.78)">
<title>G</title>
<polygon fill="#3d3d3d" stroke="transparent" points="-4,4 -4,-43.78 254.75,-43.78 254.75,4 -4,4"/>
<!-- 12818090556272547875 -->
<g id="node1" class="node">
<title>12818090556272547875</title>
<path fill="lightgray" stroke="black" d="M96,-39.78C96,-39.78 12,-39.78 12,-39.78 6,-39.78 0,-33.78 0,-27.78 0,-27.78 0,-15.78 0,-15.78 0,-9.78 6,-3.78 12,-3.78 12,-3.78 96,-3.78 96,-3.78 102,-3.78 108,-9.78 108,-15.78 108,-15.78 108,-27.78 108,-27.78 108,-33.78 102,-39.78 96,-39.78"/>
<text text-anchor="middle" x="54" y="-18.08" font-family="Times,serif" font-size="14.00">Signals</text>
</g>
<!-- 13617421333920241101 -->
<g id="node3" class="node">
<title>13617421333920241101</title>
<ellipse fill="#3d3d3d" stroke="lightgray" cx="125.08" cy="-8.7" rx="1.8" ry="1.8"/>
</g>
<!-- 12818090556272547875&#45;&gt;13617421333920241101 -->
<g id="edge1" class="edge">
<title>12818090556272547875&#45;&gt;13617421333920241101</title>
<path fill="none" stroke="#1b9e77" d="M108.24,-11.8C114.93,-10.57 120.38,-9.57 123.14,-9.06"/>
</g>
<!-- 4787215007996932200 -->
<g id="node2" class="node">
<title>4787215007996932200</title>
<path fill="lightgray" stroke="black" d="M238.75,-36C238.75,-36 154.75,-36 154.75,-36 148.75,-36 142.75,-30 142.75,-24 142.75,-24 142.75,-12 142.75,-12 142.75,-6 148.75,0 154.75,0 154.75,0 238.75,0 238.75,0 244.75,0 250.75,-6 250.75,-12 250.75,-12 250.75,-24 250.75,-24 250.75,-30 244.75,-36 238.75,-36"/>
<text text-anchor="middle" x="196.75" y="-14.3" font-family="Times,serif" font-size="14.00">Logging</text>
</g>
<!-- 13617421333920241101&#45;&gt;4787215007996932200 -->
<g id="edge2" class="edge">
<title>13617421333920241101&#45;&gt;4787215007996932200</title>
<path fill="none" stroke="#1b9e77" d="M127.15,-8.97C128.42,-9.14 130.21,-9.37 132.42,-9.65"/>
<polygon fill="#1b9e77" stroke="#1b9e77" points="142.65,-10.98 132.16,-14.16 137.69,-10.34 132.74,-9.7 132.74,-9.7 132.74,-9.7 137.69,-10.34 133.31,-5.23 142.65,-10.98 142.65,-10.98"/>
<text text-anchor="middle" x="136.37" y="-12.45" font-family="Times,serif" font-size="9.00" fill="lightgray">U</text>
</g>
</g>
</svg>
