<?xml version="1.0" encoding="UTF-8" standalone="no"?>
<!DOCTYPE svg PUBLIC "-//W3C//DTD SVG 1.1//EN"
 "http://www.w3.org/Graphics/SVG/1.1/DTD/svg11.dtd">
<!-- Generated by graphviz version 2.43.0 (0)
 -->
<!-- Title: G Pages: 1 -->
<svg width="243pt" height="184pt"
 viewBox="0.00 0.00 243.13 184.09" xmlns="http://www.w3.org/2000/svg" xmlns:xlink="http://www.w3.org/1999/xlink">
<g id="graph0" class="graph" transform="scale(1 1) rotate(0) translate(4 180.09)">
<title>G</title>
<polygon fill="#3d3d3d" stroke="transparent" points="-4,4 -4,-180.09 239.13,-180.09 239.13,4 -4,4"/>
<!-- 16305516920121994968 -->
<g id="node1" class="node">
<title>16305516920121994968</title>
<path fill="lightgray" stroke="black" d="M117.29,-38C117.29,-38 19.29,-38 19.29,-38 13.29,-38 7.29,-32 7.29,-26 7.29,-26 7.29,-12 7.29,-12 7.29,-6 13.29,0 19.29,0 19.29,0 117.29,0 117.29,0 123.29,0 129.29,-6 129.29,-12 129.29,-12 129.29,-26 129.29,-26 129.29,-32 123.29,-38 117.29,-38"/>
<text text-anchor="middle" x="68.29" y="-22.8" font-family="Times,serif" font-size="14.00">1:4</text>
<text text-anchor="middle" x="68.29" y="-7.8" font-family="Times,serif" font-size="14.00">Downsampling</text>
</g>
<!-- 14090999327100098430 -->
<g id="node4" class="node">
<title>14090999327100098430</title>
<ellipse fill="#3d3d3d" stroke="lightgray" cx="21" cy="-83.9" rx="1.8" ry="1.8"/>
</g>
<!-- 16305516920121994968&#45;&gt;14090999327100098430 -->
<g id="edge1" class="edge">
<title>16305516920121994968&#45;&gt;14090999327100098430</title>
<path fill="none" stroke="#1b9e77" d="M54.36,-38.12C42.37,-54.57 26.35,-76.56 22.08,-82.41"/>
</g>
<!-- 5439729985067977712 -->
<g id="node2" class="node">
<title>5439729985067977712</title>
<path fill="lightgray" stroke="black" d="M223.13,-119.25C223.13,-119.25 139.13,-119.25 139.13,-119.25 133.13,-119.25 127.13,-113.25 127.13,-107.25 127.13,-107.25 127.13,-93.25 127.13,-93.25 127.13,-87.25 133.13,-81.25 139.13,-81.25 139.13,-81.25 223.13,-81.25 223.13,-81.25 229.13,-81.25 235.13,-87.25 235.13,-93.25 235.13,-93.25 235.13,-107.25 235.13,-107.25 235.13,-113.25 229.13,-119.25 223.13,-119.25"/>
<text text-anchor="middle" x="181.13" y="-104.05" font-family="Times,serif" font-size="14.00">1/4</text>
<text text-anchor="middle" x="181.13" y="-89.05" font-family="Times,serif" font-size="14.00">Average</text>
</g>
<!-- 9724242860893494469 -->
<g id="node5" class="node">
<title>9724242860893494469</title>
<ellipse fill="#3d3d3d" stroke="lightgray" cx="133.89" cy="-165.18" rx="1.8" ry="1.8"/>
</g>
<!-- 5439729985067977712&#45;&gt;9724242860893494469 -->
<g id="edge2" class="edge">
<title>5439729985067977712&#45;&gt;9724242860893494469</title>
<path fill="none" stroke="#1b9e77" d="M167.22,-119.38C155.24,-135.84 139.24,-157.83 134.98,-163.69"/>
</g>
<!-- 5969335906752424919 -->
<g id="node3" class="node">
<title>5969335906752424919</title>
<path fill="lightgray" stroke="black" d="M96,-176.09C96,-176.09 12,-176.09 12,-176.09 6,-176.09 0,-170.09 0,-164.09 0,-164.09 0,-150.09 0,-150.09 0,-144.09 6,-138.09 12,-138.09 12,-138.09 96,-138.09 96,-138.09 102,-138.09 108,-144.09 108,-150.09 108,-150.09 108,-164.09 108,-164.09 108,-170.09 102,-176.09 96,-176.09"/>
<text text-anchor="middle" x="54" y="-160.89" font-family="Times,serif" font-size="14.00">Down</text>
<text text-anchor="middle" x="54" y="-145.89" font-family="Times,serif" font-size="14.00">Logging</text>
</g>
<!-- 14090999327100098430&#45;&gt;5969335906752424919 -->
<g id="edge5" class="edge">
<title>14090999327100098430&#45;&gt;5969335906752424919</title>
<path fill="none" stroke="#1b9e77" d="M21.82,-85.71C24.51,-91.69 33.41,-111.42 41.17,-128.63"/>
<polygon fill="#1b9e77" stroke="#1b9e77" points="45.31,-137.82 37.1,-130.56 43.26,-133.27 41.2,-128.71 41.2,-128.71 41.2,-128.71 43.26,-133.27 45.31,-126.86 45.31,-137.82 45.31,-137.82"/>
<text text-anchor="middle" x="30.1" y="-114.65" font-family="Times,serif" font-size="9.00" fill="lightgray">Y</text>
</g>
<!-- 9724242860893494469&#45;&gt;5969335906752424919 -->
<g id="edge6" class="edge">
<title>9724242860893494469&#45;&gt;5969335906752424919</title>
<path fill="none" stroke="#1b9e77" d="M131.92,-164.98C129.4,-164.72 124.63,-164.24 118.65,-163.64"/>
<polygon fill="#1b9e77" stroke="#1b9e77" points="108.4,-162.6 118.8,-159.13 113.37,-163.1 118.34,-163.6 118.34,-163.6 118.34,-163.6 113.37,-163.1 117.89,-168.08 108.4,-162.6 108.4,-162.6"/>
<text text-anchor="middle" x="116.8" y="-166.6" font-family="Times,serif" font-size="9.00" fill="lightgray">A</text>
</g>
<!-- 13617421333920241101 -->
<g id="node6" class="node">
<title>13617421333920241101</title>
<ellipse fill="#3d3d3d" stroke="lightgray" cx="148.19" cy="-27.04" rx="1.8" ry="1.8"/>
</g>
<!-- 13617421333920241101&#45;&gt;16305516920121994968 -->
<g id="edge3" class="edge">
<title>13617421333920241101&#45;&gt;16305516920121994968</title>
<path fill="none" stroke="#d95f02" d="M146.21,-26.84C144.72,-26.69 142.45,-26.46 139.61,-26.17"/>
<polygon fill="#d95f02" stroke="#d95f02" points="129.58,-25.16 139.98,-21.69 134.56,-25.66 139.53,-26.17 139.53,-26.17 139.53,-26.17 134.56,-25.66 139.08,-30.64 129.58,-25.16 129.58,-25.16"/>
<text text-anchor="middle" x="135.74" y="-28.99" font-family="Times,serif" font-size="9.00" fill="lightgray">U</text>
</g>
<!-- 13617421333920241101&#45;&gt;5439729985067977712 -->
<g id="edge4" class="edge">
<title>13617421333920241101&#45;&gt;5439729985067977712</title>
<path fill="none" stroke="#d95f02" d="M149,-28.85C151.7,-34.83 160.58,-54.57 168.32,-71.78"/>
<polygon fill="#d95f02" stroke="#d95f02" points="172.46,-80.98 164.25,-73.7 170.41,-76.42 168.36,-71.86 168.36,-71.86 168.36,-71.86 170.41,-76.42 172.46,-70.01 172.46,-80.98 172.46,-80.98"/>
<text text-anchor="middle" x="156.77" y="-57.8" font-family="Times,serif" font-size="9.00" fill="lightgray">U</text>
</g>
</g>
</svg>
