<?xml version="1.0" encoding="UTF-8" standalone="no"?>
<!DOCTYPE svg PUBLIC "-//W3C//DTD SVG 1.1//EN"
 "http://www.w3.org/Graphics/SVG/1.1/DTD/svg11.dtd">
<!-- Generated by graphviz version 2.43.0 (0)
 -->
<!-- Title: G Pages: 1 -->
<svg width="270pt" height="235pt"
 viewBox="0.00 0.00 269.80 235.00" xmlns="http://www.w3.org/2000/svg" xmlns:xlink="http://www.w3.org/1999/xlink">
<g id="graph0" class="graph" transform="scale(1 1) rotate(0) translate(4 231)">
<title>G</title>
<polygon fill="#3d3d3d" stroke="transparent" points="-4,4 -4,-231 265.8,-231 265.8,4 -4,4"/>
<!-- 15508195544299657810 -->
<g id="node1" class="node">
<title>15508195544299657810</title>
<path fill="lightgray" stroke="black" d="M96,-36C96,-36 12,-36 12,-36 6,-36 0,-30 0,-24 0,-24 0,-12 0,-12 0,-6 6,0 12,0 12,0 96,0 96,0 102,0 108,-6 108,-12 108,-12 108,-24 108,-24 108,-30 102,-36 96,-36"/>
<text text-anchor="middle" x="54" y="-14.3" font-family="Times,serif" font-size="14.00">Timer</text>
</g>
<!-- 15164962824015256459 -->
<g id="node5" class="node">
<title>15164962824015256459</title>
<ellipse fill="#3d3d3d" stroke="lightgray" cx="101.46" cy="-78.62" rx="1.8" ry="1.8"/>
</g>
<!-- 15508195544299657810&#45;&gt;15164962824015256459 -->
<g id="edge1" class="edge">
<title>15508195544299657810&#45;&gt;15164962824015256459</title>
<path fill="none" stroke="#1b9e77" d="M68.24,-36.19C80.04,-51.25 95.58,-71.1 100.15,-76.94"/>
</g>
<!-- 2708675557326297604 -->
<g id="node2" class="node">
<title>2708675557326297604</title>
<path fill="lightgray" stroke="black" d="M118.81,-174.62C118.81,-174.62 34.81,-174.62 34.81,-174.62 28.81,-174.62 22.81,-168.62 22.81,-162.62 22.81,-162.62 22.81,-150.62 22.81,-150.62 22.81,-144.62 28.81,-138.62 34.81,-138.62 34.81,-138.62 118.81,-138.62 118.81,-138.62 124.81,-138.62 130.81,-144.62 130.81,-150.62 130.81,-150.62 130.81,-162.62 130.81,-162.62 130.81,-168.62 124.81,-174.62 118.81,-174.62"/>
<text text-anchor="middle" x="76.81" y="-152.92" font-family="Times,serif" font-size="14.00">Signals</text>
</g>
<!-- 14100923778443610677 -->
<g id="node6" class="node">
<title>14100923778443610677</title>
<ellipse fill="#3d3d3d" stroke="lightgray" cx="127.62" cy="-218.98" rx="1.8" ry="1.8"/>
</g>
<!-- 2708675557326297604&#45;&gt;14100923778443610677 -->
<g id="edge2" class="edge">
<title>2708675557326297604&#45;&gt;14100923778443610677</title>
<path fill="none" stroke="#1b9e77" d="M91.51,-174.65C104.4,-190.48 121.8,-211.84 126.44,-217.53"/>
</g>
<!-- 18152530401148260010 -->
<g id="node3" class="node">
<title>18152530401148260010</title>
<path fill="lightgray" stroke="black" d="M224.9,-88.43C224.9,-88.43 140.9,-88.43 140.9,-88.43 134.9,-88.43 128.9,-82.43 128.9,-76.43 128.9,-76.43 128.9,-64.43 128.9,-64.43 128.9,-58.43 134.9,-52.43 140.9,-52.43 140.9,-52.43 224.9,-52.43 224.9,-52.43 230.9,-52.43 236.9,-58.43 236.9,-64.43 236.9,-64.43 236.9,-76.43 236.9,-76.43 236.9,-82.43 230.9,-88.43 224.9,-88.43"/>
<text text-anchor="middle" x="182.9" y="-66.73" font-family="Times,serif" font-size="14.00">Source</text>
</g>
<!-- 378431486652388248 -->
<g id="node7" class="node">
<title>378431486652388248</title>
<ellipse fill="#3d3d3d" stroke="lightgray" cx="233.87" cy="-132.54" rx="1.8" ry="1.8"/>
</g>
<!-- 18152530401148260010&#45;&gt;378431486652388248 -->
<g id="edge3" class="edge">
<title>18152530401148260010&#45;&gt;378431486652388248</title>
<path fill="none" stroke="#1b9e77" d="M197.92,-88.73C210.84,-104.48 228.1,-125.52 232.7,-131.12"/>
</g>
<!-- 13823928459920352751 -->
<g id="node4" class="node">
<title>13823928459920352751</title>
<path fill="lightgray" stroke="black" d="M249.8,-227C249.8,-227 165.8,-227 165.8,-227 159.8,-227 153.8,-221 153.8,-215 153.8,-215 153.8,-203 153.8,-203 153.8,-197 159.8,-191 165.8,-191 165.8,-191 249.8,-191 249.8,-191 255.8,-191 261.8,-197 261.8,-203 261.8,-203 261.8,-215 261.8,-215 261.8,-221 255.8,-227 249.8,-227"/>
<text text-anchor="middle" x="207.8" y="-205.3" font-family="Times,serif" font-size="14.00">Logging</text>
</g>
<!-- 15164962824015256459&#45;&gt;2708675557326297604 -->
<g id="edge4" class="edge">
<title>15164962824015256459&#45;&gt;2708675557326297604</title>
<path fill="none" stroke="#1b9e77" d="M100.85,-80.55C98.76,-87.19 91.63,-109.75 85.67,-128.59"/>
<polygon fill="#1b9e77" stroke="#1b9e77" points="82.61,-138.27 81.33,-127.38 84.12,-133.5 85.63,-128.73 85.63,-128.73 85.63,-128.73 84.12,-133.5 89.92,-130.09 82.61,-138.27 82.61,-138.27"/>
<text text-anchor="middle" x="81.69" y="-112.33" font-family="Times,serif" font-size="9.00" fill="lightgray">Tick</text>
</g>
<!-- 15164962824015256459&#45;&gt;18152530401148260010 -->
<g id="edge5" class="edge">
<title>15164962824015256459&#45;&gt;18152530401148260010</title>
<path fill="none" stroke="#1b9e77" d="M103.48,-78.42C106.27,-78.14 111.77,-77.58 118.62,-76.9"/>
<polygon fill="#1b9e77" stroke="#1b9e77" points="128.68,-75.88 119.18,-81.36 123.71,-76.38 118.73,-76.88 118.73,-76.88 118.73,-76.88 123.71,-76.38 118.28,-72.41 128.68,-75.88 128.68,-75.88"/>
<text text-anchor="middle" x="115.81" y="-69.98" font-family="Times,serif" font-size="9.00" fill="lightgray">Tick</text>
</g>
<!-- 14100923778443610677&#45;&gt;13823928459920352751 -->
<g id="edge6" class="edge">
<title>14100923778443610677&#45;&gt;13823928459920352751</title>
<path fill="none" stroke="#1b9e77" stroke-dasharray="5,2" d="M129.6,-218.73C132.22,-218.41 137.27,-217.78 143.58,-216.99"/>
<polygon fill="#1b9e77" stroke="#1b9e77" points="153.61,-215.74 144.24,-221.44 148.65,-216.36 143.69,-216.98 143.69,-216.98 143.69,-216.98 148.65,-216.36 143.13,-212.51 153.61,-215.74 153.61,-215.74"/>
<text text-anchor="middle" x="116.84" y="-210.01" font-family="Times,serif" font-size="9.00" fill="lightgray">Sinusoides</text>
</g>
<!-- 378431486652388248&#45;&gt;13823928459920352751 -->
<g id="edge7" class="edge">
<title>378431486652388248&#45;&gt;13823928459920352751</title>
<path fill="none" stroke="#1b9e77" stroke-dasharray="5,2" d="M233.22,-134.43C231.01,-140.9 223.55,-162.79 217.28,-181.19"/>
<polygon fill="#1b9e77" stroke="#1b9e77" points="214.05,-190.66 213.02,-179.75 215.67,-185.93 217.28,-181.2 217.28,-181.2 217.28,-181.2 215.67,-185.93 221.54,-182.65 214.05,-190.66 214.05,-190.66"/>
<text text-anchor="middle" x="203.61" y="-165.42" font-family="Times,serif" font-size="9.00" fill="lightgray">UpDown</text>
</g>
</g>
</svg>
