<?xml version="1.0" encoding="UTF-8" standalone="no"?>
<!DOCTYPE svg PUBLIC "-//W3C//DTD SVG 1.1//EN"
 "http://www.w3.org/Graphics/SVG/1.1/DTD/svg11.dtd">
<!-- Generated by graphviz version 2.43.0 (0)
 -->
<!-- Title: G Pages: 1 -->
<svg width="395pt" height="114pt"
 viewBox="0.00 0.00 394.81 113.73" xmlns="http://www.w3.org/2000/svg" xmlns:xlink="http://www.w3.org/1999/xlink">
<g id="graph0" class="graph" transform="scale(1 1) rotate(0) translate(4 109.73)">
<title>G</title>
<polygon fill="#3d3d3d" stroke="transparent" points="-4,4 -4,-109.73 390.81,-109.73 390.81,4 -4,4"/>
<!-- 2388591219605785467 -->
<g id="node1" class="node">
<title>2388591219605785467</title>
<path fill="lightgray" stroke="black" d="M374.81,-105.73C374.81,-105.73 290.81,-105.73 290.81,-105.73 284.81,-105.73 278.81,-99.73 278.81,-93.73 278.81,-93.73 278.81,-81.73 278.81,-81.73 278.81,-75.73 284.81,-69.73 290.81,-69.73 290.81,-69.73 374.81,-69.73 374.81,-69.73 380.81,-69.73 386.81,-75.73 386.81,-81.73 386.81,-81.73 386.81,-93.73 386.81,-93.73 386.81,-99.73 380.81,-105.73 374.81,-105.73"/>
<text text-anchor="middle" x="332.81" y="-84.03" font-family="Times,serif" font-size="14.00">Signals</text>
</g>
<!-- 14100923778443610677 -->
<g id="node4" class="node">
<title>14100923778443610677</title>
<ellipse fill="#3d3d3d" stroke="lightgray" cx="262.88" cy="-70.34" rx="1.8" ry="1.8"/>
</g>
<!-- 2388591219605785467&#45;&gt;14100923778443610677 -->
<g id="edge1" class="edge">
<title>2388591219605785467&#45;&gt;14100923778443610677</title>
<path fill="none" stroke="#1b9e77" d="M278.74,-74.28C272.41,-72.71 267.29,-71.43 264.7,-70.79"/>
</g>
<!-- 10736817341189027654 -->
<g id="node2" class="node">
<title>10736817341189027654</title>
<path fill="lightgray" stroke="black" d="M96,-36C96,-36 12,-36 12,-36 6,-36 0,-30 0,-24 0,-24 0,-12 0,-12 0,-6 6,0 12,0 12,0 96,0 96,0 102,0 108,-6 108,-12 108,-12 108,-24 108,-24 108,-30 102,-36 96,-36"/>
<text text-anchor="middle" x="54" y="-14.3" font-family="Times,serif" font-size="14.00">Source</text>
</g>
<!-- 378431486652388248 -->
<g id="node5" class="node">
<title>378431486652388248</title>
<ellipse fill="#3d3d3d" stroke="lightgray" cx="124.66" cy="-32.56" rx="1.8" ry="1.8"/>
</g>
<!-- 10736817341189027654&#45;&gt;378431486652388248 -->
<g id="edge2" class="edge">
<title>10736817341189027654&#45;&gt;378431486652388248</title>
<path fill="none" stroke="#1b9e77" d="M108.27,-29.19C114.8,-30.53 120.1,-31.62 122.77,-32.17"/>
</g>
<!-- 3411816009909470045 -->
<g id="node3" class="node">
<title>3411816009909470045</title>
<path fill="lightgray" stroke="black" d="M233.17,-79.06C233.17,-79.06 149.17,-79.06 149.17,-79.06 143.17,-79.06 137.17,-73.06 137.17,-67.06 137.17,-67.06 137.17,-55.06 137.17,-55.06 137.17,-49.06 143.17,-43.06 149.17,-43.06 149.17,-43.06 233.17,-43.06 233.17,-43.06 239.17,-43.06 245.17,-49.06 245.17,-55.06 245.17,-55.06 245.17,-67.06 245.17,-67.06 245.17,-73.06 239.17,-79.06 233.17,-79.06"/>
<text text-anchor="middle" x="191.17" y="-57.36" font-family="Times,serif" font-size="14.00">Logging</text>
</g>
<!-- 14100923778443610677&#45;&gt;3411816009909470045 -->
<g id="edge3" class="edge">
<title>14100923778443610677&#45;&gt;3411816009909470045</title>
<path fill="none" stroke="#1b9e77" stroke-dasharray="5,2" d="M260.81,-70.07C259.54,-69.91 257.74,-69.67 255.54,-69.39"/>
<polygon fill="#1b9e77" stroke="#1b9e77" points="245.3,-68.06 255.79,-64.88 250.26,-68.7 255.21,-69.35 255.21,-69.35 255.21,-69.35 250.26,-68.7 254.64,-73.81 245.3,-68.06 245.3,-68.06"/>
<text text-anchor="middle" x="280.59" y="-62.19" font-family="Times,serif" font-size="9.00" fill="lightgray">Sinusoides</text>
</g>
<!-- 378431486652388248&#45;&gt;3411816009909470045 -->
<g id="edge4" class="edge">
<title>378431486652388248&#45;&gt;3411816009909470045</title>
<path fill="none" stroke="#1b9e77" stroke-dasharray="5,2" d="M126.58,-33.39C129.1,-34.46 133.9,-36.52 139.79,-39.05"/>
<polygon fill="#1b9e77" stroke="#1b9e77" points="149.07,-43.02 138.11,-43.22 144.48,-41.05 139.88,-39.08 139.88,-39.08 139.88,-39.08 144.48,-41.05 141.65,-34.95 149.07,-43.02 149.07,-43.02"/>
<text text-anchor="middle" x="158.16" y="-31.15" font-family="Times,serif" font-size="9.00" fill="lightgray">UpDown</text>
</g>
</g>
</svg>
