<?xml version="1.0" encoding="UTF-8" standalone="no"?>
<!DOCTYPE svg PUBLIC "-//W3C//DTD SVG 1.1//EN"
 "http://www.w3.org/Graphics/SVG/1.1/DTD/svg11.dtd">
<!-- Generated by graphviz version 2.43.0 (0)
 -->
<!-- Title: G Pages: 1 -->
<svg width="341pt" height="220pt"
 viewBox="0.00 0.00 341.17 220.21" xmlns="http://www.w3.org/2000/svg" xmlns:xlink="http://www.w3.org/1999/xlink">
<g id="graph0" class="graph" transform="scale(1 1) rotate(0) translate(4 216.21)">
<title>G</title>
<polygon fill="#3d3d3d" stroke="transparent" points="-4,4 -4,-216.21 337.17,-216.21 337.17,4 -4,4"/>
<!-- 2388591219605785467 -->
<g id="node1" class="node">
<title>2388591219605785467</title>
<path fill="lightgray" stroke="black" d="M321.17,-212.21C321.17,-212.21 237.17,-212.21 237.17,-212.21 231.17,-212.21 225.17,-206.21 225.17,-200.21 225.17,-200.21 225.17,-188.21 225.17,-188.21 225.17,-182.21 231.17,-176.21 237.17,-176.21 237.17,-176.21 321.17,-176.21 321.17,-176.21 327.17,-176.21 333.17,-182.21 333.17,-188.21 333.17,-188.21 333.17,-200.21 333.17,-200.21 333.17,-206.21 327.17,-212.21 321.17,-212.21"/>
<text text-anchor="middle" x="279.17" y="-190.51" font-family="Times,serif" font-size="14.00">Signals</text>
</g>
<!-- 14100923778443610677 -->
<g id="node4" class="node">
<title>14100923778443610677</title>
<ellipse fill="#3d3d3d" stroke="lightgray" cx="213.7" cy="-163.4" rx="1.8" ry="1.8"/>
</g>
<!-- 2388591219605785467&#45;&gt;14100923778443610677 -->
<g id="edge1" class="edge">
<title>2388591219605785467&#45;&gt;14100923778443610677</title>
<path fill="none" stroke="#1b9e77" d="M240.71,-176.11C229.57,-170.87 219.35,-166.06 215.41,-164.2"/>
</g>
<!-- 10736817341189027654 -->
<g id="node2" class="node">
<title>10736817341189027654</title>
<path fill="lightgray" stroke="black" d="M96,-36C96,-36 12,-36 12,-36 6,-36 0,-30 0,-24 0,-24 0,-12 0,-12 0,-6 6,0 12,0 12,0 96,0 96,0 102,0 108,-6 108,-12 108,-12 108,-24 108,-24 108,-30 102,-36 96,-36"/>
<text text-anchor="middle" x="54" y="-14.3" font-family="Times,serif" font-size="14.00">Source</text>
</g>
<!-- 378431486652388248 -->
<g id="node5" class="node">
<title>378431486652388248</title>
<ellipse fill="#3d3d3d" stroke="lightgray" cx="108.39" cy="-65.34" rx="1.8" ry="1.8"/>
</g>
<!-- 10736817341189027654&#45;&gt;378431486652388248 -->
<g id="edge2" class="edge">
<title>10736817341189027654&#45;&gt;378431486652388248</title>
<path fill="none" stroke="#1b9e77" d="M74.87,-36.17C87.58,-47.22 102.23,-59.97 106.89,-64.03"/>
</g>
<!-- 3411816009909470045 -->
<g id="node3" class="node">
<title>3411816009909470045</title>
<path fill="lightgray" stroke="black" d="M197.87,-137.89C197.87,-137.89 113.87,-137.89 113.87,-137.89 107.87,-137.89 101.87,-131.89 101.87,-125.89 101.87,-125.89 101.87,-113.89 101.87,-113.89 101.87,-107.89 107.87,-101.89 113.87,-101.89 113.87,-101.89 197.87,-101.89 197.87,-101.89 203.87,-101.89 209.87,-107.89 209.87,-113.89 209.87,-113.89 209.87,-125.89 209.87,-125.89 209.87,-131.89 203.87,-137.89 197.87,-137.89"/>
<text text-anchor="middle" x="155.87" y="-116.19" font-family="Times,serif" font-size="14.00">Logging</text>
</g>
<!-- 14100923778443610677&#45;&gt;3411816009909470045 -->
<g id="edge3" class="edge">
<title>14100923778443610677&#45;&gt;3411816009909470045</title>
<path fill="none" stroke="#1b9e77" stroke-dasharray="5,2" d="M211.78,-161.95C207.82,-158.97 198.28,-151.8 188.18,-144.2"/>
<polygon fill="#1b9e77" stroke="#1b9e77" points="180.06,-138.09 190.76,-140.5 184.06,-141.09 188.05,-144.1 188.05,-144.1 188.05,-144.1 184.06,-141.09 185.35,-147.69 180.06,-138.09 180.06,-138.09"/>
<text text-anchor="middle" x="171.02" y="-152.89" font-family="Times,serif" font-size="9.00" fill="lightgray">Sinusoides</text>
</g>
<!-- 378431486652388248&#45;&gt;3411816009909470045 -->
<g id="edge4" class="edge">
<title>378431486652388248&#45;&gt;3411816009909470045</title>
<path fill="none" stroke="#1b9e77" stroke-dasharray="5,2" d="M109.97,-67.15C113.76,-71.51 123.79,-83.02 133.5,-94.18"/>
<polygon fill="#1b9e77" stroke="#1b9e77" points="140.1,-101.76 130.14,-97.18 136.82,-97.99 133.53,-94.22 133.53,-94.22 133.53,-94.22 136.82,-97.99 136.93,-91.27 140.1,-101.76 140.1,-101.76"/>
<text text-anchor="middle" x="104.94" y="-87.15" font-family="Times,serif" font-size="9.00" fill="lightgray">UpDown</text>
</g>
</g>
</svg>
