<?xml version="1.0" encoding="UTF-8" standalone="no"?>
<!DOCTYPE svg PUBLIC "-//W3C//DTD SVG 1.1//EN"
 "http://www.w3.org/Graphics/SVG/1.1/DTD/svg11.dtd">
<!-- Generated by graphviz version 2.43.0 (0)
 -->
<!-- Title: G Pages: 1 -->
<svg width="327pt" height="190pt"
 viewBox="0.00 0.00 326.94 189.82" xmlns="http://www.w3.org/2000/svg" xmlns:xlink="http://www.w3.org/1999/xlink">
<g id="graph0" class="graph" transform="scale(1 1) rotate(0) translate(4 185.82)">
<title>G</title>
<polygon fill="#3d3d3d" stroke="transparent" points="-4,4 -4,-185.82 322.94,-185.82 322.94,4 -4,4"/>
<!-- 15508195544299657810 -->
<g id="node1" class="node">
<title>15508195544299657810</title>
<path fill="lightgray" stroke="black" d="M96,-181.82C96,-181.82 12,-181.82 12,-181.82 6,-181.82 0,-175.82 0,-169.82 0,-169.82 0,-157.82 0,-157.82 0,-151.82 6,-145.82 12,-145.82 12,-145.82 96,-145.82 96,-145.82 102,-145.82 108,-151.82 108,-157.82 108,-157.82 108,-169.82 108,-169.82 108,-175.82 102,-181.82 96,-181.82"/>
<text text-anchor="middle" x="54" y="-160.12" font-family="Times,serif" font-size="14.00">Timer</text>
</g>
<!-- 15164962824015256459 -->
<g id="node5" class="node">
<title>15164962824015256459</title>
<ellipse fill="#3d3d3d" stroke="lightgray" cx="120.3" cy="-124.68" rx="1.8" ry="1.8"/>
</g>
<!-- 15508195544299657810&#45;&gt;15164962824015256459 -->
<g id="edge1" class="edge">
<title>15508195544299657810&#45;&gt;15164962824015256459</title>
<path fill="none" stroke="#1b9e77" d="M84.82,-145.62C98.89,-137.32 113.52,-128.68 118.51,-125.74"/>
</g>
<!-- 2708675557326297604 -->
<g id="node2" class="node">
<title>2708675557326297604</title>
<path fill="lightgray" stroke="black" d="M236,-178.18C236,-178.18 152,-178.18 152,-178.18 146,-178.18 140,-172.18 140,-166.18 140,-166.18 140,-154.18 140,-154.18 140,-148.18 146,-142.18 152,-142.18 152,-142.18 236,-142.18 236,-142.18 242,-142.18 248,-148.18 248,-154.18 248,-154.18 248,-166.18 248,-166.18 248,-172.18 242,-178.18 236,-178.18"/>
<text text-anchor="middle" x="194" y="-156.48" font-family="Times,serif" font-size="14.00">Signals</text>
</g>
<!-- 14100923778443610677 -->
<g id="node6" class="node">
<title>14100923778443610677</title>
<ellipse fill="#3d3d3d" stroke="lightgray" cx="263.14" cy="-119.15" rx="1.8" ry="1.8"/>
</g>
<!-- 2708675557326297604&#45;&gt;14100923778443610677 -->
<g id="edge2" class="edge">
<title>2708675557326297604&#45;&gt;14100923778443610677</title>
<path fill="none" stroke="#1b9e77" d="M224.53,-142.07C239.87,-132.97 256.28,-123.22 261.47,-120.14"/>
</g>
<!-- 18152530401148260010 -->
<g id="node3" class="node">
<title>18152530401148260010</title>
<path fill="lightgray" stroke="black" d="M165.86,-60.91C165.86,-60.91 81.86,-60.91 81.86,-60.91 75.86,-60.91 69.86,-54.91 69.86,-48.91 69.86,-48.91 69.86,-36.91 69.86,-36.91 69.86,-30.91 75.86,-24.91 81.86,-24.91 81.86,-24.91 165.86,-24.91 165.86,-24.91 171.86,-24.91 177.86,-30.91 177.86,-36.91 177.86,-36.91 177.86,-48.91 177.86,-48.91 177.86,-54.91 171.86,-60.91 165.86,-60.91"/>
<text text-anchor="middle" x="123.86" y="-39.21" font-family="Times,serif" font-size="14.00">Source</text>
</g>
<!-- 378431486652388248 -->
<g id="node7" class="node">
<title>378431486652388248</title>
<ellipse fill="#3d3d3d" stroke="lightgray" cx="192.93" cy="-1.8" rx="1.8" ry="1.8"/>
</g>
<!-- 18152530401148260010&#45;&gt;378431486652388248 -->
<g id="edge3" class="edge">
<title>18152530401148260010&#45;&gt;378431486652388248</title>
<path fill="none" stroke="#1b9e77" d="M154.36,-24.76C169.68,-15.64 186.08,-5.88 191.26,-2.79"/>
</g>
<!-- 13823928459920352751 -->
<g id="node4" class="node">
<title>13823928459920352751</title>
<path fill="lightgray" stroke="black" d="M306.94,-56.38C306.94,-56.38 222.94,-56.38 222.94,-56.38 216.94,-56.38 210.94,-50.38 210.94,-44.38 210.94,-44.38 210.94,-32.38 210.94,-32.38 210.94,-26.38 216.94,-20.38 222.94,-20.38 222.94,-20.38 306.94,-20.38 306.94,-20.38 312.94,-20.38 318.94,-26.38 318.94,-32.38 318.94,-32.38 318.94,-44.38 318.94,-44.38 318.94,-50.38 312.94,-56.38 306.94,-56.38"/>
<text text-anchor="middle" x="264.94" y="-34.68" font-family="Times,serif" font-size="14.00">Logging</text>
</g>
<!-- 15164962824015256459&#45;&gt;2708675557326297604 -->
<g id="edge4" class="edge">
<title>15164962824015256459&#45;&gt;2708675557326297604</title>
<path fill="none" stroke="#1b9e77" d="M122.12,-125.56C126.07,-127.46 135.99,-132.24 147.24,-137.66"/>
<polygon fill="#1b9e77" stroke="#1b9e77" points="156.46,-142.1 145.5,-141.81 151.95,-139.93 147.45,-137.76 147.45,-137.76 147.45,-137.76 151.95,-139.93 149.4,-133.71 156.46,-142.1 156.46,-142.1"/>
<text text-anchor="middle" x="128.88" y="-136.43" font-family="Times,serif" font-size="9.00" fill="lightgray">Tick</text>
</g>
<!-- 15164962824015256459&#45;&gt;18152530401148260010 -->
<g id="edge5" class="edge">
<title>15164962824015256459&#45;&gt;18152530401148260010</title>
<path fill="none" stroke="#1b9e77" d="M120.39,-122.66C120.7,-115.57 121.76,-91.19 122.63,-71.23"/>
<polygon fill="#1b9e77" stroke="#1b9e77" points="123.07,-61.03 127.13,-71.22 122.86,-66.02 122.64,-71.02 122.64,-71.02 122.64,-71.02 122.86,-66.02 118.14,-70.82 123.07,-61.03 123.07,-61.03"/>
<text text-anchor="middle" x="111.72" y="-94.82" font-family="Times,serif" font-size="9.00" fill="lightgray">Tick</text>
</g>
<!-- 14100923778443610677&#45;&gt;13823928459920352751 -->
<g id="edge6" class="edge">
<title>14100923778443610677&#45;&gt;13823928459920352751</title>
<path fill="none" stroke="#1b9e77" stroke-dasharray="5,2" d="M263.19,-117.16C263.34,-110.2 263.87,-86.36 264.31,-66.71"/>
<polygon fill="#1b9e77" stroke="#1b9e77" points="264.53,-56.65 268.81,-66.75 264.42,-61.65 264.31,-66.64 264.31,-66.64 264.31,-66.64 264.42,-61.65 259.81,-66.54 264.53,-56.65 264.53,-56.65"/>
<text text-anchor="middle" x="238.86" y="-89.46" font-family="Times,serif" font-size="9.00" fill="lightgray">Sinusoides</text>
</g>
<!-- 378431486652388248&#45;&gt;13823928459920352751 -->
<g id="edge7" class="edge">
<title>378431486652388248&#45;&gt;13823928459920352751</title>
<path fill="none" stroke="#1b9e77" stroke-dasharray="5,2" d="M194.71,-2.7C198.72,-4.74 208.98,-9.96 220.47,-15.79"/>
<polygon fill="#1b9e77" stroke="#1b9e77" points="229.41,-20.33 218.46,-19.81 224.95,-18.07 220.49,-15.8 220.49,-15.8 220.49,-15.8 224.95,-18.07 222.53,-11.79 229.41,-20.33 229.41,-20.33"/>
<text text-anchor="middle" x="231.67" y="-4.12" font-family="Times,serif" font-size="9.00" fill="lightgray">UpDown</text>
</g>
</g>
</svg>
