<?xml version="1.0" encoding="UTF-8" standalone="no"?>
<!DOCTYPE svg PUBLIC "-//W3C//DTD SVG 1.1//EN"
 "http://www.w3.org/Graphics/SVG/1.1/DTD/svg11.dtd">
<!-- Generated by graphviz version 2.43.0 (0)
 -->
<!-- Title: G Pages: 1 -->
<svg width="635pt" height="480pt"
 viewBox="0.00 0.00 634.85 479.75" xmlns="http://www.w3.org/2000/svg" xmlns:xlink="http://www.w3.org/1999/xlink">
<g id="graph0" class="graph" transform="scale(1 1) rotate(0) translate(4 475.75)">
<title>G</title>
<polygon fill="#3d3d3d" stroke="transparent" points="-4,4 -4,-475.75 630.85,-475.75 630.85,4 -4,4"/>
<!-- 16080239393517392754 -->
<g id="node1" class="node">
<title>16080239393517392754</title>
<path fill="lightgray" stroke="black" d="M614.85,-145.8C614.85,-145.8 530.85,-145.8 530.85,-145.8 524.85,-145.8 518.85,-139.8 518.85,-133.8 518.85,-133.8 518.85,-121.8 518.85,-121.8 518.85,-115.8 524.85,-109.8 530.85,-109.8 530.85,-109.8 614.85,-109.8 614.85,-109.8 620.85,-109.8 626.85,-115.8 626.85,-121.8 626.85,-121.8 626.85,-133.8 626.85,-133.8 626.85,-139.8 620.85,-145.8 614.85,-145.8"/>
<text text-anchor="middle" x="572.85" y="-124.1" font-family="Times,serif" font-size="14.00">Signals</text>
</g>
<!-- 13617421333920241101 -->
<g id="node9" class="node">
<title>13617421333920241101</title>
<ellipse fill="#3d3d3d" stroke="lightgray" cx="486.57" cy="-101.65" rx="1.8" ry="1.8"/>
</g>
<!-- 16080239393517392754&#45;&gt;13617421333920241101 -->
<g id="edge1" class="edge">
<title>16080239393517392754&#45;&gt;13617421333920241101</title>
<path fill="none" stroke="#1b9e77" d="M518.7,-111.39C504.88,-107.2 492.68,-103.51 488.3,-102.18"/>
</g>
<!-- 11110891922990083343 -->
<g id="node2" class="node">
<title>11110891922990083343</title>
<path fill="lightgray" stroke="black" d="M446.73,-99.42C446.73,-99.42 348.73,-99.42 348.73,-99.42 342.73,-99.42 336.73,-93.42 336.73,-87.42 336.73,-87.42 336.73,-73.42 336.73,-73.42 336.73,-67.42 342.73,-61.42 348.73,-61.42 348.73,-61.42 446.73,-61.42 446.73,-61.42 452.73,-61.42 458.73,-67.42 458.73,-73.42 458.73,-73.42 458.73,-87.42 458.73,-87.42 458.73,-93.42 452.73,-99.42 446.73,-99.42"/>
<text text-anchor="middle" x="397.73" y="-84.22" font-family="Times,serif" font-size="14.00">1:4</text>
<text text-anchor="middle" x="397.73" y="-69.22" font-family="Times,serif" font-size="14.00">Downsampling</text>
</g>
<!-- 14090999327100098430 -->
<g id="node10" class="node">
<title>14090999327100098430</title>
<ellipse fill="#3d3d3d" stroke="lightgray" cx="320.78" cy="-136.79" rx="1.8" ry="1.8"/>
</g>
<!-- 11110891922990083343&#45;&gt;14090999327100098430 -->
<g id="edge2" class="edge">
<title>11110891922990083343&#45;&gt;14090999327100098430</title>
<path fill="none" stroke="#d95f02" d="M371.68,-99.5C352.49,-113.56 328.69,-130.99 322.38,-135.62"/>
</g>
<!-- 17901095001679318352 -->
<g id="node3" class="node">
<title>17901095001679318352</title>
<path fill="lightgray" stroke="black" d="M225.55,-374.11C225.55,-374.11 141.55,-374.11 141.55,-374.11 135.55,-374.11 129.55,-368.11 129.55,-362.11 129.55,-362.11 129.55,-348.11 129.55,-348.11 129.55,-342.11 135.55,-336.11 141.55,-336.11 141.55,-336.11 225.55,-336.11 225.55,-336.11 231.55,-336.11 237.55,-342.11 237.55,-348.11 237.55,-348.11 237.55,-362.11 237.55,-362.11 237.55,-368.11 231.55,-374.11 225.55,-374.11"/>
<text text-anchor="middle" x="183.55" y="-358.91" font-family="Times,serif" font-size="14.00">4:2</text>
<text text-anchor="middle" x="183.55" y="-343.91" font-family="Times,serif" font-size="14.00">Upsampling</text>
</g>
<!-- 3979635211623298242 -->
<g id="node11" class="node">
<title>3979635211623298242</title>
<ellipse fill="#3d3d3d" stroke="lightgray" cx="117.39" cy="-402.65" rx="1.8" ry="1.8"/>
</g>
<!-- 17901095001679318352&#45;&gt;3979635211623298242 -->
<g id="edge3" class="edge">
<title>17901095001679318352&#45;&gt;3979635211623298242</title>
<path fill="none" stroke="#7570b3" d="M157.02,-374.17C141.49,-385.33 123.95,-397.93 118.85,-401.6"/>
</g>
<!-- 7614126030020206094 -->
<g id="node4" class="node">
<title>7614126030020206094</title>
<path fill="lightgray" stroke="black" d="M348.95,-243.31C348.95,-243.31 224.95,-243.31 224.95,-243.31 218.95,-243.31 212.95,-237.31 212.95,-231.31 212.95,-231.31 212.95,-219.31 212.95,-219.31 212.95,-213.31 218.95,-207.31 224.95,-207.31 224.95,-207.31 348.95,-207.31 348.95,-207.31 354.95,-207.31 360.95,-213.31 360.95,-219.31 360.95,-219.31 360.95,-231.31 360.95,-231.31 360.95,-237.31 354.95,-243.31 348.95,-243.31"/>
<text text-anchor="middle" x="286.95" y="-221.61" font-family="Times,serif" font-size="14.00">&#45;(Y &#45; A)*sign(x[i&#45;1])</text>
</g>
<!-- 1312330470008679502 -->
<g id="node12" class="node">
<title>1312330470008679502</title>
<ellipse fill="#3d3d3d" stroke="lightgray" cx="240.33" cy="-295.65" rx="1.8" ry="1.8"/>
</g>
<!-- 7614126030020206094&#45;&gt;1312330470008679502 -->
<g id="edge4" class="edge">
<title>7614126030020206094&#45;&gt;1312330470008679502</title>
<path fill="none" stroke="#d95f02" d="M274.94,-243.43C263.07,-261.34 246.04,-287.03 241.49,-293.91"/>
</g>
<!-- 13418383846904852565 -->
<g id="node5" class="node">
<title>13418383846904852565</title>
<path fill="lightgray" stroke="black" d="M316.73,-121.07C316.73,-121.07 232.73,-121.07 232.73,-121.07 226.73,-121.07 220.73,-115.07 220.73,-109.07 220.73,-109.07 220.73,-95.07 220.73,-95.07 220.73,-89.07 226.73,-83.07 232.73,-83.07 232.73,-83.07 316.73,-83.07 316.73,-83.07 322.73,-83.07 328.73,-89.07 328.73,-95.07 328.73,-95.07 328.73,-109.07 328.73,-109.07 328.73,-115.07 322.73,-121.07 316.73,-121.07"/>
<text text-anchor="middle" x="274.73" y="-105.87" font-family="Times,serif" font-size="14.00">Down</text>
<text text-anchor="middle" x="274.73" y="-90.87" font-family="Times,serif" font-size="14.00">Logging</text>
</g>
<!-- 11645971808258574285 -->
<g id="node6" class="node">
<title>11645971808258574285</title>
<path fill="lightgray" stroke="black" d="M562.6,-36C562.6,-36 478.6,-36 478.6,-36 472.6,-36 466.6,-30 466.6,-24 466.6,-24 466.6,-12 466.6,-12 466.6,-6 472.6,0 478.6,0 478.6,0 562.6,0 562.6,0 568.6,0 574.6,-6 574.6,-12 574.6,-12 574.6,-24 574.6,-24 574.6,-30 568.6,-36 562.6,-36"/>
<text text-anchor="middle" x="520.6" y="-14.3" font-family="Times,serif" font-size="14.00">Logging</text>
</g>
<!-- 9332356357388745547 -->
<g id="node7" class="node">
<title>9332356357388745547</title>
<path fill="lightgray" stroke="black" d="M96,-471.75C96,-471.75 12,-471.75 12,-471.75 6,-471.75 0,-465.75 0,-459.75 0,-459.75 0,-445.75 0,-445.75 0,-439.75 6,-433.75 12,-433.75 12,-433.75 96,-433.75 96,-433.75 102,-433.75 108,-439.75 108,-445.75 108,-445.75 108,-459.75 108,-459.75 108,-465.75 102,-471.75 96,-471.75"/>
<text text-anchor="middle" x="54" y="-456.55" font-family="Times,serif" font-size="14.00">Up</text>
<text text-anchor="middle" x="54" y="-441.55" font-family="Times,serif" font-size="14.00">Logging</text>
</g>
<!-- 16116145796696598429 -->
<g id="node8" class="node">
<title>16116145796696598429</title>
<path fill="lightgray" stroke="black" d="M487.69,-202.03C487.69,-202.03 403.69,-202.03 403.69,-202.03 397.69,-202.03 391.69,-196.03 391.69,-190.03 391.69,-190.03 391.69,-176.03 391.69,-176.03 391.69,-170.03 397.69,-164.03 403.69,-164.03 403.69,-164.03 487.69,-164.03 487.69,-164.03 493.69,-164.03 499.69,-170.03 499.69,-176.03 499.69,-176.03 499.69,-190.03 499.69,-190.03 499.69,-196.03 493.69,-202.03 487.69,-202.03"/>
<text text-anchor="middle" x="445.69" y="-186.83" font-family="Times,serif" font-size="14.00">1/4</text>
<text text-anchor="middle" x="445.69" y="-171.83" font-family="Times,serif" font-size="14.00">Average</text>
</g>
<!-- 9724242860893494469 -->
<g id="node13" class="node">
<title>9724242860893494469</title>
<ellipse fill="#3d3d3d" stroke="lightgray" cx="353.31" cy="-190.78" rx="1.8" ry="1.8"/>
</g>
<!-- 16116145796696598429&#45;&gt;9724242860893494469 -->
<g id="edge5" class="edge">
<title>16116145796696598429&#45;&gt;9724242860893494469</title>
<path fill="none" stroke="#d95f02" d="M391.68,-187.57C375.26,-188.94 360.19,-190.21 355.12,-190.63"/>
</g>
<!-- 13617421333920241101&#45;&gt;11110891922990083343 -->
<g id="edge6" class="edge">
<title>13617421333920241101&#45;&gt;11110891922990083343</title>
<path fill="none" stroke="#1b9e77" d="M484.71,-101.21C481.91,-100.54 476.14,-99.16 468.84,-97.42"/>
<polygon fill="#1b9e77" stroke="#1b9e77" points="458.89,-95.04 469.66,-92.99 463.75,-96.2 468.61,-97.36 468.61,-97.36 468.61,-97.36 463.75,-96.2 467.57,-101.74 458.89,-95.04 458.89,-95.04"/>
<text text-anchor="middle" x="468.15" y="-101.01" font-family="Times,serif" font-size="9.00" fill="lightgray">U</text>
</g>
<!-- 13617421333920241101&#45;&gt;11645971808258574285 -->
<g id="edge12" class="edge">
<title>13617421333920241101&#45;&gt;11645971808258574285</title>
<path fill="none" stroke="#1b9e77" d="M487.28,-99.91C490.12,-92.94 500.87,-66.5 509.4,-45.52"/>
<polygon fill="#1b9e77" stroke="#1b9e77" points="513.25,-36.06 513.65,-47.02 511.37,-40.69 509.48,-45.32 509.48,-45.32 509.48,-45.32 511.37,-40.69 505.31,-43.63 513.25,-36.06 513.25,-36.06"/>
<text text-anchor="middle" x="496.23" y="-70.88" font-family="Times,serif" font-size="9.00" fill="lightgray">U</text>
</g>
<!-- 13617421333920241101&#45;&gt;16116145796696598429 -->
<g id="edge14" class="edge">
<title>13617421333920241101&#45;&gt;16116145796696598429</title>
<path fill="none" stroke="#1b9e77" d="M485.72,-103.35C482.39,-109.98 469.99,-134.67 459.86,-154.83"/>
<polygon fill="#1b9e77" stroke="#1b9e77" points="455.26,-163.98 455.73,-153.02 457.51,-159.51 459.75,-155.04 459.75,-155.04 459.75,-155.04 457.51,-159.51 463.77,-157.06 455.26,-163.98 455.26,-163.98"/>
<text text-anchor="middle" x="466.41" y="-136.63" font-family="Times,serif" font-size="9.00" fill="lightgray">U</text>
</g>
<!-- 14090999327100098430&#45;&gt;7614126030020206094 -->
<g id="edge8" class="edge">
<title>14090999327100098430&#45;&gt;7614126030020206094</title>
<path fill="none" stroke="#d95f02" d="M320.07,-138.64C317.19,-146.17 306.11,-175.16 297.55,-197.57"/>
<polygon fill="#d95f02" stroke="#d95f02" points="293.95,-206.99 293.32,-196.04 295.73,-202.32 297.52,-197.65 297.52,-197.65 297.52,-197.65 295.73,-202.32 301.72,-199.26 293.95,-206.99 293.95,-206.99"/>
<text text-anchor="middle" x="303.55" y="-175.51" font-family="Times,serif" font-size="9.00" fill="lightgray">Y</text>
</g>
<!-- 14090999327100098430&#45;&gt;13418383846904852565 -->
<g id="edge10" class="edge">
<title>14090999327100098430&#45;&gt;13418383846904852565</title>
<path fill="none" stroke="#d95f02" d="M319.25,-135.64C317.16,-134.06 313.12,-131.01 308.29,-127.37"/>
<polygon fill="#d95f02" stroke="#d95f02" points="300.22,-121.29 310.91,-123.72 304.21,-124.3 308.2,-127.31 308.2,-127.31 308.2,-127.31 304.21,-124.3 305.5,-130.9 300.22,-121.29 300.22,-121.29"/>
<text text-anchor="middle" x="306.12" y="-131.18" font-family="Times,serif" font-size="9.00" fill="lightgray">Y</text>
</g>
<!-- 3979635211623298242&#45;&gt;9332356357388745547 -->
<g id="edge13" class="edge">
<title>3979635211623298242&#45;&gt;9332356357388745547</title>
<path fill="none" stroke="#7570b3" d="M115.82,-403.89C111.5,-407.31 98.86,-417.29 86.13,-427.35"/>
<polygon fill="#7570b3" stroke="#7570b3" points="78.27,-433.56 83.33,-423.83 82.19,-430.46 86.12,-427.36 86.12,-427.36 86.12,-427.36 82.19,-430.46 88.91,-430.89 78.27,-433.56 78.27,-433.56"/>
<text text-anchor="middle" x="93.73" y="-421.38" font-family="Times,serif" font-size="9.00" fill="lightgray">Z</text>
</g>
<!-- 1312330470008679502&#45;&gt;17901095001679318352 -->
<g id="edge7" class="edge">
<title>1312330470008679502&#45;&gt;17901095001679318352</title>
<path fill="none" stroke="#d95f02" d="M238.93,-297.12C234.67,-301.58 221.45,-315.42 208.99,-328.47"/>
<polygon fill="#d95f02" stroke="#d95f02" points="201.82,-335.98 205.47,-325.64 205.27,-332.36 208.73,-328.75 208.73,-328.75 208.73,-328.75 205.27,-332.36 211.98,-331.85 201.82,-335.98 201.82,-335.98"/>
<text text-anchor="middle" x="216.82" y="-319.41" font-family="Times,serif" font-size="9.00" fill="lightgray">Z</text>
</g>
<!-- 9724242860893494469&#45;&gt;7614126030020206094 -->
<g id="edge9" class="edge">
<title>9724242860893494469&#45;&gt;7614126030020206094</title>
<path fill="none" stroke="#d95f02" d="M351.67,-191.64C348.3,-193.39 340.15,-197.63 330.72,-202.54"/>
<polygon fill="#d95f02" stroke="#d95f02" points="321.8,-207.18 328.6,-198.57 326.24,-204.87 330.67,-202.56 330.67,-202.56 330.67,-202.56 326.24,-204.87 332.75,-206.55 321.8,-207.18 321.8,-207.18"/>
<text text-anchor="middle" x="333.19" y="-192.23" font-family="Times,serif" font-size="9.00" fill="lightgray">A</text>
</g>
<!-- 9724242860893494469&#45;&gt;13418383846904852565 -->
<g id="edge11" class="edge">
<title>9724242860893494469&#45;&gt;13418383846904852565</title>
<path fill="none" stroke="#d95f02" d="M351.94,-189.24C345.63,-182.12 318.74,-151.76 298.45,-128.85"/>
<polygon fill="#d95f02" stroke="#d95f02" points="291.59,-121.11 301.59,-125.61 294.91,-124.85 298.22,-128.6 298.22,-128.6 298.22,-128.6 294.91,-124.85 294.85,-131.58 291.59,-121.11 291.59,-121.11"/>
<text text-anchor="middle" x="318.37" y="-158.1" font-family="Times,serif" font-size="9.00" fill="lightgray">A</text>
</g>
</g>
</svg>
