<?xml version="1.0" encoding="UTF-8" standalone="no"?>
<!DOCTYPE svg PUBLIC "-//W3C//DTD SVG 1.1//EN"
 "http://www.w3.org/Graphics/SVG/1.1/DTD/svg11.dtd">
<!-- Generated by graphviz version 2.43.0 (0)
 -->
<!-- Title: G Pages: 1 -->
<svg width="183pt" height="161pt"
 viewBox="0.00 0.00 182.98 161.16" xmlns="http://www.w3.org/2000/svg" xmlns:xlink="http://www.w3.org/1999/xlink">
<g id="graph0" class="graph" transform="scale(1 1) rotate(0) translate(4 157.16)">
<title>G</title>
<polygon fill="#3d3d3d" stroke="transparent" points="-4,4 -4,-157.16 178.98,-157.16 178.98,4 -4,4"/>
<!-- Client -->
<g id="node1" class="node">
<title>Client</title>
<path fill="lightgray" stroke="black" d="M139.39,-88.18C139.39,-88.18 55.39,-88.18 55.39,-88.18 49.39,-88.18 43.39,-82.18 43.39,-76.18 43.39,-76.18 43.39,-64.18 43.39,-64.18 43.39,-58.18 49.39,-52.18 55.39,-52.18 55.39,-52.18 139.39,-52.18 139.39,-52.18 145.39,-52.18 151.39,-58.18 151.39,-64.18 151.39,-64.18 151.39,-76.18 151.39,-76.18 151.39,-82.18 145.39,-88.18 139.39,-88.18"/>
<text text-anchor="middle" x="97.39" y="-66.48" font-family="Times,serif" font-size="14.00">Client</text>
</g>
<!-- out1 -->
<g id="node5" class="node">
<title>out1</title>
<ellipse fill="#3d3d3d" stroke="lightgray" cx="173.18" cy="-99.64" rx="1.8" ry="1.8"/>
</g>
<!-- Client&#45;&gt;out1 -->
<g id="edge4" class="edge">
<title>Client&#45;&gt;out1</title>
<path fill="none" stroke="#1b9e77" d="M144.09,-88.33C156.28,-93.07 167.18,-97.3 171.36,-98.93"/>
<text text-anchor="middle" x="140.73" y="-97.6" font-family="Times,serif" font-size="9.00" fill="lightgray">Output1</text>
</g>
<!-- out2 -->
<g id="node6" class="node">
<title>out2</title>
<ellipse fill="#3d3d3d" stroke="lightgray" cx="93.56" cy="-151.36" rx="1.8" ry="1.8"/>
</g>
<!-- Client&#45;&gt;out2 -->
<g id="edge5" class="edge">
<title>Client&#45;&gt;out2</title>
<path fill="none" stroke="#1b9e77" d="M96.54,-88.2C95.57,-108.75 94.07,-140.63 93.66,-149.19"/>
<text text-anchor="middle" x="74.89" y="-125.99" font-family="Times,serif" font-size="9.00" fill="lightgray">Output2</text>
</g>
<!-- in1 -->
<g id="node2" class="node">
<title>in1</title>
<ellipse fill="#3d3d3d" stroke="lightgray" cx="149.25" cy="-7.63" rx="1.8" ry="1.8"/>
</g>
<!-- in1&#45;&gt;Client -->
<g id="edge1" class="edge">
<title>in1&#45;&gt;Client</title>
<path fill="none" stroke="#1b9e77" d="M147.97,-9.18C143.89,-14.1 130.78,-29.91 118.93,-44.2"/>
<polygon fill="#1b9e77" stroke="#1b9e77" points="112.54,-51.91 115.46,-41.34 115.73,-48.06 118.92,-44.21 118.92,-44.21 118.92,-44.21 115.73,-48.06 122.39,-47.08 112.54,-51.91 112.54,-51.91"/>
<text text-anchor="middle" x="114.36" y="-33.21" font-family="Times,serif" font-size="9.00" fill="lightgray">Input1</text>
</g>
<!-- in2 -->
<g id="node3" class="node">
<title>in2</title>
<ellipse fill="#3d3d3d" stroke="lightgray" cx="53.63" cy="-1.8" rx="1.8" ry="1.8"/>
</g>
<!-- in2&#45;&gt;Client -->
<g id="edge2" class="edge">
<title>in2&#45;&gt;Client</title>
<path fill="none" stroke="#1b9e77" d="M54.71,-3.49C58.27,-9.04 69.94,-27.28 80.18,-43.29"/>
<polygon fill="#1b9e77" stroke="#1b9e77" points="85.66,-51.85 76.48,-45.86 82.97,-47.64 80.27,-43.43 80.27,-43.43 80.27,-43.43 82.97,-47.64 84.06,-41.01 85.66,-51.85 85.66,-51.85"/>
<text text-anchor="middle" x="54.21" y="-30.51" font-family="Times,serif" font-size="9.00" fill="lightgray">Input2</text>
</g>
<!-- in3 -->
<g id="node4" class="node">
<title>in3</title>
<ellipse fill="#3d3d3d" stroke="lightgray" cx="19.05" cy="-91.52" rx="1.8" ry="1.8"/>
</g>
<!-- in3&#45;&gt;Client -->
<g id="edge3" class="edge">
<title>in3&#45;&gt;Client</title>
<path fill="none" stroke="#1b9e77" d="M20.99,-91C23.4,-90.34 27.9,-89.11 33.56,-87.57"/>
<polygon fill="#1b9e77" stroke="#1b9e77" points="43.27,-84.92 34.81,-91.89 38.45,-86.24 33.63,-87.55 33.63,-87.55 33.63,-87.55 38.45,-86.24 32.44,-83.21 43.27,-84.92 43.27,-84.92"/>
<text text-anchor="middle" x="16" y="-80.79" font-family="Times,serif" font-size="9.00" fill="lightgray">Input3</text>
</g>
</g>
</svg>
