<?xml version="1.0" encoding="UTF-8" standalone="no"?>
<!DOCTYPE svg PUBLIC "-//W3C//DTD SVG 1.1//EN"
 "http://www.w3.org/Graphics/SVG/1.1/DTD/svg11.dtd">
<!-- Generated by graphviz version 2.43.0 (0)
 -->
<!-- Title: G Pages: 1 -->
<svg width="343pt" height="215pt"
 viewBox="0.00 0.00 343.05 215.32" xmlns="http://www.w3.org/2000/svg" xmlns:xlink="http://www.w3.org/1999/xlink">
<g id="graph0" class="graph" transform="scale(1 1) rotate(0) translate(4 211.32)">
<title>G</title>
<polygon fill="#3d3d3d" stroke="transparent" points="-4,4 -4,-211.32 339.05,-211.32 339.05,4 -4,4"/>
<!-- 14950357406156080085 -->
<g id="node1" class="node">
<title>14950357406156080085</title>
<path fill="lightgray" stroke="black" d="M96,-36C96,-36 12,-36 12,-36 6,-36 0,-30 0,-24 0,-24 0,-12 0,-12 0,-6 6,0 12,0 12,0 96,0 96,0 102,0 108,-6 108,-12 108,-12 108,-24 108,-24 108,-30 102,-36 96,-36"/>
<text text-anchor="middle" x="54" y="-14.3" font-family="Times,serif" font-size="14.00">RandGen</text>
</g>
<!-- 14408370341662056886 -->
<g id="node4" class="node">
<title>14408370341662056886</title>
<ellipse fill="#3d3d3d" stroke="lightgray" cx="99.51" cy="-74.13" rx="1.8" ry="1.8"/>
</g>
<!-- 14950357406156080085&#45;&gt;14408370341662056886 -->
<g id="edge1" class="edge">
<title>14950357406156080085&#45;&gt;14408370341662056886</title>
<path fill="none" stroke="#1b9e77" d="M68.65,-36.07C79.87,-49.91 94.13,-67.49 98.31,-72.65"/>
</g>
<!-- 987664716023296676 -->
<g id="node2" class="node">
<title>987664716023296676</title>
<path fill="lightgray" stroke="black" d="M195.43,-140.34C195.43,-140.34 111.43,-140.34 111.43,-140.34 105.43,-140.34 99.43,-134.34 99.43,-128.34 99.43,-128.34 99.43,-116.34 99.43,-116.34 99.43,-110.34 105.43,-104.34 111.43,-104.34 111.43,-104.34 195.43,-104.34 195.43,-104.34 201.43,-104.34 207.43,-110.34 207.43,-116.34 207.43,-116.34 207.43,-128.34 207.43,-128.34 207.43,-134.34 201.43,-140.34 195.43,-140.34"/>
<text text-anchor="middle" x="153.43" y="-118.64" font-family="Times,serif" font-size="14.00">Client</text>
</g>
<!-- 1381178252529344110 -->
<g id="node5" class="node">
<title>1381178252529344110</title>
<ellipse fill="#3d3d3d" stroke="lightgray" cx="214.46" cy="-161.17" rx="1.8" ry="1.8"/>
</g>
<!-- 987664716023296676&#45;&gt;1381178252529344110 -->
<g id="edge2" class="edge">
<title>987664716023296676&#45;&gt;1381178252529344110</title>
<path fill="none" stroke="#1b9e77" d="M181.8,-140.39C194.75,-148.63 208.22,-157.2 212.81,-160.12"/>
</g>
<!-- 14063471667366342427 -->
<g id="node3" class="node">
<title>14063471667366342427</title>
<path fill="lightgray" stroke="black" d="M323.05,-207.32C323.05,-207.32 239.05,-207.32 239.05,-207.32 233.05,-207.32 227.05,-201.32 227.05,-195.32 227.05,-195.32 227.05,-183.32 227.05,-183.32 227.05,-177.32 233.05,-171.32 239.05,-171.32 239.05,-171.32 323.05,-171.32 323.05,-171.32 329.05,-171.32 335.05,-177.32 335.05,-183.32 335.05,-183.32 335.05,-195.32 335.05,-195.32 335.05,-201.32 329.05,-207.32 323.05,-207.32"/>
<text text-anchor="middle" x="281.05" y="-185.62" font-family="Times,serif" font-size="14.00">DataLogger</text>
</g>
<!-- 14408370341662056886&#45;&gt;987664716023296676 -->
<g id="edge3" class="edge">
<title>14408370341662056886&#45;&gt;987664716023296676</title>
<path fill="none" stroke="#1b9e77" d="M101.3,-75.73C105.26,-79.27 115.21,-88.17 125.37,-97.25"/>
<polygon fill="#1b9e77" stroke="#1b9e77" points="133.08,-104.15 122.63,-100.84 129.35,-100.81 125.63,-97.48 125.63,-97.48 125.63,-97.48 129.35,-100.81 128.63,-94.13 133.08,-104.15 133.08,-104.15"/>
<text text-anchor="middle" x="112.43" y="-92.95" font-family="Times,serif" font-size="9.00" fill="lightgray">In</text>
</g>
<!-- 1381178252529344110&#45;&gt;14063471667366342427 -->
<g id="edge4" class="edge">
<title>1381178252529344110&#45;&gt;14063471667366342427</title>
<path fill="none" stroke="#1b9e77" d="M216.38,-161.98C218.79,-163 223.28,-164.9 228.81,-167.24"/>
<polygon fill="#1b9e77" stroke="#1b9e77" points="238.23,-171.22 227.26,-171.47 233.62,-169.27 229.01,-167.32 229.01,-167.32 229.01,-167.32 233.62,-169.27 230.77,-163.18 238.23,-171.22 238.23,-171.22"/>
<text text-anchor="middle" x="218.29" y="-169.39" font-family="Times,serif" font-size="9.00" fill="lightgray">Out</text>
</g>
</g>
</svg>
