<?xml version="1.0" encoding="UTF-8" standalone="no"?>
<!DOCTYPE svg PUBLIC "-//W3C//DTD SVG 1.1//EN"
 "http://www.w3.org/Graphics/SVG/1.1/DTD/svg11.dtd">
<!-- Generated by graphviz version 2.43.0 (0)
 -->
<!-- Title: G Pages: 1 -->
<svg width="579pt" height="448pt"
 viewBox="0.00 0.00 579.22 447.89" xmlns="http://www.w3.org/2000/svg" xmlns:xlink="http://www.w3.org/1999/xlink">
<g id="graph0" class="graph" transform="scale(1 1) rotate(0) translate(4 443.89)">
<title>G</title>
<polygon fill="#3d3d3d" stroke="transparent" points="-4,4 -4,-443.89 575.22,-443.89 575.22,4 -4,4"/>
<!-- 16080239393517392754 -->
<g id="node1" class="node">
<title>16080239393517392754</title>
<path fill="lightgray" stroke="black" d="M559.22,-362.38C559.22,-362.38 475.22,-362.38 475.22,-362.38 469.22,-362.38 463.22,-356.38 463.22,-350.38 463.22,-350.38 463.22,-338.38 463.22,-338.38 463.22,-332.38 469.22,-326.38 475.22,-326.38 475.22,-326.38 559.22,-326.38 559.22,-326.38 565.22,-326.38 571.22,-332.38 571.22,-338.38 571.22,-338.38 571.22,-350.38 571.22,-350.38 571.22,-356.38 565.22,-362.38 559.22,-362.38"/>
<text text-anchor="middle" x="517.22" y="-340.68" font-family="Times,serif" font-size="14.00">Signals</text>
</g>
<!-- 13617421333920241101 -->
<g id="node8" class="node">
<title>13617421333920241101</title>
<ellipse fill="#3d3d3d" stroke="lightgray" cx="413.72" cy="-315.52" rx="1.8" ry="1.8"/>
</g>
<!-- 16080239393517392754&#45;&gt;13617421333920241101 -->
<g id="edge1" class="edge">
<title>16080239393517392754&#45;&gt;13617421333920241101</title>
<path fill="none" stroke="#1b9e77" d="M463.04,-329.27C442.3,-323.49 422.09,-317.85 415.75,-316.08"/>
</g>
<!-- 11110891922990083343 -->
<g id="node2" class="node">
<title>11110891922990083343</title>
<path fill="lightgray" stroke="black" d="M478.34,-225.82C478.34,-225.82 380.34,-225.82 380.34,-225.82 374.34,-225.82 368.34,-219.82 368.34,-213.82 368.34,-213.82 368.34,-199.82 368.34,-199.82 368.34,-193.82 374.34,-187.82 380.34,-187.82 380.34,-187.82 478.34,-187.82 478.34,-187.82 484.34,-187.82 490.34,-193.82 490.34,-199.82 490.34,-199.82 490.34,-213.82 490.34,-213.82 490.34,-219.82 484.34,-225.82 478.34,-225.82"/>
<text text-anchor="middle" x="429.34" y="-210.62" font-family="Times,serif" font-size="14.00">1:4</text>
<text text-anchor="middle" x="429.34" y="-195.62" font-family="Times,serif" font-size="14.00">Downsampling</text>
</g>
<!-- 14090999327100098430 -->
<g id="node9" class="node">
<title>14090999327100098430</title>
<ellipse fill="#3d3d3d" stroke="lightgray" cx="353.25" cy="-129.37" rx="1.8" ry="1.8"/>
</g>
<!-- 11110891922990083343&#45;&gt;14090999327100098430 -->
<g id="edge2" class="edge">
<title>11110891922990083343&#45;&gt;14090999327100098430</title>
<path fill="none" stroke="#d95f02" d="M410.53,-187.68C390.81,-167.61 361.74,-138.02 354.78,-130.93"/>
</g>
<!-- 15524628976928949123 -->
<g id="node3" class="node">
<title>15524628976928949123</title>
<path fill="lightgray" stroke="black" d="M295.42,-123.64C295.42,-123.64 171.42,-123.64 171.42,-123.64 165.42,-123.64 159.42,-117.64 159.42,-111.64 159.42,-111.64 159.42,-99.64 159.42,-99.64 159.42,-93.64 165.42,-87.64 171.42,-87.64 171.42,-87.64 295.42,-87.64 295.42,-87.64 301.42,-87.64 307.42,-93.64 307.42,-99.64 307.42,-99.64 307.42,-111.64 307.42,-111.64 307.42,-117.64 301.42,-123.64 295.42,-123.64"/>
<text text-anchor="middle" x="233.42" y="-101.94" font-family="Times,serif" font-size="14.00">&#45;(Y &#45; A)*sign(x[i&#45;1])</text>
</g>
<!-- 1312330470008679502 -->
<g id="node10" class="node">
<title>1312330470008679502</title>
<ellipse fill="#3d3d3d" stroke="lightgray" cx="137.01" cy="-71.19" rx="1.8" ry="1.8"/>
</g>
<!-- 15524628976928949123&#45;&gt;1312330470008679502 -->
<g id="edge3" class="edge">
<title>15524628976928949123&#45;&gt;1312330470008679502</title>
<path fill="none" stroke="#7570b3" d="M182.96,-87.61C163.64,-80.7 144.81,-73.97 138.91,-71.86"/>
</g>
<!-- 767290997661698770 -->
<g id="node4" class="node">
<title>767290997661698770</title>
<path fill="lightgray" stroke="black" d="M386.07,-79.64C386.07,-79.64 302.07,-79.64 302.07,-79.64 296.07,-79.64 290.07,-73.64 290.07,-67.64 290.07,-67.64 290.07,-53.64 290.07,-53.64 290.07,-47.64 296.07,-41.64 302.07,-41.64 302.07,-41.64 386.07,-41.64 386.07,-41.64 392.07,-41.64 398.07,-47.64 398.07,-53.64 398.07,-53.64 398.07,-67.64 398.07,-67.64 398.07,-73.64 392.07,-79.64 386.07,-79.64"/>
<text text-anchor="middle" x="344.07" y="-64.44" font-family="Times,serif" font-size="14.00">Down</text>
<text text-anchor="middle" x="344.07" y="-49.44" font-family="Times,serif" font-size="14.00">Logging</text>
</g>
<!-- 9811422752346158429 -->
<g id="node5" class="node">
<title>9811422752346158429</title>
<path fill="lightgray" stroke="black" d="M437.41,-439.89C437.41,-439.89 353.41,-439.89 353.41,-439.89 347.41,-439.89 341.41,-433.89 341.41,-427.89 341.41,-427.89 341.41,-415.89 341.41,-415.89 341.41,-409.89 347.41,-403.89 353.41,-403.89 353.41,-403.89 437.41,-403.89 437.41,-403.89 443.41,-403.89 449.41,-409.89 449.41,-415.89 449.41,-415.89 449.41,-427.89 449.41,-427.89 449.41,-433.89 443.41,-439.89 437.41,-439.89"/>
<text text-anchor="middle" x="395.41" y="-418.19" font-family="Times,serif" font-size="14.00">Logging</text>
</g>
<!-- 7866755711827121950 -->
<g id="node6" class="node">
<title>7866755711827121950</title>
<path fill="lightgray" stroke="black" d="M96,-38C96,-38 12,-38 12,-38 6,-38 0,-32 0,-26 0,-26 0,-12 0,-12 0,-6 6,0 12,0 12,0 96,0 96,0 102,0 108,-6 108,-12 108,-12 108,-26 108,-26 108,-32 102,-38 96,-38"/>
<text text-anchor="middle" x="54" y="-22.8" font-family="Times,serif" font-size="14.00">Up</text>
<text text-anchor="middle" x="54" y="-7.8" font-family="Times,serif" font-size="14.00">Logging</text>
</g>
<!-- 8888953599359679183 -->
<g id="node7" class="node">
<title>8888953599359679183</title>
<path fill="lightgray" stroke="black" d="M350.89,-302.58C350.89,-302.58 266.89,-302.58 266.89,-302.58 260.89,-302.58 254.89,-296.58 254.89,-290.58 254.89,-290.58 254.89,-276.58 254.89,-276.58 254.89,-270.58 260.89,-264.58 266.89,-264.58 266.89,-264.58 350.89,-264.58 350.89,-264.58 356.89,-264.58 362.89,-270.58 362.89,-276.58 362.89,-276.58 362.89,-290.58 362.89,-290.58 362.89,-296.58 356.89,-302.58 350.89,-302.58"/>
<text text-anchor="middle" x="308.89" y="-287.38" font-family="Times,serif" font-size="14.00">1/4</text>
<text text-anchor="middle" x="308.89" y="-272.38" font-family="Times,serif" font-size="14.00">Average</text>
</g>
<!-- 9724242860893494469 -->
<g id="node11" class="node">
<title>9724242860893494469</title>
<ellipse fill="#3d3d3d" stroke="lightgray" cx="275.33" cy="-179.36" rx="1.8" ry="1.8"/>
</g>
<!-- 8888953599359679183&#45;&gt;9724242860893494469 -->
<g id="edge4" class="edge">
<title>8888953599359679183&#45;&gt;9724242860893494469</title>
<path fill="none" stroke="#d95f02" d="M302.74,-264.46C294.11,-237.67 279.11,-191.1 275.94,-181.23"/>
</g>
<!-- 13617421333920241101&#45;&gt;11110891922990083343 -->
<g id="edge5" class="edge">
<title>13617421333920241101&#45;&gt;11110891922990083343</title>
<path fill="none" stroke="#1b9e77" d="M413.99,-313.63C415.3,-304.53 421.06,-264.46 425.14,-236.08"/>
<polygon fill="#1b9e77" stroke="#1b9e77" points="426.6,-225.86 429.64,-236.4 425.89,-230.81 425.18,-235.76 425.18,-235.76 425.18,-235.76 425.89,-230.81 420.73,-235.12 426.6,-225.86 426.6,-225.86"/>
<text text-anchor="middle" x="416.27" y="-272.76" font-family="Times,serif" font-size="9.00" fill="lightgray">U</text>
</g>
<!-- 13617421333920241101&#45;&gt;9811422752346158429 -->
<g id="edge10" class="edge">
<title>13617421333920241101&#45;&gt;9811422752346158429</title>
<path fill="none" stroke="#1b9e77" d="M413.4,-317.36C411.86,-326.32 405.04,-365.91 400.26,-393.71"/>
<polygon fill="#1b9e77" stroke="#1b9e77" points="398.54,-403.7 395.8,-393.08 399.39,-398.77 400.24,-393.84 400.24,-393.84 400.24,-393.84 399.39,-398.77 404.67,-394.61 398.54,-403.7 398.54,-403.7"/>
<text text-anchor="middle" x="401.99" y="-363.22" font-family="Times,serif" font-size="9.00" fill="lightgray">U</text>
</g>
<!-- 13617421333920241101&#45;&gt;8888953599359679183 -->
<g id="edge12" class="edge">
<title>13617421333920241101&#45;&gt;8888953599359679183</title>
<path fill="none" stroke="#1b9e77" d="M411.9,-314.96C406.67,-313.37 390.83,-308.54 373.09,-303.14"/>
<polygon fill="#1b9e77" stroke="#1b9e77" points="363.09,-300.09 373.97,-298.7 367.87,-301.55 372.66,-303 372.66,-303 372.66,-303 367.87,-301.55 371.34,-307.31 363.09,-300.09 363.09,-300.09"/>
<text text-anchor="middle" x="383.41" y="-310.3" font-family="Times,serif" font-size="9.00" fill="lightgray">U</text>
</g>
<!-- 14090999327100098430&#45;&gt;15524628976928949123 -->
<g id="edge6" class="edge">
<title>14090999327100098430&#45;&gt;15524628976928949123</title>
<path fill="none" stroke="#d95f02" d="M351.17,-128.96C346.28,-127.99 333.27,-125.41 317.6,-122.31"/>
<polygon fill="#d95f02" stroke="#d95f02" points="307.55,-120.32 318.23,-117.85 312.45,-121.29 317.36,-122.26 317.36,-122.26 317.36,-122.26 312.45,-121.29 316.48,-126.68 307.55,-120.32 307.55,-120.32"/>
<text text-anchor="middle" x="325.92" y="-127.45" font-family="Times,serif" font-size="9.00" fill="lightgray">Y</text>
</g>
<!-- 14090999327100098430&#45;&gt;767290997661698770 -->
<g id="edge8" class="edge">
<title>14090999327100098430&#45;&gt;767290997661698770</title>
<path fill="none" stroke="#d95f02" d="M352.98,-127.39C352.23,-121.77 350.02,-105.18 347.98,-89.95"/>
<polygon fill="#d95f02" stroke="#d95f02" points="346.62,-79.77 352.41,-89.08 347.29,-84.72 347.95,-89.68 347.95,-89.68 347.95,-89.68 347.29,-84.72 343.49,-90.27 346.62,-79.77 346.62,-79.77"/>
<text text-anchor="middle" x="346.3" y="-106.35" font-family="Times,serif" font-size="9.00" fill="lightgray">Y</text>
</g>
<!-- 1312330470008679502&#45;&gt;7866755711827121950 -->
<g id="edge11" class="edge">
<title>1312330470008679502&#45;&gt;7866755711827121950</title>
<path fill="none" stroke="#7570b3" d="M135.28,-70.1C129.64,-66.55 111.13,-54.91 93.19,-43.64"/>
<polygon fill="#7570b3" stroke="#7570b3" points="84.5,-38.17 95.36,-39.68 88.73,-40.83 92.96,-43.49 92.96,-43.49 92.96,-43.49 88.73,-40.83 90.57,-47.3 84.5,-38.17 84.5,-38.17"/>
<text text-anchor="middle" x="106.66" y="-57.11" font-family="Times,serif" font-size="9.00" fill="lightgray">Z</text>
</g>
<!-- 9724242860893494469&#45;&gt;15524628976928949123 -->
<g id="edge7" class="edge">
<title>9724242860893494469&#45;&gt;15524628976928949123</title>
<path fill="none" stroke="#d95f02" d="M274.3,-177.54C270.76,-171.31 258.79,-150.26 248.71,-132.53"/>
<polygon fill="#d95f02" stroke="#d95f02" points="243.66,-123.66 252.52,-130.13 246.14,-128.01 248.61,-132.36 248.61,-132.36 248.61,-132.36 246.14,-128.01 244.7,-134.58 243.66,-123.66 243.66,-123.66"/>
<text text-anchor="middle" x="255.38" y="-153.21" font-family="Times,serif" font-size="9.00" fill="lightgray">A</text>
</g>
<!-- 9724242860893494469&#45;&gt;767290997661698770 -->
<g id="edge9" class="edge">
<title>9724242860893494469&#45;&gt;767290997661698770</title>
<path fill="none" stroke="#d95f02" d="M276.51,-177.77C281.13,-171.49 298.41,-147.7 310.62,-126.84 317.75,-114.65 324.92,-100.76 330.77,-88.86"/>
<polygon fill="#d95f02" stroke="#d95f02" points="335.16,-79.81 334.85,-90.77 332.98,-84.31 330.8,-88.8 330.8,-88.8 330.8,-88.8 332.98,-84.31 326.75,-86.84 335.16,-79.81 335.16,-79.81"/>
<text text-anchor="middle" x="307.14" y="-129.61" font-family="Times,serif" font-size="9.00" fill="lightgray">A</text>
</g>
</g>
</svg>
